<svg width="264" height="98" viewBox="0 0 264 98" fill="none" xmlns="http://www.w3.org/2000/svg">
<path d="M11.64 16H9.6L5.82 9.8L1.98 16H0.08L4.82 8.56L0.38 1.72H2.38L5.88 7.32L9.4 1.72H11.3L6.88 8.52L11.64 16ZM22.7387 10.62C22.7387 12.3933 22.2854 13.7667 21.3788 14.74C20.4854 15.7133 19.2721 16.2 17.7388 16.2C16.7921 16.2 15.9454 15.9867 15.1988 15.56C14.4654 15.12 13.8854 14.4867 13.4588 13.66C13.0321 12.82 12.8188 11.8067 12.8188 10.62C12.8188 8.84667 13.2654 7.48 14.1588 6.52C15.0521 5.56 16.2654 5.08 17.7988 5.08C18.7721 5.08 19.6254 5.3 20.3588 5.74C21.1054 6.16667 21.6854 6.79333 22.0988 7.62C22.5254 8.43333 22.7387 9.43333 22.7387 10.62ZM14.6388 10.62C14.6388 11.8867 14.8854 12.8933 15.3788 13.64C15.8854 14.3733 16.6854 14.74 17.7788 14.74C18.8588 14.74 19.6521 14.3733 20.1588 13.64C20.6654 12.8933 20.9188 11.8867 20.9188 10.62C20.9188 9.35333 20.6654 8.36 20.1588 7.64C19.6521 6.92 18.8521 6.56 17.7588 6.56C16.6654 6.56 15.8721 6.92 15.3788 7.64C14.8854 8.36 14.6388 9.35333 14.6388 10.62ZM30.6281 5.08C31.9481 5.08 33.0081 5.54 33.8081 6.46C34.6215 7.38 35.0281 8.76667 35.0281 10.62C35.0281 12.4467 34.6215 13.8333 33.8081 14.78C33.0081 15.7267 31.9415 16.2 30.6081 16.2C29.7815 16.2 29.0948 16.0467 28.5481 15.74C28.0148 15.42 27.5948 15.0533 27.2881 14.64H27.1681C27.1948 14.8667 27.2215 15.1533 27.2481 15.5C27.2748 15.8467 27.2881 16.1467 27.2881 16.4V20.8H25.5281V5.28H26.9681L27.2081 6.74H27.2881C27.6081 6.27333 28.0281 5.88 28.5481 5.56C29.0681 5.24 29.7615 5.08 30.6281 5.08ZM30.3081 6.56C29.2148 6.56 28.4415 6.86667 27.9881 7.48C27.5481 8.09333 27.3148 9.02667 27.2881 10.28V10.62C27.2881 11.94 27.5015 12.96 27.9281 13.68C28.3681 14.3867 29.1748 14.74 30.3481 14.74C31.0015 14.74 31.5348 14.56 31.9481 14.2C32.3748 13.84 32.6881 13.3533 32.8881 12.74C33.1015 12.1133 33.2081 11.4 33.2081 10.6C33.2081 9.37333 32.9681 8.39333 32.4881 7.66C32.0215 6.92667 31.2948 6.56 30.3081 6.56ZM47.1528 10.62C47.1528 12.3933 46.6995 13.7667 45.7928 14.74C44.8995 15.7133 43.6861 16.2 42.1528 16.2C41.2061 16.2 40.3595 15.9867 39.6128 15.56C38.8795 15.12 38.2995 14.4867 37.8728 13.66C37.4461 12.82 37.2328 11.8067 37.2328 10.62C37.2328 8.84667 37.6795 7.48 38.5728 6.52C39.4661 5.56 40.6795 5.08 42.2128 5.08C43.1861 5.08 44.0395 5.3 44.7728 5.74C45.5195 6.16667 46.0995 6.79333 46.5128 7.62C46.9395 8.43333 47.1528 9.43333 47.1528 10.62ZM39.0528 10.62C39.0528 11.8867 39.2995 12.8933 39.7928 13.64C40.2995 14.3733 41.0995 14.74 42.1928 14.74C43.2728 14.74 44.0661 14.3733 44.5728 13.64C45.0795 12.8933 45.3328 11.8867 45.3328 10.62C45.3328 9.35333 45.0795 8.36 44.5728 7.64C44.0661 6.92 43.2661 6.56 42.1728 6.56C41.0795 6.56 40.2861 6.92 39.7928 7.64C39.2995 8.36 39.0528 9.35333 39.0528 10.62ZM64.4822 5.28V16H49.9422V5.28H51.7022V14.52H56.3222V5.28H58.0822V14.52H62.7222V5.28H64.4822ZM69.5709 11.82C69.5709 11.98 69.5643 12.22 69.5509 12.54C69.5376 12.86 69.5176 13.18 69.4909 13.5C69.4776 13.82 69.4643 14.0733 69.4509 14.26L75.1909 5.28H77.3509V16H75.7109V9.68C75.7109 9.46667 75.7109 9.18667 75.7109 8.84C75.7243 8.49333 75.7376 8.15333 75.7509 7.82C75.7643 7.47333 75.7776 7.21333 75.7909 7.04L70.0909 16H67.9109V5.28H69.5709V11.82ZM89.4425 0.84C89.3492 1.84 89.0092 2.6 88.4225 3.12C87.8492 3.62667 86.9292 3.88 85.6625 3.88C84.3558 3.88 83.4292 3.62667 82.8825 3.12C82.3492 2.61333 82.0492 1.85333 81.9825 0.84H83.6225C83.6892 1.56 83.8758 2.04667 84.1825 2.3C84.5025 2.54 85.0092 2.66 85.7025 2.66C86.3158 2.66 86.7958 2.53333 87.1425 2.28C87.5025 2.01333 87.7158 1.53333 87.7825 0.84H89.4425ZM82.4225 11.82C82.4225 11.98 82.4158 12.22 82.4025 12.54C82.3892 12.86 82.3692 13.18 82.3425 13.5C82.3292 13.82 82.3158 14.0733 82.3025 14.26L88.0425 5.28H90.2025V16H88.5625V9.68C88.5625 9.46667 88.5625 9.18667 88.5625 8.84C88.5758 8.49333 88.5892 8.15333 88.6025 7.82C88.6158 7.47333 88.6292 7.21333 88.6425 7.04L82.9425 16H80.7625V5.28H82.4225V11.82ZM113.623 5.28V16H99.0828V5.28H100.843V14.52H105.463V5.28H107.223V14.52H111.863V5.28H113.623ZM122.152 5.08C123.472 5.08 124.532 5.54 125.332 6.46C126.145 7.38 126.552 8.76667 126.552 10.62C126.552 12.4467 126.145 13.8333 125.332 14.78C124.532 15.7267 123.465 16.2 122.132 16.2C121.305 16.2 120.618 16.0467 120.072 15.74C119.538 15.42 119.118 15.0533 118.812 14.64H118.692C118.718 14.8667 118.745 15.1533 118.772 15.5C118.798 15.8467 118.812 16.1467 118.812 16.4V20.8H117.052V5.28H118.492L118.732 6.74H118.812C119.132 6.27333 119.552 5.88 120.072 5.56C120.592 5.24 121.285 5.08 122.152 5.08ZM121.832 6.56C120.738 6.56 119.965 6.86667 119.512 7.48C119.072 8.09333 118.838 9.02667 118.812 10.28V10.62C118.812 11.94 119.025 12.96 119.452 13.68C119.892 14.3867 120.698 14.74 121.872 14.74C122.525 14.74 123.058 14.56 123.472 14.2C123.898 13.84 124.212 13.3533 124.412 12.74C124.625 12.1133 124.732 11.4 124.732 10.6C124.732 9.37333 124.492 8.39333 124.012 7.66C123.545 6.92667 122.818 6.56 121.832 6.56ZM131.016 11.82C131.016 11.98 131.01 12.22 130.996 12.54C130.983 12.86 130.963 13.18 130.936 13.5C130.923 13.82 130.91 14.0733 130.896 14.26L136.636 5.28H138.796V16H137.156V9.68C137.156 9.46667 137.156 9.18667 137.156 8.84C137.17 8.49333 137.183 8.15333 137.196 7.82C137.21 7.47333 137.223 7.21333 137.236 7.04L131.536 16H129.356V5.28H131.016V11.82ZM148.608 5.12C149.674 5.21333 150.601 5.49333 151.388 5.96C152.188 6.42667 152.808 7.05333 153.248 7.84C153.688 8.62667 153.908 9.56 153.908 10.64C153.908 12.2533 153.434 13.54 152.488 14.5C151.554 15.46 150.261 16.0133 148.608 16.16V20.8H146.888V16.16C145.834 16.0667 144.908 15.7933 144.108 15.34C143.308 14.8733 142.688 14.2467 142.248 13.46C141.808 12.66 141.588 11.72 141.588 10.64C141.588 9.01333 142.054 7.72 142.988 6.76C143.934 5.8 145.254 5.25333 146.948 5.12V0.799999H148.608V5.12ZM146.948 6.58C145.721 6.7 144.828 7.10667 144.268 7.8C143.708 8.48 143.428 9.42667 143.428 10.64C143.428 11.8533 143.708 12.8067 144.268 13.5C144.841 14.1933 145.734 14.6 146.948 14.72V6.58ZM148.608 14.72C149.808 14.5867 150.688 14.1733 151.248 13.48C151.808 12.7867 152.088 11.84 152.088 10.64C152.088 9.44 151.801 8.5 151.228 7.82C150.668 7.14 149.794 6.73333 148.608 6.6V14.72ZM163.905 6.76H160.405V16H158.665V6.76H155.205V5.28H163.905V6.76ZM169.512 10.18V9.4H189.712V10.18H169.512ZM198.322 16.2C197.709 16.2 197.176 16.1467 196.722 16.04C196.282 15.9467 195.869 15.8067 195.482 15.62V14.1C195.882 14.26 196.316 14.4 196.782 14.52C197.249 14.64 197.776 14.7 198.362 14.7C199.402 14.7 200.229 14.42 200.842 13.86C201.456 13.3 201.796 12.4133 201.862 11.2H196.582V9.76H201.842C201.749 8.66667 201.436 7.86667 200.902 7.36C200.382 6.85333 199.616 6.6 198.602 6.6C198.216 6.6 197.789 6.65333 197.322 6.76C196.869 6.86667 196.462 6.98667 196.102 7.12L195.602 5.7C195.989 5.52667 196.449 5.38 196.982 5.26C197.516 5.14 198.049 5.08 198.582 5.08C199.582 5.08 200.462 5.26667 201.222 5.64C201.996 6.01333 202.596 6.60667 203.022 7.42C203.462 8.23333 203.682 9.30667 203.682 10.64C203.682 11.9067 203.449 12.9533 202.982 13.78C202.529 14.6067 201.896 15.22 201.082 15.62C200.282 16.0067 199.362 16.2 198.322 16.2ZM213.69 6.76H210.19V16H208.45V6.76H204.99V5.28H213.69V6.76ZM224.926 10.62C224.926 12.3933 224.473 13.7667 223.566 14.74C222.673 15.7133 221.46 16.2 219.926 16.2C218.98 16.2 218.133 15.9867 217.386 15.56C216.653 15.12 216.073 14.4867 215.646 13.66C215.22 12.82 215.006 11.8067 215.006 10.62C215.006 8.84667 215.453 7.48 216.346 6.52C217.24 5.56 218.453 5.08 219.986 5.08C220.96 5.08 221.813 5.3 222.546 5.74C223.293 6.16667 223.873 6.79333 224.286 7.62C224.713 8.43333 224.926 9.43333 224.926 10.62ZM216.826 10.62C216.826 11.8867 217.073 12.8933 217.566 13.64C218.073 14.3733 218.873 14.74 219.966 14.74C221.046 14.74 221.84 14.3733 222.346 13.64C222.853 12.8933 223.106 11.8867 223.106 10.62C223.106 9.35333 222.853 8.36 222.346 7.64C221.84 6.92 221.04 6.56 219.946 6.56C218.853 6.56 218.06 6.92 217.566 7.64C217.073 8.36 216.826 9.35333 216.826 10.62ZM239.251 5.28H241.171L236.591 10.44L241.551 16H239.511L234.671 10.56V16H232.911V5.28H234.671V10.48L239.251 5.28ZM247.557 5.1C248.864 5.1 249.83 5.38667 250.457 5.96C251.084 6.53333 251.397 7.44667 251.397 8.7V16H250.117L249.777 14.48H249.697C249.23 15.0667 248.737 15.5 248.217 15.78C247.71 16.06 247.004 16.2 246.097 16.2C245.124 16.2 244.317 15.9467 243.677 15.44C243.037 14.92 242.717 14.1133 242.717 13.02C242.717 11.9533 243.137 11.1333 243.977 10.56C244.817 9.97333 246.11 9.65333 247.857 9.6L249.677 9.54V8.9C249.677 8.00667 249.484 7.38667 249.097 7.04C248.71 6.69333 248.164 6.52 247.457 6.52C246.897 6.52 246.364 6.60667 245.857 6.78C245.35 6.94 244.877 7.12667 244.437 7.34L243.897 6.02C244.364 5.76667 244.917 5.55333 245.557 5.38C246.197 5.19333 246.864 5.1 247.557 5.1ZM248.077 10.82C246.744 10.8733 245.817 11.0867 245.297 11.46C244.79 11.8333 244.537 12.36 244.537 13.04C244.537 13.64 244.717 14.08 245.077 14.36C245.45 14.64 245.924 14.78 246.497 14.78C247.404 14.78 248.157 14.5333 248.757 14.04C249.357 13.5333 249.657 12.76 249.657 11.72V10.76L248.077 10.82ZM261.048 5.28H262.968L258.388 10.44L263.348 16H261.308L256.468 10.56V16H254.708V5.28H256.468V10.48L261.048 5.28ZM8.24 31.28V32.76H3.46V42H1.7V31.28H8.24ZM14.4123 31.1C15.719 31.1 16.6857 31.3867 17.3123 31.96C17.939 32.5333 18.2523 33.4467 18.2523 34.7V42H16.9723L16.6323 40.48H16.5523C16.0857 41.0667 15.5923 41.5 15.0723 41.78C14.5657 42.06 13.859 42.2 12.9523 42.2C11.979 42.2 11.1723 41.9467 10.5323 41.44C9.89234 40.92 9.57234 40.1133 9.57234 39.02C9.57234 37.9533 9.99234 37.1333 10.8323 36.56C11.6723 35.9733 12.9657 35.6533 14.7123 35.6L16.5323 35.54V34.9C16.5323 34.0067 16.339 33.3867 15.9523 33.04C15.5657 32.6933 15.019 32.52 14.3123 32.52C13.7523 32.52 13.219 32.6067 12.7123 32.78C12.2057 32.94 11.7323 33.1267 11.2923 33.34L10.7523 32.02C11.219 31.7667 11.7723 31.5533 12.4123 31.38C13.0523 31.1933 13.719 31.1 14.4123 31.1ZM14.9323 36.82C13.599 36.8733 12.6723 37.0867 12.1523 37.46C11.6457 37.8333 11.3923 38.36 11.3923 39.04C11.3923 39.64 11.5723 40.08 11.9323 40.36C12.3057 40.64 12.779 40.78 13.3523 40.78C14.259 40.78 15.0123 40.5333 15.6123 40.04C16.2123 39.5333 16.5123 38.76 16.5123 37.72V36.76L14.9323 36.82ZM26.6633 31.08C27.9833 31.08 29.0433 31.54 29.8433 32.46C30.6566 33.38 31.0633 34.7667 31.0633 36.62C31.0633 38.4467 30.6566 39.8333 29.8433 40.78C29.0433 41.7267 27.9766 42.2 26.6433 42.2C25.8166 42.2 25.1299 42.0467 24.5833 41.74C24.0499 41.42 23.6299 41.0533 23.3233 40.64H23.2033C23.2299 40.8667 23.2566 41.1533 23.2833 41.5C23.3099 41.8467 23.3233 42.1467 23.3233 42.4V46.8H21.5633V31.28H23.0033L23.2433 32.74H23.3233C23.6433 32.2733 24.0633 31.88 24.5833 31.56C25.1033 31.24 25.7966 31.08 26.6633 31.08ZM26.3433 32.56C25.2499 32.56 24.4766 32.8667 24.0233 33.48C23.5833 34.0933 23.3499 35.0267 23.3233 36.28V36.62C23.3233 37.94 23.5366 38.96 23.9633 39.68C24.4033 40.3867 25.2099 40.74 26.3833 40.74C27.0366 40.74 27.5699 40.56 27.9833 40.2C28.4099 39.84 28.7233 39.3533 28.9233 38.74C29.1366 38.1133 29.2433 37.4 29.2433 36.6C29.2433 35.3733 29.0033 34.3933 28.5233 33.66C28.0566 32.9267 27.3299 32.56 26.3433 32.56ZM45.368 31.28V42H43.788V35.16C43.788 34.88 43.7946 34.5867 43.808 34.28C43.8346 33.9733 43.8613 33.6733 43.888 33.38H43.828L40.328 42H38.848L35.448 33.38H35.388C35.428 33.98 35.448 34.5933 35.448 35.22V42H33.868V31.28H36.208L39.588 39.9L43.028 31.28H45.368ZM58.1098 36.62C58.1098 38.3933 57.6565 39.7667 56.7498 40.74C55.8565 41.7133 54.6432 42.2 53.1098 42.2C52.1632 42.2 51.3165 41.9867 50.5698 41.56C49.8365 41.12 49.2565 40.4867 48.8298 39.66C48.4032 38.82 48.1898 37.8067 48.1898 36.62C48.1898 34.8467 48.6365 33.48 49.5298 32.52C50.4232 31.56 51.6365 31.08 53.1698 31.08C54.1432 31.08 54.9965 31.3 55.7298 31.74C56.4765 32.1667 57.0565 32.7933 57.4698 33.62C57.8965 34.4333 58.1098 35.4333 58.1098 36.62ZM50.0098 36.62C50.0098 37.8867 50.2565 38.8933 50.7498 39.64C51.2565 40.3733 52.0565 40.74 53.1498 40.74C54.2298 40.74 55.0232 40.3733 55.5298 39.64C56.0365 38.8933 56.2898 37.8867 56.2898 36.62C56.2898 35.3533 56.0365 34.36 55.5298 33.64C55.0232 32.92 54.2232 32.56 53.1298 32.56C52.0365 32.56 51.2432 32.92 50.7498 33.64C50.2565 34.36 50.0098 35.3533 50.0098 36.62ZM62.6592 31.28V35.74H68.4792V31.28H70.2392V42H68.4792V37.22H62.6592V42H60.8992V31.28H62.6592ZM75.2936 37.82C75.2936 37.98 75.2869 38.22 75.2736 38.54C75.2603 38.86 75.2403 39.18 75.2136 39.5C75.2003 39.82 75.1869 40.0733 75.1736 40.26L80.9136 31.28H83.0736V42H81.4336V35.68C81.4336 35.4667 81.4336 35.1867 81.4336 34.84C81.4469 34.4933 81.4603 34.1533 81.4736 33.82C81.4869 33.4733 81.5003 33.2133 81.5136 33.04L75.8136 42H73.6336V31.28H75.2936V37.82ZM88.0252 35.18C88.0252 36.4067 88.7118 37.02 90.0852 37.02C90.7518 37.02 91.3585 36.92 91.9052 36.72C92.4518 36.5067 93.0118 36.2267 93.5852 35.88V31.28H95.3452V42H93.5852V37.22C92.9852 37.6067 92.3918 37.9133 91.8052 38.14C91.2318 38.3533 90.5385 38.46 89.7252 38.46C88.6318 38.46 87.7785 38.1733 87.1652 37.6C86.5652 37.0267 86.2652 36.26 86.2652 35.3V31.28H88.0252V35.18ZM100.511 31.28V35.74H106.331V31.28H108.091V42H106.331V37.22H100.511V42H98.7508V31.28H100.511ZM120.805 36.62C120.805 38.3933 120.352 39.7667 119.445 40.74C118.552 41.7133 117.338 42.2 115.805 42.2C114.858 42.2 114.012 41.9867 113.265 41.56C112.532 41.12 111.952 40.4867 111.525 39.66C111.098 38.82 110.885 37.8067 110.885 36.62C110.885 34.8467 111.332 33.48 112.225 32.52C113.118 31.56 114.332 31.08 115.865 31.08C116.838 31.08 117.692 31.3 118.425 31.74C119.172 32.1667 119.752 32.7933 120.165 33.62C120.592 34.4333 120.805 35.4333 120.805 36.62ZM112.705 36.62C112.705 37.8867 112.952 38.8933 113.445 39.64C113.952 40.3733 114.752 40.74 115.845 40.74C116.925 40.74 117.718 40.3733 118.225 39.64C118.732 38.8933 118.985 37.8867 118.985 36.62C118.985 35.3533 118.732 34.36 118.225 33.64C117.718 32.92 116.918 32.56 115.825 32.56C114.732 32.56 113.938 32.92 113.445 33.64C112.952 34.36 112.705 35.3533 112.705 36.62ZM127.735 31.08C128.655 31.08 129.441 31.28 130.095 31.68C130.761 32.08 131.268 32.6467 131.615 33.38C131.975 34.1 132.155 34.9467 132.155 35.92V36.98H124.815C124.841 38.1933 125.148 39.12 125.735 39.76C126.335 40.3867 127.168 40.7 128.235 40.7C128.915 40.7 129.515 40.64 130.035 40.52C130.568 40.3867 131.115 40.2 131.675 39.96V41.5C131.128 41.74 130.588 41.9133 130.055 42.02C129.521 42.14 128.888 42.2 128.155 42.2C127.141 42.2 126.241 41.9933 125.455 41.58C124.681 41.1667 124.075 40.5533 123.635 39.74C123.208 38.9133 122.995 37.9067 122.995 36.72C122.995 35.5467 123.188 34.54 123.575 33.7C123.975 32.86 124.528 32.2133 125.235 31.76C125.955 31.3067 126.788 31.08 127.735 31.08ZM127.715 32.52C126.875 32.52 126.208 32.7933 125.715 33.34C125.235 33.8733 124.948 34.62 124.855 35.58H130.315C130.301 34.6733 130.088 33.94 129.675 33.38C129.261 32.8067 128.608 32.52 127.715 32.52ZM144.379 42.2C143.432 42.2 142.586 42.0067 141.839 41.62C141.106 41.2333 140.526 40.6333 140.099 39.82C139.686 39.0067 139.479 37.9667 139.479 36.7C139.479 35.38 139.699 34.3067 140.139 33.48C140.579 32.6533 141.172 32.0467 141.919 31.66C142.679 31.2733 143.539 31.08 144.499 31.08C145.046 31.08 145.572 31.14 146.079 31.26C146.586 31.3667 146.999 31.5 147.319 31.66L146.779 33.12C146.459 33 146.086 32.8867 145.659 32.78C145.232 32.6733 144.832 32.62 144.459 32.62C142.352 32.62 141.299 33.9733 141.299 36.68C141.299 37.9733 141.552 38.9667 142.059 39.66C142.579 40.34 143.346 40.68 144.359 40.68C144.946 40.68 145.459 40.62 145.899 40.5C146.352 40.38 146.766 40.2333 147.139 40.06V41.62C146.779 41.8067 146.379 41.9467 145.939 42.04C145.512 42.1467 144.992 42.2 144.379 42.2ZM159.008 36.62C159.008 38.3933 158.555 39.7667 157.648 40.74C156.755 41.7133 155.542 42.2 154.008 42.2C153.062 42.2 152.215 41.9867 151.468 41.56C150.735 41.12 150.155 40.4867 149.728 39.66C149.302 38.82 149.088 37.8067 149.088 36.62C149.088 34.8467 149.535 33.48 150.428 32.52C151.322 31.56 152.535 31.08 154.068 31.08C155.042 31.08 155.895 31.3 156.628 31.74C157.375 32.1667 157.955 32.7933 158.368 33.62C158.795 34.4333 159.008 35.4333 159.008 36.62ZM150.908 36.62C150.908 37.8867 151.155 38.8933 151.648 39.64C152.155 40.3733 152.955 40.74 154.048 40.74C155.128 40.74 155.922 40.3733 156.428 39.64C156.935 38.8933 157.188 37.8867 157.188 36.62C157.188 35.3533 156.935 34.36 156.428 33.64C155.922 32.92 155.122 32.56 154.028 32.56C152.935 32.56 152.142 32.92 151.648 33.64C151.155 34.36 150.908 35.3533 150.908 36.62ZM171.118 36.62C171.118 38.3933 170.664 39.7667 169.758 40.74C168.864 41.7133 167.651 42.2 166.118 42.2C165.171 42.2 164.324 41.9867 163.578 41.56C162.844 41.12 162.264 40.4867 161.838 39.66C161.411 38.82 161.198 37.8067 161.198 36.62C161.198 34.8467 161.644 33.48 162.538 32.52C163.431 31.56 164.644 31.08 166.178 31.08C167.151 31.08 168.004 31.3 168.738 31.74C169.484 32.1667 170.064 32.7933 170.478 33.62C170.904 34.4333 171.118 35.4333 171.118 36.62ZM163.018 36.62C163.018 37.8867 163.264 38.8933 163.758 39.64C164.264 40.3733 165.064 40.74 166.158 40.74C167.238 40.74 168.031 40.3733 168.538 39.64C169.044 38.8933 169.298 37.8867 169.298 36.62C169.298 35.3533 169.044 34.36 168.538 33.64C168.031 32.92 167.231 32.56 166.138 32.56C165.044 32.56 164.251 32.92 163.758 33.64C163.264 34.36 163.018 35.3533 163.018 36.62ZM173.347 35.56C173.347 33.2133 173.7 31.3867 174.407 30.08C175.114 28.76 176.254 27.9333 177.827 27.6C178.694 27.4133 179.54 27.2467 180.367 27.1C181.194 26.9533 181.967 26.82 182.687 26.7L182.987 28.24C182.52 28.3067 181.994 28.3933 181.407 28.5C180.82 28.5933 180.24 28.6933 179.667 28.8C179.094 28.8933 178.6 28.9867 178.187 29.08C177.32 29.2667 176.634 29.72 176.127 30.44C175.62 31.1467 175.334 32.2533 175.267 33.76H175.387C175.574 33.5067 175.827 33.2467 176.147 32.98C176.48 32.7133 176.874 32.4867 177.327 32.3C177.794 32.1133 178.32 32.02 178.907 32.02C180.294 32.02 181.34 32.4667 182.047 33.36C182.754 34.2533 183.107 35.4133 183.107 36.84C183.107 38.0267 182.9 39.02 182.487 39.82C182.074 40.62 181.5 41.22 180.767 41.62C180.034 42.0067 179.18 42.2 178.207 42.2C176.727 42.2 175.547 41.6333 174.667 40.5C173.787 39.3667 173.347 37.72 173.347 35.56ZM178.347 40.74C179.214 40.74 179.914 40.46 180.447 39.9C180.98 39.34 181.247 38.38 181.247 37.02C181.247 35.9267 181.04 35.0667 180.627 34.44C180.227 33.8 179.56 33.48 178.627 33.48C178.04 33.48 177.507 33.6133 177.027 33.88C176.547 34.1333 176.147 34.4267 175.827 34.76C175.507 35.0933 175.28 35.3733 175.147 35.6C175.147 36.2533 175.194 36.8867 175.287 37.5C175.38 38.1133 175.54 38.6667 175.767 39.16C176.007 39.64 176.334 40.0267 176.747 40.32C177.174 40.6 177.707 40.74 178.347 40.74ZM200.4 31.28V40.54H201.96V45.7H200.2V42H185.88V31.28H187.64V40.52H192.26V31.28H194.02V40.52H198.66V31.28H200.4ZM208.145 31.08C209.065 31.08 209.851 31.28 210.505 31.68C211.171 32.08 211.678 32.6467 212.025 33.38C212.385 34.1 212.565 34.9467 212.565 35.92V36.98H205.225C205.251 38.1933 205.558 39.12 206.145 39.76C206.745 40.3867 207.578 40.7 208.645 40.7C209.325 40.7 209.925 40.64 210.445 40.52C210.978 40.3867 211.525 40.2 212.085 39.96V41.5C211.538 41.74 210.998 41.9133 210.465 42.02C209.931 42.14 209.298 42.2 208.565 42.2C207.551 42.2 206.651 41.9933 205.865 41.58C205.091 41.1667 204.485 40.5533 204.045 39.74C203.618 38.9133 203.405 37.9067 203.405 36.72C203.405 35.5467 203.598 34.54 203.985 33.7C204.385 32.86 204.938 32.2133 205.645 31.76C206.365 31.3067 207.198 31.08 208.145 31.08ZM208.125 32.52C207.285 32.52 206.618 32.7933 206.125 33.34C205.645 33.8733 205.358 34.62 205.265 35.58H210.725C210.711 34.6733 210.498 33.94 210.085 33.38C209.671 32.8067 209.018 32.52 208.125 32.52ZM219.594 42.2C218.647 42.2 217.8 42.0067 217.054 41.62C216.32 41.2333 215.74 40.6333 215.314 39.82C214.9 39.0067 214.694 37.9667 214.694 36.7C214.694 35.38 214.914 34.3067 215.354 33.48C215.794 32.6533 216.387 32.0467 217.134 31.66C217.894 31.2733 218.754 31.08 219.714 31.08C220.26 31.08 220.787 31.14 221.294 31.26C221.8 31.3667 222.214 31.5 222.534 31.66L221.994 33.12C221.674 33 221.3 32.8867 220.874 32.78C220.447 32.6733 220.047 32.62 219.674 32.62C217.567 32.62 216.514 33.9733 216.514 36.68C216.514 37.9733 216.767 38.9667 217.274 39.66C217.794 40.34 218.56 40.68 219.574 40.68C220.16 40.68 220.674 40.62 221.114 40.5C221.567 40.38 221.98 40.2333 222.354 40.06V41.62C221.994 41.8067 221.594 41.9467 221.154 42.04C220.727 42.1467 220.207 42.2 219.594 42.2ZM232.303 32.76H228.803V42H227.063V32.76H223.603V31.28H232.303V32.76ZM243.035 33.98C243.035 34.6467 242.835 35.1667 242.435 35.54C242.035 35.9133 241.522 36.1667 240.895 36.3V36.38C241.562 36.4733 242.142 36.7133 242.635 37.1C243.128 37.4733 243.375 38.06 243.375 38.86C243.375 39.7667 243.035 40.52 242.355 41.12C241.688 41.7067 240.582 42 239.035 42H234.415V31.28H239.015C239.775 31.28 240.455 31.3667 241.055 31.54C241.668 31.7 242.148 31.98 242.495 32.38C242.855 32.7667 243.035 33.3 243.035 33.98ZM241.255 34.2C241.255 33.6933 241.068 33.3267 240.695 33.1C240.335 32.86 239.742 32.74 238.915 32.74H236.175V35.68H238.595C240.368 35.68 241.255 35.1867 241.255 34.2ZM241.555 38.86C241.555 38.2467 241.322 37.8067 240.855 37.54C240.388 37.2733 239.702 37.14 238.795 37.14H236.175V40.58H238.835C239.715 40.58 240.388 40.4533 240.855 40.2C241.322 39.9333 241.555 39.4867 241.555 38.86ZM255.258 36.62C255.258 38.3933 254.805 39.7667 253.898 40.74C253.005 41.7133 251.792 42.2 250.258 42.2C249.312 42.2 248.465 41.9867 247.718 41.56C246.985 41.12 246.405 40.4867 245.978 39.66C245.552 38.82 245.338 37.8067 245.338 36.62C245.338 34.8467 245.785 33.48 246.678 32.52C247.572 31.56 248.785 31.08 250.318 31.08C251.292 31.08 252.145 31.3 252.878 31.74C253.625 32.1667 254.205 32.7933 254.618 33.62C255.045 34.4333 255.258 35.4333 255.258 36.62ZM247.158 36.62C247.158 37.8867 247.405 38.8933 247.898 39.64C248.405 40.3733 249.205 40.74 250.298 40.74C251.378 40.74 252.172 40.3733 252.678 39.64C253.185 38.8933 253.438 37.8867 253.438 36.62C253.438 35.3533 253.185 34.36 252.678 33.64C252.172 32.92 251.372 32.56 250.278 32.56C249.185 32.56 248.392 32.92 247.898 33.64C247.405 34.36 247.158 35.3533 247.158 36.62ZM9.86 68H8.08V58.74H4.92C4.74667 60.9933 4.50667 62.8133 4.2 64.2C3.89333 65.5733 3.48667 66.5733 2.98 67.2C2.47333 67.8267 1.83333 68.14 1.06 68.14C0.886667 68.14 0.713333 68.1267 0.54 68.1C0.38 68.0867 0.246667 68.0533 0.14 68V66.68C0.22 66.7067 0.306667 66.7267 0.4 66.74C0.493333 66.7533 0.586667 66.76 0.68 66.76C1.4 66.76 1.97333 65.9933 2.4 64.46C2.84 62.9267 3.17333 60.5333 3.4 57.28H9.86V68ZM27.1825 62.62C27.1825 64.3933 26.7558 65.7667 25.9025 66.74C25.0492 67.7133 23.8958 68.2 22.4425 68.2C21.0825 68.2 19.9825 67.7733 19.1425 66.92C18.3158 66.0667 17.8492 64.8333 17.7425 63.22H15.0225V68H13.2625V57.28H15.0225V61.74H17.7625C17.9092 60.2333 18.3958 59.08 19.2225 58.28C20.0492 57.48 21.1358 57.08 22.4825 57.08C23.4025 57.08 24.2158 57.3 24.9225 57.74C25.6292 58.1667 26.1825 58.7933 26.5825 59.62C26.9825 60.4333 27.1825 61.4333 27.1825 62.62ZM19.5425 62.62C19.5425 63.9667 19.7758 64.9933 20.2425 65.7C20.7092 66.3933 21.4492 66.74 22.4625 66.74C23.4892 66.74 24.2292 66.3933 24.6825 65.7C25.1358 64.9933 25.3625 63.9667 25.3625 62.62C25.3625 61.2733 25.1292 60.26 24.6625 59.58C24.2092 58.9 23.4758 58.56 22.4625 58.56C21.4492 58.56 20.7092 58.9 20.2425 59.58C19.7758 60.26 19.5425 61.2733 19.5425 62.62ZM37.9413 57.28V66.52H39.5013V71.72H37.8013V68H30.3413V71.72H28.6613V66.52H29.5213C30.4413 65.2533 31.1279 63.8133 31.5813 62.2C32.0479 60.5733 32.2879 58.9333 32.3013 57.28H37.9413ZM33.8613 58.66C33.8079 59.5667 33.6679 60.5067 33.4413 61.48C33.2146 62.44 32.9213 63.36 32.5613 64.24C32.2146 65.12 31.8079 65.88 31.3413 66.52H36.2413V58.66H33.8613ZM45.7423 57.08C46.6623 57.08 47.449 57.28 48.1023 57.68C48.769 58.08 49.2757 58.6467 49.6223 59.38C49.9823 60.1 50.1623 60.9467 50.1623 61.92V62.98H42.8223C42.849 64.1933 43.1557 65.12 43.7423 65.76C44.3423 66.3867 45.1757 66.7 46.2423 66.7C46.9223 66.7 47.5223 66.64 48.0423 66.52C48.5757 66.3867 49.1223 66.2 49.6823 65.96V67.5C49.1357 67.74 48.5957 67.9133 48.0623 68.02C47.529 68.14 46.8957 68.2 46.1623 68.2C45.149 68.2 44.249 67.9933 43.4623 67.58C42.689 67.1667 42.0823 66.5533 41.6423 65.74C41.2157 64.9133 41.0023 63.9067 41.0023 62.72C41.0023 61.5467 41.1957 60.54 41.5823 59.7C41.9823 58.86 42.5357 58.2133 43.2423 57.76C43.9623 57.3067 44.7957 57.08 45.7423 57.08ZM45.7223 58.52C44.8823 58.52 44.2157 58.7933 43.7223 59.34C43.2423 59.8733 42.9557 60.62 42.8623 61.58H48.3223C48.309 60.6733 48.0957 59.94 47.6823 59.38C47.269 58.8067 46.6157 58.52 45.7223 58.52ZM61.5714 52.84C61.4781 53.84 61.1381 54.6 60.5514 55.12C59.9781 55.6267 59.0581 55.88 57.7914 55.88C56.4847 55.88 55.5581 55.6267 55.0114 55.12C54.4781 54.6133 54.1781 53.8533 54.1114 52.84H55.7514C55.8181 53.56 56.0047 54.0467 56.3114 54.3C56.6314 54.54 57.1381 54.66 57.8314 54.66C58.4447 54.66 58.9247 54.5333 59.2714 54.28C59.6314 54.0133 59.8447 53.5333 59.9114 52.84H61.5714ZM54.5514 63.82C54.5514 63.98 54.5447 64.22 54.5314 64.54C54.5181 64.86 54.4981 65.18 54.4714 65.5C54.4581 65.82 54.4447 66.0733 54.4314 66.26L60.1714 57.28H62.3314V68H60.6914V61.68C60.6914 61.4667 60.6914 61.1867 60.6914 60.84C60.7047 60.4933 60.7181 60.1533 60.7314 59.82C60.7447 59.4733 60.7581 59.2133 60.7714 59.04L55.0714 68H52.8914V57.28H54.5514V63.82ZM65.723 71.14L67.843 65.42H69.103L66.423 71.14H65.723ZM84.0408 57.28V58.76H79.2608V68H77.5008V57.28H84.0408ZM93.5077 57.28V66.52H95.0677V71.72H93.3677V68H85.9077V71.72H84.2277V66.52H85.0877C86.0077 65.2533 86.6943 63.8133 87.1477 62.2C87.6143 60.5733 87.8543 58.9333 87.8677 57.28H93.5077ZM89.4277 58.66C89.3743 59.5667 89.2343 60.5067 89.0077 61.48C88.781 62.44 88.4877 63.36 88.1277 64.24C87.781 65.12 87.3743 65.88 86.9077 66.52H91.8077V58.66H89.4277ZM101.309 57.08C102.229 57.08 103.015 57.28 103.669 57.68C104.335 58.08 104.842 58.6467 105.189 59.38C105.549 60.1 105.729 60.9467 105.729 61.92V62.98H98.3888C98.4154 64.1933 98.7221 65.12 99.3088 65.76C99.9088 66.3867 100.742 66.7 101.809 66.7C102.489 66.7 103.089 66.64 103.609 66.52C104.142 66.3867 104.689 66.2 105.249 65.96V67.5C104.702 67.74 104.162 67.9133 103.629 68.02C103.095 68.14 102.462 68.2 101.729 68.2C100.715 68.2 99.8154 67.9933 99.0288 67.58C98.2554 67.1667 97.6488 66.5533 97.2088 65.74C96.7821 64.9133 96.5688 63.9067 96.5688 62.72C96.5688 61.5467 96.7621 60.54 97.1488 59.7C97.5488 58.86 98.1021 58.2133 98.8088 57.76C99.5288 57.3067 100.362 57.08 101.309 57.08ZM101.289 58.52C100.449 58.52 99.7821 58.7933 99.2888 59.34C98.8088 59.8733 98.5221 60.62 98.4288 61.58H103.889C103.875 60.6733 103.662 59.94 103.249 59.38C102.835 58.8067 102.182 58.52 101.289 58.52ZM115.413 57.28V61.74H121.233V57.28H122.993V68H121.233V63.22H115.413V68H113.653V57.28H115.413ZM128.048 63.82C128.048 63.98 128.041 64.22 128.028 64.54C128.014 64.86 127.994 65.18 127.968 65.5C127.954 65.82 127.941 66.0733 127.928 66.26L133.668 57.28H135.828V68H134.188V61.68C134.188 61.4667 134.188 61.1867 134.188 60.84C134.201 60.4933 134.214 60.1533 134.228 59.82C134.241 59.4733 134.254 59.2133 134.268 59.04L128.568 68H126.388V57.28H128.048V63.82ZM145.579 57.28H147.499L142.919 62.44L147.879 68H145.839L140.999 62.56V68H139.239V57.28H140.999V62.48L145.579 57.28ZM157.225 58.76H153.725V68H151.985V58.76H148.525V57.28H157.225V58.76ZM168.461 62.62C168.461 64.3933 168.008 65.7667 167.101 66.74C166.208 67.7133 164.995 68.2 163.461 68.2C162.515 68.2 161.668 67.9867 160.921 67.56C160.188 67.12 159.608 66.4867 159.181 65.66C158.755 64.82 158.541 63.8067 158.541 62.62C158.541 60.8467 158.988 59.48 159.881 58.52C160.775 57.56 161.988 57.08 163.521 57.08C164.495 57.08 165.348 57.3 166.081 57.74C166.828 58.1667 167.408 58.7933 167.821 59.62C168.248 60.4333 168.461 61.4333 168.461 62.62ZM160.361 62.62C160.361 63.8867 160.608 64.8933 161.101 65.64C161.608 66.3733 162.408 66.74 163.501 66.74C164.581 66.74 165.375 66.3733 165.881 65.64C166.388 64.8933 166.641 63.8867 166.641 62.62C166.641 61.3533 166.388 60.36 165.881 59.64C165.375 58.92 164.575 58.56 163.481 58.56C162.388 58.56 161.595 58.92 161.101 59.64C160.608 60.36 160.361 61.3533 160.361 62.62ZM178.206 57.28V61.74H184.026V57.28H185.786V68H184.026V63.22H178.206V68H176.446V57.28H178.206ZM193.32 57.08C194.24 57.08 195.027 57.28 195.68 57.68C196.347 58.08 196.854 58.6467 197.2 59.38C197.56 60.1 197.74 60.9467 197.74 61.92V62.98H190.4C190.427 64.1933 190.734 65.12 191.32 65.76C191.92 66.3867 192.754 66.7 193.82 66.7C194.5 66.7 195.1 66.64 195.62 66.52C196.154 66.3867 196.7 66.2 197.26 65.96V67.5C196.714 67.74 196.174 67.9133 195.64 68.02C195.107 68.14 194.474 68.2 193.74 68.2C192.727 68.2 191.827 67.9933 191.04 67.58C190.267 67.1667 189.66 66.5533 189.22 65.74C188.794 64.9133 188.58 63.9067 188.58 62.72C188.58 61.5467 188.774 60.54 189.16 59.7C189.56 58.86 190.114 58.2133 190.82 57.76C191.54 57.3067 192.374 57.08 193.32 57.08ZM193.3 58.52C192.46 58.52 191.794 58.7933 191.3 59.34C190.82 59.8733 190.534 60.62 190.44 61.58H195.9C195.887 60.6733 195.674 59.94 195.26 59.38C194.847 58.8067 194.194 58.52 193.3 58.52ZM214.285 59.98C214.285 60.6467 214.085 61.1667 213.685 61.54C213.285 61.9133 212.772 62.1667 212.145 62.3V62.38C212.812 62.4733 213.392 62.7133 213.885 63.1C214.378 63.4733 214.625 64.06 214.625 64.86C214.625 65.7667 214.285 66.52 213.605 67.12C212.938 67.7067 211.832 68 210.285 68H205.665V57.28H210.265C211.025 57.28 211.705 57.3667 212.305 57.54C212.918 57.7 213.398 57.98 213.745 58.38C214.105 58.7667 214.285 59.3 214.285 59.98ZM212.505 60.2C212.505 59.6933 212.318 59.3267 211.945 59.1C211.585 58.86 210.992 58.74 210.165 58.74H207.425V61.68H209.845C211.618 61.68 212.505 61.1867 212.505 60.2ZM212.805 64.86C212.805 64.2467 212.572 63.8067 212.105 63.54C211.638 63.2733 210.952 63.14 210.045 63.14H207.425V66.58H210.085C210.965 66.58 211.638 66.4533 212.105 66.2C212.572 65.9333 212.805 65.4867 212.805 64.86ZM221.328 57.08C222.248 57.08 223.035 57.28 223.688 57.68C224.355 58.08 224.862 58.6467 225.208 59.38C225.568 60.1 225.748 60.9467 225.748 61.92V62.98H218.408C218.435 64.1933 218.742 65.12 219.328 65.76C219.928 66.3867 220.762 66.7 221.828 66.7C222.508 66.7 223.108 66.64 223.628 66.52C224.162 66.3867 224.708 66.2 225.268 65.96V67.5C224.722 67.74 224.182 67.9133 223.648 68.02C223.115 68.14 222.482 68.2 221.748 68.2C220.735 68.2 219.835 67.9933 219.048 67.58C218.275 67.1667 217.668 66.5533 217.228 65.74C216.802 64.9133 216.588 63.9067 216.588 62.72C216.588 61.5467 216.782 60.54 217.168 59.7C217.568 58.86 218.122 58.2133 218.828 57.76C219.548 57.3067 220.382 57.08 221.328 57.08ZM221.308 58.52C220.468 58.52 219.802 58.7933 219.308 59.34C218.828 59.8733 218.542 60.62 218.448 61.58H223.908C223.895 60.6733 223.682 59.94 223.268 59.38C222.855 58.8067 222.202 58.52 221.308 58.52ZM236.437 57.28V66.52H237.997V71.72H236.297V68H228.837V71.72H227.157V66.52H228.017C228.937 65.2533 229.624 63.8133 230.077 62.2C230.544 60.5733 230.784 58.9333 230.797 57.28H236.437ZM232.357 58.66C232.304 59.5667 232.164 60.5067 231.937 61.48C231.711 62.44 231.417 63.36 231.057 64.24C230.711 65.12 230.304 65.88 229.837 66.52H234.737V58.66H232.357ZM244.238 57.08C245.158 57.08 245.945 57.28 246.598 57.68C247.265 58.08 247.772 58.6467 248.118 59.38C248.478 60.1 248.658 60.9467 248.658 61.92V62.98H241.318C241.345 64.1933 241.652 65.12 242.238 65.76C242.838 66.3867 243.672 66.7 244.738 66.7C245.418 66.7 246.018 66.64 246.538 66.52C247.072 66.3867 247.618 66.2 248.178 65.96V67.5C247.632 67.74 247.092 67.9133 246.558 68.02C246.025 68.14 245.392 68.2 244.658 68.2C243.645 68.2 242.745 67.9933 241.958 67.58C241.185 67.1667 240.578 66.5533 240.138 65.74C239.712 64.9133 239.498 63.9067 239.498 62.72C239.498 61.5467 239.692 60.54 240.078 59.7C240.478 58.86 241.032 58.2133 241.738 57.76C242.458 57.3067 243.292 57.08 244.238 57.08ZM244.218 58.52C243.378 58.52 242.712 58.7933 242.218 59.34C241.738 59.8733 241.452 60.62 241.358 61.58H246.818C246.805 60.6733 246.592 59.94 246.178 59.38C245.765 58.8067 245.112 58.52 244.218 58.52ZM258.788 58.76H255.288V68H253.548V58.76H250.088V57.28H258.788V58.76ZM6 94.2C5.05333 94.2 4.20667 94.0067 3.46 93.62C2.72667 93.2333 2.14667 92.6333 1.72 91.82C1.30667 91.0067 1.1 89.9667 1.1 88.7C1.1 87.38 1.32 86.3067 1.76 85.48C2.2 84.6533 2.79333 84.0467 3.54 83.66C4.3 83.2733 5.16 83.08 6.12 83.08C6.66667 83.08 7.19333 83.14 7.7 83.26C8.20667 83.3667 8.62 83.5 8.94 83.66L8.4 85.12C8.08 85 7.70667 84.8867 7.28 84.78C6.85333 84.6733 6.45333 84.62 6.08 84.62C3.97333 84.62 2.92 85.9733 2.92 88.68C2.92 89.9733 3.17333 90.9667 3.68 91.66C4.2 92.34 4.96667 92.68 5.98 92.68C6.56667 92.68 7.08 92.62 7.52 92.5C7.97333 92.38 8.38667 92.2333 8.76 92.06V93.62C8.4 93.8067 8 93.9467 7.56 94.04C7.13333 94.1467 6.61333 94.2 6 94.2ZM15.4494 83.08C16.3694 83.08 17.156 83.28 17.8094 83.68C18.476 84.08 18.9827 84.6467 19.3294 85.38C19.6894 86.1 19.8694 86.9467 19.8694 87.92V88.98H12.5294C12.556 90.1933 12.8627 91.12 13.4494 91.76C14.0494 92.3867 14.8827 92.7 15.9494 92.7C16.6294 92.7 17.2294 92.64 17.7494 92.52C18.2827 92.3867 18.8294 92.2 19.3894 91.96V93.5C18.8427 93.74 18.3027 93.9133 17.7694 94.02C17.236 94.14 16.6027 94.2 15.8694 94.2C14.856 94.2 13.956 93.9933 13.1694 93.58C12.396 93.1667 11.7894 92.5533 11.3494 91.74C10.9227 90.9133 10.7094 89.9067 10.7094 88.72C10.7094 87.5467 10.9027 86.54 11.2894 85.7C11.6894 84.86 12.2427 84.2133 12.9494 83.76C13.6694 83.3067 14.5027 83.08 15.4494 83.08ZM15.4294 84.52C14.5894 84.52 13.9227 84.7933 13.4294 85.34C12.9494 85.8733 12.6627 86.62 12.5694 87.58H18.0294C18.016 86.6733 17.8027 85.94 17.3894 85.38C16.976 84.8067 16.3227 84.52 15.4294 84.52ZM22.0384 87.56C22.0384 85.2133 22.3918 83.3867 23.0984 82.08C23.8051 80.76 24.9451 79.9333 26.5184 79.6C27.3851 79.4133 28.2318 79.2467 29.0584 79.1C29.8851 78.9533 30.6584 78.82 31.3784 78.7L31.6784 80.24C31.2118 80.3067 30.6851 80.3933 30.0984 80.5C29.5118 80.5933 28.9318 80.6933 28.3584 80.8C27.7851 80.8933 27.2918 80.9867 26.8784 81.08C26.0118 81.2667 25.3251 81.72 24.8184 82.44C24.3118 83.1467 24.0251 84.2533 23.9584 85.76H24.0784C24.2651 85.5067 24.5184 85.2467 24.8384 84.98C25.1718 84.7133 25.5651 84.4867 26.0184 84.3C26.4851 84.1133 27.0118 84.02 27.5984 84.02C28.9851 84.02 30.0318 84.4667 30.7384 85.36C31.4451 86.2533 31.7984 87.4133 31.7984 88.84C31.7984 90.0267 31.5918 91.02 31.1784 91.82C30.7651 92.62 30.1918 93.22 29.4584 93.62C28.7251 94.0067 27.8718 94.2 26.8984 94.2C25.4184 94.2 24.2384 93.6333 23.3584 92.5C22.4784 91.3667 22.0384 89.72 22.0384 87.56ZM27.0384 92.74C27.9051 92.74 28.6051 92.46 29.1384 91.9C29.6718 91.34 29.9384 90.38 29.9384 89.02C29.9384 87.9267 29.7318 87.0667 29.3184 86.44C28.9184 85.8 28.2518 85.48 27.3184 85.48C26.7318 85.48 26.1984 85.6133 25.7184 85.88C25.2384 86.1333 24.8384 86.4267 24.5184 86.76C24.1984 87.0933 23.9718 87.3733 23.8384 87.6C23.8384 88.2533 23.8851 88.8867 23.9784 89.5C24.0718 90.1133 24.2318 90.6667 24.4584 91.16C24.6984 91.64 25.0251 92.0267 25.4384 92.32C25.8651 92.6 26.3984 92.74 27.0384 92.74ZM35.2311 94H33.1911L36.2511 89.5C35.8378 89.3933 35.4378 89.2267 35.0511 89C34.6644 88.76 34.3511 88.4333 34.1111 88.02C33.8711 87.5933 33.7511 87.0667 33.7511 86.44C33.7511 85.4133 34.0978 84.6333 34.7911 84.1C35.4844 83.5533 36.4044 83.28 37.5511 83.28H42.3511V94H40.5911V89.74H37.9911L35.2311 94ZM35.4511 86.46C35.4511 87.0733 35.6778 87.5333 36.1311 87.84C36.5978 88.1333 37.2444 88.28 38.0711 88.28H40.5911V84.74H37.7311C36.9178 84.74 36.3311 84.9 35.9711 85.22C35.6244 85.54 35.4511 85.9533 35.4511 86.46ZM59.5583 85.98C59.5583 86.6467 59.3583 87.1667 58.9583 87.54C58.5583 87.9133 58.0449 88.1667 57.4183 88.3V88.38C58.0849 88.4733 58.6649 88.7133 59.1583 89.1C59.6516 89.4733 59.8983 90.06 59.8983 90.86C59.8983 91.7667 59.5583 92.52 58.8783 93.12C58.2116 93.7067 57.1049 94 55.5583 94H50.9383V83.28H55.5383C56.2983 83.28 56.9783 83.3667 57.5783 83.54C58.1916 83.7 58.6716 83.98 59.0183 84.38C59.3783 84.7667 59.5583 85.3 59.5583 85.98ZM57.7783 86.2C57.7783 85.6933 57.5916 85.3267 57.2183 85.1C56.8583 84.86 56.2649 84.74 55.4383 84.74H52.6983V87.68H55.1183C56.8916 87.68 57.7783 87.1867 57.7783 86.2ZM58.0783 90.86C58.0783 90.2467 57.8449 89.8067 57.3783 89.54C56.9116 89.2733 56.2249 89.14 55.3183 89.14H52.6983V92.58H55.3583C56.2383 92.58 56.9116 92.4533 57.3783 92.2C57.8449 91.9333 58.0783 91.4867 58.0783 90.86ZM62.4617 94V83.28H64.2217V87.68H67.0017C68.3884 87.68 69.4151 87.9333 70.0817 88.44C70.7484 88.9467 71.0817 89.7067 71.0817 90.72C71.0817 91.72 70.7551 92.52 70.1017 93.12C69.4484 93.7067 68.3884 94 66.9217 94H62.4617ZM72.8617 94V83.28H74.6217V94H72.8617ZM66.7617 92.58C67.5217 92.58 68.1417 92.4533 68.6217 92.2C69.1017 91.9333 69.3417 91.4733 69.3417 90.82C69.3417 90.1667 69.1217 89.7267 68.6817 89.5C68.2417 89.26 67.6084 89.14 66.7817 89.14H64.2217V92.58H66.7617ZM80.8481 83.08C82.0748 83.08 83.0481 83.3267 83.7681 83.82C84.5015 84.3 84.8681 84.9933 84.8681 85.9C84.8681 86.5533 84.6881 87.0733 84.3281 87.46C83.9681 87.8333 83.4748 88.1067 82.8481 88.28V88.36C83.2748 88.48 83.6681 88.6467 84.0281 88.86C84.3881 89.0733 84.6748 89.3533 84.8881 89.7C85.1148 90.0467 85.2281 90.4933 85.2281 91.04C85.2281 91.9333 84.8548 92.6867 84.1081 93.3C83.3748 93.9 82.2215 94.2 80.6481 94.2C79.8748 94.2 79.1748 94.1333 78.5481 94C77.9215 93.88 77.4015 93.7133 76.9881 93.5V91.92C77.4415 92.1333 77.9748 92.3267 78.5881 92.5C79.2148 92.6733 79.8948 92.76 80.6281 92.76C81.4281 92.76 82.1015 92.6267 82.6481 92.36C83.2081 92.08 83.4881 91.6067 83.4881 90.94C83.4881 89.74 82.4681 89.14 80.4281 89.14H78.9881V87.7H80.1481C81.0681 87.7 81.8015 87.58 82.3481 87.34C82.9081 87.0867 83.1881 86.66 83.1881 86.06C83.1881 85.5533 82.9748 85.1733 82.5481 84.92C82.1348 84.6667 81.5348 84.54 80.7481 84.54C80.1615 84.54 79.6415 84.6 79.1881 84.72C78.7481 84.8267 78.2615 84.9933 77.7281 85.22L77.1081 83.82C78.2281 83.3267 79.4748 83.08 80.8481 83.08ZM87.8328 94V83.28H89.5928V87.68H92.3728C93.7595 87.68 94.7861 87.9333 95.4528 88.44C96.1195 88.9467 96.4528 89.7067 96.4528 90.72C96.4528 91.72 96.1261 92.52 95.4728 93.12C94.8195 93.7067 93.7595 94 92.2928 94H87.8328ZM98.2328 94V83.28H99.9928V94H98.2328ZM92.1328 92.58C92.8928 92.58 93.5128 92.4533 93.9928 92.2C94.4728 91.9333 94.7128 91.4733 94.7128 90.82C94.7128 90.1667 94.4928 89.7267 94.0528 89.5C93.6128 89.26 92.9795 89.14 92.1528 89.14H89.5928V92.58H92.1328ZM112.019 85.98C112.019 86.6467 111.819 87.1667 111.419 87.54C111.019 87.9133 110.506 88.1667 109.879 88.3V88.38C110.546 88.4733 111.126 88.7133 111.619 89.1C112.113 89.4733 112.359 90.06 112.359 90.86C112.359 91.7667 112.019 92.52 111.339 93.12C110.673 93.7067 109.566 94 108.019 94H103.399V83.28H107.999C108.759 83.28 109.439 83.3667 110.039 83.54C110.653 83.7 111.133 83.98 111.479 84.38C111.839 84.7667 112.019 85.3 112.019 85.98ZM110.239 86.2C110.239 85.6933 110.053 85.3267 109.679 85.1C109.319 84.86 108.726 84.74 107.899 84.74H105.159V87.68H107.579C109.353 87.68 110.239 87.1867 110.239 86.2ZM110.539 90.86C110.539 90.2467 110.306 89.8067 109.839 89.54C109.373 89.2733 108.686 89.14 107.779 89.14H105.159V92.58H107.819C108.699 92.58 109.373 92.4533 109.839 92.2C110.306 91.9333 110.539 91.4867 110.539 90.86ZM118.983 83.1C120.289 83.1 121.256 83.3867 121.883 83.96C122.509 84.5333 122.823 85.4467 122.823 86.7V94H121.543L121.203 92.48H121.123C120.656 93.0667 120.163 93.5 119.643 93.78C119.136 94.06 118.429 94.2 117.523 94.2C116.549 94.2 115.743 93.9467 115.103 93.44C114.463 92.92 114.143 92.1133 114.143 91.02C114.143 89.9533 114.563 89.1333 115.403 88.56C116.243 87.9733 117.536 87.6533 119.283 87.6L121.103 87.54V86.9C121.103 86.0067 120.909 85.3867 120.523 85.04C120.136 84.6933 119.589 84.52 118.883 84.52C118.323 84.52 117.789 84.6067 117.283 84.78C116.776 84.94 116.303 85.1267 115.863 85.34L115.323 84.02C115.789 83.7667 116.343 83.5533 116.983 83.38C117.623 83.1933 118.289 83.1 118.983 83.1ZM119.503 88.82C118.169 88.8733 117.243 89.0867 116.723 89.46C116.216 89.8333 115.963 90.36 115.963 91.04C115.963 91.64 116.143 92.08 116.503 92.36C116.876 92.64 117.349 92.78 117.923 92.78C118.829 92.78 119.583 92.5333 120.183 92.04C120.783 91.5333 121.083 90.76 121.083 89.72V88.76L119.503 88.82ZM140.054 88.62C140.054 90.3933 139.627 91.7667 138.774 92.74C137.92 93.7133 136.767 94.2 135.314 94.2C133.954 94.2 132.854 93.7733 132.014 92.92C131.187 92.0667 130.72 90.8333 130.614 89.22H127.894V94H126.134V83.28H127.894V87.74H130.634C130.78 86.2333 131.267 85.08 132.094 84.28C132.92 83.48 134.007 83.08 135.354 83.08C136.274 83.08 137.087 83.3 137.794 83.74C138.5 84.1667 139.054 84.7933 139.454 85.62C139.854 86.4333 140.054 87.4333 140.054 88.62ZM132.414 88.62C132.414 89.9667 132.647 90.9933 133.114 91.7C133.58 92.3933 134.32 92.74 135.334 92.74C136.36 92.74 137.1 92.3933 137.554 91.7C138.007 90.9933 138.234 89.9667 138.234 88.62C138.234 87.2733 138 86.26 137.534 85.58C137.08 84.9 136.347 84.56 135.334 84.56C134.32 84.56 133.58 84.9 133.114 85.58C132.647 86.26 132.414 87.2733 132.414 88.62ZM157.372 83.28V92.54H158.932V97.7H157.172V94H142.852V83.28H144.612V92.52H149.232V83.28H150.992V92.52H155.632V83.28H157.372ZM165.117 83.08C166.037 83.08 166.824 83.28 167.477 83.68C168.144 84.08 168.651 84.6467 168.997 85.38C169.357 86.1 169.537 86.9467 169.537 87.92V88.98H162.197C162.224 90.1933 162.531 91.12 163.117 91.76C163.717 92.3867 164.551 92.7 165.617 92.7C166.297 92.7 166.897 92.64 167.417 92.52C167.951 92.3867 168.497 92.2 169.057 91.96V93.5C168.511 93.74 167.971 93.9133 167.437 94.02C166.904 94.14 166.271 94.2 165.537 94.2C164.524 94.2 163.624 93.9933 162.837 93.58C162.064 93.1667 161.457 92.5533 161.017 91.74C160.591 90.9133 160.377 89.9067 160.377 88.72C160.377 87.5467 160.571 86.54 160.957 85.7C161.357 84.86 161.911 84.2133 162.617 83.76C163.337 83.3067 164.171 83.08 165.117 83.08ZM165.097 84.52C164.257 84.52 163.591 84.7933 163.097 85.34C162.617 85.8733 162.331 86.62 162.237 87.58H167.697C167.684 86.6733 167.471 85.94 167.057 85.38C166.644 84.8067 165.991 84.52 165.097 84.52ZM173.166 94V91.96H174.446V94H173.166Z" fill="#FCF7F2"/>
</svg>
