<svg width="267" height="97" viewBox="0 0 267 97" fill="none" xmlns="http://www.w3.org/2000/svg">
<path d="M12.673 15H9.386L6.232 9.87L3.078 15H0L4.503 8.008L0.285 1.434H3.458L6.384 6.317L9.253 1.434H12.35L8.094 8.16L12.673 15ZM23.5789 9.794C23.5789 11.5167 23.1229 12.8467 22.2109 13.784C21.3115 14.7213 20.0829 15.19 18.5249 15.19C17.5622 15.19 16.7009 14.981 15.9409 14.563C15.1935 14.145 14.6045 13.537 14.1739 12.739C13.7432 11.9283 13.5279 10.9467 13.5279 9.794C13.5279 8.07133 13.9775 6.74767 14.8769 5.823C15.7762 4.89833 17.0112 4.436 18.5819 4.436C19.5572 4.436 20.4185 4.645 21.1659 5.063C21.9132 5.481 22.5022 6.089 22.9329 6.887C23.3635 7.67233 23.5789 8.64133 23.5789 9.794ZM16.4159 9.794C16.4159 10.82 16.5805 11.599 16.9099 12.131C17.2519 12.6503 17.8029 12.91 18.5629 12.91C19.3102 12.91 19.8485 12.6503 20.1779 12.131C20.5199 11.599 20.6909 10.82 20.6909 9.794C20.6909 8.768 20.5199 8.00167 20.1779 7.495C19.8485 6.97567 19.3039 6.716 18.5439 6.716C17.7965 6.716 17.2519 6.97567 16.9099 7.495C16.5805 8.00167 16.4159 8.768 16.4159 9.794ZM31.6945 4.436C32.8599 4.436 33.8035 4.892 34.5255 5.804C35.2475 6.70333 35.6085 8.03333 35.6085 9.794C35.6085 11.5547 35.2349 12.8973 34.4875 13.822C33.7402 14.734 32.7839 15.19 31.6185 15.19C30.8712 15.19 30.2759 15.057 29.8325 14.791C29.3892 14.5123 29.0282 14.202 28.7495 13.86H28.5975C28.6989 14.392 28.7495 14.8987 28.7495 15.38V19.56H25.9185V4.626H28.2175L28.6165 5.975H28.7495C29.0282 5.557 29.4019 5.196 29.8705 4.892C30.3392 4.588 30.9472 4.436 31.6945 4.436ZM30.7825 6.697C30.0479 6.697 29.5285 6.925 29.2245 7.381C28.9332 7.837 28.7749 8.53367 28.7495 9.471V9.775C28.7495 10.7757 28.8952 11.5483 29.1865 12.093C29.4905 12.625 30.0352 12.891 30.8205 12.891C31.4665 12.891 31.9415 12.625 32.2455 12.093C32.5622 11.5483 32.7205 10.7693 32.7205 9.756C32.7205 7.71667 32.0745 6.697 30.7825 6.697ZM47.366 9.794C47.366 11.5167 46.91 12.8467 45.998 13.784C45.0986 14.7213 43.87 15.19 42.312 15.19C41.3493 15.19 40.488 14.981 39.728 14.563C38.9806 14.145 38.3916 13.537 37.961 12.739C37.5303 11.9283 37.315 10.9467 37.315 9.794C37.315 8.07133 37.7646 6.74767 38.664 5.823C39.5633 4.89833 40.7983 4.436 42.369 4.436C43.3443 4.436 44.2056 4.645 44.953 5.063C45.7003 5.481 46.2893 6.089 46.72 6.887C47.1506 7.67233 47.366 8.64133 47.366 9.794ZM40.203 9.794C40.203 10.82 40.3676 11.599 40.697 12.131C41.039 12.6503 41.59 12.91 42.35 12.91C43.0973 12.91 43.6356 12.6503 43.965 12.131C44.307 11.599 44.478 10.82 44.478 9.794C44.478 8.768 44.307 8.00167 43.965 7.495C43.6356 6.97567 43.091 6.716 42.331 6.716C41.5836 6.716 41.039 6.97567 40.697 7.495C40.3676 8.00167 40.203 8.768 40.203 9.794ZM65.1526 4.626V15H49.7056V4.626H52.5366V12.872H56.0136V4.626H58.8446V12.872H62.3216V4.626H65.1526ZM70.8479 8.73C70.8479 8.94533 70.8352 9.21133 70.8099 9.528C70.7972 9.84467 70.7782 10.1677 70.7529 10.497C70.7402 10.8263 70.7212 11.1177 70.6959 11.371C70.6705 11.6243 70.6515 11.8017 70.6389 11.903L75.4269 4.626H78.8279V15H76.0919V10.858C76.0919 10.516 76.1045 10.1423 76.1299 9.737C76.1552 9.319 76.1805 8.93267 76.2059 8.578C76.2439 8.21067 76.2692 7.932 76.2819 7.742L71.5129 15H68.1119V4.626H70.8479V8.73ZM91.7237 0.161C91.6604 0.819666 91.4767 1.40233 91.1727 1.909C90.8687 2.403 90.3937 2.78933 89.7477 3.068C89.1017 3.34667 88.234 3.486 87.1447 3.486C86.03 3.486 85.156 3.353 84.5227 3.087C83.902 2.80833 83.4587 2.422 83.1927 1.928C82.9267 1.434 82.7684 0.844999 82.7177 0.161H85.2447C85.308 0.857666 85.4854 1.32 85.7767 1.548C86.068 1.776 86.543 1.89 87.2017 1.89C87.7464 1.89 88.1897 1.76967 88.5317 1.529C88.8864 1.27567 89.0954 0.819666 89.1587 0.161H91.7237ZM84.5227 8.73C84.5227 8.94533 84.51 9.21133 84.4847 9.528C84.472 9.84467 84.453 10.1677 84.4277 10.497C84.415 10.8263 84.396 11.1177 84.3707 11.371C84.3454 11.6243 84.3264 11.8017 84.3137 11.903L89.1017 4.626H92.5027V15H89.7667V10.858C89.7667 10.516 89.7794 10.1423 89.8047 9.737C89.83 9.319 89.8554 8.93267 89.8807 8.578C89.9187 8.21067 89.944 7.932 89.9567 7.742L85.1877 15H81.7867V4.626H84.5227V8.73ZM115.529 4.626V15H100.082V4.626H102.913V12.872H106.39V4.626H109.221V12.872H112.698V4.626H115.529ZM124.264 4.436C125.429 4.436 126.373 4.892 127.095 5.804C127.817 6.70333 128.178 8.03333 128.178 9.794C128.178 11.5547 127.804 12.8973 127.057 13.822C126.31 14.734 125.353 15.19 124.188 15.19C123.441 15.19 122.845 15.057 122.402 14.791C121.959 14.5123 121.598 14.202 121.319 13.86H121.167C121.268 14.392 121.319 14.8987 121.319 15.38V19.56H118.488V4.626H120.787L121.186 5.975H121.319C121.598 5.557 121.971 5.196 122.44 4.892C122.909 4.588 123.517 4.436 124.264 4.436ZM123.352 6.697C122.617 6.697 122.098 6.925 121.794 7.381C121.503 7.837 121.344 8.53367 121.319 9.471V9.775C121.319 10.7757 121.465 11.5483 121.756 12.093C122.06 12.625 122.605 12.891 123.39 12.891C124.036 12.891 124.511 12.625 124.815 12.093C125.132 11.5483 125.29 10.7693 125.29 9.756C125.29 7.71667 124.644 6.697 123.352 6.697ZM133.247 8.73C133.247 8.94533 133.235 9.21133 133.209 9.528C133.197 9.84467 133.178 10.1677 133.152 10.497C133.14 10.8263 133.121 11.1177 133.095 11.371C133.07 11.6243 133.051 11.8017 133.038 11.903L137.826 4.626H141.227V15H138.491V10.858C138.491 10.516 138.504 10.1423 138.529 9.737C138.555 9.319 138.58 8.93267 138.605 8.578C138.643 8.21067 138.669 7.932 138.681 7.742L133.912 15H130.511V4.626H133.247V8.73ZM151.767 4.569C153.566 4.721 154.94 5.272 155.89 6.222C156.84 7.15933 157.315 8.35633 157.315 9.813C157.315 11.2697 156.853 12.473 155.928 13.423C155.003 14.373 153.616 14.924 151.767 15.076V19.56H149.145V15.076C147.359 14.9113 145.978 14.354 145.003 13.404C144.04 12.454 143.559 11.257 143.559 9.813C143.559 8.331 144.009 7.12133 144.908 6.184C145.82 5.234 147.232 4.69567 149.145 4.569V0.559999H151.767V4.569ZM149.145 6.697C148.322 6.811 147.669 7.153 147.188 7.723C146.707 8.293 146.466 8.98967 146.466 9.813C146.466 10.6617 146.7 11.371 147.169 11.941C147.638 12.4983 148.296 12.8277 149.145 12.929V6.697ZM151.767 12.929C152.616 12.8277 153.268 12.4983 153.724 11.941C154.18 11.371 154.408 10.6617 154.408 9.813C154.408 8.98967 154.174 8.29933 153.705 7.742C153.236 7.172 152.59 6.83633 151.767 6.735V12.929ZM168.063 6.754H164.662V15H161.831V6.754H158.43V4.626H168.063V6.754ZM172.15 10.383V8.464H191.34V10.383H172.15ZM198.867 15.19C198.209 15.19 197.62 15.1393 197.1 15.038C196.594 14.9367 196.119 14.772 195.675 14.544V12.34C196.131 12.5427 196.613 12.72 197.119 12.872C197.639 13.0113 198.171 13.081 198.715 13.081C199.361 13.081 199.881 12.8973 200.273 12.53C200.666 12.1627 200.888 11.5547 200.938 10.706H197.024V8.825H200.938C200.85 7.29233 200.185 6.526 198.943 6.526C198.5 6.526 198.069 6.58933 197.651 6.716C197.246 6.83 196.872 6.963 196.53 7.115L195.732 5.177C196.138 4.99967 196.625 4.835 197.195 4.683C197.778 4.51833 198.399 4.436 199.057 4.436C199.969 4.436 200.786 4.59433 201.508 4.911C202.23 5.22767 202.8 5.766 203.218 6.526C203.649 7.286 203.864 8.34367 203.864 9.699C203.864 11.5737 203.427 12.9607 202.553 13.86C201.679 14.7467 200.451 15.19 198.867 15.19ZM214.598 6.754H211.197V15H208.366V6.754H204.965V4.626H214.598V6.754ZM225.751 9.794C225.751 11.5167 225.295 12.8467 224.383 13.784C223.483 14.7213 222.255 15.19 220.697 15.19C219.734 15.19 218.873 14.981 218.113 14.563C217.365 14.145 216.776 13.537 216.346 12.739C215.915 11.9283 215.7 10.9467 215.7 9.794C215.7 8.07133 216.149 6.74767 217.049 5.823C217.948 4.89833 219.183 4.436 220.754 4.436C221.729 4.436 222.59 4.645 223.338 5.063C224.085 5.481 224.674 6.089 225.105 6.887C225.535 7.67233 225.751 8.64133 225.751 9.794ZM218.588 9.794C218.588 10.82 218.752 11.599 219.082 12.131C219.424 12.6503 219.975 12.91 220.735 12.91C221.482 12.91 222.02 12.6503 222.35 12.131C222.692 11.599 222.863 10.82 222.863 9.794C222.863 8.768 222.692 8.00167 222.35 7.495C222.02 6.97567 221.476 6.716 220.716 6.716C219.968 6.716 219.424 6.97567 219.082 7.495C218.752 8.00167 218.588 8.768 218.588 9.794ZM239.513 4.626H242.629L238.525 9.604L242.99 15H239.779L235.542 9.737V15H232.711V4.626H235.542V9.661L239.513 4.626ZM248.73 4.417C250.124 4.417 251.188 4.721 251.922 5.329C252.67 5.92433 253.043 6.84267 253.043 8.084V15H251.067L250.516 13.594H250.44C249.997 14.1513 249.528 14.5567 249.034 14.81C248.54 15.0633 247.863 15.19 247.001 15.19C246.077 15.19 245.31 14.924 244.702 14.392C244.094 13.8473 243.79 13.0177 243.79 11.903C243.79 10.801 244.177 9.99033 244.949 9.471C245.722 8.939 246.881 8.64767 248.426 8.597L250.231 8.54V8.084C250.231 7.53933 250.086 7.14033 249.794 6.887C249.516 6.63367 249.123 6.507 248.616 6.507C248.11 6.507 247.616 6.583 247.134 6.735C246.653 6.87433 246.172 7.05167 245.69 7.267L244.759 5.348C245.317 5.05667 245.931 4.82867 246.602 4.664C247.286 4.49933 247.996 4.417 248.73 4.417ZM249.129 10.231C248.217 10.2563 247.584 10.421 247.229 10.725C246.875 11.029 246.697 11.428 246.697 11.922C246.697 12.3527 246.824 12.663 247.077 12.853C247.331 13.0303 247.66 13.119 248.065 13.119C248.673 13.119 249.186 12.9417 249.604 12.587C250.022 12.2197 250.231 11.7067 250.231 11.048V10.193L249.129 10.231ZM262.743 4.626H265.859L261.755 9.604L266.22 15H263.009L258.772 9.737V15H255.941V4.626H258.772V9.661L262.743 4.626ZM8.645 30.626V32.754H4.313V41H1.482V30.626H8.645ZM14.8112 30.417C16.2046 30.417 17.2686 30.721 18.0032 31.329C18.7506 31.9243 19.1242 32.8427 19.1242 34.084V41H17.1482L16.5972 39.594H16.5212C16.0779 40.1513 15.6092 40.5567 15.1152 40.81C14.6212 41.0633 13.9436 41.19 13.0822 41.19C12.1576 41.19 11.3912 40.924 10.7832 40.392C10.1752 39.8473 9.87124 39.0177 9.87124 37.903C9.87124 36.801 10.2576 35.9903 11.0302 35.471C11.8029 34.939 12.9619 34.6477 14.5072 34.597L16.3122 34.54V34.084C16.3122 33.5393 16.1666 33.1403 15.8752 32.887C15.5966 32.6337 15.2039 32.507 14.6972 32.507C14.1906 32.507 13.6966 32.583 13.2152 32.735C12.7339 32.8743 12.2526 33.0517 11.7712 33.267L10.8402 31.348C11.3976 31.0567 12.0119 30.8287 12.6832 30.664C13.3672 30.4993 14.0766 30.417 14.8112 30.417ZM15.2102 36.231C14.2982 36.2563 13.6649 36.421 13.3102 36.725C12.9556 37.029 12.7782 37.428 12.7782 37.922C12.7782 38.3527 12.9049 38.663 13.1582 38.853C13.4116 39.0303 13.7409 39.119 14.1462 39.119C14.7542 39.119 15.2672 38.9417 15.6852 38.587C16.1032 38.2197 16.3122 37.7067 16.3122 37.048V36.193L15.2102 36.231ZM27.798 30.436C28.9634 30.436 29.907 30.892 30.629 31.804C31.351 32.7033 31.712 34.0333 31.712 35.794C31.712 37.5547 31.3384 38.8973 30.591 39.822C29.8437 40.734 28.8874 41.19 27.722 41.19C26.9747 41.19 26.3794 41.057 25.936 40.791C25.4927 40.5123 25.1317 40.202 24.853 39.86H24.701C24.8024 40.392 24.853 40.8987 24.853 41.38V45.56H22.022V30.626H24.321L24.72 31.975H24.853C25.1317 31.557 25.5054 31.196 25.974 30.892C26.4427 30.588 27.0507 30.436 27.798 30.436ZM26.886 32.697C26.1514 32.697 25.632 32.925 25.328 33.381C25.0367 33.837 24.8784 34.5337 24.853 35.471V35.775C24.853 36.7757 24.9987 37.5483 25.29 38.093C25.594 38.625 26.1387 38.891 26.924 38.891C27.57 38.891 28.045 38.625 28.349 38.093C28.6657 37.5483 28.824 36.7693 28.824 35.756C28.824 33.7167 28.178 32.697 26.886 32.697ZM47.1175 30.626V41H44.4765V35.908C44.4765 35.4013 44.4828 34.9073 44.4955 34.426C44.5208 33.9447 44.5525 33.5013 44.5905 33.096H44.5335L41.6645 41H39.5365L36.6295 33.077H36.5535C36.6041 33.495 36.6358 33.9447 36.6485 34.426C36.6738 34.8947 36.6865 35.414 36.6865 35.984V41H34.0455V30.626H38.0545L40.6385 37.656L43.2605 30.626H47.1175ZM59.5007 35.794C59.5007 37.5167 59.0447 38.8467 58.1327 39.784C57.2334 40.7213 56.0047 41.19 54.4467 41.19C53.4841 41.19 52.6227 40.981 51.8627 40.563C51.1154 40.145 50.5264 39.537 50.0957 38.739C49.6651 37.9283 49.4497 36.9467 49.4497 35.794C49.4497 34.0713 49.8994 32.7477 50.7987 31.823C51.6981 30.8983 52.9331 30.436 54.5037 30.436C55.4791 30.436 56.3404 30.645 57.0877 31.063C57.8351 31.481 58.4241 32.089 58.8547 32.887C59.2854 33.6723 59.5007 34.6413 59.5007 35.794ZM52.3377 35.794C52.3377 36.82 52.5024 37.599 52.8317 38.131C53.1737 38.6503 53.7247 38.91 54.4847 38.91C55.2321 38.91 55.7704 38.6503 56.0997 38.131C56.4417 37.599 56.6127 36.82 56.6127 35.794C56.6127 34.768 56.4417 34.0017 56.0997 33.495C55.7704 32.9757 55.2257 32.716 54.4657 32.716C53.7184 32.716 53.1737 32.9757 52.8317 33.495C52.5024 34.0017 52.3377 34.768 52.3377 35.794ZM64.6714 30.626V34.616H68.6234V30.626H71.4544V41H68.6234V36.725H64.6714V41H61.8404V30.626H64.6714ZM77.1565 34.73C77.1565 34.9453 77.1438 35.2113 77.1185 35.528C77.1058 35.8447 77.0868 36.1677 77.0615 36.497C77.0488 36.8263 77.0298 37.1177 77.0045 37.371C76.9791 37.6243 76.9601 37.8017 76.9475 37.903L81.7355 30.626H85.1365V41H82.4005V36.858C82.4005 36.516 82.4131 36.1423 82.4385 35.737C82.4638 35.319 82.4891 34.9327 82.5145 34.578C82.5525 34.2107 82.5778 33.932 82.5905 33.742L77.8215 41H74.4205V30.626H77.1565V34.73ZM90.5843 34.426C90.5843 35.3253 91.0023 35.775 91.8383 35.775C92.3829 35.775 92.8896 35.718 93.3583 35.604C93.8269 35.4773 94.2956 35.3127 94.7643 35.11V30.626H97.5953V41H94.7643V36.877C94.3209 37.1177 93.8143 37.3393 93.2443 37.542C92.6743 37.732 92.0283 37.827 91.3063 37.827C90.2296 37.827 89.3683 37.5483 88.7223 36.991C88.0763 36.4337 87.7533 35.5977 87.7533 34.483V30.626H90.5843V34.426ZM103.395 30.626V34.616H107.347V30.626H110.178V41H107.347V36.725H103.395V41H100.564V30.626H103.395ZM122.568 35.794C122.568 37.5167 122.112 38.8467 121.2 39.784C120.301 40.7213 119.072 41.19 117.514 41.19C116.551 41.19 115.69 40.981 114.93 40.563C114.183 40.145 113.594 39.537 113.163 38.739C112.732 37.9283 112.517 36.9467 112.517 35.794C112.517 34.0713 112.967 32.7477 113.866 31.823C114.765 30.8983 116 30.436 117.571 30.436C118.546 30.436 119.408 30.645 120.155 31.063C120.902 31.481 121.491 32.089 121.922 32.887C122.353 33.6723 122.568 34.6413 122.568 35.794ZM115.405 35.794C115.405 36.82 115.57 37.599 115.899 38.131C116.241 38.6503 116.792 38.91 117.552 38.91C118.299 38.91 118.838 38.6503 119.167 38.131C119.509 37.599 119.68 36.82 119.68 35.794C119.68 34.768 119.509 34.0017 119.167 33.495C118.838 32.9757 118.293 32.716 117.533 32.716C116.786 32.716 116.241 32.9757 115.899 33.495C115.57 34.0017 115.405 34.768 115.405 35.794ZM129.183 30.436C130.614 30.436 131.748 30.8477 132.584 31.671C133.42 32.4817 133.838 33.6407 133.838 35.148V36.516H127.15C127.175 37.314 127.409 37.941 127.853 38.397C128.309 38.853 128.936 39.081 129.734 39.081C130.405 39.081 131.013 39.0177 131.558 38.891C132.102 38.7517 132.666 38.5427 133.249 38.264V40.449C132.742 40.7023 132.204 40.886 131.634 41C131.076 41.1267 130.399 41.19 129.601 41.19C128.562 41.19 127.644 41 126.846 40.62C126.048 40.2273 125.421 39.6383 124.965 38.853C124.509 38.0677 124.281 37.0797 124.281 35.889C124.281 34.673 124.483 33.666 124.889 32.868C125.307 32.0573 125.883 31.4493 126.618 31.044C127.352 30.6387 128.207 30.436 129.183 30.436ZM129.202 32.45C128.657 32.45 128.201 32.6273 127.834 32.982C127.479 33.3367 127.27 33.8877 127.207 34.635H131.178C131.165 34.0017 131 33.4823 130.684 33.077C130.367 32.659 129.873 32.45 129.202 32.45ZM144.971 41.19C143.426 41.19 142.229 40.7657 141.38 39.917C140.544 39.0557 140.126 37.7067 140.126 35.87C140.126 34.6033 140.342 33.571 140.772 32.773C141.203 31.975 141.798 31.386 142.558 31.006C143.331 30.626 144.218 30.436 145.218 30.436C145.928 30.436 146.542 30.5057 147.061 30.645C147.593 30.7843 148.056 30.949 148.448 31.139L147.612 33.324C147.169 33.1467 146.751 33.001 146.358 32.887C145.978 32.773 145.598 32.716 145.218 32.716C143.749 32.716 143.014 33.761 143.014 35.851C143.014 36.8897 143.204 37.656 143.584 38.15C143.977 38.644 144.522 38.891 145.218 38.891C145.814 38.891 146.339 38.815 146.795 38.663C147.251 38.4983 147.695 38.2767 148.125 37.998V40.411C147.695 40.6897 147.239 40.886 146.757 41C146.289 41.1267 145.693 41.19 144.971 41.19ZM159.937 35.794C159.937 37.5167 159.481 38.8467 158.569 39.784C157.67 40.7213 156.441 41.19 154.883 41.19C153.921 41.19 153.059 40.981 152.299 40.563C151.552 40.145 150.963 39.537 150.532 38.739C150.102 37.9283 149.886 36.9467 149.886 35.794C149.886 34.0713 150.336 32.7477 151.235 31.823C152.135 30.8983 153.37 30.436 154.94 30.436C155.916 30.436 156.777 30.645 157.524 31.063C158.272 31.481 158.861 32.089 159.291 32.887C159.722 33.6723 159.937 34.6413 159.937 35.794ZM152.774 35.794C152.774 36.82 152.939 37.599 153.268 38.131C153.61 38.6503 154.161 38.91 154.921 38.91C155.669 38.91 156.207 38.6503 156.536 38.131C156.878 37.599 157.049 36.82 157.049 35.794C157.049 34.768 156.878 34.0017 156.536 33.495C156.207 32.9757 155.662 32.716 154.902 32.716C154.155 32.716 153.61 32.9757 153.268 33.495C152.939 34.0017 152.774 34.768 152.774 35.794ZM171.701 35.794C171.701 37.5167 171.245 38.8467 170.333 39.784C169.434 40.7213 168.205 41.19 166.647 41.19C165.684 41.19 164.823 40.981 164.063 40.563C163.316 40.145 162.727 39.537 162.296 38.739C161.865 37.9283 161.65 36.9467 161.65 35.794C161.65 34.0713 162.1 32.7477 162.999 31.823C163.898 30.8983 165.133 30.436 166.704 30.436C167.679 30.436 168.541 30.645 169.288 31.063C170.035 31.481 170.624 32.089 171.055 32.887C171.486 33.6723 171.701 34.6413 171.701 35.794ZM164.538 35.794C164.538 36.82 164.703 37.599 165.032 38.131C165.374 38.6503 165.925 38.91 166.685 38.91C167.432 38.91 167.971 38.6503 168.3 38.131C168.642 37.599 168.813 36.82 168.813 35.794C168.813 34.768 168.642 34.0017 168.3 33.495C167.971 32.9757 167.426 32.716 166.666 32.716C165.919 32.716 165.374 32.9757 165.032 33.495C164.703 34.0017 164.538 34.768 164.538 35.794ZM173.414 34.787C173.414 32.4943 173.844 30.7147 174.706 29.448C175.58 28.1813 177.017 27.3707 179.019 27.016C179.69 26.902 180.368 26.807 181.052 26.731C181.748 26.6423 182.464 26.5537 183.199 26.465L183.522 28.935C183.091 28.9857 182.616 29.0427 182.097 29.106C181.59 29.1693 181.083 29.2327 180.577 29.296C180.083 29.3467 179.639 29.4037 179.247 29.467C178.613 29.5683 178.088 29.7267 177.67 29.942C177.252 30.1447 176.929 30.474 176.701 30.93C176.485 31.386 176.352 32.0447 176.302 32.906H176.435C176.587 32.6653 176.796 32.4247 177.062 32.184C177.34 31.9433 177.682 31.7407 178.088 31.576C178.493 31.4113 178.955 31.329 179.475 31.329C180.716 31.329 181.698 31.709 182.42 32.469C183.154 33.229 183.522 34.3627 183.522 35.87C183.522 37.048 183.306 38.0297 182.876 38.815C182.445 39.6003 181.85 40.1957 181.09 40.601C180.33 40.9937 179.449 41.19 178.449 41.19C176.916 41.19 175.694 40.639 174.782 39.537C173.87 38.435 173.414 36.8517 173.414 34.787ZM178.62 38.891C179.215 38.891 179.696 38.6883 180.064 38.283C180.444 37.8777 180.634 37.1557 180.634 36.117C180.634 35.2937 180.494 34.6413 180.216 34.16C179.95 33.666 179.481 33.419 178.81 33.419C178.404 33.419 178.024 33.5203 177.67 33.723C177.328 33.913 177.036 34.1347 176.796 34.388C176.555 34.6287 176.39 34.8377 176.302 35.015C176.302 35.661 176.371 36.2817 176.511 36.877C176.65 37.4723 176.884 37.96 177.214 38.34C177.556 38.7073 178.024 38.891 178.62 38.891ZM201.307 30.626V38.929H202.827V44.724H200.281V41H185.86V30.626H188.691V38.872H192.168V30.626H194.999V38.872H198.476V30.626H201.307ZM208.857 30.436C210.288 30.436 211.422 30.8477 212.258 31.671C213.094 32.4817 213.512 33.6407 213.512 35.148V36.516H206.824C206.849 37.314 207.083 37.941 207.527 38.397C207.983 38.853 208.61 39.081 209.408 39.081C210.079 39.081 210.687 39.0177 211.232 38.891C211.776 38.7517 212.34 38.5427 212.923 38.264V40.449C212.416 40.7023 211.878 40.886 211.308 41C210.75 41.1267 210.073 41.19 209.275 41.19C208.236 41.19 207.318 41 206.52 40.62C205.722 40.2273 205.095 39.6383 204.639 38.853C204.183 38.0677 203.955 37.0797 203.955 35.889C203.955 34.673 204.157 33.666 204.563 32.868C204.981 32.0573 205.557 31.4493 206.292 31.044C207.026 30.6387 207.881 30.436 208.857 30.436ZM208.876 32.45C208.331 32.45 207.875 32.6273 207.508 32.982C207.153 33.3367 206.944 33.8877 206.881 34.635H210.852C210.839 34.0017 210.674 33.4823 210.358 33.077C210.041 32.659 209.547 32.45 208.876 32.45ZM220.025 41.19C218.48 41.19 217.283 40.7657 216.434 39.917C215.598 39.0557 215.18 37.7067 215.18 35.87C215.18 34.6033 215.396 33.571 215.826 32.773C216.257 31.975 216.852 31.386 217.612 31.006C218.385 30.626 219.272 30.436 220.272 30.436C220.982 30.436 221.596 30.5057 222.115 30.645C222.647 30.7843 223.11 30.949 223.502 31.139L222.666 33.324C222.223 33.1467 221.805 33.001 221.412 32.887C221.032 32.773 220.652 32.716 220.272 32.716C218.803 32.716 218.068 33.761 218.068 35.851C218.068 36.8897 218.258 37.656 218.638 38.15C219.031 38.644 219.576 38.891 220.272 38.891C220.868 38.891 221.393 38.815 221.849 38.663C222.305 38.4983 222.749 38.2767 223.179 37.998V40.411C222.749 40.6897 222.293 40.886 221.811 41C221.343 41.1267 220.747 41.19 220.025 41.19ZM234.155 32.754H230.754V41H227.923V32.754H224.522V30.626H234.155V32.754ZM245.265 33.343C245.265 33.9003 245.088 34.3753 244.733 34.768C244.391 35.1607 243.878 35.414 243.194 35.528V35.604C243.916 35.6927 244.492 35.9397 244.923 36.345C245.366 36.7503 245.588 37.2697 245.588 37.903C245.588 38.4983 245.43 39.0303 245.113 39.499C244.809 39.9677 244.321 40.335 243.65 40.601C242.979 40.867 242.098 41 241.009 41H236.069V30.626H241.009C241.82 30.626 242.542 30.7147 243.175 30.892C243.821 31.0567 244.328 31.3353 244.695 31.728C245.075 32.1207 245.265 32.659 245.265 33.343ZM242.396 33.571C242.396 32.9377 241.896 32.621 240.895 32.621H238.9V34.673H240.572C241.167 34.673 241.617 34.5907 241.921 34.426C242.238 34.2487 242.396 33.9637 242.396 33.571ZM242.662 37.751C242.662 37.3457 242.504 37.0543 242.187 36.877C241.87 36.687 241.395 36.592 240.762 36.592H238.9V39.043H240.819C241.351 39.043 241.788 38.948 242.13 38.758C242.485 38.5553 242.662 38.2197 242.662 37.751ZM257.442 35.794C257.442 37.5167 256.986 38.8467 256.074 39.784C255.175 40.7213 253.946 41.19 252.388 41.19C251.425 41.19 250.564 40.981 249.804 40.563C249.057 40.145 248.468 39.537 248.037 38.739C247.606 37.9283 247.391 36.9467 247.391 35.794C247.391 34.0713 247.841 32.7477 248.74 31.823C249.639 30.8983 250.874 30.436 252.445 30.436C253.42 30.436 254.282 30.645 255.029 31.063C255.776 31.481 256.365 32.089 256.796 32.887C257.227 33.6723 257.442 34.6413 257.442 35.794ZM250.279 35.794C250.279 36.82 250.444 37.599 250.773 38.131C251.115 38.6503 251.666 38.91 252.426 38.91C253.173 38.91 253.712 38.6503 254.041 38.131C254.383 37.599 254.554 36.82 254.554 35.794C254.554 34.768 254.383 34.0017 254.041 33.495C253.712 32.9757 253.167 32.716 252.407 32.716C251.66 32.716 251.115 32.9757 250.773 33.495C250.444 34.0017 250.279 34.768 250.279 35.794ZM10.773 67H7.942V58.754H5.339C5.17433 60.7807 4.95267 62.4147 4.674 63.656C4.408 64.8847 4.03433 65.784 3.553 66.354C3.07167 66.9113 2.42567 67.19 1.615 67.19C0.956333 67.19 0.418 67.0887 0 66.886V64.625C0.291333 64.7517 0.595333 64.815 0.912 64.815C1.14 64.815 1.349 64.701 1.539 64.473C1.729 64.245 1.90633 63.8333 2.071 63.238C2.24833 62.6427 2.40667 61.813 2.546 60.749C2.68533 59.6723 2.812 58.298 2.926 56.626H10.773V67ZM28.0541 61.794C28.0541 63.5167 27.6171 64.8467 26.7431 65.784C25.8818 66.7213 24.6974 67.19 23.1901 67.19C21.9108 67.19 20.8404 66.829 19.9791 66.107C19.1178 65.3723 18.5984 64.245 18.4211 62.725H16.5591V67H13.7281V56.626H16.5591V60.616H18.4591C18.6491 59.2607 19.1684 58.2283 20.0171 57.519C20.8658 56.797 21.9424 56.436 23.2471 56.436C24.1844 56.436 25.0141 56.645 25.7361 57.063C26.4581 57.481 27.0218 58.089 27.4271 58.887C27.8451 59.6723 28.0541 60.6413 28.0541 61.794ZM21.2711 61.794C21.2711 62.82 21.4231 63.599 21.7271 64.131C22.0311 64.6503 22.5314 64.91 23.2281 64.91C23.9121 64.91 24.4061 64.6503 24.7101 64.131C25.0141 63.599 25.1661 62.82 25.1661 61.794C25.1661 60.768 25.0141 60.0017 24.7101 59.495C24.4061 58.9757 23.9058 58.716 23.2091 58.716C22.5251 58.716 22.0311 58.9757 21.7271 59.495C21.4231 60.0017 21.2711 60.768 21.2711 61.794ZM39.7192 56.626V64.929H41.2392V70.724H38.6932V67H31.7202V70.724H29.1742V64.929H30.0482C30.5042 64.2323 30.8905 63.4407 31.2072 62.554C31.5239 61.6547 31.7772 60.6983 31.9672 59.685C32.1572 58.6717 32.2965 57.652 32.3852 56.626H39.7192ZM34.7602 58.754C34.6082 59.9067 34.3992 61.0023 34.1332 62.041C33.8672 63.067 33.4935 64.0297 33.0122 64.929H36.8882V58.754H34.7602ZM47.2824 56.436C48.7137 56.436 49.8474 56.8477 50.6834 57.671C51.5194 58.4817 51.9374 59.6407 51.9374 61.148V62.516H45.2494C45.2747 63.314 45.5091 63.941 45.9524 64.397C46.4084 64.853 47.0354 65.081 47.8334 65.081C48.5047 65.081 49.1127 65.0177 49.6574 64.891C50.2021 64.7517 50.7657 64.5427 51.3484 64.264V66.449C50.8417 66.7023 50.3034 66.886 49.7334 67C49.1761 67.1267 48.4984 67.19 47.7004 67.19C46.6617 67.19 45.7434 67 44.9454 66.62C44.1474 66.2273 43.5204 65.6383 43.0644 64.853C42.6084 64.0677 42.3804 63.0797 42.3804 61.889C42.3804 60.673 42.5831 59.666 42.9884 58.868C43.4064 58.0573 43.9827 57.4493 44.7174 57.044C45.4521 56.6387 46.3071 56.436 47.2824 56.436ZM47.3014 58.45C46.7567 58.45 46.3007 58.6273 45.9334 58.982C45.5787 59.3367 45.3697 59.8877 45.3064 60.635H49.2774C49.2647 60.0017 49.1001 59.4823 48.7834 59.077C48.4667 58.659 47.9727 58.45 47.3014 58.45ZM64.17 52.161C64.1066 52.8197 63.923 53.4023 63.619 53.909C63.315 54.403 62.84 54.7893 62.194 55.068C61.548 55.3467 60.6803 55.486 59.591 55.486C58.4763 55.486 57.6023 55.353 56.969 55.087C56.3483 54.8083 55.905 54.422 55.639 53.928C55.373 53.434 55.2146 52.845 55.164 52.161H57.691C57.7543 52.8577 57.9316 53.32 58.223 53.548C58.5143 53.776 58.9893 53.89 59.648 53.89C60.1926 53.89 60.636 53.7697 60.978 53.529C61.3326 53.2757 61.5416 52.8197 61.605 52.161H64.17ZM56.969 60.73C56.969 60.9453 56.9563 61.2113 56.931 61.528C56.9183 61.8447 56.8993 62.1677 56.874 62.497C56.8613 62.8263 56.8423 63.1177 56.817 63.371C56.7916 63.6243 56.7726 63.8017 56.76 63.903L61.548 56.626H64.949V67H62.213V62.858C62.213 62.516 62.2256 62.1423 62.251 61.737C62.2763 61.319 62.3016 60.9327 62.327 60.578C62.365 60.2107 62.3903 59.932 62.403 59.742L57.634 67H54.233V56.626H56.969V60.73ZM67.5468 69.793L68.6678 64.226H71.5938L69.2378 69.793H67.5468ZM85.4429 56.626V58.754H81.1109V67H78.2799V56.626H85.4429ZM96.1069 56.626V64.929H97.6269V70.724H95.0809V67H88.1079V70.724H85.5619V64.929H86.4359C86.8919 64.2323 87.2782 63.4407 87.5949 62.554C87.9116 61.6547 88.1649 60.6983 88.3549 59.685C88.5449 58.6717 88.6842 57.652 88.7729 56.626H96.1069ZM91.1479 58.754C90.9959 59.9067 90.7869 61.0023 90.5209 62.041C90.2549 63.067 89.8812 64.0297 89.3999 64.929H93.2759V58.754H91.1479ZM103.67 56.436C105.101 56.436 106.235 56.8477 107.071 57.671C107.907 58.4817 108.325 59.6407 108.325 61.148V62.516H101.637C101.662 63.314 101.897 63.941 102.34 64.397C102.796 64.853 103.423 65.081 104.221 65.081C104.892 65.081 105.5 65.0177 106.045 64.891C106.59 64.7517 107.153 64.5427 107.736 64.264V66.449C107.229 66.7023 106.691 66.886 106.121 67C105.564 67.1267 104.886 67.19 104.088 67.19C103.049 67.19 102.131 67 101.333 66.62C100.535 66.2273 99.9081 65.6383 99.4521 64.853C98.9961 64.0677 98.7681 63.0797 98.7681 61.889C98.7681 60.673 98.9708 59.666 99.3761 58.868C99.7941 58.0573 100.37 57.4493 101.105 57.044C101.84 56.6387 102.695 56.436 103.67 56.436ZM103.689 58.45C103.144 58.45 102.688 58.6273 102.321 58.982C101.966 59.3367 101.757 59.8877 101.694 60.635H105.665C105.652 60.0017 105.488 59.4823 105.171 59.077C104.854 58.659 104.36 58.45 103.689 58.45ZM118.072 56.626V60.616H122.024V56.626H124.855V67H122.024V62.725H118.072V67H115.241V56.626H118.072ZM130.557 60.73C130.557 60.9453 130.544 61.2113 130.519 61.528C130.506 61.8447 130.487 62.1677 130.462 62.497C130.449 62.8263 130.43 63.1177 130.405 63.371C130.38 63.6243 130.361 63.8017 130.348 63.903L135.136 56.626H138.537V67H135.801V62.858C135.801 62.516 135.814 62.1423 135.839 61.737C135.864 61.319 135.89 60.9327 135.915 60.578C135.953 60.2107 135.978 59.932 135.991 59.742L131.222 67H127.821V56.626H130.557V60.73ZM148.298 56.626H151.414L147.31 61.604L151.775 67H148.564L144.327 61.737V67H141.496V56.626H144.327V61.661L148.298 56.626ZM161.847 58.754H158.446V67H155.615V58.754H152.214V56.626H161.847V58.754ZM173 61.794C173 63.5167 172.544 64.8467 171.632 65.784C170.732 66.7213 169.504 67.19 167.946 67.19C166.983 67.19 166.122 66.981 165.362 66.563C164.614 66.145 164.025 65.537 163.595 64.739C163.164 63.9283 162.949 62.9467 162.949 61.794C162.949 60.0713 163.398 58.7477 164.298 57.823C165.197 56.8983 166.432 56.436 168.003 56.436C168.978 56.436 169.839 56.645 170.587 57.063C171.334 57.481 171.923 58.089 172.354 58.887C172.784 59.6723 173 60.6413 173 61.794ZM165.837 61.794C165.837 62.82 166.001 63.599 166.331 64.131C166.673 64.6503 167.224 64.91 167.984 64.91C168.731 64.91 169.269 64.6503 169.599 64.131C169.941 63.599 170.112 62.82 170.112 61.794C170.112 60.768 169.941 60.0017 169.599 59.495C169.269 58.9757 168.725 58.716 167.965 58.716C167.217 58.716 166.673 58.9757 166.331 59.495C166.001 60.0017 165.837 60.768 165.837 61.794ZM182.791 56.626V60.616H186.743V56.626H189.574V67H186.743V62.725H182.791V67H179.96V56.626H182.791ZM196.815 56.436C198.246 56.436 199.38 56.8477 200.216 57.671C201.052 58.4817 201.47 59.6407 201.47 61.148V62.516H194.782C194.807 63.314 195.041 63.941 195.485 64.397C195.941 64.853 196.568 65.081 197.366 65.081C198.037 65.081 198.645 65.0177 199.19 64.891C199.734 64.7517 200.298 64.5427 200.881 64.264V66.449C200.374 66.7023 199.836 66.886 199.266 67C198.708 67.1267 198.031 67.19 197.233 67.19C196.194 67.19 195.276 67 194.478 66.62C193.68 66.2273 193.053 65.6383 192.597 64.853C192.141 64.0677 191.913 63.0797 191.913 61.889C191.913 60.673 192.115 59.666 192.521 58.868C192.939 58.0573 193.515 57.4493 194.25 57.044C194.984 56.6387 195.839 56.436 196.815 56.436ZM196.834 58.45C196.289 58.45 195.833 58.6273 195.466 58.982C195.111 59.3367 194.902 59.8877 194.839 60.635H198.81C198.797 60.0017 198.632 59.4823 198.316 59.077C197.999 58.659 197.505 58.45 196.834 58.45ZM217.581 59.343C217.581 59.9003 217.404 60.3753 217.049 60.768C216.707 61.1607 216.194 61.414 215.51 61.528V61.604C216.232 61.6927 216.809 61.9397 217.239 62.345C217.683 62.7503 217.904 63.2697 217.904 63.903C217.904 64.4983 217.746 65.0303 217.429 65.499C217.125 65.9677 216.638 66.335 215.966 66.601C215.295 66.867 214.415 67 213.325 67H208.385V56.626H213.325C214.136 56.626 214.858 56.7147 215.491 56.892C216.137 57.0567 216.644 57.3353 217.011 57.728C217.391 58.1207 217.581 58.659 217.581 59.343ZM214.712 59.571C214.712 58.9377 214.212 58.621 213.211 58.621H211.216V60.673H212.888C213.484 60.673 213.933 60.5907 214.237 60.426C214.554 60.2487 214.712 59.9637 214.712 59.571ZM214.978 63.751C214.978 63.3457 214.82 63.0543 214.503 62.877C214.187 62.687 213.712 62.592 213.078 62.592H211.216V65.043H213.135C213.667 65.043 214.104 64.948 214.446 64.758C214.801 64.5553 214.978 64.2197 214.978 63.751ZM224.61 56.436C226.041 56.436 227.175 56.8477 228.011 57.671C228.847 58.4817 229.265 59.6407 229.265 61.148V62.516H222.577C222.602 63.314 222.836 63.941 223.28 64.397C223.736 64.853 224.363 65.081 225.161 65.081C225.832 65.081 226.44 65.0177 226.985 64.891C227.529 64.7517 228.093 64.5427 228.676 64.264V66.449C228.169 66.7023 227.631 66.886 227.061 67C226.503 67.1267 225.826 67.19 225.028 67.19C223.989 67.19 223.071 67 222.273 66.62C221.475 66.2273 220.848 65.6383 220.392 64.853C219.936 64.0677 219.708 63.0797 219.708 61.889C219.708 60.673 219.91 59.666 220.316 58.868C220.734 58.0573 221.31 57.4493 222.045 57.044C222.779 56.6387 223.634 56.436 224.61 56.436ZM224.629 58.45C224.084 58.45 223.628 58.6273 223.261 58.982C222.906 59.3367 222.697 59.8877 222.634 60.635H226.605C226.592 60.0017 226.427 59.4823 226.111 59.077C225.794 58.659 225.3 58.45 224.629 58.45ZM240.889 56.626V64.929H242.409V70.724H239.863V67H232.89V70.724H230.344V64.929H231.218C231.674 64.2323 232.06 63.4407 232.377 62.554C232.694 61.6547 232.947 60.6983 233.137 59.685C233.327 58.6717 233.466 57.652 233.555 56.626H240.889ZM235.93 58.754C235.778 59.9067 235.569 61.0023 235.303 62.041C235.037 63.067 234.663 64.0297 234.182 64.929H238.058V58.754H235.93ZM248.452 56.436C249.884 56.436 251.017 56.8477 251.853 57.671C252.689 58.4817 253.107 59.6407 253.107 61.148V62.516H246.419C246.445 63.314 246.679 63.941 247.122 64.397C247.578 64.853 248.205 65.081 249.003 65.081C249.675 65.081 250.283 65.0177 250.827 64.891C251.372 64.7517 251.936 64.5427 252.518 64.264V66.449C252.012 66.7023 251.473 66.886 250.903 67C250.346 67.1267 249.668 67.19 248.87 67.19C247.832 67.19 246.913 67 246.115 66.62C245.317 66.2273 244.69 65.6383 244.234 64.853C243.778 64.0677 243.55 63.0797 243.55 61.889C243.55 60.673 243.753 59.666 244.158 58.868C244.576 58.0573 245.153 57.4493 245.887 57.044C246.622 56.6387 247.477 56.436 248.452 56.436ZM248.471 58.45C247.927 58.45 247.471 58.6273 247.103 58.982C246.749 59.3367 246.54 59.8877 246.476 60.635H250.447C250.435 60.0017 250.27 59.4823 249.953 59.077C249.637 58.659 249.143 58.45 248.471 58.45ZM263.991 58.754H260.59V67H257.759V58.754H254.358V56.626H263.991V58.754ZM5.7 93.19C4.15467 93.19 2.95767 92.7657 2.109 91.917C1.273 91.0557 0.855 89.7067 0.855 87.87C0.855 86.6033 1.07033 85.571 1.501 84.773C1.93167 83.975 2.527 83.386 3.287 83.006C4.05967 82.626 4.94633 82.436 5.947 82.436C6.65633 82.436 7.27067 82.5057 7.79 82.645C8.322 82.7843 8.78433 82.949 9.177 83.139L8.341 85.324C7.89767 85.1467 7.47967 85.001 7.087 84.887C6.707 84.773 6.327 84.716 5.947 84.716C4.47767 84.716 3.743 85.761 3.743 87.851C3.743 88.8897 3.933 89.656 4.313 90.15C4.70567 90.644 5.25033 90.891 5.947 90.891C6.54233 90.891 7.068 90.815 7.524 90.663C7.98 90.4983 8.42333 90.2767 8.854 89.998V92.411C8.42333 92.6897 7.96733 92.886 7.486 93C7.01733 93.1267 6.422 93.19 5.7 93.19ZM15.5168 82.436C16.9481 82.436 18.0818 82.8477 18.9178 83.671C19.7538 84.4817 20.1718 85.6407 20.1718 87.148V88.516H13.4838C13.5091 89.314 13.7434 89.941 14.1868 90.397C14.6428 90.853 15.2698 91.081 16.0678 91.081C16.7391 91.081 17.3471 91.0177 17.8918 90.891C18.4364 90.7517 19.0001 90.5427 19.5828 90.264V92.449C19.0761 92.7023 18.5378 92.886 17.9678 93C17.4104 93.1267 16.7328 93.19 15.9348 93.19C14.8961 93.19 13.9778 93 13.1798 92.62C12.3818 92.2273 11.7548 91.6383 11.2988 90.853C10.8428 90.0677 10.6148 89.0797 10.6148 87.889C10.6148 86.673 10.8174 85.666 11.2228 84.868C11.6408 84.0573 12.2171 83.4493 12.9518 83.044C13.6864 82.6387 14.5414 82.436 15.5168 82.436ZM15.5358 84.45C14.9911 84.45 14.5351 84.6273 14.1678 84.982C13.8131 85.3367 13.6041 85.8877 13.5408 86.635H17.5118C17.4991 86.0017 17.3344 85.4823 17.0178 85.077C16.7011 84.659 16.2071 84.45 15.5358 84.45ZM21.8404 86.787C21.8404 84.4943 22.271 82.7147 23.1324 81.448C24.0064 80.1813 25.444 79.3707 27.4454 79.016C28.1167 78.902 28.7944 78.807 29.4784 78.731C30.175 78.6423 30.8907 78.5537 31.6254 78.465L31.9484 80.935C31.5177 80.9857 31.0427 81.0427 30.5234 81.106C30.0167 81.1693 29.51 81.2327 29.0034 81.296C28.5094 81.3467 28.066 81.4037 27.6734 81.467C27.04 81.5683 26.5144 81.7267 26.0964 81.942C25.6784 82.1447 25.3554 82.474 25.1274 82.93C24.912 83.386 24.779 84.0447 24.7284 84.906H24.8614C25.0134 84.6653 25.2224 84.4247 25.4884 84.184C25.767 83.9433 26.109 83.7407 26.5144 83.576C26.9197 83.4113 27.382 83.329 27.9014 83.329C29.1427 83.329 30.1244 83.709 30.8464 84.469C31.581 85.229 31.9484 86.3627 31.9484 87.87C31.9484 89.048 31.733 90.0297 31.3024 90.815C30.8717 91.6003 30.2764 92.1957 29.5164 92.601C28.7564 92.9937 27.876 93.19 26.8754 93.19C25.3427 93.19 24.1204 92.639 23.2084 91.537C22.2964 90.435 21.8404 88.8517 21.8404 86.787ZM27.0464 90.891C27.6417 90.891 28.123 90.6883 28.4904 90.283C28.8704 89.8777 29.0604 89.1557 29.0604 88.117C29.0604 87.2937 28.921 86.6413 28.6424 86.16C28.3764 85.666 27.9077 85.419 27.2364 85.419C26.831 85.419 26.451 85.5203 26.0964 85.723C25.7544 85.913 25.463 86.1347 25.2224 86.388C24.9817 86.6287 24.817 86.8377 24.7284 87.015C24.7284 87.661 24.798 88.2817 24.9374 88.877C25.0767 89.4723 25.311 89.96 25.6404 90.34C25.9824 90.7073 26.451 90.891 27.0464 90.891ZM35.8637 93H32.8047L35.5977 88.896C35.0657 88.6807 34.5907 88.3323 34.1727 87.851C33.7674 87.357 33.5647 86.6857 33.5647 85.837C33.5647 84.7983 33.9574 84.0067 34.7427 83.462C35.528 82.9047 36.535 82.626 37.7637 82.626H42.5897V93H39.7587V89.143H38.2007L35.8637 93ZM36.3387 85.856C36.3387 86.2867 36.5097 86.6287 36.8517 86.882C37.1937 87.1227 37.637 87.243 38.1817 87.243H39.7587V84.621H37.8207C37.314 84.621 36.9404 84.7477 36.6997 85.001C36.459 85.2417 36.3387 85.5267 36.3387 85.856ZM59.3655 85.343C59.3655 85.9003 59.1882 86.3753 58.8335 86.768C58.4915 87.1607 57.9785 87.414 57.2945 87.528V87.604C58.0165 87.6927 58.5928 87.9397 59.0235 88.345C59.4668 88.7503 59.6885 89.2697 59.6885 89.903C59.6885 90.4983 59.5302 91.0303 59.2135 91.499C58.9095 91.9677 58.4218 92.335 57.7505 92.601C57.0792 92.867 56.1988 93 55.1095 93H50.1695V82.626H55.1095C55.9202 82.626 56.6422 82.7147 57.2755 82.892C57.9215 83.0567 58.4282 83.3353 58.7955 83.728C59.1755 84.1207 59.3655 84.659 59.3655 85.343ZM56.4965 85.571C56.4965 84.9377 55.9962 84.621 54.9955 84.621H53.0005V86.673H54.6725C55.2678 86.673 55.7175 86.5907 56.0215 86.426C56.3382 86.2487 56.4965 85.9637 56.4965 85.571ZM56.7625 89.751C56.7625 89.3457 56.6042 89.0543 56.2875 88.877C55.9708 88.687 55.4958 88.592 54.8625 88.592H53.0005V91.043H54.9195C55.4515 91.043 55.8885 90.948 56.2305 90.758C56.5852 90.5553 56.7625 90.2197 56.7625 89.751ZM62.1187 93V82.626H64.9497V86.635H66.3177C67.9011 86.635 69.0727 86.8883 69.8327 87.395C70.5927 87.9017 70.9727 88.668 70.9727 89.694C70.9727 90.6947 70.6181 91.499 69.9087 92.107C69.1994 92.7023 68.0341 93 66.4127 93H62.1187ZM72.4737 93V82.626H75.3047V93H72.4737ZM66.2607 91.043C66.8181 91.043 67.2677 90.9417 67.6097 90.739C67.9644 90.5363 68.1417 90.2007 68.1417 89.732C68.1417 88.972 67.5021 88.592 66.2227 88.592H64.9497V91.043H66.2607ZM82.0423 82.436C82.7896 82.436 83.4863 82.5373 84.1323 82.74C84.791 82.93 85.3166 83.2277 85.7093 83.633C86.1146 84.0383 86.3173 84.5577 86.3173 85.191C86.3173 85.8117 86.1273 86.3057 85.7473 86.673C85.38 87.0403 84.8796 87.3063 84.2463 87.471V87.566C84.6896 87.6673 85.0886 87.813 85.4433 88.003C85.798 88.1803 86.0766 88.4273 86.2793 88.744C86.4946 89.048 86.6023 89.4597 86.6023 89.979C86.6023 90.549 86.4186 91.081 86.0513 91.575C85.6966 92.0563 85.1393 92.449 84.3793 92.753C83.632 93.0443 82.6693 93.19 81.4913 93.19C79.7686 93.19 78.4386 92.9747 77.5013 92.544V90.207C77.932 90.4097 78.4576 90.5933 79.0783 90.758C79.7116 90.9227 80.383 91.005 81.0923 91.005C81.865 91.005 82.5173 90.9163 83.0493 90.739C83.5813 90.5617 83.8473 90.2513 83.8473 89.808C83.8473 88.9847 82.8656 88.573 80.9023 88.573H79.8003V86.616H80.8453C81.7826 86.616 82.5046 86.54 83.0113 86.388C83.5306 86.236 83.7903 85.951 83.7903 85.533C83.7903 85.2037 83.6256 84.9567 83.2963 84.792C82.967 84.6147 82.4286 84.526 81.6813 84.526C81.1873 84.526 80.649 84.583 80.0663 84.697C79.4836 84.811 78.9326 84.9757 78.4133 85.191L77.5773 83.215C78.1726 82.987 78.825 82.8033 79.5343 82.664C80.2436 82.512 81.0796 82.436 82.0423 82.436ZM88.8004 93V82.626H91.6314V86.635H92.9994C94.5827 86.635 95.7544 86.8883 96.5144 87.395C97.2744 87.9017 97.6544 88.668 97.6544 89.694C97.6544 90.6947 97.2997 91.499 96.5904 92.107C95.881 92.7023 94.7157 93 93.0944 93H88.8004ZM99.1554 93V82.626H101.986V93H99.1554ZM92.9424 91.043C93.4997 91.043 93.9494 90.9417 94.2914 90.739C94.646 90.5363 94.8234 90.2007 94.8234 89.732C94.8234 88.972 94.1837 88.592 92.9044 88.592H91.6314V91.043H92.9424ZM114.139 85.343C114.139 85.9003 113.962 86.3753 113.607 86.768C113.265 87.1607 112.752 87.414 112.068 87.528V87.604C112.79 87.6927 113.366 87.9397 113.797 88.345C114.24 88.7503 114.462 89.2697 114.462 89.903C114.462 90.4983 114.304 91.0303 113.987 91.499C113.683 91.9677 113.195 92.335 112.524 92.601C111.853 92.867 110.972 93 109.883 93H104.943V82.626H109.883C110.694 82.626 111.416 82.7147 112.049 82.892C112.695 83.0567 113.202 83.3353 113.569 83.728C113.949 84.1207 114.139 84.659 114.139 85.343ZM111.27 85.571C111.27 84.9377 110.77 84.621 109.769 84.621H107.774V86.673H109.446C110.041 86.673 110.491 86.5907 110.795 86.426C111.112 86.2487 111.27 85.9637 111.27 85.571ZM111.536 89.751C111.536 89.3457 111.378 89.0543 111.061 88.877C110.744 88.687 110.269 88.592 109.636 88.592H107.774V91.043H109.693C110.225 91.043 110.662 90.948 111.004 90.758C111.359 90.5553 111.536 90.2197 111.536 89.751ZM121.148 82.417C122.541 82.417 123.605 82.721 124.34 83.329C125.087 83.9243 125.461 84.8427 125.461 86.084V93H123.485L122.934 91.594H122.858C122.415 92.1513 121.946 92.5567 121.452 92.81C120.958 93.0633 120.28 93.19 119.419 93.19C118.494 93.19 117.728 92.924 117.12 92.392C116.512 91.8473 116.208 91.0177 116.208 89.903C116.208 88.801 116.594 87.9903 117.367 87.471C118.14 86.939 119.299 86.6477 120.844 86.597L122.649 86.54V86.084C122.649 85.5393 122.503 85.1403 122.212 84.887C121.933 84.6337 121.541 84.507 121.034 84.507C120.527 84.507 120.033 84.583 119.552 84.735C119.071 84.8743 118.589 85.0517 118.108 85.267L117.177 83.348C117.734 83.0567 118.349 82.8287 119.02 82.664C119.704 82.4993 120.413 82.417 121.148 82.417ZM121.547 88.231C120.635 88.2563 120.002 88.421 119.647 88.725C119.292 89.029 119.115 89.428 119.115 89.922C119.115 90.3527 119.242 90.663 119.495 90.853C119.748 91.0303 120.078 91.119 120.483 91.119C121.091 91.119 121.604 90.9417 122.022 90.587C122.44 90.2197 122.649 89.7067 122.649 89.048V88.193L121.547 88.231ZM142.685 87.794C142.685 89.5167 142.248 90.8467 141.374 91.784C140.513 92.7213 139.328 93.19 137.821 93.19C136.542 93.19 135.471 92.829 134.61 92.107C133.749 91.3723 133.229 90.245 133.052 88.725H131.19V93H128.359V82.626H131.19V86.616H133.09C133.28 85.2607 133.799 84.2283 134.648 83.519C135.497 82.797 136.573 82.436 137.878 82.436C138.815 82.436 139.645 82.645 140.367 83.063C141.089 83.481 141.653 84.089 142.058 84.887C142.476 85.6723 142.685 86.6413 142.685 87.794ZM135.902 87.794C135.902 88.82 136.054 89.599 136.358 90.131C136.662 90.6503 137.162 90.91 137.859 90.91C138.543 90.91 139.037 90.6503 139.341 90.131C139.645 89.599 139.797 88.82 139.797 87.794C139.797 86.768 139.645 86.0017 139.341 85.495C139.037 84.9757 138.537 84.716 137.84 84.716C137.156 84.716 136.662 84.9757 136.358 85.495C136.054 86.0017 135.902 86.768 135.902 87.794ZM160.468 82.626V90.929H161.988V96.724H159.442V93H145.021V82.626H147.852V90.872H151.329V82.626H154.16V90.872H157.637V82.626H160.468ZM168.018 82.436C169.449 82.436 170.583 82.8477 171.419 83.671C172.255 84.4817 172.673 85.6407 172.673 87.148V88.516H165.985C166.01 89.314 166.244 89.941 166.688 90.397C167.144 90.853 167.771 91.081 168.569 91.081C169.24 91.081 169.848 91.0177 170.393 90.891C170.937 90.7517 171.501 90.5427 172.084 90.264V92.449C171.577 92.7023 171.039 92.886 170.469 93C169.911 93.1267 169.234 93.19 168.436 93.19C167.397 93.19 166.479 93 165.681 92.62C164.883 92.2273 164.256 91.6383 163.8 90.853C163.344 90.0677 163.116 89.0797 163.116 87.889C163.116 86.673 163.318 85.666 163.724 84.868C164.142 84.0573 164.718 83.4493 165.453 83.044C166.187 82.6387 167.042 82.436 168.018 82.436ZM168.037 84.45C167.492 84.45 167.036 84.6273 166.669 84.982C166.314 85.3367 166.105 85.8877 166.042 86.635H170.013C170 86.0017 169.835 85.4823 169.519 85.077C169.202 84.659 168.708 84.45 168.037 84.45ZM175.139 93V90.416H177.628V93H175.139Z" fill="#FCF7F2"/>
</svg>
