<svg width="262" height="98" viewBox="0 0 262 98" fill="none" xmlns="http://www.w3.org/2000/svg">
<path d="M11.64 16H9.6L5.82 9.8L1.98 16H0.08L4.82 8.56L0.38 1.72H2.38L5.88 7.32L9.4 1.72H11.3L6.88 8.52L11.64 16ZM22.7387 10.62C22.7387 12.3933 22.2854 13.7667 21.3788 14.74C20.4854 15.7133 19.2721 16.2 17.7388 16.2C16.7921 16.2 15.9454 15.9867 15.1988 15.56C14.4654 15.12 13.8854 14.4867 13.4588 13.66C13.0321 12.82 12.8188 11.8067 12.8188 10.62C12.8188 8.84667 13.2654 7.48 14.1588 6.52C15.0521 5.56 16.2654 5.08 17.7988 5.08C18.7721 5.08 19.6254 5.3 20.3588 5.74C21.1054 6.16667 21.6854 6.79333 22.0988 7.62C22.5254 8.43333 22.7387 9.43333 22.7387 10.62ZM14.6388 10.62C14.6388 11.8867 14.8854 12.8933 15.3788 13.64C15.8854 14.3733 16.6854 14.74 17.7788 14.74C18.8588 14.74 19.6521 14.3733 20.1588 13.64C20.6654 12.8933 20.9188 11.8867 20.9188 10.62C20.9188 9.35333 20.6654 8.36 20.1588 7.64C19.6521 6.92 18.8521 6.56 17.7588 6.56C16.6654 6.56 15.8721 6.92 15.3788 7.64C14.8854 8.36 14.6388 9.35333 14.6388 10.62ZM30.6281 5.08C31.9481 5.08 33.0081 5.54 33.8081 6.46C34.6215 7.38 35.0281 8.76667 35.0281 10.62C35.0281 12.4467 34.6215 13.8333 33.8081 14.78C33.0081 15.7267 31.9415 16.2 30.6081 16.2C29.7815 16.2 29.0948 16.0467 28.5481 15.74C28.0148 15.42 27.5948 15.0533 27.2881 14.64H27.1681C27.1948 14.8667 27.2215 15.1533 27.2481 15.5C27.2748 15.8467 27.2881 16.1467 27.2881 16.4V20.8H25.5281V5.28H26.9681L27.2081 6.74H27.2881C27.6081 6.27333 28.0281 5.88 28.5481 5.56C29.0681 5.24 29.7615 5.08 30.6281 5.08ZM30.3081 6.56C29.2148 6.56 28.4415 6.86667 27.9881 7.48C27.5481 8.09333 27.3148 9.02667 27.2881 10.28V10.62C27.2881 11.94 27.5015 12.96 27.9281 13.68C28.3681 14.3867 29.1748 14.74 30.3481 14.74C31.0015 14.74 31.5348 14.56 31.9481 14.2C32.3748 13.84 32.6881 13.3533 32.8881 12.74C33.1015 12.1133 33.2081 11.4 33.2081 10.6C33.2081 9.37333 32.9681 8.39333 32.4881 7.66C32.0215 6.92667 31.2948 6.56 30.3081 6.56ZM47.1528 10.62C47.1528 12.3933 46.6995 13.7667 45.7928 14.74C44.8995 15.7133 43.6861 16.2 42.1528 16.2C41.2061 16.2 40.3595 15.9867 39.6128 15.56C38.8795 15.12 38.2995 14.4867 37.8728 13.66C37.4461 12.82 37.2328 11.8067 37.2328 10.62C37.2328 8.84667 37.6795 7.48 38.5728 6.52C39.4661 5.56 40.6795 5.08 42.2128 5.08C43.1861 5.08 44.0395 5.3 44.7728 5.74C45.5195 6.16667 46.0995 6.79333 46.5128 7.62C46.9395 8.43333 47.1528 9.43333 47.1528 10.62ZM39.0528 10.62C39.0528 11.8867 39.2995 12.8933 39.7928 13.64C40.2995 14.3733 41.0995 14.74 42.1928 14.74C43.2728 14.74 44.0661 14.3733 44.5728 13.64C45.0795 12.8933 45.3328 11.8867 45.3328 10.62C45.3328 9.35333 45.0795 8.36 44.5728 7.64C44.0661 6.92 43.2661 6.56 42.1728 6.56C41.0795 6.56 40.2861 6.92 39.7928 7.64C39.2995 8.36 39.0528 9.35333 39.0528 10.62ZM64.4822 5.28V16H49.9422V5.28H51.7022V14.52H56.3222V5.28H58.0822V14.52H62.7222V5.28H64.4822ZM69.5709 11.82C69.5709 11.98 69.5643 12.22 69.5509 12.54C69.5376 12.86 69.5176 13.18 69.4909 13.5C69.4776 13.82 69.4643 14.0733 69.4509 14.26L75.1909 5.28H77.3509V16H75.7109V9.68C75.7109 9.46667 75.7109 9.18667 75.7109 8.84C75.7243 8.49333 75.7376 8.15333 75.7509 7.82C75.7643 7.47333 75.7776 7.21333 75.7909 7.04L70.0909 16H67.9109V5.28H69.5709V11.82ZM89.4425 0.84C89.3492 1.84 89.0092 2.6 88.4225 3.12C87.8492 3.62667 86.9292 3.88 85.6625 3.88C84.3558 3.88 83.4292 3.62667 82.8825 3.12C82.3492 2.61333 82.0492 1.85333 81.9825 0.84H83.6225C83.6892 1.56 83.8758 2.04667 84.1825 2.3C84.5025 2.54 85.0092 2.66 85.7025 2.66C86.3158 2.66 86.7958 2.53333 87.1425 2.28C87.5025 2.01333 87.7158 1.53333 87.7825 0.84H89.4425ZM82.4225 11.82C82.4225 11.98 82.4158 12.22 82.4025 12.54C82.3892 12.86 82.3692 13.18 82.3425 13.5C82.3292 13.82 82.3158 14.0733 82.3025 14.26L88.0425 5.28H90.2025V16H88.5625V9.68C88.5625 9.46667 88.5625 9.18667 88.5625 8.84C88.5758 8.49333 88.5892 8.15333 88.6025 7.82C88.6158 7.47333 88.6292 7.21333 88.6425 7.04L82.9425 16H80.7625V5.28H82.4225V11.82ZM113.408 5.28V16H98.868V5.28H100.628V14.52H105.248V5.28H107.008V14.52H111.648V5.28H113.408ZM121.937 5.08C123.257 5.08 124.317 5.54 125.117 6.46C125.93 7.38 126.337 8.76667 126.337 10.62C126.337 12.4467 125.93 13.8333 125.117 14.78C124.317 15.7267 123.25 16.2 121.917 16.2C121.09 16.2 120.403 16.0467 119.857 15.74C119.323 15.42 118.903 15.0533 118.597 14.64H118.477C118.503 14.8667 118.53 15.1533 118.557 15.5C118.583 15.8467 118.597 16.1467 118.597 16.4V20.8H116.837V5.28H118.277L118.517 6.74H118.597C118.917 6.27333 119.337 5.88 119.857 5.56C120.377 5.24 121.07 5.08 121.937 5.08ZM121.617 6.56C120.523 6.56 119.75 6.86667 119.297 7.48C118.857 8.09333 118.623 9.02667 118.597 10.28V10.62C118.597 11.94 118.81 12.96 119.237 13.68C119.677 14.3867 120.483 14.74 121.657 14.74C122.31 14.74 122.843 14.56 123.257 14.2C123.683 13.84 123.997 13.3533 124.197 12.74C124.41 12.1133 124.517 11.4 124.517 10.6C124.517 9.37333 124.277 8.39333 123.797 7.66C123.33 6.92667 122.603 6.56 121.617 6.56ZM130.801 11.82C130.801 11.98 130.795 12.22 130.781 12.54C130.768 12.86 130.748 13.18 130.721 13.5C130.708 13.82 130.695 14.0733 130.681 14.26L136.421 5.28H138.581V16H136.941V9.68C136.941 9.46667 136.941 9.18667 136.941 8.84C136.955 8.49333 136.968 8.15333 136.981 7.82C136.995 7.47333 137.008 7.21333 137.021 7.04L131.321 16H129.141V5.28H130.801V11.82ZM148.393 5.12C149.46 5.21333 150.386 5.49333 151.173 5.96C151.973 6.42667 152.593 7.05333 153.033 7.84C153.473 8.62667 153.693 9.56 153.693 10.64C153.693 12.2533 153.22 13.54 152.273 14.5C151.34 15.46 150.046 16.0133 148.393 16.16V20.8H146.673V16.16C145.62 16.0667 144.693 15.7933 143.893 15.34C143.093 14.8733 142.473 14.2467 142.033 13.46C141.593 12.66 141.373 11.72 141.373 10.64C141.373 9.01333 141.84 7.72 142.773 6.76C143.72 5.8 145.04 5.25333 146.733 5.12V0.799999H148.393V5.12ZM146.733 6.58C145.506 6.7 144.613 7.10667 144.053 7.8C143.493 8.48 143.213 9.42667 143.213 10.64C143.213 11.8533 143.493 12.8067 144.053 13.5C144.626 14.1933 145.52 14.6 146.733 14.72V6.58ZM148.393 14.72C149.593 14.5867 150.473 14.1733 151.033 13.48C151.593 12.7867 151.873 11.84 151.873 10.64C151.873 9.44 151.586 8.5 151.013 7.82C150.453 7.14 149.58 6.73333 148.393 6.6V14.72ZM163.69 6.76H160.19V16H158.45V6.76H154.99V5.28H163.69V6.76ZM168.34 10.6V9.28H188.54V10.6H168.34ZM196.193 16.2C195.58 16.2 195.047 16.1467 194.593 16.04C194.153 15.9467 193.74 15.8067 193.353 15.62V14.1C193.753 14.26 194.187 14.4 194.653 14.52C195.12 14.64 195.647 14.7 196.233 14.7C197.273 14.7 198.1 14.42 198.713 13.86C199.327 13.3 199.667 12.4133 199.733 11.2H194.453V9.76H199.713C199.62 8.66667 199.307 7.86667 198.773 7.36C198.253 6.85333 197.487 6.6 196.473 6.6C196.087 6.6 195.66 6.65333 195.193 6.76C194.74 6.86667 194.333 6.98667 193.973 7.12L193.473 5.7C193.86 5.52667 194.32 5.38 194.853 5.26C195.387 5.14 195.92 5.08 196.453 5.08C197.453 5.08 198.333 5.26667 199.093 5.64C199.867 6.01333 200.467 6.60667 200.893 7.42C201.333 8.23333 201.553 9.30667 201.553 10.64C201.553 11.9067 201.32 12.9533 200.853 13.78C200.4 14.6067 199.767 15.22 198.953 15.62C198.153 16.0067 197.233 16.2 196.193 16.2ZM211.561 6.76H208.061V16H206.321V6.76H202.861V5.28H211.561V6.76ZM222.797 10.62C222.797 12.3933 222.344 13.7667 221.437 14.74C220.544 15.7133 219.331 16.2 217.797 16.2C216.851 16.2 216.004 15.9867 215.257 15.56C214.524 15.12 213.944 14.4867 213.517 13.66C213.091 12.82 212.877 11.8067 212.877 10.62C212.877 8.84667 213.324 7.48 214.217 6.52C215.111 5.56 216.324 5.08 217.857 5.08C218.831 5.08 219.684 5.3 220.417 5.74C221.164 6.16667 221.744 6.79333 222.157 7.62C222.584 8.43333 222.797 9.43333 222.797 10.62ZM214.697 10.62C214.697 11.8867 214.944 12.8933 215.437 13.64C215.944 14.3733 216.744 14.74 217.837 14.74C218.917 14.74 219.711 14.3733 220.217 13.64C220.724 12.8933 220.977 11.8867 220.977 10.62C220.977 9.35333 220.724 8.36 220.217 7.64C219.711 6.92 218.911 6.56 217.817 6.56C216.724 6.56 215.931 6.92 215.437 7.64C214.944 8.36 214.697 9.35333 214.697 10.62ZM237.181 5.28H239.101L234.521 10.44L239.481 16H237.441L232.601 10.56V16H230.841V5.28H232.601V10.48L237.181 5.28ZM245.487 5.1C246.793 5.1 247.76 5.38667 248.387 5.96C249.013 6.53333 249.327 7.44667 249.327 8.7V16H248.047L247.707 14.48H247.627C247.16 15.0667 246.667 15.5 246.147 15.78C245.64 16.06 244.933 16.2 244.027 16.2C243.053 16.2 242.247 15.9467 241.607 15.44C240.967 14.92 240.647 14.1133 240.647 13.02C240.647 11.9533 241.067 11.1333 241.907 10.56C242.747 9.97333 244.04 9.65333 245.787 9.6L247.607 9.54V8.9C247.607 8.00667 247.413 7.38667 247.027 7.04C246.64 6.69333 246.093 6.52 245.387 6.52C244.827 6.52 244.293 6.60667 243.787 6.78C243.28 6.94 242.807 7.12667 242.367 7.34L241.827 6.02C242.293 5.76667 242.847 5.55333 243.487 5.38C244.127 5.19333 244.793 5.1 245.487 5.1ZM246.007 10.82C244.673 10.8733 243.747 11.0867 243.227 11.46C242.72 11.8333 242.467 12.36 242.467 13.04C242.467 13.64 242.647 14.08 243.007 14.36C243.38 14.64 243.853 14.78 244.427 14.78C245.333 14.78 246.087 14.5333 246.687 14.04C247.287 13.5333 247.587 12.76 247.587 11.72V10.76L246.007 10.82ZM258.978 5.28H260.898L256.318 10.44L261.278 16H259.238L254.398 10.56V16H252.638V5.28H254.398V10.48L258.978 5.28ZM8.24 31.28V32.76H3.46V42H1.7V31.28H8.24ZM14.4123 31.1C15.719 31.1 16.6857 31.3867 17.3123 31.96C17.939 32.5333 18.2523 33.4467 18.2523 34.7V42H16.9723L16.6323 40.48H16.5523C16.0857 41.0667 15.5923 41.5 15.0723 41.78C14.5657 42.06 13.859 42.2 12.9523 42.2C11.979 42.2 11.1723 41.9467 10.5323 41.44C9.89234 40.92 9.57234 40.1133 9.57234 39.02C9.57234 37.9533 9.99234 37.1333 10.8323 36.56C11.6723 35.9733 12.9657 35.6533 14.7123 35.6L16.5323 35.54V34.9C16.5323 34.0067 16.339 33.3867 15.9523 33.04C15.5657 32.6933 15.019 32.52 14.3123 32.52C13.7523 32.52 13.219 32.6067 12.7123 32.78C12.2057 32.94 11.7323 33.1267 11.2923 33.34L10.7523 32.02C11.219 31.7667 11.7723 31.5533 12.4123 31.38C13.0523 31.1933 13.719 31.1 14.4123 31.1ZM14.9323 36.82C13.599 36.8733 12.6723 37.0867 12.1523 37.46C11.6457 37.8333 11.3923 38.36 11.3923 39.04C11.3923 39.64 11.5723 40.08 11.9323 40.36C12.3057 40.64 12.779 40.78 13.3523 40.78C14.259 40.78 15.0123 40.5333 15.6123 40.04C16.2123 39.5333 16.5123 38.76 16.5123 37.72V36.76L14.9323 36.82ZM26.6633 31.08C27.9833 31.08 29.0433 31.54 29.8433 32.46C30.6566 33.38 31.0633 34.7667 31.0633 36.62C31.0633 38.4467 30.6566 39.8333 29.8433 40.78C29.0433 41.7267 27.9766 42.2 26.6433 42.2C25.8166 42.2 25.1299 42.0467 24.5833 41.74C24.0499 41.42 23.6299 41.0533 23.3233 40.64H23.2033C23.2299 40.8667 23.2566 41.1533 23.2833 41.5C23.3099 41.8467 23.3233 42.1467 23.3233 42.4V46.8H21.5633V31.28H23.0033L23.2433 32.74H23.3233C23.6433 32.2733 24.0633 31.88 24.5833 31.56C25.1033 31.24 25.7966 31.08 26.6633 31.08ZM26.3433 32.56C25.2499 32.56 24.4766 32.8667 24.0233 33.48C23.5833 34.0933 23.3499 35.0267 23.3233 36.28V36.62C23.3233 37.94 23.5366 38.96 23.9633 39.68C24.4033 40.3867 25.2099 40.74 26.3833 40.74C27.0366 40.74 27.5699 40.56 27.9833 40.2C28.4099 39.84 28.7233 39.3533 28.9233 38.74C29.1366 38.1133 29.2433 37.4 29.2433 36.6C29.2433 35.3733 29.0033 34.3933 28.5233 33.66C28.0566 32.9267 27.3299 32.56 26.3433 32.56ZM45.368 31.28V42H43.788V35.16C43.788 34.88 43.7946 34.5867 43.808 34.28C43.8346 33.9733 43.8613 33.6733 43.888 33.38H43.828L40.328 42H38.848L35.448 33.38H35.388C35.428 33.98 35.448 34.5933 35.448 35.22V42H33.868V31.28H36.208L39.588 39.9L43.028 31.28H45.368ZM58.1098 36.62C58.1098 38.3933 57.6565 39.7667 56.7498 40.74C55.8565 41.7133 54.6432 42.2 53.1098 42.2C52.1632 42.2 51.3165 41.9867 50.5698 41.56C49.8365 41.12 49.2565 40.4867 48.8298 39.66C48.4032 38.82 48.1898 37.8067 48.1898 36.62C48.1898 34.8467 48.6365 33.48 49.5298 32.52C50.4232 31.56 51.6365 31.08 53.1698 31.08C54.1432 31.08 54.9965 31.3 55.7298 31.74C56.4765 32.1667 57.0565 32.7933 57.4698 33.62C57.8965 34.4333 58.1098 35.4333 58.1098 36.62ZM50.0098 36.62C50.0098 37.8867 50.2565 38.8933 50.7498 39.64C51.2565 40.3733 52.0565 40.74 53.1498 40.74C54.2298 40.74 55.0232 40.3733 55.5298 39.64C56.0365 38.8933 56.2898 37.8867 56.2898 36.62C56.2898 35.3533 56.0365 34.36 55.5298 33.64C55.0232 32.92 54.2232 32.56 53.1298 32.56C52.0365 32.56 51.2432 32.92 50.7498 33.64C50.2565 34.36 50.0098 35.3533 50.0098 36.62ZM62.6592 31.28V35.74H68.4792V31.28H70.2392V42H68.4792V37.22H62.6592V42H60.8992V31.28H62.6592ZM75.2936 37.82C75.2936 37.98 75.2869 38.22 75.2736 38.54C75.2603 38.86 75.2403 39.18 75.2136 39.5C75.2003 39.82 75.1869 40.0733 75.1736 40.26L80.9136 31.28H83.0736V42H81.4336V35.68C81.4336 35.4667 81.4336 35.1867 81.4336 34.84C81.4469 34.4933 81.4603 34.1533 81.4736 33.82C81.4869 33.4733 81.5003 33.2133 81.5136 33.04L75.8136 42H73.6336V31.28H75.2936V37.82ZM88.0252 35.18C88.0252 36.4067 88.7118 37.02 90.0852 37.02C90.7518 37.02 91.3585 36.92 91.9052 36.72C92.4518 36.5067 93.0118 36.2267 93.5852 35.88V31.28H95.3452V42H93.5852V37.22C92.9852 37.6067 92.3918 37.9133 91.8052 38.14C91.2318 38.3533 90.5385 38.46 89.7252 38.46C88.6318 38.46 87.7785 38.1733 87.1652 37.6C86.5652 37.0267 86.2652 36.26 86.2652 35.3V31.28H88.0252V35.18ZM100.511 31.28V35.74H106.331V31.28H108.091V42H106.331V37.22H100.511V42H98.7508V31.28H100.511ZM120.805 36.62C120.805 38.3933 120.352 39.7667 119.445 40.74C118.552 41.7133 117.338 42.2 115.805 42.2C114.858 42.2 114.012 41.9867 113.265 41.56C112.532 41.12 111.952 40.4867 111.525 39.66C111.098 38.82 110.885 37.8067 110.885 36.62C110.885 34.8467 111.332 33.48 112.225 32.52C113.118 31.56 114.332 31.08 115.865 31.08C116.838 31.08 117.692 31.3 118.425 31.74C119.172 32.1667 119.752 32.7933 120.165 33.62C120.592 34.4333 120.805 35.4333 120.805 36.62ZM112.705 36.62C112.705 37.8867 112.952 38.8933 113.445 39.64C113.952 40.3733 114.752 40.74 115.845 40.74C116.925 40.74 117.718 40.3733 118.225 39.64C118.732 38.8933 118.985 37.8867 118.985 36.62C118.985 35.3533 118.732 34.36 118.225 33.64C117.718 32.92 116.918 32.56 115.825 32.56C114.732 32.56 113.938 32.92 113.445 33.64C112.952 34.36 112.705 35.3533 112.705 36.62ZM127.735 31.08C128.655 31.08 129.441 31.28 130.095 31.68C130.761 32.08 131.268 32.6467 131.615 33.38C131.975 34.1 132.155 34.9467 132.155 35.92V36.98H124.815C124.841 38.1933 125.148 39.12 125.735 39.76C126.335 40.3867 127.168 40.7 128.235 40.7C128.915 40.7 129.515 40.64 130.035 40.52C130.568 40.3867 131.115 40.2 131.675 39.96V41.5C131.128 41.74 130.588 41.9133 130.055 42.02C129.521 42.14 128.888 42.2 128.155 42.2C127.141 42.2 126.241 41.9933 125.455 41.58C124.681 41.1667 124.075 40.5533 123.635 39.74C123.208 38.9133 122.995 37.9067 122.995 36.72C122.995 35.5467 123.188 34.54 123.575 33.7C123.975 32.86 124.528 32.2133 125.235 31.76C125.955 31.3067 126.788 31.08 127.735 31.08ZM127.715 32.52C126.875 32.52 126.208 32.7933 125.715 33.34C125.235 33.8733 124.948 34.62 124.855 35.58H130.315C130.301 34.6733 130.088 33.94 129.675 33.38C129.261 32.8067 128.608 32.52 127.715 32.52ZM144.438 42.2C143.491 42.2 142.644 42.0067 141.898 41.62C141.164 41.2333 140.584 40.6333 140.158 39.82C139.744 39.0067 139.538 37.9667 139.538 36.7C139.538 35.38 139.758 34.3067 140.198 33.48C140.638 32.6533 141.231 32.0467 141.978 31.66C142.738 31.2733 143.598 31.08 144.558 31.08C145.104 31.08 145.631 31.14 146.138 31.26C146.644 31.3667 147.058 31.5 147.378 31.66L146.838 33.12C146.518 33 146.144 32.8867 145.718 32.78C145.291 32.6733 144.891 32.62 144.518 32.62C142.411 32.62 141.358 33.9733 141.358 36.68C141.358 37.9733 141.611 38.9667 142.118 39.66C142.638 40.34 143.404 40.68 144.418 40.68C145.004 40.68 145.518 40.62 145.958 40.5C146.411 40.38 146.824 40.2333 147.198 40.06V41.62C146.838 41.8067 146.438 41.9467 145.998 42.04C145.571 42.1467 145.051 42.2 144.438 42.2ZM159.067 36.62C159.067 38.3933 158.614 39.7667 157.707 40.74C156.814 41.7133 155.6 42.2 154.067 42.2C153.12 42.2 152.274 41.9867 151.527 41.56C150.794 41.12 150.214 40.4867 149.787 39.66C149.36 38.82 149.147 37.8067 149.147 36.62C149.147 34.8467 149.594 33.48 150.487 32.52C151.38 31.56 152.594 31.08 154.127 31.08C155.1 31.08 155.954 31.3 156.687 31.74C157.434 32.1667 158.014 32.7933 158.427 33.62C158.854 34.4333 159.067 35.4333 159.067 36.62ZM150.967 36.62C150.967 37.8867 151.214 38.8933 151.707 39.64C152.214 40.3733 153.014 40.74 154.107 40.74C155.187 40.74 155.98 40.3733 156.487 39.64C156.994 38.8933 157.247 37.8867 157.247 36.62C157.247 35.3533 156.994 34.36 156.487 33.64C155.98 32.92 155.18 32.56 154.087 32.56C152.994 32.56 152.2 32.92 151.707 33.64C151.214 34.36 150.967 35.3533 150.967 36.62ZM171.176 36.62C171.176 38.3933 170.723 39.7667 169.816 40.74C168.923 41.7133 167.71 42.2 166.176 42.2C165.23 42.2 164.383 41.9867 163.636 41.56C162.903 41.12 162.323 40.4867 161.896 39.66C161.47 38.82 161.256 37.8067 161.256 36.62C161.256 34.8467 161.703 33.48 162.596 32.52C163.49 31.56 164.703 31.08 166.236 31.08C167.21 31.08 168.063 31.3 168.796 31.74C169.543 32.1667 170.123 32.7933 170.536 33.62C170.963 34.4333 171.176 35.4333 171.176 36.62ZM163.076 36.62C163.076 37.8867 163.323 38.8933 163.816 39.64C164.323 40.3733 165.123 40.74 166.216 40.74C167.296 40.74 168.09 40.3733 168.596 39.64C169.103 38.8933 169.356 37.8867 169.356 36.62C169.356 35.3533 169.103 34.36 168.596 33.64C168.09 32.92 167.29 32.56 166.196 32.56C165.103 32.56 164.31 32.92 163.816 33.64C163.323 34.36 163.076 35.3533 163.076 36.62ZM173.406 35.56C173.406 33.2133 173.759 31.3867 174.466 30.08C175.172 28.76 176.312 27.9333 177.886 27.6C178.752 27.4133 179.599 27.2467 180.426 27.1C181.252 26.9533 182.026 26.82 182.746 26.7L183.046 28.24C182.579 28.3067 182.052 28.3933 181.466 28.5C180.879 28.5933 180.299 28.6933 179.726 28.8C179.152 28.8933 178.659 28.9867 178.246 29.08C177.379 29.2667 176.692 29.72 176.186 30.44C175.679 31.1467 175.392 32.2533 175.326 33.76H175.446C175.632 33.5067 175.886 33.2467 176.206 32.98C176.539 32.7133 176.932 32.4867 177.386 32.3C177.852 32.1133 178.379 32.02 178.966 32.02C180.352 32.02 181.399 32.4667 182.106 33.36C182.812 34.2533 183.166 35.4133 183.166 36.84C183.166 38.0267 182.959 39.02 182.546 39.82C182.132 40.62 181.559 41.22 180.826 41.62C180.092 42.0067 179.239 42.2 178.266 42.2C176.786 42.2 175.606 41.6333 174.726 40.5C173.846 39.3667 173.406 37.72 173.406 35.56ZM178.406 40.74C179.272 40.74 179.972 40.46 180.506 39.9C181.039 39.34 181.306 38.38 181.306 37.02C181.306 35.9267 181.099 35.0667 180.686 34.44C180.286 33.8 179.619 33.48 178.686 33.48C178.099 33.48 177.566 33.6133 177.086 33.88C176.606 34.1333 176.206 34.4267 175.886 34.76C175.566 35.0933 175.339 35.3733 175.206 35.6C175.206 36.2533 175.252 36.8867 175.346 37.5C175.439 38.1133 175.599 38.6667 175.826 39.16C176.066 39.64 176.392 40.0267 176.806 40.32C177.232 40.6 177.766 40.74 178.406 40.74ZM200.458 31.28V40.54H202.018V45.7H200.258V42H185.938V31.28H187.698V40.52H192.318V31.28H194.078V40.52H198.718V31.28H200.458ZM208.203 31.08C209.123 31.08 209.91 31.28 210.563 31.68C211.23 32.08 211.737 32.6467 212.083 33.38C212.443 34.1 212.623 34.9467 212.623 35.92V36.98H205.283C205.31 38.1933 205.617 39.12 206.203 39.76C206.803 40.3867 207.637 40.7 208.703 40.7C209.383 40.7 209.983 40.64 210.503 40.52C211.037 40.3867 211.583 40.2 212.143 39.96V41.5C211.597 41.74 211.057 41.9133 210.523 42.02C209.99 42.14 209.357 42.2 208.623 42.2C207.61 42.2 206.71 41.9933 205.923 41.58C205.15 41.1667 204.543 40.5533 204.103 39.74C203.677 38.9133 203.463 37.9067 203.463 36.72C203.463 35.5467 203.657 34.54 204.043 33.7C204.443 32.86 204.997 32.2133 205.703 31.76C206.423 31.3067 207.257 31.08 208.203 31.08ZM208.183 32.52C207.343 32.52 206.677 32.7933 206.183 33.34C205.703 33.8733 205.417 34.62 205.323 35.58H210.783C210.77 34.6733 210.557 33.94 210.143 33.38C209.73 32.8067 209.077 32.52 208.183 32.52ZM219.652 42.2C218.706 42.2 217.859 42.0067 217.112 41.62C216.379 41.2333 215.799 40.6333 215.372 39.82C214.959 39.0067 214.752 37.9667 214.752 36.7C214.752 35.38 214.972 34.3067 215.412 33.48C215.852 32.6533 216.446 32.0467 217.192 31.66C217.952 31.2733 218.812 31.08 219.772 31.08C220.319 31.08 220.846 31.14 221.352 31.26C221.859 31.3667 222.272 31.5 222.592 31.66L222.052 33.12C221.732 33 221.359 32.8867 220.932 32.78C220.506 32.6733 220.106 32.62 219.732 32.62C217.626 32.62 216.572 33.9733 216.572 36.68C216.572 37.9733 216.826 38.9667 217.332 39.66C217.852 40.34 218.619 40.68 219.632 40.68C220.219 40.68 220.732 40.62 221.172 40.5C221.626 40.38 222.039 40.2333 222.412 40.06V41.62C222.052 41.8067 221.652 41.9467 221.212 42.04C220.786 42.1467 220.266 42.2 219.652 42.2ZM232.362 32.76H228.862V42H227.122V32.76H223.662V31.28H232.362V32.76ZM243.093 33.98C243.093 34.6467 242.893 35.1667 242.493 35.54C242.093 35.9133 241.58 36.1667 240.953 36.3V36.38C241.62 36.4733 242.2 36.7133 242.693 37.1C243.187 37.4733 243.433 38.06 243.433 38.86C243.433 39.7667 243.093 40.52 242.413 41.12C241.747 41.7067 240.64 42 239.093 42H234.473V31.28H239.073C239.833 31.28 240.513 31.3667 241.113 31.54C241.727 31.7 242.207 31.98 242.553 32.38C242.913 32.7667 243.093 33.3 243.093 33.98ZM241.313 34.2C241.313 33.6933 241.127 33.3267 240.753 33.1C240.393 32.86 239.8 32.74 238.973 32.74H236.233V35.68H238.653C240.427 35.68 241.313 35.1867 241.313 34.2ZM241.613 38.86C241.613 38.2467 241.38 37.8067 240.913 37.54C240.447 37.2733 239.76 37.14 238.853 37.14H236.233V40.58H238.893C239.773 40.58 240.447 40.4533 240.913 40.2C241.38 39.9333 241.613 39.4867 241.613 38.86ZM255.317 36.62C255.317 38.3933 254.864 39.7667 253.957 40.74C253.064 41.7133 251.85 42.2 250.317 42.2C249.37 42.2 248.524 41.9867 247.777 41.56C247.044 41.12 246.464 40.4867 246.037 39.66C245.61 38.82 245.397 37.8067 245.397 36.62C245.397 34.8467 245.844 33.48 246.737 32.52C247.63 31.56 248.844 31.08 250.377 31.08C251.35 31.08 252.204 31.3 252.937 31.74C253.684 32.1667 254.264 32.7933 254.677 33.62C255.104 34.4333 255.317 35.4333 255.317 36.62ZM247.217 36.62C247.217 37.8867 247.464 38.8933 247.957 39.64C248.464 40.3733 249.264 40.74 250.357 40.74C251.437 40.74 252.23 40.3733 252.737 39.64C253.244 38.8933 253.497 37.8867 253.497 36.62C253.497 35.3533 253.244 34.36 252.737 33.64C252.23 32.92 251.43 32.56 250.337 32.56C249.244 32.56 248.45 32.92 247.957 33.64C247.464 34.36 247.217 35.3533 247.217 36.62ZM9.86 68H8.08V58.74H4.92C4.74667 60.9933 4.50667 62.8133 4.2 64.2C3.89333 65.5733 3.48667 66.5733 2.98 67.2C2.47333 67.8267 1.83333 68.14 1.06 68.14C0.886667 68.14 0.713333 68.1267 0.54 68.1C0.38 68.0867 0.246667 68.0533 0.14 68V66.68C0.22 66.7067 0.306667 66.7267 0.4 66.74C0.493333 66.7533 0.586667 66.76 0.68 66.76C1.4 66.76 1.97333 65.9933 2.4 64.46C2.84 62.9267 3.17333 60.5333 3.4 57.28H9.86V68ZM27.1825 62.62C27.1825 64.3933 26.7558 65.7667 25.9025 66.74C25.0492 67.7133 23.8958 68.2 22.4425 68.2C21.0825 68.2 19.9825 67.7733 19.1425 66.92C18.3158 66.0667 17.8492 64.8333 17.7425 63.22H15.0225V68H13.2625V57.28H15.0225V61.74H17.7625C17.9092 60.2333 18.3958 59.08 19.2225 58.28C20.0492 57.48 21.1358 57.08 22.4825 57.08C23.4025 57.08 24.2158 57.3 24.9225 57.74C25.6292 58.1667 26.1825 58.7933 26.5825 59.62C26.9825 60.4333 27.1825 61.4333 27.1825 62.62ZM19.5425 62.62C19.5425 63.9667 19.7758 64.9933 20.2425 65.7C20.7092 66.3933 21.4492 66.74 22.4625 66.74C23.4892 66.74 24.2292 66.3933 24.6825 65.7C25.1358 64.9933 25.3625 63.9667 25.3625 62.62C25.3625 61.2733 25.1292 60.26 24.6625 59.58C24.2092 58.9 23.4758 58.56 22.4625 58.56C21.4492 58.56 20.7092 58.9 20.2425 59.58C19.7758 60.26 19.5425 61.2733 19.5425 62.62ZM37.9413 57.28V66.52H39.5013V71.72H37.8013V68H30.3413V71.72H28.6613V66.52H29.5213C30.4413 65.2533 31.1279 63.8133 31.5813 62.2C32.0479 60.5733 32.2879 58.9333 32.3013 57.28H37.9413ZM33.8613 58.66C33.8079 59.5667 33.6679 60.5067 33.4413 61.48C33.2146 62.44 32.9213 63.36 32.5613 64.24C32.2146 65.12 31.8079 65.88 31.3413 66.52H36.2413V58.66H33.8613ZM45.7423 57.08C46.6623 57.08 47.449 57.28 48.1023 57.68C48.769 58.08 49.2757 58.6467 49.6223 59.38C49.9823 60.1 50.1623 60.9467 50.1623 61.92V62.98H42.8223C42.849 64.1933 43.1557 65.12 43.7423 65.76C44.3423 66.3867 45.1757 66.7 46.2423 66.7C46.9223 66.7 47.5223 66.64 48.0423 66.52C48.5757 66.3867 49.1223 66.2 49.6823 65.96V67.5C49.1357 67.74 48.5957 67.9133 48.0623 68.02C47.529 68.14 46.8957 68.2 46.1623 68.2C45.149 68.2 44.249 67.9933 43.4623 67.58C42.689 67.1667 42.0823 66.5533 41.6423 65.74C41.2157 64.9133 41.0023 63.9067 41.0023 62.72C41.0023 61.5467 41.1957 60.54 41.5823 59.7C41.9823 58.86 42.5357 58.2133 43.2423 57.76C43.9623 57.3067 44.7957 57.08 45.7423 57.08ZM45.7223 58.52C44.8823 58.52 44.2157 58.7933 43.7223 59.34C43.2423 59.8733 42.9557 60.62 42.8623 61.58H48.3223C48.309 60.6733 48.0957 59.94 47.6823 59.38C47.269 58.8067 46.6157 58.52 45.7223 58.52ZM61.5714 52.84C61.4781 53.84 61.1381 54.6 60.5514 55.12C59.9781 55.6267 59.0581 55.88 57.7914 55.88C56.4847 55.88 55.5581 55.6267 55.0114 55.12C54.4781 54.6133 54.1781 53.8533 54.1114 52.84H55.7514C55.8181 53.56 56.0047 54.0467 56.3114 54.3C56.6314 54.54 57.1381 54.66 57.8314 54.66C58.4447 54.66 58.9247 54.5333 59.2714 54.28C59.6314 54.0133 59.8447 53.5333 59.9114 52.84H61.5714ZM54.5514 63.82C54.5514 63.98 54.5447 64.22 54.5314 64.54C54.5181 64.86 54.4981 65.18 54.4714 65.5C54.4581 65.82 54.4447 66.0733 54.4314 66.26L60.1714 57.28H62.3314V68H60.6914V61.68C60.6914 61.4667 60.6914 61.1867 60.6914 60.84C60.7047 60.4933 60.7181 60.1533 60.7314 59.82C60.7447 59.4733 60.7581 59.2133 60.7714 59.04L55.0714 68H52.8914V57.28H54.5514V63.82ZM65.563 71.06L67.203 65.42H69.323L66.723 71.06H65.563ZM84.0017 57.28V58.76H79.2217V68H77.4617V57.28H84.0017ZM93.4686 57.28V66.52H95.0286V71.72H93.3286V68H85.8686V71.72H84.1886V66.52H85.0486C85.9686 65.2533 86.6553 63.8133 87.1086 62.2C87.5753 60.5733 87.8153 58.9333 87.8286 57.28H93.4686ZM89.3886 58.66C89.3353 59.5667 89.1953 60.5067 88.9686 61.48C88.7419 62.44 88.4486 63.36 88.0886 64.24C87.7419 65.12 87.3353 65.88 86.8686 66.52H91.7686V58.66H89.3886ZM101.27 57.08C102.19 57.08 102.976 57.28 103.63 57.68C104.296 58.08 104.803 58.6467 105.15 59.38C105.51 60.1 105.69 60.9467 105.69 61.92V62.98H98.3497C98.3764 64.1933 98.683 65.12 99.2697 65.76C99.8697 66.3867 100.703 66.7 101.77 66.7C102.45 66.7 103.05 66.64 103.57 66.52C104.103 66.3867 104.65 66.2 105.21 65.96V67.5C104.663 67.74 104.123 67.9133 103.59 68.02C103.056 68.14 102.423 68.2 101.69 68.2C100.676 68.2 99.7764 67.9933 98.9897 67.58C98.2164 67.1667 97.6097 66.5533 97.1697 65.74C96.743 64.9133 96.5297 63.9067 96.5297 62.72C96.5297 61.5467 96.723 60.54 97.1097 59.7C97.5097 58.86 98.063 58.2133 98.7697 57.76C99.4897 57.3067 100.323 57.08 101.27 57.08ZM101.25 58.52C100.41 58.52 99.743 58.7933 99.2497 59.34C98.7697 59.8733 98.483 60.62 98.3897 61.58H103.85C103.836 60.6733 103.623 59.94 103.21 59.38C102.796 58.8067 102.143 58.52 101.25 58.52ZM115.433 57.28V61.74H121.253V57.28H123.013V68H121.253V63.22H115.433V68H113.673V57.28H115.433ZM128.067 63.82C128.067 63.98 128.06 64.22 128.047 64.54C128.034 64.86 128.014 65.18 127.987 65.5C127.974 65.82 127.96 66.0733 127.947 66.26L133.687 57.28H135.847V68H134.207V61.68C134.207 61.4667 134.207 61.1867 134.207 60.84C134.22 60.4933 134.234 60.1533 134.247 59.82C134.26 59.4733 134.274 59.2133 134.287 59.04L128.587 68H126.407V57.28H128.067V63.82ZM145.599 57.28H147.519L142.939 62.44L147.899 68H145.859L141.019 62.56V68H139.259V57.28H141.019V62.48L145.599 57.28ZM157.245 58.76H153.745V68H152.005V58.76H148.545V57.28H157.245V58.76ZM168.481 62.62C168.481 64.3933 168.028 65.7667 167.121 66.74C166.228 67.7133 165.014 68.2 163.481 68.2C162.534 68.2 161.688 67.9867 160.941 67.56C160.208 67.12 159.628 66.4867 159.201 65.66C158.774 64.82 158.561 63.8067 158.561 62.62C158.561 60.8467 159.008 59.48 159.901 58.52C160.794 57.56 162.008 57.08 163.541 57.08C164.514 57.08 165.368 57.3 166.101 57.74C166.848 58.1667 167.428 58.7933 167.841 59.62C168.268 60.4333 168.481 61.4333 168.481 62.62ZM160.381 62.62C160.381 63.8867 160.628 64.8933 161.121 65.64C161.628 66.3733 162.428 66.74 163.521 66.74C164.601 66.74 165.394 66.3733 165.901 65.64C166.408 64.8933 166.661 63.8867 166.661 62.62C166.661 61.3533 166.408 60.36 165.901 59.64C165.394 58.92 164.594 58.56 163.501 58.56C162.408 58.56 161.614 58.92 161.121 59.64C160.628 60.36 160.381 61.3533 160.381 62.62ZM178.284 57.28V61.74H184.104V57.28H185.864V68H184.104V63.22H178.284V68H176.524V57.28H178.284ZM193.399 57.08C194.319 57.08 195.105 57.28 195.759 57.68C196.425 58.08 196.932 58.6467 197.279 59.38C197.639 60.1 197.819 60.9467 197.819 61.92V62.98H190.479C190.505 64.1933 190.812 65.12 191.399 65.76C191.999 66.3867 192.832 66.7 193.899 66.7C194.579 66.7 195.179 66.64 195.699 66.52C196.232 66.3867 196.779 66.2 197.339 65.96V67.5C196.792 67.74 196.252 67.9133 195.719 68.02C195.185 68.14 194.552 68.2 193.819 68.2C192.805 68.2 191.905 67.9933 191.119 67.58C190.345 67.1667 189.739 66.5533 189.299 65.74C188.872 64.9133 188.659 63.9067 188.659 62.72C188.659 61.5467 188.852 60.54 189.239 59.7C189.639 58.86 190.192 58.2133 190.899 57.76C191.619 57.3067 192.452 57.08 193.399 57.08ZM193.379 58.52C192.539 58.52 191.872 58.7933 191.379 59.34C190.899 59.8733 190.612 60.62 190.519 61.58H195.979C195.965 60.6733 195.752 59.94 195.339 59.38C194.925 58.8067 194.272 58.52 193.379 58.52ZM214.422 59.98C214.422 60.6467 214.222 61.1667 213.822 61.54C213.422 61.9133 212.908 62.1667 212.282 62.3V62.38C212.948 62.4733 213.528 62.7133 214.022 63.1C214.515 63.4733 214.762 64.06 214.762 64.86C214.762 65.7667 214.422 66.52 213.742 67.12C213.075 67.7067 211.968 68 210.422 68H205.802V57.28H210.402C211.162 57.28 211.842 57.3667 212.442 57.54C213.055 57.7 213.535 57.98 213.882 58.38C214.242 58.7667 214.422 59.3 214.422 59.98ZM212.642 60.2C212.642 59.6933 212.455 59.3267 212.082 59.1C211.722 58.86 211.128 58.74 210.302 58.74H207.562V61.68H209.982C211.755 61.68 212.642 61.1867 212.642 60.2ZM212.942 64.86C212.942 64.2467 212.708 63.8067 212.242 63.54C211.775 63.2733 211.088 63.14 210.182 63.14H207.562V66.58H210.222C211.102 66.58 211.775 66.4533 212.242 66.2C212.708 65.9333 212.942 65.4867 212.942 64.86ZM221.465 57.08C222.385 57.08 223.172 57.28 223.825 57.68C224.492 58.08 224.998 58.6467 225.345 59.38C225.705 60.1 225.885 60.9467 225.885 61.92V62.98H218.545C218.572 64.1933 218.878 65.12 219.465 65.76C220.065 66.3867 220.898 66.7 221.965 66.7C222.645 66.7 223.245 66.64 223.765 66.52C224.298 66.3867 224.845 66.2 225.405 65.96V67.5C224.858 67.74 224.318 67.9133 223.785 68.02C223.252 68.14 222.618 68.2 221.885 68.2C220.872 68.2 219.972 67.9933 219.185 67.58C218.412 67.1667 217.805 66.5533 217.365 65.74C216.938 64.9133 216.725 63.9067 216.725 62.72C216.725 61.5467 216.918 60.54 217.305 59.7C217.705 58.86 218.258 58.2133 218.965 57.76C219.685 57.3067 220.518 57.08 221.465 57.08ZM221.445 58.52C220.605 58.52 219.938 58.7933 219.445 59.34C218.965 59.8733 218.678 60.62 218.585 61.58H224.045C224.032 60.6733 223.818 59.94 223.405 59.38C222.992 58.8067 222.338 58.52 221.445 58.52ZM236.574 57.28V66.52H238.134V71.72H236.434V68H228.974V71.72H227.294V66.52H228.154C229.074 65.2533 229.761 63.8133 230.214 62.2C230.681 60.5733 230.921 58.9333 230.934 57.28H236.574ZM232.494 58.66C232.441 59.5667 232.301 60.5067 232.074 61.48C231.847 62.44 231.554 63.36 231.194 64.24C230.847 65.12 230.441 65.88 229.974 66.52H234.874V58.66H232.494ZM244.375 57.08C245.295 57.08 246.082 57.28 246.735 57.68C247.402 58.08 247.908 58.6467 248.255 59.38C248.615 60.1 248.795 60.9467 248.795 61.92V62.98H241.455C241.482 64.1933 241.788 65.12 242.375 65.76C242.975 66.3867 243.808 66.7 244.875 66.7C245.555 66.7 246.155 66.64 246.675 66.52C247.208 66.3867 247.755 66.2 248.315 65.96V67.5C247.768 67.74 247.228 67.9133 246.695 68.02C246.162 68.14 245.528 68.2 244.795 68.2C243.782 68.2 242.882 67.9933 242.095 67.58C241.322 67.1667 240.715 66.5533 240.275 65.74C239.848 64.9133 239.635 63.9067 239.635 62.72C239.635 61.5467 239.828 60.54 240.215 59.7C240.615 58.86 241.168 58.2133 241.875 57.76C242.595 57.3067 243.428 57.08 244.375 57.08ZM244.355 58.52C243.515 58.52 242.848 58.7933 242.355 59.34C241.875 59.8733 241.588 60.62 241.495 61.58H246.955C246.942 60.6733 246.728 59.94 246.315 59.38C245.902 58.8067 245.248 58.52 244.355 58.52ZM258.924 58.76H255.424V68H253.684V58.76H250.224V57.28H258.924V58.76ZM6 94.2C5.05333 94.2 4.20667 94.0067 3.46 93.62C2.72667 93.2333 2.14667 92.6333 1.72 91.82C1.30667 91.0067 1.1 89.9667 1.1 88.7C1.1 87.38 1.32 86.3067 1.76 85.48C2.2 84.6533 2.79333 84.0467 3.54 83.66C4.3 83.2733 5.16 83.08 6.12 83.08C6.66667 83.08 7.19333 83.14 7.7 83.26C8.20667 83.3667 8.62 83.5 8.94 83.66L8.4 85.12C8.08 85 7.70667 84.8867 7.28 84.78C6.85333 84.6733 6.45333 84.62 6.08 84.62C3.97333 84.62 2.92 85.9733 2.92 88.68C2.92 89.9733 3.17333 90.9667 3.68 91.66C4.2 92.34 4.96667 92.68 5.98 92.68C6.56667 92.68 7.08 92.62 7.52 92.5C7.97333 92.38 8.38667 92.2333 8.76 92.06V93.62C8.4 93.8067 8 93.9467 7.56 94.04C7.13333 94.1467 6.61333 94.2 6 94.2ZM15.4494 83.08C16.3694 83.08 17.156 83.28 17.8094 83.68C18.476 84.08 18.9827 84.6467 19.3294 85.38C19.6894 86.1 19.8694 86.9467 19.8694 87.92V88.98H12.5294C12.556 90.1933 12.8627 91.12 13.4494 91.76C14.0494 92.3867 14.8827 92.7 15.9494 92.7C16.6294 92.7 17.2294 92.64 17.7494 92.52C18.2827 92.3867 18.8294 92.2 19.3894 91.96V93.5C18.8427 93.74 18.3027 93.9133 17.7694 94.02C17.236 94.14 16.6027 94.2 15.8694 94.2C14.856 94.2 13.956 93.9933 13.1694 93.58C12.396 93.1667 11.7894 92.5533 11.3494 91.74C10.9227 90.9133 10.7094 89.9067 10.7094 88.72C10.7094 87.5467 10.9027 86.54 11.2894 85.7C11.6894 84.86 12.2427 84.2133 12.9494 83.76C13.6694 83.3067 14.5027 83.08 15.4494 83.08ZM15.4294 84.52C14.5894 84.52 13.9227 84.7933 13.4294 85.34C12.9494 85.8733 12.6627 86.62 12.5694 87.58H18.0294C18.016 86.6733 17.8027 85.94 17.3894 85.38C16.976 84.8067 16.3227 84.52 15.4294 84.52ZM22.0384 87.56C22.0384 85.2133 22.3918 83.3867 23.0984 82.08C23.8051 80.76 24.9451 79.9333 26.5184 79.6C27.3851 79.4133 28.2318 79.2467 29.0584 79.1C29.8851 78.9533 30.6584 78.82 31.3784 78.7L31.6784 80.24C31.2118 80.3067 30.6851 80.3933 30.0984 80.5C29.5118 80.5933 28.9318 80.6933 28.3584 80.8C27.7851 80.8933 27.2918 80.9867 26.8784 81.08C26.0118 81.2667 25.3251 81.72 24.8184 82.44C24.3118 83.1467 24.0251 84.2533 23.9584 85.76H24.0784C24.2651 85.5067 24.5184 85.2467 24.8384 84.98C25.1718 84.7133 25.5651 84.4867 26.0184 84.3C26.4851 84.1133 27.0118 84.02 27.5984 84.02C28.9851 84.02 30.0318 84.4667 30.7384 85.36C31.4451 86.2533 31.7984 87.4133 31.7984 88.84C31.7984 90.0267 31.5918 91.02 31.1784 91.82C30.7651 92.62 30.1918 93.22 29.4584 93.62C28.7251 94.0067 27.8718 94.2 26.8984 94.2C25.4184 94.2 24.2384 93.6333 23.3584 92.5C22.4784 91.3667 22.0384 89.72 22.0384 87.56ZM27.0384 92.74C27.9051 92.74 28.6051 92.46 29.1384 91.9C29.6718 91.34 29.9384 90.38 29.9384 89.02C29.9384 87.9267 29.7318 87.0667 29.3184 86.44C28.9184 85.8 28.2518 85.48 27.3184 85.48C26.7318 85.48 26.1984 85.6133 25.7184 85.88C25.2384 86.1333 24.8384 86.4267 24.5184 86.76C24.1984 87.0933 23.9718 87.3733 23.8384 87.6C23.8384 88.2533 23.8851 88.8867 23.9784 89.5C24.0718 90.1133 24.2318 90.6667 24.4584 91.16C24.6984 91.64 25.0251 92.0267 25.4384 92.32C25.8651 92.6 26.3984 92.74 27.0384 92.74ZM35.2311 94H33.1911L36.2511 89.5C35.8378 89.3933 35.4378 89.2267 35.0511 89C34.6644 88.76 34.3511 88.4333 34.1111 88.02C33.8711 87.5933 33.7511 87.0667 33.7511 86.44C33.7511 85.4133 34.0978 84.6333 34.7911 84.1C35.4844 83.5533 36.4044 83.28 37.5511 83.28H42.3511V94H40.5911V89.74H37.9911L35.2311 94ZM35.4511 86.46C35.4511 87.0733 35.6778 87.5333 36.1311 87.84C36.5978 88.1333 37.2444 88.28 38.0711 88.28H40.5911V84.74H37.7311C36.9178 84.74 36.3311 84.9 35.9711 85.22C35.6244 85.54 35.4511 85.9533 35.4511 86.46ZM59.6169 85.98C59.6169 86.6467 59.4169 87.1667 59.0169 87.54C58.6169 87.9133 58.1035 88.1667 57.4769 88.3V88.38C58.1435 88.4733 58.7235 88.7133 59.2169 89.1C59.7102 89.4733 59.9569 90.06 59.9569 90.86C59.9569 91.7667 59.6169 92.52 58.9369 93.12C58.2702 93.7067 57.1635 94 55.6169 94H50.9969V83.28H55.5969C56.3569 83.28 57.0369 83.3667 57.6369 83.54C58.2502 83.7 58.7302 83.98 59.0769 84.38C59.4369 84.7667 59.6169 85.3 59.6169 85.98ZM57.8369 86.2C57.8369 85.6933 57.6502 85.3267 57.2769 85.1C56.9169 84.86 56.3235 84.74 55.4969 84.74H52.7569V87.68H55.1769C56.9502 87.68 57.8369 87.1867 57.8369 86.2ZM58.1369 90.86C58.1369 90.2467 57.9035 89.8067 57.4369 89.54C56.9702 89.2733 56.2835 89.14 55.3769 89.14H52.7569V92.58H55.4169C56.2969 92.58 56.9702 92.4533 57.4369 92.2C57.9035 91.9333 58.1369 91.4867 58.1369 90.86ZM62.5203 94V83.28H64.2803V87.68H67.0603C68.447 87.68 69.4736 87.9333 70.1403 88.44C70.807 88.9467 71.1403 89.7067 71.1403 90.72C71.1403 91.72 70.8136 92.52 70.1603 93.12C69.507 93.7067 68.447 94 66.9803 94H62.5203ZM72.9203 94V83.28H74.6803V94H72.9203ZM66.8203 92.58C67.5803 92.58 68.2003 92.4533 68.6803 92.2C69.1603 91.9333 69.4003 91.4733 69.4003 90.82C69.4003 90.1667 69.1803 89.7267 68.7403 89.5C68.3003 89.26 67.667 89.14 66.8403 89.14H64.2803V92.58H66.8203ZM80.9067 83.08C82.1334 83.08 83.1067 83.3267 83.8267 83.82C84.5601 84.3 84.9267 84.9933 84.9267 85.9C84.9267 86.5533 84.7467 87.0733 84.3867 87.46C84.0267 87.8333 83.5334 88.1067 82.9067 88.28V88.36C83.3334 88.48 83.7267 88.6467 84.0867 88.86C84.4467 89.0733 84.7334 89.3533 84.9467 89.7C85.1734 90.0467 85.2867 90.4933 85.2867 91.04C85.2867 91.9333 84.9134 92.6867 84.1667 93.3C83.4334 93.9 82.2801 94.2 80.7067 94.2C79.9334 94.2 79.2334 94.1333 78.6067 94C77.9801 93.88 77.4601 93.7133 77.0467 93.5V91.92C77.5001 92.1333 78.0334 92.3267 78.6467 92.5C79.2734 92.6733 79.9534 92.76 80.6867 92.76C81.4867 92.76 82.1601 92.6267 82.7067 92.36C83.2667 92.08 83.5467 91.6067 83.5467 90.94C83.5467 89.74 82.5267 89.14 80.4867 89.14H79.0467V87.7H80.2067C81.1267 87.7 81.8601 87.58 82.4067 87.34C82.9667 87.0867 83.2467 86.66 83.2467 86.06C83.2467 85.5533 83.0334 85.1733 82.6067 84.92C82.1934 84.6667 81.5934 84.54 80.8067 84.54C80.2201 84.54 79.7001 84.6 79.2467 84.72C78.8067 84.8267 78.3201 84.9933 77.7867 85.22L77.1667 83.82C78.2867 83.3267 79.5334 83.08 80.9067 83.08ZM87.8914 94V83.28H89.6514V87.68H92.4314C93.8181 87.68 94.8447 87.9333 95.5114 88.44C96.1781 88.9467 96.5114 89.7067 96.5114 90.72C96.5114 91.72 96.1847 92.52 95.5314 93.12C94.8781 93.7067 93.8181 94 92.3514 94H87.8914ZM98.2914 94V83.28H100.051V94H98.2914ZM92.1914 92.58C92.9514 92.58 93.5714 92.4533 94.0514 92.2C94.5314 91.9333 94.7714 91.4733 94.7714 90.82C94.7714 90.1667 94.5514 89.7267 94.1114 89.5C93.6714 89.26 93.0381 89.14 92.2114 89.14H89.6514V92.58H92.1914ZM112.078 85.98C112.078 86.6467 111.878 87.1667 111.478 87.54C111.078 87.9133 110.564 88.1667 109.938 88.3V88.38C110.604 88.4733 111.184 88.7133 111.678 89.1C112.171 89.4733 112.418 90.06 112.418 90.86C112.418 91.7667 112.078 92.52 111.398 93.12C110.731 93.7067 109.624 94 108.078 94H103.458V83.28H108.058C108.818 83.28 109.498 83.3667 110.098 83.54C110.711 83.7 111.191 83.98 111.538 84.38C111.898 84.7667 112.078 85.3 112.078 85.98ZM110.298 86.2C110.298 85.6933 110.111 85.3267 109.738 85.1C109.378 84.86 108.784 84.74 107.958 84.74H105.218V87.68H107.638C109.411 87.68 110.298 87.1867 110.298 86.2ZM110.598 90.86C110.598 90.2467 110.364 89.8067 109.898 89.54C109.431 89.2733 108.744 89.14 107.838 89.14H105.218V92.58H107.878C108.758 92.58 109.431 92.4533 109.898 92.2C110.364 91.9333 110.598 91.4867 110.598 90.86ZM119.041 83.1C120.348 83.1 121.315 83.3867 121.941 83.96C122.568 84.5333 122.881 85.4467 122.881 86.7V94H121.601L121.261 92.48H121.181C120.715 93.0667 120.221 93.5 119.701 93.78C119.195 94.06 118.488 94.2 117.581 94.2C116.608 94.2 115.801 93.9467 115.161 93.44C114.521 92.92 114.201 92.1133 114.201 91.02C114.201 89.9533 114.621 89.1333 115.461 88.56C116.301 87.9733 117.595 87.6533 119.341 87.6L121.161 87.54V86.9C121.161 86.0067 120.968 85.3867 120.581 85.04C120.195 84.6933 119.648 84.52 118.941 84.52C118.381 84.52 117.848 84.6067 117.341 84.78C116.835 84.94 116.361 85.1267 115.921 85.34L115.381 84.02C115.848 83.7667 116.401 83.5533 117.041 83.38C117.681 83.1933 118.348 83.1 119.041 83.1ZM119.561 88.82C118.228 88.8733 117.301 89.0867 116.781 89.46C116.275 89.8333 116.021 90.36 116.021 91.04C116.021 91.64 116.201 92.08 116.561 92.36C116.935 92.64 117.408 92.78 117.981 92.78C118.888 92.78 119.641 92.5333 120.241 92.04C120.841 91.5333 121.141 90.76 121.141 89.72V88.76L119.561 88.82ZM140.112 88.62C140.112 90.3933 139.686 91.7667 138.832 92.74C137.979 93.7133 136.826 94.2 135.372 94.2C134.012 94.2 132.912 93.7733 132.072 92.92C131.246 92.0667 130.779 90.8333 130.672 89.22H127.952V94H126.192V83.28H127.952V87.74H130.692C130.839 86.2333 131.326 85.08 132.152 84.28C132.979 83.48 134.066 83.08 135.412 83.08C136.332 83.08 137.146 83.3 137.852 83.74C138.559 84.1667 139.112 84.7933 139.512 85.62C139.912 86.4333 140.112 87.4333 140.112 88.62ZM132.472 88.62C132.472 89.9667 132.706 90.9933 133.172 91.7C133.639 92.3933 134.379 92.74 135.392 92.74C136.419 92.74 137.159 92.3933 137.612 91.7C138.066 90.9933 138.292 89.9667 138.292 88.62C138.292 87.2733 138.059 86.26 137.592 85.58C137.139 84.9 136.406 84.56 135.392 84.56C134.379 84.56 133.639 84.9 133.172 85.58C132.706 86.26 132.472 87.2733 132.472 88.62ZM157.431 83.28V92.54H158.991V97.7H157.231V94H142.911V83.28H144.671V92.52H149.291V83.28H151.051V92.52H155.691V83.28H157.431ZM165.176 83.08C166.096 83.08 166.883 83.28 167.536 83.68C168.203 84.08 168.709 84.6467 169.056 85.38C169.416 86.1 169.596 86.9467 169.596 87.92V88.98H162.256C162.283 90.1933 162.589 91.12 163.176 91.76C163.776 92.3867 164.609 92.7 165.676 92.7C166.356 92.7 166.956 92.64 167.476 92.52C168.009 92.3867 168.556 92.2 169.116 91.96V93.5C168.569 93.74 168.029 93.9133 167.496 94.02C166.963 94.14 166.329 94.2 165.596 94.2C164.583 94.2 163.683 93.9933 162.896 93.58C162.123 93.1667 161.516 92.5533 161.076 91.74C160.649 90.9133 160.436 89.9067 160.436 88.72C160.436 87.5467 160.629 86.54 161.016 85.7C161.416 84.86 161.969 84.2133 162.676 83.76C163.396 83.3067 164.229 83.08 165.176 83.08ZM165.156 84.52C164.316 84.52 163.649 84.7933 163.156 85.34C162.676 85.8733 162.389 86.62 162.296 87.58H167.756C167.743 86.6733 167.529 85.94 167.116 85.38C166.703 84.8067 166.049 84.52 165.156 84.52ZM172.945 94V91.66H174.945V94H172.945Z" fill="#FCF7F2"/>
</svg>
