<svg width="269" height="58" viewBox="0 0 269 58" fill="none" xmlns="http://www.w3.org/2000/svg">
<path d="M0.168 13L4.824 6.952L2.792 1.576H4.232L5.784 5.944L9.176 1.576H10.744L6.424 7.016L8.584 13H7.08L5.448 8.056L1.736 13H0.168ZM13.4055 13.128C12.4135 13.128 11.6295 12.8347 11.0535 12.248C10.4882 11.6507 10.2055 10.8453 10.2055 9.832C10.2055 9.17067 10.2962 8.51467 10.4775 7.864C10.6588 7.21333 10.9255 6.62133 11.2775 6.088C11.6402 5.55467 12.0882 5.128 12.6215 4.808C13.1655 4.47733 13.7895 4.312 14.4935 4.312C15.4962 4.312 16.2802 4.61067 16.8455 5.208C17.4108 5.79467 17.6935 6.6 17.6935 7.624C17.6935 8.27467 17.6028 8.92533 17.4215 9.576C17.2402 10.2267 16.9682 10.8187 16.6055 11.352C16.2535 11.8853 15.8108 12.3173 15.2775 12.648C14.7442 12.968 14.1202 13.128 13.4055 13.128ZM13.4855 11.96C13.9975 11.96 14.4615 11.784 14.8775 11.432C15.2935 11.0693 15.6242 10.552 15.8695 9.88C16.1255 9.208 16.2535 8.40267 16.2535 7.464C16.2535 7.144 16.1948 6.83467 16.0775 6.536C15.9708 6.22667 15.7895 5.976 15.5335 5.784C15.2775 5.58133 14.9362 5.48 14.5095 5.48C13.9228 5.48 13.4108 5.68267 12.9735 6.088C12.5468 6.48267 12.2162 7.016 11.9815 7.688C11.7468 8.34933 11.6295 9.08 11.6295 9.88C11.6295 10.5413 11.7895 11.0533 12.1095 11.416C12.4402 11.7787 12.8988 11.96 13.4855 11.96ZM18.1011 16.84L20.7251 4.424H21.8771L21.6851 6.024H21.7491C22.1225 5.55467 22.5438 5.14933 23.0131 4.808C23.4825 4.456 24.0158 4.28 24.6131 4.28C25.3065 4.28 25.8665 4.52533 26.2931 5.016C26.7198 5.50667 26.9331 6.23733 26.9331 7.208C26.9331 7.98667 26.8371 8.73333 26.6451 9.448C26.4531 10.1627 26.1758 10.8027 25.8131 11.368C25.4505 11.9227 25.0078 12.36 24.4851 12.68C23.9731 13 23.3971 13.16 22.7571 13.16C22.1811 13.16 21.7171 13.016 21.3651 12.728C21.0131 12.4293 20.7465 12.0827 20.5651 11.688H20.4851C20.4745 11.8587 20.4478 12.0987 20.4051 12.408C20.3625 12.7067 20.3198 12.952 20.2771 13.144L19.4931 16.84H18.1011ZM22.6451 11.992C23.0718 11.992 23.4611 11.8587 23.8131 11.592C24.1651 11.3147 24.4638 10.9467 24.7091 10.488C24.9651 10.0293 25.1571 9.512 25.2851 8.936C25.4238 8.36 25.4931 7.77333 25.4931 7.176C25.4931 6.024 25.0398 5.448 24.1331 5.448C23.7811 5.448 23.4185 5.58133 23.0451 5.848C22.6825 6.104 22.3465 6.456 22.0371 6.904C21.7278 7.352 21.4771 7.864 21.2851 8.44C21.1038 9.016 21.0131 9.624 21.0131 10.264C21.0131 10.776 21.1465 11.192 21.4131 11.512C21.6798 11.832 22.0905 11.992 22.6451 11.992ZM31.6868 13.128C30.6948 13.128 29.9108 12.8347 29.3348 12.248C28.7694 11.6507 28.4868 10.8453 28.4868 9.832C28.4868 9.17067 28.5774 8.51467 28.7588 7.864C28.9401 7.21333 29.2068 6.62133 29.5588 6.088C29.9214 5.55467 30.3694 5.128 30.9028 4.808C31.4468 4.47733 32.0708 4.312 32.7748 4.312C33.7774 4.312 34.5614 4.61067 35.1268 5.208C35.6921 5.79467 35.9748 6.6 35.9748 7.624C35.9748 8.27467 35.8841 8.92533 35.7028 9.576C35.5214 10.2267 35.2494 10.8187 34.8868 11.352C34.5348 11.8853 34.0921 12.3173 33.5588 12.648C33.0254 12.968 32.4014 13.128 31.6868 13.128ZM31.7668 11.96C32.2788 11.96 32.7428 11.784 33.1588 11.432C33.5748 11.0693 33.9054 10.552 34.1508 9.88C34.4068 9.208 34.5348 8.40267 34.5348 7.464C34.5348 7.144 34.4761 6.83467 34.3588 6.536C34.2521 6.22667 34.0708 5.976 33.8148 5.784C33.5588 5.58133 33.2174 5.48 32.7908 5.48C32.2041 5.48 31.6921 5.68267 31.2548 6.088C30.8281 6.48267 30.4974 7.016 30.2628 7.688C30.0281 8.34933 29.9108 9.08 29.9108 9.88C29.9108 10.5413 30.0708 11.0533 30.3908 11.416C30.7214 11.7787 31.1801 11.96 31.7668 11.96ZM39.6944 13.16C39.033 13.16 38.521 12.9787 38.1584 12.616C37.7957 12.2533 37.6144 11.7307 37.6144 11.048C37.6144 10.792 37.6304 10.552 37.6624 10.328C37.705 10.104 37.7477 9.87467 37.7904 9.64L38.8944 4.424H40.3184L39.1824 9.8C39.1397 10.0347 39.1024 10.2427 39.0704 10.424C39.0384 10.5947 39.0224 10.76 39.0224 10.92C39.0224 11.24 39.1077 11.496 39.2784 11.688C39.4597 11.88 39.737 11.976 40.1104 11.976C40.4624 11.976 40.8304 11.848 41.2144 11.592C41.5984 11.336 41.9557 10.936 42.2864 10.392C42.6277 9.848 42.889 9.14933 43.0704 8.296L43.9024 4.424H45.3104L44.1584 9.8C44.0624 10.28 44.0144 10.632 44.0144 10.856C44.0144 11.208 44.0944 11.4853 44.2544 11.688C44.4144 11.88 44.681 11.976 45.0544 11.976C45.4064 11.976 45.7797 11.8533 46.1744 11.608C46.569 11.352 46.937 10.9413 47.2784 10.376C47.6197 9.81067 47.8864 9.05867 48.0784 8.12L48.8624 4.424H50.2704L48.4464 13H47.2944L47.4704 11.416H47.3904C47.1984 11.672 46.969 11.9387 46.7024 12.216C46.4464 12.4827 46.1477 12.7067 45.8064 12.888C45.465 13.0693 45.0757 13.16 44.6384 13.16C44.0517 13.16 43.5984 12.9893 43.2784 12.648C42.9584 12.3067 42.7664 11.8427 42.7024 11.256H42.6384C42.425 11.5653 42.1744 11.8693 41.8864 12.168C41.5984 12.456 41.2677 12.696 40.8944 12.888C40.5317 13.0693 40.1317 13.16 39.6944 13.16ZM53.7584 13.16C53.1077 13.16 52.585 12.9787 52.1904 12.616C51.8064 12.2533 51.6144 11.7253 51.6144 11.032C51.6144 10.7867 51.6304 10.5573 51.6624 10.344C51.705 10.12 51.7477 9.89067 51.7904 9.656L52.9104 4.424H54.3344L53.1824 9.816C53.0864 10.2747 53.0384 10.632 53.0384 10.888C53.0384 11.2293 53.1237 11.5013 53.2944 11.704C53.4757 11.896 53.7637 11.992 54.1584 11.992C54.521 11.992 54.9104 11.864 55.3264 11.608C55.753 11.352 56.1477 10.9413 56.5104 10.376C56.873 9.81067 57.1557 9.05867 57.3584 8.12L58.1424 4.424H59.5344L57.7104 13H56.5584L56.7344 11.416H56.6544C56.4517 11.672 56.2117 11.9387 55.9344 12.216C55.6677 12.4827 55.353 12.7067 54.9904 12.888C54.6384 13.0693 54.2277 13.16 53.7584 13.16ZM65.76 3.304C64.8533 3.304 64.2027 3.128 63.808 2.776C63.424 2.41333 63.232 1.944 63.232 1.368C63.232 1.16533 63.2533 0.989333 63.296 0.839999H64.528C64.496 1.01067 64.48 1.16 64.48 1.288C64.48 1.58667 64.5813 1.832 64.784 2.024C64.9973 2.20533 65.3493 2.296 65.84 2.296C66.3413 2.296 66.752 2.2 67.072 2.008C67.4027 1.80533 67.6213 1.416 67.728 0.839999H69.072C68.9333 1.58667 68.6027 2.184 68.08 2.632C67.568 3.08 66.7947 3.304 65.76 3.304ZM63.024 13.16C62.3733 13.16 61.8507 12.9787 61.456 12.616C61.072 12.2533 60.88 11.7253 60.88 11.032C60.88 10.7867 60.896 10.5573 60.928 10.344C60.9707 10.12 61.0133 9.89067 61.056 9.656L62.176 4.424H63.6L62.448 9.816C62.352 10.2747 62.304 10.632 62.304 10.888C62.304 11.2293 62.3893 11.5013 62.56 11.704C62.7413 11.896 63.0293 11.992 63.424 11.992C63.7867 11.992 64.176 11.864 64.592 11.608C65.0187 11.352 65.4133 10.9413 65.776 10.376C66.1387 9.81067 66.4213 9.05867 66.624 8.12L67.408 4.424H68.8L66.976 13H65.824L66 11.416H65.92C65.7173 11.672 65.4773 11.9387 65.2 12.216C64.9333 12.4827 64.6187 12.7067 64.256 12.888C63.904 13.0693 63.4933 13.16 63.024 13.16ZM76.4288 13.16C75.7674 13.16 75.2554 12.9787 74.8928 12.616C74.5301 12.2533 74.3488 11.7307 74.3488 11.048C74.3488 10.792 74.3648 10.552 74.3968 10.328C74.4394 10.104 74.4821 9.87467 74.5247 9.64L75.6288 4.424H77.0528L75.9168 9.8C75.8741 10.0347 75.8368 10.2427 75.8048 10.424C75.7728 10.5947 75.7568 10.76 75.7568 10.92C75.7568 11.24 75.8421 11.496 76.0128 11.688C76.1941 11.88 76.4714 11.976 76.8448 11.976C77.1968 11.976 77.5648 11.848 77.9488 11.592C78.3328 11.336 78.6901 10.936 79.0208 10.392C79.3621 9.848 79.6234 9.14933 79.8048 8.296L80.6368 4.424H82.0448L80.8928 9.8C80.7968 10.28 80.7488 10.632 80.7488 10.856C80.7488 11.208 80.8288 11.4853 80.9888 11.688C81.1488 11.88 81.4154 11.976 81.7888 11.976C82.1408 11.976 82.5141 11.8533 82.9088 11.608C83.3034 11.352 83.6714 10.9413 84.0128 10.376C84.3541 9.81067 84.6208 9.05867 84.8128 8.12L85.5968 4.424H87.0048L85.1808 13H84.0288L84.2048 11.416H84.1248C83.9328 11.672 83.7034 11.9387 83.4368 12.216C83.1808 12.4827 82.8821 12.7067 82.5408 12.888C82.1994 13.0693 81.8101 13.16 81.3728 13.16C80.7861 13.16 80.3328 12.9893 80.0128 12.648C79.6928 12.3067 79.5008 11.8427 79.4368 11.256H79.3728C79.1594 11.5653 78.9088 11.8693 78.6208 12.168C78.3328 12.456 78.0021 12.696 77.6288 12.888C77.2661 13.0693 76.8661 13.16 76.4288 13.16ZM87.1167 16.84L89.7408 4.424H90.8928L90.7008 6.024H90.7648C91.1381 5.55467 91.5594 5.14933 92.0288 4.808C92.4981 4.456 93.0314 4.28 93.6288 4.28C94.3221 4.28 94.8821 4.52533 95.3088 5.016C95.7354 5.50667 95.9488 6.23733 95.9488 7.208C95.9488 7.98667 95.8528 8.73333 95.6608 9.448C95.4688 10.1627 95.1914 10.8027 94.8288 11.368C94.4661 11.9227 94.0234 12.36 93.5008 12.68C92.9888 13 92.4128 13.16 91.7728 13.16C91.1968 13.16 90.7328 13.016 90.3808 12.728C90.0288 12.4293 89.7621 12.0827 89.5807 11.688H89.5008C89.4901 11.8587 89.4634 12.0987 89.4208 12.408C89.3781 12.7067 89.3354 12.952 89.2928 13.144L88.5088 16.84H87.1167ZM91.6608 11.992C92.0874 11.992 92.4768 11.8587 92.8288 11.592C93.1808 11.3147 93.4794 10.9467 93.7248 10.488C93.9808 10.0293 94.1728 9.512 94.3008 8.936C94.4394 8.36 94.5088 7.77333 94.5088 7.176C94.5088 6.024 94.0554 5.448 93.1488 5.448C92.7968 5.448 92.4341 5.58133 92.0608 5.848C91.6981 6.104 91.3621 6.456 91.0528 6.904C90.7434 7.352 90.4928 7.864 90.3008 8.44C90.1194 9.016 90.0288 9.624 90.0288 10.264C90.0288 10.776 90.1621 11.192 90.4288 11.512C90.6954 11.832 91.1061 11.992 91.6608 11.992ZM99.7584 13.16C99.1077 13.16 98.585 12.9787 98.1904 12.616C97.8064 12.2533 97.6144 11.7253 97.6144 11.032C97.6144 10.7867 97.6304 10.5573 97.6624 10.344C97.705 10.12 97.7477 9.89067 97.7904 9.656L98.9104 4.424H100.334L99.1824 9.816C99.0864 10.2747 99.0384 10.632 99.0384 10.888C99.0384 11.2293 99.1237 11.5013 99.2944 11.704C99.4757 11.896 99.7637 11.992 100.158 11.992C100.521 11.992 100.91 11.864 101.326 11.608C101.753 11.352 102.148 10.9413 102.51 10.376C102.873 9.81067 103.156 9.05867 103.358 8.12L104.142 4.424H105.534L103.71 13H102.558L102.734 11.416H102.654C102.452 11.672 102.212 11.9387 101.934 12.216C101.668 12.4827 101.353 12.7067 100.99 12.888C100.638 13.0693 100.228 13.16 99.7584 13.16ZM109.792 13.144C108.821 13.016 108.075 12.6373 107.552 12.008C107.029 11.3787 106.768 10.5413 106.768 9.496C106.768 8.6 106.949 7.76267 107.312 6.984C107.685 6.20533 108.235 5.57067 108.96 5.08C109.696 4.58933 110.597 4.328 111.664 4.296L112.4 0.839999H113.696L112.96 4.296C113.909 4.424 114.656 4.78667 115.2 5.384C115.744 5.98133 116.016 6.81333 116.016 7.88C116.016 8.84 115.813 9.71467 115.408 10.504C115.013 11.2933 114.448 11.928 113.712 12.408C112.976 12.8773 112.101 13.1173 111.088 13.128L110.304 16.84H109.008L109.792 13.144ZM111.424 5.464C110.677 5.496 110.064 5.71467 109.584 6.12C109.115 6.51467 108.768 7.01067 108.544 7.608C108.32 8.19467 108.208 8.81333 108.208 9.464C108.208 10.2213 108.373 10.8133 108.704 11.24C109.045 11.6667 109.493 11.9067 110.048 11.96L111.424 5.464ZM111.344 11.96C111.92 11.928 112.411 11.7893 112.816 11.544C113.232 11.2987 113.568 10.984 113.824 10.6C114.08 10.2053 114.267 9.77867 114.384 9.32C114.512 8.86133 114.576 8.40267 114.576 7.944C114.576 7.16533 114.405 6.57333 114.064 6.168C113.723 5.76267 113.28 5.53867 112.736 5.496L111.344 11.96ZM117.198 13L119.022 4.424H120.174L119.998 6.008H120.078C120.27 5.74133 120.494 5.47467 120.75 5.208C121.017 4.94133 121.321 4.71733 121.662 4.536C122.014 4.35467 122.409 4.264 122.846 4.264C123.433 4.264 123.881 4.43467 124.19 4.776C124.51 5.10667 124.702 5.57067 124.766 6.168H124.83C125.043 5.848 125.294 5.544 125.582 5.256C125.881 4.968 126.211 4.73333 126.574 4.552C126.937 4.36 127.337 4.264 127.774 4.264C128.435 4.264 128.947 4.44533 129.31 4.808C129.673 5.17067 129.854 5.69333 129.854 6.376C129.854 6.632 129.838 6.872 129.806 7.096C129.774 7.30933 129.731 7.53867 129.678 7.784L128.574 13H127.15L128.302 7.624C128.355 7.37867 128.393 7.17067 128.414 7C128.435 6.82933 128.446 6.664 128.446 6.504C128.446 6.184 128.355 5.928 128.174 5.736C128.003 5.544 127.731 5.448 127.358 5.448C127.017 5.448 126.649 5.576 126.254 5.832C125.87 6.088 125.507 6.488 125.166 7.032C124.835 7.56533 124.579 8.264 124.398 9.128L123.582 13H122.174L123.31 7.624C123.406 7.144 123.454 6.792 123.454 6.568C123.454 6.216 123.374 5.944 123.214 5.752C123.054 5.54933 122.787 5.448 122.414 5.448C122.073 5.448 121.705 5.576 121.31 5.832C120.915 6.07733 120.547 6.48267 120.206 7.048C119.865 7.61333 119.593 8.36533 119.39 9.304L118.606 13H117.198ZM134.221 8.68L134.413 7.624H150.573L150.381 8.68H134.221ZM155.848 13.16C155.421 13.16 155.026 13.1173 154.664 13.032C154.301 12.9467 154.029 12.8613 153.848 12.776V11.512C154.168 11.6507 154.488 11.7627 154.808 11.848C155.128 11.9333 155.474 11.976 155.848 11.976C156.605 11.976 157.224 11.7307 157.704 11.24C158.194 10.7493 158.52 10.0667 158.68 9.192H155L155.24 8.008H158.824V7.768C158.824 6.95733 158.664 6.37067 158.344 6.008C158.024 5.63467 157.549 5.448 156.92 5.448C156.578 5.448 156.248 5.49067 155.928 5.576C155.618 5.66133 155.325 5.768 155.048 5.896L154.632 4.824C154.952 4.67467 155.309 4.54667 155.704 4.44C156.098 4.33333 156.552 4.28 157.064 4.28C158.141 4.28 158.941 4.58933 159.464 5.208C159.986 5.816 160.248 6.65867 160.248 7.736C160.248 8.41867 160.168 9.08533 160.008 9.736C159.848 10.3867 159.592 10.968 159.24 11.48C158.898 11.992 158.445 12.4027 157.88 12.712C157.325 13.0107 156.648 13.16 155.848 13.16ZM161.464 13L163.288 4.424H164.44L164.264 6.008H164.344C164.536 5.74133 164.76 5.47467 165.016 5.208C165.282 4.94133 165.586 4.71733 165.928 4.536C166.28 4.35467 166.674 4.264 167.112 4.264C167.698 4.264 168.146 4.43467 168.456 4.776C168.776 5.10667 168.968 5.57067 169.032 6.168H169.096C169.309 5.848 169.56 5.544 169.848 5.256C170.146 4.968 170.477 4.73333 170.84 4.552C171.202 4.36 171.602 4.264 172.04 4.264C172.701 4.264 173.213 4.44533 173.576 4.808C173.938 5.17067 174.12 5.69333 174.12 6.376C174.12 6.632 174.104 6.872 174.072 7.096C174.04 7.30933 173.997 7.53867 173.944 7.784L172.84 13H171.416L172.568 7.624C172.621 7.37867 172.658 7.17067 172.68 7C172.701 6.82933 172.712 6.664 172.712 6.504C172.712 6.184 172.621 5.928 172.44 5.736C172.269 5.544 171.997 5.448 171.624 5.448C171.282 5.448 170.914 5.576 170.52 5.832C170.136 6.088 169.773 6.488 169.432 7.032C169.101 7.56533 168.845 8.264 168.664 9.128L167.848 13H166.44L167.576 7.624C167.672 7.144 167.72 6.792 167.72 6.568C167.72 6.216 167.64 5.944 167.48 5.752C167.32 5.54933 167.053 5.448 166.68 5.448C166.338 5.448 165.97 5.576 165.576 5.832C165.181 6.07733 164.813 6.48267 164.472 7.048C164.13 7.61333 163.858 8.36533 163.656 9.304L162.872 13H161.464ZM178.984 13.128C177.992 13.128 177.208 12.8347 176.632 12.248C176.066 11.6507 175.784 10.8453 175.784 9.832C175.784 9.17067 175.874 8.51467 176.056 7.864C176.237 7.21333 176.504 6.62133 176.856 6.088C177.218 5.55467 177.666 5.128 178.2 4.808C178.744 4.47733 179.368 4.312 180.072 4.312C181.074 4.312 181.858 4.61067 182.424 5.208C182.989 5.79467 183.272 6.6 183.272 7.624C183.272 8.27467 183.181 8.92533 183 9.576C182.818 10.2267 182.546 10.8187 182.184 11.352C181.832 11.8853 181.389 12.3173 180.856 12.648C180.322 12.968 179.698 13.128 178.984 13.128ZM179.064 11.96C179.576 11.96 180.04 11.784 180.456 11.432C180.872 11.0693 181.202 10.552 181.448 9.88C181.704 9.208 181.832 8.40267 181.832 7.464C181.832 7.144 181.773 6.83467 181.656 6.536C181.549 6.22667 181.368 5.976 181.112 5.784C180.856 5.58133 180.514 5.48 180.088 5.48C179.501 5.48 178.989 5.68267 178.552 6.088C178.125 6.48267 177.794 7.016 177.56 7.688C177.325 8.34933 177.208 9.08 177.208 9.88C177.208 10.5413 177.368 11.0533 177.688 11.416C178.018 11.7787 178.477 11.96 179.064 11.96ZM188.682 13L190.49 4.424H191.882L191.002 8.552L195.002 4.424H196.762L192.522 8.664L195.386 13H193.706L190.986 8.728L190.09 13H188.682ZM199.104 13.16C198.421 13.16 197.861 12.9147 197.424 12.424C196.997 11.9227 196.784 11.192 196.784 10.232C196.784 9.432 196.885 8.67467 197.088 7.96C197.301 7.23467 197.594 6.6 197.968 6.056C198.341 5.50133 198.784 5.064 199.296 4.744C199.808 4.424 200.373 4.264 200.992 4.264C201.557 4.264 202.016 4.41333 202.368 4.712C202.72 5.01067 202.981 5.35733 203.152 5.752H203.232L203.744 4.424H204.816L202.992 13H201.872L202.08 11.416H202.016C201.653 11.8853 201.226 12.296 200.736 12.648C200.245 12.9893 199.701 13.16 199.104 13.16ZM199.568 11.992C199.962 11.992 200.346 11.848 200.72 11.56C201.104 11.272 201.45 10.8827 201.76 10.392C202.069 9.90133 202.304 9.352 202.464 8.744C202.549 8.43467 202.602 8.152 202.624 7.896C202.656 7.62933 202.672 7.384 202.672 7.16C202.672 6.65867 202.533 6.248 202.256 5.928C201.978 5.608 201.605 5.448 201.136 5.448C200.72 5.448 200.336 5.58133 199.984 5.848C199.632 6.104 199.322 6.46133 199.056 6.92C198.789 7.368 198.581 7.88 198.432 8.456C198.293 9.032 198.224 9.63467 198.224 10.264C198.224 10.84 198.341 11.272 198.576 11.56C198.81 11.848 199.141 11.992 199.568 11.992ZM205.557 13L207.365 4.424H208.757L207.877 8.552L211.877 4.424H213.637L209.397 8.664L212.261 13H210.581L207.861 8.728L206.965 13H205.557ZM220.262 13.16C219.771 13.16 219.312 13.0853 218.886 12.936C218.47 12.7867 218.134 12.552 217.878 12.232C217.622 11.912 217.494 11.496 217.494 10.984C217.494 10.4187 217.638 9.96 217.926 9.608C218.214 9.24533 218.576 8.94667 219.014 8.712C219.451 8.47733 219.899 8.28 220.358 8.12C220.998 7.87467 221.52 7.62933 221.926 7.384C222.342 7.128 222.55 6.78133 222.55 6.344C222.55 6.07733 222.464 5.864 222.294 5.704C222.123 5.53333 221.819 5.448 221.382 5.448C220.966 5.448 220.555 5.50667 220.15 5.624C219.744 5.73067 219.371 5.85867 219.03 6.008L218.646 4.888C219.019 4.74933 219.446 4.616 219.926 4.488C220.406 4.34933 220.939 4.28 221.526 4.28C222.24 4.28 222.827 4.43467 223.286 4.744C223.744 5.04267 223.974 5.54933 223.974 6.264C223.974 6.75467 223.84 7.17067 223.574 7.512C223.318 7.85333 222.987 8.136 222.582 8.36C222.176 8.584 221.744 8.78133 221.286 8.952C220.806 9.13333 220.384 9.30933 220.022 9.48C219.67 9.64 219.398 9.82667 219.206 10.04C219.014 10.2533 218.918 10.5307 218.918 10.872C218.918 11.2133 219.04 11.4853 219.286 11.688C219.542 11.8907 219.936 11.992 220.47 11.992C220.907 11.992 221.328 11.928 221.734 11.8C222.139 11.672 222.534 11.5173 222.918 11.336V12.568C222.544 12.7387 222.144 12.8827 221.718 13C221.291 13.1067 220.806 13.16 220.262 13.16ZM227.526 13.16C226.843 13.16 226.283 12.9147 225.846 12.424C225.419 11.9227 225.206 11.192 225.206 10.232C225.206 9.432 225.307 8.67467 225.51 7.96C225.723 7.23467 226.016 6.6 226.39 6.056C226.763 5.50133 227.206 5.064 227.718 4.744C228.23 4.424 228.795 4.264 229.414 4.264C229.979 4.264 230.438 4.41333 230.79 4.712C231.142 5.01067 231.403 5.35733 231.574 5.752H231.654L232.166 4.424H233.238L231.414 13H230.294L230.502 11.416H230.438C230.075 11.8853 229.648 12.296 229.158 12.648C228.667 12.9893 228.123 13.16 227.526 13.16ZM227.99 11.992C228.384 11.992 228.768 11.848 229.141 11.56C229.526 11.272 229.872 10.8827 230.182 10.392C230.491 9.90133 230.726 9.352 230.886 8.744C230.971 8.43467 231.024 8.152 231.046 7.896C231.078 7.62933 231.094 7.384 231.094 7.16C231.094 6.65867 230.955 6.248 230.678 5.928C230.4 5.608 230.027 5.448 229.558 5.448C229.142 5.448 228.758 5.58133 228.406 5.848C228.054 6.104 227.744 6.46133 227.478 6.92C227.211 7.368 227.003 7.88 226.854 8.456C226.715 9.032 226.646 9.63467 226.646 10.264C226.646 10.84 226.763 11.272 226.998 11.56C227.232 11.848 227.563 11.992 227.99 11.992ZM233.179 16.84L235.803 4.424H236.955L236.763 6.024H236.827C237.201 5.55467 237.622 5.14933 238.091 4.808C238.561 4.456 239.094 4.28 239.691 4.28C240.385 4.28 240.945 4.52533 241.371 5.016C241.798 5.50667 242.011 6.23733 242.011 7.208C242.011 7.98667 241.915 8.73333 241.723 9.448C241.531 10.1627 241.254 10.8027 240.891 11.368C240.529 11.9227 240.086 12.36 239.563 12.68C239.051 13 238.475 13.16 237.835 13.16C237.259 13.16 236.795 13.016 236.443 12.728C236.091 12.4293 235.825 12.0827 235.643 11.688H235.563C235.553 11.8587 235.526 12.0987 235.483 12.408C235.441 12.7067 235.398 12.952 235.355 13.144L234.571 16.84H233.179ZM237.723 11.992C238.15 11.992 238.539 11.8587 238.891 11.592C239.243 11.3147 239.542 10.9467 239.787 10.488C240.043 10.0293 240.235 9.512 240.363 8.936C240.502 8.36 240.571 7.77333 240.571 7.176C240.571 6.024 240.118 5.448 239.211 5.448C238.859 5.448 238.497 5.58133 238.123 5.848C237.761 6.104 237.425 6.456 237.115 6.904C236.806 7.352 236.555 7.864 236.363 8.44C236.182 9.016 236.091 9.624 236.091 10.264C236.091 10.776 236.225 11.192 236.491 11.512C236.758 11.832 237.169 11.992 237.723 11.992ZM243.261 13L245.069 4.44H246.893L247.789 11.24H247.821L251.581 4.44H253.549L251.757 13H250.477L251.517 8.088C251.613 7.68267 251.709 7.27733 251.805 6.872C251.912 6.46667 252.008 6.09333 252.093 5.752H252.061L248.029 13H246.925L245.949 5.768H245.901C245.858 6.06667 245.8 6.43467 245.725 6.872C245.65 7.29867 245.57 7.71467 245.485 8.12L244.493 13H243.261ZM257.952 13.128C256.96 13.128 256.176 12.8347 255.6 12.248C255.035 11.6507 254.752 10.8453 254.752 9.832C254.752 9.17067 254.843 8.51467 255.024 7.864C255.206 7.21333 255.472 6.62133 255.824 6.088C256.187 5.55467 256.635 5.128 257.168 4.808C257.712 4.47733 258.336 4.312 259.04 4.312C260.043 4.312 260.827 4.61067 261.392 5.208C261.958 5.79467 262.24 6.6 262.24 7.624C262.24 8.27467 262.15 8.92533 261.968 9.576C261.787 10.2267 261.515 10.8187 261.152 11.352C260.8 11.8853 260.358 12.3173 259.824 12.648C259.291 12.968 258.667 13.128 257.952 13.128ZM258.032 11.96C258.544 11.96 259.008 11.784 259.424 11.432C259.84 11.0693 260.171 10.552 260.416 9.88C260.672 9.208 260.8 8.40267 260.8 7.464C260.8 7.144 260.742 6.83467 260.624 6.536C260.518 6.22667 260.336 5.976 260.08 5.784C259.824 5.58133 259.483 5.48 259.056 5.48C258.47 5.48 257.958 5.68267 257.52 6.088C257.094 6.48267 256.763 7.016 256.528 7.688C256.294 8.34933 256.176 9.08 256.176 9.88C256.176 10.5413 256.336 11.0533 256.656 11.416C256.987 11.7787 257.446 11.96 258.032 11.96ZM264.296 8.68L264.488 7.624H268.872L268.68 8.68H264.296ZM1.448 34L3.272 25.424H4.664L3.928 28.992H7.96L8.728 25.424H10.136L8.328 34H6.904L7.704 30.16H3.672L2.856 34H1.448ZM13.6334 34.16C12.9827 34.16 12.46 33.9787 12.0654 33.616C11.6814 33.2533 11.4894 32.7253 11.4894 32.032C11.4894 31.7867 11.5054 31.5573 11.5374 31.344C11.58 31.12 11.6227 30.8907 11.6654 30.656L12.7854 25.424H14.2094L13.0574 30.816C12.9614 31.2747 12.9134 31.632 12.9134 31.888C12.9134 32.2293 12.9987 32.5013 13.1694 32.704C13.3507 32.896 13.6387 32.992 14.0334 32.992C14.396 32.992 14.7854 32.864 15.2014 32.608C15.628 32.352 16.0227 31.9413 16.3854 31.376C16.748 30.8107 17.0307 30.0587 17.2334 29.12L18.0174 25.424H19.4094L17.5854 34H16.4334L16.6094 32.416H16.5294C16.3267 32.672 16.0867 32.9387 15.8094 33.216C15.5427 33.4827 15.228 33.7067 14.8654 33.888C14.5134 34.0693 14.1027 34.16 13.6334 34.16ZM25.603 31.584C25.6777 31.2107 25.763 30.848 25.859 30.496C25.9657 30.144 26.0563 29.8347 26.131 29.568H26.067C25.747 29.9947 25.3523 30.3467 24.883 30.624C24.4243 30.9013 23.8963 31.04 23.299 31.04C22.5843 31.04 22.0403 30.8533 21.667 30.48C21.2937 30.1067 21.107 29.5627 21.107 28.848C21.107 28.6453 21.1283 28.416 21.171 28.16C21.2137 27.904 21.2563 27.648 21.299 27.392L21.715 25.424H23.139L22.707 27.504C22.643 27.7813 22.595 28.016 22.563 28.208C22.5417 28.3893 22.531 28.56 22.531 28.72C22.531 29.1467 22.6323 29.4453 22.835 29.616C23.0483 29.776 23.3363 29.856 23.699 29.856C24.0723 29.856 24.451 29.7547 24.835 29.552C25.2297 29.3493 25.5977 28.992 25.939 28.48C26.2803 27.968 26.5523 27.248 26.755 26.32L26.947 25.424H28.355L26.531 34H25.091L25.603 31.584ZM29.2605 34L31.0845 25.424H32.4765L31.7405 28.992H35.7725L36.5405 25.424H37.9485L36.1405 34H34.7165L35.5165 30.16H31.4845L30.6685 34H29.2605ZM42.3899 34.128C41.3979 34.128 40.6139 33.8347 40.0379 33.248C39.4725 32.6507 39.1899 31.8453 39.1899 30.832C39.1899 30.1707 39.2805 29.5147 39.4619 28.864C39.6432 28.2133 39.9099 27.6213 40.2619 27.088C40.6245 26.5547 41.0725 26.128 41.6059 25.808C42.1499 25.4773 42.7739 25.312 43.4779 25.312C44.4805 25.312 45.2645 25.6107 45.8299 26.208C46.3952 26.7947 46.6779 27.6 46.6779 28.624C46.6779 29.2747 46.5872 29.9253 46.4059 30.576C46.2245 31.2267 45.9525 31.8187 45.5899 32.352C45.2379 32.8853 44.7952 33.3173 44.2619 33.648C43.7285 33.968 43.1045 34.128 42.3899 34.128ZM42.4699 32.96C42.9819 32.96 43.4459 32.784 43.8619 32.432C44.2779 32.0693 44.6085 31.552 44.8539 30.88C45.1099 30.208 45.2379 29.4027 45.2379 28.464C45.2379 28.144 45.1792 27.8347 45.0619 27.536C44.9552 27.2267 44.7739 26.976 44.5179 26.784C44.2619 26.5813 43.9205 26.48 43.4939 26.48C42.9072 26.48 42.3952 26.6827 41.9579 27.088C41.5312 27.4827 41.2005 28.016 40.9659 28.688C40.7312 29.3493 40.6139 30.08 40.6139 30.88C40.6139 31.5413 40.7739 32.0533 41.0939 32.416C41.4245 32.7787 41.8832 32.96 42.4699 32.96ZM51.3095 34.16C50.3175 34.16 49.5495 33.872 49.0055 33.296C48.4722 32.7093 48.2055 31.92 48.2055 30.928C48.2055 30.2453 48.3015 29.5733 48.4935 28.912C48.6962 28.24 48.9842 27.632 49.3575 27.088C49.7308 26.5333 50.1788 26.0907 50.7015 25.76C51.2348 25.4293 51.8322 25.264 52.4935 25.264C53.3042 25.264 53.9122 25.44 54.3175 25.792C54.7335 26.144 54.9415 26.6347 54.9415 27.264C54.9415 27.8187 54.7655 28.3253 54.4135 28.784C54.0722 29.2427 53.5335 29.6107 52.7975 29.888C52.0615 30.1547 51.1068 30.288 49.9335 30.288H49.6615C49.6508 30.384 49.6402 30.4853 49.6295 30.592C49.6295 30.6987 49.6295 30.7947 49.6295 30.88C49.6295 31.5307 49.7895 32.048 50.1095 32.432C50.4295 32.8053 50.9148 32.992 51.5655 32.992C51.9708 32.992 52.3548 32.9333 52.7175 32.816C53.0802 32.6987 53.4748 32.5387 53.9015 32.336V33.536C53.4962 33.7173 53.0962 33.8667 52.7015 33.984C52.3175 34.1013 51.8535 34.16 51.3095 34.16ZM49.9815 29.152C50.6215 29.152 51.2135 29.0987 51.7575 28.992C52.3015 28.8747 52.7388 28.688 53.0695 28.432C53.4002 28.1653 53.5655 27.8133 53.5655 27.376C53.5655 27.0987 53.4695 26.8747 53.2775 26.704C53.0962 26.5227 52.8082 26.432 52.4135 26.432C51.9015 26.432 51.4055 26.672 50.9255 27.152C50.4562 27.6213 50.1042 28.288 49.8695 29.152H49.9815ZM63.577 34.16C62.6277 34.16 61.8597 33.8933 61.273 33.36C60.6863 32.8267 60.393 32.0267 60.393 30.96C60.393 30.192 60.4943 29.4667 60.697 28.784C60.9103 28.0907 61.209 27.4827 61.593 26.96C61.9877 26.4373 62.4623 26.0267 63.017 25.728C63.5717 25.4187 64.1903 25.264 64.873 25.264C65.2463 25.264 65.6197 25.3013 65.993 25.376C66.3663 25.4507 66.7023 25.552 67.001 25.68L66.601 26.848C66.3877 26.752 66.1317 26.6613 65.833 26.576C65.545 26.4907 65.2303 26.448 64.889 26.448C64.281 26.448 63.7477 26.656 63.289 27.072C62.8303 27.4773 62.473 28.0213 62.217 28.704C61.961 29.3867 61.833 30.1333 61.833 30.944C61.833 31.5947 61.9983 32.1013 62.329 32.464C62.6703 32.816 63.1343 32.992 63.721 32.992C64.0943 32.992 64.4463 32.9387 64.777 32.832C65.1183 32.7253 65.4543 32.6027 65.785 32.464V33.648C65.4863 33.7973 65.1503 33.92 64.777 34.016C64.4143 34.112 64.0143 34.16 63.577 34.16ZM70.843 34.128C69.851 34.128 69.067 33.8347 68.491 33.248C67.9257 32.6507 67.643 31.8453 67.643 30.832C67.643 30.1707 67.7337 29.5147 67.915 28.864C68.0963 28.2133 68.363 27.6213 68.715 27.088C69.0777 26.5547 69.5257 26.128 70.059 25.808C70.603 25.4773 71.227 25.312 71.931 25.312C72.9337 25.312 73.7177 25.6107 74.283 26.208C74.8483 26.7947 75.131 27.6 75.131 28.624C75.131 29.2747 75.0403 29.9253 74.859 30.576C74.6777 31.2267 74.4057 31.8187 74.043 32.352C73.691 32.8853 73.2483 33.3173 72.715 33.648C72.1817 33.968 71.5577 34.128 70.843 34.128ZM70.923 32.96C71.435 32.96 71.899 32.784 72.315 32.432C72.731 32.0693 73.0617 31.552 73.307 30.88C73.563 30.208 73.691 29.4027 73.691 28.464C73.691 28.144 73.6323 27.8347 73.515 27.536C73.4083 27.2267 73.227 26.976 72.971 26.784C72.715 26.5813 72.3737 26.48 71.947 26.48C71.3603 26.48 70.8483 26.6827 70.411 27.088C69.9843 27.4827 69.6537 28.016 69.419 28.688C69.1843 29.3493 69.067 30.08 69.067 30.88C69.067 31.5413 69.227 32.0533 69.547 32.416C69.8777 32.7787 70.3363 32.96 70.923 32.96ZM79.8586 34.128C78.8666 34.128 78.0826 33.8347 77.5066 33.248C76.9413 32.6507 76.6586 31.8453 76.6586 30.832C76.6586 30.1707 76.7493 29.5147 76.9306 28.864C77.112 28.2133 77.3786 27.6213 77.7306 27.088C78.0933 26.5547 78.5413 26.128 79.0746 25.808C79.6186 25.4773 80.2426 25.312 80.9466 25.312C81.9493 25.312 82.7333 25.6107 83.2986 26.208C83.864 26.7947 84.1466 27.6 84.1466 28.624C84.1466 29.2747 84.056 29.9253 83.8746 30.576C83.6933 31.2267 83.4213 31.8187 83.0586 32.352C82.7066 32.8853 82.264 33.3173 81.7306 33.648C81.1973 33.968 80.5733 34.128 79.8586 34.128ZM79.9386 32.96C80.4506 32.96 80.9146 32.784 81.3306 32.432C81.7466 32.0693 82.0773 31.552 82.3226 30.88C82.5786 30.208 82.7066 29.4027 82.7066 28.464C82.7066 28.144 82.648 27.8347 82.5306 27.536C82.424 27.2267 82.2426 26.976 81.9866 26.784C81.7306 26.5813 81.3893 26.48 80.9626 26.48C80.376 26.48 79.864 26.6827 79.4266 27.088C79 27.4827 78.6693 28.016 78.4346 28.688C78.2 29.3493 78.0826 30.08 78.0826 30.88C78.0826 31.5413 78.2426 32.0533 78.5626 32.416C78.8933 32.7787 79.352 32.96 79.9386 32.96ZM88.7463 34.16C87.7756 34.16 87.0236 33.856 86.4903 33.248C85.9569 32.6293 85.6903 31.728 85.6903 30.544C85.6903 30.064 85.7329 29.5147 85.8183 28.896C85.9143 28.2667 86.0583 27.6267 86.2503 26.976C86.4529 26.3147 86.7089 25.6853 87.0182 25.088C87.3383 24.4907 87.7223 23.9733 88.1703 23.536C88.6289 23.0987 89.1623 22.7893 89.7703 22.608C89.9623 22.544 90.2396 22.4747 90.6023 22.4C90.9756 22.3147 91.3809 22.2293 91.8183 22.144C92.2556 22.048 92.6716 21.968 93.0663 21.904C93.4609 21.84 93.7756 21.792 94.0103 21.76L94.1703 22.912C93.8716 22.9547 93.4876 23.0187 93.0183 23.104C92.5489 23.1893 92.0743 23.2853 91.5943 23.392C91.1249 23.488 90.7249 23.5893 90.3943 23.696C89.7116 23.9093 89.1303 24.336 88.6503 24.976C88.1703 25.616 87.7916 26.4427 87.5143 27.456L87.5623 27.472C87.8503 27.1307 88.2396 26.8053 88.7303 26.496C89.2209 26.1867 89.7809 26.032 90.4103 26.032C91.2209 26.032 91.8236 26.288 92.2183 26.8C92.6236 27.3013 92.8263 28.0053 92.8263 28.912C92.8263 29.5627 92.7463 30.2027 92.5863 30.832C92.4369 31.4507 92.1969 32.0107 91.8663 32.512C91.5463 33.0133 91.1249 33.4133 90.6023 33.712C90.0903 34.0107 89.4716 34.16 88.7463 34.16ZM88.8743 32.992C89.3436 32.992 89.7383 32.864 90.0583 32.608C90.3783 32.3413 90.6343 32.0053 90.8263 31.6C91.0289 31.184 91.1729 30.752 91.2583 30.304C91.3436 29.8453 91.3863 29.4293 91.3863 29.056C91.3863 28.416 91.2743 27.9467 91.0503 27.648C90.8263 27.3493 90.4903 27.2 90.0423 27.2C89.6476 27.2 89.2689 27.296 88.9062 27.488C88.5543 27.68 88.2396 27.9093 87.9623 28.176C87.6849 28.432 87.4609 28.6773 87.2903 28.912C87.2476 29.2 87.2049 29.488 87.1623 29.776C87.1303 30.064 87.1143 30.336 87.1143 30.592C87.1143 31.3067 87.2476 31.888 87.5143 32.336C87.7809 32.7733 88.2343 32.992 88.8743 32.992ZM105.289 34.112C104.969 34.0267 104.729 33.856 104.569 33.6C104.42 33.3333 104.34 32.9493 104.329 32.448H104.281C104.1 32.7147 103.876 32.9813 103.609 33.248C103.342 33.5147 103.038 33.7333 102.697 33.904C102.356 34.0747 101.966 34.16 101.529 34.16C100.942 34.16 100.489 33.9893 100.169 33.648C99.849 33.3067 99.657 32.8427 99.593 32.256H99.529C99.3157 32.5653 99.065 32.8693 98.777 33.168C98.489 33.456 98.1637 33.696 97.801 33.888C97.4383 34.0693 97.033 34.16 96.585 34.16C95.9237 34.16 95.4117 33.9787 95.049 33.616C94.6863 33.2533 94.505 32.7307 94.505 32.048C94.505 31.792 94.521 31.5573 94.553 31.344C94.5957 31.12 94.6383 30.8853 94.681 30.64L95.785 25.424H97.209L96.073 30.816C96.0303 31.0507 95.993 31.2533 95.961 31.424C95.929 31.5947 95.913 31.76 95.913 31.92C95.913 32.24 95.9983 32.496 96.169 32.688C96.3503 32.88 96.6277 32.976 97.001 32.976C97.3423 32.976 97.705 32.8533 98.089 32.608C98.4837 32.352 98.8463 31.952 99.177 31.408C99.5183 30.864 99.7797 30.16 99.961 29.296L100.793 25.424H102.201L101.049 30.816C100.953 31.2747 100.905 31.6213 100.905 31.856C100.905 32.2187 100.985 32.496 101.145 32.688C101.305 32.88 101.572 32.976 101.945 32.976C102.297 32.976 102.67 32.8533 103.065 32.608C103.46 32.352 103.828 31.9413 104.169 31.376C104.51 30.8107 104.777 30.0587 104.969 29.12L105.753 25.424H107.161L105.881 31.472C105.849 31.6427 105.822 31.8133 105.801 31.984C105.78 32.1547 105.769 32.2987 105.769 32.416C105.769 32.8213 105.966 33.024 106.361 33.024C106.5 33.024 106.617 33.008 106.713 32.976C106.82 32.944 106.91 32.9227 106.985 32.912L106.073 36.976H104.665L105.289 34.112ZM111.778 34.16C110.786 34.16 110.018 33.872 109.474 33.296C108.941 32.7093 108.674 31.92 108.674 30.928C108.674 30.2453 108.77 29.5733 108.962 28.912C109.165 28.24 109.453 27.632 109.826 27.088C110.2 26.5333 110.648 26.0907 111.17 25.76C111.704 25.4293 112.301 25.264 112.962 25.264C113.773 25.264 114.381 25.44 114.786 25.792C115.202 26.144 115.41 26.6347 115.41 27.264C115.41 27.8187 115.234 28.3253 114.882 28.784C114.541 29.2427 114.002 29.6107 113.266 29.888C112.53 30.1547 111.576 30.288 110.402 30.288H110.13C110.12 30.384 110.109 30.4853 110.098 30.592C110.098 30.6987 110.098 30.7947 110.098 30.88C110.098 31.5307 110.258 32.048 110.578 32.432C110.898 32.8053 111.384 32.992 112.034 32.992C112.44 32.992 112.824 32.9333 113.186 32.816C113.549 32.6987 113.944 32.5387 114.37 32.336V33.536C113.965 33.7173 113.565 33.8667 113.17 33.984C112.786 34.1013 112.322 34.16 111.778 34.16ZM110.45 29.152C111.09 29.152 111.682 29.0987 112.226 28.992C112.77 28.8747 113.208 28.688 113.538 28.432C113.869 28.1653 114.034 27.8133 114.034 27.376C114.034 27.0987 113.938 26.8747 113.746 26.704C113.565 26.5227 113.277 26.432 112.882 26.432C112.37 26.432 111.874 26.672 111.394 27.152C110.925 27.6213 110.573 28.288 110.338 29.152H110.45ZM119.843 34.16C118.893 34.16 118.125 33.8933 117.539 33.36C116.952 32.8267 116.659 32.0267 116.659 30.96C116.659 30.192 116.76 29.4667 116.963 28.784C117.176 28.0907 117.475 27.4827 117.859 26.96C118.253 26.4373 118.728 26.0267 119.283 25.728C119.837 25.4187 120.456 25.264 121.139 25.264C121.512 25.264 121.885 25.3013 122.259 25.376C122.632 25.4507 122.968 25.552 123.267 25.68L122.867 26.848C122.653 26.752 122.397 26.6613 122.099 26.576C121.811 26.4907 121.496 26.448 121.155 26.448C120.547 26.448 120.013 26.656 119.555 27.072C119.096 27.4773 118.739 28.0213 118.483 28.704C118.227 29.3867 118.099 30.1333 118.099 30.944C118.099 31.5947 118.264 32.1013 118.595 32.464C118.936 32.816 119.4 32.992 119.987 32.992C120.36 32.992 120.712 32.9387 121.043 32.832C121.384 32.7253 121.72 32.6027 122.051 32.464V33.648C121.752 33.7973 121.416 33.92 121.043 34.016C120.68 34.112 120.28 34.16 119.843 34.16ZM123.589 34L125.413 25.424H126.565L126.389 27.008H126.469C126.661 26.7413 126.885 26.4747 127.141 26.208C127.407 25.9413 127.711 25.7173 128.053 25.536C128.405 25.3547 128.799 25.264 129.237 25.264C129.823 25.264 130.271 25.4347 130.581 25.776C130.901 26.1067 131.093 26.5707 131.157 27.168H131.221C131.434 26.848 131.685 26.544 131.973 26.256C132.271 25.968 132.602 25.7333 132.965 25.552C133.327 25.36 133.727 25.264 134.165 25.264C134.826 25.264 135.338 25.4453 135.701 25.808C136.063 26.1707 136.245 26.6933 136.245 27.376C136.245 27.632 136.229 27.872 136.197 28.096C136.165 28.3093 136.122 28.5387 136.069 28.784L134.965 34H133.541L134.693 28.624C134.746 28.3787 134.783 28.1707 134.805 28C134.826 27.8293 134.837 27.664 134.837 27.504C134.837 27.184 134.746 26.928 134.565 26.736C134.394 26.544 134.122 26.448 133.749 26.448C133.407 26.448 133.039 26.576 132.645 26.832C132.261 27.088 131.898 27.488 131.557 28.032C131.226 28.5653 130.97 29.264 130.789 30.128L129.973 34H128.565L129.701 28.624C129.797 28.144 129.845 27.792 129.845 27.568C129.845 27.216 129.765 26.944 129.605 26.752C129.445 26.5493 129.178 26.448 128.805 26.448C128.463 26.448 128.095 26.576 127.701 26.832C127.306 27.0773 126.938 27.4827 126.597 28.048C126.255 28.6133 125.983 29.3653 125.781 30.304L124.997 34H123.589ZM141.285 34.16C140.111 34.16 139.253 33.84 138.709 33.2C138.175 32.5493 137.909 31.6907 137.909 30.624C137.909 29.6213 138.085 28.72 138.437 27.92C138.799 27.1093 139.317 26.4693 139.989 26C140.671 25.52 141.493 25.28 142.453 25.28C143.37 25.28 144.079 25.4613 144.581 25.824C145.082 26.1867 145.333 26.7307 145.333 27.456C145.333 28.0853 145.13 28.576 144.725 28.928C144.319 29.28 143.802 29.5253 143.173 29.664V29.696C143.642 29.8133 144.026 30.0107 144.325 30.288C144.623 30.5547 144.773 30.9653 144.773 31.52C144.773 31.9147 144.661 32.32 144.437 32.736C144.223 33.1413 143.861 33.4827 143.349 33.76C142.837 34.0267 142.149 34.16 141.285 34.16ZM141.237 29.152C141.706 29.152 142.143 29.104 142.549 29.008C142.965 28.912 143.295 28.752 143.541 28.528C143.797 28.2933 143.925 27.984 143.925 27.6C143.925 27.28 143.813 27.008 143.589 26.784C143.365 26.56 142.991 26.448 142.469 26.448C141.722 26.448 141.087 26.6827 140.565 27.152C140.053 27.6213 139.695 28.288 139.493 29.152H141.237ZM141.381 33.008C142.085 33.008 142.597 32.8587 142.917 32.56C143.247 32.2507 143.413 31.8987 143.413 31.504C143.413 31.0987 143.247 30.7947 142.917 30.592C142.586 30.3893 142.063 30.288 141.349 30.288H139.333V30.672C139.333 31.4933 139.519 32.0907 139.893 32.464C140.266 32.8267 140.762 33.008 141.381 33.008ZM149.765 34.128C148.773 34.128 147.989 33.8347 147.413 33.248C146.848 32.6507 146.565 31.8453 146.565 30.832C146.565 30.1707 146.656 29.5147 146.837 28.864C147.018 28.2133 147.285 27.6213 147.637 27.088C148 26.5547 148.448 26.128 148.981 25.808C149.525 25.4773 150.149 25.312 150.853 25.312C151.856 25.312 152.64 25.6107 153.205 26.208C153.77 26.7947 154.053 27.6 154.053 28.624C154.053 29.2747 153.962 29.9253 153.781 30.576C153.6 31.2267 153.328 31.8187 152.965 32.352C152.613 32.8853 152.17 33.3173 151.637 33.648C151.104 33.968 150.48 34.128 149.765 34.128ZM149.845 32.96C150.357 32.96 150.821 32.784 151.237 32.432C151.653 32.0693 151.984 31.552 152.229 30.88C152.485 30.208 152.613 29.4027 152.613 28.464C152.613 28.144 152.554 27.8347 152.437 27.536C152.33 27.2267 152.149 26.976 151.893 26.784C151.637 26.5813 151.296 26.48 150.869 26.48C150.282 26.48 149.77 26.6827 149.333 27.088C148.906 27.4827 148.576 28.016 148.341 28.688C148.106 29.3493 147.989 30.08 147.989 30.88C147.989 31.5413 148.149 32.0533 148.469 32.416C148.8 32.7787 149.258 32.96 149.845 32.96ZM158.968 34.112C158.829 34.112 158.701 34.096 158.584 34.064C158.466 34.0427 158.376 34.0213 158.312 34V32.784C158.461 32.848 158.637 32.88 158.84 32.88C159.181 32.88 159.474 32.768 159.72 32.544C159.965 32.32 160.2 31.9627 160.424 31.472C160.648 30.9813 160.893 30.336 161.16 29.536C161.405 28.8213 161.64 28.2027 161.864 27.68C162.088 27.1573 162.338 26.7253 162.616 26.384C162.904 26.032 163.256 25.7707 163.672 25.6C164.088 25.4293 164.605 25.344 165.224 25.344C165.586 25.344 165.938 25.3707 166.28 25.424C166.621 25.4667 166.93 25.5307 167.208 25.616L165.416 34H163.992L165.608 26.592C165.533 26.5707 165.442 26.5547 165.336 26.544C165.229 26.5333 165.117 26.528 165 26.528C164.562 26.528 164.205 26.6347 163.928 26.848C163.661 27.0507 163.416 27.4027 163.192 27.904C162.968 28.4053 162.701 29.1093 162.392 30.016C162.082 30.8907 161.784 31.6373 161.496 32.256C161.218 32.864 160.882 33.328 160.488 33.648C160.104 33.9573 159.597 34.112 158.968 34.112ZM175.399 34.128C174.396 34.128 173.633 33.8187 173.111 33.2C172.599 32.5813 172.343 31.792 172.343 30.832C172.343 30.6933 172.343 30.5653 172.343 30.448C172.353 30.32 172.359 30.224 172.359 30.16H170.391L169.575 34H168.167L169.991 25.424H171.383L170.647 28.992H172.551C172.892 27.7653 173.404 26.848 174.087 26.24C174.78 25.6213 175.569 25.312 176.455 25.312C177.468 25.312 178.231 25.6213 178.743 26.24C179.255 26.8587 179.511 27.6533 179.511 28.624C179.511 29.3173 179.42 29.9947 179.239 30.656C179.068 31.3067 178.807 31.8933 178.455 32.416C178.113 32.9387 177.687 33.3547 177.175 33.664C176.663 33.9733 176.071 34.128 175.399 34.128ZM175.495 32.96C175.975 32.96 176.407 32.7733 176.791 32.4C177.185 32.0267 177.495 31.504 177.719 30.832C177.953 30.16 178.071 29.3707 178.071 28.464C178.071 27.8667 177.927 27.3867 177.639 27.024C177.361 26.6613 176.961 26.48 176.439 26.48C175.991 26.48 175.596 26.6133 175.255 26.88C174.924 27.136 174.647 27.4773 174.423 27.904C174.199 28.3307 174.033 28.8053 173.927 29.328C173.82 29.84 173.767 30.3573 173.767 30.88C173.767 31.4987 173.905 32 174.183 32.384C174.471 32.768 174.908 32.96 175.495 32.96ZM183.897 34.16C182.969 34.16 182.265 33.8773 181.785 33.312C181.305 32.736 181.065 31.9787 181.065 31.04C181.065 30.432 181.15 29.8187 181.321 29.2C181.492 28.5813 181.742 28.016 182.073 27.504C182.414 26.9813 182.83 26.5653 183.321 26.256C183.822 25.9467 184.398 25.792 185.049 25.792C185.678 25.792 186.164 25.9253 186.505 26.192C186.857 26.4587 187.118 26.7787 187.289 27.152H187.337C187.348 27.0667 187.353 26.9867 187.353 26.912C187.353 26.8267 187.353 26.7573 187.353 26.704C187.353 25.392 187.177 24.4213 186.825 23.792C186.473 23.1627 185.934 22.848 185.209 22.848C184.942 22.848 184.654 22.88 184.345 22.944C184.046 23.008 183.774 23.0933 183.529 23.2L183.177 22.16C183.433 22.032 183.769 21.92 184.185 21.824C184.601 21.728 185.001 21.68 185.385 21.68C186.558 21.68 187.417 22.1013 187.961 22.944C188.505 23.7867 188.777 25.008 188.777 26.608C188.777 27.2587 188.718 27.936 188.601 28.64C188.484 29.3333 188.297 30.0107 188.041 30.672C187.796 31.3227 187.481 31.9147 187.097 32.448C186.713 32.9707 186.254 33.3867 185.721 33.696C185.188 34.0053 184.58 34.16 183.897 34.16ZM184.041 32.976C184.574 32.976 185.044 32.7733 185.449 32.368C185.854 31.9627 186.196 31.4347 186.473 30.784C186.75 30.1227 186.958 29.424 187.097 28.688C186.948 28.176 186.713 27.7493 186.393 27.408C186.073 27.056 185.668 26.88 185.177 26.88C184.697 26.88 184.249 27.0667 183.833 27.44C183.428 27.8133 183.102 28.3147 182.857 28.944C182.612 29.5627 182.489 30.256 182.489 31.024C182.489 31.5787 182.606 32.0427 182.841 32.416C183.086 32.7893 183.486 32.976 184.041 32.976ZM193.231 34.16C192.239 34.16 191.471 33.872 190.927 33.296C190.394 32.7093 190.127 31.92 190.127 30.928C190.127 30.2453 190.223 29.5733 190.415 28.912C190.618 28.24 190.906 27.632 191.279 27.088C191.653 26.5333 192.101 26.0907 192.623 25.76C193.157 25.4293 193.754 25.264 194.415 25.264C195.226 25.264 195.834 25.44 196.239 25.792C196.655 26.144 196.863 26.6347 196.863 27.264C196.863 27.8187 196.687 28.3253 196.335 28.784C195.994 29.2427 195.455 29.6107 194.719 29.888C193.983 30.1547 193.029 30.288 191.855 30.288H191.583C191.573 30.384 191.562 30.4853 191.551 30.592C191.551 30.6987 191.551 30.7947 191.551 30.88C191.551 31.5307 191.711 32.048 192.031 32.432C192.351 32.8053 192.837 32.992 193.487 32.992C193.893 32.992 194.277 32.9333 194.639 32.816C195.002 32.6987 195.397 32.5387 195.823 32.336V33.536C195.418 33.7173 195.018 33.8667 194.623 33.984C194.239 34.1013 193.775 34.16 193.231 34.16ZM191.903 29.152C192.543 29.152 193.135 29.0987 193.679 28.992C194.223 28.8747 194.661 28.688 194.991 28.432C195.322 28.1653 195.487 27.8133 195.487 27.376C195.487 27.0987 195.391 26.8747 195.199 26.704C195.018 26.5227 194.73 26.432 194.335 26.432C193.823 26.432 193.327 26.672 192.847 27.152C192.378 27.6213 192.026 28.288 191.791 29.152H191.903ZM203.104 24.304C202.197 24.304 201.546 24.128 201.152 23.776C200.768 23.4133 200.576 22.944 200.576 22.368C200.576 22.1653 200.597 21.9893 200.64 21.84H201.872C201.84 22.0107 201.824 22.16 201.824 22.288C201.824 22.5867 201.925 22.832 202.128 23.024C202.341 23.2053 202.693 23.296 203.184 23.296C203.685 23.296 204.096 23.2 204.416 23.008C204.746 22.8053 204.965 22.416 205.072 21.84H206.416C206.277 22.5867 205.946 23.184 205.424 23.632C204.912 24.08 204.138 24.304 203.104 24.304ZM200.368 34.16C199.717 34.16 199.194 33.9787 198.8 33.616C198.416 33.2533 198.224 32.7253 198.224 32.032C198.224 31.7867 198.24 31.5573 198.272 31.344C198.314 31.12 198.357 30.8907 198.4 30.656L199.52 25.424H200.944L199.792 30.816C199.696 31.2747 199.648 31.632 199.648 31.888C199.648 32.2293 199.733 32.5013 199.904 32.704C200.085 32.896 200.373 32.992 200.768 32.992C201.13 32.992 201.52 32.864 201.936 32.608C202.362 32.352 202.757 31.9413 203.12 31.376C203.482 30.8107 203.765 30.0587 203.968 29.12L204.752 25.424H206.144L204.32 34H203.168L203.344 32.416H203.264C203.061 32.672 202.821 32.9387 202.544 33.216C202.277 33.4827 201.962 33.7067 201.6 33.888C201.248 34.0693 200.837 34.16 200.368 34.16ZM206.465 36.448L208.753 31.936H210.353L207.409 36.448H206.465ZM218.949 34.16C218.459 34.16 218 34.0853 217.573 33.936C217.157 33.7867 216.821 33.552 216.565 33.232C216.309 32.912 216.181 32.496 216.181 31.984C216.181 31.4187 216.325 30.96 216.613 30.608C216.901 30.2453 217.264 29.9467 217.701 29.712C218.139 29.4773 218.587 29.28 219.045 29.12C219.685 28.8747 220.208 28.6293 220.613 28.384C221.029 28.128 221.237 27.7813 221.237 27.344C221.237 27.0773 221.152 26.864 220.981 26.704C220.811 26.5333 220.507 26.448 220.069 26.448C219.653 26.448 219.243 26.5067 218.837 26.624C218.432 26.7307 218.059 26.8587 217.717 27.008L217.333 25.888C217.707 25.7493 218.133 25.616 218.613 25.488C219.093 25.3493 219.627 25.28 220.213 25.28C220.928 25.28 221.515 25.4347 221.973 25.744C222.432 26.0427 222.661 26.5493 222.661 27.264C222.661 27.7547 222.528 28.1707 222.261 28.512C222.005 28.8533 221.675 29.136 221.269 29.36C220.864 29.584 220.432 29.7813 219.973 29.952C219.493 30.1333 219.072 30.3093 218.709 30.48C218.357 30.64 218.085 30.8267 217.893 31.04C217.701 31.2533 217.605 31.5307 217.605 31.872C217.605 32.2133 217.728 32.4853 217.973 32.688C218.229 32.8907 218.624 32.992 219.157 32.992C219.595 32.992 220.016 32.928 220.421 32.8C220.827 32.672 221.221 32.5173 221.605 32.336V33.568C221.232 33.7387 220.832 33.8827 220.405 34C219.979 34.1067 219.493 34.16 218.949 34.16ZM226.725 34.16C225.797 34.16 225.093 33.8773 224.613 33.312C224.133 32.736 223.893 31.9787 223.893 31.04C223.893 30.432 223.978 29.8187 224.149 29.2C224.32 28.5813 224.57 28.016 224.901 27.504C225.242 26.9813 225.658 26.5653 226.149 26.256C226.65 25.9467 227.226 25.792 227.877 25.792C228.506 25.792 228.992 25.9253 229.333 26.192C229.685 26.4587 229.946 26.7787 230.117 27.152H230.165C230.176 27.0667 230.181 26.9867 230.181 26.912C230.181 26.8267 230.181 26.7573 230.181 26.704C230.181 25.392 230.005 24.4213 229.653 23.792C229.301 23.1627 228.762 22.848 228.037 22.848C227.77 22.848 227.482 22.88 227.173 22.944C226.874 23.008 226.602 23.0933 226.357 23.2L226.005 22.16C226.261 22.032 226.597 21.92 227.013 21.824C227.429 21.728 227.829 21.68 228.213 21.68C229.386 21.68 230.245 22.1013 230.789 22.944C231.333 23.7867 231.605 25.008 231.605 26.608C231.605 27.2587 231.546 27.936 231.429 28.64C231.312 29.3333 231.125 30.0107 230.869 30.672C230.624 31.3227 230.309 31.9147 229.925 32.448C229.541 32.9707 229.082 33.3867 228.549 33.696C228.016 34.0053 227.408 34.16 226.725 34.16ZM226.869 32.976C227.402 32.976 227.872 32.7733 228.277 32.368C228.682 31.9627 229.024 31.4347 229.301 30.784C229.578 30.1227 229.786 29.424 229.925 28.688C229.776 28.176 229.541 27.7493 229.221 27.408C228.901 27.056 228.496 26.88 228.005 26.88C227.525 26.88 227.077 27.0667 226.661 27.44C226.256 27.8133 225.93 28.3147 225.685 28.944C225.44 29.5627 225.317 30.256 225.317 31.024C225.317 31.5787 225.434 32.0427 225.669 32.416C225.914 32.7893 226.314 32.976 226.869 32.976ZM236.06 34.16C235.068 34.16 234.3 33.872 233.756 33.296C233.222 32.7093 232.956 31.92 232.956 30.928C232.956 30.2453 233.052 29.5733 233.243 28.912C233.446 28.24 233.734 27.632 234.108 27.088C234.481 26.5333 234.929 26.0907 235.452 25.76C235.985 25.4293 236.582 25.264 237.244 25.264C238.054 25.264 238.662 25.44 239.068 25.792C239.484 26.144 239.692 26.6347 239.692 27.264C239.692 27.8187 239.516 28.3253 239.164 28.784C238.822 29.2427 238.284 29.6107 237.548 29.888C236.812 30.1547 235.857 30.288 234.684 30.288H234.412C234.401 30.384 234.39 30.4853 234.38 30.592C234.38 30.6987 234.38 30.7947 234.38 30.88C234.38 31.5307 234.54 32.048 234.86 32.432C235.18 32.8053 235.665 32.992 236.316 32.992C236.721 32.992 237.105 32.9333 237.468 32.816C237.83 32.6987 238.225 32.5387 238.652 32.336V33.536C238.246 33.7173 237.846 33.8667 237.452 33.984C237.068 34.1013 236.604 34.16 236.06 34.16ZM234.732 29.152C235.372 29.152 235.964 29.0987 236.508 28.992C237.052 28.8747 237.489 28.688 237.82 28.432C238.15 28.1653 238.316 27.8133 238.316 27.376C238.316 27.0987 238.22 26.8747 238.028 26.704C237.846 26.5227 237.558 26.432 237.164 26.432C236.652 26.432 236.156 26.672 235.676 27.152C235.206 27.6213 234.854 28.288 234.62 29.152H234.732ZM1.448 55L3.272 46.424H4.664L3.928 49.992H7.96L8.728 46.424H10.136L8.328 55H6.904L7.704 51.16H3.672L2.856 55H1.448ZM13.6334 55.16C12.9827 55.16 12.46 54.9787 12.0654 54.616C11.6814 54.2533 11.4894 53.7253 11.4894 53.032C11.4894 52.7867 11.5054 52.5573 11.5374 52.344C11.58 52.12 11.6227 51.8907 11.6654 51.656L12.7854 46.424H14.2094L13.0574 51.816C12.9614 52.2747 12.9134 52.632 12.9134 52.888C12.9134 53.2293 12.9987 53.5013 13.1694 53.704C13.3507 53.896 13.6387 53.992 14.0334 53.992C14.396 53.992 14.7854 53.864 15.2014 53.608C15.628 53.352 16.0227 52.9413 16.3854 52.376C16.748 51.8107 17.0307 51.0587 17.2334 50.12L18.0174 46.424H19.4094L17.5854 55H16.4334L16.6094 53.416H16.5294C16.3267 53.672 16.0867 53.9387 15.8094 54.216C15.5427 54.4827 15.228 54.7067 14.8654 54.888C14.5134 55.0693 14.1027 55.16 13.6334 55.16ZM20.323 55L22.131 46.424H23.523L22.643 50.552L26.643 46.424H28.403L24.163 50.664L27.027 55H25.347L22.627 50.728L21.731 55H20.323ZM28.1043 55L29.9283 46.424H31.0803L30.9043 48.008H30.9843C31.1763 47.7413 31.4003 47.4747 31.6562 47.208C31.9229 46.9413 32.2269 46.7173 32.5683 46.536C32.9203 46.3547 33.3149 46.264 33.7523 46.264C34.3389 46.264 34.7869 46.4347 35.0963 46.776C35.4163 47.1067 35.6083 47.5707 35.6723 48.168H35.7362C35.9496 47.848 36.2003 47.544 36.4883 47.256C36.7869 46.968 37.1176 46.7333 37.4803 46.552C37.8429 46.36 38.2429 46.264 38.6803 46.264C39.3416 46.264 39.8536 46.4453 40.2163 46.808C40.5789 47.1707 40.7603 47.6933 40.7603 48.376C40.7603 48.632 40.7443 48.872 40.7123 49.096C40.6803 49.3093 40.6376 49.5387 40.5843 49.784L39.4803 55H38.0563L39.2083 49.624C39.2616 49.3787 39.2989 49.1707 39.3203 49C39.3416 48.8293 39.3523 48.664 39.3523 48.504C39.3523 48.184 39.2616 47.928 39.0803 47.736C38.9096 47.544 38.6376 47.448 38.2643 47.448C37.9229 47.448 37.5549 47.576 37.1603 47.832C36.7763 48.088 36.4136 48.488 36.0723 49.032C35.7416 49.5653 35.4856 50.264 35.3043 51.128L34.4883 55H33.0803L34.2163 49.624C34.3123 49.144 34.3603 48.792 34.3603 48.568C34.3603 48.216 34.2803 47.944 34.1203 47.752C33.9603 47.5493 33.6936 47.448 33.3203 47.448C32.9789 47.448 32.6109 47.576 32.2163 47.832C31.8216 48.0773 31.4536 48.4827 31.1123 49.048C30.7709 49.6133 30.4989 50.3653 30.2963 51.304L29.5123 55H28.1043ZM45.6243 55.128C44.6323 55.128 43.8483 54.8347 43.2723 54.248C42.7069 53.6507 42.4243 52.8453 42.4243 51.832C42.4243 51.1707 42.5149 50.5147 42.6963 49.864C42.8776 49.2133 43.1443 48.6213 43.4963 48.088C43.8589 47.5547 44.3069 47.128 44.8403 46.808C45.3843 46.4773 46.0083 46.312 46.7123 46.312C47.7149 46.312 48.4989 46.6107 49.0643 47.208C49.6296 47.7947 49.9123 48.6 49.9123 49.624C49.9123 50.2747 49.8216 50.9253 49.6403 51.576C49.4589 52.2267 49.1869 52.8187 48.8243 53.352C48.4723 53.8853 48.0296 54.3173 47.4963 54.648C46.9629 54.968 46.3389 55.128 45.6243 55.128ZM45.7043 53.96C46.2163 53.96 46.6803 53.784 47.0963 53.432C47.5123 53.0693 47.8429 52.552 48.0883 51.88C48.3443 51.208 48.4723 50.4027 48.4723 49.464C48.4723 49.144 48.4136 48.8347 48.2963 48.536C48.1896 48.2267 48.0083 47.976 47.7523 47.784C47.4963 47.5813 47.1549 47.48 46.7283 47.48C46.1416 47.48 45.6296 47.6827 45.1923 48.088C44.7656 48.4827 44.4349 49.016 44.2003 49.688C43.9656 50.3493 43.8483 51.08 43.8483 51.88C43.8483 52.5413 44.0083 53.0533 44.3283 53.416C44.6589 53.7787 45.1176 53.96 45.7043 53.96ZM55.323 55L57.147 46.424H58.539L57.803 49.992H61.835L62.603 46.424H64.011L62.203 55H60.779L61.579 51.16H57.547L56.731 55H55.323ZM68.3564 55.16C67.3644 55.16 66.5964 54.872 66.0524 54.296C65.519 53.7093 65.2524 52.92 65.2524 51.928C65.2524 51.2453 65.3484 50.5733 65.5404 49.912C65.743 49.24 66.031 48.632 66.4044 48.088C66.7777 47.5333 67.2257 47.0907 67.7484 46.76C68.2817 46.4293 68.879 46.264 69.5404 46.264C70.351 46.264 70.959 46.44 71.3644 46.792C71.7804 47.144 71.9884 47.6347 71.9884 48.264C71.9884 48.8187 71.8124 49.3253 71.4604 49.784C71.119 50.2427 70.5804 50.6107 69.8444 50.888C69.1084 51.1547 68.1537 51.288 66.9804 51.288H66.7084C66.6977 51.384 66.687 51.4853 66.6764 51.592C66.6764 51.6987 66.6764 51.7947 66.6764 51.88C66.6764 52.5307 66.8364 53.048 67.1564 53.432C67.4764 53.8053 67.9617 53.992 68.6124 53.992C69.0177 53.992 69.4017 53.9333 69.7644 53.816C70.127 53.6987 70.5217 53.5387 70.9484 53.336V54.536C70.543 54.7173 70.143 54.8667 69.7484 54.984C69.3644 55.1013 68.9004 55.16 68.3564 55.16ZM67.0284 50.152C67.6684 50.152 68.2604 50.0987 68.8044 49.992C69.3484 49.8747 69.7857 49.688 70.1164 49.432C70.447 49.1653 70.6124 48.8133 70.6124 48.376C70.6124 48.0987 70.5164 47.8747 70.3244 47.704C70.143 47.5227 69.855 47.432 69.4604 47.432C68.9484 47.432 68.4524 47.672 67.9724 48.152C67.503 48.6213 67.151 49.288 66.9164 50.152H67.0284ZM80.8159 55.16C79.6425 55.16 78.7839 54.84 78.2399 54.2C77.7065 53.5493 77.4399 52.6907 77.4399 51.624C77.4399 50.6213 77.6159 49.72 77.9679 48.92C78.3305 48.1093 78.8479 47.4693 79.5199 47C80.2025 46.52 81.0239 46.28 81.9839 46.28C82.9012 46.28 83.6105 46.4613 84.1119 46.824C84.6132 47.1867 84.8639 47.7307 84.8639 48.456C84.8639 49.0853 84.6612 49.576 84.2559 49.928C83.8505 50.28 83.3332 50.5253 82.7039 50.664V50.696C83.1732 50.8133 83.5572 51.0107 83.8559 51.288C84.1545 51.5547 84.3039 51.9653 84.3039 52.52C84.3039 52.9147 84.1919 53.32 83.9679 53.736C83.7545 54.1413 83.3919 54.4827 82.8799 54.76C82.3679 55.0267 81.6799 55.16 80.8159 55.16ZM80.7679 50.152C81.2372 50.152 81.6745 50.104 82.0799 50.008C82.4959 49.912 82.8265 49.752 83.0719 49.528C83.3279 49.2933 83.4559 48.984 83.4559 48.6C83.4559 48.28 83.3439 48.008 83.1199 47.784C82.8959 47.56 82.5225 47.448 81.9999 47.448C81.2532 47.448 80.6185 47.6827 80.0959 48.152C79.5839 48.6213 79.2265 49.288 79.0239 50.152H80.7679ZM80.9119 54.008C81.6159 54.008 82.1279 53.8587 82.4479 53.56C82.7785 53.2507 82.9439 52.8987 82.9439 52.504C82.9439 52.0987 82.7785 51.7947 82.4479 51.592C82.1172 51.3893 81.5945 51.288 80.8799 51.288H78.8639V51.672C78.8639 52.4933 79.0505 53.0907 79.4239 53.464C79.7972 53.8267 80.2932 54.008 80.9119 54.008ZM89.2001 55.16C88.2081 55.16 87.4401 54.872 86.8961 54.296C86.3628 53.7093 86.0961 52.92 86.0961 51.928C86.0961 51.2453 86.1921 50.5733 86.3841 49.912C86.5868 49.24 86.8748 48.632 87.2481 48.088C87.6215 47.5333 88.0695 47.0907 88.5921 46.76C89.1255 46.4293 89.7228 46.264 90.3841 46.264C91.1948 46.264 91.8028 46.44 92.2081 46.792C92.6241 47.144 92.8321 47.6347 92.8321 48.264C92.8321 48.8187 92.6561 49.3253 92.3041 49.784C91.9628 50.2427 91.4241 50.6107 90.6881 50.888C89.9521 51.1547 88.9975 51.288 87.8241 51.288H87.5521C87.5415 51.384 87.5308 51.4853 87.5201 51.592C87.5201 51.6987 87.5201 51.7947 87.5201 51.88C87.5201 52.5307 87.6801 53.048 88.0001 53.432C88.3201 53.8053 88.8055 53.992 89.4561 53.992C89.8615 53.992 90.2455 53.9333 90.6081 53.816C90.9708 53.6987 91.3655 53.5387 91.7921 53.336V54.536C91.3868 54.7173 90.9868 54.8667 90.5921 54.984C90.2081 55.1013 89.7441 55.16 89.2001 55.16ZM87.8721 50.152C88.5121 50.152 89.1041 50.0987 89.6481 49.992C90.1921 49.8747 90.6295 49.688 90.9601 49.432C91.2908 49.1653 91.4561 48.8133 91.4561 48.376C91.4561 48.0987 91.3601 47.8747 91.1681 47.704C90.9868 47.5227 90.6988 47.432 90.3041 47.432C89.7921 47.432 89.2961 47.672 88.8161 48.152C88.3468 48.6213 87.9948 49.288 87.7601 50.152H87.8721ZM96.9125 55.16C95.9845 55.16 95.2805 54.8773 94.8005 54.312C94.3205 53.736 94.0805 52.9787 94.0805 52.04C94.0805 51.432 94.1658 50.8187 94.3365 50.2C94.5072 49.5813 94.7578 49.016 95.0885 48.504C95.4298 47.9813 95.8458 47.5653 96.3365 47.256C96.8378 46.9467 97.4138 46.792 98.0645 46.792C98.6938 46.792 99.1792 46.9253 99.5205 47.192C99.8725 47.4587 100.134 47.7787 100.305 48.152H100.353C100.363 48.0667 100.369 47.9867 100.369 47.912C100.369 47.8267 100.369 47.7573 100.369 47.704C100.369 46.392 100.193 45.4213 99.8405 44.792C99.4885 44.1627 98.9498 43.848 98.2245 43.848C97.9578 43.848 97.6698 43.88 97.3605 43.944C97.0618 44.008 96.7898 44.0933 96.5445 44.2L96.1925 43.16C96.4485 43.032 96.7845 42.92 97.2005 42.824C97.6165 42.728 98.0165 42.68 98.4005 42.68C99.5738 42.68 100.433 43.1013 100.977 43.944C101.521 44.7867 101.793 46.008 101.793 47.608C101.793 48.2587 101.734 48.936 101.617 49.64C101.499 50.3333 101.313 51.0107 101.057 51.672C100.811 52.3227 100.497 52.9147 100.113 53.448C99.7285 53.9707 99.2698 54.3867 98.7365 54.696C98.2032 55.0053 97.5952 55.16 96.9125 55.16ZM97.0565 53.976C97.5898 53.976 98.0592 53.7733 98.4645 53.368C98.8698 52.9627 99.2112 52.4347 99.4885 51.784C99.7658 51.1227 99.9738 50.424 100.113 49.688C99.9632 49.176 99.7285 48.7493 99.4085 48.408C99.0885 48.056 98.6832 47.88 98.1925 47.88C97.7125 47.88 97.2645 48.0667 96.8485 48.44C96.4432 48.8133 96.1178 49.3147 95.8725 49.944C95.6272 50.5627 95.5045 51.256 95.5045 52.024C95.5045 52.5787 95.6218 53.0427 95.8565 53.416C96.1018 53.7893 96.5018 53.976 97.0565 53.976ZM106.247 55.16C105.255 55.16 104.487 54.872 103.943 54.296C103.41 53.7093 103.143 52.92 103.143 51.928C103.143 51.2453 103.239 50.5733 103.431 49.912C103.634 49.24 103.922 48.632 104.295 48.088C104.668 47.5333 105.116 47.0907 105.639 46.76C106.172 46.4293 106.77 46.264 107.431 46.264C108.242 46.264 108.85 46.44 109.255 46.792C109.671 47.144 109.879 47.6347 109.879 48.264C109.879 48.8187 109.703 49.3253 109.351 49.784C109.01 50.2427 108.471 50.6107 107.735 50.888C106.999 51.1547 106.044 51.288 104.871 51.288H104.599C104.588 51.384 104.578 51.4853 104.567 51.592C104.567 51.6987 104.567 51.7947 104.567 51.88C104.567 52.5307 104.727 53.048 105.047 53.432C105.367 53.8053 105.852 53.992 106.503 53.992C106.908 53.992 107.292 53.9333 107.655 53.816C108.018 53.6987 108.412 53.5387 108.839 53.336V54.536C108.434 54.7173 108.034 54.8667 107.639 54.984C107.255 55.1013 106.791 55.16 106.247 55.16ZM104.919 50.152C105.559 50.152 106.151 50.0987 106.695 49.992C107.239 49.8747 107.676 49.688 108.007 49.432C108.338 49.1653 108.503 48.8133 108.503 48.376C108.503 48.0987 108.407 47.8747 108.215 47.704C108.034 47.5227 107.746 47.432 107.351 47.432C106.839 47.432 106.343 47.672 105.863 48.152C105.394 48.6213 105.042 49.288 104.807 50.152H104.919ZM110.807 55L112.631 46.424H113.783L113.607 48.008H113.687C113.879 47.7413 114.103 47.4747 114.359 47.208C114.626 46.9413 114.93 46.7173 115.271 46.536C115.623 46.3547 116.018 46.264 116.455 46.264C117.042 46.264 117.49 46.4347 117.799 46.776C118.119 47.1067 118.311 47.5707 118.375 48.168H118.439C118.653 47.848 118.903 47.544 119.191 47.256C119.49 46.968 119.821 46.7333 120.183 46.552C120.546 46.36 120.946 46.264 121.383 46.264C122.045 46.264 122.557 46.4453 122.919 46.808C123.282 47.1707 123.463 47.6933 123.463 48.376C123.463 48.632 123.447 48.872 123.415 49.096C123.383 49.3093 123.341 49.5387 123.287 49.784L122.183 55H120.759L121.911 49.624C121.965 49.3787 122.002 49.1707 122.023 49C122.045 48.8293 122.055 48.664 122.055 48.504C122.055 48.184 121.965 47.928 121.783 47.736C121.613 47.544 121.341 47.448 120.967 47.448C120.626 47.448 120.258 47.576 119.863 47.832C119.479 48.088 119.117 48.488 118.775 49.032C118.445 49.5653 118.189 50.264 118.007 51.128L117.191 55H115.783L116.919 49.624C117.015 49.144 117.063 48.792 117.063 48.568C117.063 48.216 116.983 47.944 116.823 47.752C116.663 47.5493 116.397 47.448 116.023 47.448C115.682 47.448 115.314 47.576 114.919 47.832C114.525 48.0773 114.157 48.4827 113.815 49.048C113.474 49.6133 113.202 50.3653 112.999 51.304L112.215 55H110.807ZM132.515 55.16C131.565 55.16 130.797 54.8933 130.211 54.36C129.624 53.8267 129.331 53.0267 129.331 51.96C129.331 51.192 129.432 50.4667 129.635 49.784C129.848 49.0907 130.147 48.4827 130.531 47.96C130.925 47.4373 131.4 47.0267 131.955 46.728C132.509 46.4187 133.128 46.264 133.811 46.264C134.184 46.264 134.557 46.3013 134.931 46.376C135.304 46.4507 135.64 46.552 135.939 46.68L135.539 47.848C135.325 47.752 135.069 47.6613 134.771 47.576C134.483 47.4907 134.168 47.448 133.827 47.448C133.219 47.448 132.685 47.656 132.227 48.072C131.768 48.4773 131.411 49.0213 131.155 49.704C130.899 50.3867 130.771 51.1333 130.771 51.944C130.771 52.5947 130.936 53.1013 131.267 53.464C131.608 53.816 132.072 53.992 132.659 53.992C133.032 53.992 133.384 53.9387 133.715 53.832C134.056 53.7253 134.392 53.6027 134.723 53.464V54.648C134.424 54.7973 134.088 54.92 133.715 55.016C133.352 55.112 132.952 55.16 132.515 55.16ZM139.685 55.16C138.693 55.16 137.925 54.872 137.381 54.296C136.847 53.7093 136.581 52.92 136.581 51.928C136.581 51.2453 136.677 50.5733 136.868 49.912C137.071 49.24 137.359 48.632 137.733 48.088C138.106 47.5333 138.554 47.0907 139.077 46.76C139.61 46.4293 140.207 46.264 140.869 46.264C141.679 46.264 142.287 46.44 142.693 46.792C143.109 47.144 143.317 47.6347 143.317 48.264C143.317 48.8187 143.141 49.3253 142.789 49.784C142.447 50.2427 141.909 50.6107 141.173 50.888C140.437 51.1547 139.482 51.288 138.309 51.288H138.037C138.026 51.384 138.015 51.4853 138.005 51.592C138.005 51.6987 138.005 51.7947 138.005 51.88C138.005 52.5307 138.165 53.048 138.485 53.432C138.805 53.8053 139.29 53.992 139.941 53.992C140.346 53.992 140.73 53.9333 141.093 53.816C141.455 53.6987 141.85 53.5387 142.277 53.336V54.536C141.871 54.7173 141.471 54.8667 141.077 54.984C140.693 55.1013 140.229 55.16 139.685 55.16ZM138.357 50.152C138.997 50.152 139.589 50.0987 140.133 49.992C140.677 49.8747 141.114 49.688 141.445 49.432C141.775 49.1653 141.941 48.8133 141.941 48.376C141.941 48.0987 141.845 47.8747 141.653 47.704C141.471 47.5227 141.183 47.432 140.789 47.432C140.277 47.432 139.781 47.672 139.301 48.152C138.831 48.6213 138.479 49.288 138.245 50.152H138.357ZM147.637 55.16C146.666 55.16 145.914 54.856 145.381 54.248C144.848 53.6293 144.581 52.728 144.581 51.544C144.581 51.064 144.624 50.5147 144.709 49.896C144.805 49.2667 144.949 48.6267 145.141 47.976C145.344 47.3147 145.6 46.6853 145.909 46.088C146.229 45.4907 146.613 44.9733 147.061 44.536C147.52 44.0987 148.053 43.7893 148.661 43.608C148.853 43.544 149.13 43.4747 149.493 43.4C149.866 43.3147 150.272 43.2293 150.709 43.144C151.146 43.048 151.562 42.968 151.957 42.904C152.352 42.84 152.666 42.792 152.901 42.76L153.061 43.912C152.762 43.9547 152.378 44.0187 151.909 44.104C151.44 44.1893 150.965 44.2853 150.485 44.392C150.016 44.488 149.616 44.5893 149.285 44.696C148.602 44.9093 148.021 45.336 147.541 45.976C147.061 46.616 146.682 47.4427 146.405 48.456L146.453 48.472C146.741 48.1307 147.13 47.8053 147.621 47.496C148.112 47.1867 148.672 47.032 149.301 47.032C150.112 47.032 150.714 47.288 151.109 47.8C151.514 48.3013 151.717 49.0053 151.717 49.912C151.717 50.5627 151.637 51.2027 151.477 51.832C151.328 52.4507 151.088 53.0107 150.757 53.512C150.437 54.0133 150.016 54.4133 149.493 54.712C148.981 55.0107 148.362 55.16 147.637 55.16ZM147.765 53.992C148.234 53.992 148.629 53.864 148.949 53.608C149.269 53.3413 149.525 53.0053 149.717 52.6C149.92 52.184 150.064 51.752 150.149 51.304C150.234 50.8453 150.277 50.4293 150.277 50.056C150.277 49.416 150.165 48.9467 149.941 48.648C149.717 48.3493 149.381 48.2 148.933 48.2C148.538 48.2 148.16 48.296 147.797 48.488C147.445 48.68 147.13 48.9093 146.853 49.176C146.576 49.432 146.352 49.6773 146.181 49.912C146.138 50.2 146.096 50.488 146.053 50.776C146.021 51.064 146.005 51.336 146.005 51.592C146.005 52.3067 146.138 52.888 146.405 53.336C146.672 53.7733 147.125 53.992 147.765 53.992ZM152.852 55.096C152.713 55.096 152.59 55.0853 152.484 55.064C152.366 55.0427 152.27 55.0213 152.196 55V53.88C152.313 53.912 152.446 53.928 152.596 53.928C152.873 53.928 153.102 53.8373 153.284 53.656C153.465 53.464 153.673 53.1227 153.908 52.632C154.068 52.2907 154.26 51.9867 154.484 51.72C154.708 51.4533 155.001 51.2507 155.364 51.112C154.852 50.9627 154.473 50.712 154.228 50.36C153.993 50.008 153.876 49.6027 153.876 49.144C153.876 48.3653 154.158 47.72 154.724 47.208C155.289 46.6853 156.137 46.424 157.268 46.424H160.532L158.724 55H157.332L158.052 51.624H157.012C156.51 51.624 156.142 51.7467 155.908 51.992C155.673 52.2373 155.433 52.6053 155.188 53.096C154.985 53.5227 154.782 53.8853 154.58 54.184C154.388 54.4827 154.158 54.712 153.892 54.872C153.625 55.0213 153.278 55.096 152.852 55.096ZM156.9 50.424H158.308L158.9 47.624H157.044C156.478 47.624 156.041 47.7627 155.732 48.04C155.422 48.3067 155.268 48.6747 155.268 49.144C155.268 49.624 155.422 49.96 155.732 50.152C156.052 50.3333 156.441 50.424 156.9 50.424ZM169.378 55.16C168.205 55.16 167.346 54.84 166.802 54.2C166.269 53.5493 166.002 52.6907 166.002 51.624C166.002 50.6213 166.178 49.72 166.53 48.92C166.893 48.1093 167.41 47.4693 168.082 47C168.765 46.52 169.586 46.28 170.546 46.28C171.464 46.28 172.173 46.4613 172.674 46.824C173.176 47.1867 173.426 47.7307 173.426 48.456C173.426 49.0853 173.224 49.576 172.818 49.928C172.413 50.28 171.896 50.5253 171.266 50.664V50.696C171.736 50.8133 172.12 51.0107 172.418 51.288C172.717 51.5547 172.866 51.9653 172.866 52.52C172.866 52.9147 172.754 53.32 172.53 53.736C172.317 54.1413 171.954 54.4827 171.442 54.76C170.93 55.0267 170.242 55.16 169.378 55.16ZM169.33 50.152C169.8 50.152 170.237 50.104 170.642 50.008C171.058 49.912 171.389 49.752 171.634 49.528C171.89 49.2933 172.018 48.984 172.018 48.6C172.018 48.28 171.906 48.008 171.682 47.784C171.458 47.56 171.085 47.448 170.562 47.448C169.816 47.448 169.181 47.6827 168.658 48.152C168.146 48.6213 167.789 49.288 167.586 50.152H169.33ZM169.474 54.008C170.178 54.008 170.69 53.8587 171.01 53.56C171.341 53.2507 171.506 52.8987 171.506 52.504C171.506 52.0987 171.341 51.7947 171.01 51.592C170.68 51.3893 170.157 51.288 169.442 51.288H167.426V51.672C167.426 52.4933 167.613 53.0907 167.986 53.464C168.36 53.8267 168.856 54.008 169.474 54.008ZM177.667 55.16C176.813 55.16 176.136 54.9627 175.635 54.568C175.133 54.1627 174.883 53.5387 174.883 52.696C174.883 52.4827 174.899 52.2373 174.931 51.96C174.973 51.6827 175.016 51.4267 175.059 51.192L176.067 46.424H177.491L176.691 50.152C176.947 50.0987 177.219 50.056 177.507 50.024C177.805 49.9813 178.104 49.96 178.403 49.96C179.267 49.96 179.917 50.1573 180.355 50.552C180.792 50.936 181.011 51.4907 181.011 52.216C181.011 52.7493 180.888 53.24 180.643 53.688C180.408 54.136 180.045 54.4933 179.555 54.76C179.064 55.0267 178.435 55.16 177.667 55.16ZM181.859 55L183.667 46.424H185.075L183.251 55H181.859ZM177.747 54.008C178.408 54.008 178.883 53.8427 179.171 53.512C179.469 53.1707 179.619 52.7813 179.619 52.344C179.619 51.8747 179.48 51.5547 179.203 51.384C178.936 51.2027 178.536 51.112 178.003 51.112C177.736 51.112 177.469 51.128 177.203 51.16C176.947 51.1813 176.696 51.2187 176.451 51.272C176.387 51.5813 176.339 51.8373 176.307 52.04C176.285 52.232 176.275 52.408 176.275 52.568C176.275 53.0267 176.387 53.384 176.611 53.64C176.845 53.8853 177.224 54.008 177.747 54.008ZM187.979 55.16C187.521 55.16 187.067 55.1067 186.619 55C186.182 54.904 185.814 54.776 185.515 54.616V53.32C185.793 53.4693 186.15 53.624 186.587 53.784C187.025 53.9333 187.526 54.008 188.091 54.008C188.763 54.008 189.297 53.864 189.691 53.576C190.097 53.2773 190.299 52.888 190.299 52.408C190.299 52.0347 190.187 51.7307 189.963 51.496C189.75 51.2613 189.323 51.144 188.683 51.144H187.499L187.771 49.96H188.555C188.907 49.96 189.254 49.9227 189.595 49.848C189.947 49.7733 190.235 49.6293 190.459 49.416C190.683 49.2027 190.795 48.8933 190.795 48.488C190.795 48.168 190.683 47.9173 190.459 47.736C190.246 47.544 189.915 47.448 189.467 47.448C189.094 47.448 188.737 47.496 188.395 47.592C188.054 47.6773 187.675 47.8107 187.259 47.992L186.843 46.92C187.281 46.7067 187.718 46.5467 188.155 46.44C188.603 46.3227 189.105 46.264 189.659 46.264C190.459 46.264 191.083 46.44 191.531 46.792C191.979 47.144 192.203 47.64 192.203 48.28C192.203 48.856 192.027 49.336 191.675 49.72C191.334 50.0933 190.838 50.3547 190.187 50.504V50.536C190.646 50.6533 191.003 50.8613 191.259 51.16C191.515 51.4587 191.643 51.8587 191.643 52.36C191.643 53.1493 191.339 53.816 190.731 54.36C190.134 54.8933 189.217 55.16 187.979 55.16ZM196.417 55.16C195.563 55.16 194.886 54.9627 194.385 54.568C193.883 54.1627 193.633 53.5387 193.633 52.696C193.633 52.4827 193.649 52.2373 193.681 51.96C193.723 51.6827 193.766 51.4267 193.809 51.192L194.817 46.424H196.241L195.441 50.152C195.697 50.0987 195.969 50.056 196.257 50.024C196.555 49.9813 196.854 49.96 197.153 49.96C198.017 49.96 198.667 50.1573 199.105 50.552C199.542 50.936 199.761 51.4907 199.761 52.216C199.761 52.7493 199.638 53.24 199.393 53.688C199.158 54.136 198.795 54.4933 198.305 54.76C197.814 55.0267 197.185 55.16 196.417 55.16ZM200.609 55L202.417 46.424H203.825L202.001 55H200.609ZM196.497 54.008C197.158 54.008 197.633 53.8427 197.921 53.512C198.219 53.1707 198.369 52.7813 198.369 52.344C198.369 51.8747 198.23 51.5547 197.953 51.384C197.686 51.2027 197.286 51.112 196.753 51.112C196.486 51.112 196.219 51.128 195.953 51.16C195.697 51.1813 195.446 51.2187 195.201 51.272C195.137 51.5813 195.089 51.8373 195.057 52.04C195.035 52.232 195.025 52.408 195.025 52.568C195.025 53.0267 195.137 53.384 195.361 53.64C195.595 53.8853 195.974 54.008 196.497 54.008ZM208.425 55.16C207.252 55.16 206.393 54.84 205.849 54.2C205.316 53.5493 205.049 52.6907 205.049 51.624C205.049 50.6213 205.225 49.72 205.577 48.92C205.94 48.1093 206.457 47.4693 207.129 47C207.812 46.52 208.633 46.28 209.593 46.28C210.511 46.28 211.22 46.4613 211.721 46.824C212.223 47.1867 212.473 47.7307 212.473 48.456C212.473 49.0853 212.271 49.576 211.865 49.928C211.46 50.28 210.943 50.5253 210.313 50.664V50.696C210.783 50.8133 211.167 51.0107 211.465 51.288C211.764 51.5547 211.913 51.9653 211.913 52.52C211.913 52.9147 211.801 53.32 211.577 53.736C211.364 54.1413 211.001 54.4827 210.489 54.76C209.977 55.0267 209.289 55.16 208.425 55.16ZM208.377 50.152C208.847 50.152 209.284 50.104 209.689 50.008C210.105 49.912 210.436 49.752 210.681 49.528C210.937 49.2933 211.065 48.984 211.065 48.6C211.065 48.28 210.953 48.008 210.729 47.784C210.505 47.56 210.132 47.448 209.609 47.448C208.863 47.448 208.228 47.6827 207.705 48.152C207.193 48.6213 206.836 49.288 206.633 50.152H208.377ZM208.521 54.008C209.225 54.008 209.737 53.8587 210.057 53.56C210.388 53.2507 210.553 52.8987 210.553 52.504C210.553 52.0987 210.388 51.7947 210.057 51.592C209.727 51.3893 209.204 51.288 208.489 51.288H206.473V51.672C206.473 52.4933 206.66 53.0907 207.033 53.464C207.407 53.8267 207.903 54.008 208.521 54.008ZM216.026 55.16C215.343 55.16 214.783 54.9147 214.346 54.424C213.919 53.9227 213.706 53.192 213.706 52.232C213.706 51.432 213.807 50.6747 214.01 49.96C214.223 49.2347 214.516 48.6 214.89 48.056C215.263 47.5013 215.706 47.064 216.218 46.744C216.73 46.424 217.295 46.264 217.914 46.264C218.479 46.264 218.938 46.4133 219.29 46.712C219.642 47.0107 219.903 47.3573 220.074 47.752H220.154L220.666 46.424H221.738L219.914 55H218.794L219.002 53.416H218.938C218.575 53.8853 218.148 54.296 217.658 54.648C217.167 54.9893 216.623 55.16 216.026 55.16ZM216.49 53.992C216.884 53.992 217.268 53.848 217.641 53.56C218.026 53.272 218.372 52.8827 218.682 52.392C218.991 51.9013 219.226 51.352 219.386 50.744C219.471 50.4347 219.524 50.152 219.546 49.896C219.578 49.6293 219.594 49.384 219.594 49.16C219.594 48.6587 219.455 48.248 219.178 47.928C218.9 47.608 218.527 47.448 218.058 47.448C217.642 47.448 217.258 47.5813 216.906 47.848C216.554 48.104 216.244 48.4613 215.978 48.92C215.711 49.368 215.503 49.88 215.354 50.456C215.215 51.032 215.146 51.6347 215.146 52.264C215.146 52.84 215.263 53.272 215.498 53.56C215.732 53.848 216.063 53.992 216.49 53.992ZM229.711 55.128C228.709 55.128 227.946 54.8187 227.423 54.2C226.911 53.5813 226.655 52.792 226.655 51.832C226.655 51.6933 226.655 51.5653 226.655 51.448C226.666 51.32 226.671 51.224 226.671 51.16H224.703L223.887 55H222.479L224.303 46.424H225.695L224.959 49.992H226.863C227.205 48.7653 227.717 47.848 228.399 47.24C229.093 46.6213 229.882 46.312 230.767 46.312C231.781 46.312 232.543 46.6213 233.055 47.24C233.567 47.8587 233.823 48.6533 233.823 49.624C233.823 50.3173 233.733 50.9947 233.551 51.656C233.381 52.3067 233.119 52.8933 232.767 53.416C232.426 53.9387 231.999 54.3547 231.487 54.664C230.975 54.9733 230.383 55.128 229.711 55.128ZM229.807 53.96C230.287 53.96 230.719 53.7733 231.103 53.4C231.498 53.0267 231.807 52.504 232.031 51.832C232.266 51.16 232.383 50.3707 232.383 49.464C232.383 48.8667 232.239 48.3867 231.951 48.024C231.674 47.6613 231.274 47.48 230.751 47.48C230.303 47.48 229.909 47.6133 229.567 47.88C229.237 48.136 228.959 48.4773 228.735 48.904C228.511 49.3307 228.346 49.8053 228.239 50.328C228.133 50.84 228.079 51.3573 228.079 51.88C228.079 52.4987 228.218 53 228.495 53.384C228.783 53.768 229.221 53.96 229.807 53.96ZM246.273 55.112C245.953 55.0267 245.713 54.856 245.553 54.6C245.404 54.3333 245.324 53.9493 245.313 53.448H245.265C245.084 53.7147 244.86 53.9813 244.593 54.248C244.327 54.5147 244.023 54.7333 243.681 54.904C243.34 55.0747 242.951 55.16 242.513 55.16C241.927 55.16 241.473 54.9893 241.153 54.648C240.833 54.3067 240.641 53.8427 240.577 53.256H240.513C240.3 53.5653 240.049 53.8693 239.761 54.168C239.473 54.456 239.148 54.696 238.785 54.888C238.423 55.0693 238.017 55.16 237.569 55.16C236.908 55.16 236.396 54.9787 236.033 54.616C235.671 54.2533 235.489 53.7307 235.489 53.048C235.489 52.792 235.505 52.5573 235.537 52.344C235.58 52.12 235.623 51.8853 235.665 51.64L236.769 46.424H238.193L237.057 51.816C237.015 52.0507 236.977 52.2533 236.945 52.424C236.913 52.5947 236.897 52.76 236.897 52.92C236.897 53.24 236.983 53.496 237.153 53.688C237.335 53.88 237.612 53.976 237.985 53.976C238.327 53.976 238.689 53.8533 239.073 53.608C239.468 53.352 239.831 52.952 240.161 52.408C240.503 51.864 240.764 51.16 240.945 50.296L241.777 46.424H243.185L242.033 51.816C241.937 52.2747 241.889 52.6213 241.889 52.856C241.889 53.2187 241.969 53.496 242.129 53.688C242.289 53.88 242.556 53.976 242.929 53.976C243.281 53.976 243.655 53.8533 244.049 53.608C244.444 53.352 244.812 52.9413 245.153 52.376C245.495 51.8107 245.761 51.0587 245.953 50.12L246.737 46.424H248.145L246.865 52.472C246.833 52.6427 246.807 52.8133 246.785 52.984C246.764 53.1547 246.753 53.2987 246.753 53.416C246.753 53.8213 246.951 54.024 247.345 54.024C247.484 54.024 247.601 54.008 247.697 53.976C247.804 53.944 247.895 53.9227 247.969 53.912L247.057 57.976H245.649L246.273 55.112ZM252.763 55.16C251.771 55.16 251.003 54.872 250.459 54.296C249.925 53.7093 249.659 52.92 249.659 51.928C249.659 51.2453 249.755 50.5733 249.947 49.912C250.149 49.24 250.437 48.632 250.811 48.088C251.184 47.5333 251.632 47.0907 252.155 46.76C252.688 46.4293 253.285 46.264 253.947 46.264C254.757 46.264 255.365 46.44 255.771 46.792C256.187 47.144 256.395 47.6347 256.395 48.264C256.395 48.8187 256.219 49.3253 255.867 49.784C255.525 50.2427 254.987 50.6107 254.251 50.888C253.515 51.1547 252.56 51.288 251.387 51.288H251.115C251.104 51.384 251.093 51.4853 251.083 51.592C251.083 51.6987 251.083 51.7947 251.083 51.88C251.083 52.5307 251.243 53.048 251.563 53.432C251.883 53.8053 252.368 53.992 253.019 53.992C253.424 53.992 253.808 53.9333 254.171 53.816C254.533 53.6987 254.928 53.5387 255.355 53.336V54.536C254.949 54.7173 254.549 54.8667 254.155 54.984C253.771 55.1013 253.307 55.16 252.763 55.16ZM251.435 50.152C252.075 50.152 252.667 50.0987 253.211 49.992C253.755 49.8747 254.192 49.688 254.523 49.432C254.853 49.1653 255.019 48.8133 255.019 48.376C255.019 48.0987 254.923 47.8747 254.731 47.704C254.549 47.5227 254.261 47.432 253.867 47.432C253.355 47.432 252.859 47.672 252.379 48.152C251.909 48.6213 251.557 49.288 251.323 50.152H251.435ZM257.867 55L258.219 53.128H259.611L259.259 55H257.867Z" fill="#FCF7F2"/>
</svg>
