<svg width="267" height="59" viewBox="0 0 267 59" fill="none" xmlns="http://www.w3.org/2000/svg">
<path d="M0.145 12L4.36 6.405L2.62 1.29H4.96L6.085 5.085L8.74 1.29H11.26L7.27 6.6L9.235 12H6.805L5.545 8.025L2.65 12H0.145ZM13.8917 12.15C13.2817 12.15 12.7367 12.025 12.2567 11.775C11.7867 11.515 11.4167 11.15 11.1467 10.68C10.8867 10.21 10.7567 9.65 10.7567 9C10.7567 8.28 10.8467 7.6 11.0267 6.96C11.2067 6.31 11.4767 5.74 11.8367 5.25C12.1967 4.75 12.6467 4.36 13.1867 4.08C13.7367 3.8 14.3767 3.66 15.1067 3.66C16.0567 3.66 16.8117 3.945 17.3717 4.515C17.9317 5.085 18.2117 5.88 18.2117 6.9C18.2117 7.59 18.1267 8.25 17.9567 8.88C17.7867 9.51 17.5217 10.07 17.1617 10.56C16.8117 11.05 16.3617 11.44 15.8117 11.73C15.2717 12.01 14.6317 12.15 13.8917 12.15ZM14.0717 10.35C14.4817 10.35 14.8267 10.185 15.1067 9.855C15.3967 9.525 15.6167 9.1 15.7667 8.58C15.9167 8.05 15.9917 7.49 15.9917 6.9C15.9917 6.49 15.9117 6.15 15.7517 5.88C15.6017 5.6 15.3317 5.46 14.9417 5.46C14.6117 5.46 14.3217 5.575 14.0717 5.805C13.8217 6.025 13.6167 6.315 13.4567 6.675C13.2967 7.035 13.1767 7.42 13.0967 7.83C13.0167 8.24 12.9767 8.63 12.9767 9C12.9767 9.9 13.3417 10.35 14.0717 10.35ZM18.3761 15.6L20.8811 3.81H22.5611L22.4411 5.055H22.5011C22.7611 4.705 23.0811 4.385 23.4611 4.095C23.8411 3.805 24.2961 3.66 24.8261 3.66C25.2261 3.66 25.6011 3.76 25.9511 3.96C26.3011 4.15 26.5861 4.465 26.8061 4.905C27.0261 5.335 27.1361 5.915 27.1361 6.645C27.1361 7.305 27.0461 7.965 26.8661 8.625C26.6861 9.275 26.4311 9.865 26.1011 10.395C25.7711 10.925 25.3711 11.35 24.9011 11.67C24.4411 11.99 23.9211 12.15 23.3411 12.15C22.8411 12.15 22.4561 12.035 22.1861 11.805C21.9161 11.575 21.6811 11.29 21.4811 10.95H21.4211C21.3911 11.35 21.3511 11.715 21.3011 12.045C21.2511 12.375 21.1861 12.73 21.1061 13.11L20.5811 15.6H18.3761ZM22.9661 10.365C23.2361 10.365 23.4861 10.26 23.7161 10.05C23.9561 9.83 24.1611 9.545 24.3311 9.195C24.5111 8.845 24.6511 8.455 24.7511 8.025C24.8511 7.595 24.9011 7.165 24.9011 6.735C24.9011 5.875 24.5811 5.445 23.9411 5.445C23.5811 5.445 23.2761 5.575 23.0261 5.835C22.7761 6.095 22.5711 6.42 22.4111 6.81C22.2511 7.2 22.1311 7.6 22.0511 8.01C21.9811 8.42 21.9461 8.775 21.9461 9.075C21.9461 9.465 22.0361 9.78 22.2161 10.02C22.4061 10.25 22.6561 10.365 22.9661 10.365ZM31.587 12.15C30.977 12.15 30.432 12.025 29.952 11.775C29.482 11.515 29.112 11.15 28.842 10.68C28.582 10.21 28.452 9.65 28.452 9C28.452 8.28 28.542 7.6 28.722 6.96C28.902 6.31 29.172 5.74 29.532 5.25C29.892 4.75 30.342 4.36 30.882 4.08C31.432 3.8 32.072 3.66 32.802 3.66C33.752 3.66 34.507 3.945 35.067 4.515C35.627 5.085 35.907 5.88 35.907 6.9C35.907 7.59 35.822 8.25 35.652 8.88C35.482 9.51 35.217 10.07 34.857 10.56C34.507 11.05 34.057 11.44 33.507 11.73C32.967 12.01 32.327 12.15 31.587 12.15ZM31.767 10.35C32.177 10.35 32.522 10.185 32.802 9.855C33.092 9.525 33.312 9.1 33.462 8.58C33.612 8.05 33.687 7.49 33.687 6.9C33.687 6.49 33.607 6.15 33.447 5.88C33.297 5.6 33.027 5.46 32.637 5.46C32.307 5.46 32.017 5.575 31.767 5.805C31.517 6.025 31.312 6.315 31.152 6.675C30.992 7.035 30.872 7.42 30.792 7.83C30.712 8.24 30.672 8.63 30.672 9C30.672 9.9 31.037 10.35 31.767 10.35ZM39.3864 12.15C38.7064 12.15 38.1964 11.94 37.8564 11.52C37.5164 11.09 37.3464 10.515 37.3464 9.795C37.3464 9.435 37.4014 8.995 37.5114 8.475L38.4864 3.81H40.6914L39.6864 8.595C39.6064 8.945 39.5664 9.235 39.5664 9.465C39.5664 10.065 39.8064 10.365 40.2864 10.365C40.6264 10.365 40.9264 10.225 41.1864 9.945C41.4564 9.665 41.6914 9.285 41.8914 8.805C42.0914 8.325 42.2514 7.795 42.3714 7.215L43.0764 3.81H45.2814L44.2764 8.595C44.1964 8.945 44.1564 9.235 44.1564 9.465C44.1564 10.065 44.3964 10.365 44.8764 10.365C45.2164 10.365 45.5164 10.225 45.7764 9.945C46.0464 9.655 46.2814 9.27 46.4814 8.79C46.6814 8.31 46.8414 7.78 46.9614 7.2L47.6814 3.81H49.8864L48.1464 12H46.4814L46.6314 10.485H46.5714C46.2614 10.975 45.8914 11.375 45.4614 11.685C45.0414 11.995 44.5464 12.15 43.9764 12.15C43.4164 12.15 42.9814 12.005 42.6714 11.715C42.3714 11.415 42.1714 11.005 42.0714 10.485H42.0114C41.7014 10.975 41.3264 11.375 40.8864 11.685C40.4564 11.995 39.9564 12.15 39.3864 12.15ZM53.0405 12.15C52.3405 12.15 51.8155 11.94 51.4655 11.52C51.1255 11.09 50.9555 10.515 50.9555 9.795C50.9555 9.615 50.9705 9.385 51.0005 9.105C51.0305 8.815 51.0755 8.525 51.1355 8.235L52.0655 3.81H54.2705L53.2655 8.595C53.1855 8.945 53.1455 9.235 53.1455 9.465C53.1455 10.065 53.4105 10.365 53.9405 10.365C54.2805 10.365 54.5805 10.225 54.8405 9.945C55.1105 9.655 55.3455 9.27 55.5455 8.79C55.7455 8.31 55.9055 7.78 56.0255 7.2L56.7455 3.81H58.9505L57.2105 12H55.5305L55.6805 10.485H55.6055C55.2955 10.975 54.9305 11.375 54.5105 11.685C54.1005 11.995 53.6105 12.15 53.0405 12.15ZM64.7332 2.91C63.9232 2.91 63.2982 2.8 62.8582 2.58C62.4182 2.36 62.1132 2.075 61.9432 1.725C61.7832 1.375 61.7032 1.01 61.7032 0.63C61.7032 0.569999 61.7032 0.509999 61.7032 0.449999C61.7132 0.39 61.7232 0.335 61.7332 0.285H63.6832C63.6732 0.364999 63.6682 0.429999 63.6682 0.48C63.6682 0.53 63.6682 0.58 63.6682 0.63C63.6682 0.989999 63.7782 1.25 63.9982 1.41C64.2182 1.57 64.5232 1.65 64.9132 1.65C65.3632 1.65 65.7232 1.55 65.9932 1.35C66.2732 1.15 66.4732 0.795 66.5932 0.285H68.5882C68.4582 0.814999 68.2482 1.28 67.9582 1.68C67.6782 2.07 67.2782 2.375 66.7582 2.595C66.2482 2.805 65.5732 2.91 64.7332 2.91ZM62.0932 12.15C61.3932 12.15 60.8682 11.94 60.5182 11.52C60.1782 11.09 60.0082 10.515 60.0082 9.795C60.0082 9.615 60.0232 9.385 60.0532 9.105C60.0832 8.815 60.1282 8.525 60.1882 8.235L61.1182 3.81H63.3232L62.3182 8.595C62.2382 8.945 62.1982 9.235 62.1982 9.465C62.1982 10.065 62.4632 10.365 62.9932 10.365C63.3332 10.365 63.6332 10.225 63.8932 9.945C64.1632 9.655 64.3982 9.27 64.5982 8.79C64.7982 8.31 64.9582 7.78 65.0782 7.2L65.7982 3.81H68.0032L66.2632 12H64.5832L64.7332 10.485H64.6582C64.3482 10.975 63.9832 11.375 63.5632 11.685C63.1532 11.995 62.6632 12.15 62.0932 12.15ZM74.9675 12.15C74.2875 12.15 73.7775 11.94 73.4375 11.52C73.0975 11.09 72.9275 10.515 72.9275 9.795C72.9275 9.435 72.9825 8.995 73.0925 8.475L74.0675 3.81H76.2725L75.2675 8.595C75.1875 8.945 75.1475 9.235 75.1475 9.465C75.1475 10.065 75.3875 10.365 75.8675 10.365C76.2075 10.365 76.5075 10.225 76.7675 9.945C77.0375 9.665 77.2725 9.285 77.4725 8.805C77.6725 8.325 77.8325 7.795 77.9525 7.215L78.6575 3.81H80.8625L79.8575 8.595C79.7775 8.945 79.7375 9.235 79.7375 9.465C79.7375 10.065 79.9775 10.365 80.4575 10.365C80.7975 10.365 81.0975 10.225 81.3575 9.945C81.6275 9.655 81.8625 9.27 82.0625 8.79C82.2625 8.31 82.4225 7.78 82.5425 7.2L83.2625 3.81H85.4675L83.7275 12H82.0625L82.2125 10.485H82.1525C81.8425 10.975 81.4725 11.375 81.0425 11.685C80.6225 11.995 80.1275 12.15 79.5575 12.15C78.9975 12.15 78.5625 12.005 78.2525 11.715C77.9525 11.415 77.7525 11.005 77.6525 10.485H77.5925C77.2825 10.975 76.9075 11.375 76.4675 11.685C76.0375 11.995 75.5375 12.15 74.9675 12.15ZM85.2316 15.6L87.7366 3.81H89.4166L89.2966 5.055H89.3566C89.6166 4.705 89.9366 4.385 90.3166 4.095C90.6966 3.805 91.1516 3.66 91.6816 3.66C92.0816 3.66 92.4566 3.76 92.8066 3.96C93.1566 4.15 93.4416 4.465 93.6616 4.905C93.8816 5.335 93.9916 5.915 93.9916 6.645C93.9916 7.305 93.9016 7.965 93.7216 8.625C93.5416 9.275 93.2866 9.865 92.9566 10.395C92.6266 10.925 92.2266 11.35 91.7566 11.67C91.2966 11.99 90.7766 12.15 90.1966 12.15C89.6966 12.15 89.3116 12.035 89.0416 11.805C88.7716 11.575 88.5366 11.29 88.3366 10.95H88.2766C88.2466 11.35 88.2066 11.715 88.1566 12.045C88.1066 12.375 88.0416 12.73 87.9616 13.11L87.4366 15.6H85.2316ZM89.8216 10.365C90.0916 10.365 90.3416 10.26 90.5716 10.05C90.8116 9.83 91.0166 9.545 91.1866 9.195C91.3666 8.845 91.5066 8.455 91.6066 8.025C91.7066 7.595 91.7566 7.165 91.7566 6.735C91.7566 5.875 91.4366 5.445 90.7966 5.445C90.4366 5.445 90.1316 5.575 89.8816 5.835C89.6316 6.095 89.4266 6.42 89.2666 6.81C89.1066 7.2 88.9866 7.6 88.9066 8.01C88.8366 8.42 88.8016 8.775 88.8016 9.075C88.8016 9.465 88.8916 9.78 89.0716 10.02C89.2616 10.25 89.5116 10.365 89.8216 10.365ZM97.5425 12.15C96.8425 12.15 96.3175 11.94 95.9675 11.52C95.6275 11.09 95.4575 10.515 95.4575 9.795C95.4575 9.615 95.4725 9.385 95.5025 9.105C95.5325 8.815 95.5775 8.525 95.6375 8.235L96.5675 3.81H98.7725L97.7675 8.595C97.6875 8.945 97.6475 9.235 97.6475 9.465C97.6475 10.065 97.9125 10.365 98.4425 10.365C98.7825 10.365 99.0825 10.225 99.3425 9.945C99.6125 9.655 99.8475 9.27 100.047 8.79C100.247 8.31 100.407 7.78 100.527 7.2L101.247 3.81H103.452L101.712 12H100.032L100.182 10.485H100.107C99.7975 10.975 99.4325 11.375 99.0125 11.685C98.6025 11.995 98.1125 12.15 97.5425 12.15ZM107.525 12.06C106.495 11.94 105.71 11.57 105.17 10.95C104.63 10.32 104.36 9.565 104.36 8.685C104.36 8.145 104.445 7.595 104.615 7.035C104.785 6.475 105.06 5.96 105.44 5.49C105.83 5.01 106.34 4.615 106.97 4.305C107.6 3.995 108.37 3.81 109.28 3.75L109.94 0.599999H112.04L111.38 3.765C112.39 3.905 113.16 4.28 113.69 4.89C114.22 5.5 114.485 6.265 114.485 7.185C114.485 7.675 114.415 8.185 114.275 8.715C114.135 9.245 113.885 9.755 113.525 10.245C113.175 10.725 112.68 11.135 112.04 11.475C111.4 11.815 110.585 12.035 109.595 12.135L108.89 15.6H106.76L107.525 12.06ZM108.92 5.46C108.48 5.49 108.11 5.61 107.81 5.82C107.51 6.03 107.27 6.29 107.09 6.6C106.92 6.91 106.795 7.235 106.715 7.575C106.645 7.915 106.61 8.225 106.61 8.505C106.61 9.005 106.715 9.425 106.925 9.765C107.135 10.095 107.45 10.29 107.87 10.35L108.92 5.46ZM109.97 10.35C110.43 10.29 110.805 10.145 111.095 9.915C111.395 9.685 111.625 9.415 111.785 9.105C111.955 8.785 112.075 8.46 112.145 8.13C112.215 7.8 112.25 7.5 112.25 7.23C112.25 6.78 112.145 6.395 111.935 6.075C111.725 5.755 111.415 5.56 111.005 5.49L109.97 10.35ZM115.411 12L117.151 3.81H118.831L118.681 5.325H118.741C119.061 4.835 119.426 4.435 119.836 4.125C120.256 3.815 120.751 3.66 121.321 3.66C121.881 3.66 122.316 3.81 122.626 4.11C122.936 4.4 123.141 4.805 123.241 5.325H123.301C123.611 4.835 123.981 4.435 124.411 4.125C124.841 3.815 125.341 3.66 125.911 3.66C126.591 3.66 127.101 3.875 127.441 4.305C127.781 4.725 127.951 5.295 127.951 6.015C127.951 6.375 127.896 6.815 127.786 7.335L126.811 12H124.606L125.611 7.215C125.691 6.865 125.731 6.575 125.731 6.345C125.731 5.745 125.491 5.445 125.011 5.445C124.681 5.445 124.381 5.585 124.111 5.865C123.841 6.145 123.606 6.525 123.406 7.005C123.206 7.475 123.046 8.005 122.926 8.595L122.221 12H120.016L121.021 7.215C121.101 6.865 121.141 6.575 121.141 6.345C121.141 5.745 120.901 5.445 120.421 5.445C120.091 5.445 119.791 5.59 119.521 5.88C119.251 6.16 119.016 6.54 118.816 7.02C118.626 7.5 118.466 8.03 118.336 8.61L117.616 12H115.411ZM132.736 7.455H147.886L147.646 9.135H132.496L132.736 7.455ZM153.759 12.15C153.019 12.15 152.394 12.015 151.884 11.745V9.9C152.144 10.02 152.419 10.13 152.709 10.23C153.009 10.32 153.344 10.365 153.714 10.365C154.204 10.365 154.634 10.24 155.004 9.99C155.374 9.74 155.644 9.28 155.814 8.61H153.084L153.399 7.125H156.009C156.019 7.075 156.024 7.025 156.024 6.975C156.024 6.925 156.024 6.88 156.024 6.84C156.024 6.32 155.899 5.96 155.649 5.76C155.409 5.55 155.124 5.445 154.794 5.445C154.514 5.445 154.259 5.485 154.029 5.565C153.809 5.635 153.559 5.74 153.279 5.88L152.694 4.26C153.054 4.08 153.439 3.935 153.849 3.825C154.259 3.715 154.724 3.66 155.244 3.66C155.794 3.66 156.294 3.77 156.744 3.99C157.194 4.21 157.554 4.56 157.824 5.04C158.104 5.52 158.244 6.155 158.244 6.945C158.244 7.905 158.084 8.78 157.764 9.57C157.444 10.35 156.949 10.975 156.279 11.445C155.619 11.915 154.779 12.15 153.759 12.15ZM159.18 12L160.92 3.81H162.6L162.45 5.325H162.51C162.83 4.835 163.195 4.435 163.605 4.125C164.025 3.815 164.52 3.66 165.09 3.66C165.65 3.66 166.085 3.81 166.395 4.11C166.705 4.4 166.91 4.805 167.01 5.325H167.07C167.38 4.835 167.75 4.435 168.18 4.125C168.61 3.815 169.11 3.66 169.68 3.66C170.36 3.66 170.87 3.875 171.21 4.305C171.55 4.725 171.72 5.295 171.72 6.015C171.72 6.375 171.665 6.815 171.555 7.335L170.58 12H168.375L169.38 7.215C169.46 6.865 169.5 6.575 169.5 6.345C169.5 5.745 169.26 5.445 168.78 5.445C168.45 5.445 168.15 5.585 167.88 5.865C167.61 6.145 167.375 6.525 167.175 7.005C166.975 7.475 166.815 8.005 166.695 8.595L165.99 12H163.785L164.79 7.215C164.87 6.865 164.91 6.575 164.91 6.345C164.91 5.745 164.67 5.445 164.19 5.445C163.86 5.445 163.56 5.59 163.29 5.88C163.02 6.16 162.785 6.54 162.585 7.02C162.395 7.5 162.235 8.03 162.105 8.61L161.385 12H159.18ZM176.284 12.15C175.674 12.15 175.129 12.025 174.649 11.775C174.179 11.515 173.809 11.15 173.539 10.68C173.279 10.21 173.149 9.65 173.149 9C173.149 8.28 173.239 7.6 173.419 6.96C173.599 6.31 173.869 5.74 174.229 5.25C174.589 4.75 175.039 4.36 175.579 4.08C176.129 3.8 176.769 3.66 177.499 3.66C178.449 3.66 179.204 3.945 179.764 4.515C180.324 5.085 180.604 5.88 180.604 6.9C180.604 7.59 180.519 8.25 180.349 8.88C180.179 9.51 179.914 10.07 179.554 10.56C179.204 11.05 178.754 11.44 178.204 11.73C177.664 12.01 177.024 12.15 176.284 12.15ZM176.464 10.35C176.874 10.35 177.219 10.185 177.499 9.855C177.789 9.525 178.009 9.1 178.159 8.58C178.309 8.05 178.384 7.49 178.384 6.9C178.384 6.49 178.304 6.15 178.144 5.88C177.994 5.6 177.724 5.46 177.334 5.46C177.004 5.46 176.714 5.575 176.464 5.805C176.214 6.025 176.009 6.315 175.849 6.675C175.689 7.035 175.569 7.42 175.489 7.83C175.409 8.24 175.369 8.63 175.369 9C175.369 9.9 175.734 10.35 176.464 10.35ZM185.43 12L187.185 3.81H189.39L188.58 7.62L191.805 3.81H194.325L190.815 7.92L192.84 12H190.365L188.49 8.01L187.635 12H185.43ZM196.802 12.15C196.412 12.15 196.037 12.055 195.677 11.865C195.327 11.665 195.042 11.35 194.822 10.92C194.602 10.48 194.492 9.9 194.492 9.18C194.492 8.51 194.582 7.85 194.762 7.2C194.942 6.55 195.197 5.96 195.527 5.43C195.857 4.89 196.252 4.46 196.712 4.14C197.182 3.82 197.707 3.66 198.287 3.66C198.807 3.66 199.227 3.77 199.547 3.99C199.877 4.21 200.132 4.5 200.312 4.86H200.372L200.792 3.81H202.487L200.747 12H199.097L199.202 10.935H199.142C198.852 11.295 198.517 11.59 198.137 11.82C197.767 12.04 197.322 12.15 196.802 12.15ZM197.672 10.365C197.972 10.365 198.252 10.245 198.512 10.005C198.772 9.765 198.992 9.455 199.172 9.075C199.362 8.695 199.497 8.295 199.577 7.875C199.647 7.515 199.682 7.105 199.682 6.645C199.682 6.295 199.592 6.01 199.412 5.79C199.232 5.56 198.982 5.445 198.662 5.445C198.392 5.445 198.137 5.555 197.897 5.775C197.667 5.985 197.462 6.265 197.282 6.615C197.112 6.965 196.977 7.355 196.877 7.785C196.777 8.215 196.727 8.645 196.727 9.075C196.727 9.935 197.042 10.365 197.672 10.365ZM203.008 12L204.763 3.81H206.968L206.158 7.62L209.383 3.81H211.903L208.393 7.92L210.418 12H207.943L206.068 8.01L205.213 12H203.008ZM218.277 12.15C217.777 12.15 217.312 12.075 216.882 11.925C216.452 11.775 216.107 11.53 215.847 11.19C215.587 10.84 215.457 10.385 215.457 9.825C215.457 9.375 215.537 9 215.697 8.7C215.867 8.39 216.092 8.135 216.372 7.935C216.652 7.735 216.957 7.57 217.287 7.44C217.627 7.3 217.967 7.175 218.307 7.065C218.797 6.905 219.152 6.77 219.372 6.66C219.592 6.55 219.732 6.445 219.792 6.345C219.862 6.235 219.897 6.1 219.897 5.94C219.897 5.52 219.602 5.31 219.012 5.31C218.672 5.31 218.347 5.36 218.037 5.46C217.727 5.56 217.402 5.695 217.062 5.865L216.522 4.305C216.902 4.125 217.337 3.975 217.827 3.855C218.317 3.725 218.837 3.66 219.387 3.66C219.887 3.66 220.342 3.735 220.752 3.885C221.172 4.025 221.502 4.26 221.742 4.59C221.992 4.91 222.117 5.34 222.117 5.88C222.117 6.34 222.037 6.725 221.877 7.035C221.717 7.335 221.497 7.585 221.217 7.785C220.947 7.985 220.632 8.16 220.272 8.31C219.912 8.45 219.532 8.59 219.132 8.73C218.662 8.89 218.302 9.04 218.052 9.18C217.812 9.32 217.692 9.52 217.692 9.78C217.692 9.99 217.767 10.165 217.917 10.305C218.077 10.445 218.352 10.515 218.742 10.515C219.162 10.515 219.577 10.445 219.987 10.305C220.397 10.165 220.777 10.015 221.127 9.855V11.52C220.717 11.72 220.297 11.875 219.867 11.985C219.437 12.095 218.907 12.15 218.277 12.15ZM225.454 12.15C225.064 12.15 224.689 12.055 224.329 11.865C223.979 11.665 223.694 11.35 223.474 10.92C223.254 10.48 223.144 9.9 223.144 9.18C223.144 8.51 223.234 7.85 223.414 7.2C223.594 6.55 223.849 5.96 224.179 5.43C224.509 4.89 224.904 4.46 225.364 4.14C225.834 3.82 226.359 3.66 226.939 3.66C227.459 3.66 227.879 3.77 228.199 3.99C228.529 4.21 228.784 4.5 228.964 4.86H229.024L229.444 3.81H231.139L229.399 12H227.749L227.854 10.935H227.794C227.504 11.295 227.169 11.59 226.789 11.82C226.419 12.04 225.974 12.15 225.454 12.15ZM226.324 10.365C226.624 10.365 226.904 10.245 227.164 10.005C227.424 9.765 227.644 9.455 227.824 9.075C228.014 8.695 228.149 8.295 228.229 7.875C228.299 7.515 228.334 7.105 228.334 6.645C228.334 6.295 228.244 6.01 228.064 5.79C227.884 5.56 227.634 5.445 227.314 5.445C227.044 5.445 226.789 5.555 226.549 5.775C226.319 5.985 226.114 6.265 225.934 6.615C225.764 6.965 225.629 7.355 225.529 7.785C225.429 8.215 225.379 8.645 225.379 9.075C225.379 9.935 225.694 10.365 226.324 10.365ZM230.896 15.6L233.401 3.81H235.081L234.961 5.055H235.021C235.281 4.705 235.601 4.385 235.981 4.095C236.361 3.805 236.816 3.66 237.346 3.66C237.746 3.66 238.121 3.76 238.471 3.96C238.821 4.15 239.106 4.465 239.326 4.905C239.546 5.335 239.656 5.915 239.656 6.645C239.656 7.305 239.566 7.965 239.386 8.625C239.206 9.275 238.951 9.865 238.621 10.395C238.291 10.925 237.891 11.35 237.421 11.67C236.961 11.99 236.441 12.15 235.861 12.15C235.361 12.15 234.976 12.035 234.706 11.805C234.436 11.575 234.201 11.29 234.001 10.95H233.941C233.911 11.35 233.871 11.715 233.821 12.045C233.771 12.375 233.706 12.73 233.626 13.11L233.101 15.6H230.896ZM235.486 10.365C235.756 10.365 236.006 10.26 236.236 10.05C236.476 9.83 236.681 9.545 236.851 9.195C237.031 8.845 237.171 8.455 237.271 8.025C237.371 7.595 237.421 7.165 237.421 6.735C237.421 5.875 237.101 5.445 236.461 5.445C236.101 5.445 235.796 5.575 235.546 5.835C235.296 6.095 235.091 6.42 234.931 6.81C234.771 7.2 234.651 7.6 234.571 8.01C234.501 8.42 234.466 8.775 234.466 9.075C234.466 9.465 234.556 9.78 234.736 10.02C234.926 10.25 235.176 10.365 235.486 10.365ZM240.642 12L242.367 3.81H245.412L245.727 9.525H245.772L248.712 3.81H251.847L250.092 12H248.052L248.952 7.95C249.032 7.57 249.117 7.205 249.207 6.855C249.297 6.495 249.377 6.205 249.447 5.985H249.402L246.297 12H244.182L243.852 5.985H243.822C243.772 6.385 243.717 6.75 243.657 7.08C243.597 7.4 243.532 7.72 243.462 8.04L242.667 12H240.642ZM255.693 12.15C255.083 12.15 254.538 12.025 254.058 11.775C253.588 11.515 253.218 11.15 252.948 10.68C252.688 10.21 252.558 9.65 252.558 9C252.558 8.28 252.648 7.6 252.828 6.96C253.008 6.31 253.278 5.74 253.638 5.25C253.998 4.75 254.448 4.36 254.988 4.08C255.538 3.8 256.178 3.66 256.908 3.66C257.858 3.66 258.613 3.945 259.173 4.515C259.733 5.085 260.013 5.88 260.013 6.9C260.013 7.59 259.928 8.25 259.758 8.88C259.588 9.51 259.323 10.07 258.963 10.56C258.613 11.05 258.163 11.44 257.613 11.73C257.073 12.01 256.433 12.15 255.693 12.15ZM255.873 10.35C256.283 10.35 256.628 10.185 256.908 9.855C257.198 9.525 257.418 9.1 257.568 8.58C257.718 8.05 257.793 7.49 257.793 6.9C257.793 6.49 257.713 6.15 257.553 5.88C257.403 5.6 257.133 5.46 256.743 5.46C256.413 5.46 256.123 5.575 255.873 5.805C255.623 6.025 255.418 6.315 255.258 6.675C255.098 7.035 254.978 7.42 254.898 7.83C254.818 8.24 254.778 8.63 254.778 9C254.778 9.9 255.143 10.35 255.873 10.35ZM261.498 7.11H266.013L265.773 8.79H261.258L261.498 7.11ZM1.27 34L3.025 25.81H5.245L4.57 28.96H7.12L7.78 25.81H9.985L8.245 34H6.04L6.745 30.625H4.21L3.49 34H1.27ZM13.1382 34.15C12.4382 34.15 11.9132 33.94 11.5632 33.52C11.2232 33.09 11.0532 32.515 11.0532 31.795C11.0532 31.615 11.0682 31.385 11.0982 31.105C11.1282 30.815 11.1732 30.525 11.2332 30.235L12.1632 25.81H14.3682L13.3632 30.595C13.2832 30.945 13.2432 31.235 13.2432 31.465C13.2432 32.065 13.5082 32.365 14.0382 32.365C14.3782 32.365 14.6782 32.225 14.9382 31.945C15.2082 31.655 15.4432 31.27 15.6432 30.79C15.8432 30.31 16.0032 29.78 16.1232 29.2L16.8432 25.81H19.0482L17.3082 34H15.6282L15.7782 32.485H15.7032C15.3932 32.975 15.0282 33.375 14.6082 33.685C14.1982 33.995 13.7082 34.15 13.1382 34.15ZM24.4859 31.78C24.5359 31.55 24.5859 31.325 24.6359 31.105C24.6959 30.885 24.7559 30.67 24.8159 30.46H24.7559C24.4659 30.78 24.1459 31.035 23.7959 31.225C23.4459 31.405 23.0509 31.495 22.6109 31.495C21.9409 31.495 21.4209 31.285 21.0509 30.865C20.6809 30.435 20.4959 29.86 20.4959 29.14C20.4959 28.96 20.5159 28.73 20.5559 28.45C20.5959 28.16 20.6459 27.87 20.7059 27.58L21.0809 25.81H23.2859L22.8359 27.94C22.7559 28.29 22.7159 28.58 22.7159 28.81C22.7159 29.43 23.0059 29.74 23.5859 29.74C24.0859 29.74 24.4859 29.49 24.7859 28.99C25.0959 28.48 25.3559 27.73 25.5659 26.74L25.7609 25.81H27.9659L26.2259 34H24.0209L24.4859 31.78ZM28.4868 34L30.2418 25.81H32.4618L31.7868 28.96H34.3368L34.9968 25.81H37.2018L35.4618 34H33.2568L33.9618 30.625H31.4268L30.7068 34H28.4868ZM41.255 34.15C40.645 34.15 40.1 34.025 39.62 33.775C39.15 33.515 38.78 33.15 38.51 32.68C38.25 32.21 38.12 31.65 38.12 31C38.12 30.28 38.21 29.6 38.39 28.96C38.57 28.31 38.84 27.74 39.2 27.25C39.56 26.75 40.01 26.36 40.55 26.08C41.1 25.8 41.74 25.66 42.47 25.66C43.42 25.66 44.175 25.945 44.735 26.515C45.295 27.085 45.575 27.88 45.575 28.9C45.575 29.59 45.49 30.25 45.32 30.88C45.15 31.51 44.885 32.07 44.525 32.56C44.175 33.05 43.725 33.44 43.175 33.73C42.635 34.01 41.995 34.15 41.255 34.15ZM41.435 32.35C41.845 32.35 42.19 32.185 42.47 31.855C42.76 31.525 42.98 31.1 43.13 30.58C43.28 30.05 43.355 29.49 43.355 28.9C43.355 28.49 43.275 28.15 43.115 27.88C42.965 27.6 42.695 27.46 42.305 27.46C41.975 27.46 41.685 27.575 41.435 27.805C41.185 28.025 40.98 28.315 40.82 28.675C40.66 29.035 40.54 29.42 40.46 29.83C40.38 30.24 40.34 30.63 40.34 31C40.34 31.9 40.705 32.35 41.435 32.35ZM50.1344 34.15C49.1744 34.15 48.3944 33.89 47.7944 33.37C47.1944 32.84 46.8944 32.045 46.8944 30.985C46.8944 30.295 46.9894 29.635 47.1794 29.005C47.3794 28.365 47.6694 27.795 48.0494 27.295C48.4394 26.795 48.9194 26.4 49.4894 26.11C50.0594 25.81 50.7194 25.66 51.4694 25.66C52.3894 25.66 53.0744 25.87 53.5244 26.29C53.9844 26.71 54.2144 27.245 54.2144 27.895C54.2144 28.755 53.8244 29.445 53.0444 29.965C52.2744 30.485 51.0944 30.745 49.5044 30.745H49.1294C49.1194 30.805 49.1144 30.86 49.1144 30.91C49.1144 30.95 49.1144 30.995 49.1144 31.045C49.1144 31.485 49.2394 31.835 49.4894 32.095C49.7494 32.355 50.1094 32.485 50.5694 32.485C50.9994 32.485 51.3894 32.435 51.7394 32.335C52.0894 32.235 52.5044 32.075 52.9844 31.855V33.52C52.5544 33.73 52.1194 33.89 51.6794 34C51.2394 34.1 50.7244 34.15 50.1344 34.15ZM49.6994 29.26C50.5494 29.26 51.1594 29.13 51.5294 28.87C51.9094 28.6 52.0994 28.29 52.0994 27.94C52.0994 27.48 51.8444 27.25 51.3344 27.25C51.0644 27.25 50.7944 27.335 50.5244 27.505C50.2544 27.675 50.0144 27.91 49.8044 28.21C49.6044 28.51 49.4594 28.86 49.3694 29.26H49.6994ZM62.1855 34.15C61.6255 34.15 61.1105 34.05 60.6405 33.85C60.1805 33.64 59.8155 33.315 59.5455 32.875C59.2755 32.435 59.1405 31.855 59.1405 31.135C59.1405 30.395 59.2355 29.7 59.4255 29.05C59.6155 28.39 59.8955 27.805 60.2655 27.295C60.6355 26.785 61.0905 26.385 61.6305 26.095C62.1705 25.805 62.7855 25.66 63.4755 25.66C63.9655 25.66 64.4005 25.705 64.7805 25.795C65.1705 25.885 65.5355 26.015 65.8755 26.185L65.2005 27.865C64.9405 27.755 64.6805 27.66 64.4205 27.58C64.1705 27.49 63.8855 27.445 63.5655 27.445C63.1055 27.445 62.7105 27.62 62.3805 27.97C62.0505 28.31 61.8005 28.75 61.6305 29.29C61.4605 29.82 61.3755 30.375 61.3755 30.955C61.3755 31.415 61.4855 31.765 61.7055 32.005C61.9255 32.245 62.2355 32.365 62.6355 32.365C63.0055 32.365 63.3455 32.31 63.6555 32.2C63.9755 32.08 64.3055 31.935 64.6455 31.765V33.565C64.3055 33.745 63.9355 33.89 63.5355 34C63.1455 34.1 62.6955 34.15 62.1855 34.15ZM69.5264 34.15C68.9164 34.15 68.3714 34.025 67.8914 33.775C67.4214 33.515 67.0514 33.15 66.7814 32.68C66.5214 32.21 66.3914 31.65 66.3914 31C66.3914 30.28 66.4814 29.6 66.6614 28.96C66.8414 28.31 67.1114 27.74 67.4714 27.25C67.8314 26.75 68.2814 26.36 68.8214 26.08C69.3714 25.8 70.0114 25.66 70.7414 25.66C71.6914 25.66 72.4464 25.945 73.0064 26.515C73.5664 27.085 73.8464 27.88 73.8464 28.9C73.8464 29.59 73.7614 30.25 73.5914 30.88C73.4214 31.51 73.1564 32.07 72.7964 32.56C72.4464 33.05 71.9964 33.44 71.4464 33.73C70.9064 34.01 70.2664 34.15 69.5264 34.15ZM69.7064 32.35C70.1164 32.35 70.4614 32.185 70.7414 31.855C71.0314 31.525 71.2514 31.1 71.4014 30.58C71.5514 30.05 71.6264 29.49 71.6264 28.9C71.6264 28.49 71.5464 28.15 71.3864 27.88C71.2364 27.6 70.9664 27.46 70.5764 27.46C70.2464 27.46 69.9564 27.575 69.7064 27.805C69.4564 28.025 69.2514 28.315 69.0914 28.675C68.9314 29.035 68.8114 29.42 68.7314 29.83C68.6514 30.24 68.6114 30.63 68.6114 31C68.6114 31.9 68.9764 32.35 69.7064 32.35ZM78.3009 34.15C77.6909 34.15 77.1459 34.025 76.6659 33.775C76.1959 33.515 75.8259 33.15 75.5559 32.68C75.2959 32.21 75.1659 31.65 75.1659 31C75.1659 30.28 75.2559 29.6 75.4359 28.96C75.6159 28.31 75.8859 27.74 76.2459 27.25C76.6059 26.75 77.0559 26.36 77.5959 26.08C78.1459 25.8 78.7859 25.66 79.5159 25.66C80.4659 25.66 81.2209 25.945 81.7809 26.515C82.3409 27.085 82.6209 27.88 82.6209 28.9C82.6209 29.59 82.5359 30.25 82.3659 30.88C82.1959 31.51 81.9309 32.07 81.5709 32.56C81.2209 33.05 80.7709 33.44 80.2209 33.73C79.6809 34.01 79.0409 34.15 78.3009 34.15ZM78.4809 32.35C78.8909 32.35 79.2359 32.185 79.5159 31.855C79.8059 31.525 80.0259 31.1 80.1759 30.58C80.3259 30.05 80.4009 29.49 80.4009 28.9C80.4009 28.49 80.3209 28.15 80.1609 27.88C80.0109 27.6 79.7409 27.46 79.3509 27.46C79.0209 27.46 78.7309 27.575 78.4809 27.805C78.2309 28.025 78.0259 28.315 77.8659 28.675C77.7059 29.035 77.5859 29.42 77.5059 29.83C77.4259 30.24 77.3859 30.63 77.3859 31C77.3859 31.9 77.7509 32.35 78.4809 32.35ZM87.1053 34.15C86.1853 34.15 85.4503 33.865 84.9003 33.295C84.3503 32.725 84.0753 31.835 84.0753 30.625C84.0753 29.895 84.1503 29.165 84.3003 28.435C84.4503 27.695 84.6703 27 84.9603 26.35C85.2603 25.69 85.6353 25.11 86.0853 24.61C86.5353 24.1 87.0603 23.71 87.6603 23.44C88.0203 23.28 88.4703 23.145 89.0103 23.035C89.5603 22.915 90.1303 22.815 90.7203 22.735C91.3103 22.655 91.8503 22.585 92.3403 22.525L92.5653 24.415C92.2553 24.455 91.9053 24.505 91.5153 24.565C91.1353 24.615 90.7603 24.67 90.3903 24.73C90.0203 24.78 89.6953 24.835 89.4153 24.895C88.9653 24.985 88.5653 25.13 88.2153 25.33C87.8653 25.52 87.5703 25.795 87.3303 26.155C87.0903 26.515 86.8903 27 86.7303 27.61L86.7753 27.625C87.0353 27.305 87.3653 27.015 87.7653 26.755C88.1753 26.495 88.6553 26.365 89.2053 26.365C89.9253 26.365 90.4653 26.605 90.8253 27.085C91.1953 27.565 91.3803 28.225 91.3803 29.065C91.3803 29.685 91.2953 30.3 91.1253 30.91C90.9553 31.51 90.6953 32.055 90.3453 32.545C89.9953 33.035 89.5503 33.425 89.0103 33.715C88.4803 34.005 87.8453 34.15 87.1053 34.15ZM87.3153 32.335C87.6753 32.335 87.9903 32.175 88.2603 31.855C88.5403 31.535 88.7603 31.13 88.9203 30.64C89.0803 30.14 89.1603 29.64 89.1603 29.14C89.1603 28.79 89.0903 28.515 88.9503 28.315C88.8203 28.115 88.6103 28.015 88.3203 28.015C88.0803 28.015 87.8403 28.085 87.6003 28.225C87.3703 28.365 87.1603 28.535 86.9703 28.735C86.7803 28.925 86.6203 29.105 86.4903 29.275C86.4503 29.485 86.4103 29.72 86.3703 29.98C86.3303 30.23 86.3103 30.47 86.3103 30.7C86.3103 31.19 86.3853 31.585 86.5353 31.885C86.6953 32.185 86.9553 32.335 87.3153 32.335ZM102.915 34C102.635 33.87 102.425 33.685 102.285 33.445C102.155 33.195 102.065 32.93 102.015 32.65H101.955C101.645 33.09 101.285 33.45 100.875 33.73C100.465 34.01 99.9947 34.15 99.4647 34.15C98.9047 34.15 98.4697 34.005 98.1597 33.715C97.8597 33.415 97.6597 33.005 97.5597 32.485H97.4997C97.1897 32.975 96.8147 33.375 96.3747 33.685C95.9447 33.995 95.4447 34.15 94.8747 34.15C94.1947 34.15 93.6847 33.94 93.3447 33.52C93.0047 33.09 92.8347 32.515 92.8347 31.795C92.8347 31.435 92.8897 30.995 92.9997 30.475L93.9747 25.81H96.1797L95.1747 30.595C95.0947 30.945 95.0547 31.235 95.0547 31.465C95.0547 32.065 95.2947 32.365 95.7747 32.365C96.1147 32.365 96.4147 32.225 96.6747 31.945C96.9447 31.665 97.1797 31.285 97.3797 30.805C97.5797 30.325 97.7397 29.795 97.8597 29.215L98.5647 25.81H100.77L99.7647 30.595C99.6847 30.945 99.6447 31.235 99.6447 31.465C99.6447 32.065 99.8847 32.365 100.365 32.365C100.705 32.365 101.005 32.225 101.265 31.945C101.535 31.655 101.77 31.27 101.97 30.79C102.17 30.31 102.33 29.78 102.45 29.2L103.17 25.81H105.375L104.19 31.405C104.16 31.555 104.145 31.685 104.145 31.795C104.145 32.115 104.295 32.275 104.595 32.275C104.715 32.275 104.83 32.265 104.94 32.245C105.05 32.225 105.155 32.2 105.255 32.17L104.25 36.94H102.21L102.915 34ZM109.768 34.15C108.808 34.15 108.028 33.89 107.428 33.37C106.828 32.84 106.528 32.045 106.528 30.985C106.528 30.295 106.623 29.635 106.813 29.005C107.013 28.365 107.303 27.795 107.683 27.295C108.073 26.795 108.553 26.4 109.123 26.11C109.693 25.81 110.353 25.66 111.103 25.66C112.023 25.66 112.708 25.87 113.158 26.29C113.618 26.71 113.848 27.245 113.848 27.895C113.848 28.755 113.458 29.445 112.678 29.965C111.908 30.485 110.728 30.745 109.138 30.745H108.763C108.753 30.805 108.748 30.86 108.748 30.91C108.748 30.95 108.748 30.995 108.748 31.045C108.748 31.485 108.873 31.835 109.123 32.095C109.383 32.355 109.743 32.485 110.203 32.485C110.633 32.485 111.023 32.435 111.373 32.335C111.723 32.235 112.138 32.075 112.618 31.855V33.52C112.188 33.73 111.753 33.89 111.313 34C110.873 34.1 110.358 34.15 109.768 34.15ZM109.333 29.26C110.183 29.26 110.793 29.13 111.163 28.87C111.543 28.6 111.733 28.29 111.733 27.94C111.733 27.48 111.478 27.25 110.968 27.25C110.698 27.25 110.428 27.335 110.158 27.505C109.888 27.675 109.648 27.91 109.438 28.21C109.238 28.51 109.093 28.86 109.003 29.26H109.333ZM117.923 34.15C117.363 34.15 116.848 34.05 116.378 33.85C115.918 33.64 115.553 33.315 115.283 32.875C115.013 32.435 114.878 31.855 114.878 31.135C114.878 30.395 114.973 29.7 115.163 29.05C115.353 28.39 115.633 27.805 116.003 27.295C116.373 26.785 116.828 26.385 117.368 26.095C117.908 25.805 118.523 25.66 119.213 25.66C119.703 25.66 120.138 25.705 120.518 25.795C120.908 25.885 121.273 26.015 121.613 26.185L120.938 27.865C120.678 27.755 120.418 27.66 120.158 27.58C119.908 27.49 119.623 27.445 119.303 27.445C118.843 27.445 118.448 27.62 118.118 27.97C117.788 28.31 117.538 28.75 117.368 29.29C117.198 29.82 117.113 30.375 117.113 30.955C117.113 31.415 117.223 31.765 117.443 32.005C117.663 32.245 117.973 32.365 118.373 32.365C118.743 32.365 119.083 32.31 119.393 32.2C119.713 32.08 120.043 31.935 120.383 31.765V33.565C120.043 33.745 119.673 33.89 119.273 34C118.883 34.1 118.433 34.15 117.923 34.15ZM121.739 34L123.479 25.81H125.159L125.009 27.325H125.069C125.389 26.835 125.754 26.435 126.164 26.125C126.584 25.815 127.079 25.66 127.649 25.66C128.209 25.66 128.644 25.81 128.954 26.11C129.264 26.4 129.469 26.805 129.569 27.325H129.629C129.939 26.835 130.309 26.435 130.739 26.125C131.169 25.815 131.669 25.66 132.239 25.66C132.919 25.66 133.429 25.875 133.769 26.305C134.109 26.725 134.279 27.295 134.279 28.015C134.279 28.375 134.224 28.815 134.114 29.335L133.139 34H130.934L131.939 29.215C132.019 28.865 132.059 28.575 132.059 28.345C132.059 27.745 131.819 27.445 131.339 27.445C131.009 27.445 130.709 27.585 130.439 27.865C130.169 28.145 129.934 28.525 129.734 29.005C129.534 29.475 129.374 30.005 129.254 30.595L128.549 34H126.344L127.349 29.215C127.429 28.865 127.469 28.575 127.469 28.345C127.469 27.745 127.229 27.445 126.749 27.445C126.419 27.445 126.119 27.59 125.849 27.88C125.579 28.16 125.344 28.54 125.144 29.02C124.954 29.5 124.794 30.03 124.664 30.61L123.944 34H121.739ZM139.203 34.15C138.083 34.15 137.218 33.865 136.608 33.295C136.008 32.715 135.708 31.895 135.708 30.835C135.708 30.155 135.803 29.505 135.993 28.885C136.193 28.265 136.483 27.715 136.863 27.235C137.243 26.745 137.713 26.36 138.273 26.08C138.843 25.8 139.503 25.66 140.253 25.66C141.133 25.66 141.843 25.85 142.383 26.23C142.933 26.61 143.208 27.155 143.208 27.865C143.208 28.475 143.038 28.925 142.698 29.215C142.368 29.505 141.948 29.71 141.438 29.83V29.89C141.788 29.99 142.093 30.17 142.353 30.43C142.613 30.68 142.743 31.045 142.743 31.525C142.743 31.985 142.618 32.415 142.368 32.815C142.118 33.215 141.733 33.54 141.213 33.79C140.693 34.03 140.023 34.15 139.203 34.15ZM139.698 29.005C140.118 29.005 140.443 28.92 140.673 28.75C140.913 28.58 141.033 28.325 141.033 27.985C141.033 27.755 140.953 27.575 140.793 27.445C140.633 27.315 140.423 27.25 140.163 27.25C139.733 27.25 139.348 27.41 139.008 27.73C138.678 28.05 138.418 28.475 138.228 29.005H139.698ZM139.233 32.605C139.643 32.605 139.958 32.5 140.178 32.29C140.408 32.08 140.523 31.81 140.523 31.48C140.523 31.16 140.403 30.92 140.163 30.76C139.933 30.6 139.543 30.52 138.993 30.52H137.928C137.918 30.59 137.913 30.665 137.913 30.745C137.913 30.825 137.913 30.905 137.913 30.985C137.913 31.565 138.038 31.98 138.288 32.23C138.548 32.48 138.863 32.605 139.233 32.605ZM147.441 34.15C146.831 34.15 146.286 34.025 145.806 33.775C145.336 33.515 144.966 33.15 144.696 32.68C144.436 32.21 144.306 31.65 144.306 31C144.306 30.28 144.396 29.6 144.576 28.96C144.756 28.31 145.026 27.74 145.386 27.25C145.746 26.75 146.196 26.36 146.736 26.08C147.286 25.8 147.926 25.66 148.656 25.66C149.606 25.66 150.361 25.945 150.921 26.515C151.481 27.085 151.761 27.88 151.761 28.9C151.761 29.59 151.676 30.25 151.506 30.88C151.336 31.51 151.071 32.07 150.711 32.56C150.361 33.05 149.911 33.44 149.361 33.73C148.821 34.01 148.181 34.15 147.441 34.15ZM147.621 32.35C148.031 32.35 148.376 32.185 148.656 31.855C148.946 31.525 149.166 31.1 149.316 30.58C149.466 30.05 149.541 29.49 149.541 28.9C149.541 28.49 149.461 28.15 149.301 27.88C149.151 27.6 148.881 27.46 148.491 27.46C148.161 27.46 147.871 27.575 147.621 27.805C147.371 28.025 147.166 28.315 147.006 28.675C146.846 29.035 146.726 29.42 146.646 29.83C146.566 30.24 146.526 30.63 146.526 31C146.526 31.9 146.891 32.35 147.621 32.35ZM156.977 34.15C156.557 34.15 156.192 34.09 155.882 33.97V32.155C156.072 32.235 156.277 32.275 156.497 32.275C156.757 32.275 156.972 32.16 157.142 31.93C157.312 31.69 157.467 31.375 157.607 30.985C157.747 30.595 157.897 30.17 158.057 29.71C158.297 29.02 158.537 28.42 158.777 27.91C159.017 27.4 159.297 26.98 159.617 26.65C159.937 26.32 160.342 26.075 160.832 25.915C161.322 25.745 161.937 25.66 162.677 25.66C163.177 25.66 163.652 25.705 164.102 25.795C164.562 25.875 164.932 25.97 165.212 26.08L163.547 34H161.342L162.722 27.52C162.652 27.5 162.577 27.485 162.497 27.475C162.417 27.465 162.337 27.46 162.257 27.46C161.857 27.46 161.532 27.575 161.282 27.805C161.042 28.035 160.832 28.375 160.652 28.825C160.472 29.275 160.267 29.835 160.037 30.505C159.867 31.005 159.697 31.475 159.527 31.915C159.367 32.355 159.177 32.745 158.957 33.085C158.737 33.415 158.467 33.675 158.147 33.865C157.837 34.055 157.447 34.15 156.977 34.15ZM173.271 34.15C172.331 34.15 171.596 33.875 171.066 33.325C170.536 32.765 170.271 31.995 170.271 31.015V30.625H168.756L168.036 34H165.816L167.571 25.81H169.791L169.116 28.96H170.526C170.696 28.32 170.951 27.755 171.291 27.265C171.641 26.765 172.076 26.375 172.596 26.095C173.116 25.805 173.726 25.66 174.426 25.66C175.396 25.66 176.136 25.95 176.646 26.53C177.156 27.11 177.411 27.9 177.411 28.9C177.411 29.59 177.326 30.25 177.156 30.88C176.996 31.51 176.746 32.07 176.406 32.56C176.066 33.05 175.636 33.44 175.116 33.73C174.596 34.01 173.981 34.15 173.271 34.15ZM173.436 32.35C173.776 32.35 174.076 32.185 174.336 31.855C174.606 31.525 174.816 31.1 174.966 30.58C175.116 30.05 175.191 29.49 175.191 28.9C175.191 28.49 175.121 28.15 174.981 27.88C174.841 27.6 174.591 27.46 174.231 27.46C173.941 27.46 173.681 27.575 173.451 27.805C173.231 28.025 173.046 28.315 172.896 28.675C172.746 29.035 172.631 29.42 172.551 29.83C172.471 30.24 172.431 30.63 172.431 31C172.431 31.9 172.766 32.35 173.436 32.35ZM181.895 34.15C181.165 34.15 180.565 34.01 180.095 33.73C179.625 33.44 179.28 33.05 179.06 32.56C178.84 32.07 178.73 31.52 178.73 30.91C178.73 29.97 178.88 29.16 179.18 28.48C179.48 27.79 179.895 27.255 180.425 26.875C180.965 26.495 181.58 26.305 182.27 26.305C182.78 26.305 183.2 26.435 183.53 26.695C183.86 26.955 184.12 27.27 184.31 27.64H184.37C184.38 27.56 184.385 27.475 184.385 27.385C184.385 27.285 184.385 27.21 184.385 27.16C184.385 26.18 184.23 25.465 183.92 25.015C183.62 24.555 183.13 24.325 182.45 24.325C182.22 24.325 181.97 24.355 181.7 24.415C181.43 24.465 181.185 24.535 180.965 24.625L180.5 22.885C180.82 22.765 181.175 22.675 181.565 22.615C181.955 22.555 182.365 22.525 182.795 22.525C183.695 22.525 184.425 22.715 184.985 23.095C185.545 23.475 185.955 24.015 186.215 24.715C186.475 25.415 186.605 26.245 186.605 27.205C186.605 28.055 186.52 28.89 186.35 29.71C186.18 30.53 185.905 31.275 185.525 31.945C185.155 32.615 184.67 33.15 184.07 33.55C183.48 33.95 182.755 34.15 181.895 34.15ZM182.015 32.35C182.435 32.35 182.785 32.195 183.065 31.885C183.345 31.575 183.57 31.175 183.74 30.685C183.91 30.195 184.035 29.675 184.115 29.125C184.015 28.805 183.855 28.54 183.635 28.33C183.425 28.11 183.145 28 182.795 28C182.225 28 181.775 28.275 181.445 28.825C181.115 29.375 180.95 30.095 180.95 30.985C180.95 31.415 181.04 31.75 181.22 31.99C181.41 32.23 181.675 32.35 182.015 32.35ZM190.979 34.15C190.019 34.15 189.239 33.89 188.639 33.37C188.039 32.84 187.739 32.045 187.739 30.985C187.739 30.295 187.834 29.635 188.024 29.005C188.224 28.365 188.514 27.795 188.894 27.295C189.284 26.795 189.764 26.4 190.334 26.11C190.904 25.81 191.564 25.66 192.314 25.66C193.234 25.66 193.919 25.87 194.369 26.29C194.829 26.71 195.059 27.245 195.059 27.895C195.059 28.755 194.669 29.445 193.889 29.965C193.119 30.485 191.939 30.745 190.349 30.745H189.974C189.964 30.805 189.959 30.86 189.959 30.91C189.959 30.95 189.959 30.995 189.959 31.045C189.959 31.485 190.084 31.835 190.334 32.095C190.594 32.355 190.954 32.485 191.414 32.485C191.844 32.485 192.234 32.435 192.584 32.335C192.934 32.235 193.349 32.075 193.829 31.855V33.52C193.399 33.73 192.964 33.89 192.524 34C192.084 34.1 191.569 34.15 190.979 34.15ZM190.544 29.26C191.394 29.26 192.004 29.13 192.374 28.87C192.754 28.6 192.944 28.29 192.944 27.94C192.944 27.48 192.689 27.25 192.179 27.25C191.909 27.25 191.639 27.335 191.369 27.505C191.099 27.675 190.859 27.91 190.649 28.21C190.449 28.51 190.304 28.86 190.214 29.26H190.544ZM200.964 24.91C200.154 24.91 199.529 24.8 199.089 24.58C198.649 24.36 198.344 24.075 198.174 23.725C198.014 23.375 197.934 23.01 197.934 22.63C197.934 22.57 197.934 22.51 197.934 22.45C197.944 22.39 197.954 22.335 197.964 22.285H199.914C199.904 22.365 199.899 22.43 199.899 22.48C199.899 22.53 199.899 22.58 199.899 22.63C199.899 22.99 200.009 23.25 200.229 23.41C200.449 23.57 200.754 23.65 201.144 23.65C201.594 23.65 201.954 23.55 202.224 23.35C202.504 23.15 202.704 22.795 202.824 22.285H204.819C204.689 22.815 204.479 23.28 204.189 23.68C203.909 24.07 203.509 24.375 202.989 24.595C202.479 24.805 201.804 24.91 200.964 24.91ZM198.324 34.15C197.624 34.15 197.099 33.94 196.749 33.52C196.409 33.09 196.239 32.515 196.239 31.795C196.239 31.615 196.254 31.385 196.284 31.105C196.314 30.815 196.359 30.525 196.419 30.235L197.349 25.81H199.554L198.549 30.595C198.469 30.945 198.429 31.235 198.429 31.465C198.429 32.065 198.694 32.365 199.224 32.365C199.564 32.365 199.864 32.225 200.124 31.945C200.394 31.655 200.629 31.27 200.829 30.79C201.029 30.31 201.189 29.78 201.309 29.2L202.029 25.81H204.234L202.494 34H200.814L200.964 32.485H200.889C200.579 32.975 200.214 33.375 199.794 33.685C199.384 33.995 198.894 34.15 198.324 34.15ZM205.471 31.57H208.036L205.531 36.175H204.046L205.471 31.57ZM214.951 34.15C214.451 34.15 213.986 34.075 213.556 33.925C213.126 33.775 212.781 33.53 212.521 33.19C212.261 32.84 212.131 32.385 212.131 31.825C212.131 31.375 212.211 31 212.371 30.7C212.541 30.39 212.766 30.135 213.046 29.935C213.326 29.735 213.631 29.57 213.961 29.44C214.301 29.3 214.641 29.175 214.981 29.065C215.471 28.905 215.826 28.77 216.046 28.66C216.266 28.55 216.406 28.445 216.466 28.345C216.536 28.235 216.571 28.1 216.571 27.94C216.571 27.52 216.276 27.31 215.686 27.31C215.346 27.31 215.021 27.36 214.711 27.46C214.401 27.56 214.076 27.695 213.736 27.865L213.196 26.305C213.576 26.125 214.011 25.975 214.501 25.855C214.991 25.725 215.511 25.66 216.061 25.66C216.561 25.66 217.016 25.735 217.426 25.885C217.846 26.025 218.176 26.26 218.416 26.59C218.666 26.91 218.791 27.34 218.791 27.88C218.791 28.34 218.711 28.725 218.551 29.035C218.391 29.335 218.171 29.585 217.891 29.785C217.621 29.985 217.306 30.16 216.946 30.31C216.586 30.45 216.206 30.59 215.806 30.73C215.336 30.89 214.976 31.04 214.726 31.18C214.486 31.32 214.366 31.52 214.366 31.78C214.366 31.99 214.441 32.165 214.591 32.305C214.751 32.445 215.026 32.515 215.416 32.515C215.836 32.515 216.251 32.445 216.661 32.305C217.071 32.165 217.451 32.015 217.801 31.855V33.52C217.391 33.72 216.971 33.875 216.541 33.985C216.111 34.095 215.581 34.15 214.951 34.15ZM222.984 34.15C222.254 34.15 221.654 34.01 221.184 33.73C220.714 33.44 220.369 33.05 220.149 32.56C219.929 32.07 219.819 31.52 219.819 30.91C219.819 29.97 219.969 29.16 220.269 28.48C220.569 27.79 220.984 27.255 221.514 26.875C222.054 26.495 222.669 26.305 223.359 26.305C223.869 26.305 224.289 26.435 224.619 26.695C224.949 26.955 225.209 27.27 225.399 27.64H225.459C225.469 27.56 225.474 27.475 225.474 27.385C225.474 27.285 225.474 27.21 225.474 27.16C225.474 26.18 225.319 25.465 225.009 25.015C224.709 24.555 224.219 24.325 223.539 24.325C223.309 24.325 223.059 24.355 222.789 24.415C222.519 24.465 222.274 24.535 222.054 24.625L221.589 22.885C221.909 22.765 222.264 22.675 222.654 22.615C223.044 22.555 223.454 22.525 223.884 22.525C224.784 22.525 225.514 22.715 226.074 23.095C226.634 23.475 227.044 24.015 227.304 24.715C227.564 25.415 227.694 26.245 227.694 27.205C227.694 28.055 227.609 28.89 227.439 29.71C227.269 30.53 226.994 31.275 226.614 31.945C226.244 32.615 225.759 33.15 225.159 33.55C224.569 33.95 223.844 34.15 222.984 34.15ZM223.104 32.35C223.524 32.35 223.874 32.195 224.154 31.885C224.434 31.575 224.659 31.175 224.829 30.685C224.999 30.195 225.124 29.675 225.204 29.125C225.104 28.805 224.944 28.54 224.724 28.33C224.514 28.11 224.234 28 223.884 28C223.314 28 222.864 28.275 222.534 28.825C222.204 29.375 222.039 30.095 222.039 30.985C222.039 31.415 222.129 31.75 222.309 31.99C222.499 32.23 222.764 32.35 223.104 32.35ZM232.068 34.15C231.108 34.15 230.328 33.89 229.728 33.37C229.128 32.84 228.828 32.045 228.828 30.985C228.828 30.295 228.923 29.635 229.113 29.005C229.313 28.365 229.603 27.795 229.983 27.295C230.373 26.795 230.853 26.4 231.423 26.11C231.993 25.81 232.653 25.66 233.403 25.66C234.323 25.66 235.008 25.87 235.458 26.29C235.918 26.71 236.148 27.245 236.148 27.895C236.148 28.755 235.758 29.445 234.978 29.965C234.208 30.485 233.028 30.745 231.438 30.745H231.063C231.053 30.805 231.048 30.86 231.048 30.91C231.048 30.95 231.048 30.995 231.048 31.045C231.048 31.485 231.173 31.835 231.423 32.095C231.683 32.355 232.043 32.485 232.503 32.485C232.933 32.485 233.323 32.435 233.673 32.335C234.023 32.235 234.438 32.075 234.918 31.855V33.52C234.488 33.73 234.053 33.89 233.613 34C233.173 34.1 232.658 34.15 232.068 34.15ZM231.633 29.26C232.483 29.26 233.093 29.13 233.463 28.87C233.843 28.6 234.033 28.29 234.033 27.94C234.033 27.48 233.778 27.25 233.268 27.25C232.998 27.25 232.728 27.335 232.458 27.505C232.188 27.675 231.948 27.91 231.738 28.21C231.538 28.51 231.393 28.86 231.303 29.26H231.633ZM1.27 56L3.025 47.81H5.245L4.57 50.96H7.12L7.78 47.81H9.985L8.245 56H6.04L6.745 52.625H4.21L3.49 56H1.27ZM13.1382 56.15C12.4382 56.15 11.9132 55.94 11.5632 55.52C11.2232 55.09 11.0532 54.515 11.0532 53.795C11.0532 53.615 11.0682 53.385 11.0982 53.105C11.1282 52.815 11.1732 52.525 11.2332 52.235L12.1632 47.81H14.3682L13.3632 52.595C13.2832 52.945 13.2432 53.235 13.2432 53.465C13.2432 54.065 13.5082 54.365 14.0382 54.365C14.3782 54.365 14.6782 54.225 14.9382 53.945C15.2082 53.655 15.4432 53.27 15.6432 52.79C15.8432 52.31 16.0032 51.78 16.1232 51.2L16.8432 47.81H19.0482L17.3082 56H15.6282L15.7782 54.485H15.7032C15.3932 54.975 15.0282 55.375 14.6082 55.685C14.1982 55.995 13.7082 56.15 13.1382 56.15ZM19.5659 56L21.3209 47.81H23.5259L22.7159 51.62L25.9409 47.81H28.4609L24.9509 51.92L26.9759 56H24.5009L22.6259 52.01L21.7709 56H19.5659ZM28.2378 56L29.9778 47.81H31.6578L31.5078 49.325H31.5678C31.8878 48.835 32.2528 48.435 32.6628 48.125C33.0828 47.815 33.5778 47.66 34.1478 47.66C34.7078 47.66 35.1428 47.81 35.4528 48.11C35.7628 48.4 35.9678 48.805 36.0678 49.325H36.1278C36.4378 48.835 36.8078 48.435 37.2378 48.125C37.6678 47.815 38.1678 47.66 38.7378 47.66C39.4178 47.66 39.9278 47.875 40.2678 48.305C40.6078 48.725 40.7778 49.295 40.7778 50.015C40.7778 50.375 40.7228 50.815 40.6128 51.335L39.6378 56H37.4328L38.4378 51.215C38.5178 50.865 38.5578 50.575 38.5578 50.345C38.5578 49.745 38.3178 49.445 37.8378 49.445C37.5078 49.445 37.2078 49.585 36.9378 49.865C36.6678 50.145 36.4328 50.525 36.2328 51.005C36.0328 51.475 35.8728 52.005 35.7528 52.595L35.0478 56H32.8428L33.8478 51.215C33.9278 50.865 33.9678 50.575 33.9678 50.345C33.9678 49.745 33.7278 49.445 33.2478 49.445C32.9178 49.445 32.6178 49.59 32.3478 49.88C32.0778 50.16 31.8428 50.54 31.6428 51.02C31.4528 51.5 31.2928 52.03 31.1628 52.61L30.4428 56H28.2378ZM45.3419 56.15C44.7319 56.15 44.1869 56.025 43.7069 55.775C43.2369 55.515 42.8669 55.15 42.5969 54.68C42.3369 54.21 42.2069 53.65 42.2069 53C42.2069 52.28 42.2969 51.6 42.4769 50.96C42.6569 50.31 42.9269 49.74 43.2869 49.25C43.6469 48.75 44.0969 48.36 44.6369 48.08C45.1869 47.8 45.8269 47.66 46.5569 47.66C47.5069 47.66 48.2619 47.945 48.8219 48.515C49.3819 49.085 49.6619 49.88 49.6619 50.9C49.6619 51.59 49.5769 52.25 49.4069 52.88C49.2369 53.51 48.9719 54.07 48.6119 54.56C48.2619 55.05 47.8119 55.44 47.2619 55.73C46.7219 56.01 46.0819 56.15 45.3419 56.15ZM45.5219 54.35C45.9319 54.35 46.2769 54.185 46.5569 53.855C46.8469 53.525 47.0669 53.1 47.2169 52.58C47.3669 52.05 47.4419 51.49 47.4419 50.9C47.4419 50.49 47.3619 50.15 47.2019 49.88C47.0519 49.6 46.7819 49.46 46.3919 49.46C46.0619 49.46 45.7719 49.575 45.5219 49.805C45.2719 50.025 45.0669 50.315 44.9069 50.675C44.7469 51.035 44.6269 51.42 44.5469 51.83C44.4669 52.24 44.4269 52.63 44.4269 53C44.4269 53.9 44.7919 54.35 45.5219 54.35ZM54.4878 56L56.2428 47.81H58.4628L57.7878 50.96H60.3378L60.9978 47.81H63.2028L61.4628 56H59.2578L59.9628 52.625H57.4278L56.7078 56H54.4878ZM67.3609 56.15C66.4009 56.15 65.6209 55.89 65.0209 55.37C64.4209 54.84 64.1209 54.045 64.1209 52.985C64.1209 52.295 64.2159 51.635 64.4059 51.005C64.6059 50.365 64.8959 49.795 65.2759 49.295C65.6659 48.795 66.1459 48.4 66.7159 48.11C67.2859 47.81 67.9459 47.66 68.6959 47.66C69.6159 47.66 70.3009 47.87 70.7509 48.29C71.2109 48.71 71.4409 49.245 71.4409 49.895C71.4409 50.755 71.0509 51.445 70.2709 51.965C69.5009 52.485 68.3209 52.745 66.7309 52.745H66.3559C66.3459 52.805 66.3409 52.86 66.3409 52.91C66.3409 52.95 66.3409 52.995 66.3409 53.045C66.3409 53.485 66.4659 53.835 66.7159 54.095C66.9759 54.355 67.3359 54.485 67.7959 54.485C68.2259 54.485 68.6159 54.435 68.9659 54.335C69.3159 54.235 69.7309 54.075 70.2109 53.855V55.52C69.7809 55.73 69.3459 55.89 68.9059 56C68.4659 56.1 67.9509 56.15 67.3609 56.15ZM66.9259 51.26C67.7759 51.26 68.3859 51.13 68.7559 50.87C69.1359 50.6 69.3259 50.29 69.3259 49.94C69.3259 49.48 69.0709 49.25 68.5609 49.25C68.2909 49.25 68.0209 49.335 67.7509 49.505C67.4809 49.675 67.2409 49.91 67.0309 50.21C66.8309 50.51 66.6859 50.86 66.5959 51.26H66.9259ZM79.862 56.15C78.742 56.15 77.877 55.865 77.267 55.295C76.667 54.715 76.367 53.895 76.367 52.835C76.367 52.155 76.462 51.505 76.652 50.885C76.852 50.265 77.142 49.715 77.522 49.235C77.902 48.745 78.372 48.36 78.932 48.08C79.502 47.8 80.162 47.66 80.912 47.66C81.792 47.66 82.502 47.85 83.042 48.23C83.592 48.61 83.867 49.155 83.867 49.865C83.867 50.475 83.697 50.925 83.357 51.215C83.027 51.505 82.607 51.71 82.097 51.83V51.89C82.447 51.99 82.752 52.17 83.012 52.43C83.272 52.68 83.402 53.045 83.402 53.525C83.402 53.985 83.277 54.415 83.027 54.815C82.777 55.215 82.392 55.54 81.872 55.79C81.352 56.03 80.682 56.15 79.862 56.15ZM80.357 51.005C80.777 51.005 81.102 50.92 81.332 50.75C81.572 50.58 81.692 50.325 81.692 49.985C81.692 49.755 81.612 49.575 81.452 49.445C81.292 49.315 81.082 49.25 80.822 49.25C80.392 49.25 80.007 49.41 79.667 49.73C79.337 50.05 79.077 50.475 78.887 51.005H80.357ZM79.892 54.605C80.302 54.605 80.617 54.5 80.837 54.29C81.067 54.08 81.182 53.81 81.182 53.48C81.182 53.16 81.062 52.92 80.822 52.76C80.592 52.6 80.202 52.52 79.652 52.52H78.587C78.577 52.59 78.572 52.665 78.572 52.745C78.572 52.825 78.572 52.905 78.572 52.985C78.572 53.565 78.697 53.98 78.947 54.23C79.207 54.48 79.522 54.605 79.892 54.605ZM88.2057 56.15C87.2457 56.15 86.4657 55.89 85.8657 55.37C85.2657 54.84 84.9657 54.045 84.9657 52.985C84.9657 52.295 85.0607 51.635 85.2507 51.005C85.4507 50.365 85.7407 49.795 86.1207 49.295C86.5107 48.795 86.9907 48.4 87.5607 48.11C88.1307 47.81 88.7907 47.66 89.5407 47.66C90.4607 47.66 91.1457 47.87 91.5957 48.29C92.0557 48.71 92.2857 49.245 92.2857 49.895C92.2857 50.755 91.8957 51.445 91.1157 51.965C90.3457 52.485 89.1657 52.745 87.5757 52.745H87.2007C87.1907 52.805 87.1857 52.86 87.1857 52.91C87.1857 52.95 87.1857 52.995 87.1857 53.045C87.1857 53.485 87.3107 53.835 87.5607 54.095C87.8207 54.355 88.1807 54.485 88.6407 54.485C89.0707 54.485 89.4607 54.435 89.8107 54.335C90.1607 54.235 90.5757 54.075 91.0557 53.855V55.52C90.6257 55.73 90.1907 55.89 89.7507 56C89.3107 56.1 88.7957 56.15 88.2057 56.15ZM87.7707 51.26C88.6207 51.26 89.2307 51.13 89.6007 50.87C89.9807 50.6 90.1707 50.29 90.1707 49.94C90.1707 49.48 89.9157 49.25 89.4057 49.25C89.1357 49.25 88.8657 49.335 88.5957 49.505C88.3257 49.675 88.0857 49.91 87.8757 50.21C87.6757 50.51 87.5307 50.86 87.4407 51.26H87.7707ZM96.4803 56.15C95.7503 56.15 95.1503 56.01 94.6803 55.73C94.2103 55.44 93.8653 55.05 93.6453 54.56C93.4253 54.07 93.3153 53.52 93.3153 52.91C93.3153 51.97 93.4653 51.16 93.7653 50.48C94.0653 49.79 94.4803 49.255 95.0103 48.875C95.5503 48.495 96.1653 48.305 96.8553 48.305C97.3653 48.305 97.7853 48.435 98.1153 48.695C98.4453 48.955 98.7053 49.27 98.8953 49.64H98.9553C98.9653 49.56 98.9703 49.475 98.9703 49.385C98.9703 49.285 98.9703 49.21 98.9703 49.16C98.9703 48.18 98.8153 47.465 98.5053 47.015C98.2053 46.555 97.7153 46.325 97.0353 46.325C96.8053 46.325 96.5553 46.355 96.2853 46.415C96.0153 46.465 95.7703 46.535 95.5503 46.625L95.0853 44.885C95.4053 44.765 95.7603 44.675 96.1503 44.615C96.5403 44.555 96.9503 44.525 97.3803 44.525C98.2803 44.525 99.0103 44.715 99.5703 45.095C100.13 45.475 100.54 46.015 100.8 46.715C101.06 47.415 101.19 48.245 101.19 49.205C101.19 50.055 101.105 50.89 100.935 51.71C100.765 52.53 100.49 53.275 100.11 53.945C99.7403 54.615 99.2553 55.15 98.6553 55.55C98.0653 55.95 97.3403 56.15 96.4803 56.15ZM96.6003 54.35C97.0203 54.35 97.3703 54.195 97.6503 53.885C97.9303 53.575 98.1553 53.175 98.3253 52.685C98.4953 52.195 98.6203 51.675 98.7003 51.125C98.6003 50.805 98.4403 50.54 98.2203 50.33C98.0103 50.11 97.7303 50 97.3803 50C96.8103 50 96.3603 50.275 96.0303 50.825C95.7003 51.375 95.5353 52.095 95.5353 52.985C95.5353 53.415 95.6253 53.75 95.8053 53.99C95.9953 54.23 96.2603 54.35 96.6003 54.35ZM105.564 56.15C104.604 56.15 103.824 55.89 103.224 55.37C102.624 54.84 102.324 54.045 102.324 52.985C102.324 52.295 102.419 51.635 102.609 51.005C102.809 50.365 103.099 49.795 103.479 49.295C103.869 48.795 104.349 48.4 104.919 48.11C105.489 47.81 106.149 47.66 106.899 47.66C107.819 47.66 108.504 47.87 108.954 48.29C109.414 48.71 109.644 49.245 109.644 49.895C109.644 50.755 109.254 51.445 108.474 51.965C107.704 52.485 106.524 52.745 104.934 52.745H104.559C104.549 52.805 104.544 52.86 104.544 52.91C104.544 52.95 104.544 52.995 104.544 53.045C104.544 53.485 104.669 53.835 104.919 54.095C105.179 54.355 105.539 54.485 105.999 54.485C106.429 54.485 106.819 54.435 107.169 54.335C107.519 54.235 107.934 54.075 108.414 53.855V55.52C107.984 55.73 107.549 55.89 107.109 56C106.669 56.1 106.154 56.15 105.564 56.15ZM105.129 51.26C105.979 51.26 106.589 51.13 106.959 50.87C107.339 50.6 107.529 50.29 107.529 49.94C107.529 49.48 107.274 49.25 106.764 49.25C106.494 49.25 106.224 49.335 105.954 49.505C105.684 49.675 105.444 49.91 105.234 50.21C105.034 50.51 104.889 50.86 104.799 51.26H105.129ZM110.284 56L112.024 47.81H113.704L113.554 49.325H113.614C113.934 48.835 114.299 48.435 114.709 48.125C115.129 47.815 115.624 47.66 116.194 47.66C116.754 47.66 117.189 47.81 117.499 48.11C117.809 48.4 118.014 48.805 118.114 49.325H118.174C118.484 48.835 118.854 48.435 119.284 48.125C119.714 47.815 120.214 47.66 120.784 47.66C121.464 47.66 121.974 47.875 122.314 48.305C122.654 48.725 122.824 49.295 122.824 50.015C122.824 50.375 122.769 50.815 122.659 51.335L121.684 56H119.479L120.484 51.215C120.564 50.865 120.604 50.575 120.604 50.345C120.604 49.745 120.364 49.445 119.884 49.445C119.554 49.445 119.254 49.585 118.984 49.865C118.714 50.145 118.479 50.525 118.279 51.005C118.079 51.475 117.919 52.005 117.799 52.595L117.094 56H114.889L115.894 51.215C115.974 50.865 116.014 50.575 116.014 50.345C116.014 49.745 115.774 49.445 115.294 49.445C114.964 49.445 114.664 49.59 114.394 49.88C114.124 50.16 113.889 50.54 113.689 51.02C113.499 51.5 113.339 52.03 113.209 52.61L112.489 56H110.284ZM131.194 56.15C130.634 56.15 130.119 56.05 129.649 55.85C129.189 55.64 128.824 55.315 128.554 54.875C128.284 54.435 128.149 53.855 128.149 53.135C128.149 52.395 128.244 51.7 128.434 51.05C128.624 50.39 128.904 49.805 129.274 49.295C129.644 48.785 130.099 48.385 130.639 48.095C131.179 47.805 131.794 47.66 132.484 47.66C132.974 47.66 133.409 47.705 133.789 47.795C134.179 47.885 134.544 48.015 134.884 48.185L134.209 49.865C133.949 49.755 133.689 49.66 133.429 49.58C133.179 49.49 132.894 49.445 132.574 49.445C132.114 49.445 131.719 49.62 131.389 49.97C131.059 50.31 130.809 50.75 130.639 51.29C130.469 51.82 130.384 52.375 130.384 52.955C130.384 53.415 130.494 53.765 130.714 54.005C130.934 54.245 131.244 54.365 131.644 54.365C132.014 54.365 132.354 54.31 132.664 54.2C132.984 54.08 133.314 53.935 133.654 53.765V55.565C133.314 55.745 132.944 55.89 132.544 56C132.154 56.1 131.704 56.15 131.194 56.15ZM138.64 56.15C137.68 56.15 136.9 55.89 136.3 55.37C135.7 54.84 135.4 54.045 135.4 52.985C135.4 52.295 135.495 51.635 135.685 51.005C135.885 50.365 136.175 49.795 136.555 49.295C136.945 48.795 137.425 48.4 137.995 48.11C138.565 47.81 139.225 47.66 139.975 47.66C140.895 47.66 141.58 47.87 142.03 48.29C142.49 48.71 142.72 49.245 142.72 49.895C142.72 50.755 142.33 51.445 141.55 51.965C140.78 52.485 139.6 52.745 138.01 52.745H137.635C137.625 52.805 137.62 52.86 137.62 52.91C137.62 52.95 137.62 52.995 137.62 53.045C137.62 53.485 137.745 53.835 137.995 54.095C138.255 54.355 138.615 54.485 139.075 54.485C139.505 54.485 139.895 54.435 140.245 54.335C140.595 54.235 141.01 54.075 141.49 53.855V55.52C141.06 55.73 140.625 55.89 140.185 56C139.745 56.1 139.23 56.15 138.64 56.15ZM138.205 51.26C139.055 51.26 139.665 51.13 140.035 50.87C140.415 50.6 140.605 50.29 140.605 49.94C140.605 49.48 140.35 49.25 139.84 49.25C139.57 49.25 139.3 49.335 139.03 49.505C138.76 49.675 138.52 49.91 138.31 50.21C138.11 50.51 137.965 50.86 137.875 51.26H138.205ZM146.915 56.15C145.995 56.15 145.26 55.865 144.71 55.295C144.16 54.725 143.885 53.835 143.885 52.625C143.885 51.895 143.96 51.165 144.11 50.435C144.26 49.695 144.48 49 144.77 48.35C145.07 47.69 145.445 47.11 145.895 46.61C146.345 46.1 146.87 45.71 147.47 45.44C147.83 45.28 148.28 45.145 148.82 45.035C149.37 44.915 149.94 44.815 150.53 44.735C151.12 44.655 151.66 44.585 152.15 44.525L152.375 46.415C152.065 46.455 151.715 46.505 151.325 46.565C150.945 46.615 150.57 46.67 150.2 46.73C149.83 46.78 149.505 46.835 149.225 46.895C148.775 46.985 148.375 47.13 148.025 47.33C147.675 47.52 147.38 47.795 147.14 48.155C146.9 48.515 146.7 49 146.54 49.61L146.585 49.625C146.845 49.305 147.175 49.015 147.575 48.755C147.985 48.495 148.465 48.365 149.015 48.365C149.735 48.365 150.275 48.605 150.635 49.085C151.005 49.565 151.19 50.225 151.19 51.065C151.19 51.685 151.105 52.3 150.935 52.91C150.765 53.51 150.505 54.055 150.155 54.545C149.805 55.035 149.36 55.425 148.82 55.715C148.29 56.005 147.655 56.15 146.915 56.15ZM147.125 54.335C147.485 54.335 147.8 54.175 148.07 53.855C148.35 53.535 148.57 53.13 148.73 52.64C148.89 52.14 148.97 51.64 148.97 51.14C148.97 50.79 148.9 50.515 148.76 50.315C148.63 50.115 148.42 50.015 148.13 50.015C147.89 50.015 147.65 50.085 147.41 50.225C147.18 50.365 146.97 50.535 146.78 50.735C146.59 50.925 146.43 51.105 146.3 51.275C146.26 51.485 146.22 51.72 146.18 51.98C146.14 52.23 146.12 52.47 146.12 52.7C146.12 53.19 146.195 53.585 146.345 53.885C146.505 54.185 146.765 54.335 147.125 54.335ZM152.824 56.15C152.384 56.15 152.014 56.09 151.714 55.97V54.155C151.794 54.185 151.879 54.215 151.969 54.245C152.069 54.265 152.174 54.275 152.284 54.275C152.484 54.275 152.649 54.22 152.779 54.11C152.909 53.99 153.024 53.85 153.124 53.69C153.384 53.27 153.609 52.96 153.799 52.76C153.989 52.55 154.229 52.4 154.519 52.31C154.189 52.17 153.914 51.965 153.694 51.695C153.474 51.425 153.364 51.055 153.364 50.585C153.364 49.935 153.524 49.405 153.844 48.995C154.164 48.585 154.594 48.285 155.134 48.095C155.674 47.905 156.264 47.81 156.904 47.81H160.324L158.599 56H156.394L157.054 52.955H156.604C156.284 52.955 156.034 53.06 155.854 53.27C155.674 53.47 155.509 53.725 155.359 54.035C155.219 54.345 155.044 54.67 154.834 55.01C154.634 55.32 154.379 55.59 154.069 55.82C153.759 56.04 153.344 56.15 152.824 56.15ZM156.694 51.455H157.369L157.804 49.385H156.874C156.514 49.385 156.214 49.485 155.974 49.685C155.734 49.885 155.614 50.175 155.614 50.555C155.614 50.825 155.699 51.045 155.869 51.215C156.049 51.375 156.324 51.455 156.694 51.455ZM168.646 56.15C167.526 56.15 166.661 55.865 166.051 55.295C165.451 54.715 165.151 53.895 165.151 52.835C165.151 52.155 165.246 51.505 165.436 50.885C165.636 50.265 165.926 49.715 166.306 49.235C166.686 48.745 167.156 48.36 167.716 48.08C168.286 47.8 168.946 47.66 169.696 47.66C170.576 47.66 171.286 47.85 171.826 48.23C172.376 48.61 172.651 49.155 172.651 49.865C172.651 50.475 172.481 50.925 172.141 51.215C171.811 51.505 171.391 51.71 170.881 51.83V51.89C171.231 51.99 171.536 52.17 171.796 52.43C172.056 52.68 172.186 53.045 172.186 53.525C172.186 53.985 172.061 54.415 171.811 54.815C171.561 55.215 171.176 55.54 170.656 55.79C170.136 56.03 169.466 56.15 168.646 56.15ZM169.141 51.005C169.561 51.005 169.886 50.92 170.116 50.75C170.356 50.58 170.476 50.325 170.476 49.985C170.476 49.755 170.396 49.575 170.236 49.445C170.076 49.315 169.866 49.25 169.606 49.25C169.176 49.25 168.791 49.41 168.451 49.73C168.121 50.05 167.861 50.475 167.671 51.005H169.141ZM168.676 54.605C169.086 54.605 169.401 54.5 169.621 54.29C169.851 54.08 169.966 53.81 169.966 53.48C169.966 53.16 169.846 52.92 169.606 52.76C169.376 52.6 168.986 52.52 168.436 52.52H167.371C167.361 52.59 167.356 52.665 167.356 52.745C167.356 52.825 167.356 52.905 167.356 52.985C167.356 53.565 167.481 53.98 167.731 54.23C167.991 54.48 168.306 54.605 168.676 54.605ZM176.72 56.15C176 56.15 175.43 56.045 175.01 55.835C174.6 55.625 174.305 55.34 174.125 54.98C173.955 54.61 173.87 54.205 173.87 53.765C173.87 53.635 173.88 53.45 173.9 53.21C173.92 52.96 173.965 52.685 174.035 52.385L175.025 47.81H177.23L176.51 51.14C176.71 51.09 176.935 51.05 177.185 51.02C177.435 50.99 177.705 50.975 177.995 50.975C178.665 50.975 179.215 51.17 179.645 51.56C180.075 51.95 180.29 52.48 180.29 53.15C180.29 53.66 180.165 54.145 179.915 54.605C179.675 55.055 179.29 55.425 178.76 55.715C178.24 56.005 177.56 56.15 176.72 56.15ZM180.935 56L182.675 47.81H184.88L183.14 56H180.935ZM176.9 54.605C177.25 54.605 177.535 54.495 177.755 54.275C177.975 54.055 178.085 53.76 178.085 53.39C178.085 52.81 177.78 52.52 177.17 52.52C176.89 52.52 176.57 52.565 176.21 52.655C176.15 52.915 176.11 53.11 176.09 53.24C176.07 53.36 176.06 53.515 176.06 53.705C176.06 54.025 176.145 54.255 176.315 54.395C176.485 54.535 176.68 54.605 176.9 54.605ZM188.041 56.15C187.491 56.15 186.971 56.095 186.481 55.985C186.001 55.875 185.611 55.745 185.311 55.595V53.78C185.641 53.94 186.031 54.09 186.481 54.23C186.941 54.36 187.436 54.425 187.966 54.425C188.486 54.425 188.931 54.35 189.301 54.2C189.671 54.05 189.856 53.77 189.856 53.36C189.856 52.79 189.426 52.505 188.566 52.505H187.276L187.606 50.96H188.521C189.141 50.96 189.606 50.895 189.916 50.765C190.236 50.635 190.396 50.39 190.396 50.03C190.396 49.8 190.311 49.625 190.141 49.505C189.981 49.375 189.691 49.31 189.271 49.31C188.941 49.31 188.571 49.365 188.161 49.475C187.761 49.585 187.361 49.725 186.961 49.895L186.436 48.29C186.916 48.1 187.421 47.95 187.951 47.84C188.481 47.72 189.051 47.66 189.661 47.66C190.221 47.66 190.721 47.73 191.161 47.87C191.611 48 191.961 48.215 192.211 48.515C192.471 48.805 192.601 49.195 192.601 49.685C192.601 50.275 192.416 50.725 192.046 51.035C191.686 51.345 191.236 51.57 190.696 51.71V51.77C191.106 51.88 191.441 52.065 191.701 52.325C191.961 52.585 192.091 52.95 192.091 53.42C192.091 54.24 191.766 54.9 191.116 55.4C190.466 55.9 189.441 56.15 188.041 56.15ZM196.627 56.15C195.907 56.15 195.337 56.045 194.917 55.835C194.507 55.625 194.212 55.34 194.032 54.98C193.862 54.61 193.777 54.205 193.777 53.765C193.777 53.635 193.787 53.45 193.807 53.21C193.827 52.96 193.872 52.685 193.942 52.385L194.932 47.81H197.137L196.417 51.14C196.617 51.09 196.842 51.05 197.092 51.02C197.342 50.99 197.612 50.975 197.902 50.975C198.572 50.975 199.122 51.17 199.552 51.56C199.982 51.95 200.197 52.48 200.197 53.15C200.197 53.66 200.072 54.145 199.822 54.605C199.582 55.055 199.197 55.425 198.667 55.715C198.147 56.005 197.467 56.15 196.627 56.15ZM200.842 56L202.582 47.81H204.787L203.047 56H200.842ZM196.807 54.605C197.157 54.605 197.442 54.495 197.662 54.275C197.882 54.055 197.992 53.76 197.992 53.39C197.992 52.81 197.687 52.52 197.077 52.52C196.797 52.52 196.477 52.565 196.117 52.655C196.057 52.915 196.017 53.11 195.997 53.24C195.977 53.36 195.967 53.515 195.967 53.705C195.967 54.025 196.052 54.255 196.222 54.395C196.392 54.535 196.587 54.605 196.807 54.605ZM209.193 56.15C208.073 56.15 207.208 55.865 206.598 55.295C205.998 54.715 205.698 53.895 205.698 52.835C205.698 52.155 205.793 51.505 205.983 50.885C206.183 50.265 206.473 49.715 206.853 49.235C207.233 48.745 207.703 48.36 208.263 48.08C208.833 47.8 209.493 47.66 210.243 47.66C211.123 47.66 211.833 47.85 212.373 48.23C212.923 48.61 213.198 49.155 213.198 49.865C213.198 50.475 213.028 50.925 212.688 51.215C212.358 51.505 211.938 51.71 211.428 51.83V51.89C211.778 51.99 212.083 52.17 212.343 52.43C212.603 52.68 212.733 53.045 212.733 53.525C212.733 53.985 212.608 54.415 212.358 54.815C212.108 55.215 211.723 55.54 211.203 55.79C210.683 56.03 210.013 56.15 209.193 56.15ZM209.688 51.005C210.108 51.005 210.433 50.92 210.663 50.75C210.903 50.58 211.023 50.325 211.023 49.985C211.023 49.755 210.943 49.575 210.783 49.445C210.623 49.315 210.413 49.25 210.153 49.25C209.723 49.25 209.338 49.41 208.998 49.73C208.668 50.05 208.408 50.475 208.218 51.005H209.688ZM209.223 54.605C209.633 54.605 209.948 54.5 210.168 54.29C210.398 54.08 210.513 53.81 210.513 53.48C210.513 53.16 210.393 52.92 210.153 52.76C209.923 52.6 209.533 52.52 208.983 52.52H207.918C207.908 52.59 207.903 52.665 207.903 52.745C207.903 52.825 207.903 52.905 207.903 52.985C207.903 53.565 208.028 53.98 208.278 54.23C208.538 54.48 208.853 54.605 209.223 54.605ZM216.607 56.15C216.217 56.15 215.842 56.055 215.482 55.865C215.132 55.665 214.847 55.35 214.627 54.92C214.407 54.48 214.297 53.9 214.297 53.18C214.297 52.51 214.387 51.85 214.567 51.2C214.747 50.55 215.002 49.96 215.332 49.43C215.662 48.89 216.057 48.46 216.517 48.14C216.987 47.82 217.512 47.66 218.092 47.66C218.612 47.66 219.032 47.77 219.352 47.99C219.682 48.21 219.937 48.5 220.117 48.86H220.177L220.597 47.81H222.292L220.552 56H218.902L219.007 54.935H218.947C218.657 55.295 218.322 55.59 217.942 55.82C217.572 56.04 217.127 56.15 216.607 56.15ZM217.477 54.365C217.777 54.365 218.057 54.245 218.317 54.005C218.577 53.765 218.797 53.455 218.977 53.075C219.167 52.695 219.302 52.295 219.382 51.875C219.452 51.515 219.487 51.105 219.487 50.645C219.487 50.295 219.397 50.01 219.217 49.79C219.037 49.56 218.787 49.445 218.467 49.445C218.197 49.445 217.942 49.555 217.702 49.775C217.472 49.985 217.267 50.265 217.087 50.615C216.917 50.965 216.782 51.355 216.682 51.785C216.582 52.215 216.532 52.645 216.532 53.075C216.532 53.935 216.847 54.365 217.477 54.365ZM230.268 56.15C229.328 56.15 228.593 55.875 228.063 55.325C227.533 54.765 227.268 53.995 227.268 53.015V52.625H225.753L225.033 56H222.813L224.568 47.81H226.788L226.113 50.96H227.523C227.693 50.32 227.948 49.755 228.288 49.265C228.638 48.765 229.073 48.375 229.593 48.095C230.113 47.805 230.723 47.66 231.423 47.66C232.393 47.66 233.133 47.95 233.643 48.53C234.153 49.11 234.408 49.9 234.408 50.9C234.408 51.59 234.323 52.25 234.153 52.88C233.993 53.51 233.743 54.07 233.403 54.56C233.063 55.05 232.633 55.44 232.113 55.73C231.593 56.01 230.978 56.15 230.268 56.15ZM230.433 54.35C230.773 54.35 231.073 54.185 231.333 53.855C231.603 53.525 231.813 53.1 231.963 52.58C232.113 52.05 232.188 51.49 232.188 50.9C232.188 50.49 232.118 50.15 231.978 49.88C231.838 49.6 231.588 49.46 231.228 49.46C230.938 49.46 230.678 49.575 230.448 49.805C230.228 50.025 230.043 50.315 229.893 50.675C229.743 51.035 229.628 51.42 229.548 51.83C229.468 52.24 229.428 52.63 229.428 53C229.428 53.9 229.763 54.35 230.433 54.35ZM245.927 56C245.647 55.87 245.437 55.685 245.297 55.445C245.167 55.195 245.077 54.93 245.027 54.65H244.967C244.657 55.09 244.297 55.45 243.887 55.73C243.477 56.01 243.007 56.15 242.477 56.15C241.917 56.15 241.482 56.005 241.172 55.715C240.872 55.415 240.672 55.005 240.572 54.485H240.512C240.202 54.975 239.827 55.375 239.387 55.685C238.957 55.995 238.457 56.15 237.887 56.15C237.207 56.15 236.697 55.94 236.357 55.52C236.017 55.09 235.847 54.515 235.847 53.795C235.847 53.435 235.902 52.995 236.012 52.475L236.987 47.81H239.192L238.187 52.595C238.107 52.945 238.067 53.235 238.067 53.465C238.067 54.065 238.307 54.365 238.787 54.365C239.127 54.365 239.427 54.225 239.687 53.945C239.957 53.665 240.192 53.285 240.392 52.805C240.592 52.325 240.752 51.795 240.872 51.215L241.577 47.81H243.782L242.777 52.595C242.697 52.945 242.657 53.235 242.657 53.465C242.657 54.065 242.897 54.365 243.377 54.365C243.717 54.365 244.017 54.225 244.277 53.945C244.547 53.655 244.782 53.27 244.982 52.79C245.182 52.31 245.342 51.78 245.462 51.2L246.182 47.81H248.387L247.202 53.405C247.172 53.555 247.157 53.685 247.157 53.795C247.157 54.115 247.307 54.275 247.607 54.275C247.727 54.275 247.842 54.265 247.952 54.245C248.062 54.225 248.167 54.2 248.267 54.17L247.262 58.94H245.222L245.927 56ZM252.781 56.15C251.821 56.15 251.041 55.89 250.441 55.37C249.841 54.84 249.541 54.045 249.541 52.985C249.541 52.295 249.636 51.635 249.826 51.005C250.026 50.365 250.316 49.795 250.696 49.295C251.086 48.795 251.566 48.4 252.136 48.11C252.706 47.81 253.366 47.66 254.116 47.66C255.036 47.66 255.721 47.87 256.171 48.29C256.631 48.71 256.861 49.245 256.861 49.895C256.861 50.755 256.471 51.445 255.691 51.965C254.921 52.485 253.741 52.745 252.151 52.745H251.776C251.766 52.805 251.761 52.86 251.761 52.91C251.761 52.95 251.761 52.995 251.761 53.045C251.761 53.485 251.886 53.835 252.136 54.095C252.396 54.355 252.756 54.485 253.216 54.485C253.646 54.485 254.036 54.435 254.386 54.335C254.736 54.235 255.151 54.075 255.631 53.855V55.52C255.201 55.73 254.766 55.89 254.326 56C253.886 56.1 253.371 56.15 252.781 56.15ZM252.346 51.26C253.196 51.26 253.806 51.13 254.176 50.87C254.556 50.6 254.746 50.29 254.746 49.94C254.746 49.48 254.491 49.25 253.981 49.25C253.711 49.25 253.441 49.335 253.171 49.505C252.901 49.675 252.661 49.91 252.451 50.21C252.251 50.51 252.106 50.86 252.016 51.26H252.346ZM257.65 53.87H259.96L259.66 56H257.35L257.65 53.87Z" fill="#FCF7F2"/>
</svg>
