<svg width="269" height="58" viewBox="0 0 269 58" fill="none" xmlns="http://www.w3.org/2000/svg">
<path d="M0.168 13L4.824 6.952L2.792 1.576H4.232L5.784 5.944L9.176 1.576H10.744L6.424 7.016L8.584 13H7.08L5.448 8.056L1.736 13H0.168ZM13.4055 13.128C12.4135 13.128 11.6295 12.8347 11.0535 12.248C10.4882 11.6507 10.2055 10.8453 10.2055 9.832C10.2055 9.17067 10.2962 8.51467 10.4775 7.864C10.6588 7.21333 10.9255 6.62133 11.2775 6.088C11.6402 5.55467 12.0882 5.128 12.6215 4.808C13.1655 4.47733 13.7895 4.312 14.4935 4.312C15.4962 4.312 16.2802 4.61067 16.8455 5.208C17.4108 5.79467 17.6935 6.6 17.6935 7.624C17.6935 8.27467 17.6028 8.92533 17.4215 9.576C17.2402 10.2267 16.9682 10.8187 16.6055 11.352C16.2535 11.8853 15.8108 12.3173 15.2775 12.648C14.7442 12.968 14.1202 13.128 13.4055 13.128ZM13.4855 11.96C13.9975 11.96 14.4615 11.784 14.8775 11.432C15.2935 11.0693 15.6242 10.552 15.8695 9.88C16.1255 9.208 16.2535 8.40267 16.2535 7.464C16.2535 7.144 16.1948 6.83467 16.0775 6.536C15.9708 6.22667 15.7895 5.976 15.5335 5.784C15.2775 5.58133 14.9362 5.48 14.5095 5.48C13.9228 5.48 13.4108 5.68267 12.9735 6.088C12.5468 6.48267 12.2162 7.016 11.9815 7.688C11.7468 8.34933 11.6295 9.08 11.6295 9.88C11.6295 10.5413 11.7895 11.0533 12.1095 11.416C12.4402 11.7787 12.8988 11.96 13.4855 11.96ZM18.1011 16.84L20.7251 4.424H21.8771L21.6851 6.024H21.7491C22.1225 5.55467 22.5438 5.14933 23.0131 4.808C23.4825 4.456 24.0158 4.28 24.6131 4.28C25.3065 4.28 25.8665 4.52533 26.2931 5.016C26.7198 5.50667 26.9331 6.23733 26.9331 7.208C26.9331 7.98667 26.8371 8.73333 26.6451 9.448C26.4531 10.1627 26.1758 10.8027 25.8131 11.368C25.4505 11.9227 25.0078 12.36 24.4851 12.68C23.9731 13 23.3971 13.16 22.7571 13.16C22.1811 13.16 21.7171 13.016 21.3651 12.728C21.0131 12.4293 20.7465 12.0827 20.5651 11.688H20.4851C20.4745 11.8587 20.4478 12.0987 20.4051 12.408C20.3625 12.7067 20.3198 12.952 20.2771 13.144L19.4931 16.84H18.1011ZM22.6451 11.992C23.0718 11.992 23.4611 11.8587 23.8131 11.592C24.1651 11.3147 24.4638 10.9467 24.7091 10.488C24.9651 10.0293 25.1571 9.512 25.2851 8.936C25.4238 8.36 25.4931 7.77333 25.4931 7.176C25.4931 6.024 25.0398 5.448 24.1331 5.448C23.7811 5.448 23.4185 5.58133 23.0451 5.848C22.6825 6.104 22.3465 6.456 22.0371 6.904C21.7278 7.352 21.4771 7.864 21.2851 8.44C21.1038 9.016 21.0131 9.624 21.0131 10.264C21.0131 10.776 21.1465 11.192 21.4131 11.512C21.6798 11.832 22.0905 11.992 22.6451 11.992ZM31.6868 13.128C30.6948 13.128 29.9108 12.8347 29.3348 12.248C28.7694 11.6507 28.4868 10.8453 28.4868 9.832C28.4868 9.17067 28.5774 8.51467 28.7588 7.864C28.9401 7.21333 29.2068 6.62133 29.5588 6.088C29.9214 5.55467 30.3694 5.128 30.9028 4.808C31.4468 4.47733 32.0708 4.312 32.7748 4.312C33.7774 4.312 34.5614 4.61067 35.1268 5.208C35.6921 5.79467 35.9748 6.6 35.9748 7.624C35.9748 8.27467 35.8841 8.92533 35.7028 9.576C35.5214 10.2267 35.2494 10.8187 34.8868 11.352C34.5348 11.8853 34.0921 12.3173 33.5588 12.648C33.0254 12.968 32.4014 13.128 31.6868 13.128ZM31.7668 11.96C32.2788 11.96 32.7428 11.784 33.1588 11.432C33.5748 11.0693 33.9054 10.552 34.1508 9.88C34.4068 9.208 34.5348 8.40267 34.5348 7.464C34.5348 7.144 34.4761 6.83467 34.3588 6.536C34.2521 6.22667 34.0708 5.976 33.8148 5.784C33.5588 5.58133 33.2174 5.48 32.7908 5.48C32.2041 5.48 31.6921 5.68267 31.2548 6.088C30.8281 6.48267 30.4974 7.016 30.2628 7.688C30.0281 8.34933 29.9108 9.08 29.9108 9.88C29.9108 10.5413 30.0708 11.0533 30.3908 11.416C30.7214 11.7787 31.1801 11.96 31.7668 11.96ZM39.6944 13.16C39.033 13.16 38.521 12.9787 38.1584 12.616C37.7957 12.2533 37.6144 11.7307 37.6144 11.048C37.6144 10.792 37.6304 10.552 37.6624 10.328C37.705 10.104 37.7477 9.87467 37.7904 9.64L38.8944 4.424H40.3184L39.1824 9.8C39.1397 10.0347 39.1024 10.2427 39.0704 10.424C39.0384 10.5947 39.0224 10.76 39.0224 10.92C39.0224 11.24 39.1077 11.496 39.2784 11.688C39.4597 11.88 39.737 11.976 40.1104 11.976C40.4624 11.976 40.8304 11.848 41.2144 11.592C41.5984 11.336 41.9557 10.936 42.2864 10.392C42.6277 9.848 42.889 9.14933 43.0704 8.296L43.9024 4.424H45.3104L44.1584 9.8C44.0624 10.28 44.0144 10.632 44.0144 10.856C44.0144 11.208 44.0944 11.4853 44.2544 11.688C44.4144 11.88 44.681 11.976 45.0544 11.976C45.4064 11.976 45.7797 11.8533 46.1744 11.608C46.569 11.352 46.937 10.9413 47.2784 10.376C47.6197 9.81067 47.8864 9.05867 48.0784 8.12L48.8624 4.424H50.2704L48.4464 13H47.2944L47.4704 11.416H47.3904C47.1984 11.672 46.969 11.9387 46.7024 12.216C46.4464 12.4827 46.1477 12.7067 45.8064 12.888C45.465 13.0693 45.0757 13.16 44.6384 13.16C44.0517 13.16 43.5984 12.9893 43.2784 12.648C42.9584 12.3067 42.7664 11.8427 42.7024 11.256H42.6384C42.425 11.5653 42.1744 11.8693 41.8864 12.168C41.5984 12.456 41.2677 12.696 40.8944 12.888C40.5317 13.0693 40.1317 13.16 39.6944 13.16ZM53.7584 13.16C53.1077 13.16 52.585 12.9787 52.1904 12.616C51.8064 12.2533 51.6144 11.7253 51.6144 11.032C51.6144 10.7867 51.6304 10.5573 51.6624 10.344C51.705 10.12 51.7477 9.89067 51.7904 9.656L52.9104 4.424H54.3344L53.1824 9.816C53.0864 10.2747 53.0384 10.632 53.0384 10.888C53.0384 11.2293 53.1237 11.5013 53.2944 11.704C53.4757 11.896 53.7637 11.992 54.1584 11.992C54.521 11.992 54.9104 11.864 55.3264 11.608C55.753 11.352 56.1477 10.9413 56.5104 10.376C56.873 9.81067 57.1557 9.05867 57.3584 8.12L58.1424 4.424H59.5344L57.7104 13H56.5584L56.7344 11.416H56.6544C56.4517 11.672 56.2117 11.9387 55.9344 12.216C55.6677 12.4827 55.353 12.7067 54.9904 12.888C54.6384 13.0693 54.2277 13.16 53.7584 13.16ZM65.76 3.304C64.8533 3.304 64.2027 3.128 63.808 2.776C63.424 2.41333 63.232 1.944 63.232 1.368C63.232 1.16533 63.2533 0.989333 63.296 0.839999H64.528C64.496 1.01067 64.48 1.16 64.48 1.288C64.48 1.58667 64.5813 1.832 64.784 2.024C64.9973 2.20533 65.3493 2.296 65.84 2.296C66.3413 2.296 66.752 2.2 67.072 2.008C67.4027 1.80533 67.6213 1.416 67.728 0.839999H69.072C68.9333 1.58667 68.6027 2.184 68.08 2.632C67.568 3.08 66.7947 3.304 65.76 3.304ZM63.024 13.16C62.3733 13.16 61.8507 12.9787 61.456 12.616C61.072 12.2533 60.88 11.7253 60.88 11.032C60.88 10.7867 60.896 10.5573 60.928 10.344C60.9707 10.12 61.0133 9.89067 61.056 9.656L62.176 4.424H63.6L62.448 9.816C62.352 10.2747 62.304 10.632 62.304 10.888C62.304 11.2293 62.3893 11.5013 62.56 11.704C62.7413 11.896 63.0293 11.992 63.424 11.992C63.7867 11.992 64.176 11.864 64.592 11.608C65.0187 11.352 65.4133 10.9413 65.776 10.376C66.1387 9.81067 66.4213 9.05867 66.624 8.12L67.408 4.424H68.8L66.976 13H65.824L66 11.416H65.92C65.7173 11.672 65.4773 11.9387 65.2 12.216C64.9333 12.4827 64.6187 12.7067 64.256 12.888C63.904 13.0693 63.4933 13.16 63.024 13.16ZM76.3819 13.16C75.7205 13.16 75.2085 12.9787 74.8459 12.616C74.4832 12.2533 74.3019 11.7307 74.3019 11.048C74.3019 10.792 74.3179 10.552 74.3499 10.328C74.3925 10.104 74.4352 9.87467 74.4779 9.64L75.5819 4.424H77.0059L75.8699 9.8C75.8272 10.0347 75.7899 10.2427 75.7579 10.424C75.7259 10.5947 75.7099 10.76 75.7099 10.92C75.7099 11.24 75.7952 11.496 75.9659 11.688C76.1472 11.88 76.4245 11.976 76.7979 11.976C77.1499 11.976 77.5179 11.848 77.9019 11.592C78.2859 11.336 78.6432 10.936 78.9739 10.392C79.3152 9.848 79.5765 9.14933 79.7579 8.296L80.5899 4.424H81.9979L80.8459 9.8C80.7499 10.28 80.7019 10.632 80.7019 10.856C80.7019 11.208 80.7819 11.4853 80.9419 11.688C81.1019 11.88 81.3685 11.976 81.7419 11.976C82.0939 11.976 82.4672 11.8533 82.8619 11.608C83.2565 11.352 83.6245 10.9413 83.9659 10.376C84.3072 9.81067 84.5739 9.05867 84.7659 8.12L85.5499 4.424H86.9579L85.1339 13H83.9819L84.1579 11.416H84.0779C83.8859 11.672 83.6565 11.9387 83.3899 12.216C83.1339 12.4827 82.8352 12.7067 82.4939 12.888C82.1525 13.0693 81.7632 13.16 81.3259 13.16C80.7392 13.16 80.2859 12.9893 79.9659 12.648C79.6459 12.3067 79.4539 11.8427 79.3899 11.256H79.3259C79.1125 11.5653 78.8619 11.8693 78.5739 12.168C78.2859 12.456 77.9552 12.696 77.5819 12.888C77.2192 13.0693 76.8192 13.16 76.3819 13.16ZM87.0699 16.84L89.6939 4.424H90.8459L90.6539 6.024H90.7179C91.0912 5.55467 91.5125 5.14933 91.9819 4.808C92.4512 4.456 92.9845 4.28 93.5819 4.28C94.2752 4.28 94.8352 4.52533 95.2619 5.016C95.6885 5.50667 95.9019 6.23733 95.9019 7.208C95.9019 7.98667 95.8059 8.73333 95.6139 9.448C95.4219 10.1627 95.1445 10.8027 94.7819 11.368C94.4192 11.9227 93.9765 12.36 93.4539 12.68C92.9419 13 92.3659 13.16 91.7259 13.16C91.1499 13.16 90.6859 13.016 90.3339 12.728C89.9819 12.4293 89.7152 12.0827 89.5339 11.688H89.4539C89.4432 11.8587 89.4165 12.0987 89.3739 12.408C89.3312 12.7067 89.2885 12.952 89.2459 13.144L88.4619 16.84H87.0699ZM91.6139 11.992C92.0405 11.992 92.4299 11.8587 92.7819 11.592C93.1339 11.3147 93.4325 10.9467 93.6779 10.488C93.9339 10.0293 94.1259 9.512 94.2539 8.936C94.3925 8.36 94.4619 7.77333 94.4619 7.176C94.4619 6.024 94.0085 5.448 93.1019 5.448C92.7499 5.448 92.3872 5.58133 92.0139 5.848C91.6512 6.104 91.3152 6.456 91.0059 6.904C90.6965 7.352 90.4459 7.864 90.2539 8.44C90.0725 9.016 89.9819 9.624 89.9819 10.264C89.9819 10.776 90.1152 11.192 90.3819 11.512C90.6485 11.832 91.0592 11.992 91.6139 11.992ZM99.7115 13.16C99.0608 13.16 98.5382 12.9787 98.1435 12.616C97.7595 12.2533 97.5675 11.7253 97.5675 11.032C97.5675 10.7867 97.5835 10.5573 97.6155 10.344C97.6582 10.12 97.7008 9.89067 97.7435 9.656L98.8635 4.424H100.288L99.1355 9.816C99.0395 10.2747 98.9915 10.632 98.9915 10.888C98.9915 11.2293 99.0768 11.5013 99.2475 11.704C99.4288 11.896 99.7168 11.992 100.112 11.992C100.474 11.992 100.864 11.864 101.28 11.608C101.706 11.352 102.101 10.9413 102.464 10.376C102.826 9.81067 103.109 9.05867 103.312 8.12L104.096 4.424H105.488L103.664 13H102.512L102.688 11.416H102.608C102.405 11.672 102.165 11.9387 101.888 12.216C101.621 12.4827 101.306 12.7067 100.944 12.888C100.592 13.0693 100.181 13.16 99.7115 13.16ZM109.745 13.144C108.774 13.016 108.028 12.6373 107.505 12.008C106.982 11.3787 106.721 10.5413 106.721 9.496C106.721 8.6 106.902 7.76267 107.265 6.984C107.638 6.20533 108.188 5.57067 108.913 5.08C109.649 4.58933 110.55 4.328 111.617 4.296L112.353 0.839999H113.649L112.913 4.296C113.862 4.424 114.609 4.78667 115.153 5.384C115.697 5.98133 115.969 6.81333 115.969 7.88C115.969 8.84 115.766 9.71467 115.361 10.504C114.966 11.2933 114.401 11.928 113.665 12.408C112.929 12.8773 112.054 13.1173 111.041 13.128L110.257 16.84H108.961L109.745 13.144ZM111.377 5.464C110.63 5.496 110.017 5.71467 109.537 6.12C109.068 6.51467 108.721 7.01067 108.497 7.608C108.273 8.19467 108.161 8.81333 108.161 9.464C108.161 10.2213 108.326 10.8133 108.657 11.24C108.998 11.6667 109.446 11.9067 110.001 11.96L111.377 5.464ZM111.297 11.96C111.873 11.928 112.364 11.7893 112.769 11.544C113.185 11.2987 113.521 10.984 113.777 10.6C114.033 10.2053 114.22 9.77867 114.337 9.32C114.465 8.86133 114.529 8.40267 114.529 7.944C114.529 7.16533 114.358 6.57333 114.017 6.168C113.676 5.76267 113.233 5.53867 112.689 5.496L111.297 11.96ZM117.151 13L118.975 4.424H120.127L119.951 6.008H120.031C120.223 5.74133 120.447 5.47467 120.703 5.208C120.97 4.94133 121.274 4.71733 121.615 4.536C121.967 4.35467 122.362 4.264 122.799 4.264C123.386 4.264 123.834 4.43467 124.143 4.776C124.463 5.10667 124.655 5.57067 124.719 6.168H124.783C124.996 5.848 125.247 5.544 125.535 5.256C125.834 4.968 126.164 4.73333 126.527 4.552C126.89 4.36 127.29 4.264 127.727 4.264C128.388 4.264 128.9 4.44533 129.263 4.808C129.626 5.17067 129.807 5.69333 129.807 6.376C129.807 6.632 129.791 6.872 129.759 7.096C129.727 7.30933 129.684 7.53867 129.631 7.784L128.527 13H127.103L128.255 7.624C128.308 7.37867 128.346 7.17067 128.367 7C128.388 6.82933 128.399 6.664 128.399 6.504C128.399 6.184 128.308 5.928 128.127 5.736C127.956 5.544 127.684 5.448 127.311 5.448C126.97 5.448 126.602 5.576 126.207 5.832C125.823 6.088 125.46 6.488 125.119 7.032C124.788 7.56533 124.532 8.264 124.351 9.128L123.535 13H122.127L123.263 7.624C123.359 7.144 123.407 6.792 123.407 6.568C123.407 6.216 123.327 5.944 123.167 5.752C123.007 5.54933 122.74 5.448 122.367 5.448C122.026 5.448 121.658 5.576 121.263 5.832C120.868 6.07733 120.5 6.48267 120.159 7.048C119.818 7.61333 119.546 8.36533 119.343 9.304L118.559 13H117.151ZM134.875 8.968H151.035L151.003 9.128H134.843L134.875 8.968ZM157.332 13.16C156.905 13.16 156.511 13.1173 156.148 13.032C155.785 12.9467 155.513 12.8613 155.332 12.776V11.512C155.652 11.6507 155.972 11.7627 156.292 11.848C156.612 11.9333 156.959 11.976 157.332 11.976C158.089 11.976 158.708 11.7307 159.188 11.24C159.679 10.7493 160.004 10.0667 160.164 9.192H156.484L156.724 8.008H160.308V7.768C160.308 6.95733 160.148 6.37067 159.828 6.008C159.508 5.63467 159.033 5.448 158.404 5.448C158.063 5.448 157.732 5.49067 157.412 5.576C157.103 5.66133 156.809 5.768 156.532 5.896L156.116 4.824C156.436 4.67467 156.793 4.54667 157.188 4.44C157.583 4.33333 158.036 4.28 158.548 4.28C159.625 4.28 160.425 4.58933 160.948 5.208C161.471 5.816 161.732 6.65867 161.732 7.736C161.732 8.41867 161.652 9.08533 161.492 9.736C161.332 10.3867 161.076 10.968 160.724 11.48C160.383 11.992 159.929 12.4027 159.364 12.712C158.809 13.0107 158.132 13.16 157.332 13.16ZM162.948 13L164.772 4.424H165.924L165.748 6.008H165.828C166.02 5.74133 166.244 5.47467 166.5 5.208C166.767 4.94133 167.071 4.71733 167.412 4.536C167.764 4.35467 168.159 4.264 168.596 4.264C169.183 4.264 169.631 4.43467 169.94 4.776C170.26 5.10667 170.452 5.57067 170.516 6.168H170.58C170.793 5.848 171.044 5.544 171.332 5.256C171.631 4.968 171.961 4.73333 172.324 4.552C172.687 4.36 173.087 4.264 173.524 4.264C174.185 4.264 174.697 4.44533 175.06 4.808C175.423 5.17067 175.604 5.69333 175.604 6.376C175.604 6.632 175.588 6.872 175.556 7.096C175.524 7.30933 175.481 7.53867 175.428 7.784L174.324 13H172.9L174.052 7.624C174.105 7.37867 174.143 7.17067 174.164 7C174.185 6.82933 174.196 6.664 174.196 6.504C174.196 6.184 174.105 5.928 173.924 5.736C173.753 5.544 173.481 5.448 173.108 5.448C172.767 5.448 172.399 5.576 172.004 5.832C171.62 6.088 171.257 6.488 170.916 7.032C170.585 7.56533 170.329 8.264 170.148 9.128L169.332 13H167.924L169.06 7.624C169.156 7.144 169.204 6.792 169.204 6.568C169.204 6.216 169.124 5.944 168.964 5.752C168.804 5.54933 168.537 5.448 168.164 5.448C167.823 5.448 167.455 5.576 167.06 5.832C166.665 6.07733 166.297 6.48267 165.956 7.048C165.615 7.61333 165.343 8.36533 165.14 9.304L164.356 13H162.948ZM180.468 13.128C179.476 13.128 178.692 12.8347 178.116 12.248C177.551 11.6507 177.268 10.8453 177.268 9.832C177.268 9.17067 177.359 8.51467 177.54 7.864C177.721 7.21333 177.988 6.62133 178.34 6.088C178.703 5.55467 179.151 5.128 179.684 4.808C180.228 4.47733 180.852 4.312 181.556 4.312C182.559 4.312 183.343 4.61067 183.908 5.208C184.473 5.79467 184.756 6.6 184.756 7.624C184.756 8.27467 184.665 8.92533 184.484 9.576C184.303 10.2267 184.031 10.8187 183.668 11.352C183.316 11.8853 182.873 12.3173 182.34 12.648C181.807 12.968 181.183 13.128 180.468 13.128ZM180.548 11.96C181.06 11.96 181.524 11.784 181.94 11.432C182.356 11.0693 182.687 10.552 182.932 9.88C183.188 9.208 183.316 8.40267 183.316 7.464C183.316 7.144 183.257 6.83467 183.14 6.536C183.033 6.22667 182.852 5.976 182.596 5.784C182.34 5.58133 181.999 5.48 181.572 5.48C180.985 5.48 180.473 5.68267 180.036 6.088C179.609 6.48267 179.279 7.016 179.044 7.688C178.809 8.34933 178.692 9.08 178.692 9.88C178.692 10.5413 178.852 11.0533 179.172 11.416C179.503 11.7787 179.961 11.96 180.548 11.96ZM190.12 13L191.928 4.424H193.32L192.44 8.552L196.44 4.424H198.2L193.96 8.664L196.824 13H195.144L192.424 8.728L191.528 13H190.12ZM200.541 13.16C199.858 13.16 199.298 12.9147 198.861 12.424C198.434 11.9227 198.221 11.192 198.221 10.232C198.221 9.432 198.322 8.67467 198.525 7.96C198.738 7.23467 199.032 6.6 199.405 6.056C199.778 5.50133 200.221 5.064 200.733 4.744C201.245 4.424 201.81 4.264 202.429 4.264C202.994 4.264 203.453 4.41333 203.805 4.712C204.157 5.01067 204.418 5.35733 204.589 5.752H204.669L205.181 4.424H206.253L204.429 13H203.309L203.517 11.416H203.453C203.09 11.8853 202.664 12.296 202.173 12.648C201.682 12.9893 201.138 13.16 200.541 13.16ZM201.005 11.992C201.4 11.992 201.784 11.848 202.157 11.56C202.541 11.272 202.888 10.8827 203.197 10.392C203.506 9.90133 203.741 9.352 203.901 8.744C203.986 8.43467 204.04 8.152 204.061 7.896C204.093 7.62933 204.109 7.384 204.109 7.16C204.109 6.65867 203.97 6.248 203.693 5.928C203.416 5.608 203.042 5.448 202.573 5.448C202.157 5.448 201.773 5.58133 201.421 5.848C201.069 6.104 200.76 6.46133 200.493 6.92C200.226 7.368 200.018 7.88 199.869 8.456C199.73 9.032 199.661 9.63467 199.661 10.264C199.661 10.84 199.778 11.272 200.013 11.56C200.248 11.848 200.578 11.992 201.005 11.992ZM206.995 13L208.803 4.424H210.195L209.315 8.552L213.315 4.424H215.075L210.835 8.664L213.699 13H212.019L209.299 8.728L208.403 13H206.995ZM221.652 13.16C221.162 13.16 220.703 13.0853 220.276 12.936C219.86 12.7867 219.524 12.552 219.268 12.232C219.012 11.912 218.884 11.496 218.884 10.984C218.884 10.4187 219.028 9.96 219.316 9.608C219.604 9.24533 219.967 8.94667 220.404 8.712C220.842 8.47733 221.29 8.28 221.748 8.12C222.388 7.87467 222.911 7.62933 223.316 7.384C223.732 7.128 223.94 6.78133 223.94 6.344C223.94 6.07733 223.855 5.864 223.684 5.704C223.514 5.53333 223.21 5.448 222.772 5.448C222.356 5.448 221.946 5.50667 221.54 5.624C221.135 5.73067 220.762 5.85867 220.42 6.008L220.036 4.888C220.41 4.74933 220.836 4.616 221.316 4.488C221.796 4.34933 222.33 4.28 222.916 4.28C223.631 4.28 224.218 4.43467 224.676 4.744C225.135 5.04267 225.364 5.54933 225.364 6.264C225.364 6.75467 225.231 7.17067 224.964 7.512C224.708 7.85333 224.378 8.136 223.972 8.36C223.567 8.584 223.135 8.78133 222.676 8.952C222.196 9.13333 221.775 9.30933 221.412 9.48C221.06 9.64 220.788 9.82667 220.596 10.04C220.404 10.2533 220.308 10.5307 220.308 10.872C220.308 11.2133 220.431 11.4853 220.676 11.688C220.932 11.8907 221.327 11.992 221.86 11.992C222.298 11.992 222.719 11.928 223.124 11.8C223.53 11.672 223.924 11.5173 224.308 11.336V12.568C223.935 12.7387 223.535 12.8827 223.108 13C222.682 13.1067 222.196 13.16 221.652 13.16ZM228.916 13.16C228.233 13.16 227.673 12.9147 227.236 12.424C226.809 11.9227 226.596 11.192 226.596 10.232C226.596 9.432 226.697 8.67467 226.9 7.96C227.113 7.23467 227.407 6.6 227.78 6.056C228.153 5.50133 228.596 5.064 229.108 4.744C229.62 4.424 230.185 4.264 230.804 4.264C231.369 4.264 231.828 4.41333 232.18 4.712C232.532 5.01067 232.793 5.35733 232.964 5.752H233.044L233.556 4.424H234.628L232.804 13H231.684L231.892 11.416H231.828C231.465 11.8853 231.039 12.296 230.548 12.648C230.057 12.9893 229.513 13.16 228.916 13.16ZM229.38 11.992C229.775 11.992 230.159 11.848 230.532 11.56C230.916 11.272 231.263 10.8827 231.572 10.392C231.881 9.90133 232.116 9.352 232.276 8.744C232.361 8.43467 232.415 8.152 232.436 7.896C232.468 7.62933 232.484 7.384 232.484 7.16C232.484 6.65867 232.345 6.248 232.068 5.928C231.791 5.608 231.417 5.448 230.948 5.448C230.532 5.448 230.148 5.58133 229.796 5.848C229.444 6.104 229.135 6.46133 228.868 6.92C228.601 7.368 228.393 7.88 228.244 8.456C228.105 9.032 228.036 9.63467 228.036 10.264C228.036 10.84 228.153 11.272 228.388 11.56C228.623 11.848 228.953 11.992 229.38 11.992ZM234.57 16.84L237.194 4.424H238.346L238.154 6.024H238.218C238.591 5.55467 239.013 5.14933 239.482 4.808C239.951 4.456 240.485 4.28 241.082 4.28C241.775 4.28 242.335 4.52533 242.762 5.016C243.189 5.50667 243.402 6.23733 243.402 7.208C243.402 7.98667 243.306 8.73333 243.114 9.448C242.922 10.1627 242.645 10.8027 242.282 11.368C241.919 11.9227 241.477 12.36 240.954 12.68C240.442 13 239.866 13.16 239.226 13.16C238.65 13.16 238.186 13.016 237.834 12.728C237.482 12.4293 237.215 12.0827 237.034 11.688H236.954C236.943 11.8587 236.917 12.0987 236.874 12.408C236.831 12.7067 236.789 12.952 236.746 13.144L235.962 16.84H234.57ZM239.114 11.992C239.541 11.992 239.93 11.8587 240.282 11.592C240.634 11.3147 240.933 10.9467 241.178 10.488C241.434 10.0293 241.626 9.512 241.754 8.936C241.893 8.36 241.962 7.77333 241.962 7.176C241.962 6.024 241.509 5.448 240.602 5.448C240.25 5.448 239.887 5.58133 239.514 5.848C239.151 6.104 238.815 6.456 238.506 6.904C238.197 7.352 237.946 7.864 237.754 8.44C237.573 9.016 237.482 9.624 237.482 10.264C237.482 10.776 237.615 11.192 237.882 11.512C238.149 11.832 238.559 11.992 239.114 11.992ZM244.652 13L246.46 4.44H248.284L249.18 11.24H249.212L252.972 4.44H254.94L253.148 13H251.868L252.908 8.088C253.004 7.68267 253.1 7.27733 253.196 6.872C253.302 6.46667 253.398 6.09333 253.484 5.752H253.452L249.42 13H248.316L247.34 5.768H247.292C247.249 6.06667 247.19 6.43467 247.116 6.872C247.041 7.29867 246.961 7.71467 246.876 8.12L245.884 13H244.652ZM259.343 13.128C258.351 13.128 257.567 12.8347 256.991 12.248C256.426 11.6507 256.143 10.8453 256.143 9.832C256.143 9.17067 256.234 8.51467 256.415 7.864C256.596 7.21333 256.863 6.62133 257.215 6.088C257.578 5.55467 258.026 5.128 258.559 4.808C259.103 4.47733 259.727 4.312 260.431 4.312C261.434 4.312 262.218 4.61067 262.783 5.208C263.348 5.79467 263.631 6.6 263.631 7.624C263.631 8.27467 263.54 8.92533 263.359 9.576C263.178 10.2267 262.906 10.8187 262.543 11.352C262.191 11.8853 261.748 12.3173 261.215 12.648C260.682 12.968 260.058 13.128 259.343 13.128ZM259.423 11.96C259.935 11.96 260.399 11.784 260.815 11.432C261.231 11.0693 261.562 10.552 261.807 9.88C262.063 9.208 262.191 8.40267 262.191 7.464C262.191 7.144 262.132 6.83467 262.015 6.536C261.908 6.22667 261.727 5.976 261.471 5.784C261.215 5.58133 260.874 5.48 260.447 5.48C259.86 5.48 259.348 5.68267 258.911 6.088C258.484 6.48267 258.154 7.016 257.919 7.688C257.684 8.34933 257.567 9.08 257.567 9.88C257.567 10.5413 257.727 11.0533 258.047 11.416C258.378 11.7787 258.836 11.96 259.423 11.96ZM264.631 8.152H268.535L268.519 8.312H264.615L264.631 8.152ZM1.448 34L3.272 25.424H4.664L3.928 28.992H7.96L8.728 25.424H10.136L8.328 34H6.904L7.704 30.16H3.672L2.856 34H1.448ZM13.6334 34.16C12.9827 34.16 12.46 33.9787 12.0654 33.616C11.6814 33.2533 11.4894 32.7253 11.4894 32.032C11.4894 31.7867 11.5054 31.5573 11.5374 31.344C11.58 31.12 11.6227 30.8907 11.6654 30.656L12.7854 25.424H14.2094L13.0574 30.816C12.9614 31.2747 12.9134 31.632 12.9134 31.888C12.9134 32.2293 12.9987 32.5013 13.1694 32.704C13.3507 32.896 13.6387 32.992 14.0334 32.992C14.396 32.992 14.7854 32.864 15.2014 32.608C15.628 32.352 16.0227 31.9413 16.3854 31.376C16.748 30.8107 17.0307 30.0587 17.2334 29.12L18.0174 25.424H19.4094L17.5854 34H16.4334L16.6094 32.416H16.5294C16.3267 32.672 16.0867 32.9387 15.8094 33.216C15.5427 33.4827 15.228 33.7067 14.8654 33.888C14.5134 34.0693 14.1027 34.16 13.6334 34.16ZM25.603 31.584C25.6777 31.2107 25.763 30.848 25.859 30.496C25.9657 30.144 26.0563 29.8347 26.131 29.568H26.067C25.747 29.9947 25.3523 30.3467 24.883 30.624C24.4243 30.9013 23.8963 31.04 23.299 31.04C22.5843 31.04 22.0403 30.8533 21.667 30.48C21.2937 30.1067 21.107 29.5627 21.107 28.848C21.107 28.6453 21.1283 28.416 21.171 28.16C21.2137 27.904 21.2563 27.648 21.299 27.392L21.715 25.424H23.139L22.707 27.504C22.643 27.7813 22.595 28.016 22.563 28.208C22.5417 28.3893 22.531 28.56 22.531 28.72C22.531 29.1467 22.6323 29.4453 22.835 29.616C23.0483 29.776 23.3363 29.856 23.699 29.856C24.0723 29.856 24.451 29.7547 24.835 29.552C25.2297 29.3493 25.5977 28.992 25.939 28.48C26.2803 27.968 26.5523 27.248 26.755 26.32L26.947 25.424H28.355L26.531 34H25.091L25.603 31.584ZM29.2605 34L31.0845 25.424H32.4765L31.7405 28.992H35.7725L36.5405 25.424H37.9485L36.1405 34H34.7165L35.5165 30.16H31.4845L30.6685 34H29.2605ZM42.3899 34.128C41.3979 34.128 40.6139 33.8347 40.0379 33.248C39.4725 32.6507 39.1899 31.8453 39.1899 30.832C39.1899 30.1707 39.2805 29.5147 39.4619 28.864C39.6432 28.2133 39.9099 27.6213 40.2619 27.088C40.6245 26.5547 41.0725 26.128 41.6059 25.808C42.1499 25.4773 42.7739 25.312 43.4779 25.312C44.4805 25.312 45.2645 25.6107 45.8299 26.208C46.3952 26.7947 46.6779 27.6 46.6779 28.624C46.6779 29.2747 46.5872 29.9253 46.4059 30.576C46.2245 31.2267 45.9525 31.8187 45.5899 32.352C45.2379 32.8853 44.7952 33.3173 44.2619 33.648C43.7285 33.968 43.1045 34.128 42.3899 34.128ZM42.4699 32.96C42.9819 32.96 43.4459 32.784 43.8619 32.432C44.2779 32.0693 44.6085 31.552 44.8539 30.88C45.1099 30.208 45.2379 29.4027 45.2379 28.464C45.2379 28.144 45.1792 27.8347 45.0619 27.536C44.9552 27.2267 44.7739 26.976 44.5179 26.784C44.2619 26.5813 43.9205 26.48 43.4939 26.48C42.9072 26.48 42.3952 26.6827 41.9579 27.088C41.5312 27.4827 41.2005 28.016 40.9659 28.688C40.7312 29.3493 40.6139 30.08 40.6139 30.88C40.6139 31.5413 40.7739 32.0533 41.0939 32.416C41.4245 32.7787 41.8832 32.96 42.4699 32.96ZM51.3095 34.16C50.3175 34.16 49.5495 33.872 49.0055 33.296C48.4722 32.7093 48.2055 31.92 48.2055 30.928C48.2055 30.2453 48.3015 29.5733 48.4935 28.912C48.6962 28.24 48.9842 27.632 49.3575 27.088C49.7308 26.5333 50.1788 26.0907 50.7015 25.76C51.2348 25.4293 51.8322 25.264 52.4935 25.264C53.3042 25.264 53.9122 25.44 54.3175 25.792C54.7335 26.144 54.9415 26.6347 54.9415 27.264C54.9415 27.8187 54.7655 28.3253 54.4135 28.784C54.0722 29.2427 53.5335 29.6107 52.7975 29.888C52.0615 30.1547 51.1068 30.288 49.9335 30.288H49.6615C49.6508 30.384 49.6402 30.4853 49.6295 30.592C49.6295 30.6987 49.6295 30.7947 49.6295 30.88C49.6295 31.5307 49.7895 32.048 50.1095 32.432C50.4295 32.8053 50.9148 32.992 51.5655 32.992C51.9708 32.992 52.3548 32.9333 52.7175 32.816C53.0802 32.6987 53.4748 32.5387 53.9015 32.336V33.536C53.4962 33.7173 53.0962 33.8667 52.7015 33.984C52.3175 34.1013 51.8535 34.16 51.3095 34.16ZM49.9815 29.152C50.6215 29.152 51.2135 29.0987 51.7575 28.992C52.3015 28.8747 52.7388 28.688 53.0695 28.432C53.4002 28.1653 53.5655 27.8133 53.5655 27.376C53.5655 27.0987 53.4695 26.8747 53.2775 26.704C53.0962 26.5227 52.8082 26.432 52.4135 26.432C51.9015 26.432 51.4055 26.672 50.9255 27.152C50.4562 27.6213 50.1042 28.288 49.8695 29.152H49.9815ZM63.5301 34.16C62.5808 34.16 61.8128 33.8933 61.2261 33.36C60.6395 32.8267 60.3461 32.0267 60.3461 30.96C60.3461 30.192 60.4475 29.4667 60.6501 28.784C60.8635 28.0907 61.1621 27.4827 61.5461 26.96C61.9408 26.4373 62.4155 26.0267 62.9701 25.728C63.5248 25.4187 64.1435 25.264 64.8261 25.264C65.1995 25.264 65.5728 25.3013 65.9461 25.376C66.3195 25.4507 66.6555 25.552 66.9541 25.68L66.5541 26.848C66.3408 26.752 66.0848 26.6613 65.7861 26.576C65.4981 26.4907 65.1835 26.448 64.8421 26.448C64.2341 26.448 63.7008 26.656 63.2421 27.072C62.7835 27.4773 62.4261 28.0213 62.1701 28.704C61.9141 29.3867 61.7861 30.1333 61.7861 30.944C61.7861 31.5947 61.9515 32.1013 62.2821 32.464C62.6235 32.816 63.0875 32.992 63.6741 32.992C64.0475 32.992 64.3995 32.9387 64.7301 32.832C65.0715 32.7253 65.4075 32.6027 65.7381 32.464V33.648C65.4395 33.7973 65.1035 33.92 64.7301 34.016C64.3675 34.112 63.9675 34.16 63.5301 34.16ZM70.7961 34.128C69.8041 34.128 69.0201 33.8347 68.4441 33.248C67.8788 32.6507 67.5961 31.8453 67.5961 30.832C67.5961 30.1707 67.6868 29.5147 67.8681 28.864C68.0495 28.2133 68.3161 27.6213 68.6681 27.088C69.0308 26.5547 69.4788 26.128 70.0121 25.808C70.5561 25.4773 71.1801 25.312 71.8841 25.312C72.8868 25.312 73.6708 25.6107 74.2361 26.208C74.8015 26.7947 75.0841 27.6 75.0841 28.624C75.0841 29.2747 74.9935 29.9253 74.8121 30.576C74.6308 31.2267 74.3588 31.8187 73.9961 32.352C73.6441 32.8853 73.2015 33.3173 72.6681 33.648C72.1348 33.968 71.5108 34.128 70.7961 34.128ZM70.8761 32.96C71.3881 32.96 71.8521 32.784 72.2681 32.432C72.6841 32.0693 73.0148 31.552 73.2601 30.88C73.5161 30.208 73.6441 29.4027 73.6441 28.464C73.6441 28.144 73.5855 27.8347 73.4681 27.536C73.3615 27.2267 73.1801 26.976 72.9241 26.784C72.6681 26.5813 72.3268 26.48 71.9001 26.48C71.3135 26.48 70.8015 26.6827 70.3641 27.088C69.9375 27.4827 69.6068 28.016 69.3721 28.688C69.1375 29.3493 69.0201 30.08 69.0201 30.88C69.0201 31.5413 69.1801 32.0533 69.5001 32.416C69.8308 32.7787 70.2895 32.96 70.8761 32.96ZM79.8118 34.128C78.8198 34.128 78.0358 33.8347 77.4598 33.248C76.8944 32.6507 76.6118 31.8453 76.6118 30.832C76.6118 30.1707 76.7024 29.5147 76.8838 28.864C77.0651 28.2133 77.3318 27.6213 77.6838 27.088C78.0464 26.5547 78.4944 26.128 79.0278 25.808C79.5718 25.4773 80.1958 25.312 80.8998 25.312C81.9024 25.312 82.6864 25.6107 83.2518 26.208C83.8171 26.7947 84.0998 27.6 84.0998 28.624C84.0998 29.2747 84.0091 29.9253 83.8278 30.576C83.6464 31.2267 83.3744 31.8187 83.0118 32.352C82.6598 32.8853 82.2171 33.3173 81.6838 33.648C81.1504 33.968 80.5264 34.128 79.8118 34.128ZM79.8918 32.96C80.4038 32.96 80.8678 32.784 81.2838 32.432C81.6998 32.0693 82.0304 31.552 82.2758 30.88C82.5318 30.208 82.6598 29.4027 82.6598 28.464C82.6598 28.144 82.6011 27.8347 82.4838 27.536C82.3771 27.2267 82.1958 26.976 81.9398 26.784C81.6838 26.5813 81.3424 26.48 80.9158 26.48C80.3291 26.48 79.8171 26.6827 79.3798 27.088C78.9531 27.4827 78.6224 28.016 78.3878 28.688C78.1531 29.3493 78.0358 30.08 78.0358 30.88C78.0358 31.5413 78.1958 32.0533 78.5158 32.416C78.8464 32.7787 79.3051 32.96 79.8918 32.96ZM88.6994 34.16C87.7287 34.16 86.9767 33.856 86.4434 33.248C85.91 32.6293 85.6434 31.728 85.6434 30.544C85.6434 30.064 85.686 29.5147 85.7714 28.896C85.8674 28.2667 86.0114 27.6267 86.2034 26.976C86.406 26.3147 86.662 25.6853 86.9714 25.088C87.2914 24.4907 87.6754 23.9733 88.1234 23.536C88.582 23.0987 89.1154 22.7893 89.7234 22.608C89.9154 22.544 90.1927 22.4747 90.5554 22.4C90.9287 22.3147 91.334 22.2293 91.7714 22.144C92.2087 22.048 92.6247 21.968 93.0194 21.904C93.414 21.84 93.7287 21.792 93.9634 21.76L94.1234 22.912C93.8247 22.9547 93.4407 23.0187 92.9714 23.104C92.502 23.1893 92.0274 23.2853 91.5474 23.392C91.078 23.488 90.678 23.5893 90.3474 23.696C89.6647 23.9093 89.0834 24.336 88.6034 24.976C88.1234 25.616 87.7447 26.4427 87.4674 27.456L87.5154 27.472C87.8034 27.1307 88.1927 26.8053 88.6834 26.496C89.174 26.1867 89.734 26.032 90.3634 26.032C91.174 26.032 91.7767 26.288 92.1714 26.8C92.5767 27.3013 92.7794 28.0053 92.7794 28.912C92.7794 29.5627 92.6994 30.2027 92.5394 30.832C92.39 31.4507 92.15 32.0107 91.8194 32.512C91.4994 33.0133 91.078 33.4133 90.5554 33.712C90.0434 34.0107 89.4247 34.16 88.6994 34.16ZM88.8274 32.992C89.2967 32.992 89.6914 32.864 90.0114 32.608C90.3314 32.3413 90.5874 32.0053 90.7794 31.6C90.982 31.184 91.126 30.752 91.2114 30.304C91.2967 29.8453 91.3394 29.4293 91.3394 29.056C91.3394 28.416 91.2274 27.9467 91.0034 27.648C90.7794 27.3493 90.4434 27.2 89.9954 27.2C89.6007 27.2 89.222 27.296 88.8594 27.488C88.5074 27.68 88.1927 27.9093 87.9154 28.176C87.638 28.432 87.414 28.6773 87.2434 28.912C87.2007 29.2 87.158 29.488 87.1154 29.776C87.0834 30.064 87.0674 30.336 87.0674 30.592C87.0674 31.3067 87.2007 31.888 87.4674 32.336C87.734 32.7733 88.1874 32.992 88.8274 32.992ZM105.242 34.112C104.922 34.0267 104.682 33.856 104.522 33.6C104.373 33.3333 104.293 32.9493 104.282 32.448H104.234C104.053 32.7147 103.829 32.9813 103.562 33.248C103.295 33.5147 102.991 33.7333 102.65 33.904C102.309 34.0747 101.919 34.16 101.482 34.16C100.895 34.16 100.442 33.9893 100.122 33.648C99.8021 33.3067 99.6101 32.8427 99.5461 32.256H99.4821C99.2688 32.5653 99.0181 32.8693 98.7301 33.168C98.4421 33.456 98.1168 33.696 97.7541 33.888C97.3915 34.0693 96.9861 34.16 96.5381 34.16C95.8768 34.16 95.3648 33.9787 95.0021 33.616C94.6395 33.2533 94.4581 32.7307 94.4581 32.048C94.4581 31.792 94.4741 31.5573 94.5061 31.344C94.5488 31.12 94.5915 30.8853 94.6341 30.64L95.7381 25.424H97.1621L96.0261 30.816C95.9835 31.0507 95.9461 31.2533 95.9141 31.424C95.8821 31.5947 95.8661 31.76 95.8661 31.92C95.8661 32.24 95.9515 32.496 96.1221 32.688C96.3035 32.88 96.5808 32.976 96.9541 32.976C97.2955 32.976 97.6581 32.8533 98.0421 32.608C98.4368 32.352 98.7995 31.952 99.1301 31.408C99.4715 30.864 99.7328 30.16 99.9141 29.296L100.746 25.424H102.154L101.002 30.816C100.906 31.2747 100.858 31.6213 100.858 31.856C100.858 32.2187 100.938 32.496 101.098 32.688C101.258 32.88 101.525 32.976 101.898 32.976C102.25 32.976 102.623 32.8533 103.018 32.608C103.413 32.352 103.781 31.9413 104.122 31.376C104.463 30.8107 104.73 30.0587 104.922 29.12L105.706 25.424H107.114L105.834 31.472C105.802 31.6427 105.775 31.8133 105.754 31.984C105.733 32.1547 105.722 32.2987 105.722 32.416C105.722 32.8213 105.919 33.024 106.314 33.024C106.453 33.024 106.57 33.008 106.666 32.976C106.773 32.944 106.863 32.9227 106.938 32.912L106.026 36.976H104.618L105.242 34.112ZM111.731 34.16C110.739 34.16 109.971 33.872 109.427 33.296C108.894 32.7093 108.627 31.92 108.627 30.928C108.627 30.2453 108.723 29.5733 108.915 28.912C109.118 28.24 109.406 27.632 109.779 27.088C110.153 26.5333 110.601 26.0907 111.123 25.76C111.657 25.4293 112.254 25.264 112.915 25.264C113.726 25.264 114.334 25.44 114.739 25.792C115.155 26.144 115.363 26.6347 115.363 27.264C115.363 27.8187 115.187 28.3253 114.835 28.784C114.494 29.2427 113.955 29.6107 113.219 29.888C112.483 30.1547 111.529 30.288 110.355 30.288H110.083C110.073 30.384 110.062 30.4853 110.051 30.592C110.051 30.6987 110.051 30.7947 110.051 30.88C110.051 31.5307 110.211 32.048 110.531 32.432C110.851 32.8053 111.337 32.992 111.987 32.992C112.393 32.992 112.777 32.9333 113.139 32.816C113.502 32.6987 113.897 32.5387 114.323 32.336V33.536C113.918 33.7173 113.518 33.8667 113.123 33.984C112.739 34.1013 112.275 34.16 111.731 34.16ZM110.403 29.152C111.043 29.152 111.635 29.0987 112.179 28.992C112.723 28.8747 113.161 28.688 113.491 28.432C113.822 28.1653 113.987 27.8133 113.987 27.376C113.987 27.0987 113.891 26.8747 113.699 26.704C113.518 26.5227 113.23 26.432 112.835 26.432C112.323 26.432 111.827 26.672 111.347 27.152C110.878 27.6213 110.526 28.288 110.291 29.152H110.403ZM119.796 34.16C118.846 34.16 118.078 33.8933 117.492 33.36C116.905 32.8267 116.612 32.0267 116.612 30.96C116.612 30.192 116.713 29.4667 116.916 28.784C117.129 28.0907 117.428 27.4827 117.812 26.96C118.206 26.4373 118.681 26.0267 119.236 25.728C119.79 25.4187 120.409 25.264 121.092 25.264C121.465 25.264 121.838 25.3013 122.212 25.376C122.585 25.4507 122.921 25.552 123.22 25.68L122.82 26.848C122.606 26.752 122.35 26.6613 122.052 26.576C121.764 26.4907 121.449 26.448 121.108 26.448C120.5 26.448 119.966 26.656 119.508 27.072C119.049 27.4773 118.692 28.0213 118.436 28.704C118.18 29.3867 118.052 30.1333 118.052 30.944C118.052 31.5947 118.217 32.1013 118.548 32.464C118.889 32.816 119.353 32.992 119.94 32.992C120.313 32.992 120.665 32.9387 120.996 32.832C121.337 32.7253 121.673 32.6027 122.004 32.464V33.648C121.705 33.7973 121.369 33.92 120.996 34.016C120.633 34.112 120.233 34.16 119.796 34.16ZM123.542 34L125.366 25.424H126.518L126.342 27.008H126.422C126.614 26.7413 126.838 26.4747 127.094 26.208C127.36 25.9413 127.664 25.7173 128.006 25.536C128.358 25.3547 128.752 25.264 129.19 25.264C129.776 25.264 130.224 25.4347 130.534 25.776C130.854 26.1067 131.046 26.5707 131.11 27.168H131.174C131.387 26.848 131.638 26.544 131.926 26.256C132.224 25.968 132.555 25.7333 132.918 25.552C133.28 25.36 133.68 25.264 134.118 25.264C134.779 25.264 135.291 25.4453 135.654 25.808C136.016 26.1707 136.198 26.6933 136.198 27.376C136.198 27.632 136.182 27.872 136.15 28.096C136.118 28.3093 136.075 28.5387 136.022 28.784L134.918 34H133.494L134.646 28.624C134.699 28.3787 134.736 28.1707 134.758 28C134.779 27.8293 134.79 27.664 134.79 27.504C134.79 27.184 134.699 26.928 134.518 26.736C134.347 26.544 134.075 26.448 133.702 26.448C133.36 26.448 132.992 26.576 132.598 26.832C132.214 27.088 131.851 27.488 131.51 28.032C131.179 28.5653 130.923 29.264 130.742 30.128L129.926 34H128.518L129.654 28.624C129.75 28.144 129.798 27.792 129.798 27.568C129.798 27.216 129.718 26.944 129.558 26.752C129.398 26.5493 129.131 26.448 128.758 26.448C128.416 26.448 128.048 26.576 127.654 26.832C127.259 27.0773 126.891 27.4827 126.55 28.048C126.208 28.6133 125.936 29.3653 125.734 30.304L124.95 34H123.542ZM141.238 34.16C140.064 34.16 139.206 33.84 138.662 33.2C138.128 32.5493 137.862 31.6907 137.862 30.624C137.862 29.6213 138.038 28.72 138.39 27.92C138.752 27.1093 139.27 26.4693 139.942 26C140.624 25.52 141.446 25.28 142.406 25.28C143.323 25.28 144.032 25.4613 144.534 25.824C145.035 26.1867 145.286 26.7307 145.286 27.456C145.286 28.0853 145.083 28.576 144.678 28.928C144.272 29.28 143.755 29.5253 143.126 29.664V29.696C143.595 29.8133 143.979 30.0107 144.278 30.288C144.576 30.5547 144.726 30.9653 144.726 31.52C144.726 31.9147 144.614 32.32 144.39 32.736C144.176 33.1413 143.814 33.4827 143.302 33.76C142.79 34.0267 142.102 34.16 141.238 34.16ZM141.19 29.152C141.659 29.152 142.096 29.104 142.502 29.008C142.918 28.912 143.248 28.752 143.494 28.528C143.75 28.2933 143.878 27.984 143.878 27.6C143.878 27.28 143.766 27.008 143.542 26.784C143.318 26.56 142.944 26.448 142.422 26.448C141.675 26.448 141.04 26.6827 140.518 27.152C140.006 27.6213 139.648 28.288 139.446 29.152H141.19ZM141.334 33.008C142.038 33.008 142.55 32.8587 142.87 32.56C143.2 32.2507 143.366 31.8987 143.366 31.504C143.366 31.0987 143.2 30.7947 142.87 30.592C142.539 30.3893 142.016 30.288 141.302 30.288H139.286V30.672C139.286 31.4933 139.472 32.0907 139.846 32.464C140.219 32.8267 140.715 33.008 141.334 33.008ZM149.718 34.128C148.726 34.128 147.942 33.8347 147.366 33.248C146.801 32.6507 146.518 31.8453 146.518 30.832C146.518 30.1707 146.609 29.5147 146.79 28.864C146.971 28.2133 147.238 27.6213 147.59 27.088C147.953 26.5547 148.401 26.128 148.934 25.808C149.478 25.4773 150.102 25.312 150.806 25.312C151.809 25.312 152.593 25.6107 153.158 26.208C153.723 26.7947 154.006 27.6 154.006 28.624C154.006 29.2747 153.915 29.9253 153.734 30.576C153.553 31.2267 153.281 31.8187 152.918 32.352C152.566 32.8853 152.123 33.3173 151.59 33.648C151.057 33.968 150.433 34.128 149.718 34.128ZM149.798 32.96C150.31 32.96 150.774 32.784 151.19 32.432C151.606 32.0693 151.937 31.552 152.182 30.88C152.438 30.208 152.566 29.4027 152.566 28.464C152.566 28.144 152.507 27.8347 152.39 27.536C152.283 27.2267 152.102 26.976 151.846 26.784C151.59 26.5813 151.249 26.48 150.822 26.48C150.235 26.48 149.723 26.6827 149.286 27.088C148.859 27.4827 148.529 28.016 148.294 28.688C148.059 29.3493 147.942 30.08 147.942 30.88C147.942 31.5413 148.102 32.0533 148.422 32.416C148.753 32.7787 149.211 32.96 149.798 32.96ZM158.874 34.112C158.735 34.112 158.607 34.096 158.49 34.064C158.373 34.0427 158.282 34.0213 158.218 34V32.784C158.367 32.848 158.543 32.88 158.746 32.88C159.087 32.88 159.381 32.768 159.626 32.544C159.871 32.32 160.106 31.9627 160.33 31.472C160.554 30.9813 160.799 30.336 161.066 29.536C161.311 28.8213 161.546 28.2027 161.77 27.68C161.994 27.1573 162.245 26.7253 162.522 26.384C162.81 26.032 163.162 25.7707 163.578 25.6C163.994 25.4293 164.511 25.344 165.13 25.344C165.493 25.344 165.845 25.3707 166.186 25.424C166.527 25.4667 166.837 25.5307 167.114 25.616L165.322 34H163.898L165.514 26.592C165.439 26.5707 165.349 26.5547 165.242 26.544C165.135 26.5333 165.023 26.528 164.906 26.528C164.469 26.528 164.111 26.6347 163.834 26.848C163.567 27.0507 163.322 27.4027 163.098 27.904C162.874 28.4053 162.607 29.1093 162.298 30.016C161.989 30.8907 161.69 31.6373 161.402 32.256C161.125 32.864 160.789 33.328 160.394 33.648C160.01 33.9573 159.503 34.112 158.874 34.112ZM175.305 34.128C174.302 34.128 173.54 33.8187 173.017 33.2C172.505 32.5813 172.249 31.792 172.249 30.832C172.249 30.6933 172.249 30.5653 172.249 30.448C172.26 30.32 172.265 30.224 172.265 30.16H170.297L169.481 34H168.073L169.897 25.424H171.289L170.553 28.992H172.457C172.798 27.7653 173.31 26.848 173.993 26.24C174.686 25.6213 175.476 25.312 176.361 25.312C177.374 25.312 178.137 25.6213 178.649 26.24C179.161 26.8587 179.417 27.6533 179.417 28.624C179.417 29.3173 179.326 29.9947 179.145 30.656C178.974 31.3067 178.713 31.8933 178.361 32.416C178.02 32.9387 177.593 33.3547 177.081 33.664C176.569 33.9733 175.977 34.128 175.305 34.128ZM175.401 32.96C175.881 32.96 176.313 32.7733 176.697 32.4C177.092 32.0267 177.401 31.504 177.625 30.832C177.86 30.16 177.977 29.3707 177.977 28.464C177.977 27.8667 177.833 27.3867 177.545 27.024C177.268 26.6613 176.868 26.48 176.345 26.48C175.897 26.48 175.502 26.6133 175.161 26.88C174.83 27.136 174.553 27.4773 174.329 27.904C174.105 28.3307 173.94 28.8053 173.833 29.328C173.726 29.84 173.673 30.3573 173.673 30.88C173.673 31.4987 173.812 32 174.089 32.384C174.377 32.768 174.814 32.96 175.401 32.96ZM183.803 34.16C182.875 34.16 182.171 33.8773 181.691 33.312C181.211 32.736 180.971 31.9787 180.971 31.04C180.971 30.432 181.056 29.8187 181.227 29.2C181.398 28.5813 181.648 28.016 181.979 27.504C182.32 26.9813 182.736 26.5653 183.227 26.256C183.728 25.9467 184.304 25.792 184.955 25.792C185.584 25.792 186.07 25.9253 186.411 26.192C186.763 26.4587 187.024 26.7787 187.195 27.152H187.243C187.254 27.0667 187.259 26.9867 187.259 26.912C187.259 26.8267 187.259 26.7573 187.259 26.704C187.259 25.392 187.083 24.4213 186.731 23.792C186.379 23.1627 185.84 22.848 185.115 22.848C184.848 22.848 184.56 22.88 184.251 22.944C183.952 23.008 183.68 23.0933 183.435 23.2L183.083 22.16C183.339 22.032 183.675 21.92 184.091 21.824C184.507 21.728 184.907 21.68 185.291 21.68C186.464 21.68 187.323 22.1013 187.867 22.944C188.411 23.7867 188.683 25.008 188.683 26.608C188.683 27.2587 188.624 27.936 188.507 28.64C188.39 29.3333 188.203 30.0107 187.947 30.672C187.702 31.3227 187.387 31.9147 187.003 32.448C186.619 32.9707 186.16 33.3867 185.627 33.696C185.094 34.0053 184.486 34.16 183.803 34.16ZM183.947 32.976C184.48 32.976 184.95 32.7733 185.355 32.368C185.76 31.9627 186.102 31.4347 186.379 30.784C186.656 30.1227 186.864 29.424 187.003 28.688C186.854 28.176 186.619 27.7493 186.299 27.408C185.979 27.056 185.574 26.88 185.083 26.88C184.603 26.88 184.155 27.0667 183.739 27.44C183.334 27.8133 183.008 28.3147 182.763 28.944C182.518 29.5627 182.395 30.256 182.395 31.024C182.395 31.5787 182.512 32.0427 182.747 32.416C182.992 32.7893 183.392 32.976 183.947 32.976ZM193.138 34.16C192.146 34.16 191.378 33.872 190.834 33.296C190.3 32.7093 190.034 31.92 190.034 30.928C190.034 30.2453 190.13 29.5733 190.322 28.912C190.524 28.24 190.812 27.632 191.186 27.088C191.559 26.5333 192.007 26.0907 192.53 25.76C193.063 25.4293 193.66 25.264 194.322 25.264C195.132 25.264 195.74 25.44 196.146 25.792C196.562 26.144 196.77 26.6347 196.77 27.264C196.77 27.8187 196.594 28.3253 196.242 28.784C195.9 29.2427 195.362 29.6107 194.626 29.888C193.89 30.1547 192.935 30.288 191.762 30.288H191.49C191.479 30.384 191.468 30.4853 191.458 30.592C191.458 30.6987 191.458 30.7947 191.458 30.88C191.458 31.5307 191.618 32.048 191.938 32.432C192.258 32.8053 192.743 32.992 193.394 32.992C193.799 32.992 194.183 32.9333 194.546 32.816C194.908 32.6987 195.303 32.5387 195.73 32.336V33.536C195.324 33.7173 194.924 33.8667 194.53 33.984C194.146 34.1013 193.682 34.16 193.138 34.16ZM191.81 29.152C192.45 29.152 193.042 29.0987 193.586 28.992C194.13 28.8747 194.567 28.688 194.898 28.432C195.228 28.1653 195.394 27.8133 195.394 27.376C195.394 27.0987 195.298 26.8747 195.106 26.704C194.924 26.5227 194.636 26.432 194.242 26.432C193.73 26.432 193.234 26.672 192.754 27.152C192.284 27.6213 191.932 28.288 191.698 29.152H191.81ZM203.01 24.304C202.103 24.304 201.453 24.128 201.058 23.776C200.674 23.4133 200.482 22.944 200.482 22.368C200.482 22.1653 200.503 21.9893 200.546 21.84H201.778C201.746 22.0107 201.73 22.16 201.73 22.288C201.73 22.5867 201.831 22.832 202.034 23.024C202.247 23.2053 202.599 23.296 203.09 23.296C203.591 23.296 204.002 23.2 204.322 23.008C204.653 22.8053 204.871 22.416 204.978 21.84H206.322C206.183 22.5867 205.853 23.184 205.33 23.632C204.818 24.08 204.045 24.304 203.01 24.304ZM200.274 34.16C199.623 34.16 199.101 33.9787 198.706 33.616C198.322 33.2533 198.13 32.7253 198.13 32.032C198.13 31.7867 198.146 31.5573 198.178 31.344C198.221 31.12 198.263 30.8907 198.306 30.656L199.426 25.424H200.85L199.698 30.816C199.602 31.2747 199.554 31.632 199.554 31.888C199.554 32.2293 199.639 32.5013 199.81 32.704C199.991 32.896 200.279 32.992 200.674 32.992C201.037 32.992 201.426 32.864 201.842 32.608C202.269 32.352 202.663 31.9413 203.026 31.376C203.389 30.8107 203.671 30.0587 203.874 29.12L204.658 25.424H206.05L204.226 34H203.074L203.25 32.416H203.17C202.967 32.672 202.727 32.9387 202.45 33.216C202.183 33.4827 201.869 33.7067 201.506 33.888C201.154 34.0693 200.743 34.16 200.274 34.16ZM209.028 31.952H209.204L206.34 36.592H206.148L209.028 31.952ZM217.684 34.16C217.193 34.16 216.734 34.0853 216.308 33.936C215.892 33.7867 215.556 33.552 215.3 33.232C215.044 32.912 214.916 32.496 214.916 31.984C214.916 31.4187 215.06 30.96 215.348 30.608C215.636 30.2453 215.998 29.9467 216.436 29.712C216.873 29.4773 217.321 29.28 217.78 29.12C218.42 28.8747 218.942 28.6293 219.348 28.384C219.764 28.128 219.972 27.7813 219.972 27.344C219.972 27.0773 219.886 26.864 219.716 26.704C219.545 26.5333 219.241 26.448 218.804 26.448C218.388 26.448 217.977 26.5067 217.572 26.624C217.166 26.7307 216.793 26.8587 216.452 27.008L216.068 25.888C216.441 25.7493 216.868 25.616 217.348 25.488C217.828 25.3493 218.361 25.28 218.948 25.28C219.662 25.28 220.249 25.4347 220.708 25.744C221.166 26.0427 221.396 26.5493 221.396 27.264C221.396 27.7547 221.262 28.1707 220.996 28.512C220.74 28.8533 220.409 29.136 220.004 29.36C219.598 29.584 219.166 29.7813 218.708 29.952C218.228 30.1333 217.806 30.3093 217.444 30.48C217.092 30.64 216.82 30.8267 216.628 31.04C216.436 31.2533 216.34 31.5307 216.34 31.872C216.34 32.2133 216.462 32.4853 216.708 32.688C216.964 32.8907 217.358 32.992 217.892 32.992C218.329 32.992 218.75 32.928 219.156 32.8C219.561 32.672 219.956 32.5173 220.34 32.336V33.568C219.966 33.7387 219.566 33.8827 219.14 34C218.713 34.1067 218.228 34.16 217.684 34.16ZM225.459 34.16C224.531 34.16 223.827 33.8773 223.347 33.312C222.867 32.736 222.627 31.9787 222.627 31.04C222.627 30.432 222.713 29.8187 222.883 29.2C223.054 28.5813 223.305 28.016 223.635 27.504C223.977 26.9813 224.393 26.5653 224.883 26.256C225.385 25.9467 225.961 25.792 226.611 25.792C227.241 25.792 227.726 25.9253 228.067 26.192C228.419 26.4587 228.681 26.7787 228.851 27.152H228.899C228.91 27.0667 228.915 26.9867 228.915 26.912C228.915 26.8267 228.915 26.7573 228.915 26.704C228.915 25.392 228.739 24.4213 228.387 23.792C228.035 23.1627 227.497 22.848 226.771 22.848C226.505 22.848 226.217 22.88 225.907 22.944C225.609 23.008 225.337 23.0933 225.091 23.2L224.739 22.16C224.995 22.032 225.331 21.92 225.747 21.824C226.163 21.728 226.563 21.68 226.947 21.68C228.121 21.68 228.979 22.1013 229.523 22.944C230.067 23.7867 230.339 25.008 230.339 26.608C230.339 27.2587 230.281 27.936 230.163 28.64C230.046 29.3333 229.859 30.0107 229.603 30.672C229.358 31.3227 229.043 31.9147 228.659 32.448C228.275 32.9707 227.817 33.3867 227.283 33.696C226.75 34.0053 226.142 34.16 225.459 34.16ZM225.603 32.976C226.137 32.976 226.606 32.7733 227.011 32.368C227.417 31.9627 227.758 31.4347 228.035 30.784C228.313 30.1227 228.521 29.424 228.659 28.688C228.51 28.176 228.275 27.7493 227.955 27.408C227.635 27.056 227.23 26.88 226.739 26.88C226.259 26.88 225.811 27.0667 225.395 27.44C224.99 27.8133 224.665 28.3147 224.419 28.944C224.174 29.5627 224.051 30.256 224.051 31.024C224.051 31.5787 224.169 32.0427 224.403 32.416C224.649 32.7893 225.049 32.976 225.603 32.976ZM234.794 34.16C233.802 34.16 233.034 33.872 232.49 33.296C231.957 32.7093 231.69 31.92 231.69 30.928C231.69 30.2453 231.786 29.5733 231.978 28.912C232.181 28.24 232.469 27.632 232.842 27.088C233.215 26.5333 233.663 26.0907 234.186 25.76C234.719 25.4293 235.317 25.264 235.978 25.264C236.789 25.264 237.397 25.44 237.802 25.792C238.218 26.144 238.426 26.6347 238.426 27.264C238.426 27.8187 238.25 28.3253 237.898 28.784C237.557 29.2427 237.018 29.6107 236.282 29.888C235.546 30.1547 234.591 30.288 233.418 30.288H233.146C233.135 30.384 233.125 30.4853 233.114 30.592C233.114 30.6987 233.114 30.7947 233.114 30.88C233.114 31.5307 233.274 32.048 233.594 32.432C233.914 32.8053 234.399 32.992 235.05 32.992C235.455 32.992 235.839 32.9333 236.202 32.816C236.565 32.6987 236.959 32.5387 237.386 32.336V33.536C236.981 33.7173 236.581 33.8667 236.186 33.984C235.802 34.1013 235.338 34.16 234.794 34.16ZM233.466 29.152C234.106 29.152 234.698 29.0987 235.242 28.992C235.786 28.8747 236.223 28.688 236.554 28.432C236.885 28.1653 237.05 27.8133 237.05 27.376C237.05 27.0987 236.954 26.8747 236.762 26.704C236.581 26.5227 236.293 26.432 235.898 26.432C235.386 26.432 234.89 26.672 234.41 27.152C233.941 27.6213 233.589 28.288 233.354 29.152H233.466ZM1.448 55L3.272 46.424H4.664L3.928 49.992H7.96L8.728 46.424H10.136L8.328 55H6.904L7.704 51.16H3.672L2.856 55H1.448ZM13.6334 55.16C12.9827 55.16 12.46 54.9787 12.0654 54.616C11.6814 54.2533 11.4894 53.7253 11.4894 53.032C11.4894 52.7867 11.5054 52.5573 11.5374 52.344C11.58 52.12 11.6227 51.8907 11.6654 51.656L12.7854 46.424H14.2094L13.0574 51.816C12.9614 52.2747 12.9134 52.632 12.9134 52.888C12.9134 53.2293 12.9987 53.5013 13.1694 53.704C13.3507 53.896 13.6387 53.992 14.0334 53.992C14.396 53.992 14.7854 53.864 15.2014 53.608C15.628 53.352 16.0227 52.9413 16.3854 52.376C16.748 51.8107 17.0307 51.0587 17.2334 50.12L18.0174 46.424H19.4094L17.5854 55H16.4334L16.6094 53.416H16.5294C16.3267 53.672 16.0867 53.9387 15.8094 54.216C15.5427 54.4827 15.228 54.7067 14.8654 54.888C14.5134 55.0693 14.1027 55.16 13.6334 55.16ZM20.323 55L22.131 46.424H23.523L22.643 50.552L26.643 46.424H28.403L24.163 50.664L27.027 55H25.347L22.627 50.728L21.731 55H20.323ZM28.1043 55L29.9283 46.424H31.0803L30.9043 48.008H30.9843C31.1763 47.7413 31.4003 47.4747 31.6562 47.208C31.9229 46.9413 32.2269 46.7173 32.5683 46.536C32.9203 46.3547 33.3149 46.264 33.7523 46.264C34.3389 46.264 34.7869 46.4347 35.0963 46.776C35.4163 47.1067 35.6083 47.5707 35.6723 48.168H35.7362C35.9496 47.848 36.2003 47.544 36.4883 47.256C36.7869 46.968 37.1176 46.7333 37.4803 46.552C37.8429 46.36 38.2429 46.264 38.6803 46.264C39.3416 46.264 39.8536 46.4453 40.2163 46.808C40.5789 47.1707 40.7603 47.6933 40.7603 48.376C40.7603 48.632 40.7443 48.872 40.7123 49.096C40.6803 49.3093 40.6376 49.5387 40.5843 49.784L39.4803 55H38.0563L39.2083 49.624C39.2616 49.3787 39.2989 49.1707 39.3203 49C39.3416 48.8293 39.3523 48.664 39.3523 48.504C39.3523 48.184 39.2616 47.928 39.0803 47.736C38.9096 47.544 38.6376 47.448 38.2643 47.448C37.9229 47.448 37.5549 47.576 37.1603 47.832C36.7763 48.088 36.4136 48.488 36.0723 49.032C35.7416 49.5653 35.4856 50.264 35.3043 51.128L34.4883 55H33.0803L34.2163 49.624C34.3123 49.144 34.3603 48.792 34.3603 48.568C34.3603 48.216 34.2803 47.944 34.1203 47.752C33.9603 47.5493 33.6936 47.448 33.3203 47.448C32.9789 47.448 32.6109 47.576 32.2163 47.832C31.8216 48.0773 31.4536 48.4827 31.1123 49.048C30.7709 49.6133 30.4989 50.3653 30.2963 51.304L29.5123 55H28.1043ZM45.6243 55.128C44.6323 55.128 43.8483 54.8347 43.2723 54.248C42.7069 53.6507 42.4243 52.8453 42.4243 51.832C42.4243 51.1707 42.5149 50.5147 42.6963 49.864C42.8776 49.2133 43.1443 48.6213 43.4963 48.088C43.8589 47.5547 44.3069 47.128 44.8403 46.808C45.3843 46.4773 46.0083 46.312 46.7123 46.312C47.7149 46.312 48.4989 46.6107 49.0643 47.208C49.6296 47.7947 49.9123 48.6 49.9123 49.624C49.9123 50.2747 49.8216 50.9253 49.6403 51.576C49.4589 52.2267 49.1869 52.8187 48.8243 53.352C48.4723 53.8853 48.0296 54.3173 47.4963 54.648C46.9629 54.968 46.3389 55.128 45.6243 55.128ZM45.7043 53.96C46.2163 53.96 46.6803 53.784 47.0963 53.432C47.5123 53.0693 47.8429 52.552 48.0883 51.88C48.3443 51.208 48.4723 50.4027 48.4723 49.464C48.4723 49.144 48.4136 48.8347 48.2963 48.536C48.1896 48.2267 48.0083 47.976 47.7523 47.784C47.4963 47.5813 47.1549 47.48 46.7283 47.48C46.1416 47.48 45.6296 47.6827 45.1923 48.088C44.7656 48.4827 44.4349 49.016 44.2003 49.688C43.9656 50.3493 43.8483 51.08 43.8483 51.88C43.8483 52.5413 44.0083 53.0533 44.3283 53.416C44.6589 53.7787 45.1176 53.96 45.7043 53.96ZM55.2761 55L57.1001 46.424H58.4921L57.7561 49.992H61.7881L62.5561 46.424H63.9641L62.1561 55H60.7321L61.5321 51.16H57.5001L56.6841 55H55.2761ZM68.3095 55.16C67.3175 55.16 66.5495 54.872 66.0055 54.296C65.4722 53.7093 65.2055 52.92 65.2055 51.928C65.2055 51.2453 65.3015 50.5733 65.4935 49.912C65.6962 49.24 65.9842 48.632 66.3575 48.088C66.7308 47.5333 67.1788 47.0907 67.7015 46.76C68.2348 46.4293 68.8322 46.264 69.4935 46.264C70.3042 46.264 70.9122 46.44 71.3175 46.792C71.7335 47.144 71.9415 47.6347 71.9415 48.264C71.9415 48.8187 71.7655 49.3253 71.4135 49.784C71.0722 50.2427 70.5335 50.6107 69.7975 50.888C69.0615 51.1547 68.1068 51.288 66.9335 51.288H66.6615C66.6508 51.384 66.6402 51.4853 66.6295 51.592C66.6295 51.6987 66.6295 51.7947 66.6295 51.88C66.6295 52.5307 66.7895 53.048 67.1095 53.432C67.4295 53.8053 67.9148 53.992 68.5655 53.992C68.9708 53.992 69.3548 53.9333 69.7175 53.816C70.0802 53.6987 70.4748 53.5387 70.9015 53.336V54.536C70.4962 54.7173 70.0962 54.8667 69.7015 54.984C69.3175 55.1013 68.8535 55.16 68.3095 55.16ZM66.9815 50.152C67.6215 50.152 68.2135 50.0987 68.7575 49.992C69.3015 49.8747 69.7388 49.688 70.0695 49.432C70.4002 49.1653 70.5655 48.8133 70.5655 48.376C70.5655 48.0987 70.4695 47.8747 70.2775 47.704C70.0962 47.5227 69.8082 47.432 69.4135 47.432C68.9015 47.432 68.4055 47.672 67.9255 48.152C67.4562 48.6213 67.1042 49.288 66.8695 50.152H66.9815ZM80.7221 55.16C79.5488 55.16 78.6901 54.84 78.1461 54.2C77.6128 53.5493 77.3461 52.6907 77.3461 51.624C77.3461 50.6213 77.5221 49.72 77.8741 48.92C78.2368 48.1093 78.7541 47.4693 79.4261 47C80.1088 46.52 80.9301 46.28 81.8901 46.28C82.8075 46.28 83.5168 46.4613 84.0181 46.824C84.5195 47.1867 84.7701 47.7307 84.7701 48.456C84.7701 49.0853 84.5675 49.576 84.1621 49.928C83.7568 50.28 83.2395 50.5253 82.6101 50.664V50.696C83.0795 50.8133 83.4635 51.0107 83.7621 51.288C84.0608 51.5547 84.2101 51.9653 84.2101 52.52C84.2101 52.9147 84.0981 53.32 83.8741 53.736C83.6608 54.1413 83.2981 54.4827 82.7861 54.76C82.2741 55.0267 81.5861 55.16 80.7221 55.16ZM80.6741 50.152C81.1435 50.152 81.5808 50.104 81.9861 50.008C82.4021 49.912 82.7328 49.752 82.9781 49.528C83.2341 49.2933 83.3621 48.984 83.3621 48.6C83.3621 48.28 83.2501 48.008 83.0261 47.784C82.8021 47.56 82.4288 47.448 81.9061 47.448C81.1595 47.448 80.5248 47.6827 80.0021 48.152C79.4901 48.6213 79.1328 49.288 78.9301 50.152H80.6741ZM80.8181 54.008C81.5221 54.008 82.0341 53.8587 82.3541 53.56C82.6848 53.2507 82.8501 52.8987 82.8501 52.504C82.8501 52.0987 82.6848 51.7947 82.3541 51.592C82.0235 51.3893 81.5008 51.288 80.7861 51.288H78.7701V51.672C78.7701 52.4933 78.9568 53.0907 79.3301 53.464C79.7035 53.8267 80.1995 54.008 80.8181 54.008ZM89.1064 55.16C88.1144 55.16 87.3464 54.872 86.8024 54.296C86.269 53.7093 86.0024 52.92 86.0024 51.928C86.0024 51.2453 86.0984 50.5733 86.2904 49.912C86.493 49.24 86.781 48.632 87.1544 48.088C87.5277 47.5333 87.9757 47.0907 88.4984 46.76C89.0317 46.4293 89.629 46.264 90.2904 46.264C91.101 46.264 91.709 46.44 92.1144 46.792C92.5304 47.144 92.7384 47.6347 92.7384 48.264C92.7384 48.8187 92.5624 49.3253 92.2104 49.784C91.869 50.2427 91.3304 50.6107 90.5944 50.888C89.8584 51.1547 88.9037 51.288 87.7304 51.288H87.4584C87.4477 51.384 87.437 51.4853 87.4264 51.592C87.4264 51.6987 87.4264 51.7947 87.4264 51.88C87.4264 52.5307 87.5864 53.048 87.9064 53.432C88.2264 53.8053 88.7117 53.992 89.3624 53.992C89.7677 53.992 90.1517 53.9333 90.5144 53.816C90.877 53.6987 91.2717 53.5387 91.6984 53.336V54.536C91.293 54.7173 90.893 54.8667 90.4984 54.984C90.1144 55.1013 89.6504 55.16 89.1064 55.16ZM87.7784 50.152C88.4184 50.152 89.0104 50.0987 89.5544 49.992C90.0984 49.8747 90.5357 49.688 90.8664 49.432C91.197 49.1653 91.3624 48.8133 91.3624 48.376C91.3624 48.0987 91.2664 47.8747 91.0744 47.704C90.893 47.5227 90.605 47.432 90.2104 47.432C89.6984 47.432 89.2024 47.672 88.7224 48.152C88.253 48.6213 87.901 49.288 87.6664 50.152H87.7784ZM96.8188 55.16C95.8908 55.16 95.1868 54.8773 94.7068 54.312C94.2268 53.736 93.9868 52.9787 93.9868 52.04C93.9868 51.432 94.0721 50.8187 94.2428 50.2C94.4134 49.5813 94.6641 49.016 94.9948 48.504C95.3361 47.9813 95.7521 47.5653 96.2428 47.256C96.7441 46.9467 97.3201 46.792 97.9708 46.792C98.6001 46.792 99.0854 46.9253 99.4268 47.192C99.7788 47.4587 100.04 47.7787 100.211 48.152H100.259C100.269 48.0667 100.275 47.9867 100.275 47.912C100.275 47.8267 100.275 47.7573 100.275 47.704C100.275 46.392 100.099 45.4213 99.7468 44.792C99.3948 44.1627 98.8561 43.848 98.1308 43.848C97.8641 43.848 97.5761 43.88 97.2668 43.944C96.9681 44.008 96.6961 44.0933 96.4508 44.2L96.0988 43.16C96.3548 43.032 96.6908 42.92 97.1068 42.824C97.5228 42.728 97.9228 42.68 98.3068 42.68C99.4801 42.68 100.339 43.1013 100.883 43.944C101.427 44.7867 101.699 46.008 101.699 47.608C101.699 48.2587 101.64 48.936 101.523 49.64C101.405 50.3333 101.219 51.0107 100.963 51.672C100.717 52.3227 100.403 52.9147 100.019 53.448C99.6348 53.9707 99.1761 54.3867 98.6428 54.696C98.1094 55.0053 97.5014 55.16 96.8188 55.16ZM96.9628 53.976C97.4961 53.976 97.9654 53.7733 98.3708 53.368C98.7761 52.9627 99.1174 52.4347 99.3948 51.784C99.6721 51.1227 99.8801 50.424 100.019 49.688C99.8694 49.176 99.6348 48.7493 99.3148 48.408C98.9948 48.056 98.5894 47.88 98.0988 47.88C97.6188 47.88 97.1708 48.0667 96.7548 48.44C96.3494 48.8133 96.0241 49.3147 95.7788 49.944C95.5334 50.5627 95.4108 51.256 95.4108 52.024C95.4108 52.5787 95.5281 53.0427 95.7628 53.416C96.0081 53.7893 96.4081 53.976 96.9628 53.976ZM106.153 55.16C105.161 55.16 104.393 54.872 103.849 54.296C103.316 53.7093 103.049 52.92 103.049 51.928C103.049 51.2453 103.145 50.5733 103.337 49.912C103.54 49.24 103.828 48.632 104.201 48.088C104.575 47.5333 105.023 47.0907 105.545 46.76C106.079 46.4293 106.676 46.264 107.337 46.264C108.148 46.264 108.756 46.44 109.161 46.792C109.577 47.144 109.785 47.6347 109.785 48.264C109.785 48.8187 109.609 49.3253 109.257 49.784C108.916 50.2427 108.377 50.6107 107.641 50.888C106.905 51.1547 105.951 51.288 104.777 51.288H104.505C104.495 51.384 104.484 51.4853 104.473 51.592C104.473 51.6987 104.473 51.7947 104.473 51.88C104.473 52.5307 104.633 53.048 104.953 53.432C105.273 53.8053 105.759 53.992 106.409 53.992C106.815 53.992 107.199 53.9333 107.561 53.816C107.924 53.6987 108.319 53.5387 108.745 53.336V54.536C108.34 54.7173 107.94 54.8667 107.545 54.984C107.161 55.1013 106.697 55.16 106.153 55.16ZM104.825 50.152C105.465 50.152 106.057 50.0987 106.601 49.992C107.145 49.8747 107.583 49.688 107.913 49.432C108.244 49.1653 108.409 48.8133 108.409 48.376C108.409 48.0987 108.313 47.8747 108.121 47.704C107.94 47.5227 107.652 47.432 107.257 47.432C106.745 47.432 106.249 47.672 105.769 48.152C105.3 48.6213 104.948 49.288 104.713 50.152H104.825ZM110.714 55L112.538 46.424H113.69L113.514 48.008H113.594C113.786 47.7413 114.01 47.4747 114.266 47.208C114.532 46.9413 114.836 46.7173 115.178 46.536C115.53 46.3547 115.924 46.264 116.362 46.264C116.948 46.264 117.396 46.4347 117.706 46.776C118.026 47.1067 118.218 47.5707 118.282 48.168H118.346C118.559 47.848 118.81 47.544 119.098 47.256C119.396 46.968 119.727 46.7333 120.09 46.552C120.452 46.36 120.852 46.264 121.29 46.264C121.951 46.264 122.463 46.4453 122.826 46.808C123.188 47.1707 123.37 47.6933 123.37 48.376C123.37 48.632 123.354 48.872 123.322 49.096C123.29 49.3093 123.247 49.5387 123.194 49.784L122.09 55H120.666L121.818 49.624C121.871 49.3787 121.908 49.1707 121.93 49C121.951 48.8293 121.962 48.664 121.962 48.504C121.962 48.184 121.871 47.928 121.69 47.736C121.519 47.544 121.247 47.448 120.874 47.448C120.532 47.448 120.164 47.576 119.77 47.832C119.386 48.088 119.023 48.488 118.682 49.032C118.351 49.5653 118.095 50.264 117.914 51.128L117.098 55H115.69L116.826 49.624C116.922 49.144 116.97 48.792 116.97 48.568C116.97 48.216 116.89 47.944 116.73 47.752C116.57 47.5493 116.303 47.448 115.93 47.448C115.588 47.448 115.22 47.576 114.826 47.832C114.431 48.0773 114.063 48.4827 113.722 49.048C113.38 49.6133 113.108 50.3653 112.906 51.304L112.122 55H110.714ZM132.374 55.16C131.425 55.16 130.657 54.8933 130.07 54.36C129.483 53.8267 129.19 53.0267 129.19 51.96C129.19 51.192 129.291 50.4667 129.494 49.784C129.707 49.0907 130.006 48.4827 130.39 47.96C130.785 47.4373 131.259 47.0267 131.814 46.728C132.369 46.4187 132.987 46.264 133.67 46.264C134.043 46.264 134.417 46.3013 134.79 46.376C135.163 46.4507 135.499 46.552 135.798 46.68L135.398 47.848C135.185 47.752 134.929 47.6613 134.63 47.576C134.342 47.4907 134.027 47.448 133.686 47.448C133.078 47.448 132.545 47.656 132.086 48.072C131.627 48.4773 131.27 49.0213 131.014 49.704C130.758 50.3867 130.63 51.1333 130.63 51.944C130.63 52.5947 130.795 53.1013 131.126 53.464C131.467 53.816 131.931 53.992 132.518 53.992C132.891 53.992 133.243 53.9387 133.574 53.832C133.915 53.7253 134.251 53.6027 134.582 53.464V54.648C134.283 54.7973 133.947 54.92 133.574 55.016C133.211 55.112 132.811 55.16 132.374 55.16ZM139.544 55.16C138.552 55.16 137.784 54.872 137.24 54.296C136.707 53.7093 136.44 52.92 136.44 51.928C136.44 51.2453 136.536 50.5733 136.728 49.912C136.931 49.24 137.219 48.632 137.592 48.088C137.965 47.5333 138.413 47.0907 138.936 46.76C139.469 46.4293 140.067 46.264 140.728 46.264C141.539 46.264 142.147 46.44 142.552 46.792C142.968 47.144 143.176 47.6347 143.176 48.264C143.176 48.8187 143 49.3253 142.648 49.784C142.307 50.2427 141.768 50.6107 141.032 50.888C140.296 51.1547 139.341 51.288 138.168 51.288H137.896C137.885 51.384 137.875 51.4853 137.864 51.592C137.864 51.6987 137.864 51.7947 137.864 51.88C137.864 52.5307 138.024 53.048 138.344 53.432C138.664 53.8053 139.149 53.992 139.8 53.992C140.205 53.992 140.589 53.9333 140.952 53.816C141.315 53.6987 141.709 53.5387 142.136 53.336V54.536C141.731 54.7173 141.331 54.8667 140.936 54.984C140.552 55.1013 140.088 55.16 139.544 55.16ZM138.216 50.152C138.856 50.152 139.448 50.0987 139.992 49.992C140.536 49.8747 140.973 49.688 141.304 49.432C141.635 49.1653 141.8 48.8133 141.8 48.376C141.8 48.0987 141.704 47.8747 141.512 47.704C141.331 47.5227 141.043 47.432 140.648 47.432C140.136 47.432 139.64 47.672 139.16 48.152C138.691 48.6213 138.339 49.288 138.104 50.152H138.216ZM147.496 55.16C146.526 55.16 145.774 54.856 145.24 54.248C144.707 53.6293 144.44 52.728 144.44 51.544C144.44 51.064 144.483 50.5147 144.568 49.896C144.664 49.2667 144.808 48.6267 145 47.976C145.203 47.3147 145.459 46.6853 145.768 46.088C146.088 45.4907 146.472 44.9733 146.92 44.536C147.379 44.0987 147.912 43.7893 148.52 43.608C148.712 43.544 148.99 43.4747 149.352 43.4C149.726 43.3147 150.131 43.2293 150.568 43.144C151.006 43.048 151.422 42.968 151.816 42.904C152.211 42.84 152.526 42.792 152.76 42.76L152.92 43.912C152.622 43.9547 152.238 44.0187 151.768 44.104C151.299 44.1893 150.824 44.2853 150.344 44.392C149.875 44.488 149.475 44.5893 149.144 44.696C148.462 44.9093 147.88 45.336 147.4 45.976C146.92 46.616 146.542 47.4427 146.264 48.456L146.312 48.472C146.6 48.1307 146.99 47.8053 147.48 47.496C147.971 47.1867 148.531 47.032 149.16 47.032C149.971 47.032 150.574 47.288 150.968 47.8C151.374 48.3013 151.576 49.0053 151.576 49.912C151.576 50.5627 151.496 51.2027 151.336 51.832C151.187 52.4507 150.947 53.0107 150.616 53.512C150.296 54.0133 149.875 54.4133 149.352 54.712C148.84 55.0107 148.222 55.16 147.496 55.16ZM147.624 53.992C148.094 53.992 148.488 53.864 148.808 53.608C149.128 53.3413 149.384 53.0053 149.576 52.6C149.779 52.184 149.923 51.752 150.008 51.304C150.094 50.8453 150.136 50.4293 150.136 50.056C150.136 49.416 150.024 48.9467 149.8 48.648C149.576 48.3493 149.24 48.2 148.792 48.2C148.398 48.2 148.019 48.296 147.656 48.488C147.304 48.68 146.99 48.9093 146.712 49.176C146.435 49.432 146.211 49.6773 146.04 49.912C145.998 50.2 145.955 50.488 145.912 50.776C145.88 51.064 145.864 51.336 145.864 51.592C145.864 52.3067 145.998 52.888 146.264 53.336C146.531 53.7733 146.984 53.992 147.624 53.992ZM152.711 55.096C152.572 55.096 152.45 55.0853 152.343 55.064C152.226 55.0427 152.13 55.0213 152.055 55V53.88C152.172 53.912 152.306 53.928 152.455 53.928C152.732 53.928 152.962 53.8373 153.143 53.656C153.324 53.464 153.532 53.1227 153.767 52.632C153.927 52.2907 154.119 51.9867 154.343 51.72C154.567 51.4533 154.86 51.2507 155.223 51.112C154.711 50.9627 154.332 50.712 154.087 50.36C153.852 50.008 153.735 49.6027 153.735 49.144C153.735 48.3653 154.018 47.72 154.583 47.208C155.148 46.6853 155.996 46.424 157.127 46.424H160.391L158.583 55H157.191L157.911 51.624H156.871C156.37 51.624 156.002 51.7467 155.767 51.992C155.532 52.2373 155.292 52.6053 155.047 53.096C154.844 53.5227 154.642 53.8853 154.439 54.184C154.247 54.4827 154.018 54.712 153.751 54.872C153.484 55.0213 153.138 55.096 152.711 55.096ZM156.759 50.424H158.167L158.759 47.624H156.903C156.338 47.624 155.9 47.7627 155.591 48.04C155.282 48.3067 155.127 48.6747 155.127 49.144C155.127 49.624 155.282 49.96 155.591 50.152C155.911 50.3333 156.3 50.424 156.759 50.424ZM169.191 55.16C168.018 55.16 167.159 54.84 166.615 54.2C166.082 53.5493 165.815 52.6907 165.815 51.624C165.815 50.6213 165.991 49.72 166.343 48.92C166.706 48.1093 167.223 47.4693 167.895 47C168.578 46.52 169.399 46.28 170.359 46.28C171.276 46.28 171.986 46.4613 172.487 46.824C172.988 47.1867 173.239 47.7307 173.239 48.456C173.239 49.0853 173.036 49.576 172.631 49.928C172.226 50.28 171.708 50.5253 171.079 50.664V50.696C171.548 50.8133 171.932 51.0107 172.231 51.288C172.53 51.5547 172.679 51.9653 172.679 52.52C172.679 52.9147 172.567 53.32 172.343 53.736C172.13 54.1413 171.767 54.4827 171.255 54.76C170.743 55.0267 170.055 55.16 169.191 55.16ZM169.143 50.152C169.612 50.152 170.05 50.104 170.455 50.008C170.871 49.912 171.202 49.752 171.447 49.528C171.703 49.2933 171.831 48.984 171.831 48.6C171.831 48.28 171.719 48.008 171.495 47.784C171.271 47.56 170.898 47.448 170.375 47.448C169.628 47.448 168.994 47.6827 168.471 48.152C167.959 48.6213 167.602 49.288 167.399 50.152H169.143ZM169.287 54.008C169.991 54.008 170.503 53.8587 170.823 53.56C171.154 53.2507 171.319 52.8987 171.319 52.504C171.319 52.0987 171.154 51.7947 170.823 51.592C170.492 51.3893 169.97 51.288 169.255 51.288H167.239V51.672C167.239 52.4933 167.426 53.0907 167.799 53.464C168.172 53.8267 168.668 54.008 169.287 54.008ZM177.479 55.16C176.626 55.16 175.948 54.9627 175.447 54.568C174.946 54.1627 174.695 53.5387 174.695 52.696C174.695 52.4827 174.711 52.2373 174.743 51.96C174.786 51.6827 174.828 51.4267 174.871 51.192L175.879 46.424H177.303L176.503 50.152C176.759 50.0987 177.031 50.056 177.319 50.024C177.618 49.9813 177.916 49.96 178.215 49.96C179.079 49.96 179.73 50.1573 180.167 50.552C180.604 50.936 180.823 51.4907 180.823 52.216C180.823 52.7493 180.7 53.24 180.455 53.688C180.22 54.136 179.858 54.4933 179.367 54.76C178.876 55.0267 178.247 55.16 177.479 55.16ZM181.671 55L183.479 46.424H184.887L183.063 55H181.671ZM177.559 54.008C178.22 54.008 178.695 53.8427 178.983 53.512C179.282 53.1707 179.431 52.7813 179.431 52.344C179.431 51.8747 179.292 51.5547 179.015 51.384C178.748 51.2027 178.348 51.112 177.815 51.112C177.548 51.112 177.282 51.128 177.015 51.16C176.759 51.1813 176.508 51.2187 176.263 51.272C176.199 51.5813 176.151 51.8373 176.119 52.04C176.098 52.232 176.087 52.408 176.087 52.568C176.087 53.0267 176.199 53.384 176.423 53.64C176.658 53.8853 177.036 54.008 177.559 54.008ZM187.792 55.16C187.333 55.16 186.88 55.1067 186.432 55C185.994 54.904 185.626 54.776 185.328 54.616V53.32C185.605 53.4693 185.962 53.624 186.4 53.784C186.837 53.9333 187.338 54.008 187.904 54.008C188.576 54.008 189.109 53.864 189.504 53.576C189.909 53.2773 190.112 52.888 190.112 52.408C190.112 52.0347 190 51.7307 189.776 51.496C189.562 51.2613 189.136 51.144 188.496 51.144H187.312L187.584 49.96H188.368C188.72 49.96 189.066 49.9227 189.408 49.848C189.76 49.7733 190.048 49.6293 190.272 49.416C190.496 49.2027 190.608 48.8933 190.608 48.488C190.608 48.168 190.496 47.9173 190.272 47.736C190.058 47.544 189.728 47.448 189.28 47.448C188.906 47.448 188.549 47.496 188.208 47.592C187.866 47.6773 187.488 47.8107 187.072 47.992L186.656 46.92C187.093 46.7067 187.53 46.5467 187.968 46.44C188.416 46.3227 188.917 46.264 189.472 46.264C190.272 46.264 190.896 46.44 191.344 46.792C191.792 47.144 192.016 47.64 192.016 48.28C192.016 48.856 191.84 49.336 191.488 49.72C191.146 50.0933 190.65 50.3547 190 50.504V50.536C190.458 50.6533 190.816 50.8613 191.072 51.16C191.328 51.4587 191.456 51.8587 191.456 52.36C191.456 53.1493 191.152 53.816 190.544 54.36C189.946 54.8933 189.029 55.16 187.792 55.16ZM196.229 55.16C195.376 55.16 194.698 54.9627 194.197 54.568C193.696 54.1627 193.445 53.5387 193.445 52.696C193.445 52.4827 193.461 52.2373 193.493 51.96C193.536 51.6827 193.578 51.4267 193.621 51.192L194.629 46.424H196.053L195.253 50.152C195.509 50.0987 195.781 50.056 196.069 50.024C196.368 49.9813 196.666 49.96 196.965 49.96C197.829 49.96 198.48 50.1573 198.917 50.552C199.354 50.936 199.573 51.4907 199.573 52.216C199.573 52.7493 199.45 53.24 199.205 53.688C198.97 54.136 198.608 54.4933 198.117 54.76C197.626 55.0267 196.997 55.16 196.229 55.16ZM200.421 55L202.229 46.424H203.637L201.813 55H200.421ZM196.309 54.008C196.97 54.008 197.445 53.8427 197.733 53.512C198.032 53.1707 198.181 52.7813 198.181 52.344C198.181 51.8747 198.042 51.5547 197.765 51.384C197.498 51.2027 197.098 51.112 196.565 51.112C196.298 51.112 196.032 51.128 195.765 51.16C195.509 51.1813 195.258 51.2187 195.013 51.272C194.949 51.5813 194.901 51.8373 194.869 52.04C194.848 52.232 194.837 52.408 194.837 52.568C194.837 53.0267 194.949 53.384 195.173 53.64C195.408 53.8853 195.786 54.008 196.309 54.008ZM208.238 55.16C207.064 55.16 206.206 54.84 205.662 54.2C205.128 53.5493 204.862 52.6907 204.862 51.624C204.862 50.6213 205.038 49.72 205.39 48.92C205.752 48.1093 206.27 47.4693 206.942 47C207.624 46.52 208.446 46.28 209.406 46.28C210.323 46.28 211.032 46.4613 211.534 46.824C212.035 47.1867 212.286 47.7307 212.286 48.456C212.286 49.0853 212.083 49.576 211.678 49.928C211.272 50.28 210.755 50.5253 210.126 50.664V50.696C210.595 50.8133 210.979 51.0107 211.278 51.288C211.576 51.5547 211.726 51.9653 211.726 52.52C211.726 52.9147 211.614 53.32 211.39 53.736C211.176 54.1413 210.814 54.4827 210.302 54.76C209.79 55.0267 209.102 55.16 208.238 55.16ZM208.19 50.152C208.659 50.152 209.096 50.104 209.502 50.008C209.918 49.912 210.248 49.752 210.494 49.528C210.75 49.2933 210.878 48.984 210.878 48.6C210.878 48.28 210.766 48.008 210.542 47.784C210.318 47.56 209.944 47.448 209.422 47.448C208.675 47.448 208.04 47.6827 207.518 48.152C207.006 48.6213 206.648 49.288 206.446 50.152H208.19ZM208.334 54.008C209.038 54.008 209.55 53.8587 209.87 53.56C210.2 53.2507 210.366 52.8987 210.366 52.504C210.366 52.0987 210.2 51.7947 209.87 51.592C209.539 51.3893 209.016 51.288 208.302 51.288H206.286V51.672C206.286 52.4933 206.472 53.0907 206.846 53.464C207.219 53.8267 207.715 54.008 208.334 54.008ZM215.838 55.16C215.155 55.16 214.595 54.9147 214.158 54.424C213.731 53.9227 213.518 53.192 213.518 52.232C213.518 51.432 213.619 50.6747 213.822 49.96C214.035 49.2347 214.329 48.6 214.702 48.056C215.075 47.5013 215.518 47.064 216.03 46.744C216.542 46.424 217.107 46.264 217.726 46.264C218.291 46.264 218.75 46.4133 219.102 46.712C219.454 47.0107 219.715 47.3573 219.886 47.752H219.966L220.478 46.424H221.55L219.726 55H218.606L218.814 53.416H218.75C218.387 53.8853 217.961 54.296 217.47 54.648C216.979 54.9893 216.435 55.16 215.838 55.16ZM216.302 53.992C216.697 53.992 217.081 53.848 217.454 53.56C217.838 53.272 218.185 52.8827 218.494 52.392C218.803 51.9013 219.038 51.352 219.198 50.744C219.283 50.4347 219.337 50.152 219.358 49.896C219.39 49.6293 219.406 49.384 219.406 49.16C219.406 48.6587 219.267 48.248 218.99 47.928C218.713 47.608 218.339 47.448 217.87 47.448C217.454 47.448 217.07 47.5813 216.718 47.848C216.366 48.104 216.057 48.4613 215.79 48.92C215.523 49.368 215.315 49.88 215.166 50.456C215.027 51.032 214.958 51.6347 214.958 52.264C214.958 52.84 215.075 53.272 215.31 53.56C215.545 53.848 215.875 53.992 216.302 53.992ZM229.524 55.128C228.521 55.128 227.758 54.8187 227.236 54.2C226.724 53.5813 226.468 52.792 226.468 51.832C226.468 51.6933 226.468 51.5653 226.468 51.448C226.478 51.32 226.484 51.224 226.484 51.16H224.516L223.7 55H222.292L224.116 46.424H225.508L224.772 49.992H226.676C227.017 48.7653 227.529 47.848 228.212 47.24C228.905 46.6213 229.694 46.312 230.58 46.312C231.593 46.312 232.356 46.6213 232.868 47.24C233.38 47.8587 233.636 48.6533 233.636 49.624C233.636 50.3173 233.545 50.9947 233.364 51.656C233.193 52.3067 232.932 52.8933 232.58 53.416C232.238 53.9387 231.812 54.3547 231.3 54.664C230.788 54.9733 230.196 55.128 229.524 55.128ZM229.62 53.96C230.1 53.96 230.532 53.7733 230.916 53.4C231.31 53.0267 231.62 52.504 231.844 51.832C232.078 51.16 232.196 50.3707 232.196 49.464C232.196 48.8667 232.052 48.3867 231.764 48.024C231.486 47.6613 231.086 47.48 230.564 47.48C230.116 47.48 229.721 47.6133 229.38 47.88C229.049 48.136 228.772 48.4773 228.548 48.904C228.324 49.3307 228.158 49.8053 228.052 50.328C227.945 50.84 227.892 51.3573 227.892 51.88C227.892 52.4987 228.03 53 228.308 53.384C228.596 53.768 229.033 53.96 229.62 53.96ZM246.086 55.112C245.766 55.0267 245.526 54.856 245.366 54.6C245.217 54.3333 245.137 53.9493 245.126 53.448H245.078C244.897 53.7147 244.673 53.9813 244.406 54.248C244.139 54.5147 243.835 54.7333 243.494 54.904C243.153 55.0747 242.763 55.16 242.326 55.16C241.739 55.16 241.286 54.9893 240.966 54.648C240.646 54.3067 240.454 53.8427 240.39 53.256H240.326C240.113 53.5653 239.862 53.8693 239.574 54.168C239.286 54.456 238.961 54.696 238.598 54.888C238.235 55.0693 237.83 55.16 237.382 55.16C236.721 55.16 236.209 54.9787 235.846 54.616C235.483 54.2533 235.302 53.7307 235.302 53.048C235.302 52.792 235.318 52.5573 235.35 52.344C235.393 52.12 235.435 51.8853 235.478 51.64L236.582 46.424H238.006L236.87 51.816C236.827 52.0507 236.79 52.2533 236.758 52.424C236.726 52.5947 236.71 52.76 236.71 52.92C236.71 53.24 236.795 53.496 236.966 53.688C237.147 53.88 237.425 53.976 237.798 53.976C238.139 53.976 238.502 53.8533 238.886 53.608C239.281 53.352 239.643 52.952 239.974 52.408C240.315 51.864 240.577 51.16 240.758 50.296L241.59 46.424H242.998L241.846 51.816C241.75 52.2747 241.702 52.6213 241.702 52.856C241.702 53.2187 241.782 53.496 241.942 53.688C242.102 53.88 242.369 53.976 242.742 53.976C243.094 53.976 243.467 53.8533 243.862 53.608C244.257 53.352 244.625 52.9413 244.966 52.376C245.307 51.8107 245.574 51.0587 245.766 50.12L246.55 46.424H247.958L246.678 52.472C246.646 52.6427 246.619 52.8133 246.598 52.984C246.577 53.1547 246.566 53.2987 246.566 53.416C246.566 53.8213 246.763 54.024 247.158 54.024C247.297 54.024 247.414 54.008 247.51 53.976C247.617 53.944 247.707 53.9227 247.782 53.912L246.87 57.976H245.462L246.086 55.112ZM252.575 55.16C251.583 55.16 250.815 54.872 250.271 54.296C249.738 53.7093 249.471 52.92 249.471 51.928C249.471 51.2453 249.567 50.5733 249.759 49.912C249.962 49.24 250.25 48.632 250.623 48.088C250.996 47.5333 251.444 47.0907 251.967 46.76C252.5 46.4293 253.098 46.264 253.759 46.264C254.57 46.264 255.178 46.44 255.583 46.792C255.999 47.144 256.207 47.6347 256.207 48.264C256.207 48.8187 256.031 49.3253 255.679 49.784C255.338 50.2427 254.799 50.6107 254.063 50.888C253.327 51.1547 252.372 51.288 251.199 51.288H250.927C250.916 51.384 250.906 51.4853 250.895 51.592C250.895 51.6987 250.895 51.7947 250.895 51.88C250.895 52.5307 251.055 53.048 251.375 53.432C251.695 53.8053 252.18 53.992 252.831 53.992C253.236 53.992 253.62 53.9333 253.983 53.816C254.346 53.6987 254.74 53.5387 255.167 53.336V54.536C254.762 54.7173 254.362 54.8667 253.967 54.984C253.583 55.1013 253.119 55.16 252.575 55.16ZM251.247 50.152C251.887 50.152 252.479 50.0987 253.023 49.992C253.567 49.8747 254.004 49.688 254.335 49.432C254.666 49.1653 254.831 48.8133 254.831 48.376C254.831 48.0987 254.735 47.8747 254.543 47.704C254.362 47.5227 254.074 47.432 253.679 47.432C253.167 47.432 252.671 47.672 252.191 48.152C251.722 48.6213 251.37 49.288 251.135 50.152H251.247ZM258.128 53.608H258.384L258.176 55H257.92L258.128 53.608Z" fill="#FCF7F2"/>
</svg>
