<svg width="267" height="97" viewBox="0 0 267 97" fill="none" xmlns="http://www.w3.org/2000/svg">
<path d="M12.673 15H9.386L6.232 9.87L3.078 15H0L4.503 8.008L0.285 1.434H3.458L6.384 6.317L9.253 1.434H12.35L8.094 8.16L12.673 15ZM23.5789 9.794C23.5789 11.5167 23.1229 12.8467 22.2109 13.784C21.3115 14.7213 20.0829 15.19 18.5249 15.19C17.5622 15.19 16.7009 14.981 15.9409 14.563C15.1935 14.145 14.6045 13.537 14.1739 12.739C13.7432 11.9283 13.5279 10.9467 13.5279 9.794C13.5279 8.07133 13.9775 6.74767 14.8769 5.823C15.7762 4.89833 17.0112 4.436 18.5819 4.436C19.5572 4.436 20.4185 4.645 21.1659 5.063C21.9132 5.481 22.5022 6.089 22.9329 6.887C23.3635 7.67233 23.5789 8.64133 23.5789 9.794ZM16.4159 9.794C16.4159 10.82 16.5805 11.599 16.9099 12.131C17.2519 12.6503 17.8029 12.91 18.5629 12.91C19.3102 12.91 19.8485 12.6503 20.1779 12.131C20.5199 11.599 20.6909 10.82 20.6909 9.794C20.6909 8.768 20.5199 8.00167 20.1779 7.495C19.8485 6.97567 19.3039 6.716 18.5439 6.716C17.7965 6.716 17.2519 6.97567 16.9099 7.495C16.5805 8.00167 16.4159 8.768 16.4159 9.794ZM31.6945 4.436C32.8599 4.436 33.8035 4.892 34.5255 5.804C35.2475 6.70333 35.6085 8.03333 35.6085 9.794C35.6085 11.5547 35.2349 12.8973 34.4875 13.822C33.7402 14.734 32.7839 15.19 31.6185 15.19C30.8712 15.19 30.2759 15.057 29.8325 14.791C29.3892 14.5123 29.0282 14.202 28.7495 13.86H28.5975C28.6989 14.392 28.7495 14.8987 28.7495 15.38V19.56H25.9185V4.626H28.2175L28.6165 5.975H28.7495C29.0282 5.557 29.4019 5.196 29.8705 4.892C30.3392 4.588 30.9472 4.436 31.6945 4.436ZM30.7825 6.697C30.0479 6.697 29.5285 6.925 29.2245 7.381C28.9332 7.837 28.7749 8.53367 28.7495 9.471V9.775C28.7495 10.7757 28.8952 11.5483 29.1865 12.093C29.4905 12.625 30.0352 12.891 30.8205 12.891C31.4665 12.891 31.9415 12.625 32.2455 12.093C32.5622 11.5483 32.7205 10.7693 32.7205 9.756C32.7205 7.71667 32.0745 6.697 30.7825 6.697ZM47.366 9.794C47.366 11.5167 46.91 12.8467 45.998 13.784C45.0986 14.7213 43.87 15.19 42.312 15.19C41.3493 15.19 40.488 14.981 39.728 14.563C38.9806 14.145 38.3916 13.537 37.961 12.739C37.5303 11.9283 37.315 10.9467 37.315 9.794C37.315 8.07133 37.7646 6.74767 38.664 5.823C39.5633 4.89833 40.7983 4.436 42.369 4.436C43.3443 4.436 44.2056 4.645 44.953 5.063C45.7003 5.481 46.2893 6.089 46.72 6.887C47.1506 7.67233 47.366 8.64133 47.366 9.794ZM40.203 9.794C40.203 10.82 40.3676 11.599 40.697 12.131C41.039 12.6503 41.59 12.91 42.35 12.91C43.0973 12.91 43.6356 12.6503 43.965 12.131C44.307 11.599 44.478 10.82 44.478 9.794C44.478 8.768 44.307 8.00167 43.965 7.495C43.6356 6.97567 43.091 6.716 42.331 6.716C41.5836 6.716 41.039 6.97567 40.697 7.495C40.3676 8.00167 40.203 8.768 40.203 9.794ZM65.1526 4.626V15H49.7056V4.626H52.5366V12.872H56.0136V4.626H58.8446V12.872H62.3216V4.626H65.1526ZM70.8479 8.73C70.8479 8.94533 70.8352 9.21133 70.8099 9.528C70.7972 9.84467 70.7782 10.1677 70.7529 10.497C70.7402 10.8263 70.7212 11.1177 70.6959 11.371C70.6705 11.6243 70.6515 11.8017 70.6389 11.903L75.4269 4.626H78.8279V15H76.0919V10.858C76.0919 10.516 76.1045 10.1423 76.1299 9.737C76.1552 9.319 76.1805 8.93267 76.2059 8.578C76.2439 8.21067 76.2692 7.932 76.2819 7.742L71.5129 15H68.1119V4.626H70.8479V8.73ZM91.7237 0.161C91.6604 0.819666 91.4767 1.40233 91.1727 1.909C90.8687 2.403 90.3937 2.78933 89.7477 3.068C89.1017 3.34667 88.234 3.486 87.1447 3.486C86.03 3.486 85.156 3.353 84.5227 3.087C83.902 2.80833 83.4587 2.422 83.1927 1.928C82.9267 1.434 82.7684 0.844999 82.7177 0.161H85.2447C85.308 0.857666 85.4854 1.32 85.7767 1.548C86.068 1.776 86.543 1.89 87.2017 1.89C87.7464 1.89 88.1897 1.76967 88.5317 1.529C88.8864 1.27567 89.0954 0.819666 89.1587 0.161H91.7237ZM84.5227 8.73C84.5227 8.94533 84.51 9.21133 84.4847 9.528C84.472 9.84467 84.453 10.1677 84.4277 10.497C84.415 10.8263 84.396 11.1177 84.3707 11.371C84.3454 11.6243 84.3264 11.8017 84.3137 11.903L89.1017 4.626H92.5027V15H89.7667V10.858C89.7667 10.516 89.7794 10.1423 89.8047 9.737C89.83 9.319 89.8554 8.93267 89.8807 8.578C89.9187 8.21067 89.944 7.932 89.9567 7.742L85.1877 15H81.7867V4.626H84.5227V8.73ZM115.714 4.626V15H100.267V4.626H103.098V12.872H106.575V4.626H109.406V12.872H112.883V4.626H115.714ZM124.449 4.436C125.615 4.436 126.558 4.892 127.28 5.804C128.002 6.70333 128.363 8.03333 128.363 9.794C128.363 11.5547 127.99 12.8973 127.242 13.822C126.495 14.734 125.539 15.19 124.373 15.19C123.626 15.19 123.031 15.057 122.587 14.791C122.144 14.5123 121.783 14.202 121.504 13.86H121.352C121.454 14.392 121.504 14.8987 121.504 15.38V19.56H118.673V4.626H120.972L121.371 5.975H121.504C121.783 5.557 122.157 5.196 122.625 4.892C123.094 4.588 123.702 4.436 124.449 4.436ZM123.537 6.697C122.803 6.697 122.283 6.925 121.979 7.381C121.688 7.837 121.53 8.53367 121.504 9.471V9.775C121.504 10.7757 121.65 11.5483 121.941 12.093C122.245 12.625 122.79 12.891 123.575 12.891C124.221 12.891 124.696 12.625 125 12.093C125.317 11.5483 125.475 10.7693 125.475 9.756C125.475 7.71667 124.829 6.697 123.537 6.697ZM133.433 8.73C133.433 8.94533 133.42 9.21133 133.395 9.528C133.382 9.84467 133.363 10.1677 133.338 10.497C133.325 10.8263 133.306 11.1177 133.281 11.371C133.256 11.6243 133.237 11.8017 133.224 11.903L138.012 4.626H141.413V15H138.677V10.858C138.677 10.516 138.69 10.1423 138.715 9.737C138.74 9.319 138.766 8.93267 138.791 8.578C138.829 8.21067 138.854 7.932 138.867 7.742L134.098 15H130.697V4.626H133.433V8.73ZM151.953 4.569C153.751 4.721 155.126 5.272 156.076 6.222C157.026 7.15933 157.501 8.35633 157.501 9.813C157.501 11.2697 157.038 12.473 156.114 13.423C155.189 14.373 153.802 14.924 151.953 15.076V19.56H149.331V15.076C147.545 14.9113 146.164 14.354 145.189 13.404C144.226 12.454 143.745 11.257 143.745 9.813C143.745 8.331 144.194 7.12133 145.094 6.184C146.006 5.234 147.418 4.69567 149.331 4.569V0.559999H151.953V4.569ZM149.331 6.697C148.507 6.811 147.855 7.153 147.374 7.723C146.892 8.293 146.652 8.98967 146.652 9.813C146.652 10.6617 146.886 11.371 147.355 11.941C147.823 12.4983 148.482 12.8277 149.331 12.929V6.697ZM151.953 12.929C152.801 12.8277 153.454 12.4983 153.91 11.941C154.366 11.371 154.594 10.6617 154.594 9.813C154.594 8.98967 154.359 8.29933 153.891 7.742C153.422 7.172 152.776 6.83633 151.953 6.735V12.929ZM168.249 6.754H164.848V15H162.017V6.754H158.616V4.626H168.249V6.754ZM172.521 10.041V8.578H191.711V10.041H172.521ZM199.424 15.19C198.765 15.19 198.176 15.1393 197.657 15.038C197.15 14.9367 196.675 14.772 196.232 14.544V12.34C196.688 12.5427 197.169 12.72 197.676 12.872C198.195 13.0113 198.727 13.081 199.272 13.081C199.918 13.081 200.437 12.8973 200.83 12.53C201.223 12.1627 201.444 11.5547 201.495 10.706H197.581V8.825H201.495C201.406 7.29233 200.741 6.526 199.5 6.526C199.057 6.526 198.626 6.58933 198.208 6.716C197.803 6.83 197.429 6.963 197.087 7.115L196.289 5.177C196.694 4.99967 197.182 4.835 197.752 4.683C198.335 4.51833 198.955 4.436 199.614 4.436C200.526 4.436 201.343 4.59433 202.065 4.911C202.787 5.22767 203.357 5.766 203.775 6.526C204.206 7.286 204.421 8.34367 204.421 9.699C204.421 11.5737 203.984 12.9607 203.11 13.86C202.236 14.7467 201.007 15.19 199.424 15.19ZM215.155 6.754H211.754V15H208.923V6.754H205.522V4.626H215.155V6.754ZM226.307 9.794C226.307 11.5167 225.851 12.8467 224.939 13.784C224.04 14.7213 222.811 15.19 221.253 15.19C220.291 15.19 219.429 14.981 218.669 14.563C217.922 14.145 217.333 13.537 216.902 12.739C216.472 11.9283 216.256 10.9467 216.256 9.794C216.256 8.07133 216.706 6.74767 217.605 5.823C218.505 4.89833 219.74 4.436 221.31 4.436C222.286 4.436 223.147 4.645 223.894 5.063C224.642 5.481 225.231 6.089 225.661 6.887C226.092 7.67233 226.307 8.64133 226.307 9.794ZM219.144 9.794C219.144 10.82 219.309 11.599 219.638 12.131C219.98 12.6503 220.531 12.91 221.291 12.91C222.039 12.91 222.577 12.6503 222.906 12.131C223.248 11.599 223.419 10.82 223.419 9.794C223.419 8.768 223.248 8.00167 222.906 7.495C222.577 6.97567 222.032 6.716 221.272 6.716C220.525 6.716 219.98 6.97567 219.638 7.495C219.309 8.00167 219.144 8.768 219.144 9.794ZM240.255 4.626H243.371L239.267 9.604L243.732 15H240.521L236.284 9.737V15H233.453V4.626H236.284V9.661L240.255 4.626ZM249.472 4.417C250.866 4.417 251.93 4.721 252.664 5.329C253.412 5.92433 253.785 6.84267 253.785 8.084V15H251.809L251.258 13.594H251.182C250.739 14.1513 250.27 14.5567 249.776 14.81C249.282 15.0633 248.605 15.19 247.743 15.19C246.819 15.19 246.052 14.924 245.444 14.392C244.836 13.8473 244.532 13.0177 244.532 11.903C244.532 10.801 244.919 9.99033 245.691 9.471C246.464 8.939 247.623 8.64767 249.168 8.597L250.973 8.54V8.084C250.973 7.53933 250.828 7.14033 250.536 6.887C250.258 6.63367 249.865 6.507 249.358 6.507C248.852 6.507 248.358 6.583 247.876 6.735C247.395 6.87433 246.914 7.05167 246.432 7.267L245.501 5.348C246.059 5.05667 246.673 4.82867 247.344 4.664C248.028 4.49933 248.738 4.417 249.472 4.417ZM249.871 10.231C248.959 10.2563 248.326 10.421 247.971 10.725C247.617 11.029 247.439 11.428 247.439 11.922C247.439 12.3527 247.566 12.663 247.819 12.853C248.073 13.0303 248.402 13.119 248.807 13.119C249.415 13.119 249.928 12.9417 250.346 12.587C250.764 12.2197 250.973 11.7067 250.973 11.048V10.193L249.871 10.231ZM263.485 4.626H266.601L262.497 9.604L266.962 15H263.751L259.514 9.737V15H256.683V4.626H259.514V9.661L263.485 4.626ZM8.645 30.626V32.754H4.313V41H1.482V30.626H8.645ZM14.8112 30.417C16.2046 30.417 17.2686 30.721 18.0032 31.329C18.7506 31.9243 19.1242 32.8427 19.1242 34.084V41H17.1482L16.5972 39.594H16.5212C16.0779 40.1513 15.6092 40.5567 15.1152 40.81C14.6212 41.0633 13.9436 41.19 13.0822 41.19C12.1576 41.19 11.3912 40.924 10.7832 40.392C10.1752 39.8473 9.87124 39.0177 9.87124 37.903C9.87124 36.801 10.2576 35.9903 11.0302 35.471C11.8029 34.939 12.9619 34.6477 14.5072 34.597L16.3122 34.54V34.084C16.3122 33.5393 16.1666 33.1403 15.8752 32.887C15.5966 32.6337 15.2039 32.507 14.6972 32.507C14.1906 32.507 13.6966 32.583 13.2152 32.735C12.7339 32.8743 12.2526 33.0517 11.7712 33.267L10.8402 31.348C11.3976 31.0567 12.0119 30.8287 12.6832 30.664C13.3672 30.4993 14.0766 30.417 14.8112 30.417ZM15.2102 36.231C14.2982 36.2563 13.6649 36.421 13.3102 36.725C12.9556 37.029 12.7782 37.428 12.7782 37.922C12.7782 38.3527 12.9049 38.663 13.1582 38.853C13.4116 39.0303 13.7409 39.119 14.1462 39.119C14.7542 39.119 15.2672 38.9417 15.6852 38.587C16.1032 38.2197 16.3122 37.7067 16.3122 37.048V36.193L15.2102 36.231ZM27.798 30.436C28.9634 30.436 29.907 30.892 30.629 31.804C31.351 32.7033 31.712 34.0333 31.712 35.794C31.712 37.5547 31.3384 38.8973 30.591 39.822C29.8437 40.734 28.8874 41.19 27.722 41.19C26.9747 41.19 26.3794 41.057 25.936 40.791C25.4927 40.5123 25.1317 40.202 24.853 39.86H24.701C24.8024 40.392 24.853 40.8987 24.853 41.38V45.56H22.022V30.626H24.321L24.72 31.975H24.853C25.1317 31.557 25.5054 31.196 25.974 30.892C26.4427 30.588 27.0507 30.436 27.798 30.436ZM26.886 32.697C26.1514 32.697 25.632 32.925 25.328 33.381C25.0367 33.837 24.8784 34.5337 24.853 35.471V35.775C24.853 36.7757 24.9987 37.5483 25.29 38.093C25.594 38.625 26.1387 38.891 26.924 38.891C27.57 38.891 28.045 38.625 28.349 38.093C28.6657 37.5483 28.824 36.7693 28.824 35.756C28.824 33.7167 28.178 32.697 26.886 32.697ZM47.1175 30.626V41H44.4765V35.908C44.4765 35.4013 44.4828 34.9073 44.4955 34.426C44.5208 33.9447 44.5525 33.5013 44.5905 33.096H44.5335L41.6645 41H39.5365L36.6295 33.077H36.5535C36.6041 33.495 36.6358 33.9447 36.6485 34.426C36.6738 34.8947 36.6865 35.414 36.6865 35.984V41H34.0455V30.626H38.0545L40.6385 37.656L43.2605 30.626H47.1175ZM59.5007 35.794C59.5007 37.5167 59.0447 38.8467 58.1327 39.784C57.2334 40.7213 56.0047 41.19 54.4467 41.19C53.4841 41.19 52.6227 40.981 51.8627 40.563C51.1154 40.145 50.5264 39.537 50.0957 38.739C49.6651 37.9283 49.4497 36.9467 49.4497 35.794C49.4497 34.0713 49.8994 32.7477 50.7987 31.823C51.6981 30.8983 52.9331 30.436 54.5037 30.436C55.4791 30.436 56.3404 30.645 57.0877 31.063C57.8351 31.481 58.4241 32.089 58.8547 32.887C59.2854 33.6723 59.5007 34.6413 59.5007 35.794ZM52.3377 35.794C52.3377 36.82 52.5024 37.599 52.8317 38.131C53.1737 38.6503 53.7247 38.91 54.4847 38.91C55.2321 38.91 55.7704 38.6503 56.0997 38.131C56.4417 37.599 56.6127 36.82 56.6127 35.794C56.6127 34.768 56.4417 34.0017 56.0997 33.495C55.7704 32.9757 55.2257 32.716 54.4657 32.716C53.7184 32.716 53.1737 32.9757 52.8317 33.495C52.5024 34.0017 52.3377 34.768 52.3377 35.794ZM64.6714 30.626V34.616H68.6234V30.626H71.4544V41H68.6234V36.725H64.6714V41H61.8404V30.626H64.6714ZM77.1565 34.73C77.1565 34.9453 77.1438 35.2113 77.1185 35.528C77.1058 35.8447 77.0868 36.1677 77.0615 36.497C77.0488 36.8263 77.0298 37.1177 77.0045 37.371C76.9791 37.6243 76.9601 37.8017 76.9475 37.903L81.7355 30.626H85.1365V41H82.4005V36.858C82.4005 36.516 82.4131 36.1423 82.4385 35.737C82.4638 35.319 82.4891 34.9327 82.5145 34.578C82.5525 34.2107 82.5778 33.932 82.5905 33.742L77.8215 41H74.4205V30.626H77.1565V34.73ZM90.5843 34.426C90.5843 35.3253 91.0023 35.775 91.8383 35.775C92.3829 35.775 92.8896 35.718 93.3583 35.604C93.8269 35.4773 94.2956 35.3127 94.7643 35.11V30.626H97.5953V41H94.7643V36.877C94.3209 37.1177 93.8143 37.3393 93.2443 37.542C92.6743 37.732 92.0283 37.827 91.3063 37.827C90.2296 37.827 89.3683 37.5483 88.7223 36.991C88.0763 36.4337 87.7533 35.5977 87.7533 34.483V30.626H90.5843V34.426ZM103.395 30.626V34.616H107.347V30.626H110.178V41H107.347V36.725H103.395V41H100.564V30.626H103.395ZM122.568 35.794C122.568 37.5167 122.112 38.8467 121.2 39.784C120.301 40.7213 119.072 41.19 117.514 41.19C116.551 41.19 115.69 40.981 114.93 40.563C114.183 40.145 113.594 39.537 113.163 38.739C112.732 37.9283 112.517 36.9467 112.517 35.794C112.517 34.0713 112.967 32.7477 113.866 31.823C114.765 30.8983 116 30.436 117.571 30.436C118.546 30.436 119.408 30.645 120.155 31.063C120.902 31.481 121.491 32.089 121.922 32.887C122.353 33.6723 122.568 34.6413 122.568 35.794ZM115.405 35.794C115.405 36.82 115.57 37.599 115.899 38.131C116.241 38.6503 116.792 38.91 117.552 38.91C118.299 38.91 118.838 38.6503 119.167 38.131C119.509 37.599 119.68 36.82 119.68 35.794C119.68 34.768 119.509 34.0017 119.167 33.495C118.838 32.9757 118.293 32.716 117.533 32.716C116.786 32.716 116.241 32.9757 115.899 33.495C115.57 34.0017 115.405 34.768 115.405 35.794ZM129.183 30.436C130.614 30.436 131.748 30.8477 132.584 31.671C133.42 32.4817 133.838 33.6407 133.838 35.148V36.516H127.15C127.175 37.314 127.409 37.941 127.853 38.397C128.309 38.853 128.936 39.081 129.734 39.081C130.405 39.081 131.013 39.0177 131.558 38.891C132.102 38.7517 132.666 38.5427 133.249 38.264V40.449C132.742 40.7023 132.204 40.886 131.634 41C131.076 41.1267 130.399 41.19 129.601 41.19C128.562 41.19 127.644 41 126.846 40.62C126.048 40.2273 125.421 39.6383 124.965 38.853C124.509 38.0677 124.281 37.0797 124.281 35.889C124.281 34.673 124.483 33.666 124.889 32.868C125.307 32.0573 125.883 31.4493 126.618 31.044C127.352 30.6387 128.207 30.436 129.183 30.436ZM129.202 32.45C128.657 32.45 128.201 32.6273 127.834 32.982C127.479 33.3367 127.27 33.8877 127.207 34.635H131.178C131.165 34.0017 131 33.4823 130.684 33.077C130.367 32.659 129.873 32.45 129.202 32.45ZM145.157 41.19C143.612 41.19 142.415 40.7657 141.566 39.917C140.73 39.0557 140.312 37.7067 140.312 35.87C140.312 34.6033 140.527 33.571 140.958 32.773C141.389 31.975 141.984 31.386 142.744 31.006C143.517 30.626 144.403 30.436 145.404 30.436C146.113 30.436 146.728 30.5057 147.247 30.645C147.779 30.7843 148.241 30.949 148.634 31.139L147.798 33.324C147.355 33.1467 146.937 33.001 146.544 32.887C146.164 32.773 145.784 32.716 145.404 32.716C143.935 32.716 143.2 33.761 143.2 35.851C143.2 36.8897 143.39 37.656 143.77 38.15C144.163 38.644 144.707 38.891 145.404 38.891C145.999 38.891 146.525 38.815 146.981 38.663C147.437 38.4983 147.88 38.2767 148.311 37.998V40.411C147.88 40.6897 147.424 40.886 146.943 41C146.474 41.1267 145.879 41.19 145.157 41.19ZM160.123 35.794C160.123 37.5167 159.667 38.8467 158.755 39.784C157.855 40.7213 156.627 41.19 155.069 41.19C154.106 41.19 153.245 40.981 152.485 40.563C151.737 40.145 151.148 39.537 150.718 38.739C150.287 37.9283 150.072 36.9467 150.072 35.794C150.072 34.0713 150.521 32.7477 151.421 31.823C152.32 30.8983 153.555 30.436 155.126 30.436C156.101 30.436 156.962 30.645 157.71 31.063C158.457 31.481 159.046 32.089 159.477 32.887C159.907 33.6723 160.123 34.6413 160.123 35.794ZM152.96 35.794C152.96 36.82 153.124 37.599 153.454 38.131C153.796 38.6503 154.347 38.91 155.107 38.91C155.854 38.91 156.392 38.6503 156.722 38.131C157.064 37.599 157.235 36.82 157.235 35.794C157.235 34.768 157.064 34.0017 156.722 33.495C156.392 32.9757 155.848 32.716 155.088 32.716C154.34 32.716 153.796 32.9757 153.454 33.495C153.124 34.0017 152.96 34.768 152.96 35.794ZM171.886 35.794C171.886 37.5167 171.43 38.8467 170.518 39.784C169.619 40.7213 168.39 41.19 166.832 41.19C165.87 41.19 165.008 40.981 164.248 40.563C163.501 40.145 162.912 39.537 162.481 38.739C162.051 37.9283 161.835 36.9467 161.835 35.794C161.835 34.0713 162.285 32.7477 163.184 31.823C164.084 30.8983 165.319 30.436 166.889 30.436C167.865 30.436 168.726 30.645 169.473 31.063C170.221 31.481 170.81 32.089 171.24 32.887C171.671 33.6723 171.886 34.6413 171.886 35.794ZM164.723 35.794C164.723 36.82 164.888 37.599 165.217 38.131C165.559 38.6503 166.11 38.91 166.87 38.91C167.618 38.91 168.156 38.6503 168.485 38.131C168.827 37.599 168.998 36.82 168.998 35.794C168.998 34.768 168.827 34.0017 168.485 33.495C168.156 32.9757 167.611 32.716 166.851 32.716C166.104 32.716 165.559 32.9757 165.217 33.495C164.888 34.0017 164.723 34.768 164.723 35.794ZM173.599 34.787C173.599 32.4943 174.03 30.7147 174.891 29.448C175.765 28.1813 177.203 27.3707 179.204 27.016C179.875 26.902 180.553 26.807 181.237 26.731C181.934 26.6423 182.649 26.5537 183.384 26.465L183.707 28.935C183.276 28.9857 182.801 29.0427 182.282 29.106C181.775 29.1693 181.269 29.2327 180.762 29.296C180.268 29.3467 179.825 29.4037 179.432 29.467C178.799 29.5683 178.273 29.7267 177.855 29.942C177.437 30.1447 177.114 30.474 176.886 30.93C176.671 31.386 176.538 32.0447 176.487 32.906H176.62C176.772 32.6653 176.981 32.4247 177.247 32.184C177.526 31.9433 177.868 31.7407 178.273 31.576C178.678 31.4113 179.141 31.329 179.66 31.329C180.901 31.329 181.883 31.709 182.605 32.469C183.34 33.229 183.707 34.3627 183.707 35.87C183.707 37.048 183.492 38.0297 183.061 38.815C182.63 39.6003 182.035 40.1957 181.275 40.601C180.515 40.9937 179.635 41.19 178.634 41.19C177.101 41.19 175.879 40.639 174.967 39.537C174.055 38.435 173.599 36.8517 173.599 34.787ZM178.805 38.891C179.4 38.891 179.882 38.6883 180.249 38.283C180.629 37.8777 180.819 37.1557 180.819 36.117C180.819 35.2937 180.68 34.6413 180.401 34.16C180.135 33.666 179.666 33.419 178.995 33.419C178.59 33.419 178.21 33.5203 177.855 33.723C177.513 33.913 177.222 34.1347 176.981 34.388C176.74 34.6287 176.576 34.8377 176.487 35.015C176.487 35.661 176.557 36.2817 176.696 36.877C176.835 37.4723 177.07 37.96 177.399 38.34C177.741 38.7073 178.21 38.891 178.805 38.891ZM201.492 30.626V38.929H203.012V44.724H200.466V41H186.045V30.626H188.876V38.872H192.353V30.626H195.184V38.872H198.661V30.626H201.492ZM209.042 30.436C210.473 30.436 211.607 30.8477 212.443 31.671C213.279 32.4817 213.697 33.6407 213.697 35.148V36.516H207.009C207.034 37.314 207.269 37.941 207.712 38.397C208.168 38.853 208.795 39.081 209.593 39.081C210.264 39.081 210.872 39.0177 211.417 38.891C211.962 38.7517 212.525 38.5427 213.108 38.264V40.449C212.601 40.7023 212.063 40.886 211.493 41C210.936 41.1267 210.258 41.19 209.46 41.19C208.421 41.19 207.503 41 206.705 40.62C205.907 40.2273 205.28 39.6383 204.824 38.853C204.368 38.0677 204.14 37.0797 204.14 35.889C204.14 34.673 204.343 33.666 204.748 32.868C205.166 32.0573 205.742 31.4493 206.477 31.044C207.212 30.6387 208.067 30.436 209.042 30.436ZM209.061 32.45C208.516 32.45 208.06 32.6273 207.693 32.982C207.338 33.3367 207.129 33.8877 207.066 34.635H211.037C211.024 34.0017 210.86 33.4823 210.543 33.077C210.226 32.659 209.732 32.45 209.061 32.45ZM220.211 41.19C218.665 41.19 217.468 40.7657 216.62 39.917C215.784 39.0557 215.366 37.7067 215.366 35.87C215.366 34.6033 215.581 33.571 216.012 32.773C216.442 31.975 217.038 31.386 217.798 31.006C218.57 30.626 219.457 30.436 220.458 30.436C221.167 30.436 221.781 30.5057 222.301 30.645C222.833 30.7843 223.295 30.949 223.688 31.139L222.852 33.324C222.408 33.1467 221.99 33.001 221.598 32.887C221.218 32.773 220.838 32.716 220.458 32.716C218.988 32.716 218.254 33.761 218.254 35.851C218.254 36.8897 218.444 37.656 218.824 38.15C219.216 38.644 219.761 38.891 220.458 38.891C221.053 38.891 221.579 38.815 222.035 38.663C222.491 38.4983 222.934 38.2767 223.365 37.998V40.411C222.934 40.6897 222.478 40.886 221.997 41C221.528 41.1267 220.933 41.19 220.211 41.19ZM234.341 32.754H230.94V41H228.109V32.754H224.708V30.626H234.341V32.754ZM245.45 33.343C245.45 33.9003 245.273 34.3753 244.918 34.768C244.576 35.1607 244.063 35.414 243.379 35.528V35.604C244.101 35.6927 244.678 35.9397 245.108 36.345C245.552 36.7503 245.773 37.2697 245.773 37.903C245.773 38.4983 245.615 39.0303 245.298 39.499C244.994 39.9677 244.507 40.335 243.835 40.601C243.164 40.867 242.284 41 241.194 41H236.254V30.626H241.194C242.005 30.626 242.727 30.7147 243.36 30.892C244.006 31.0567 244.513 31.3353 244.88 31.728C245.26 32.1207 245.45 32.659 245.45 33.343ZM242.581 33.571C242.581 32.9377 242.081 32.621 241.08 32.621H239.085V34.673H240.757C241.353 34.673 241.802 34.5907 242.106 34.426C242.423 34.2487 242.581 33.9637 242.581 33.571ZM242.847 37.751C242.847 37.3457 242.689 37.0543 242.372 36.877C242.056 36.687 241.581 36.592 240.947 36.592H239.085V39.043H241.004C241.536 39.043 241.973 38.948 242.315 38.758C242.67 38.5553 242.847 38.2197 242.847 37.751ZM257.628 35.794C257.628 37.5167 257.172 38.8467 256.26 39.784C255.36 40.7213 254.132 41.19 252.574 41.19C251.611 41.19 250.75 40.981 249.99 40.563C249.242 40.145 248.653 39.537 248.223 38.739C247.792 37.9283 247.577 36.9467 247.577 35.794C247.577 34.0713 248.026 32.7477 248.926 31.823C249.825 30.8983 251.06 30.436 252.631 30.436C253.606 30.436 254.467 30.645 255.215 31.063C255.962 31.481 256.551 32.089 256.982 32.887C257.412 33.6723 257.628 34.6413 257.628 35.794ZM250.465 35.794C250.465 36.82 250.629 37.599 250.959 38.131C251.301 38.6503 251.852 38.91 252.612 38.91C253.359 38.91 253.897 38.6503 254.227 38.131C254.569 37.599 254.74 36.82 254.74 35.794C254.74 34.768 254.569 34.0017 254.227 33.495C253.897 32.9757 253.353 32.716 252.593 32.716C251.845 32.716 251.301 32.9757 250.959 33.495C250.629 34.0017 250.465 34.768 250.465 35.794ZM10.773 67H7.942V58.754H5.339C5.17433 60.7807 4.95267 62.4147 4.674 63.656C4.408 64.8847 4.03433 65.784 3.553 66.354C3.07167 66.9113 2.42567 67.19 1.615 67.19C0.956333 67.19 0.418 67.0887 0 66.886V64.625C0.291333 64.7517 0.595333 64.815 0.912 64.815C1.14 64.815 1.349 64.701 1.539 64.473C1.729 64.245 1.90633 63.8333 2.071 63.238C2.24833 62.6427 2.40667 61.813 2.546 60.749C2.68533 59.6723 2.812 58.298 2.926 56.626H10.773V67ZM28.0541 61.794C28.0541 63.5167 27.6171 64.8467 26.7431 65.784C25.8818 66.7213 24.6974 67.19 23.1901 67.19C21.9108 67.19 20.8404 66.829 19.9791 66.107C19.1178 65.3723 18.5984 64.245 18.4211 62.725H16.5591V67H13.7281V56.626H16.5591V60.616H18.4591C18.6491 59.2607 19.1684 58.2283 20.0171 57.519C20.8658 56.797 21.9424 56.436 23.2471 56.436C24.1844 56.436 25.0141 56.645 25.7361 57.063C26.4581 57.481 27.0218 58.089 27.4271 58.887C27.8451 59.6723 28.0541 60.6413 28.0541 61.794ZM21.2711 61.794C21.2711 62.82 21.4231 63.599 21.7271 64.131C22.0311 64.6503 22.5314 64.91 23.2281 64.91C23.9121 64.91 24.4061 64.6503 24.7101 64.131C25.0141 63.599 25.1661 62.82 25.1661 61.794C25.1661 60.768 25.0141 60.0017 24.7101 59.495C24.4061 58.9757 23.9058 58.716 23.2091 58.716C22.5251 58.716 22.0311 58.9757 21.7271 59.495C21.4231 60.0017 21.2711 60.768 21.2711 61.794ZM39.7192 56.626V64.929H41.2392V70.724H38.6932V67H31.7202V70.724H29.1742V64.929H30.0482C30.5042 64.2323 30.8905 63.4407 31.2072 62.554C31.5239 61.6547 31.7772 60.6983 31.9672 59.685C32.1572 58.6717 32.2965 57.652 32.3852 56.626H39.7192ZM34.7602 58.754C34.6082 59.9067 34.3992 61.0023 34.1332 62.041C33.8672 63.067 33.4935 64.0297 33.0122 64.929H36.8882V58.754H34.7602ZM47.2824 56.436C48.7137 56.436 49.8474 56.8477 50.6834 57.671C51.5194 58.4817 51.9374 59.6407 51.9374 61.148V62.516H45.2494C45.2747 63.314 45.5091 63.941 45.9524 64.397C46.4084 64.853 47.0354 65.081 47.8334 65.081C48.5047 65.081 49.1127 65.0177 49.6574 64.891C50.2021 64.7517 50.7657 64.5427 51.3484 64.264V66.449C50.8417 66.7023 50.3034 66.886 49.7334 67C49.1761 67.1267 48.4984 67.19 47.7004 67.19C46.6617 67.19 45.7434 67 44.9454 66.62C44.1474 66.2273 43.5204 65.6383 43.0644 64.853C42.6084 64.0677 42.3804 63.0797 42.3804 61.889C42.3804 60.673 42.5831 59.666 42.9884 58.868C43.4064 58.0573 43.9827 57.4493 44.7174 57.044C45.4521 56.6387 46.3071 56.436 47.2824 56.436ZM47.3014 58.45C46.7567 58.45 46.3007 58.6273 45.9334 58.982C45.5787 59.3367 45.3697 59.8877 45.3064 60.635H49.2774C49.2647 60.0017 49.1001 59.4823 48.7834 59.077C48.4667 58.659 47.9727 58.45 47.3014 58.45ZM64.17 52.161C64.1066 52.8197 63.923 53.4023 63.619 53.909C63.315 54.403 62.84 54.7893 62.194 55.068C61.548 55.3467 60.6803 55.486 59.591 55.486C58.4763 55.486 57.6023 55.353 56.969 55.087C56.3483 54.8083 55.905 54.422 55.639 53.928C55.373 53.434 55.2146 52.845 55.164 52.161H57.691C57.7543 52.8577 57.9316 53.32 58.223 53.548C58.5143 53.776 58.9893 53.89 59.648 53.89C60.1926 53.89 60.636 53.7697 60.978 53.529C61.3326 53.2757 61.5416 52.8197 61.605 52.161H64.17ZM56.969 60.73C56.969 60.9453 56.9563 61.2113 56.931 61.528C56.9183 61.8447 56.8993 62.1677 56.874 62.497C56.8613 62.8263 56.8423 63.1177 56.817 63.371C56.7916 63.6243 56.7726 63.8017 56.76 63.903L61.548 56.626H64.949V67H62.213V62.858C62.213 62.516 62.2256 62.1423 62.251 61.737C62.2763 61.319 62.3016 60.9327 62.327 60.578C62.365 60.2107 62.3903 59.932 62.403 59.742L57.634 67H54.233V56.626H56.969V60.73ZM67.7748 69.869L69.1808 64.53H71.4988L69.0668 69.869H67.7748ZM85.9067 56.626V58.754H81.5747V67H78.7437V56.626H85.9067ZM96.5708 56.626V64.929H98.0908V70.724H95.5448V67H88.5718V70.724H86.0258V64.929H86.8998C87.3558 64.2323 87.7421 63.4407 88.0588 62.554C88.3754 61.6547 88.6288 60.6983 88.8188 59.685C89.0088 58.6717 89.1481 57.652 89.2368 56.626H96.5708ZM91.6118 58.754C91.4598 59.9067 91.2508 61.0023 90.9848 62.041C90.7188 63.067 90.3451 64.0297 89.8638 64.929H93.7398V58.754H91.6118ZM104.134 56.436C105.565 56.436 106.699 56.8477 107.535 57.671C108.371 58.4817 108.789 59.6407 108.789 61.148V62.516H102.101C102.126 63.314 102.361 63.941 102.804 64.397C103.26 64.853 103.887 65.081 104.685 65.081C105.356 65.081 105.964 65.0177 106.509 64.891C107.054 64.7517 107.617 64.5427 108.2 64.264V66.449C107.693 66.7023 107.155 66.886 106.585 67C106.028 67.1267 105.35 67.19 104.552 67.19C103.513 67.19 102.595 67 101.797 66.62C100.999 66.2273 100.372 65.6383 99.916 64.853C99.46 64.0677 99.232 63.0797 99.232 61.889C99.232 60.673 99.4346 59.666 99.84 58.868C100.258 58.0573 100.834 57.4493 101.569 57.044C102.304 56.6387 103.159 56.436 104.134 56.436ZM104.153 58.45C103.608 58.45 103.152 58.6273 102.785 58.982C102.43 59.3367 102.221 59.8877 102.158 60.635H106.129C106.116 60.0017 105.952 59.4823 105.635 59.077C105.318 58.659 104.824 58.45 104.153 58.45ZM118.721 56.626V60.616H122.673V56.626H125.504V67H122.673V62.725H118.721V67H115.89V56.626H118.721ZM131.206 60.73C131.206 60.9453 131.194 61.2113 131.168 61.528C131.156 61.8447 131.137 62.1677 131.111 62.497C131.099 62.8263 131.08 63.1177 131.054 63.371C131.029 63.6243 131.01 63.8017 130.997 63.903L135.785 56.626H139.186V67H136.45V62.858C136.45 62.516 136.463 62.1423 136.488 61.737C136.514 61.319 136.539 60.9327 136.564 60.578C136.602 60.2107 136.628 59.932 136.64 59.742L131.871 67H128.47V56.626H131.206V60.73ZM148.947 56.626H152.063L147.959 61.604L152.424 67H149.213L144.976 61.737V67H142.145V56.626H144.976V61.661L148.947 56.626ZM162.497 58.754H159.096V67H156.265V58.754H152.864V56.626H162.497V58.754ZM173.649 61.794C173.649 63.5167 173.193 64.8467 172.281 65.784C171.382 66.7213 170.153 67.19 168.595 67.19C167.632 67.19 166.771 66.981 166.011 66.563C165.264 66.145 164.675 65.537 164.244 64.739C163.813 63.9283 163.598 62.9467 163.598 61.794C163.598 60.0713 164.048 58.7477 164.947 57.823C165.846 56.8983 167.081 56.436 168.652 56.436C169.627 56.436 170.489 56.645 171.236 57.063C171.983 57.481 172.572 58.089 173.003 58.887C173.434 59.6723 173.649 60.6413 173.649 61.794ZM166.486 61.794C166.486 62.82 166.651 63.599 166.98 64.131C167.322 64.6503 167.873 64.91 168.633 64.91C169.38 64.91 169.919 64.6503 170.248 64.131C170.59 63.599 170.761 62.82 170.761 61.794C170.761 60.768 170.59 60.0017 170.248 59.495C169.919 58.9757 169.374 58.716 168.614 58.716C167.867 58.716 167.322 58.9757 166.98 59.495C166.651 60.0017 166.486 60.768 166.486 61.794ZM183.626 56.626V60.616H187.578V56.626H190.409V67H187.578V62.725H183.626V67H180.795V56.626H183.626ZM197.65 56.436C199.081 56.436 200.215 56.8477 201.051 57.671C201.887 58.4817 202.305 59.6407 202.305 61.148V62.516H195.617C195.642 63.314 195.876 63.941 196.32 64.397C196.776 64.853 197.403 65.081 198.201 65.081C198.872 65.081 199.48 65.0177 200.025 64.891C200.569 64.7517 201.133 64.5427 201.716 64.264V66.449C201.209 66.7023 200.671 66.886 200.101 67C199.543 67.1267 198.866 67.19 198.068 67.19C197.029 67.19 196.111 67 195.313 66.62C194.515 66.2273 193.888 65.6383 193.432 64.853C192.976 64.0677 192.748 63.0797 192.748 61.889C192.748 60.673 192.95 59.666 193.356 58.868C193.774 58.0573 194.35 57.4493 195.085 57.044C195.819 56.6387 196.674 56.436 197.65 56.436ZM197.669 58.45C197.124 58.45 196.668 58.6273 196.301 58.982C195.946 59.3367 195.737 59.8877 195.674 60.635H199.645C199.632 60.0017 199.467 59.4823 199.151 59.077C198.834 58.659 198.34 58.45 197.669 58.45ZM218.602 59.343C218.602 59.9003 218.424 60.3753 218.07 60.768C217.728 61.1607 217.215 61.414 216.531 61.528V61.604C217.253 61.6927 217.829 61.9397 218.26 62.345C218.703 62.7503 218.925 63.2697 218.925 63.903C218.925 64.4983 218.766 65.0303 218.45 65.499C218.146 65.9677 217.658 66.335 216.987 66.601C216.315 66.867 215.435 67 214.346 67H209.406V56.626H214.346C215.156 56.626 215.878 56.7147 216.512 56.892C217.158 57.0567 217.664 57.3353 218.032 57.728C218.412 58.1207 218.602 58.659 218.602 59.343ZM215.733 59.571C215.733 58.9377 215.232 58.621 214.232 58.621H212.237V60.673H213.909C214.504 60.673 214.954 60.5907 215.258 60.426C215.574 60.2487 215.733 59.9637 215.733 59.571ZM215.999 63.751C215.999 63.3457 215.84 63.0543 215.524 62.877C215.207 62.687 214.732 62.592 214.099 62.592H212.237V65.043H214.156C214.688 65.043 215.125 64.948 215.467 64.758C215.821 64.5553 215.999 64.2197 215.999 63.751ZM225.63 56.436C227.061 56.436 228.195 56.8477 229.031 57.671C229.867 58.4817 230.285 59.6407 230.285 61.148V62.516H223.597C223.622 63.314 223.857 63.941 224.3 64.397C224.756 64.853 225.383 65.081 226.181 65.081C226.852 65.081 227.46 65.0177 228.005 64.891C228.55 64.7517 229.113 64.5427 229.696 64.264V66.449C229.189 66.7023 228.651 66.886 228.081 67C227.524 67.1267 226.846 67.19 226.048 67.19C225.009 67.19 224.091 67 223.293 66.62C222.495 66.2273 221.868 65.6383 221.412 64.853C220.956 64.0677 220.728 63.0797 220.728 61.889C220.728 60.673 220.931 59.666 221.336 58.868C221.754 58.0573 222.33 57.4493 223.065 57.044C223.8 56.6387 224.655 56.436 225.63 56.436ZM225.649 58.45C225.104 58.45 224.648 58.6273 224.281 58.982C223.926 59.3367 223.717 59.8877 223.654 60.635H227.625C227.612 60.0017 227.448 59.4823 227.131 59.077C226.814 58.659 226.32 58.45 225.649 58.45ZM241.91 56.626V64.929H243.43V70.724H240.884V67H233.911V70.724H231.365V64.929H232.239C232.695 64.2323 233.081 63.4407 233.398 62.554C233.714 61.6547 233.968 60.6983 234.158 59.685C234.348 58.6717 234.487 57.652 234.576 56.626H241.91ZM236.951 58.754C236.799 59.9067 236.59 61.0023 236.324 62.041C236.058 63.067 235.684 64.0297 235.203 64.929H239.079V58.754H236.951ZM249.473 56.436C250.904 56.436 252.038 56.8477 252.874 57.671C253.71 58.4817 254.128 59.6407 254.128 61.148V62.516H247.44C247.465 63.314 247.699 63.941 248.143 64.397C248.599 64.853 249.226 65.081 250.024 65.081C250.695 65.081 251.303 65.0177 251.848 64.891C252.392 64.7517 252.956 64.5427 253.539 64.264V66.449C253.032 66.7023 252.494 66.886 251.924 67C251.366 67.1267 250.689 67.19 249.891 67.19C248.852 67.19 247.934 67 247.136 66.62C246.338 66.2273 245.711 65.6383 245.255 64.853C244.799 64.0677 244.571 63.0797 244.571 61.889C244.571 60.673 244.773 59.666 245.179 58.868C245.597 58.0573 246.173 57.4493 246.908 57.044C247.642 56.6387 248.497 56.436 249.473 56.436ZM249.492 58.45C248.947 58.45 248.491 58.6273 248.124 58.982C247.769 59.3367 247.56 59.8877 247.497 60.635H251.468C251.455 60.0017 251.29 59.4823 250.974 59.077C250.657 58.659 250.163 58.45 249.492 58.45ZM265.011 58.754H261.61V67H258.779V58.754H255.378V56.626H265.011V58.754ZM5.7 93.19C4.15467 93.19 2.95767 92.7657 2.109 91.917C1.273 91.0557 0.855 89.7067 0.855 87.87C0.855 86.6033 1.07033 85.571 1.501 84.773C1.93167 83.975 2.527 83.386 3.287 83.006C4.05967 82.626 4.94633 82.436 5.947 82.436C6.65633 82.436 7.27067 82.5057 7.79 82.645C8.322 82.7843 8.78433 82.949 9.177 83.139L8.341 85.324C7.89767 85.1467 7.47967 85.001 7.087 84.887C6.707 84.773 6.327 84.716 5.947 84.716C4.47767 84.716 3.743 85.761 3.743 87.851C3.743 88.8897 3.933 89.656 4.313 90.15C4.70567 90.644 5.25033 90.891 5.947 90.891C6.54233 90.891 7.068 90.815 7.524 90.663C7.98 90.4983 8.42333 90.2767 8.854 89.998V92.411C8.42333 92.6897 7.96733 92.886 7.486 93C7.01733 93.1267 6.422 93.19 5.7 93.19ZM15.5168 82.436C16.9481 82.436 18.0818 82.8477 18.9178 83.671C19.7538 84.4817 20.1718 85.6407 20.1718 87.148V88.516H13.4838C13.5091 89.314 13.7434 89.941 14.1868 90.397C14.6428 90.853 15.2698 91.081 16.0678 91.081C16.7391 91.081 17.3471 91.0177 17.8918 90.891C18.4364 90.7517 19.0001 90.5427 19.5828 90.264V92.449C19.0761 92.7023 18.5378 92.886 17.9678 93C17.4104 93.1267 16.7328 93.19 15.9348 93.19C14.8961 93.19 13.9778 93 13.1798 92.62C12.3818 92.2273 11.7548 91.6383 11.2988 90.853C10.8428 90.0677 10.6148 89.0797 10.6148 87.889C10.6148 86.673 10.8174 85.666 11.2228 84.868C11.6408 84.0573 12.2171 83.4493 12.9518 83.044C13.6864 82.6387 14.5414 82.436 15.5168 82.436ZM15.5358 84.45C14.9911 84.45 14.5351 84.6273 14.1678 84.982C13.8131 85.3367 13.6041 85.8877 13.5408 86.635H17.5118C17.4991 86.0017 17.3344 85.4823 17.0178 85.077C16.7011 84.659 16.2071 84.45 15.5358 84.45ZM21.8404 86.787C21.8404 84.4943 22.271 82.7147 23.1324 81.448C24.0064 80.1813 25.444 79.3707 27.4454 79.016C28.1167 78.902 28.7944 78.807 29.4784 78.731C30.175 78.6423 30.8907 78.5537 31.6254 78.465L31.9484 80.935C31.5177 80.9857 31.0427 81.0427 30.5234 81.106C30.0167 81.1693 29.51 81.2327 29.0034 81.296C28.5094 81.3467 28.066 81.4037 27.6734 81.467C27.04 81.5683 26.5144 81.7267 26.0964 81.942C25.6784 82.1447 25.3554 82.474 25.1274 82.93C24.912 83.386 24.779 84.0447 24.7284 84.906H24.8614C25.0134 84.6653 25.2224 84.4247 25.4884 84.184C25.767 83.9433 26.109 83.7407 26.5144 83.576C26.9197 83.4113 27.382 83.329 27.9014 83.329C29.1427 83.329 30.1244 83.709 30.8464 84.469C31.581 85.229 31.9484 86.3627 31.9484 87.87C31.9484 89.048 31.733 90.0297 31.3024 90.815C30.8717 91.6003 30.2764 92.1957 29.5164 92.601C28.7564 92.9937 27.876 93.19 26.8754 93.19C25.3427 93.19 24.1204 92.639 23.2084 91.537C22.2964 90.435 21.8404 88.8517 21.8404 86.787ZM27.0464 90.891C27.6417 90.891 28.123 90.6883 28.4904 90.283C28.8704 89.8777 29.0604 89.1557 29.0604 88.117C29.0604 87.2937 28.921 86.6413 28.6424 86.16C28.3764 85.666 27.9077 85.419 27.2364 85.419C26.831 85.419 26.451 85.5203 26.0964 85.723C25.7544 85.913 25.463 86.1347 25.2224 86.388C24.9817 86.6287 24.817 86.8377 24.7284 87.015C24.7284 87.661 24.798 88.2817 24.9374 88.877C25.0767 89.4723 25.311 89.96 25.6404 90.34C25.9824 90.7073 26.451 90.891 27.0464 90.891ZM35.8637 93H32.8047L35.5977 88.896C35.0657 88.6807 34.5907 88.3323 34.1727 87.851C33.7674 87.357 33.5647 86.6857 33.5647 85.837C33.5647 84.7983 33.9574 84.0067 34.7427 83.462C35.528 82.9047 36.535 82.626 37.7637 82.626H42.5897V93H39.7587V89.143H38.2007L35.8637 93ZM36.3387 85.856C36.3387 86.2867 36.5097 86.6287 36.8517 86.882C37.1937 87.1227 37.637 87.243 38.1817 87.243H39.7587V84.621H37.8207C37.314 84.621 36.9404 84.7477 36.6997 85.001C36.459 85.2417 36.3387 85.5267 36.3387 85.856ZM59.551 85.343C59.551 85.9003 59.3737 86.3753 59.019 86.768C58.677 87.1607 58.164 87.414 57.48 87.528V87.604C58.202 87.6927 58.7784 87.9397 59.209 88.345C59.6524 88.7503 59.874 89.2697 59.874 89.903C59.874 90.4983 59.7157 91.0303 59.399 91.499C59.095 91.9677 58.6074 92.335 57.936 92.601C57.2647 92.867 56.3844 93 55.295 93H50.355V82.626H55.295C56.1057 82.626 56.8277 82.7147 57.461 82.892C58.107 83.0567 58.6137 83.3353 58.981 83.728C59.361 84.1207 59.551 84.659 59.551 85.343ZM56.682 85.571C56.682 84.9377 56.1817 84.621 55.181 84.621H53.186V86.673H54.858C55.4534 86.673 55.903 86.5907 56.207 86.426C56.5237 86.2487 56.682 85.9637 56.682 85.571ZM56.948 89.751C56.948 89.3457 56.7897 89.0543 56.473 88.877C56.1564 88.687 55.6814 88.592 55.048 88.592H53.186V91.043H55.105C55.637 91.043 56.074 90.948 56.416 90.758C56.7707 90.5553 56.948 90.2197 56.948 89.751ZM62.3043 93V82.626H65.1353V86.635H66.5033C68.0866 86.635 69.2583 86.8883 70.0183 87.395C70.7783 87.9017 71.1583 88.668 71.1583 89.694C71.1583 90.6947 70.8036 91.499 70.0943 92.107C69.3849 92.7023 68.2196 93 66.5983 93H62.3043ZM72.6593 93V82.626H75.4903V93H72.6593ZM66.4463 91.043C67.0036 91.043 67.4533 90.9417 67.7953 90.739C68.1499 90.5363 68.3273 90.2007 68.3273 89.732C68.3273 88.972 67.6876 88.592 66.4083 88.592H65.1353V91.043H66.4463ZM82.2278 82.436C82.9752 82.436 83.6718 82.5373 84.3178 82.74C84.9765 82.93 85.5022 83.2277 85.8948 83.633C86.3002 84.0383 86.5028 84.5577 86.5028 85.191C86.5028 85.8117 86.3128 86.3057 85.9328 86.673C85.5655 87.0403 85.0652 87.3063 84.4318 87.471V87.566C84.8752 87.6673 85.2742 87.813 85.6288 88.003C85.9835 88.1803 86.2622 88.4273 86.4648 88.744C86.6802 89.048 86.7878 89.4597 86.7878 89.979C86.7878 90.549 86.6042 91.081 86.2368 91.575C85.8822 92.0563 85.3248 92.449 84.5648 92.753C83.8175 93.0443 82.8548 93.19 81.6768 93.19C79.9542 93.19 78.6242 92.9747 77.6868 92.544V90.207C78.1175 90.4097 78.6432 90.5933 79.2638 90.758C79.8972 90.9227 80.5685 91.005 81.2778 91.005C82.0505 91.005 82.7028 90.9163 83.2348 90.739C83.7668 90.5617 84.0328 90.2513 84.0328 89.808C84.0328 88.9847 83.0512 88.573 81.0878 88.573H79.9858V86.616H81.0308C81.9682 86.616 82.6902 86.54 83.1968 86.388C83.7162 86.236 83.9758 85.951 83.9758 85.533C83.9758 85.2037 83.8112 84.9567 83.4818 84.792C83.1525 84.6147 82.6142 84.526 81.8668 84.526C81.3728 84.526 80.8345 84.583 80.2518 84.697C79.6692 84.811 79.1182 84.9757 78.5988 85.191L77.7628 83.215C78.3582 82.987 79.0105 82.8033 79.7198 82.664C80.4292 82.512 81.2652 82.436 82.2278 82.436ZM88.9859 93V82.626H91.8169V86.635H93.1849C94.7682 86.635 95.9399 86.8883 96.6999 87.395C97.4599 87.9017 97.8399 88.668 97.8399 89.694C97.8399 90.6947 97.4852 91.499 96.7759 92.107C96.0666 92.7023 94.9012 93 93.2799 93H88.9859ZM99.3409 93V82.626H102.172V93H99.3409ZM93.1279 91.043C93.6852 91.043 94.1349 90.9417 94.4769 90.739C94.8316 90.5363 95.0089 90.2007 95.0089 89.732C95.0089 88.972 94.3692 88.592 93.0899 88.592H91.8169V91.043H93.1279ZM114.324 85.343C114.324 85.9003 114.147 86.3753 113.792 86.768C113.45 87.1607 112.937 87.414 112.253 87.528V87.604C112.975 87.6927 113.552 87.9397 113.982 88.345C114.426 88.7503 114.647 89.2697 114.647 89.903C114.647 90.4983 114.489 91.0303 114.172 91.499C113.868 91.9677 113.381 92.335 112.709 92.601C112.038 92.867 111.158 93 110.068 93H105.128V82.626H110.068C110.879 82.626 111.601 82.7147 112.234 82.892C112.88 83.0567 113.387 83.3353 113.754 83.728C114.134 84.1207 114.324 84.659 114.324 85.343ZM111.455 85.571C111.455 84.9377 110.955 84.621 109.954 84.621H107.959V86.673H109.631C110.227 86.673 110.676 86.5907 110.98 86.426C111.297 86.2487 111.455 85.9637 111.455 85.571ZM111.721 89.751C111.721 89.3457 111.563 89.0543 111.246 88.877C110.93 88.687 110.455 88.592 109.821 88.592H107.959V91.043H109.878C110.41 91.043 110.847 90.948 111.189 90.758C111.544 90.5553 111.721 90.2197 111.721 89.751ZM121.334 82.417C122.727 82.417 123.791 82.721 124.526 83.329C125.273 83.9243 125.647 84.8427 125.647 86.084V93H123.671L123.12 91.594H123.044C122.6 92.1513 122.132 92.5567 121.638 92.81C121.144 93.0633 120.466 93.19 119.605 93.19C118.68 93.19 117.914 92.924 117.306 92.392C116.698 91.8473 116.394 91.0177 116.394 89.903C116.394 88.801 116.78 87.9903 117.553 87.471C118.325 86.939 119.484 86.6477 121.03 86.597L122.835 86.54V86.084C122.835 85.5393 122.689 85.1403 122.398 84.887C122.119 84.6337 121.726 84.507 121.22 84.507C120.713 84.507 120.219 84.583 119.738 84.735C119.256 84.8743 118.775 85.0517 118.294 85.267L117.363 83.348C117.92 83.0567 118.534 82.8287 119.206 82.664C119.89 82.4993 120.599 82.417 121.334 82.417ZM121.733 88.231C120.821 88.2563 120.187 88.421 119.833 88.725C119.478 89.029 119.301 89.428 119.301 89.922C119.301 90.3527 119.427 90.663 119.681 90.853C119.934 91.0303 120.263 91.119 120.669 91.119C121.277 91.119 121.79 90.9417 122.208 90.587C122.626 90.2197 122.835 89.7067 122.835 89.048V88.193L121.733 88.231ZM142.871 87.794C142.871 89.5167 142.434 90.8467 141.56 91.784C140.698 92.7213 139.514 93.19 138.007 93.19C136.727 93.19 135.657 92.829 134.796 92.107C133.934 91.3723 133.415 90.245 133.238 88.725H131.376V93H128.545V82.626H131.376V86.616H133.276C133.466 85.2607 133.985 84.2283 134.834 83.519C135.682 82.797 136.759 82.436 138.064 82.436C139.001 82.436 139.831 82.645 140.553 83.063C141.275 83.481 141.838 84.089 142.244 84.887C142.662 85.6723 142.871 86.6413 142.871 87.794ZM136.088 87.794C136.088 88.82 136.24 89.599 136.544 90.131C136.848 90.6503 137.348 90.91 138.045 90.91C138.729 90.91 139.223 90.6503 139.527 90.131C139.831 89.599 139.983 88.82 139.983 87.794C139.983 86.768 139.831 86.0017 139.527 85.495C139.223 84.9757 138.722 84.716 138.026 84.716C137.342 84.716 136.848 84.9757 136.544 85.495C136.24 86.0017 136.088 86.768 136.088 87.794ZM160.654 82.626V90.929H162.174V96.724H159.628V93H145.207V82.626H148.038V90.872H151.515V82.626H154.346V90.872H157.823V82.626H160.654ZM168.203 82.436C169.635 82.436 170.768 82.8477 171.604 83.671C172.44 84.4817 172.858 85.6407 172.858 87.148V88.516H166.17C166.196 89.314 166.43 89.941 166.873 90.397C167.329 90.853 167.956 91.081 168.754 91.081C169.426 91.081 170.034 91.0177 170.578 90.891C171.123 90.7517 171.687 90.5427 172.269 90.264V92.449C171.763 92.7023 171.224 92.886 170.654 93C170.097 93.1267 169.419 93.19 168.621 93.19C167.583 93.19 166.664 93 165.866 92.62C165.068 92.2273 164.441 91.6383 163.985 90.853C163.529 90.0677 163.301 89.0797 163.301 87.889C163.301 86.673 163.504 85.666 163.909 84.868C164.327 84.0573 164.904 83.4493 165.638 83.044C166.373 82.6387 167.228 82.436 168.203 82.436ZM168.222 84.45C167.678 84.45 167.222 84.6273 166.854 84.982C166.5 85.3367 166.291 85.8877 166.227 86.635H170.198C170.186 86.0017 170.021 85.4823 169.704 85.077C169.388 84.659 168.894 84.45 168.222 84.45ZM175.686 93V90.663H177.795V93H175.686Z" fill="#FCF7F2"/>
</svg>
