<svg width="265" height="59" viewBox="0 0 265 59" fill="none" xmlns="http://www.w3.org/2000/svg">
<path d="M0.145 12L4.36 6.405L2.62 1.29H4.96L6.085 5.085L8.74 1.29H11.26L7.27 6.6L9.235 12H6.805L5.545 8.025L2.65 12H0.145ZM13.8917 12.15C13.2817 12.15 12.7367 12.025 12.2567 11.775C11.7867 11.515 11.4167 11.15 11.1467 10.68C10.8867 10.21 10.7567 9.65 10.7567 9C10.7567 8.28 10.8467 7.6 11.0267 6.96C11.2067 6.31 11.4767 5.74 11.8367 5.25C12.1967 4.75 12.6467 4.36 13.1867 4.08C13.7367 3.8 14.3767 3.66 15.1067 3.66C16.0567 3.66 16.8117 3.945 17.3717 4.515C17.9317 5.085 18.2117 5.88 18.2117 6.9C18.2117 7.59 18.1267 8.25 17.9567 8.88C17.7867 9.51 17.5217 10.07 17.1617 10.56C16.8117 11.05 16.3617 11.44 15.8117 11.73C15.2717 12.01 14.6317 12.15 13.8917 12.15ZM14.0717 10.35C14.4817 10.35 14.8267 10.185 15.1067 9.855C15.3967 9.525 15.6167 9.1 15.7667 8.58C15.9167 8.05 15.9917 7.49 15.9917 6.9C15.9917 6.49 15.9117 6.15 15.7517 5.88C15.6017 5.6 15.3317 5.46 14.9417 5.46C14.6117 5.46 14.3217 5.575 14.0717 5.805C13.8217 6.025 13.6167 6.315 13.4567 6.675C13.2967 7.035 13.1767 7.42 13.0967 7.83C13.0167 8.24 12.9767 8.63 12.9767 9C12.9767 9.9 13.3417 10.35 14.0717 10.35ZM18.3761 15.6L20.8811 3.81H22.5611L22.4411 5.055H22.5011C22.7611 4.705 23.0811 4.385 23.4611 4.095C23.8411 3.805 24.2961 3.66 24.8261 3.66C25.2261 3.66 25.6011 3.76 25.9511 3.96C26.3011 4.15 26.5861 4.465 26.8061 4.905C27.0261 5.335 27.1361 5.915 27.1361 6.645C27.1361 7.305 27.0461 7.965 26.8661 8.625C26.6861 9.275 26.4311 9.865 26.1011 10.395C25.7711 10.925 25.3711 11.35 24.9011 11.67C24.4411 11.99 23.9211 12.15 23.3411 12.15C22.8411 12.15 22.4561 12.035 22.1861 11.805C21.9161 11.575 21.6811 11.29 21.4811 10.95H21.4211C21.3911 11.35 21.3511 11.715 21.3011 12.045C21.2511 12.375 21.1861 12.73 21.1061 13.11L20.5811 15.6H18.3761ZM22.9661 10.365C23.2361 10.365 23.4861 10.26 23.7161 10.05C23.9561 9.83 24.1611 9.545 24.3311 9.195C24.5111 8.845 24.6511 8.455 24.7511 8.025C24.8511 7.595 24.9011 7.165 24.9011 6.735C24.9011 5.875 24.5811 5.445 23.9411 5.445C23.5811 5.445 23.2761 5.575 23.0261 5.835C22.7761 6.095 22.5711 6.42 22.4111 6.81C22.2511 7.2 22.1311 7.6 22.0511 8.01C21.9811 8.42 21.9461 8.775 21.9461 9.075C21.9461 9.465 22.0361 9.78 22.2161 10.02C22.4061 10.25 22.6561 10.365 22.9661 10.365ZM31.587 12.15C30.977 12.15 30.432 12.025 29.952 11.775C29.482 11.515 29.112 11.15 28.842 10.68C28.582 10.21 28.452 9.65 28.452 9C28.452 8.28 28.542 7.6 28.722 6.96C28.902 6.31 29.172 5.74 29.532 5.25C29.892 4.75 30.342 4.36 30.882 4.08C31.432 3.8 32.072 3.66 32.802 3.66C33.752 3.66 34.507 3.945 35.067 4.515C35.627 5.085 35.907 5.88 35.907 6.9C35.907 7.59 35.822 8.25 35.652 8.88C35.482 9.51 35.217 10.07 34.857 10.56C34.507 11.05 34.057 11.44 33.507 11.73C32.967 12.01 32.327 12.15 31.587 12.15ZM31.767 10.35C32.177 10.35 32.522 10.185 32.802 9.855C33.092 9.525 33.312 9.1 33.462 8.58C33.612 8.05 33.687 7.49 33.687 6.9C33.687 6.49 33.607 6.15 33.447 5.88C33.297 5.6 33.027 5.46 32.637 5.46C32.307 5.46 32.017 5.575 31.767 5.805C31.517 6.025 31.312 6.315 31.152 6.675C30.992 7.035 30.872 7.42 30.792 7.83C30.712 8.24 30.672 8.63 30.672 9C30.672 9.9 31.037 10.35 31.767 10.35ZM39.3864 12.15C38.7064 12.15 38.1964 11.94 37.8564 11.52C37.5164 11.09 37.3464 10.515 37.3464 9.795C37.3464 9.435 37.4014 8.995 37.5114 8.475L38.4864 3.81H40.6914L39.6864 8.595C39.6064 8.945 39.5664 9.235 39.5664 9.465C39.5664 10.065 39.8064 10.365 40.2864 10.365C40.6264 10.365 40.9264 10.225 41.1864 9.945C41.4564 9.665 41.6914 9.285 41.8914 8.805C42.0914 8.325 42.2514 7.795 42.3714 7.215L43.0764 3.81H45.2814L44.2764 8.595C44.1964 8.945 44.1564 9.235 44.1564 9.465C44.1564 10.065 44.3964 10.365 44.8764 10.365C45.2164 10.365 45.5164 10.225 45.7764 9.945C46.0464 9.655 46.2814 9.27 46.4814 8.79C46.6814 8.31 46.8414 7.78 46.9614 7.2L47.6814 3.81H49.8864L48.1464 12H46.4814L46.6314 10.485H46.5714C46.2614 10.975 45.8914 11.375 45.4614 11.685C45.0414 11.995 44.5464 12.15 43.9764 12.15C43.4164 12.15 42.9814 12.005 42.6714 11.715C42.3714 11.415 42.1714 11.005 42.0714 10.485H42.0114C41.7014 10.975 41.3264 11.375 40.8864 11.685C40.4564 11.995 39.9564 12.15 39.3864 12.15ZM53.0405 12.15C52.3405 12.15 51.8155 11.94 51.4655 11.52C51.1255 11.09 50.9555 10.515 50.9555 9.795C50.9555 9.615 50.9705 9.385 51.0005 9.105C51.0305 8.815 51.0755 8.525 51.1355 8.235L52.0655 3.81H54.2705L53.2655 8.595C53.1855 8.945 53.1455 9.235 53.1455 9.465C53.1455 10.065 53.4105 10.365 53.9405 10.365C54.2805 10.365 54.5805 10.225 54.8405 9.945C55.1105 9.655 55.3455 9.27 55.5455 8.79C55.7455 8.31 55.9055 7.78 56.0255 7.2L56.7455 3.81H58.9505L57.2105 12H55.5305L55.6805 10.485H55.6055C55.2955 10.975 54.9305 11.375 54.5105 11.685C54.1005 11.995 53.6105 12.15 53.0405 12.15ZM64.7332 2.91C63.9232 2.91 63.2982 2.8 62.8582 2.58C62.4182 2.36 62.1132 2.075 61.9432 1.725C61.7832 1.375 61.7032 1.01 61.7032 0.63C61.7032 0.569999 61.7032 0.509999 61.7032 0.449999C61.7132 0.39 61.7232 0.335 61.7332 0.285H63.6832C63.6732 0.364999 63.6682 0.429999 63.6682 0.48C63.6682 0.53 63.6682 0.58 63.6682 0.63C63.6682 0.989999 63.7782 1.25 63.9982 1.41C64.2182 1.57 64.5232 1.65 64.9132 1.65C65.3632 1.65 65.7232 1.55 65.9932 1.35C66.2732 1.15 66.4732 0.795 66.5932 0.285H68.5882C68.4582 0.814999 68.2482 1.28 67.9582 1.68C67.6782 2.07 67.2782 2.375 66.7582 2.595C66.2482 2.805 65.5732 2.91 64.7332 2.91ZM62.0932 12.15C61.3932 12.15 60.8682 11.94 60.5182 11.52C60.1782 11.09 60.0082 10.515 60.0082 9.795C60.0082 9.615 60.0232 9.385 60.0532 9.105C60.0832 8.815 60.1282 8.525 60.1882 8.235L61.1182 3.81H63.3232L62.3182 8.595C62.2382 8.945 62.1982 9.235 62.1982 9.465C62.1982 10.065 62.4632 10.365 62.9932 10.365C63.3332 10.365 63.6332 10.225 63.8932 9.945C64.1632 9.655 64.3982 9.27 64.5982 8.79C64.7982 8.31 64.9582 7.78 65.0782 7.2L65.7982 3.81H68.0032L66.2632 12H64.5832L64.7332 10.485H64.6582C64.3482 10.975 63.9832 11.375 63.5632 11.685C63.1532 11.995 62.6632 12.15 62.0932 12.15ZM74.7624 12.15C74.0824 12.15 73.5724 11.94 73.2324 11.52C72.8924 11.09 72.7224 10.515 72.7224 9.795C72.7224 9.435 72.7774 8.995 72.8874 8.475L73.8624 3.81H76.0674L75.0624 8.595C74.9824 8.945 74.9424 9.235 74.9424 9.465C74.9424 10.065 75.1824 10.365 75.6624 10.365C76.0024 10.365 76.3024 10.225 76.5624 9.945C76.8324 9.665 77.0674 9.285 77.2674 8.805C77.4674 8.325 77.6274 7.795 77.7474 7.215L78.4524 3.81H80.6574L79.6524 8.595C79.5724 8.945 79.5324 9.235 79.5324 9.465C79.5324 10.065 79.7724 10.365 80.2524 10.365C80.5924 10.365 80.8924 10.225 81.1524 9.945C81.4224 9.655 81.6574 9.27 81.8574 8.79C82.0574 8.31 82.2174 7.78 82.3374 7.2L83.0574 3.81H85.2624L83.5224 12H81.8574L82.0074 10.485H81.9474C81.6374 10.975 81.2674 11.375 80.8374 11.685C80.4174 11.995 79.9224 12.15 79.3524 12.15C78.7924 12.15 78.3574 12.005 78.0474 11.715C77.7474 11.415 77.5474 11.005 77.4474 10.485H77.3874C77.0774 10.975 76.7024 11.375 76.2624 11.685C75.8324 11.995 75.3324 12.15 74.7624 12.15ZM85.0265 15.6L87.5315 3.81H89.2115L89.0915 5.055H89.1515C89.4115 4.705 89.7315 4.385 90.1115 4.095C90.4915 3.805 90.9465 3.66 91.4765 3.66C91.8765 3.66 92.2515 3.76 92.6015 3.96C92.9515 4.15 93.2365 4.465 93.4565 4.905C93.6765 5.335 93.7865 5.915 93.7865 6.645C93.7865 7.305 93.6965 7.965 93.5165 8.625C93.3365 9.275 93.0815 9.865 92.7515 10.395C92.4215 10.925 92.0215 11.35 91.5515 11.67C91.0915 11.99 90.5715 12.15 89.9915 12.15C89.4915 12.15 89.1065 12.035 88.8365 11.805C88.5665 11.575 88.3315 11.29 88.1315 10.95H88.0715C88.0415 11.35 88.0015 11.715 87.9515 12.045C87.9015 12.375 87.8365 12.73 87.7565 13.11L87.2315 15.6H85.0265ZM89.6165 10.365C89.8865 10.365 90.1365 10.26 90.3665 10.05C90.6065 9.83 90.8115 9.545 90.9815 9.195C91.1615 8.845 91.3015 8.455 91.4015 8.025C91.5015 7.595 91.5515 7.165 91.5515 6.735C91.5515 5.875 91.2315 5.445 90.5915 5.445C90.2315 5.445 89.9265 5.575 89.6765 5.835C89.4265 6.095 89.2215 6.42 89.0615 6.81C88.9015 7.2 88.7815 7.6 88.7015 8.01C88.6315 8.42 88.5965 8.775 88.5965 9.075C88.5965 9.465 88.6865 9.78 88.8665 10.02C89.0565 10.25 89.3065 10.365 89.6165 10.365ZM97.3374 12.15C96.6374 12.15 96.1124 11.94 95.7624 11.52C95.4224 11.09 95.2524 10.515 95.2524 9.795C95.2524 9.615 95.2674 9.385 95.2974 9.105C95.3274 8.815 95.3724 8.525 95.4324 8.235L96.3624 3.81H98.5674L97.5624 8.595C97.4824 8.945 97.4424 9.235 97.4424 9.465C97.4424 10.065 97.7074 10.365 98.2374 10.365C98.5774 10.365 98.8774 10.225 99.1374 9.945C99.4074 9.655 99.6424 9.27 99.8424 8.79C100.042 8.31 100.202 7.78 100.322 7.2L101.042 3.81H103.247L101.507 12H99.8274L99.9774 10.485H99.9024C99.5924 10.975 99.2274 11.375 98.8074 11.685C98.3974 11.995 97.9074 12.15 97.3374 12.15ZM107.32 12.06C106.29 11.94 105.505 11.57 104.965 10.95C104.425 10.32 104.155 9.565 104.155 8.685C104.155 8.145 104.24 7.595 104.41 7.035C104.58 6.475 104.855 5.96 105.235 5.49C105.625 5.01 106.135 4.615 106.765 4.305C107.395 3.995 108.165 3.81 109.075 3.75L109.735 0.599999H111.835L111.175 3.765C112.185 3.905 112.955 4.28 113.485 4.89C114.015 5.5 114.28 6.265 114.28 7.185C114.28 7.675 114.21 8.185 114.07 8.715C113.93 9.245 113.68 9.755 113.32 10.245C112.97 10.725 112.475 11.135 111.835 11.475C111.195 11.815 110.38 12.035 109.39 12.135L108.685 15.6H106.555L107.32 12.06ZM108.715 5.46C108.275 5.49 107.905 5.61 107.605 5.82C107.305 6.03 107.065 6.29 106.885 6.6C106.715 6.91 106.59 7.235 106.51 7.575C106.44 7.915 106.405 8.225 106.405 8.505C106.405 9.005 106.51 9.425 106.72 9.765C106.93 10.095 107.245 10.29 107.665 10.35L108.715 5.46ZM109.765 10.35C110.225 10.29 110.6 10.145 110.89 9.915C111.19 9.685 111.42 9.415 111.58 9.105C111.75 8.785 111.87 8.46 111.94 8.13C112.01 7.8 112.045 7.5 112.045 7.23C112.045 6.78 111.94 6.395 111.73 6.075C111.52 5.755 111.21 5.56 110.8 5.49L109.765 10.35ZM115.206 12L116.946 3.81H118.626L118.476 5.325H118.536C118.856 4.835 119.221 4.435 119.631 4.125C120.051 3.815 120.546 3.66 121.116 3.66C121.676 3.66 122.111 3.81 122.421 4.11C122.731 4.4 122.936 4.805 123.036 5.325H123.096C123.406 4.835 123.776 4.435 124.206 4.125C124.636 3.815 125.136 3.66 125.706 3.66C126.386 3.66 126.896 3.875 127.236 4.305C127.576 4.725 127.746 5.295 127.746 6.015C127.746 6.375 127.691 6.815 127.581 7.335L126.606 12H124.401L125.406 7.215C125.486 6.865 125.526 6.575 125.526 6.345C125.526 5.745 125.286 5.445 124.806 5.445C124.476 5.445 124.176 5.585 123.906 5.865C123.636 6.145 123.401 6.525 123.201 7.005C123.001 7.475 122.841 8.005 122.721 8.595L122.016 12H119.811L120.816 7.215C120.896 6.865 120.936 6.575 120.936 6.345C120.936 5.745 120.696 5.445 120.216 5.445C119.886 5.445 119.586 5.59 119.316 5.88C119.046 6.16 118.811 6.54 118.611 7.02C118.421 7.5 118.261 8.03 118.131 8.61L117.411 12H115.206ZM131.745 8.12549L132.016 6.97559H147.016L146.745 8.12549H131.745ZM151.972 12.15C151.232 12.15 150.607 12.015 150.097 11.745V9.9C150.357 10.02 150.632 10.13 150.922 10.23C151.222 10.32 151.557 10.365 151.927 10.365C152.417 10.365 152.847 10.24 153.217 9.99C153.587 9.74 153.857 9.28 154.027 8.61H151.297L151.612 7.125H154.222C154.232 7.075 154.237 7.025 154.237 6.975C154.237 6.925 154.237 6.88 154.237 6.84C154.237 6.32 154.112 5.96 153.862 5.76C153.622 5.55 153.337 5.445 153.007 5.445C152.727 5.445 152.472 5.485 152.242 5.565C152.022 5.635 151.772 5.74 151.492 5.88L150.907 4.26C151.267 4.08 151.652 3.935 152.062 3.825C152.472 3.715 152.937 3.66 153.457 3.66C154.007 3.66 154.507 3.77 154.957 3.99C155.407 4.21 155.767 4.56 156.037 5.04C156.317 5.52 156.457 6.155 156.457 6.945C156.457 7.905 156.297 8.78 155.977 9.57C155.657 10.35 155.162 10.975 154.492 11.445C153.832 11.915 152.992 12.15 151.972 12.15ZM157.393 12L159.133 3.81H160.813L160.663 5.325H160.723C161.043 4.835 161.408 4.435 161.818 4.125C162.238 3.815 162.733 3.66 163.303 3.66C163.863 3.66 164.298 3.81 164.608 4.11C164.918 4.4 165.123 4.805 165.223 5.325H165.283C165.593 4.835 165.963 4.435 166.393 4.125C166.823 3.815 167.323 3.66 167.893 3.66C168.573 3.66 169.083 3.875 169.423 4.305C169.763 4.725 169.933 5.295 169.933 6.015C169.933 6.375 169.878 6.815 169.768 7.335L168.793 12H166.588L167.593 7.215C167.673 6.865 167.713 6.575 167.713 6.345C167.713 5.745 167.473 5.445 166.993 5.445C166.663 5.445 166.363 5.585 166.093 5.865C165.823 6.145 165.588 6.525 165.388 7.005C165.188 7.475 165.028 8.005 164.908 8.595L164.203 12H161.998L163.003 7.215C163.083 6.865 163.123 6.575 163.123 6.345C163.123 5.745 162.883 5.445 162.403 5.445C162.073 5.445 161.773 5.59 161.503 5.88C161.233 6.16 160.998 6.54 160.798 7.02C160.608 7.5 160.448 8.03 160.318 8.61L159.598 12H157.393ZM174.497 12.15C173.887 12.15 173.342 12.025 172.862 11.775C172.392 11.515 172.022 11.15 171.752 10.68C171.492 10.21 171.362 9.65 171.362 9C171.362 8.28 171.452 7.6 171.632 6.96C171.812 6.31 172.082 5.74 172.442 5.25C172.802 4.75 173.252 4.36 173.792 4.08C174.342 3.8 174.982 3.66 175.712 3.66C176.662 3.66 177.417 3.945 177.977 4.515C178.537 5.085 178.817 5.88 178.817 6.9C178.817 7.59 178.732 8.25 178.562 8.88C178.392 9.51 178.127 10.07 177.767 10.56C177.417 11.05 176.967 11.44 176.417 11.73C175.877 12.01 175.237 12.15 174.497 12.15ZM174.677 10.35C175.087 10.35 175.432 10.185 175.712 9.855C176.002 9.525 176.222 9.1 176.372 8.58C176.522 8.05 176.597 7.49 176.597 6.9C176.597 6.49 176.517 6.15 176.357 5.88C176.207 5.6 175.937 5.46 175.547 5.46C175.217 5.46 174.927 5.575 174.677 5.805C174.427 6.025 174.222 6.315 174.062 6.675C173.902 7.035 173.782 7.42 173.702 7.83C173.622 8.24 173.582 8.63 173.582 9C173.582 9.9 173.947 10.35 174.677 10.35ZM183.438 12L185.193 3.81H187.398L186.588 7.62L189.813 3.81H192.333L188.823 7.92L190.848 12H188.373L186.498 8.01L185.643 12H183.438ZM194.81 12.15C194.42 12.15 194.045 12.055 193.685 11.865C193.335 11.665 193.05 11.35 192.83 10.92C192.61 10.48 192.5 9.9 192.5 9.18C192.5 8.51 192.59 7.85 192.77 7.2C192.95 6.55 193.205 5.96 193.535 5.43C193.865 4.89 194.26 4.46 194.72 4.14C195.19 3.82 195.715 3.66 196.295 3.66C196.815 3.66 197.235 3.77 197.555 3.99C197.885 4.21 198.14 4.5 198.32 4.86H198.38L198.8 3.81H200.495L198.755 12H197.105L197.21 10.935H197.15C196.86 11.295 196.525 11.59 196.145 11.82C195.775 12.04 195.33 12.15 194.81 12.15ZM195.68 10.365C195.98 10.365 196.26 10.245 196.52 10.005C196.78 9.765 197 9.455 197.18 9.075C197.37 8.695 197.505 8.295 197.585 7.875C197.655 7.515 197.69 7.105 197.69 6.645C197.69 6.295 197.6 6.01 197.42 5.79C197.24 5.56 196.99 5.445 196.67 5.445C196.4 5.445 196.145 5.555 195.905 5.775C195.675 5.985 195.47 6.265 195.29 6.615C195.12 6.965 194.985 7.355 194.885 7.785C194.785 8.215 194.735 8.645 194.735 9.075C194.735 9.935 195.05 10.365 195.68 10.365ZM201.016 12L202.771 3.81H204.976L204.166 7.62L207.391 3.81H209.911L206.401 7.92L208.426 12H205.951L204.076 8.01L203.221 12H201.016ZM216.079 12.15C215.579 12.15 215.114 12.075 214.684 11.925C214.254 11.775 213.909 11.53 213.649 11.19C213.389 10.84 213.259 10.385 213.259 9.825C213.259 9.375 213.339 9 213.499 8.7C213.669 8.39 213.894 8.135 214.174 7.935C214.454 7.735 214.759 7.57 215.089 7.44C215.429 7.3 215.769 7.175 216.109 7.065C216.599 6.905 216.954 6.77 217.174 6.66C217.394 6.55 217.534 6.445 217.594 6.345C217.664 6.235 217.699 6.1 217.699 5.94C217.699 5.52 217.404 5.31 216.814 5.31C216.474 5.31 216.149 5.36 215.839 5.46C215.529 5.56 215.204 5.695 214.864 5.865L214.324 4.305C214.704 4.125 215.139 3.975 215.629 3.855C216.119 3.725 216.639 3.66 217.189 3.66C217.689 3.66 218.144 3.735 218.554 3.885C218.974 4.025 219.304 4.26 219.544 4.59C219.794 4.91 219.919 5.34 219.919 5.88C219.919 6.34 219.839 6.725 219.679 7.035C219.519 7.335 219.299 7.585 219.019 7.785C218.749 7.985 218.434 8.16 218.074 8.31C217.714 8.45 217.334 8.59 216.934 8.73C216.464 8.89 216.104 9.04 215.854 9.18C215.614 9.32 215.494 9.52 215.494 9.78C215.494 9.99 215.569 10.165 215.719 10.305C215.879 10.445 216.154 10.515 216.544 10.515C216.964 10.515 217.379 10.445 217.789 10.305C218.199 10.165 218.579 10.015 218.929 9.855V11.52C218.519 11.72 218.099 11.875 217.669 11.985C217.239 12.095 216.709 12.15 216.079 12.15ZM223.257 12.15C222.867 12.15 222.492 12.055 222.132 11.865C221.782 11.665 221.497 11.35 221.277 10.92C221.057 10.48 220.947 9.9 220.947 9.18C220.947 8.51 221.037 7.85 221.217 7.2C221.397 6.55 221.652 5.96 221.982 5.43C222.312 4.89 222.707 4.46 223.167 4.14C223.637 3.82 224.162 3.66 224.742 3.66C225.262 3.66 225.682 3.77 226.002 3.99C226.332 4.21 226.587 4.5 226.767 4.86H226.827L227.247 3.81H228.942L227.202 12H225.552L225.657 10.935H225.597C225.307 11.295 224.972 11.59 224.592 11.82C224.222 12.04 223.777 12.15 223.257 12.15ZM224.127 10.365C224.427 10.365 224.707 10.245 224.967 10.005C225.227 9.765 225.447 9.455 225.627 9.075C225.817 8.695 225.952 8.295 226.032 7.875C226.102 7.515 226.137 7.105 226.137 6.645C226.137 6.295 226.047 6.01 225.867 5.79C225.687 5.56 225.437 5.445 225.117 5.445C224.847 5.445 224.592 5.555 224.352 5.775C224.122 5.985 223.917 6.265 223.737 6.615C223.567 6.965 223.432 7.355 223.332 7.785C223.232 8.215 223.182 8.645 223.182 9.075C223.182 9.935 223.497 10.365 224.127 10.365ZM228.698 15.6L231.203 3.81H232.883L232.763 5.055H232.823C233.083 4.705 233.403 4.385 233.783 4.095C234.163 3.805 234.618 3.66 235.148 3.66C235.548 3.66 235.923 3.76 236.273 3.96C236.623 4.15 236.908 4.465 237.128 4.905C237.348 5.335 237.458 5.915 237.458 6.645C237.458 7.305 237.368 7.965 237.188 8.625C237.008 9.275 236.753 9.865 236.423 10.395C236.093 10.925 235.693 11.35 235.223 11.67C234.763 11.99 234.243 12.15 233.663 12.15C233.163 12.15 232.778 12.035 232.508 11.805C232.238 11.575 232.003 11.29 231.803 10.95H231.743C231.713 11.35 231.673 11.715 231.623 12.045C231.573 12.375 231.508 12.73 231.428 13.11L230.903 15.6H228.698ZM233.288 10.365C233.558 10.365 233.808 10.26 234.038 10.05C234.278 9.83 234.483 9.545 234.653 9.195C234.833 8.845 234.973 8.455 235.073 8.025C235.173 7.595 235.223 7.165 235.223 6.735C235.223 5.875 234.903 5.445 234.263 5.445C233.903 5.445 233.598 5.575 233.348 5.835C233.098 6.095 232.893 6.42 232.733 6.81C232.573 7.2 232.453 7.6 232.373 8.01C232.303 8.42 232.268 8.775 232.268 9.075C232.268 9.465 232.358 9.78 232.538 10.02C232.728 10.25 232.978 10.365 233.288 10.365ZM238.444 12L240.169 3.81H243.214L243.529 9.525H243.574L246.514 3.81H249.649L247.894 12H245.854L246.754 7.95C246.834 7.57 246.919 7.205 247.009 6.855C247.099 6.495 247.179 6.205 247.249 5.985H247.204L244.099 12H241.984L241.654 5.985H241.624C241.574 6.385 241.519 6.75 241.459 7.08C241.399 7.4 241.334 7.72 241.264 8.04L240.469 12H238.444ZM253.496 12.15C252.886 12.15 252.341 12.025 251.861 11.775C251.391 11.515 251.021 11.15 250.751 10.68C250.491 10.21 250.361 9.65 250.361 9C250.361 8.28 250.451 7.6 250.631 6.96C250.811 6.31 251.081 5.74 251.441 5.25C251.801 4.75 252.251 4.36 252.791 4.08C253.341 3.8 253.981 3.66 254.711 3.66C255.661 3.66 256.416 3.945 256.976 4.515C257.536 5.085 257.816 5.88 257.816 6.9C257.816 7.59 257.731 8.25 257.561 8.88C257.391 9.51 257.126 10.07 256.766 10.56C256.416 11.05 255.966 11.44 255.416 11.73C254.876 12.01 254.236 12.15 253.496 12.15ZM253.676 10.35C254.086 10.35 254.431 10.185 254.711 9.855C255.001 9.525 255.221 9.1 255.371 8.58C255.521 8.05 255.596 7.49 255.596 6.9C255.596 6.49 255.516 6.15 255.356 5.88C255.206 5.6 254.936 5.46 254.546 5.46C254.216 5.46 253.926 5.575 253.676 5.805C253.426 6.025 253.221 6.315 253.061 6.675C252.901 7.035 252.781 7.42 252.701 7.83C252.621 8.24 252.581 8.63 252.581 9C252.581 9.9 252.946 10.35 253.676 10.35ZM259.625 8.12549L259.896 6.97559H264.064L263.793 8.12549H259.625ZM1.27 34L3.025 25.81H5.245L4.57 28.96H7.12L7.78 25.81H9.985L8.245 34H6.04L6.745 30.625H4.21L3.49 34H1.27ZM13.1382 34.15C12.4382 34.15 11.9132 33.94 11.5632 33.52C11.2232 33.09 11.0532 32.515 11.0532 31.795C11.0532 31.615 11.0682 31.385 11.0982 31.105C11.1282 30.815 11.1732 30.525 11.2332 30.235L12.1632 25.81H14.3682L13.3632 30.595C13.2832 30.945 13.2432 31.235 13.2432 31.465C13.2432 32.065 13.5082 32.365 14.0382 32.365C14.3782 32.365 14.6782 32.225 14.9382 31.945C15.2082 31.655 15.4432 31.27 15.6432 30.79C15.8432 30.31 16.0032 29.78 16.1232 29.2L16.8432 25.81H19.0482L17.3082 34H15.6282L15.7782 32.485H15.7032C15.3932 32.975 15.0282 33.375 14.6082 33.685C14.1982 33.995 13.7082 34.15 13.1382 34.15ZM24.4859 31.78C24.5359 31.55 24.5859 31.325 24.6359 31.105C24.6959 30.885 24.7559 30.67 24.8159 30.46H24.7559C24.4659 30.78 24.1459 31.035 23.7959 31.225C23.4459 31.405 23.0509 31.495 22.6109 31.495C21.9409 31.495 21.4209 31.285 21.0509 30.865C20.6809 30.435 20.4959 29.86 20.4959 29.14C20.4959 28.96 20.5159 28.73 20.5559 28.45C20.5959 28.16 20.6459 27.87 20.7059 27.58L21.0809 25.81H23.2859L22.8359 27.94C22.7559 28.29 22.7159 28.58 22.7159 28.81C22.7159 29.43 23.0059 29.74 23.5859 29.74C24.0859 29.74 24.4859 29.49 24.7859 28.99C25.0959 28.48 25.3559 27.73 25.5659 26.74L25.7609 25.81H27.9659L26.2259 34H24.0209L24.4859 31.78ZM28.4868 34L30.2418 25.81H32.4618L31.7868 28.96H34.3368L34.9968 25.81H37.2018L35.4618 34H33.2568L33.9618 30.625H31.4268L30.7068 34H28.4868ZM41.255 34.15C40.645 34.15 40.1 34.025 39.62 33.775C39.15 33.515 38.78 33.15 38.51 32.68C38.25 32.21 38.12 31.65 38.12 31C38.12 30.28 38.21 29.6 38.39 28.96C38.57 28.31 38.84 27.74 39.2 27.25C39.56 26.75 40.01 26.36 40.55 26.08C41.1 25.8 41.74 25.66 42.47 25.66C43.42 25.66 44.175 25.945 44.735 26.515C45.295 27.085 45.575 27.88 45.575 28.9C45.575 29.59 45.49 30.25 45.32 30.88C45.15 31.51 44.885 32.07 44.525 32.56C44.175 33.05 43.725 33.44 43.175 33.73C42.635 34.01 41.995 34.15 41.255 34.15ZM41.435 32.35C41.845 32.35 42.19 32.185 42.47 31.855C42.76 31.525 42.98 31.1 43.13 30.58C43.28 30.05 43.355 29.49 43.355 28.9C43.355 28.49 43.275 28.15 43.115 27.88C42.965 27.6 42.695 27.46 42.305 27.46C41.975 27.46 41.685 27.575 41.435 27.805C41.185 28.025 40.98 28.315 40.82 28.675C40.66 29.035 40.54 29.42 40.46 29.83C40.38 30.24 40.34 30.63 40.34 31C40.34 31.9 40.705 32.35 41.435 32.35ZM50.1344 34.15C49.1744 34.15 48.3944 33.89 47.7944 33.37C47.1944 32.84 46.8944 32.045 46.8944 30.985C46.8944 30.295 46.9894 29.635 47.1794 29.005C47.3794 28.365 47.6694 27.795 48.0494 27.295C48.4394 26.795 48.9194 26.4 49.4894 26.11C50.0594 25.81 50.7194 25.66 51.4694 25.66C52.3894 25.66 53.0744 25.87 53.5244 26.29C53.9844 26.71 54.2144 27.245 54.2144 27.895C54.2144 28.755 53.8244 29.445 53.0444 29.965C52.2744 30.485 51.0944 30.745 49.5044 30.745H49.1294C49.1194 30.805 49.1144 30.86 49.1144 30.91C49.1144 30.95 49.1144 30.995 49.1144 31.045C49.1144 31.485 49.2394 31.835 49.4894 32.095C49.7494 32.355 50.1094 32.485 50.5694 32.485C50.9994 32.485 51.3894 32.435 51.7394 32.335C52.0894 32.235 52.5044 32.075 52.9844 31.855V33.52C52.5544 33.73 52.1194 33.89 51.6794 34C51.2394 34.1 50.7244 34.15 50.1344 34.15ZM49.6994 29.26C50.5494 29.26 51.1594 29.13 51.5294 28.87C51.9094 28.6 52.0994 28.29 52.0994 27.94C52.0994 27.48 51.8444 27.25 51.3344 27.25C51.0644 27.25 50.7944 27.335 50.5244 27.505C50.2544 27.675 50.0144 27.91 49.8044 28.21C49.6044 28.51 49.4594 28.86 49.3694 29.26H49.6994ZM61.9804 34.15C61.4204 34.15 60.9054 34.05 60.4354 33.85C59.9754 33.64 59.6104 33.315 59.3404 32.875C59.0704 32.435 58.9354 31.855 58.9354 31.135C58.9354 30.395 59.0304 29.7 59.2204 29.05C59.4104 28.39 59.6904 27.805 60.0604 27.295C60.4304 26.785 60.8854 26.385 61.4254 26.095C61.9654 25.805 62.5804 25.66 63.2704 25.66C63.7604 25.66 64.1954 25.705 64.5754 25.795C64.9654 25.885 65.3304 26.015 65.6704 26.185L64.9954 27.865C64.7354 27.755 64.4754 27.66 64.2154 27.58C63.9654 27.49 63.6804 27.445 63.3604 27.445C62.9004 27.445 62.5054 27.62 62.1754 27.97C61.8454 28.31 61.5954 28.75 61.4254 29.29C61.2554 29.82 61.1704 30.375 61.1704 30.955C61.1704 31.415 61.2804 31.765 61.5004 32.005C61.7204 32.245 62.0304 32.365 62.4304 32.365C62.8004 32.365 63.1404 32.31 63.4504 32.2C63.7704 32.08 64.1004 31.935 64.4404 31.765V33.565C64.1004 33.745 63.7304 33.89 63.3304 34C62.9404 34.1 62.4904 34.15 61.9804 34.15ZM69.3214 34.15C68.7114 34.15 68.1664 34.025 67.6864 33.775C67.2164 33.515 66.8464 33.15 66.5764 32.68C66.3164 32.21 66.1864 31.65 66.1864 31C66.1864 30.28 66.2764 29.6 66.4564 28.96C66.6364 28.31 66.9064 27.74 67.2664 27.25C67.6264 26.75 68.0764 26.36 68.6164 26.08C69.1664 25.8 69.8064 25.66 70.5364 25.66C71.4864 25.66 72.2414 25.945 72.8014 26.515C73.3614 27.085 73.6414 27.88 73.6414 28.9C73.6414 29.59 73.5564 30.25 73.3864 30.88C73.2164 31.51 72.9514 32.07 72.5914 32.56C72.2414 33.05 71.7914 33.44 71.2414 33.73C70.7014 34.01 70.0614 34.15 69.3214 34.15ZM69.5014 32.35C69.9114 32.35 70.2564 32.185 70.5364 31.855C70.8264 31.525 71.0464 31.1 71.1964 30.58C71.3464 30.05 71.4214 29.49 71.4214 28.9C71.4214 28.49 71.3414 28.15 71.1814 27.88C71.0314 27.6 70.7614 27.46 70.3714 27.46C70.0414 27.46 69.7514 27.575 69.5014 27.805C69.2514 28.025 69.0464 28.315 68.8864 28.675C68.7264 29.035 68.6064 29.42 68.5264 29.83C68.4464 30.24 68.4064 30.63 68.4064 31C68.4064 31.9 68.7714 32.35 69.5014 32.35ZM78.0958 34.15C77.4858 34.15 76.9408 34.025 76.4608 33.775C75.9908 33.515 75.6208 33.15 75.3508 32.68C75.0908 32.21 74.9608 31.65 74.9608 31C74.9608 30.28 75.0508 29.6 75.2308 28.96C75.4108 28.31 75.6808 27.74 76.0408 27.25C76.4008 26.75 76.8508 26.36 77.3908 26.08C77.9408 25.8 78.5808 25.66 79.3108 25.66C80.2608 25.66 81.0158 25.945 81.5758 26.515C82.1358 27.085 82.4158 27.88 82.4158 28.9C82.4158 29.59 82.3308 30.25 82.1608 30.88C81.9908 31.51 81.7258 32.07 81.3658 32.56C81.0158 33.05 80.5658 33.44 80.0158 33.73C79.4758 34.01 78.8358 34.15 78.0958 34.15ZM78.2758 32.35C78.6858 32.35 79.0308 32.185 79.3108 31.855C79.6008 31.525 79.8208 31.1 79.9708 30.58C80.1208 30.05 80.1958 29.49 80.1958 28.9C80.1958 28.49 80.1158 28.15 79.9558 27.88C79.8058 27.6 79.5358 27.46 79.1458 27.46C78.8158 27.46 78.5258 27.575 78.2758 27.805C78.0258 28.025 77.8208 28.315 77.6608 28.675C77.5008 29.035 77.3808 29.42 77.3008 29.83C77.2208 30.24 77.1808 30.63 77.1808 31C77.1808 31.9 77.5458 32.35 78.2758 32.35ZM86.9002 34.15C85.9802 34.15 85.2452 33.865 84.6952 33.295C84.1452 32.725 83.8702 31.835 83.8702 30.625C83.8702 29.895 83.9452 29.165 84.0952 28.435C84.2452 27.695 84.4652 27 84.7552 26.35C85.0552 25.69 85.4302 25.11 85.8802 24.61C86.3302 24.1 86.8552 23.71 87.4552 23.44C87.8152 23.28 88.2652 23.145 88.8052 23.035C89.3552 22.915 89.9252 22.815 90.5152 22.735C91.1052 22.655 91.6452 22.585 92.1352 22.525L92.3602 24.415C92.0502 24.455 91.7002 24.505 91.3102 24.565C90.9302 24.615 90.5552 24.67 90.1852 24.73C89.8152 24.78 89.4902 24.835 89.2102 24.895C88.7602 24.985 88.3602 25.13 88.0102 25.33C87.6602 25.52 87.3652 25.795 87.1252 26.155C86.8852 26.515 86.6852 27 86.5252 27.61L86.5702 27.625C86.8302 27.305 87.1602 27.015 87.5602 26.755C87.9702 26.495 88.4502 26.365 89.0002 26.365C89.7202 26.365 90.2602 26.605 90.6202 27.085C90.9902 27.565 91.1752 28.225 91.1752 29.065C91.1752 29.685 91.0902 30.3 90.9202 30.91C90.7502 31.51 90.4902 32.055 90.1402 32.545C89.7902 33.035 89.3452 33.425 88.8052 33.715C88.2752 34.005 87.6402 34.15 86.9002 34.15ZM87.1102 32.335C87.4702 32.335 87.7852 32.175 88.0552 31.855C88.3352 31.535 88.5552 31.13 88.7152 30.64C88.8752 30.14 88.9552 29.64 88.9552 29.14C88.9552 28.79 88.8852 28.515 88.7452 28.315C88.6152 28.115 88.4052 28.015 88.1152 28.015C87.8752 28.015 87.6352 28.085 87.3952 28.225C87.1652 28.365 86.9552 28.535 86.7652 28.735C86.5752 28.925 86.4152 29.105 86.2852 29.275C86.2452 29.485 86.2052 29.72 86.1652 29.98C86.1252 30.23 86.1052 30.47 86.1052 30.7C86.1052 31.19 86.1802 31.585 86.3302 31.885C86.4902 32.185 86.7502 32.335 87.1102 32.335ZM102.71 34C102.43 33.87 102.22 33.685 102.08 33.445C101.95 33.195 101.86 32.93 101.81 32.65H101.75C101.44 33.09 101.08 33.45 100.67 33.73C100.26 34.01 99.7896 34.15 99.2596 34.15C98.6996 34.15 98.2646 34.005 97.9546 33.715C97.6546 33.415 97.4546 33.005 97.3546 32.485H97.2946C96.9846 32.975 96.6096 33.375 96.1696 33.685C95.7396 33.995 95.2396 34.15 94.6696 34.15C93.9896 34.15 93.4796 33.94 93.1396 33.52C92.7996 33.09 92.6296 32.515 92.6296 31.795C92.6296 31.435 92.6846 30.995 92.7946 30.475L93.7696 25.81H95.9746L94.9696 30.595C94.8896 30.945 94.8496 31.235 94.8496 31.465C94.8496 32.065 95.0896 32.365 95.5696 32.365C95.9096 32.365 96.2096 32.225 96.4696 31.945C96.7396 31.665 96.9746 31.285 97.1746 30.805C97.3746 30.325 97.5346 29.795 97.6546 29.215L98.3596 25.81H100.565L99.5596 30.595C99.4796 30.945 99.4396 31.235 99.4396 31.465C99.4396 32.065 99.6796 32.365 100.16 32.365C100.5 32.365 100.8 32.225 101.06 31.945C101.33 31.655 101.565 31.27 101.765 30.79C101.965 30.31 102.125 29.78 102.245 29.2L102.965 25.81H105.17L103.985 31.405C103.955 31.555 103.94 31.685 103.94 31.795C103.94 32.115 104.09 32.275 104.39 32.275C104.51 32.275 104.625 32.265 104.735 32.245C104.845 32.225 104.95 32.2 105.05 32.17L104.045 36.94H102.005L102.71 34ZM109.563 34.15C108.603 34.15 107.823 33.89 107.223 33.37C106.623 32.84 106.323 32.045 106.323 30.985C106.323 30.295 106.418 29.635 106.608 29.005C106.808 28.365 107.098 27.795 107.478 27.295C107.868 26.795 108.348 26.4 108.918 26.11C109.488 25.81 110.148 25.66 110.898 25.66C111.818 25.66 112.503 25.87 112.953 26.29C113.413 26.71 113.643 27.245 113.643 27.895C113.643 28.755 113.253 29.445 112.473 29.965C111.703 30.485 110.523 30.745 108.933 30.745H108.558C108.548 30.805 108.543 30.86 108.543 30.91C108.543 30.95 108.543 30.995 108.543 31.045C108.543 31.485 108.668 31.835 108.918 32.095C109.178 32.355 109.538 32.485 109.998 32.485C110.428 32.485 110.818 32.435 111.168 32.335C111.518 32.235 111.933 32.075 112.413 31.855V33.52C111.983 33.73 111.548 33.89 111.108 34C110.668 34.1 110.153 34.15 109.563 34.15ZM109.128 29.26C109.978 29.26 110.588 29.13 110.958 28.87C111.338 28.6 111.528 28.29 111.528 27.94C111.528 27.48 111.273 27.25 110.763 27.25C110.493 27.25 110.223 27.335 109.953 27.505C109.683 27.675 109.443 27.91 109.233 28.21C109.033 28.51 108.888 28.86 108.798 29.26H109.128ZM117.718 34.15C117.158 34.15 116.643 34.05 116.173 33.85C115.713 33.64 115.348 33.315 115.078 32.875C114.808 32.435 114.673 31.855 114.673 31.135C114.673 30.395 114.768 29.7 114.958 29.05C115.148 28.39 115.428 27.805 115.798 27.295C116.168 26.785 116.623 26.385 117.163 26.095C117.703 25.805 118.318 25.66 119.008 25.66C119.498 25.66 119.933 25.705 120.313 25.795C120.703 25.885 121.068 26.015 121.408 26.185L120.733 27.865C120.473 27.755 120.213 27.66 119.953 27.58C119.703 27.49 119.418 27.445 119.098 27.445C118.638 27.445 118.243 27.62 117.913 27.97C117.583 28.31 117.333 28.75 117.163 29.29C116.993 29.82 116.908 30.375 116.908 30.955C116.908 31.415 117.018 31.765 117.238 32.005C117.458 32.245 117.768 32.365 118.168 32.365C118.538 32.365 118.878 32.31 119.188 32.2C119.508 32.08 119.838 31.935 120.178 31.765V33.565C119.838 33.745 119.468 33.89 119.068 34C118.678 34.1 118.228 34.15 117.718 34.15ZM121.534 34L123.274 25.81H124.954L124.804 27.325H124.864C125.184 26.835 125.549 26.435 125.959 26.125C126.379 25.815 126.874 25.66 127.444 25.66C128.004 25.66 128.439 25.81 128.749 26.11C129.059 26.4 129.264 26.805 129.364 27.325H129.424C129.734 26.835 130.104 26.435 130.534 26.125C130.964 25.815 131.464 25.66 132.034 25.66C132.714 25.66 133.224 25.875 133.564 26.305C133.904 26.725 134.074 27.295 134.074 28.015C134.074 28.375 134.019 28.815 133.909 29.335L132.934 34H130.729L131.734 29.215C131.814 28.865 131.854 28.575 131.854 28.345C131.854 27.745 131.614 27.445 131.134 27.445C130.804 27.445 130.504 27.585 130.234 27.865C129.964 28.145 129.729 28.525 129.529 29.005C129.329 29.475 129.169 30.005 129.049 30.595L128.344 34H126.139L127.144 29.215C127.224 28.865 127.264 28.575 127.264 28.345C127.264 27.745 127.024 27.445 126.544 27.445C126.214 27.445 125.914 27.59 125.644 27.88C125.374 28.16 125.139 28.54 124.939 29.02C124.749 29.5 124.589 30.03 124.459 30.61L123.739 34H121.534ZM138.998 34.15C137.878 34.15 137.013 33.865 136.403 33.295C135.803 32.715 135.503 31.895 135.503 30.835C135.503 30.155 135.598 29.505 135.788 28.885C135.988 28.265 136.278 27.715 136.658 27.235C137.038 26.745 137.508 26.36 138.068 26.08C138.638 25.8 139.298 25.66 140.048 25.66C140.928 25.66 141.638 25.85 142.178 26.23C142.728 26.61 143.003 27.155 143.003 27.865C143.003 28.475 142.833 28.925 142.493 29.215C142.163 29.505 141.743 29.71 141.233 29.83V29.89C141.583 29.99 141.888 30.17 142.148 30.43C142.408 30.68 142.538 31.045 142.538 31.525C142.538 31.985 142.413 32.415 142.163 32.815C141.913 33.215 141.528 33.54 141.008 33.79C140.488 34.03 139.818 34.15 138.998 34.15ZM139.493 29.005C139.913 29.005 140.238 28.92 140.468 28.75C140.708 28.58 140.828 28.325 140.828 27.985C140.828 27.755 140.748 27.575 140.588 27.445C140.428 27.315 140.218 27.25 139.958 27.25C139.528 27.25 139.143 27.41 138.803 27.73C138.473 28.05 138.213 28.475 138.023 29.005H139.493ZM139.028 32.605C139.438 32.605 139.753 32.5 139.973 32.29C140.203 32.08 140.318 31.81 140.318 31.48C140.318 31.16 140.198 30.92 139.958 30.76C139.728 30.6 139.338 30.52 138.788 30.52H137.723C137.713 30.59 137.708 30.665 137.708 30.745C137.708 30.825 137.708 30.905 137.708 30.985C137.708 31.565 137.833 31.98 138.083 32.23C138.343 32.48 138.658 32.605 139.028 32.605ZM147.236 34.15C146.626 34.15 146.081 34.025 145.601 33.775C145.131 33.515 144.761 33.15 144.491 32.68C144.231 32.21 144.101 31.65 144.101 31C144.101 30.28 144.191 29.6 144.371 28.96C144.551 28.31 144.821 27.74 145.181 27.25C145.541 26.75 145.991 26.36 146.531 26.08C147.081 25.8 147.721 25.66 148.451 25.66C149.401 25.66 150.156 25.945 150.716 26.515C151.276 27.085 151.556 27.88 151.556 28.9C151.556 29.59 151.471 30.25 151.301 30.88C151.131 31.51 150.866 32.07 150.506 32.56C150.156 33.05 149.706 33.44 149.156 33.73C148.616 34.01 147.976 34.15 147.236 34.15ZM147.416 32.35C147.826 32.35 148.171 32.185 148.451 31.855C148.741 31.525 148.961 31.1 149.111 30.58C149.261 30.05 149.336 29.49 149.336 28.9C149.336 28.49 149.256 28.15 149.096 27.88C148.946 27.6 148.676 27.46 148.286 27.46C147.956 27.46 147.666 27.575 147.416 27.805C147.166 28.025 146.961 28.315 146.801 28.675C146.641 29.035 146.521 29.42 146.441 29.83C146.361 30.24 146.321 30.63 146.321 31C146.321 31.9 146.686 32.35 147.416 32.35ZM156.567 34.15C156.147 34.15 155.782 34.09 155.472 33.97V32.155C155.662 32.235 155.867 32.275 156.087 32.275C156.347 32.275 156.562 32.16 156.732 31.93C156.902 31.69 157.057 31.375 157.197 30.985C157.337 30.595 157.487 30.17 157.647 29.71C157.887 29.02 158.127 28.42 158.367 27.91C158.607 27.4 158.887 26.98 159.207 26.65C159.527 26.32 159.932 26.075 160.422 25.915C160.912 25.745 161.527 25.66 162.267 25.66C162.767 25.66 163.242 25.705 163.692 25.795C164.152 25.875 164.522 25.97 164.802 26.08L163.137 34H160.932L162.312 27.52C162.242 27.5 162.167 27.485 162.087 27.475C162.007 27.465 161.927 27.46 161.847 27.46C161.447 27.46 161.122 27.575 160.872 27.805C160.632 28.035 160.422 28.375 160.242 28.825C160.062 29.275 159.857 29.835 159.627 30.505C159.457 31.005 159.287 31.475 159.117 31.915C158.957 32.355 158.767 32.745 158.547 33.085C158.327 33.415 158.057 33.675 157.737 33.865C157.427 34.055 157.037 34.15 156.567 34.15ZM172.861 34.15C171.921 34.15 171.186 33.875 170.656 33.325C170.126 32.765 169.861 31.995 169.861 31.015V30.625H168.346L167.626 34H165.406L167.161 25.81H169.381L168.706 28.96H170.116C170.286 28.32 170.541 27.755 170.881 27.265C171.231 26.765 171.666 26.375 172.186 26.095C172.706 25.805 173.316 25.66 174.016 25.66C174.986 25.66 175.726 25.95 176.236 26.53C176.746 27.11 177.001 27.9 177.001 28.9C177.001 29.59 176.916 30.25 176.746 30.88C176.586 31.51 176.336 32.07 175.996 32.56C175.656 33.05 175.226 33.44 174.706 33.73C174.186 34.01 173.571 34.15 172.861 34.15ZM173.026 32.35C173.366 32.35 173.666 32.185 173.926 31.855C174.196 31.525 174.406 31.1 174.556 30.58C174.706 30.05 174.781 29.49 174.781 28.9C174.781 28.49 174.711 28.15 174.571 27.88C174.431 27.6 174.181 27.46 173.821 27.46C173.531 27.46 173.271 27.575 173.041 27.805C172.821 28.025 172.636 28.315 172.486 28.675C172.336 29.035 172.221 29.42 172.141 29.83C172.061 30.24 172.021 30.63 172.021 31C172.021 31.9 172.356 32.35 173.026 32.35ZM181.485 34.15C180.755 34.15 180.155 34.01 179.685 33.73C179.215 33.44 178.87 33.05 178.65 32.56C178.43 32.07 178.32 31.52 178.32 30.91C178.32 29.97 178.47 29.16 178.77 28.48C179.07 27.79 179.485 27.255 180.015 26.875C180.555 26.495 181.17 26.305 181.86 26.305C182.37 26.305 182.79 26.435 183.12 26.695C183.45 26.955 183.71 27.27 183.9 27.64H183.96C183.97 27.56 183.975 27.475 183.975 27.385C183.975 27.285 183.975 27.21 183.975 27.16C183.975 26.18 183.82 25.465 183.51 25.015C183.21 24.555 182.72 24.325 182.04 24.325C181.81 24.325 181.56 24.355 181.29 24.415C181.02 24.465 180.775 24.535 180.555 24.625L180.09 22.885C180.41 22.765 180.765 22.675 181.155 22.615C181.545 22.555 181.955 22.525 182.385 22.525C183.285 22.525 184.015 22.715 184.575 23.095C185.135 23.475 185.545 24.015 185.805 24.715C186.065 25.415 186.195 26.245 186.195 27.205C186.195 28.055 186.11 28.89 185.94 29.71C185.77 30.53 185.495 31.275 185.115 31.945C184.745 32.615 184.26 33.15 183.66 33.55C183.07 33.95 182.345 34.15 181.485 34.15ZM181.605 32.35C182.025 32.35 182.375 32.195 182.655 31.885C182.935 31.575 183.16 31.175 183.33 30.685C183.5 30.195 183.625 29.675 183.705 29.125C183.605 28.805 183.445 28.54 183.225 28.33C183.015 28.11 182.735 28 182.385 28C181.815 28 181.365 28.275 181.035 28.825C180.705 29.375 180.54 30.095 180.54 30.985C180.54 31.415 180.63 31.75 180.81 31.99C181 32.23 181.265 32.35 181.605 32.35ZM190.569 34.15C189.609 34.15 188.829 33.89 188.229 33.37C187.629 32.84 187.329 32.045 187.329 30.985C187.329 30.295 187.424 29.635 187.614 29.005C187.814 28.365 188.104 27.795 188.484 27.295C188.874 26.795 189.354 26.4 189.924 26.11C190.494 25.81 191.154 25.66 191.904 25.66C192.824 25.66 193.509 25.87 193.959 26.29C194.419 26.71 194.649 27.245 194.649 27.895C194.649 28.755 194.259 29.445 193.479 29.965C192.709 30.485 191.529 30.745 189.939 30.745H189.564C189.554 30.805 189.549 30.86 189.549 30.91C189.549 30.95 189.549 30.995 189.549 31.045C189.549 31.485 189.674 31.835 189.924 32.095C190.184 32.355 190.544 32.485 191.004 32.485C191.434 32.485 191.824 32.435 192.174 32.335C192.524 32.235 192.939 32.075 193.419 31.855V33.52C192.989 33.73 192.554 33.89 192.114 34C191.674 34.1 191.159 34.15 190.569 34.15ZM190.134 29.26C190.984 29.26 191.594 29.13 191.964 28.87C192.344 28.6 192.534 28.29 192.534 27.94C192.534 27.48 192.279 27.25 191.769 27.25C191.499 27.25 191.229 27.335 190.959 27.505C190.689 27.675 190.449 27.91 190.239 28.21C190.039 28.51 189.894 28.86 189.804 29.26H190.134ZM200.554 24.91C199.744 24.91 199.119 24.8 198.679 24.58C198.239 24.36 197.934 24.075 197.764 23.725C197.604 23.375 197.524 23.01 197.524 22.63C197.524 22.57 197.524 22.51 197.524 22.45C197.534 22.39 197.544 22.335 197.554 22.285H199.504C199.494 22.365 199.489 22.43 199.489 22.48C199.489 22.53 199.489 22.58 199.489 22.63C199.489 22.99 199.599 23.25 199.819 23.41C200.039 23.57 200.344 23.65 200.734 23.65C201.184 23.65 201.544 23.55 201.814 23.35C202.094 23.15 202.294 22.795 202.414 22.285H204.409C204.279 22.815 204.069 23.28 203.779 23.68C203.499 24.07 203.099 24.375 202.579 24.595C202.069 24.805 201.394 24.91 200.554 24.91ZM197.914 34.15C197.214 34.15 196.689 33.94 196.339 33.52C195.999 33.09 195.829 32.515 195.829 31.795C195.829 31.615 195.844 31.385 195.874 31.105C195.904 30.815 195.949 30.525 196.009 30.235L196.939 25.81H199.144L198.139 30.595C198.059 30.945 198.019 31.235 198.019 31.465C198.019 32.065 198.284 32.365 198.814 32.365C199.154 32.365 199.454 32.225 199.714 31.945C199.984 31.655 200.219 31.27 200.419 30.79C200.619 30.31 200.779 29.78 200.899 29.2L201.619 25.81H203.824L202.084 34H200.404L200.554 32.485H200.479C200.169 32.975 199.804 33.375 199.384 33.685C198.974 33.995 198.484 34.15 197.914 34.15ZM203.742 36.2485L205.873 32.0664H207.638L204.782 36.2485H203.742ZM215.42 34.15C214.92 34.15 214.455 34.075 214.025 33.925C213.595 33.775 213.25 33.53 212.99 33.19C212.73 32.84 212.6 32.385 212.6 31.825C212.6 31.375 212.68 31 212.84 30.7C213.01 30.39 213.235 30.135 213.515 29.935C213.795 29.735 214.1 29.57 214.43 29.44C214.77 29.3 215.11 29.175 215.45 29.065C215.94 28.905 216.295 28.77 216.515 28.66C216.735 28.55 216.875 28.445 216.935 28.345C217.005 28.235 217.04 28.1 217.04 27.94C217.04 27.52 216.745 27.31 216.155 27.31C215.815 27.31 215.49 27.36 215.18 27.46C214.87 27.56 214.545 27.695 214.205 27.865L213.665 26.305C214.045 26.125 214.48 25.975 214.97 25.855C215.46 25.725 215.98 25.66 216.53 25.66C217.03 25.66 217.485 25.735 217.895 25.885C218.315 26.025 218.645 26.26 218.885 26.59C219.135 26.91 219.26 27.34 219.26 27.88C219.26 28.34 219.18 28.725 219.02 29.035C218.86 29.335 218.64 29.585 218.36 29.785C218.09 29.985 217.775 30.16 217.415 30.31C217.055 30.45 216.675 30.59 216.275 30.73C215.805 30.89 215.445 31.04 215.195 31.18C214.955 31.32 214.835 31.52 214.835 31.78C214.835 31.99 214.91 32.165 215.06 32.305C215.22 32.445 215.495 32.515 215.885 32.515C216.305 32.515 216.72 32.445 217.13 32.305C217.54 32.165 217.92 32.015 218.27 31.855V33.52C217.86 33.72 217.44 33.875 217.01 33.985C216.58 34.095 216.05 34.15 215.42 34.15ZM223.453 34.15C222.723 34.15 222.123 34.01 221.653 33.73C221.183 33.44 220.838 33.05 220.618 32.56C220.398 32.07 220.288 31.52 220.288 30.91C220.288 29.97 220.438 29.16 220.738 28.48C221.038 27.79 221.453 27.255 221.983 26.875C222.523 26.495 223.138 26.305 223.828 26.305C224.338 26.305 224.758 26.435 225.088 26.695C225.418 26.955 225.678 27.27 225.868 27.64H225.928C225.938 27.56 225.943 27.475 225.943 27.385C225.943 27.285 225.943 27.21 225.943 27.16C225.943 26.18 225.788 25.465 225.478 25.015C225.178 24.555 224.688 24.325 224.008 24.325C223.778 24.325 223.528 24.355 223.258 24.415C222.988 24.465 222.743 24.535 222.523 24.625L222.058 22.885C222.378 22.765 222.733 22.675 223.123 22.615C223.513 22.555 223.923 22.525 224.353 22.525C225.253 22.525 225.983 22.715 226.543 23.095C227.103 23.475 227.513 24.015 227.773 24.715C228.033 25.415 228.163 26.245 228.163 27.205C228.163 28.055 228.078 28.89 227.908 29.71C227.738 30.53 227.463 31.275 227.083 31.945C226.713 32.615 226.228 33.15 225.628 33.55C225.038 33.95 224.313 34.15 223.453 34.15ZM223.573 32.35C223.993 32.35 224.343 32.195 224.623 31.885C224.903 31.575 225.128 31.175 225.298 30.685C225.468 30.195 225.593 29.675 225.673 29.125C225.573 28.805 225.413 28.54 225.193 28.33C224.983 28.11 224.703 28 224.353 28C223.783 28 223.333 28.275 223.003 28.825C222.673 29.375 222.508 30.095 222.508 30.985C222.508 31.415 222.598 31.75 222.778 31.99C222.968 32.23 223.233 32.35 223.573 32.35ZM232.537 34.15C231.577 34.15 230.797 33.89 230.197 33.37C229.597 32.84 229.297 32.045 229.297 30.985C229.297 30.295 229.392 29.635 229.582 29.005C229.782 28.365 230.072 27.795 230.452 27.295C230.842 26.795 231.322 26.4 231.892 26.11C232.462 25.81 233.122 25.66 233.872 25.66C234.792 25.66 235.477 25.87 235.927 26.29C236.387 26.71 236.617 27.245 236.617 27.895C236.617 28.755 236.227 29.445 235.447 29.965C234.677 30.485 233.497 30.745 231.907 30.745H231.532C231.522 30.805 231.517 30.86 231.517 30.91C231.517 30.95 231.517 30.995 231.517 31.045C231.517 31.485 231.642 31.835 231.892 32.095C232.152 32.355 232.512 32.485 232.972 32.485C233.402 32.485 233.792 32.435 234.142 32.335C234.492 32.235 234.907 32.075 235.387 31.855V33.52C234.957 33.73 234.522 33.89 234.082 34C233.642 34.1 233.127 34.15 232.537 34.15ZM232.102 29.26C232.952 29.26 233.562 29.13 233.932 28.87C234.312 28.6 234.502 28.29 234.502 27.94C234.502 27.48 234.247 27.25 233.737 27.25C233.467 27.25 233.197 27.335 232.927 27.505C232.657 27.675 232.417 27.91 232.207 28.21C232.007 28.51 231.862 28.86 231.772 29.26H232.102ZM1.27 56L3.025 47.81H5.245L4.57 50.96H7.12L7.78 47.81H9.985L8.245 56H6.04L6.745 52.625H4.21L3.49 56H1.27ZM13.1382 56.15C12.4382 56.15 11.9132 55.94 11.5632 55.52C11.2232 55.09 11.0532 54.515 11.0532 53.795C11.0532 53.615 11.0682 53.385 11.0982 53.105C11.1282 52.815 11.1732 52.525 11.2332 52.235L12.1632 47.81H14.3682L13.3632 52.595C13.2832 52.945 13.2432 53.235 13.2432 53.465C13.2432 54.065 13.5082 54.365 14.0382 54.365C14.3782 54.365 14.6782 54.225 14.9382 53.945C15.2082 53.655 15.4432 53.27 15.6432 52.79C15.8432 52.31 16.0032 51.78 16.1232 51.2L16.8432 47.81H19.0482L17.3082 56H15.6282L15.7782 54.485H15.7032C15.3932 54.975 15.0282 55.375 14.6082 55.685C14.1982 55.995 13.7082 56.15 13.1382 56.15ZM19.5659 56L21.3209 47.81H23.5259L22.7159 51.62L25.9409 47.81H28.4609L24.9509 51.92L26.9759 56H24.5009L22.6259 52.01L21.7709 56H19.5659ZM28.2378 56L29.9778 47.81H31.6578L31.5078 49.325H31.5678C31.8878 48.835 32.2528 48.435 32.6628 48.125C33.0828 47.815 33.5778 47.66 34.1478 47.66C34.7078 47.66 35.1428 47.81 35.4528 48.11C35.7628 48.4 35.9678 48.805 36.0678 49.325H36.1278C36.4378 48.835 36.8078 48.435 37.2378 48.125C37.6678 47.815 38.1678 47.66 38.7378 47.66C39.4178 47.66 39.9278 47.875 40.2678 48.305C40.6078 48.725 40.7778 49.295 40.7778 50.015C40.7778 50.375 40.7228 50.815 40.6128 51.335L39.6378 56H37.4328L38.4378 51.215C38.5178 50.865 38.5578 50.575 38.5578 50.345C38.5578 49.745 38.3178 49.445 37.8378 49.445C37.5078 49.445 37.2078 49.585 36.9378 49.865C36.6678 50.145 36.4328 50.525 36.2328 51.005C36.0328 51.475 35.8728 52.005 35.7528 52.595L35.0478 56H32.8428L33.8478 51.215C33.9278 50.865 33.9678 50.575 33.9678 50.345C33.9678 49.745 33.7278 49.445 33.2478 49.445C32.9178 49.445 32.6178 49.59 32.3478 49.88C32.0778 50.16 31.8428 50.54 31.6428 51.02C31.4528 51.5 31.2928 52.03 31.1628 52.61L30.4428 56H28.2378ZM45.3419 56.15C44.7319 56.15 44.1869 56.025 43.7069 55.775C43.2369 55.515 42.8669 55.15 42.5969 54.68C42.3369 54.21 42.2069 53.65 42.2069 53C42.2069 52.28 42.2969 51.6 42.4769 50.96C42.6569 50.31 42.9269 49.74 43.2869 49.25C43.6469 48.75 44.0969 48.36 44.6369 48.08C45.1869 47.8 45.8269 47.66 46.5569 47.66C47.5069 47.66 48.2619 47.945 48.8219 48.515C49.3819 49.085 49.6619 49.88 49.6619 50.9C49.6619 51.59 49.5769 52.25 49.4069 52.88C49.2369 53.51 48.9719 54.07 48.6119 54.56C48.2619 55.05 47.8119 55.44 47.2619 55.73C46.7219 56.01 46.0819 56.15 45.3419 56.15ZM45.5219 54.35C45.9319 54.35 46.2769 54.185 46.5569 53.855C46.8469 53.525 47.0669 53.1 47.2169 52.58C47.3669 52.05 47.4419 51.49 47.4419 50.9C47.4419 50.49 47.3619 50.15 47.2019 49.88C47.0519 49.6 46.7819 49.46 46.3919 49.46C46.0619 49.46 45.7719 49.575 45.5219 49.805C45.2719 50.025 45.0669 50.315 44.9069 50.675C44.7469 51.035 44.6269 51.42 44.5469 51.83C44.4669 52.24 44.4269 52.63 44.4269 53C44.4269 53.9 44.7919 54.35 45.5219 54.35ZM54.2827 56L56.0377 47.81H58.2577L57.5827 50.96H60.1327L60.7927 47.81H62.9977L61.2577 56H59.0527L59.7577 52.625H57.2227L56.5027 56H54.2827ZM67.1559 56.15C66.1959 56.15 65.4159 55.89 64.8159 55.37C64.2159 54.84 63.9159 54.045 63.9159 52.985C63.9159 52.295 64.0109 51.635 64.2009 51.005C64.4009 50.365 64.6909 49.795 65.0709 49.295C65.4609 48.795 65.9409 48.4 66.5109 48.11C67.0809 47.81 67.7409 47.66 68.4909 47.66C69.4109 47.66 70.0959 47.87 70.5459 48.29C71.0059 48.71 71.2359 49.245 71.2359 49.895C71.2359 50.755 70.8459 51.445 70.0659 51.965C69.2959 52.485 68.1159 52.745 66.5259 52.745H66.1509C66.1409 52.805 66.1359 52.86 66.1359 52.91C66.1359 52.95 66.1359 52.995 66.1359 53.045C66.1359 53.485 66.2609 53.835 66.5109 54.095C66.7709 54.355 67.1309 54.485 67.5909 54.485C68.0209 54.485 68.4109 54.435 68.7609 54.335C69.1109 54.235 69.5259 54.075 70.0059 53.855V55.52C69.5759 55.73 69.1409 55.89 68.7009 56C68.2609 56.1 67.7459 56.15 67.1559 56.15ZM66.7209 51.26C67.5709 51.26 68.1809 51.13 68.5509 50.87C68.9309 50.6 69.1209 50.29 69.1209 49.94C69.1209 49.48 68.8659 49.25 68.3559 49.25C68.0859 49.25 67.8159 49.335 67.5459 49.505C67.2759 49.675 67.0359 49.91 66.8259 50.21C66.6259 50.51 66.4809 50.86 66.3909 51.26H66.7209ZM79.4519 56.15C78.3319 56.15 77.4669 55.865 76.8569 55.295C76.2569 54.715 75.9569 53.895 75.9569 52.835C75.9569 52.155 76.0519 51.505 76.2419 50.885C76.4419 50.265 76.7319 49.715 77.1119 49.235C77.4919 48.745 77.9619 48.36 78.5219 48.08C79.0919 47.8 79.7519 47.66 80.5019 47.66C81.3819 47.66 82.0919 47.85 82.6319 48.23C83.1819 48.61 83.4569 49.155 83.4569 49.865C83.4569 50.475 83.2869 50.925 82.9469 51.215C82.6169 51.505 82.1969 51.71 81.6869 51.83V51.89C82.0369 51.99 82.3419 52.17 82.6019 52.43C82.8619 52.68 82.9919 53.045 82.9919 53.525C82.9919 53.985 82.8669 54.415 82.6169 54.815C82.3669 55.215 81.9819 55.54 81.4619 55.79C80.9419 56.03 80.2719 56.15 79.4519 56.15ZM79.9469 51.005C80.3669 51.005 80.6919 50.92 80.9219 50.75C81.1619 50.58 81.2819 50.325 81.2819 49.985C81.2819 49.755 81.2019 49.575 81.0419 49.445C80.8819 49.315 80.6719 49.25 80.4119 49.25C79.9819 49.25 79.5969 49.41 79.2569 49.73C78.9269 50.05 78.6669 50.475 78.4769 51.005H79.9469ZM79.4819 54.605C79.8919 54.605 80.2069 54.5 80.4269 54.29C80.6569 54.08 80.7719 53.81 80.7719 53.48C80.7719 53.16 80.6519 52.92 80.4119 52.76C80.1819 52.6 79.7919 52.52 79.2419 52.52H78.1769C78.1669 52.59 78.1619 52.665 78.1619 52.745C78.1619 52.825 78.1619 52.905 78.1619 52.985C78.1619 53.565 78.2869 53.98 78.5369 54.23C78.7969 54.48 79.1119 54.605 79.4819 54.605ZM87.7955 56.15C86.8355 56.15 86.0555 55.89 85.4555 55.37C84.8555 54.84 84.5555 54.045 84.5555 52.985C84.5555 52.295 84.6505 51.635 84.8405 51.005C85.0405 50.365 85.3305 49.795 85.7105 49.295C86.1005 48.795 86.5805 48.4 87.1505 48.11C87.7205 47.81 88.3805 47.66 89.1305 47.66C90.0505 47.66 90.7355 47.87 91.1855 48.29C91.6455 48.71 91.8755 49.245 91.8755 49.895C91.8755 50.755 91.4855 51.445 90.7055 51.965C89.9355 52.485 88.7555 52.745 87.1655 52.745H86.7905C86.7805 52.805 86.7755 52.86 86.7755 52.91C86.7755 52.95 86.7755 52.995 86.7755 53.045C86.7755 53.485 86.9005 53.835 87.1505 54.095C87.4105 54.355 87.7705 54.485 88.2305 54.485C88.6605 54.485 89.0505 54.435 89.4005 54.335C89.7505 54.235 90.1655 54.075 90.6455 53.855V55.52C90.2155 55.73 89.7805 55.89 89.3405 56C88.9005 56.1 88.3855 56.15 87.7955 56.15ZM87.3605 51.26C88.2105 51.26 88.8205 51.13 89.1905 50.87C89.5705 50.6 89.7605 50.29 89.7605 49.94C89.7605 49.48 89.5055 49.25 88.9955 49.25C88.7255 49.25 88.4555 49.335 88.1855 49.505C87.9155 49.675 87.6755 49.91 87.4655 50.21C87.2655 50.51 87.1205 50.86 87.0305 51.26H87.3605ZM96.0701 56.15C95.3401 56.15 94.7401 56.01 94.2701 55.73C93.8001 55.44 93.4551 55.05 93.2351 54.56C93.0151 54.07 92.9051 53.52 92.9051 52.91C92.9051 51.97 93.0551 51.16 93.3551 50.48C93.6551 49.79 94.0701 49.255 94.6001 48.875C95.1401 48.495 95.7551 48.305 96.4451 48.305C96.9551 48.305 97.3751 48.435 97.7051 48.695C98.0351 48.955 98.2951 49.27 98.4851 49.64H98.5451C98.5551 49.56 98.5601 49.475 98.5601 49.385C98.5601 49.285 98.5601 49.21 98.5601 49.16C98.5601 48.18 98.4051 47.465 98.0951 47.015C97.7951 46.555 97.3051 46.325 96.6251 46.325C96.3951 46.325 96.1451 46.355 95.8751 46.415C95.6051 46.465 95.3601 46.535 95.1401 46.625L94.6751 44.885C94.9951 44.765 95.3501 44.675 95.7401 44.615C96.1301 44.555 96.5401 44.525 96.9701 44.525C97.8701 44.525 98.6001 44.715 99.1601 45.095C99.7201 45.475 100.13 46.015 100.39 46.715C100.65 47.415 100.78 48.245 100.78 49.205C100.78 50.055 100.695 50.89 100.525 51.71C100.355 52.53 100.08 53.275 99.7001 53.945C99.3301 54.615 98.8451 55.15 98.2451 55.55C97.6551 55.95 96.9301 56.15 96.0701 56.15ZM96.1901 54.35C96.6101 54.35 96.9601 54.195 97.2401 53.885C97.5201 53.575 97.7451 53.175 97.9151 52.685C98.0851 52.195 98.2101 51.675 98.2901 51.125C98.1901 50.805 98.0301 50.54 97.8101 50.33C97.6001 50.11 97.3201 50 96.9701 50C96.4001 50 95.9501 50.275 95.6201 50.825C95.2901 51.375 95.1251 52.095 95.1251 52.985C95.1251 53.415 95.2151 53.75 95.3951 53.99C95.5851 54.23 95.8501 54.35 96.1901 54.35ZM105.154 56.15C104.194 56.15 103.414 55.89 102.814 55.37C102.214 54.84 101.914 54.045 101.914 52.985C101.914 52.295 102.009 51.635 102.199 51.005C102.399 50.365 102.689 49.795 103.069 49.295C103.459 48.795 103.939 48.4 104.509 48.11C105.079 47.81 105.739 47.66 106.489 47.66C107.409 47.66 108.094 47.87 108.544 48.29C109.004 48.71 109.234 49.245 109.234 49.895C109.234 50.755 108.844 51.445 108.064 51.965C107.294 52.485 106.114 52.745 104.524 52.745H104.149C104.139 52.805 104.134 52.86 104.134 52.91C104.134 52.95 104.134 52.995 104.134 53.045C104.134 53.485 104.259 53.835 104.509 54.095C104.769 54.355 105.129 54.485 105.589 54.485C106.019 54.485 106.409 54.435 106.759 54.335C107.109 54.235 107.524 54.075 108.004 53.855V55.52C107.574 55.73 107.139 55.89 106.699 56C106.259 56.1 105.744 56.15 105.154 56.15ZM104.719 51.26C105.569 51.26 106.179 51.13 106.549 50.87C106.929 50.6 107.119 50.29 107.119 49.94C107.119 49.48 106.864 49.25 106.354 49.25C106.084 49.25 105.814 49.335 105.544 49.505C105.274 49.675 105.034 49.91 104.824 50.21C104.624 50.51 104.479 50.86 104.389 51.26H104.719ZM109.874 56L111.614 47.81H113.294L113.144 49.325H113.204C113.524 48.835 113.889 48.435 114.299 48.125C114.719 47.815 115.214 47.66 115.784 47.66C116.344 47.66 116.779 47.81 117.089 48.11C117.399 48.4 117.604 48.805 117.704 49.325H117.764C118.074 48.835 118.444 48.435 118.874 48.125C119.304 47.815 119.804 47.66 120.374 47.66C121.054 47.66 121.564 47.875 121.904 48.305C122.244 48.725 122.414 49.295 122.414 50.015C122.414 50.375 122.359 50.815 122.249 51.335L121.274 56H119.069L120.074 51.215C120.154 50.865 120.194 50.575 120.194 50.345C120.194 49.745 119.954 49.445 119.474 49.445C119.144 49.445 118.844 49.585 118.574 49.865C118.304 50.145 118.069 50.525 117.869 51.005C117.669 51.475 117.509 52.005 117.389 52.595L116.684 56H114.479L115.484 51.215C115.564 50.865 115.604 50.575 115.604 50.345C115.604 49.745 115.364 49.445 114.884 49.445C114.554 49.445 114.254 49.59 113.984 49.88C113.714 50.16 113.479 50.54 113.279 51.02C113.089 51.5 112.929 52.03 112.799 52.61L112.079 56H109.874ZM130.579 56.15C130.019 56.15 129.504 56.05 129.034 55.85C128.574 55.64 128.209 55.315 127.939 54.875C127.669 54.435 127.534 53.855 127.534 53.135C127.534 52.395 127.629 51.7 127.819 51.05C128.009 50.39 128.289 49.805 128.659 49.295C129.029 48.785 129.484 48.385 130.024 48.095C130.564 47.805 131.179 47.66 131.869 47.66C132.359 47.66 132.794 47.705 133.174 47.795C133.564 47.885 133.929 48.015 134.269 48.185L133.594 49.865C133.334 49.755 133.074 49.66 132.814 49.58C132.564 49.49 132.279 49.445 131.959 49.445C131.499 49.445 131.104 49.62 130.774 49.97C130.444 50.31 130.194 50.75 130.024 51.29C129.854 51.82 129.769 52.375 129.769 52.955C129.769 53.415 129.879 53.765 130.099 54.005C130.319 54.245 130.629 54.365 131.029 54.365C131.399 54.365 131.739 54.31 132.049 54.2C132.369 54.08 132.699 53.935 133.039 53.765V55.565C132.699 55.745 132.329 55.89 131.929 56C131.539 56.1 131.089 56.15 130.579 56.15ZM138.025 56.15C137.065 56.15 136.285 55.89 135.685 55.37C135.085 54.84 134.785 54.045 134.785 52.985C134.785 52.295 134.88 51.635 135.07 51.005C135.27 50.365 135.56 49.795 135.94 49.295C136.33 48.795 136.81 48.4 137.38 48.11C137.95 47.81 138.61 47.66 139.36 47.66C140.28 47.66 140.965 47.87 141.415 48.29C141.875 48.71 142.105 49.245 142.105 49.895C142.105 50.755 141.715 51.445 140.935 51.965C140.165 52.485 138.985 52.745 137.395 52.745H137.02C137.01 52.805 137.005 52.86 137.005 52.91C137.005 52.95 137.005 52.995 137.005 53.045C137.005 53.485 137.13 53.835 137.38 54.095C137.64 54.355 138 54.485 138.46 54.485C138.89 54.485 139.28 54.435 139.63 54.335C139.98 54.235 140.395 54.075 140.875 53.855V55.52C140.445 55.73 140.01 55.89 139.57 56C139.13 56.1 138.615 56.15 138.025 56.15ZM137.59 51.26C138.44 51.26 139.05 51.13 139.42 50.87C139.8 50.6 139.99 50.29 139.99 49.94C139.99 49.48 139.735 49.25 139.225 49.25C138.955 49.25 138.685 49.335 138.415 49.505C138.145 49.675 137.905 49.91 137.695 50.21C137.495 50.51 137.35 50.86 137.26 51.26H137.59ZM146.3 56.15C145.38 56.15 144.645 55.865 144.095 55.295C143.545 54.725 143.27 53.835 143.27 52.625C143.27 51.895 143.345 51.165 143.495 50.435C143.645 49.695 143.865 49 144.155 48.35C144.455 47.69 144.83 47.11 145.28 46.61C145.73 46.1 146.255 45.71 146.855 45.44C147.215 45.28 147.665 45.145 148.205 45.035C148.755 44.915 149.325 44.815 149.915 44.735C150.505 44.655 151.045 44.585 151.535 44.525L151.76 46.415C151.45 46.455 151.1 46.505 150.71 46.565C150.33 46.615 149.955 46.67 149.585 46.73C149.215 46.78 148.89 46.835 148.61 46.895C148.16 46.985 147.76 47.13 147.41 47.33C147.06 47.52 146.765 47.795 146.525 48.155C146.285 48.515 146.085 49 145.925 49.61L145.97 49.625C146.23 49.305 146.56 49.015 146.96 48.755C147.37 48.495 147.85 48.365 148.4 48.365C149.12 48.365 149.66 48.605 150.02 49.085C150.39 49.565 150.575 50.225 150.575 51.065C150.575 51.685 150.49 52.3 150.32 52.91C150.15 53.51 149.89 54.055 149.54 54.545C149.19 55.035 148.745 55.425 148.205 55.715C147.675 56.005 147.04 56.15 146.3 56.15ZM146.51 54.335C146.87 54.335 147.185 54.175 147.455 53.855C147.735 53.535 147.955 53.13 148.115 52.64C148.275 52.14 148.355 51.64 148.355 51.14C148.355 50.79 148.285 50.515 148.145 50.315C148.015 50.115 147.805 50.015 147.515 50.015C147.275 50.015 147.035 50.085 146.795 50.225C146.565 50.365 146.355 50.535 146.165 50.735C145.975 50.925 145.815 51.105 145.685 51.275C145.645 51.485 145.605 51.72 145.565 51.98C145.525 52.23 145.505 52.47 145.505 52.7C145.505 53.19 145.58 53.585 145.73 53.885C145.89 54.185 146.15 54.335 146.51 54.335ZM152.209 56.15C151.769 56.15 151.399 56.09 151.099 55.97V54.155C151.179 54.185 151.264 54.215 151.354 54.245C151.454 54.265 151.559 54.275 151.669 54.275C151.869 54.275 152.034 54.22 152.164 54.11C152.294 53.99 152.409 53.85 152.509 53.69C152.769 53.27 152.994 52.96 153.184 52.76C153.374 52.55 153.614 52.4 153.904 52.31C153.574 52.17 153.299 51.965 153.079 51.695C152.859 51.425 152.749 51.055 152.749 50.585C152.749 49.935 152.909 49.405 153.229 48.995C153.549 48.585 153.979 48.285 154.519 48.095C155.059 47.905 155.649 47.81 156.289 47.81H159.709L157.984 56H155.779L156.439 52.955H155.989C155.669 52.955 155.419 53.06 155.239 53.27C155.059 53.47 154.894 53.725 154.744 54.035C154.604 54.345 154.429 54.67 154.219 55.01C154.019 55.32 153.764 55.59 153.454 55.82C153.144 56.04 152.729 56.15 152.209 56.15ZM156.079 51.455H156.754L157.189 49.385H156.259C155.899 49.385 155.599 49.485 155.359 49.685C155.119 49.885 154.999 50.175 154.999 50.555C154.999 50.825 155.084 51.045 155.254 51.215C155.434 51.375 155.709 51.455 156.079 51.455ZM167.826 56.15C166.706 56.15 165.841 55.865 165.231 55.295C164.631 54.715 164.331 53.895 164.331 52.835C164.331 52.155 164.426 51.505 164.616 50.885C164.816 50.265 165.106 49.715 165.486 49.235C165.866 48.745 166.336 48.36 166.896 48.08C167.466 47.8 168.126 47.66 168.876 47.66C169.756 47.66 170.466 47.85 171.006 48.23C171.556 48.61 171.831 49.155 171.831 49.865C171.831 50.475 171.661 50.925 171.321 51.215C170.991 51.505 170.571 51.71 170.061 51.83V51.89C170.411 51.99 170.716 52.17 170.976 52.43C171.236 52.68 171.366 53.045 171.366 53.525C171.366 53.985 171.241 54.415 170.991 54.815C170.741 55.215 170.356 55.54 169.836 55.79C169.316 56.03 168.646 56.15 167.826 56.15ZM168.321 51.005C168.741 51.005 169.066 50.92 169.296 50.75C169.536 50.58 169.656 50.325 169.656 49.985C169.656 49.755 169.576 49.575 169.416 49.445C169.256 49.315 169.046 49.25 168.786 49.25C168.356 49.25 167.971 49.41 167.631 49.73C167.301 50.05 167.041 50.475 166.851 51.005H168.321ZM167.856 54.605C168.266 54.605 168.581 54.5 168.801 54.29C169.031 54.08 169.146 53.81 169.146 53.48C169.146 53.16 169.026 52.92 168.786 52.76C168.556 52.6 168.166 52.52 167.616 52.52H166.551C166.541 52.59 166.536 52.665 166.536 52.745C166.536 52.825 166.536 52.905 166.536 52.985C166.536 53.565 166.661 53.98 166.911 54.23C167.171 54.48 167.486 54.605 167.856 54.605ZM175.9 56.15C175.18 56.15 174.61 56.045 174.19 55.835C173.78 55.625 173.485 55.34 173.305 54.98C173.135 54.61 173.05 54.205 173.05 53.765C173.05 53.635 173.06 53.45 173.08 53.21C173.1 52.96 173.145 52.685 173.215 52.385L174.205 47.81H176.41L175.69 51.14C175.89 51.09 176.115 51.05 176.365 51.02C176.615 50.99 176.885 50.975 177.175 50.975C177.845 50.975 178.395 51.17 178.825 51.56C179.255 51.95 179.47 52.48 179.47 53.15C179.47 53.66 179.345 54.145 179.095 54.605C178.855 55.055 178.47 55.425 177.94 55.715C177.42 56.005 176.74 56.15 175.9 56.15ZM180.115 56L181.855 47.81H184.06L182.32 56H180.115ZM176.08 54.605C176.43 54.605 176.715 54.495 176.935 54.275C177.155 54.055 177.265 53.76 177.265 53.39C177.265 52.81 176.96 52.52 176.35 52.52C176.07 52.52 175.75 52.565 175.39 52.655C175.33 52.915 175.29 53.11 175.27 53.24C175.25 53.36 175.24 53.515 175.24 53.705C175.24 54.025 175.325 54.255 175.495 54.395C175.665 54.535 175.86 54.605 176.08 54.605ZM187.221 56.15C186.671 56.15 186.151 56.095 185.661 55.985C185.181 55.875 184.791 55.745 184.491 55.595V53.78C184.821 53.94 185.211 54.09 185.661 54.23C186.121 54.36 186.616 54.425 187.146 54.425C187.666 54.425 188.111 54.35 188.481 54.2C188.851 54.05 189.036 53.77 189.036 53.36C189.036 52.79 188.606 52.505 187.746 52.505H186.456L186.786 50.96H187.701C188.321 50.96 188.786 50.895 189.096 50.765C189.416 50.635 189.576 50.39 189.576 50.03C189.576 49.8 189.491 49.625 189.321 49.505C189.161 49.375 188.871 49.31 188.451 49.31C188.121 49.31 187.751 49.365 187.341 49.475C186.941 49.585 186.541 49.725 186.141 49.895L185.616 48.29C186.096 48.1 186.601 47.95 187.131 47.84C187.661 47.72 188.231 47.66 188.841 47.66C189.401 47.66 189.901 47.73 190.341 47.87C190.791 48 191.141 48.215 191.391 48.515C191.651 48.805 191.781 49.195 191.781 49.685C191.781 50.275 191.596 50.725 191.226 51.035C190.866 51.345 190.416 51.57 189.876 51.71V51.77C190.286 51.88 190.621 52.065 190.881 52.325C191.141 52.585 191.271 52.95 191.271 53.42C191.271 54.24 190.946 54.9 190.296 55.4C189.646 55.9 188.621 56.15 187.221 56.15ZM195.807 56.15C195.087 56.15 194.517 56.045 194.097 55.835C193.687 55.625 193.392 55.34 193.212 54.98C193.042 54.61 192.957 54.205 192.957 53.765C192.957 53.635 192.967 53.45 192.987 53.21C193.007 52.96 193.052 52.685 193.122 52.385L194.112 47.81H196.317L195.597 51.14C195.797 51.09 196.022 51.05 196.272 51.02C196.522 50.99 196.792 50.975 197.082 50.975C197.752 50.975 198.302 51.17 198.732 51.56C199.162 51.95 199.377 52.48 199.377 53.15C199.377 53.66 199.252 54.145 199.002 54.605C198.762 55.055 198.377 55.425 197.847 55.715C197.327 56.005 196.647 56.15 195.807 56.15ZM200.022 56L201.762 47.81H203.967L202.227 56H200.022ZM195.987 54.605C196.337 54.605 196.622 54.495 196.842 54.275C197.062 54.055 197.172 53.76 197.172 53.39C197.172 52.81 196.867 52.52 196.257 52.52C195.977 52.52 195.657 52.565 195.297 52.655C195.237 52.915 195.197 53.11 195.177 53.24C195.157 53.36 195.147 53.515 195.147 53.705C195.147 54.025 195.232 54.255 195.402 54.395C195.572 54.535 195.767 54.605 195.987 54.605ZM208.373 56.15C207.253 56.15 206.388 55.865 205.778 55.295C205.178 54.715 204.878 53.895 204.878 52.835C204.878 52.155 204.973 51.505 205.163 50.885C205.363 50.265 205.653 49.715 206.033 49.235C206.413 48.745 206.883 48.36 207.443 48.08C208.013 47.8 208.673 47.66 209.423 47.66C210.303 47.66 211.013 47.85 211.553 48.23C212.103 48.61 212.378 49.155 212.378 49.865C212.378 50.475 212.208 50.925 211.868 51.215C211.538 51.505 211.118 51.71 210.608 51.83V51.89C210.958 51.99 211.263 52.17 211.523 52.43C211.783 52.68 211.913 53.045 211.913 53.525C211.913 53.985 211.788 54.415 211.538 54.815C211.288 55.215 210.903 55.54 210.383 55.79C209.863 56.03 209.193 56.15 208.373 56.15ZM208.868 51.005C209.288 51.005 209.613 50.92 209.843 50.75C210.083 50.58 210.203 50.325 210.203 49.985C210.203 49.755 210.123 49.575 209.963 49.445C209.803 49.315 209.593 49.25 209.333 49.25C208.903 49.25 208.518 49.41 208.178 49.73C207.848 50.05 207.588 50.475 207.398 51.005H208.868ZM208.403 54.605C208.813 54.605 209.128 54.5 209.348 54.29C209.578 54.08 209.693 53.81 209.693 53.48C209.693 53.16 209.573 52.92 209.333 52.76C209.103 52.6 208.713 52.52 208.163 52.52H207.098C207.088 52.59 207.083 52.665 207.083 52.745C207.083 52.825 207.083 52.905 207.083 52.985C207.083 53.565 207.208 53.98 207.458 54.23C207.718 54.48 208.033 54.605 208.403 54.605ZM215.786 56.15C215.396 56.15 215.021 56.055 214.661 55.865C214.311 55.665 214.026 55.35 213.806 54.92C213.586 54.48 213.476 53.9 213.476 53.18C213.476 52.51 213.566 51.85 213.746 51.2C213.926 50.55 214.181 49.96 214.511 49.43C214.841 48.89 215.236 48.46 215.696 48.14C216.166 47.82 216.691 47.66 217.271 47.66C217.791 47.66 218.211 47.77 218.531 47.99C218.861 48.21 219.116 48.5 219.296 48.86H219.356L219.776 47.81H221.471L219.731 56H218.081L218.186 54.935H218.126C217.836 55.295 217.501 55.59 217.121 55.82C216.751 56.04 216.306 56.15 215.786 56.15ZM216.656 54.365C216.956 54.365 217.236 54.245 217.496 54.005C217.756 53.765 217.976 53.455 218.156 53.075C218.346 52.695 218.481 52.295 218.561 51.875C218.631 51.515 218.666 51.105 218.666 50.645C218.666 50.295 218.576 50.01 218.396 49.79C218.216 49.56 217.966 49.445 217.646 49.445C217.376 49.445 217.121 49.555 216.881 49.775C216.651 49.985 216.446 50.265 216.266 50.615C216.096 50.965 215.961 51.355 215.861 51.785C215.761 52.215 215.711 52.645 215.711 53.075C215.711 53.935 216.026 54.365 216.656 54.365ZM229.448 56.15C228.508 56.15 227.773 55.875 227.243 55.325C226.713 54.765 226.448 53.995 226.448 53.015V52.625H224.933L224.213 56H221.993L223.748 47.81H225.968L225.293 50.96H226.703C226.873 50.32 227.128 49.755 227.468 49.265C227.818 48.765 228.253 48.375 228.773 48.095C229.293 47.805 229.903 47.66 230.603 47.66C231.573 47.66 232.313 47.95 232.823 48.53C233.333 49.11 233.588 49.9 233.588 50.9C233.588 51.59 233.503 52.25 233.333 52.88C233.173 53.51 232.923 54.07 232.583 54.56C232.243 55.05 231.813 55.44 231.293 55.73C230.773 56.01 230.158 56.15 229.448 56.15ZM229.613 54.35C229.953 54.35 230.253 54.185 230.513 53.855C230.783 53.525 230.993 53.1 231.143 52.58C231.293 52.05 231.368 51.49 231.368 50.9C231.368 50.49 231.298 50.15 231.158 49.88C231.018 49.6 230.768 49.46 230.408 49.46C230.118 49.46 229.858 49.575 229.628 49.805C229.408 50.025 229.223 50.315 229.073 50.675C228.923 51.035 228.808 51.42 228.728 51.83C228.648 52.24 228.608 52.63 228.608 53C228.608 53.9 228.943 54.35 229.613 54.35ZM245.107 56C244.827 55.87 244.617 55.685 244.477 55.445C244.347 55.195 244.257 54.93 244.207 54.65H244.147C243.837 55.09 243.477 55.45 243.067 55.73C242.657 56.01 242.187 56.15 241.657 56.15C241.097 56.15 240.662 56.005 240.352 55.715C240.052 55.415 239.852 55.005 239.752 54.485H239.692C239.382 54.975 239.007 55.375 238.567 55.685C238.137 55.995 237.637 56.15 237.067 56.15C236.387 56.15 235.877 55.94 235.537 55.52C235.197 55.09 235.027 54.515 235.027 53.795C235.027 53.435 235.082 52.995 235.192 52.475L236.167 47.81H238.372L237.367 52.595C237.287 52.945 237.247 53.235 237.247 53.465C237.247 54.065 237.487 54.365 237.967 54.365C238.307 54.365 238.607 54.225 238.867 53.945C239.137 53.665 239.372 53.285 239.572 52.805C239.772 52.325 239.932 51.795 240.052 51.215L240.757 47.81H242.962L241.957 52.595C241.877 52.945 241.837 53.235 241.837 53.465C241.837 54.065 242.077 54.365 242.557 54.365C242.897 54.365 243.197 54.225 243.457 53.945C243.727 53.655 243.962 53.27 244.162 52.79C244.362 52.31 244.522 51.78 244.642 51.2L245.362 47.81H247.567L246.382 53.405C246.352 53.555 246.337 53.685 246.337 53.795C246.337 54.115 246.487 54.275 246.787 54.275C246.907 54.275 247.022 54.265 247.132 54.245C247.242 54.225 247.347 54.2 247.447 54.17L246.442 58.94H244.402L245.107 56ZM251.961 56.15C251.001 56.15 250.221 55.89 249.621 55.37C249.021 54.84 248.721 54.045 248.721 52.985C248.721 52.295 248.816 51.635 249.006 51.005C249.206 50.365 249.496 49.795 249.876 49.295C250.266 48.795 250.746 48.4 251.316 48.11C251.886 47.81 252.546 47.66 253.296 47.66C254.216 47.66 254.901 47.87 255.351 48.29C255.811 48.71 256.041 49.245 256.041 49.895C256.041 50.755 255.651 51.445 254.871 51.965C254.101 52.485 252.921 52.745 251.331 52.745H250.956C250.946 52.805 250.941 52.86 250.941 52.91C250.941 52.95 250.941 52.995 250.941 53.045C250.941 53.485 251.066 53.835 251.316 54.095C251.576 54.355 251.936 54.485 252.396 54.485C252.826 54.485 253.216 54.435 253.566 54.335C253.916 54.235 254.331 54.075 254.811 53.855V55.52C254.381 55.73 253.946 55.89 253.506 56C253.066 56.1 252.551 56.15 251.961 56.15ZM251.526 51.26C252.376 51.26 252.986 51.13 253.356 50.87C253.736 50.6 253.926 50.29 253.926 49.94C253.926 49.48 253.671 49.25 253.161 49.25C252.891 49.25 252.621 49.335 252.351 49.505C252.081 49.675 251.841 49.91 251.631 50.21C251.431 50.51 251.286 50.86 251.196 51.26H251.526ZM257.143 56L257.56 54.1689H259.083L258.673 56H257.143Z" fill="#FCF7F2"/>
</svg>
