<svg width="263" height="98" viewBox="0 0 263 98" fill="none" xmlns="http://www.w3.org/2000/svg">
<path d="M11.64 16H9.6L5.82 9.8L1.98 16H0.08L4.82 8.56L0.38 1.72H2.38L5.88 7.32L9.4 1.72H11.3L6.88 8.52L11.64 16ZM22.7387 10.62C22.7387 12.3933 22.2854 13.7667 21.3788 14.74C20.4854 15.7133 19.2721 16.2 17.7388 16.2C16.7921 16.2 15.9454 15.9867 15.1988 15.56C14.4654 15.12 13.8854 14.4867 13.4588 13.66C13.0321 12.82 12.8188 11.8067 12.8188 10.62C12.8188 8.84667 13.2654 7.48 14.1588 6.52C15.0521 5.56 16.2654 5.08 17.7988 5.08C18.7721 5.08 19.6254 5.3 20.3588 5.74C21.1054 6.16667 21.6854 6.79333 22.0988 7.62C22.5254 8.43333 22.7387 9.43333 22.7387 10.62ZM14.6388 10.62C14.6388 11.8867 14.8854 12.8933 15.3788 13.64C15.8854 14.3733 16.6854 14.74 17.7788 14.74C18.8588 14.74 19.6521 14.3733 20.1588 13.64C20.6654 12.8933 20.9188 11.8867 20.9188 10.62C20.9188 9.35333 20.6654 8.36 20.1588 7.64C19.6521 6.92 18.8521 6.56 17.7588 6.56C16.6654 6.56 15.8721 6.92 15.3788 7.64C14.8854 8.36 14.6388 9.35333 14.6388 10.62ZM30.6281 5.08C31.9481 5.08 33.0081 5.54 33.8081 6.46C34.6215 7.38 35.0281 8.76667 35.0281 10.62C35.0281 12.4467 34.6215 13.8333 33.8081 14.78C33.0081 15.7267 31.9415 16.2 30.6081 16.2C29.7815 16.2 29.0948 16.0467 28.5481 15.74C28.0148 15.42 27.5948 15.0533 27.2881 14.64H27.1681C27.1948 14.8667 27.2215 15.1533 27.2481 15.5C27.2748 15.8467 27.2881 16.1467 27.2881 16.4V20.8H25.5281V5.28H26.9681L27.2081 6.74H27.2881C27.6081 6.27333 28.0281 5.88 28.5481 5.56C29.0681 5.24 29.7615 5.08 30.6281 5.08ZM30.3081 6.56C29.2148 6.56 28.4415 6.86667 27.9881 7.48C27.5481 8.09333 27.3148 9.02667 27.2881 10.28V10.62C27.2881 11.94 27.5015 12.96 27.9281 13.68C28.3681 14.3867 29.1748 14.74 30.3481 14.74C31.0015 14.74 31.5348 14.56 31.9481 14.2C32.3748 13.84 32.6881 13.3533 32.8881 12.74C33.1015 12.1133 33.2081 11.4 33.2081 10.6C33.2081 9.37333 32.9681 8.39333 32.4881 7.66C32.0215 6.92667 31.2948 6.56 30.3081 6.56ZM47.1528 10.62C47.1528 12.3933 46.6995 13.7667 45.7928 14.74C44.8995 15.7133 43.6861 16.2 42.1528 16.2C41.2061 16.2 40.3595 15.9867 39.6128 15.56C38.8795 15.12 38.2995 14.4867 37.8728 13.66C37.4461 12.82 37.2328 11.8067 37.2328 10.62C37.2328 8.84667 37.6795 7.48 38.5728 6.52C39.4661 5.56 40.6795 5.08 42.2128 5.08C43.1861 5.08 44.0395 5.3 44.7728 5.74C45.5195 6.16667 46.0995 6.79333 46.5128 7.62C46.9395 8.43333 47.1528 9.43333 47.1528 10.62ZM39.0528 10.62C39.0528 11.8867 39.2995 12.8933 39.7928 13.64C40.2995 14.3733 41.0995 14.74 42.1928 14.74C43.2728 14.74 44.0661 14.3733 44.5728 13.64C45.0795 12.8933 45.3328 11.8867 45.3328 10.62C45.3328 9.35333 45.0795 8.36 44.5728 7.64C44.0661 6.92 43.2661 6.56 42.1728 6.56C41.0795 6.56 40.2861 6.92 39.7928 7.64C39.2995 8.36 39.0528 9.35333 39.0528 10.62ZM64.4822 5.28V16H49.9422V5.28H51.7022V14.52H56.3222V5.28H58.0822V14.52H62.7222V5.28H64.4822ZM69.5709 11.82C69.5709 11.98 69.5643 12.22 69.5509 12.54C69.5376 12.86 69.5176 13.18 69.4909 13.5C69.4776 13.82 69.4643 14.0733 69.4509 14.26L75.1909 5.28H77.3509V16H75.7109V9.68C75.7109 9.46667 75.7109 9.18667 75.7109 8.84C75.7243 8.49333 75.7376 8.15333 75.7509 7.82C75.7643 7.47333 75.7776 7.21333 75.7909 7.04L70.0909 16H67.9109V5.28H69.5709V11.82ZM89.4425 0.84C89.3492 1.84 89.0092 2.6 88.4225 3.12C87.8492 3.62667 86.9292 3.88 85.6625 3.88C84.3558 3.88 83.4292 3.62667 82.8825 3.12C82.3492 2.61333 82.0492 1.85333 81.9825 0.84H83.6225C83.6892 1.56 83.8758 2.04667 84.1825 2.3C84.5025 2.54 85.0092 2.66 85.7025 2.66C86.3158 2.66 86.7958 2.53333 87.1425 2.28C87.5025 2.01333 87.7158 1.53333 87.7825 0.84H89.4425ZM82.4225 11.82C82.4225 11.98 82.4158 12.22 82.4025 12.54C82.3892 12.86 82.3692 13.18 82.3425 13.5C82.3292 13.82 82.3158 14.0733 82.3025 14.26L88.0425 5.28H90.2025V16H88.5625V9.68C88.5625 9.46667 88.5625 9.18667 88.5625 8.84C88.5758 8.49333 88.5892 8.15333 88.6025 7.82C88.6158 7.47333 88.6292 7.21333 88.6425 7.04L82.9425 16H80.7625V5.28H82.4225V11.82ZM113.623 5.28V16H99.0828V5.28H100.843V14.52H105.463V5.28H107.223V14.52H111.863V5.28H113.623ZM122.152 5.08C123.472 5.08 124.532 5.54 125.332 6.46C126.145 7.38 126.552 8.76667 126.552 10.62C126.552 12.4467 126.145 13.8333 125.332 14.78C124.532 15.7267 123.465 16.2 122.132 16.2C121.305 16.2 120.618 16.0467 120.072 15.74C119.538 15.42 119.118 15.0533 118.812 14.64H118.692C118.718 14.8667 118.745 15.1533 118.772 15.5C118.798 15.8467 118.812 16.1467 118.812 16.4V20.8H117.052V5.28H118.492L118.732 6.74H118.812C119.132 6.27333 119.552 5.88 120.072 5.56C120.592 5.24 121.285 5.08 122.152 5.08ZM121.832 6.56C120.738 6.56 119.965 6.86667 119.512 7.48C119.072 8.09333 118.838 9.02667 118.812 10.28V10.62C118.812 11.94 119.025 12.96 119.452 13.68C119.892 14.3867 120.698 14.74 121.872 14.74C122.525 14.74 123.058 14.56 123.472 14.2C123.898 13.84 124.212 13.3533 124.412 12.74C124.625 12.1133 124.732 11.4 124.732 10.6C124.732 9.37333 124.492 8.39333 124.012 7.66C123.545 6.92667 122.818 6.56 121.832 6.56ZM131.016 11.82C131.016 11.98 131.01 12.22 130.996 12.54C130.983 12.86 130.963 13.18 130.936 13.5C130.923 13.82 130.91 14.0733 130.896 14.26L136.636 5.28H138.796V16H137.156V9.68C137.156 9.46667 137.156 9.18667 137.156 8.84C137.17 8.49333 137.183 8.15333 137.196 7.82C137.21 7.47333 137.223 7.21333 137.236 7.04L131.536 16H129.356V5.28H131.016V11.82ZM148.608 5.12C149.674 5.21333 150.601 5.49333 151.388 5.96C152.188 6.42667 152.808 7.05333 153.248 7.84C153.688 8.62667 153.908 9.56 153.908 10.64C153.908 12.2533 153.434 13.54 152.488 14.5C151.554 15.46 150.261 16.0133 148.608 16.16V20.8H146.888V16.16C145.834 16.0667 144.908 15.7933 144.108 15.34C143.308 14.8733 142.688 14.2467 142.248 13.46C141.808 12.66 141.588 11.72 141.588 10.64C141.588 9.01333 142.054 7.72 142.988 6.76C143.934 5.8 145.254 5.25333 146.948 5.12V0.799999H148.608V5.12ZM146.948 6.58C145.721 6.7 144.828 7.10667 144.268 7.8C143.708 8.48 143.428 9.42667 143.428 10.64C143.428 11.8533 143.708 12.8067 144.268 13.5C144.841 14.1933 145.734 14.6 146.948 14.72V6.58ZM148.608 14.72C149.808 14.5867 150.688 14.1733 151.248 13.48C151.808 12.7867 152.088 11.84 152.088 10.64C152.088 9.44 151.801 8.5 151.228 7.82C150.668 7.14 149.794 6.73333 148.608 6.6V14.72ZM163.905 6.76H160.405V16H158.665V6.76H155.205V5.28H163.905V6.76ZM168.77 10.18V9.4H188.97V10.18H168.77ZM196.838 16.2C196.225 16.2 195.691 16.1467 195.238 16.04C194.798 15.9467 194.385 15.8067 193.998 15.62V14.1C194.398 14.26 194.831 14.4 195.298 14.52C195.765 14.64 196.291 14.7 196.878 14.7C197.918 14.7 198.745 14.42 199.358 13.86C199.971 13.3 200.311 12.4133 200.378 11.2H195.098V9.76H200.358C200.265 8.66667 199.951 7.86667 199.418 7.36C198.898 6.85333 198.131 6.6 197.118 6.6C196.731 6.6 196.305 6.65333 195.838 6.76C195.385 6.86667 194.978 6.98667 194.618 7.12L194.118 5.7C194.505 5.52667 194.965 5.38 195.498 5.26C196.031 5.14 196.565 5.08 197.098 5.08C198.098 5.08 198.978 5.26667 199.738 5.64C200.511 6.01333 201.111 6.60667 201.538 7.42C201.978 8.23333 202.198 9.30667 202.198 10.64C202.198 11.9067 201.965 12.9533 201.498 13.78C201.045 14.6067 200.411 15.22 199.598 15.62C198.798 16.0067 197.878 16.2 196.838 16.2ZM212.205 6.76H208.705V16H206.965V6.76H203.505V5.28H212.205V6.76ZM223.442 10.62C223.442 12.3933 222.989 13.7667 222.082 14.74C221.189 15.7133 219.975 16.2 218.442 16.2C217.495 16.2 216.649 15.9867 215.902 15.56C215.169 15.12 214.589 14.4867 214.162 13.66C213.735 12.82 213.522 11.8067 213.522 10.62C213.522 8.84667 213.969 7.48 214.862 6.52C215.755 5.56 216.969 5.08 218.502 5.08C219.475 5.08 220.329 5.3 221.062 5.74C221.809 6.16667 222.389 6.79333 222.802 7.62C223.229 8.43333 223.442 9.43333 223.442 10.62ZM215.342 10.62C215.342 11.8867 215.589 12.8933 216.082 13.64C216.589 14.3733 217.389 14.74 218.482 14.74C219.562 14.74 220.355 14.3733 220.862 13.64C221.369 12.8933 221.622 11.8867 221.622 10.62C221.622 9.35333 221.369 8.36 220.862 7.64C220.355 6.92 219.555 6.56 218.462 6.56C217.369 6.56 216.575 6.92 216.082 7.64C215.589 8.36 215.342 9.35333 215.342 10.62ZM238.04 5.28H239.96L235.38 10.44L240.34 16H238.3L233.46 10.56V16H231.7V5.28H233.46V10.48L238.04 5.28ZM246.346 5.1C247.653 5.1 248.619 5.38667 249.246 5.96C249.873 6.53333 250.186 7.44667 250.186 8.7V16H248.906L248.566 14.48H248.486C248.019 15.0667 247.526 15.5 247.006 15.78C246.499 16.06 245.793 16.2 244.886 16.2C243.913 16.2 243.106 15.9467 242.466 15.44C241.826 14.92 241.506 14.1133 241.506 13.02C241.506 11.9533 241.926 11.1333 242.766 10.56C243.606 9.97333 244.899 9.65333 246.646 9.6L248.466 9.54V8.9C248.466 8.00667 248.273 7.38667 247.886 7.04C247.499 6.69333 246.953 6.52 246.246 6.52C245.686 6.52 245.153 6.60667 244.646 6.78C244.139 6.94 243.666 7.12667 243.226 7.34L242.686 6.02C243.153 5.76667 243.706 5.55333 244.346 5.38C244.986 5.19333 245.653 5.1 246.346 5.1ZM246.866 10.82C245.533 10.8733 244.606 11.0867 244.086 11.46C243.579 11.8333 243.326 12.36 243.326 13.04C243.326 13.64 243.506 14.08 243.866 14.36C244.239 14.64 244.713 14.78 245.286 14.78C246.193 14.78 246.946 14.5333 247.546 14.04C248.146 13.5333 248.446 12.76 248.446 11.72V10.76L246.866 10.82ZM259.837 5.28H261.757L257.177 10.44L262.137 16H260.097L255.257 10.56V16H253.497V5.28H255.257V10.48L259.837 5.28ZM8.24 31.28V32.76H3.46V42H1.7V31.28H8.24ZM14.4123 31.1C15.719 31.1 16.6857 31.3867 17.3123 31.96C17.939 32.5333 18.2523 33.4467 18.2523 34.7V42H16.9723L16.6323 40.48H16.5523C16.0857 41.0667 15.5923 41.5 15.0723 41.78C14.5657 42.06 13.859 42.2 12.9523 42.2C11.979 42.2 11.1723 41.9467 10.5323 41.44C9.89234 40.92 9.57234 40.1133 9.57234 39.02C9.57234 37.9533 9.99234 37.1333 10.8323 36.56C11.6723 35.9733 12.9657 35.6533 14.7123 35.6L16.5323 35.54V34.9C16.5323 34.0067 16.339 33.3867 15.9523 33.04C15.5657 32.6933 15.019 32.52 14.3123 32.52C13.7523 32.52 13.219 32.6067 12.7123 32.78C12.2057 32.94 11.7323 33.1267 11.2923 33.34L10.7523 32.02C11.219 31.7667 11.7723 31.5533 12.4123 31.38C13.0523 31.1933 13.719 31.1 14.4123 31.1ZM14.9323 36.82C13.599 36.8733 12.6723 37.0867 12.1523 37.46C11.6457 37.8333 11.3923 38.36 11.3923 39.04C11.3923 39.64 11.5723 40.08 11.9323 40.36C12.3057 40.64 12.779 40.78 13.3523 40.78C14.259 40.78 15.0123 40.5333 15.6123 40.04C16.2123 39.5333 16.5123 38.76 16.5123 37.72V36.76L14.9323 36.82ZM26.6633 31.08C27.9833 31.08 29.0433 31.54 29.8433 32.46C30.6566 33.38 31.0633 34.7667 31.0633 36.62C31.0633 38.4467 30.6566 39.8333 29.8433 40.78C29.0433 41.7267 27.9766 42.2 26.6433 42.2C25.8166 42.2 25.1299 42.0467 24.5833 41.74C24.0499 41.42 23.6299 41.0533 23.3233 40.64H23.2033C23.2299 40.8667 23.2566 41.1533 23.2833 41.5C23.3099 41.8467 23.3233 42.1467 23.3233 42.4V46.8H21.5633V31.28H23.0033L23.2433 32.74H23.3233C23.6433 32.2733 24.0633 31.88 24.5833 31.56C25.1033 31.24 25.7966 31.08 26.6633 31.08ZM26.3433 32.56C25.2499 32.56 24.4766 32.8667 24.0233 33.48C23.5833 34.0933 23.3499 35.0267 23.3233 36.28V36.62C23.3233 37.94 23.5366 38.96 23.9633 39.68C24.4033 40.3867 25.2099 40.74 26.3833 40.74C27.0366 40.74 27.5699 40.56 27.9833 40.2C28.4099 39.84 28.7233 39.3533 28.9233 38.74C29.1366 38.1133 29.2433 37.4 29.2433 36.6C29.2433 35.3733 29.0033 34.3933 28.5233 33.66C28.0566 32.9267 27.3299 32.56 26.3433 32.56ZM45.368 31.28V42H43.788V35.16C43.788 34.88 43.7946 34.5867 43.808 34.28C43.8346 33.9733 43.8613 33.6733 43.888 33.38H43.828L40.328 42H38.848L35.448 33.38H35.388C35.428 33.98 35.448 34.5933 35.448 35.22V42H33.868V31.28H36.208L39.588 39.9L43.028 31.28H45.368ZM58.1098 36.62C58.1098 38.3933 57.6565 39.7667 56.7498 40.74C55.8565 41.7133 54.6432 42.2 53.1098 42.2C52.1632 42.2 51.3165 41.9867 50.5698 41.56C49.8365 41.12 49.2565 40.4867 48.8298 39.66C48.4032 38.82 48.1898 37.8067 48.1898 36.62C48.1898 34.8467 48.6365 33.48 49.5298 32.52C50.4232 31.56 51.6365 31.08 53.1698 31.08C54.1432 31.08 54.9965 31.3 55.7298 31.74C56.4765 32.1667 57.0565 32.7933 57.4698 33.62C57.8965 34.4333 58.1098 35.4333 58.1098 36.62ZM50.0098 36.62C50.0098 37.8867 50.2565 38.8933 50.7498 39.64C51.2565 40.3733 52.0565 40.74 53.1498 40.74C54.2298 40.74 55.0232 40.3733 55.5298 39.64C56.0365 38.8933 56.2898 37.8867 56.2898 36.62C56.2898 35.3533 56.0365 34.36 55.5298 33.64C55.0232 32.92 54.2232 32.56 53.1298 32.56C52.0365 32.56 51.2432 32.92 50.7498 33.64C50.2565 34.36 50.0098 35.3533 50.0098 36.62ZM62.6592 31.28V35.74H68.4792V31.28H70.2392V42H68.4792V37.22H62.6592V42H60.8992V31.28H62.6592ZM75.2936 37.82C75.2936 37.98 75.2869 38.22 75.2736 38.54C75.2603 38.86 75.2403 39.18 75.2136 39.5C75.2003 39.82 75.1869 40.0733 75.1736 40.26L80.9136 31.28H83.0736V42H81.4336V35.68C81.4336 35.4667 81.4336 35.1867 81.4336 34.84C81.4469 34.4933 81.4603 34.1533 81.4736 33.82C81.4869 33.4733 81.5003 33.2133 81.5136 33.04L75.8136 42H73.6336V31.28H75.2936V37.82ZM88.0252 35.18C88.0252 36.4067 88.7118 37.02 90.0852 37.02C90.7518 37.02 91.3585 36.92 91.9052 36.72C92.4518 36.5067 93.0118 36.2267 93.5852 35.88V31.28H95.3452V42H93.5852V37.22C92.9852 37.6067 92.3918 37.9133 91.8052 38.14C91.2318 38.3533 90.5385 38.46 89.7252 38.46C88.6318 38.46 87.7785 38.1733 87.1652 37.6C86.5652 37.0267 86.2652 36.26 86.2652 35.3V31.28H88.0252V35.18ZM100.511 31.28V35.74H106.331V31.28H108.091V42H106.331V37.22H100.511V42H98.7508V31.28H100.511ZM120.805 36.62C120.805 38.3933 120.352 39.7667 119.445 40.74C118.552 41.7133 117.338 42.2 115.805 42.2C114.858 42.2 114.012 41.9867 113.265 41.56C112.532 41.12 111.952 40.4867 111.525 39.66C111.098 38.82 110.885 37.8067 110.885 36.62C110.885 34.8467 111.332 33.48 112.225 32.52C113.118 31.56 114.332 31.08 115.865 31.08C116.838 31.08 117.692 31.3 118.425 31.74C119.172 32.1667 119.752 32.7933 120.165 33.62C120.592 34.4333 120.805 35.4333 120.805 36.62ZM112.705 36.62C112.705 37.8867 112.952 38.8933 113.445 39.64C113.952 40.3733 114.752 40.74 115.845 40.74C116.925 40.74 117.718 40.3733 118.225 39.64C118.732 38.8933 118.985 37.8867 118.985 36.62C118.985 35.3533 118.732 34.36 118.225 33.64C117.718 32.92 116.918 32.56 115.825 32.56C114.732 32.56 113.938 32.92 113.445 33.64C112.952 34.36 112.705 35.3533 112.705 36.62ZM127.735 31.08C128.655 31.08 129.441 31.28 130.095 31.68C130.761 32.08 131.268 32.6467 131.615 33.38C131.975 34.1 132.155 34.9467 132.155 35.92V36.98H124.815C124.841 38.1933 125.148 39.12 125.735 39.76C126.335 40.3867 127.168 40.7 128.235 40.7C128.915 40.7 129.515 40.64 130.035 40.52C130.568 40.3867 131.115 40.2 131.675 39.96V41.5C131.128 41.74 130.588 41.9133 130.055 42.02C129.521 42.14 128.888 42.2 128.155 42.2C127.141 42.2 126.241 41.9933 125.455 41.58C124.681 41.1667 124.075 40.5533 123.635 39.74C123.208 38.9133 122.995 37.9067 122.995 36.72C122.995 35.5467 123.188 34.54 123.575 33.7C123.975 32.86 124.528 32.2133 125.235 31.76C125.955 31.3067 126.788 31.08 127.735 31.08ZM127.715 32.52C126.875 32.52 126.208 32.7933 125.715 33.34C125.235 33.8733 124.948 34.62 124.855 35.58H130.315C130.301 34.6733 130.088 33.94 129.675 33.38C129.261 32.8067 128.608 32.52 127.715 32.52ZM144.652 42.2C143.706 42.2 142.859 42.0067 142.112 41.62C141.379 41.2333 140.799 40.6333 140.372 39.82C139.959 39.0067 139.752 37.9667 139.752 36.7C139.752 35.38 139.972 34.3067 140.412 33.48C140.852 32.6533 141.446 32.0467 142.192 31.66C142.952 31.2733 143.812 31.08 144.772 31.08C145.319 31.08 145.846 31.14 146.352 31.26C146.859 31.3667 147.272 31.5 147.592 31.66L147.052 33.12C146.732 33 146.359 32.8867 145.932 32.78C145.506 32.6733 145.106 32.62 144.732 32.62C142.626 32.62 141.572 33.9733 141.572 36.68C141.572 37.9733 141.826 38.9667 142.332 39.66C142.852 40.34 143.619 40.68 144.632 40.68C145.219 40.68 145.732 40.62 146.172 40.5C146.626 40.38 147.039 40.2333 147.412 40.06V41.62C147.052 41.8067 146.652 41.9467 146.212 42.04C145.786 42.1467 145.266 42.2 144.652 42.2ZM159.282 36.62C159.282 38.3933 158.828 39.7667 157.922 40.74C157.028 41.7133 155.815 42.2 154.282 42.2C153.335 42.2 152.488 41.9867 151.742 41.56C151.008 41.12 150.428 40.4867 150.002 39.66C149.575 38.82 149.362 37.8067 149.362 36.62C149.362 34.8467 149.808 33.48 150.702 32.52C151.595 31.56 152.808 31.08 154.342 31.08C155.315 31.08 156.168 31.3 156.902 31.74C157.648 32.1667 158.228 32.7933 158.642 33.62C159.068 34.4333 159.282 35.4333 159.282 36.62ZM151.182 36.62C151.182 37.8867 151.428 38.8933 151.922 39.64C152.428 40.3733 153.228 40.74 154.322 40.74C155.402 40.74 156.195 40.3733 156.702 39.64C157.208 38.8933 157.462 37.8867 157.462 36.62C157.462 35.3533 157.208 34.36 156.702 33.64C156.195 32.92 155.395 32.56 154.302 32.56C153.208 32.56 152.415 32.92 151.922 33.64C151.428 34.36 151.182 35.3533 151.182 36.62ZM171.391 36.62C171.391 38.3933 170.938 39.7667 170.031 40.74C169.138 41.7133 167.924 42.2 166.391 42.2C165.444 42.2 164.598 41.9867 163.851 41.56C163.118 41.12 162.538 40.4867 162.111 39.66C161.684 38.82 161.471 37.8067 161.471 36.62C161.471 34.8467 161.918 33.48 162.811 32.52C163.704 31.56 164.918 31.08 166.451 31.08C167.424 31.08 168.278 31.3 169.011 31.74C169.758 32.1667 170.338 32.7933 170.751 33.62C171.178 34.4333 171.391 35.4333 171.391 36.62ZM163.291 36.62C163.291 37.8867 163.538 38.8933 164.031 39.64C164.538 40.3733 165.338 40.74 166.431 40.74C167.511 40.74 168.304 40.3733 168.811 39.64C169.318 38.8933 169.571 37.8867 169.571 36.62C169.571 35.3533 169.318 34.36 168.811 33.64C168.304 32.92 167.504 32.56 166.411 32.56C165.318 32.56 164.524 32.92 164.031 33.64C163.538 34.36 163.291 35.3533 163.291 36.62ZM173.62 35.56C173.62 33.2133 173.974 31.3867 174.68 30.08C175.387 28.76 176.527 27.9333 178.1 27.6C178.967 27.4133 179.814 27.2467 180.64 27.1C181.467 26.9533 182.24 26.82 182.96 26.7L183.26 28.24C182.794 28.3067 182.267 28.3933 181.68 28.5C181.094 28.5933 180.514 28.6933 179.94 28.8C179.367 28.8933 178.874 28.9867 178.46 29.08C177.594 29.2667 176.907 29.72 176.4 30.44C175.894 31.1467 175.607 32.2533 175.54 33.76H175.66C175.847 33.5067 176.1 33.2467 176.42 32.98C176.754 32.7133 177.147 32.4867 177.6 32.3C178.067 32.1133 178.594 32.02 179.18 32.02C180.567 32.02 181.614 32.4667 182.32 33.36C183.027 34.2533 183.38 35.4133 183.38 36.84C183.38 38.0267 183.174 39.02 182.76 39.82C182.347 40.62 181.774 41.22 181.04 41.62C180.307 42.0067 179.454 42.2 178.48 42.2C177 42.2 175.82 41.6333 174.94 40.5C174.06 39.3667 173.62 37.72 173.62 35.56ZM178.62 40.74C179.487 40.74 180.187 40.46 180.72 39.9C181.254 39.34 181.52 38.38 181.52 37.02C181.52 35.9267 181.314 35.0667 180.9 34.44C180.5 33.8 179.834 33.48 178.9 33.48C178.314 33.48 177.78 33.6133 177.3 33.88C176.82 34.1333 176.42 34.4267 176.1 34.76C175.78 35.0933 175.554 35.3733 175.42 35.6C175.42 36.2533 175.467 36.8867 175.56 37.5C175.654 38.1133 175.814 38.6667 176.04 39.16C176.28 39.64 176.607 40.0267 177.02 40.32C177.447 40.6 177.98 40.74 178.62 40.74ZM200.673 31.28V40.54H202.233V45.7H200.473V42H186.153V31.28H187.913V40.52H192.533V31.28H194.293V40.52H198.933V31.28H200.673ZM208.418 31.08C209.338 31.08 210.125 31.28 210.778 31.68C211.445 32.08 211.951 32.6467 212.298 33.38C212.658 34.1 212.838 34.9467 212.838 35.92V36.98H205.498C205.525 38.1933 205.831 39.12 206.418 39.76C207.018 40.3867 207.851 40.7 208.918 40.7C209.598 40.7 210.198 40.64 210.718 40.52C211.251 40.3867 211.798 40.2 212.358 39.96V41.5C211.811 41.74 211.271 41.9133 210.738 42.02C210.205 42.14 209.571 42.2 208.838 42.2C207.825 42.2 206.925 41.9933 206.138 41.58C205.365 41.1667 204.758 40.5533 204.318 39.74C203.891 38.9133 203.678 37.9067 203.678 36.72C203.678 35.5467 203.871 34.54 204.258 33.7C204.658 32.86 205.211 32.2133 205.918 31.76C206.638 31.3067 207.471 31.08 208.418 31.08ZM208.398 32.52C207.558 32.52 206.891 32.7933 206.398 33.34C205.918 33.8733 205.631 34.62 205.538 35.58H210.998C210.985 34.6733 210.771 33.94 210.358 33.38C209.945 32.8067 209.291 32.52 208.398 32.52ZM219.867 42.2C218.921 42.2 218.074 42.0067 217.327 41.62C216.594 41.2333 216.014 40.6333 215.587 39.82C215.174 39.0067 214.967 37.9667 214.967 36.7C214.967 35.38 215.187 34.3067 215.627 33.48C216.067 32.6533 216.661 32.0467 217.407 31.66C218.167 31.2733 219.027 31.08 219.987 31.08C220.534 31.08 221.061 31.14 221.567 31.26C222.074 31.3667 222.487 31.5 222.807 31.66L222.267 33.12C221.947 33 221.574 32.8867 221.147 32.78C220.721 32.6733 220.321 32.62 219.947 32.62C217.841 32.62 216.787 33.9733 216.787 36.68C216.787 37.9733 217.041 38.9667 217.547 39.66C218.067 40.34 218.834 40.68 219.847 40.68C220.434 40.68 220.947 40.62 221.387 40.5C221.841 40.38 222.254 40.2333 222.627 40.06V41.62C222.267 41.8067 221.867 41.9467 221.427 42.04C221.001 42.1467 220.481 42.2 219.867 42.2ZM232.577 32.76H229.077V42H227.337V32.76H223.877V31.28H232.577V32.76ZM243.308 33.98C243.308 34.6467 243.108 35.1667 242.708 35.54C242.308 35.9133 241.795 36.1667 241.168 36.3V36.38C241.835 36.4733 242.415 36.7133 242.908 37.1C243.402 37.4733 243.648 38.06 243.648 38.86C243.648 39.7667 243.308 40.52 242.628 41.12C241.962 41.7067 240.855 42 239.308 42H234.688V31.28H239.288C240.048 31.28 240.728 31.3667 241.328 31.54C241.942 31.7 242.422 31.98 242.768 32.38C243.128 32.7667 243.308 33.3 243.308 33.98ZM241.528 34.2C241.528 33.6933 241.342 33.3267 240.968 33.1C240.608 32.86 240.015 32.74 239.188 32.74H236.448V35.68H238.868C240.642 35.68 241.528 35.1867 241.528 34.2ZM241.828 38.86C241.828 38.2467 241.595 37.8067 241.128 37.54C240.662 37.2733 239.975 37.14 239.068 37.14H236.448V40.58H239.108C239.988 40.58 240.662 40.4533 241.128 40.2C241.595 39.9333 241.828 39.4867 241.828 38.86ZM255.532 36.62C255.532 38.3933 255.078 39.7667 254.172 40.74C253.278 41.7133 252.065 42.2 250.532 42.2C249.585 42.2 248.738 41.9867 247.992 41.56C247.258 41.12 246.678 40.4867 246.252 39.66C245.825 38.82 245.612 37.8067 245.612 36.62C245.612 34.8467 246.058 33.48 246.952 32.52C247.845 31.56 249.058 31.08 250.592 31.08C251.565 31.08 252.418 31.3 253.152 31.74C253.898 32.1667 254.478 32.7933 254.892 33.62C255.318 34.4333 255.532 35.4333 255.532 36.62ZM247.432 36.62C247.432 37.8867 247.678 38.8933 248.172 39.64C248.678 40.3733 249.478 40.74 250.572 40.74C251.652 40.74 252.445 40.3733 252.952 39.64C253.458 38.8933 253.712 37.8867 253.712 36.62C253.712 35.3533 253.458 34.36 252.952 33.64C252.445 32.92 251.645 32.56 250.552 32.56C249.458 32.56 248.665 32.92 248.172 33.64C247.678 34.36 247.432 35.3533 247.432 36.62ZM9.86 68H8.08V58.74H4.92C4.74667 60.9933 4.50667 62.8133 4.2 64.2C3.89333 65.5733 3.48667 66.5733 2.98 67.2C2.47333 67.8267 1.83333 68.14 1.06 68.14C0.886667 68.14 0.713333 68.1267 0.54 68.1C0.38 68.0867 0.246667 68.0533 0.14 68V66.68C0.22 66.7067 0.306667 66.7267 0.4 66.74C0.493333 66.7533 0.586667 66.76 0.68 66.76C1.4 66.76 1.97333 65.9933 2.4 64.46C2.84 62.9267 3.17333 60.5333 3.4 57.28H9.86V68ZM27.1825 62.62C27.1825 64.3933 26.7558 65.7667 25.9025 66.74C25.0492 67.7133 23.8958 68.2 22.4425 68.2C21.0825 68.2 19.9825 67.7733 19.1425 66.92C18.3158 66.0667 17.8492 64.8333 17.7425 63.22H15.0225V68H13.2625V57.28H15.0225V61.74H17.7625C17.9092 60.2333 18.3958 59.08 19.2225 58.28C20.0492 57.48 21.1358 57.08 22.4825 57.08C23.4025 57.08 24.2158 57.3 24.9225 57.74C25.6292 58.1667 26.1825 58.7933 26.5825 59.62C26.9825 60.4333 27.1825 61.4333 27.1825 62.62ZM19.5425 62.62C19.5425 63.9667 19.7758 64.9933 20.2425 65.7C20.7092 66.3933 21.4492 66.74 22.4625 66.74C23.4892 66.74 24.2292 66.3933 24.6825 65.7C25.1358 64.9933 25.3625 63.9667 25.3625 62.62C25.3625 61.2733 25.1292 60.26 24.6625 59.58C24.2092 58.9 23.4758 58.56 22.4625 58.56C21.4492 58.56 20.7092 58.9 20.2425 59.58C19.7758 60.26 19.5425 61.2733 19.5425 62.62ZM37.9413 57.28V66.52H39.5013V71.72H37.8013V68H30.3413V71.72H28.6613V66.52H29.5213C30.4413 65.2533 31.1279 63.8133 31.5813 62.2C32.0479 60.5733 32.2879 58.9333 32.3013 57.28H37.9413ZM33.8613 58.66C33.8079 59.5667 33.6679 60.5067 33.4413 61.48C33.2146 62.44 32.9213 63.36 32.5613 64.24C32.2146 65.12 31.8079 65.88 31.3413 66.52H36.2413V58.66H33.8613ZM45.7423 57.08C46.6623 57.08 47.449 57.28 48.1023 57.68C48.769 58.08 49.2757 58.6467 49.6223 59.38C49.9823 60.1 50.1623 60.9467 50.1623 61.92V62.98H42.8223C42.849 64.1933 43.1557 65.12 43.7423 65.76C44.3423 66.3867 45.1757 66.7 46.2423 66.7C46.9223 66.7 47.5223 66.64 48.0423 66.52C48.5757 66.3867 49.1223 66.2 49.6823 65.96V67.5C49.1357 67.74 48.5957 67.9133 48.0623 68.02C47.529 68.14 46.8957 68.2 46.1623 68.2C45.149 68.2 44.249 67.9933 43.4623 67.58C42.689 67.1667 42.0823 66.5533 41.6423 65.74C41.2157 64.9133 41.0023 63.9067 41.0023 62.72C41.0023 61.5467 41.1957 60.54 41.5823 59.7C41.9823 58.86 42.5357 58.2133 43.2423 57.76C43.9623 57.3067 44.7957 57.08 45.7423 57.08ZM45.7223 58.52C44.8823 58.52 44.2157 58.7933 43.7223 59.34C43.2423 59.8733 42.9557 60.62 42.8623 61.58H48.3223C48.309 60.6733 48.0957 59.94 47.6823 59.38C47.269 58.8067 46.6157 58.52 45.7223 58.52ZM61.5714 52.84C61.4781 53.84 61.1381 54.6 60.5514 55.12C59.9781 55.6267 59.0581 55.88 57.7914 55.88C56.4847 55.88 55.5581 55.6267 55.0114 55.12C54.4781 54.6133 54.1781 53.8533 54.1114 52.84H55.7514C55.8181 53.56 56.0047 54.0467 56.3114 54.3C56.6314 54.54 57.1381 54.66 57.8314 54.66C58.4447 54.66 58.9247 54.5333 59.2714 54.28C59.6314 54.0133 59.8447 53.5333 59.9114 52.84H61.5714ZM54.5514 63.82C54.5514 63.98 54.5447 64.22 54.5314 64.54C54.5181 64.86 54.4981 65.18 54.4714 65.5C54.4581 65.82 54.4447 66.0733 54.4314 66.26L60.1714 57.28H62.3314V68H60.6914V61.68C60.6914 61.4667 60.6914 61.1867 60.6914 60.84C60.7047 60.4933 60.7181 60.1533 60.7314 59.82C60.7447 59.4733 60.7581 59.2133 60.7714 59.04L55.0714 68H52.8914V57.28H54.5514V63.82ZM65.723 71.14L67.843 65.42H69.103L66.423 71.14H65.723ZM84.3142 57.28V58.76H79.5342V68H77.7742V57.28H84.3142ZM93.7811 57.28V66.52H95.3411V71.72H93.6411V68H86.1811V71.72H84.5011V66.52H85.3611C86.2811 65.2533 86.9678 63.8133 87.4211 62.2C87.8878 60.5733 88.1278 58.9333 88.1411 57.28H93.7811ZM89.7011 58.66C89.6478 59.5667 89.5078 60.5067 89.2811 61.48C89.0544 62.44 88.7611 63.36 88.4011 64.24C88.0544 65.12 87.6478 65.88 87.1811 66.52H92.0811V58.66H89.7011ZM101.582 57.08C102.502 57.08 103.289 57.28 103.942 57.68C104.609 58.08 105.116 58.6467 105.462 59.38C105.822 60.1 106.002 60.9467 106.002 61.92V62.98H98.6622C98.6889 64.1933 98.9955 65.12 99.5822 65.76C100.182 66.3867 101.016 66.7 102.082 66.7C102.762 66.7 103.362 66.64 103.882 66.52C104.416 66.3867 104.962 66.2 105.522 65.96V67.5C104.976 67.74 104.436 67.9133 103.902 68.02C103.369 68.14 102.736 68.2 102.002 68.2C100.989 68.2 100.089 67.9933 99.3022 67.58C98.5289 67.1667 97.9222 66.5533 97.4822 65.74C97.0555 64.9133 96.8422 63.9067 96.8422 62.72C96.8422 61.5467 97.0355 60.54 97.4222 59.7C97.8222 58.86 98.3755 58.2133 99.0822 57.76C99.8022 57.3067 100.636 57.08 101.582 57.08ZM101.562 58.52C100.722 58.52 100.056 58.7933 99.5622 59.34C99.0822 59.8733 98.7955 60.62 98.7022 61.58H104.162C104.149 60.6733 103.936 59.94 103.522 59.38C103.109 58.8067 102.456 58.52 101.562 58.52ZM115.96 57.28V61.74H121.78V57.28H123.54V68H121.78V63.22H115.96V68H114.2V57.28H115.96ZM128.594 63.82C128.594 63.98 128.588 64.22 128.574 64.54C128.561 64.86 128.541 65.18 128.514 65.5C128.501 65.82 128.488 66.0733 128.474 66.26L134.214 57.28H136.374V68H134.734V61.68C134.734 61.4667 134.734 61.1867 134.734 60.84C134.748 60.4933 134.761 60.1533 134.774 59.82C134.788 59.4733 134.801 59.2133 134.814 59.04L129.114 68H126.934V57.28H128.594V63.82ZM146.126 57.28H148.046L143.466 62.44L148.426 68H146.386L141.546 62.56V68H139.786V57.28H141.546V62.48L146.126 57.28ZM157.772 58.76H154.272V68H152.532V58.76H149.072V57.28H157.772V58.76ZM169.008 62.62C169.008 64.3933 168.555 65.7667 167.648 66.74C166.755 67.7133 165.542 68.2 164.008 68.2C163.062 68.2 162.215 67.9867 161.468 67.56C160.735 67.12 160.155 66.4867 159.728 65.66C159.302 64.82 159.088 63.8067 159.088 62.62C159.088 60.8467 159.535 59.48 160.428 58.52C161.322 57.56 162.535 57.08 164.068 57.08C165.042 57.08 165.895 57.3 166.628 57.74C167.375 58.1667 167.955 58.7933 168.368 59.62C168.795 60.4333 169.008 61.4333 169.008 62.62ZM160.908 62.62C160.908 63.8867 161.155 64.8933 161.648 65.64C162.155 66.3733 162.955 66.74 164.048 66.74C165.128 66.74 165.922 66.3733 166.428 65.64C166.935 64.8933 167.188 63.8867 167.188 62.62C167.188 61.3533 166.935 60.36 166.428 59.64C165.922 58.92 165.122 58.56 164.028 58.56C162.935 58.56 162.142 58.92 161.648 59.64C161.155 60.36 160.908 61.3533 160.908 62.62ZM179.026 57.28V61.74H184.846V57.28H186.606V68H184.846V63.22H179.026V68H177.266V57.28H179.026ZM194.141 57.08C195.061 57.08 195.847 57.28 196.501 57.68C197.167 58.08 197.674 58.6467 198.021 59.38C198.381 60.1 198.561 60.9467 198.561 61.92V62.98H191.221C191.247 64.1933 191.554 65.12 192.141 65.76C192.741 66.3867 193.574 66.7 194.641 66.7C195.321 66.7 195.921 66.64 196.441 66.52C196.974 66.3867 197.521 66.2 198.081 65.96V67.5C197.534 67.74 196.994 67.9133 196.461 68.02C195.927 68.14 195.294 68.2 194.561 68.2C193.547 68.2 192.647 67.9933 191.861 67.58C191.087 67.1667 190.481 66.5533 190.041 65.74C189.614 64.9133 189.401 63.9067 189.401 62.72C189.401 61.5467 189.594 60.54 189.981 59.7C190.381 58.86 190.934 58.2133 191.641 57.76C192.361 57.3067 193.194 57.08 194.141 57.08ZM194.121 58.52C193.281 58.52 192.614 58.7933 192.121 59.34C191.641 59.8733 191.354 60.62 191.261 61.58H196.721C196.707 60.6733 196.494 59.94 196.081 59.38C195.667 58.8067 195.014 58.52 194.121 58.52ZM215.379 59.98C215.379 60.6467 215.179 61.1667 214.779 61.54C214.379 61.9133 213.865 62.1667 213.239 62.3V62.38C213.905 62.4733 214.485 62.7133 214.979 63.1C215.472 63.4733 215.719 64.06 215.719 64.86C215.719 65.7667 215.379 66.52 214.699 67.12C214.032 67.7067 212.925 68 211.379 68H206.759V57.28H211.359C212.119 57.28 212.799 57.3667 213.399 57.54C214.012 57.7 214.492 57.98 214.839 58.38C215.199 58.7667 215.379 59.3 215.379 59.98ZM213.599 60.2C213.599 59.6933 213.412 59.3267 213.039 59.1C212.679 58.86 212.085 58.74 211.259 58.74H208.519V61.68H210.939C212.712 61.68 213.599 61.1867 213.599 60.2ZM213.899 64.86C213.899 64.2467 213.665 63.8067 213.199 63.54C212.732 63.2733 212.045 63.14 211.139 63.14H208.519V66.58H211.179C212.059 66.58 212.732 66.4533 213.199 66.2C213.665 65.9333 213.899 65.4867 213.899 64.86ZM222.422 57.08C223.342 57.08 224.129 57.28 224.782 57.68C225.449 58.08 225.955 58.6467 226.302 59.38C226.662 60.1 226.842 60.9467 226.842 61.92V62.98H219.502C219.529 64.1933 219.835 65.12 220.422 65.76C221.022 66.3867 221.855 66.7 222.922 66.7C223.602 66.7 224.202 66.64 224.722 66.52C225.255 66.3867 225.802 66.2 226.362 65.96V67.5C225.815 67.74 225.275 67.9133 224.742 68.02C224.209 68.14 223.575 68.2 222.842 68.2C221.829 68.2 220.929 67.9933 220.142 67.58C219.369 67.1667 218.762 66.5533 218.322 65.74C217.895 64.9133 217.682 63.9067 217.682 62.72C217.682 61.5467 217.875 60.54 218.262 59.7C218.662 58.86 219.215 58.2133 219.922 57.76C220.642 57.3067 221.475 57.08 222.422 57.08ZM222.402 58.52C221.562 58.52 220.895 58.7933 220.402 59.34C219.922 59.8733 219.635 60.62 219.542 61.58H225.002C224.989 60.6733 224.775 59.94 224.362 59.38C223.949 58.8067 223.295 58.52 222.402 58.52ZM237.531 57.28V66.52H239.091V71.72H237.391V68H229.931V71.72H228.251V66.52H229.111C230.031 65.2533 230.718 63.8133 231.171 62.2C231.638 60.5733 231.878 58.9333 231.891 57.28H237.531ZM233.451 58.66C233.398 59.5667 233.258 60.5067 233.031 61.48C232.804 62.44 232.511 63.36 232.151 64.24C231.804 65.12 231.398 65.88 230.931 66.52H235.831V58.66H233.451ZM245.332 57.08C246.252 57.08 247.039 57.28 247.692 57.68C248.359 58.08 248.866 58.6467 249.212 59.38C249.572 60.1 249.752 60.9467 249.752 61.92V62.98H242.412C242.439 64.1933 242.746 65.12 243.332 65.76C243.932 66.3867 244.766 66.7 245.832 66.7C246.512 66.7 247.112 66.64 247.632 66.52C248.166 66.3867 248.712 66.2 249.272 65.96V67.5C248.726 67.74 248.186 67.9133 247.652 68.02C247.119 68.14 246.486 68.2 245.752 68.2C244.739 68.2 243.839 67.9933 243.052 67.58C242.279 67.1667 241.672 66.5533 241.232 65.74C240.806 64.9133 240.592 63.9067 240.592 62.72C240.592 61.5467 240.786 60.54 241.172 59.7C241.572 58.86 242.126 58.2133 242.832 57.76C243.552 57.3067 244.386 57.08 245.332 57.08ZM245.312 58.52C244.472 58.52 243.806 58.7933 243.312 59.34C242.832 59.8733 242.546 60.62 242.452 61.58H247.912C247.899 60.6733 247.686 59.94 247.272 59.38C246.859 58.8067 246.206 58.52 245.312 58.52ZM259.881 58.76H256.381V68H254.641V58.76H251.181V57.28H259.881V58.76ZM6 94.2C5.05333 94.2 4.20667 94.0067 3.46 93.62C2.72667 93.2333 2.14667 92.6333 1.72 91.82C1.30667 91.0067 1.1 89.9667 1.1 88.7C1.1 87.38 1.32 86.3067 1.76 85.48C2.2 84.6533 2.79333 84.0467 3.54 83.66C4.3 83.2733 5.16 83.08 6.12 83.08C6.66667 83.08 7.19333 83.14 7.7 83.26C8.20667 83.3667 8.62 83.5 8.94 83.66L8.4 85.12C8.08 85 7.70667 84.8867 7.28 84.78C6.85333 84.6733 6.45333 84.62 6.08 84.62C3.97333 84.62 2.92 85.9733 2.92 88.68C2.92 89.9733 3.17333 90.9667 3.68 91.66C4.2 92.34 4.96667 92.68 5.98 92.68C6.56667 92.68 7.08 92.62 7.52 92.5C7.97333 92.38 8.38667 92.2333 8.76 92.06V93.62C8.4 93.8067 8 93.9467 7.56 94.04C7.13333 94.1467 6.61333 94.2 6 94.2ZM15.4494 83.08C16.3694 83.08 17.156 83.28 17.8094 83.68C18.476 84.08 18.9827 84.6467 19.3294 85.38C19.6894 86.1 19.8694 86.9467 19.8694 87.92V88.98H12.5294C12.556 90.1933 12.8627 91.12 13.4494 91.76C14.0494 92.3867 14.8827 92.7 15.9494 92.7C16.6294 92.7 17.2294 92.64 17.7494 92.52C18.2827 92.3867 18.8294 92.2 19.3894 91.96V93.5C18.8427 93.74 18.3027 93.9133 17.7694 94.02C17.236 94.14 16.6027 94.2 15.8694 94.2C14.856 94.2 13.956 93.9933 13.1694 93.58C12.396 93.1667 11.7894 92.5533 11.3494 91.74C10.9227 90.9133 10.7094 89.9067 10.7094 88.72C10.7094 87.5467 10.9027 86.54 11.2894 85.7C11.6894 84.86 12.2427 84.2133 12.9494 83.76C13.6694 83.3067 14.5027 83.08 15.4494 83.08ZM15.4294 84.52C14.5894 84.52 13.9227 84.7933 13.4294 85.34C12.9494 85.8733 12.6627 86.62 12.5694 87.58H18.0294C18.016 86.6733 17.8027 85.94 17.3894 85.38C16.976 84.8067 16.3227 84.52 15.4294 84.52ZM22.0384 87.56C22.0384 85.2133 22.3918 83.3867 23.0984 82.08C23.8051 80.76 24.9451 79.9333 26.5184 79.6C27.3851 79.4133 28.2318 79.2467 29.0584 79.1C29.8851 78.9533 30.6584 78.82 31.3784 78.7L31.6784 80.24C31.2118 80.3067 30.6851 80.3933 30.0984 80.5C29.5118 80.5933 28.9318 80.6933 28.3584 80.8C27.7851 80.8933 27.2918 80.9867 26.8784 81.08C26.0118 81.2667 25.3251 81.72 24.8184 82.44C24.3118 83.1467 24.0251 84.2533 23.9584 85.76H24.0784C24.2651 85.5067 24.5184 85.2467 24.8384 84.98C25.1718 84.7133 25.5651 84.4867 26.0184 84.3C26.4851 84.1133 27.0118 84.02 27.5984 84.02C28.9851 84.02 30.0318 84.4667 30.7384 85.36C31.4451 86.2533 31.7984 87.4133 31.7984 88.84C31.7984 90.0267 31.5918 91.02 31.1784 91.82C30.7651 92.62 30.1918 93.22 29.4584 93.62C28.7251 94.0067 27.8718 94.2 26.8984 94.2C25.4184 94.2 24.2384 93.6333 23.3584 92.5C22.4784 91.3667 22.0384 89.72 22.0384 87.56ZM27.0384 92.74C27.9051 92.74 28.6051 92.46 29.1384 91.9C29.6718 91.34 29.9384 90.38 29.9384 89.02C29.9384 87.9267 29.7318 87.0667 29.3184 86.44C28.9184 85.8 28.2518 85.48 27.3184 85.48C26.7318 85.48 26.1984 85.6133 25.7184 85.88C25.2384 86.1333 24.8384 86.4267 24.5184 86.76C24.1984 87.0933 23.9718 87.3733 23.8384 87.6C23.8384 88.2533 23.8851 88.8867 23.9784 89.5C24.0718 90.1133 24.2318 90.6667 24.4584 91.16C24.6984 91.64 25.0251 92.0267 25.4384 92.32C25.8651 92.6 26.3984 92.74 27.0384 92.74ZM35.2311 94H33.1911L36.2511 89.5C35.8378 89.3933 35.4378 89.2267 35.0511 89C34.6644 88.76 34.3511 88.4333 34.1111 88.02C33.8711 87.5933 33.7511 87.0667 33.7511 86.44C33.7511 85.4133 34.0978 84.6333 34.7911 84.1C35.4844 83.5533 36.4044 83.28 37.5511 83.28H42.3511V94H40.5911V89.74H37.9911L35.2311 94ZM35.4511 86.46C35.4511 87.0733 35.6778 87.5333 36.1311 87.84C36.5978 88.1333 37.2444 88.28 38.0711 88.28H40.5911V84.74H37.7311C36.9178 84.74 36.3311 84.9 35.9711 85.22C35.6244 85.54 35.4511 85.9533 35.4511 86.46ZM59.8317 85.98C59.8317 86.6467 59.6317 87.1667 59.2317 87.54C58.8317 87.9133 58.3184 88.1667 57.6917 88.3V88.38C58.3584 88.4733 58.9384 88.7133 59.4317 89.1C59.9251 89.4733 60.1717 90.06 60.1717 90.86C60.1717 91.7667 59.8317 92.52 59.1517 93.12C58.4851 93.7067 57.3784 94 55.8317 94H51.2117V83.28H55.8117C56.5717 83.28 57.2517 83.3667 57.8517 83.54C58.4651 83.7 58.9451 83.98 59.2917 84.38C59.6517 84.7667 59.8317 85.3 59.8317 85.98ZM58.0517 86.2C58.0517 85.6933 57.8651 85.3267 57.4917 85.1C57.1317 84.86 56.5384 84.74 55.7117 84.74H52.9717V87.68H55.3917C57.1651 87.68 58.0517 87.1867 58.0517 86.2ZM58.3517 90.86C58.3517 90.2467 58.1184 89.8067 57.6517 89.54C57.1851 89.2733 56.4984 89.14 55.5917 89.14H52.9717V92.58H55.6317C56.5117 92.58 57.1851 92.4533 57.6517 92.2C58.1184 91.9333 58.3517 91.4867 58.3517 90.86ZM62.7352 94V83.28H64.4952V87.68H67.2752C68.6618 87.68 69.6885 87.9333 70.3552 88.44C71.0218 88.9467 71.3552 89.7067 71.3552 90.72C71.3552 91.72 71.0285 92.52 70.3752 93.12C69.7218 93.7067 68.6618 94 67.1952 94H62.7352ZM73.1352 94V83.28H74.8952V94H73.1352ZM67.0352 92.58C67.7952 92.58 68.4152 92.4533 68.8952 92.2C69.3752 91.9333 69.6152 91.4733 69.6152 90.82C69.6152 90.1667 69.3952 89.7267 68.9552 89.5C68.5152 89.26 67.8818 89.14 67.0552 89.14H64.4952V92.58H67.0352ZM81.1216 83.08C82.3482 83.08 83.3216 83.3267 84.0416 83.82C84.7749 84.3 85.1416 84.9933 85.1416 85.9C85.1416 86.5533 84.9616 87.0733 84.6016 87.46C84.2416 87.8333 83.7482 88.1067 83.1216 88.28V88.36C83.5482 88.48 83.9416 88.6467 84.3016 88.86C84.6616 89.0733 84.9482 89.3533 85.1616 89.7C85.3882 90.0467 85.5016 90.4933 85.5016 91.04C85.5016 91.9333 85.1282 92.6867 84.3816 93.3C83.6482 93.9 82.4949 94.2 80.9216 94.2C80.1482 94.2 79.4482 94.1333 78.8216 94C78.1949 93.88 77.6749 93.7133 77.2616 93.5V91.92C77.7149 92.1333 78.2482 92.3267 78.8616 92.5C79.4882 92.6733 80.1682 92.76 80.9016 92.76C81.7016 92.76 82.3749 92.6267 82.9216 92.36C83.4816 92.08 83.7616 91.6067 83.7616 90.94C83.7616 89.74 82.7416 89.14 80.7016 89.14H79.2616V87.7H80.4216C81.3416 87.7 82.0749 87.58 82.6216 87.34C83.1816 87.0867 83.4616 86.66 83.4616 86.06C83.4616 85.5533 83.2482 85.1733 82.8216 84.92C82.4082 84.6667 81.8082 84.54 81.0216 84.54C80.4349 84.54 79.9149 84.6 79.4616 84.72C79.0216 84.8267 78.5349 84.9933 78.0016 85.22L77.3816 83.82C78.5016 83.3267 79.7482 83.08 81.1216 83.08ZM88.1063 94V83.28H89.8663V87.68H92.6463C94.0329 87.68 95.0596 87.9333 95.7263 88.44C96.3929 88.9467 96.7263 89.7067 96.7263 90.72C96.7263 91.72 96.3996 92.52 95.7463 93.12C95.0929 93.7067 94.0329 94 92.5663 94H88.1063ZM98.5063 94V83.28H100.266V94H98.5063ZM92.4063 92.58C93.1663 92.58 93.7863 92.4533 94.2663 92.2C94.7463 91.9333 94.9863 91.4733 94.9863 90.82C94.9863 90.1667 94.7663 89.7267 94.3263 89.5C93.8863 89.26 93.2529 89.14 92.4263 89.14H89.8663V92.58H92.4063ZM112.293 85.98C112.293 86.6467 112.093 87.1667 111.693 87.54C111.293 87.9133 110.779 88.1667 110.153 88.3V88.38C110.819 88.4733 111.399 88.7133 111.893 89.1C112.386 89.4733 112.633 90.06 112.633 90.86C112.633 91.7667 112.293 92.52 111.613 93.12C110.946 93.7067 109.839 94 108.293 94H103.673V83.28H108.273C109.033 83.28 109.713 83.3667 110.313 83.54C110.926 83.7 111.406 83.98 111.753 84.38C112.113 84.7667 112.293 85.3 112.293 85.98ZM110.513 86.2C110.513 85.6933 110.326 85.3267 109.953 85.1C109.593 84.86 108.999 84.74 108.173 84.74H105.433V87.68H107.853C109.626 87.68 110.513 87.1867 110.513 86.2ZM110.813 90.86C110.813 90.2467 110.579 89.8067 110.113 89.54C109.646 89.2733 108.959 89.14 108.053 89.14H105.433V92.58H108.093C108.973 92.58 109.646 92.4533 110.113 92.2C110.579 91.9333 110.813 91.4867 110.813 90.86ZM119.256 83.1C120.563 83.1 121.529 83.3867 122.156 83.96C122.783 84.5333 123.096 85.4467 123.096 86.7V94H121.816L121.476 92.48H121.396C120.929 93.0667 120.436 93.5 119.916 93.78C119.409 94.06 118.703 94.2 117.796 94.2C116.823 94.2 116.016 93.9467 115.376 93.44C114.736 92.92 114.416 92.1133 114.416 91.02C114.416 89.9533 114.836 89.1333 115.676 88.56C116.516 87.9733 117.809 87.6533 119.556 87.6L121.376 87.54V86.9C121.376 86.0067 121.183 85.3867 120.796 85.04C120.409 84.6933 119.863 84.52 119.156 84.52C118.596 84.52 118.063 84.6067 117.556 84.78C117.049 84.94 116.576 85.1267 116.136 85.34L115.596 84.02C116.063 83.7667 116.616 83.5533 117.256 83.38C117.896 83.1933 118.563 83.1 119.256 83.1ZM119.776 88.82C118.443 88.8733 117.516 89.0867 116.996 89.46C116.489 89.8333 116.236 90.36 116.236 91.04C116.236 91.64 116.416 92.08 116.776 92.36C117.149 92.64 117.623 92.78 118.196 92.78C119.103 92.78 119.856 92.5333 120.456 92.04C121.056 91.5333 121.356 90.76 121.356 89.72V88.76L119.776 88.82ZM140.327 88.62C140.327 90.3933 139.9 91.7667 139.047 92.74C138.194 93.7133 137.04 94.2 135.587 94.2C134.227 94.2 133.127 93.7733 132.287 92.92C131.46 92.0667 130.994 90.8333 130.887 89.22H128.167V94H126.407V83.28H128.167V87.74H130.907C131.054 86.2333 131.54 85.08 132.367 84.28C133.194 83.48 134.28 83.08 135.627 83.08C136.547 83.08 137.36 83.3 138.067 83.74C138.774 84.1667 139.327 84.7933 139.727 85.62C140.127 86.4333 140.327 87.4333 140.327 88.62ZM132.687 88.62C132.687 89.9667 132.92 90.9933 133.387 91.7C133.854 92.3933 134.594 92.74 135.607 92.74C136.634 92.74 137.374 92.3933 137.827 91.7C138.28 90.9933 138.507 89.9667 138.507 88.62C138.507 87.2733 138.274 86.26 137.807 85.58C137.354 84.9 136.62 84.56 135.607 84.56C134.594 84.56 133.854 84.9 133.387 85.58C132.92 86.26 132.687 87.2733 132.687 88.62ZM157.646 83.28V92.54H159.206V97.7H157.446V94H143.126V83.28H144.886V92.52H149.506V83.28H151.266V92.52H155.906V83.28H157.646ZM165.391 83.08C166.311 83.08 167.097 83.28 167.751 83.68C168.417 84.08 168.924 84.6467 169.271 85.38C169.631 86.1 169.811 86.9467 169.811 87.92V88.98H162.471C162.497 90.1933 162.804 91.12 163.391 91.76C163.991 92.3867 164.824 92.7 165.891 92.7C166.571 92.7 167.171 92.64 167.691 92.52C168.224 92.3867 168.771 92.2 169.331 91.96V93.5C168.784 93.74 168.244 93.9133 167.711 94.02C167.177 94.14 166.544 94.2 165.811 94.2C164.797 94.2 163.897 93.9933 163.111 93.58C162.337 93.1667 161.731 92.5533 161.291 91.74C160.864 90.9133 160.651 89.9067 160.651 88.72C160.651 87.5467 160.844 86.54 161.231 85.7C161.631 84.86 162.184 84.2133 162.891 83.76C163.611 83.3067 164.444 83.08 165.391 83.08ZM165.371 84.52C164.531 84.52 163.864 84.7933 163.371 85.34C162.891 85.8733 162.604 86.62 162.511 87.58H167.971C167.957 86.6733 167.744 85.94 167.331 85.38C166.917 84.8067 166.264 84.52 165.371 84.52ZM173.44 94V91.96H174.72V94H173.44Z" fill="#FCF7F2"/>
</svg>
