<svg width="270" height="58" viewBox="0 0 270 58" fill="none" xmlns="http://www.w3.org/2000/svg">
<path d="M0.168 13L4.824 6.952L2.792 1.576H4.232L5.784 5.944L9.176 1.576H10.744L6.424 7.016L8.584 13H7.08L5.448 8.056L1.736 13H0.168ZM13.4055 13.128C12.4135 13.128 11.6295 12.8347 11.0535 12.248C10.4882 11.6507 10.2055 10.8453 10.2055 9.832C10.2055 9.17067 10.2962 8.51467 10.4775 7.864C10.6588 7.21333 10.9255 6.62133 11.2775 6.088C11.6402 5.55467 12.0882 5.128 12.6215 4.808C13.1655 4.47733 13.7895 4.312 14.4935 4.312C15.4962 4.312 16.2802 4.61067 16.8455 5.208C17.4108 5.79467 17.6935 6.6 17.6935 7.624C17.6935 8.27467 17.6028 8.92533 17.4215 9.576C17.2402 10.2267 16.9682 10.8187 16.6055 11.352C16.2535 11.8853 15.8108 12.3173 15.2775 12.648C14.7442 12.968 14.1202 13.128 13.4055 13.128ZM13.4855 11.96C13.9975 11.96 14.4615 11.784 14.8775 11.432C15.2935 11.0693 15.6242 10.552 15.8695 9.88C16.1255 9.208 16.2535 8.40267 16.2535 7.464C16.2535 7.144 16.1948 6.83467 16.0775 6.536C15.9708 6.22667 15.7895 5.976 15.5335 5.784C15.2775 5.58133 14.9362 5.48 14.5095 5.48C13.9228 5.48 13.4108 5.68267 12.9735 6.088C12.5468 6.48267 12.2162 7.016 11.9815 7.688C11.7468 8.34933 11.6295 9.08 11.6295 9.88C11.6295 10.5413 11.7895 11.0533 12.1095 11.416C12.4402 11.7787 12.8988 11.96 13.4855 11.96ZM18.1011 16.84L20.7251 4.424H21.8771L21.6851 6.024H21.7491C22.1225 5.55467 22.5438 5.14933 23.0131 4.808C23.4825 4.456 24.0158 4.28 24.6131 4.28C25.3065 4.28 25.8665 4.52533 26.2931 5.016C26.7198 5.50667 26.9331 6.23733 26.9331 7.208C26.9331 7.98667 26.8371 8.73333 26.6451 9.448C26.4531 10.1627 26.1758 10.8027 25.8131 11.368C25.4505 11.9227 25.0078 12.36 24.4851 12.68C23.9731 13 23.3971 13.16 22.7571 13.16C22.1811 13.16 21.7171 13.016 21.3651 12.728C21.0131 12.4293 20.7465 12.0827 20.5651 11.688H20.4851C20.4745 11.8587 20.4478 12.0987 20.4051 12.408C20.3625 12.7067 20.3198 12.952 20.2771 13.144L19.4931 16.84H18.1011ZM22.6451 11.992C23.0718 11.992 23.4611 11.8587 23.8131 11.592C24.1651 11.3147 24.4638 10.9467 24.7091 10.488C24.9651 10.0293 25.1571 9.512 25.2851 8.936C25.4238 8.36 25.4931 7.77333 25.4931 7.176C25.4931 6.024 25.0398 5.448 24.1331 5.448C23.7811 5.448 23.4185 5.58133 23.0451 5.848C22.6825 6.104 22.3465 6.456 22.0371 6.904C21.7278 7.352 21.4771 7.864 21.2851 8.44C21.1038 9.016 21.0131 9.624 21.0131 10.264C21.0131 10.776 21.1465 11.192 21.4131 11.512C21.6798 11.832 22.0905 11.992 22.6451 11.992ZM31.6868 13.128C30.6948 13.128 29.9108 12.8347 29.3348 12.248C28.7694 11.6507 28.4868 10.8453 28.4868 9.832C28.4868 9.17067 28.5774 8.51467 28.7588 7.864C28.9401 7.21333 29.2068 6.62133 29.5588 6.088C29.9214 5.55467 30.3694 5.128 30.9028 4.808C31.4468 4.47733 32.0708 4.312 32.7748 4.312C33.7774 4.312 34.5614 4.61067 35.1268 5.208C35.6921 5.79467 35.9748 6.6 35.9748 7.624C35.9748 8.27467 35.8841 8.92533 35.7028 9.576C35.5214 10.2267 35.2494 10.8187 34.8868 11.352C34.5348 11.8853 34.0921 12.3173 33.5588 12.648C33.0254 12.968 32.4014 13.128 31.6868 13.128ZM31.7668 11.96C32.2788 11.96 32.7428 11.784 33.1588 11.432C33.5748 11.0693 33.9054 10.552 34.1508 9.88C34.4068 9.208 34.5348 8.40267 34.5348 7.464C34.5348 7.144 34.4761 6.83467 34.3588 6.536C34.2521 6.22667 34.0708 5.976 33.8148 5.784C33.5588 5.58133 33.2174 5.48 32.7908 5.48C32.2041 5.48 31.6921 5.68267 31.2548 6.088C30.8281 6.48267 30.4974 7.016 30.2628 7.688C30.0281 8.34933 29.9108 9.08 29.9108 9.88C29.9108 10.5413 30.0708 11.0533 30.3908 11.416C30.7214 11.7787 31.1801 11.96 31.7668 11.96ZM39.6944 13.16C39.033 13.16 38.521 12.9787 38.1584 12.616C37.7957 12.2533 37.6144 11.7307 37.6144 11.048C37.6144 10.792 37.6304 10.552 37.6624 10.328C37.705 10.104 37.7477 9.87467 37.7904 9.64L38.8944 4.424H40.3184L39.1824 9.8C39.1397 10.0347 39.1024 10.2427 39.0704 10.424C39.0384 10.5947 39.0224 10.76 39.0224 10.92C39.0224 11.24 39.1077 11.496 39.2784 11.688C39.4597 11.88 39.737 11.976 40.1104 11.976C40.4624 11.976 40.8304 11.848 41.2144 11.592C41.5984 11.336 41.9557 10.936 42.2864 10.392C42.6277 9.848 42.889 9.14933 43.0704 8.296L43.9024 4.424H45.3104L44.1584 9.8C44.0624 10.28 44.0144 10.632 44.0144 10.856C44.0144 11.208 44.0944 11.4853 44.2544 11.688C44.4144 11.88 44.681 11.976 45.0544 11.976C45.4064 11.976 45.7797 11.8533 46.1744 11.608C46.569 11.352 46.937 10.9413 47.2784 10.376C47.6197 9.81067 47.8864 9.05867 48.0784 8.12L48.8624 4.424H50.2704L48.4464 13H47.2944L47.4704 11.416H47.3904C47.1984 11.672 46.969 11.9387 46.7024 12.216C46.4464 12.4827 46.1477 12.7067 45.8064 12.888C45.465 13.0693 45.0757 13.16 44.6384 13.16C44.0517 13.16 43.5984 12.9893 43.2784 12.648C42.9584 12.3067 42.7664 11.8427 42.7024 11.256H42.6384C42.425 11.5653 42.1744 11.8693 41.8864 12.168C41.5984 12.456 41.2677 12.696 40.8944 12.888C40.5317 13.0693 40.1317 13.16 39.6944 13.16ZM53.7584 13.16C53.1077 13.16 52.585 12.9787 52.1904 12.616C51.8064 12.2533 51.6144 11.7253 51.6144 11.032C51.6144 10.7867 51.6304 10.5573 51.6624 10.344C51.705 10.12 51.7477 9.89067 51.7904 9.656L52.9104 4.424H54.3344L53.1824 9.816C53.0864 10.2747 53.0384 10.632 53.0384 10.888C53.0384 11.2293 53.1237 11.5013 53.2944 11.704C53.4757 11.896 53.7637 11.992 54.1584 11.992C54.521 11.992 54.9104 11.864 55.3264 11.608C55.753 11.352 56.1477 10.9413 56.5104 10.376C56.873 9.81067 57.1557 9.05867 57.3584 8.12L58.1424 4.424H59.5344L57.7104 13H56.5584L56.7344 11.416H56.6544C56.4517 11.672 56.2117 11.9387 55.9344 12.216C55.6677 12.4827 55.353 12.7067 54.9904 12.888C54.6384 13.0693 54.2277 13.16 53.7584 13.16ZM65.76 3.304C64.8533 3.304 64.2027 3.128 63.808 2.776C63.424 2.41333 63.232 1.944 63.232 1.368C63.232 1.16533 63.2533 0.989333 63.296 0.839999H64.528C64.496 1.01067 64.48 1.16 64.48 1.288C64.48 1.58667 64.5813 1.832 64.784 2.024C64.9973 2.20533 65.3493 2.296 65.84 2.296C66.3413 2.296 66.752 2.2 67.072 2.008C67.4027 1.80533 67.6213 1.416 67.728 0.839999H69.072C68.9333 1.58667 68.6027 2.184 68.08 2.632C67.568 3.08 66.7947 3.304 65.76 3.304ZM63.024 13.16C62.3733 13.16 61.8507 12.9787 61.456 12.616C61.072 12.2533 60.88 11.7253 60.88 11.032C60.88 10.7867 60.896 10.5573 60.928 10.344C60.9707 10.12 61.0133 9.89067 61.056 9.656L62.176 4.424H63.6L62.448 9.816C62.352 10.2747 62.304 10.632 62.304 10.888C62.304 11.2293 62.3893 11.5013 62.56 11.704C62.7413 11.896 63.0293 11.992 63.424 11.992C63.7867 11.992 64.176 11.864 64.592 11.608C65.0187 11.352 65.4133 10.9413 65.776 10.376C66.1387 9.81067 66.4213 9.05867 66.624 8.12L67.408 4.424H68.8L66.976 13H65.824L66 11.416H65.92C65.7173 11.672 65.4773 11.9387 65.2 12.216C64.9333 12.4827 64.6187 12.7067 64.256 12.888C63.904 13.0693 63.4933 13.16 63.024 13.16ZM76.6006 13.16C75.9393 13.16 75.4273 12.9787 75.0646 12.616C74.702 12.2533 74.5206 11.7307 74.5206 11.048C74.5206 10.792 74.5366 10.552 74.5686 10.328C74.6113 10.104 74.654 9.87467 74.6966 9.64L75.8006 4.424H77.2246L76.0886 9.8C76.046 10.0347 76.0086 10.2427 75.9766 10.424C75.9446 10.5947 75.9286 10.76 75.9286 10.92C75.9286 11.24 76.014 11.496 76.1846 11.688C76.366 11.88 76.6433 11.976 77.0166 11.976C77.3686 11.976 77.7366 11.848 78.1206 11.592C78.5046 11.336 78.862 10.936 79.1926 10.392C79.534 9.848 79.7953 9.14933 79.9766 8.296L80.8086 4.424H82.2166L81.0646 9.8C80.9686 10.28 80.9206 10.632 80.9206 10.856C80.9206 11.208 81.0006 11.4853 81.1606 11.688C81.3206 11.88 81.5873 11.976 81.9606 11.976C82.3126 11.976 82.686 11.8533 83.0806 11.608C83.4753 11.352 83.8433 10.9413 84.1846 10.376C84.526 9.81067 84.7926 9.05867 84.9846 8.12L85.7686 4.424H87.1766L85.3526 13H84.2006L84.3766 11.416H84.2966C84.1046 11.672 83.8753 11.9387 83.6086 12.216C83.3526 12.4827 83.054 12.7067 82.7126 12.888C82.3713 13.0693 81.982 13.16 81.5446 13.16C80.958 13.16 80.5046 12.9893 80.1846 12.648C79.8646 12.3067 79.6726 11.8427 79.6086 11.256H79.5446C79.3313 11.5653 79.0806 11.8693 78.7926 12.168C78.5046 12.456 78.174 12.696 77.8006 12.888C77.438 13.0693 77.038 13.16 76.6006 13.16ZM87.2886 16.84L89.9126 4.424H91.0646L90.8726 6.024H90.9366C91.31 5.55467 91.7313 5.14933 92.2006 4.808C92.67 4.456 93.2033 4.28 93.8006 4.28C94.494 4.28 95.054 4.52533 95.4806 5.016C95.9073 5.50667 96.1206 6.23733 96.1206 7.208C96.1206 7.98667 96.0246 8.73333 95.8326 9.448C95.6406 10.1627 95.3633 10.8027 95.0006 11.368C94.638 11.9227 94.1953 12.36 93.6726 12.68C93.1606 13 92.5846 13.16 91.9446 13.16C91.3686 13.16 90.9046 13.016 90.5526 12.728C90.2006 12.4293 89.934 12.0827 89.7526 11.688H89.6726C89.662 11.8587 89.6353 12.0987 89.5926 12.408C89.55 12.7067 89.5073 12.952 89.4646 13.144L88.6806 16.84H87.2886ZM91.8326 11.992C92.2593 11.992 92.6486 11.8587 93.0006 11.592C93.3526 11.3147 93.6513 10.9467 93.8966 10.488C94.1526 10.0293 94.3446 9.512 94.4726 8.936C94.6113 8.36 94.6806 7.77333 94.6806 7.176C94.6806 6.024 94.2273 5.448 93.3206 5.448C92.9686 5.448 92.606 5.58133 92.2326 5.848C91.87 6.104 91.534 6.456 91.2246 6.904C90.9153 7.352 90.6646 7.864 90.4726 8.44C90.2913 9.016 90.2006 9.624 90.2006 10.264C90.2006 10.776 90.334 11.192 90.6006 11.512C90.8673 11.832 91.278 11.992 91.8326 11.992ZM99.9303 13.16C99.2796 13.16 98.7569 12.9787 98.3623 12.616C97.9783 12.2533 97.7863 11.7253 97.7863 11.032C97.7863 10.7867 97.8023 10.5573 97.8343 10.344C97.8769 10.12 97.9196 9.89067 97.9622 9.656L99.0823 4.424H100.506L99.3543 9.816C99.2583 10.2747 99.2103 10.632 99.2103 10.888C99.2103 11.2293 99.2956 11.5013 99.4663 11.704C99.6476 11.896 99.9356 11.992 100.33 11.992C100.693 11.992 101.082 11.864 101.498 11.608C101.925 11.352 102.32 10.9413 102.682 10.376C103.045 9.81067 103.328 9.05867 103.53 8.12L104.314 4.424H105.706L103.882 13H102.73L102.906 11.416H102.826C102.624 11.672 102.384 11.9387 102.106 12.216C101.84 12.4827 101.525 12.7067 101.162 12.888C100.81 13.0693 100.4 13.16 99.9303 13.16ZM109.964 13.144C108.993 13.016 108.247 12.6373 107.724 12.008C107.201 11.3787 106.94 10.5413 106.94 9.496C106.94 8.6 107.121 7.76267 107.484 6.984C107.857 6.20533 108.407 5.57067 109.132 5.08C109.868 4.58933 110.769 4.328 111.836 4.296L112.572 0.839999H113.868L113.132 4.296C114.081 4.424 114.828 4.78667 115.372 5.384C115.916 5.98133 116.188 6.81333 116.188 7.88C116.188 8.84 115.985 9.71467 115.58 10.504C115.185 11.2933 114.62 11.928 113.884 12.408C113.148 12.8773 112.273 13.1173 111.26 13.128L110.476 16.84H109.18L109.964 13.144ZM111.596 5.464C110.849 5.496 110.236 5.71467 109.756 6.12C109.287 6.51467 108.94 7.01067 108.716 7.608C108.492 8.19467 108.38 8.81333 108.38 9.464C108.38 10.2213 108.545 10.8133 108.876 11.24C109.217 11.6667 109.665 11.9067 110.22 11.96L111.596 5.464ZM111.516 11.96C112.092 11.928 112.583 11.7893 112.988 11.544C113.404 11.2987 113.74 10.984 113.996 10.6C114.252 10.2053 114.439 9.77867 114.556 9.32C114.684 8.86133 114.748 8.40267 114.748 7.944C114.748 7.16533 114.577 6.57333 114.236 6.168C113.895 5.76267 113.452 5.53867 112.908 5.496L111.516 11.96ZM117.37 13L119.194 4.424H120.346L120.17 6.008H120.25C120.442 5.74133 120.666 5.47467 120.922 5.208C121.189 4.94133 121.493 4.71733 121.834 4.536C122.186 4.35467 122.581 4.264 123.018 4.264C123.605 4.264 124.053 4.43467 124.362 4.776C124.682 5.10667 124.874 5.57067 124.938 6.168H125.002C125.215 5.848 125.466 5.544 125.754 5.256C126.053 4.968 126.383 4.73333 126.746 4.552C127.109 4.36 127.509 4.264 127.946 4.264C128.607 4.264 129.119 4.44533 129.482 4.808C129.845 5.17067 130.026 5.69333 130.026 6.376C130.026 6.632 130.01 6.872 129.978 7.096C129.946 7.30933 129.903 7.53867 129.85 7.784L128.746 13H127.322L128.474 7.624C128.527 7.37867 128.565 7.17067 128.586 7C128.607 6.82933 128.618 6.664 128.618 6.504C128.618 6.184 128.527 5.928 128.346 5.736C128.175 5.544 127.903 5.448 127.53 5.448C127.189 5.448 126.821 5.576 126.426 5.832C126.042 6.088 125.679 6.488 125.338 7.032C125.007 7.56533 124.751 8.264 124.57 9.128L123.754 13H122.346L123.482 7.624C123.578 7.144 123.626 6.792 123.626 6.568C123.626 6.216 123.546 5.944 123.386 5.752C123.226 5.54933 122.959 5.448 122.586 5.448C122.245 5.448 121.877 5.576 121.482 5.832C121.087 6.07733 120.719 6.48267 120.378 7.048C120.037 7.61333 119.765 8.36533 119.562 9.304L118.778 13H117.37ZM134.628 8.344L134.74 7.72H150.9L150.788 8.344H134.628ZM156.363 13.16C155.936 13.16 155.542 13.1173 155.179 13.032C154.816 12.9467 154.544 12.8613 154.363 12.776V11.512C154.683 11.6507 155.003 11.7627 155.323 11.848C155.643 11.9333 155.99 11.976 156.363 11.976C157.12 11.976 157.739 11.7307 158.219 11.24C158.71 10.7493 159.035 10.0667 159.195 9.192H155.515L155.755 8.008H159.339V7.768C159.339 6.95733 159.179 6.37067 158.859 6.008C158.539 5.63467 158.064 5.448 157.435 5.448C157.094 5.448 156.763 5.49067 156.443 5.576C156.134 5.66133 155.84 5.768 155.563 5.896L155.147 4.824C155.467 4.67467 155.824 4.54667 156.219 4.44C156.614 4.33333 157.067 4.28 157.579 4.28C158.656 4.28 159.456 4.58933 159.979 5.208C160.502 5.816 160.763 6.65867 160.763 7.736C160.763 8.41867 160.683 9.08533 160.523 9.736C160.363 10.3867 160.107 10.968 159.755 11.48C159.414 11.992 158.96 12.4027 158.395 12.712C157.84 13.0107 157.163 13.16 156.363 13.16ZM161.979 13L163.803 4.424H164.955L164.779 6.008H164.859C165.051 5.74133 165.275 5.47467 165.531 5.208C165.798 4.94133 166.102 4.71733 166.443 4.536C166.795 4.35467 167.19 4.264 167.627 4.264C168.214 4.264 168.662 4.43467 168.971 4.776C169.291 5.10667 169.483 5.57067 169.547 6.168H169.611C169.825 5.848 170.075 5.544 170.363 5.256C170.662 4.968 170.993 4.73333 171.355 4.552C171.718 4.36 172.118 4.264 172.555 4.264C173.217 4.264 173.729 4.44533 174.091 4.808C174.454 5.17067 174.635 5.69333 174.635 6.376C174.635 6.632 174.619 6.872 174.587 7.096C174.555 7.30933 174.513 7.53867 174.459 7.784L173.355 13H171.931L173.083 7.624C173.137 7.37867 173.174 7.17067 173.195 7C173.217 6.82933 173.227 6.664 173.227 6.504C173.227 6.184 173.137 5.928 172.955 5.736C172.785 5.544 172.513 5.448 172.139 5.448C171.798 5.448 171.43 5.576 171.035 5.832C170.651 6.088 170.289 6.488 169.947 7.032C169.617 7.56533 169.361 8.264 169.179 9.128L168.363 13H166.955L168.091 7.624C168.187 7.144 168.235 6.792 168.235 6.568C168.235 6.216 168.155 5.944 167.995 5.752C167.835 5.54933 167.569 5.448 167.195 5.448C166.854 5.448 166.486 5.576 166.091 5.832C165.697 6.07733 165.329 6.48267 164.987 7.048C164.646 7.61333 164.374 8.36533 164.171 9.304L163.387 13H161.979ZM179.499 13.128C178.507 13.128 177.723 12.8347 177.147 12.248C176.582 11.6507 176.299 10.8453 176.299 9.832C176.299 9.17067 176.39 8.51467 176.571 7.864C176.753 7.21333 177.019 6.62133 177.371 6.088C177.734 5.55467 178.182 5.128 178.715 4.808C179.259 4.47733 179.883 4.312 180.587 4.312C181.59 4.312 182.374 4.61067 182.939 5.208C183.505 5.79467 183.787 6.6 183.787 7.624C183.787 8.27467 183.697 8.92533 183.515 9.576C183.334 10.2267 183.062 10.8187 182.699 11.352C182.347 11.8853 181.905 12.3173 181.371 12.648C180.838 12.968 180.214 13.128 179.499 13.128ZM179.579 11.96C180.091 11.96 180.555 11.784 180.971 11.432C181.387 11.0693 181.718 10.552 181.963 9.88C182.219 9.208 182.347 8.40267 182.347 7.464C182.347 7.144 182.289 6.83467 182.171 6.536C182.065 6.22667 181.883 5.976 181.627 5.784C181.371 5.58133 181.03 5.48 180.603 5.48C180.017 5.48 179.505 5.68267 179.067 6.088C178.641 6.48267 178.31 7.016 178.075 7.688C177.841 8.34933 177.723 9.08 177.723 9.88C177.723 10.5413 177.883 11.0533 178.203 11.416C178.534 11.7787 178.993 11.96 179.579 11.96ZM189.37 13L191.178 4.424H192.57L191.69 8.552L195.69 4.424H197.45L193.21 8.664L196.074 13H194.394L191.674 8.728L190.778 13H189.37ZM199.791 13.16C199.108 13.16 198.548 12.9147 198.111 12.424C197.684 11.9227 197.471 11.192 197.471 10.232C197.471 9.432 197.572 8.67467 197.775 7.96C197.988 7.23467 198.282 6.6 198.655 6.056C199.028 5.50133 199.471 5.064 199.983 4.744C200.495 4.424 201.06 4.264 201.679 4.264C202.244 4.264 202.703 4.41333 203.055 4.712C203.407 5.01067 203.668 5.35733 203.839 5.752H203.919L204.431 4.424H205.503L203.679 13H202.559L202.767 11.416H202.703C202.34 11.8853 201.914 12.296 201.423 12.648C200.932 12.9893 200.388 13.16 199.791 13.16ZM200.255 11.992C200.65 11.992 201.034 11.848 201.407 11.56C201.791 11.272 202.138 10.8827 202.447 10.392C202.756 9.90133 202.991 9.352 203.151 8.744C203.236 8.43467 203.29 8.152 203.311 7.896C203.343 7.62933 203.359 7.384 203.359 7.16C203.359 6.65867 203.22 6.248 202.943 5.928C202.666 5.608 202.292 5.448 201.823 5.448C201.407 5.448 201.023 5.58133 200.671 5.848C200.319 6.104 200.01 6.46133 199.743 6.92C199.476 7.368 199.268 7.88 199.119 8.456C198.98 9.032 198.911 9.63467 198.911 10.264C198.911 10.84 199.028 11.272 199.263 11.56C199.498 11.848 199.828 11.992 200.255 11.992ZM206.245 13L208.053 4.424H209.445L208.565 8.552L212.565 4.424H214.325L210.085 8.664L212.949 13H211.269L208.549 8.728L207.653 13H206.245ZM221.121 13.16C220.63 13.16 220.172 13.0853 219.745 12.936C219.329 12.7867 218.993 12.552 218.737 12.232C218.481 11.912 218.353 11.496 218.353 10.984C218.353 10.4187 218.497 9.96 218.785 9.608C219.073 9.24533 219.436 8.94667 219.873 8.712C220.31 8.47733 220.758 8.28 221.217 8.12C221.857 7.87467 222.38 7.62933 222.785 7.384C223.201 7.128 223.409 6.78133 223.409 6.344C223.409 6.07733 223.324 5.864 223.153 5.704C222.982 5.53333 222.678 5.448 222.241 5.448C221.825 5.448 221.414 5.50667 221.009 5.624C220.604 5.73067 220.23 5.85867 219.889 6.008L219.505 4.888C219.878 4.74933 220.305 4.616 220.785 4.488C221.265 4.34933 221.798 4.28 222.385 4.28C223.1 4.28 223.686 4.43467 224.145 4.744C224.604 5.04267 224.833 5.54933 224.833 6.264C224.833 6.75467 224.7 7.17067 224.433 7.512C224.177 7.85333 223.846 8.136 223.441 8.36C223.036 8.584 222.604 8.78133 222.145 8.952C221.665 9.13333 221.244 9.30933 220.881 9.48C220.529 9.64 220.257 9.82667 220.065 10.04C219.873 10.2533 219.777 10.5307 219.777 10.872C219.777 11.2133 219.9 11.4853 220.145 11.688C220.401 11.8907 220.796 11.992 221.329 11.992C221.766 11.992 222.188 11.928 222.593 11.8C222.998 11.672 223.393 11.5173 223.777 11.336V12.568C223.404 12.7387 223.004 12.8827 222.577 13C222.15 13.1067 221.665 13.16 221.121 13.16ZM228.385 13.16C227.702 13.16 227.142 12.9147 226.705 12.424C226.278 11.9227 226.065 11.192 226.065 10.232C226.065 9.432 226.166 8.67467 226.369 7.96C226.582 7.23467 226.876 6.6 227.249 6.056C227.622 5.50133 228.065 5.064 228.577 4.744C229.089 4.424 229.654 4.264 230.273 4.264C230.838 4.264 231.297 4.41333 231.649 4.712C232.001 5.01067 232.262 5.35733 232.433 5.752H232.513L233.025 4.424H234.097L232.273 13H231.153L231.361 11.416H231.297C230.934 11.8853 230.508 12.296 230.017 12.648C229.526 12.9893 228.982 13.16 228.385 13.16ZM228.849 11.992C229.244 11.992 229.628 11.848 230.001 11.56C230.385 11.272 230.732 10.8827 231.041 10.392C231.35 9.90133 231.585 9.352 231.745 8.744C231.83 8.43467 231.884 8.152 231.905 7.896C231.937 7.62933 231.953 7.384 231.953 7.16C231.953 6.65867 231.814 6.248 231.537 5.928C231.26 5.608 230.886 5.448 230.417 5.448C230.001 5.448 229.617 5.58133 229.265 5.848C228.913 6.104 228.604 6.46133 228.337 6.92C228.07 7.368 227.862 7.88 227.713 8.456C227.574 9.032 227.505 9.63467 227.505 10.264C227.505 10.84 227.622 11.272 227.857 11.56C228.092 11.848 228.422 11.992 228.849 11.992ZM234.039 16.84L236.663 4.424H237.815L237.623 6.024H237.687C238.06 5.55467 238.481 5.14933 238.951 4.808C239.42 4.456 239.953 4.28 240.551 4.28C241.244 4.28 241.804 4.52533 242.231 5.016C242.657 5.50667 242.871 6.23733 242.871 7.208C242.871 7.98667 242.775 8.73333 242.583 9.448C242.391 10.1627 242.113 10.8027 241.751 11.368C241.388 11.9227 240.945 12.36 240.423 12.68C239.911 13 239.335 13.16 238.695 13.16C238.119 13.16 237.655 13.016 237.303 12.728C236.951 12.4293 236.684 12.0827 236.503 11.688H236.423C236.412 11.8587 236.385 12.0987 236.343 12.408C236.3 12.7067 236.257 12.952 236.215 13.144L235.431 16.84H234.039ZM238.583 11.992C239.009 11.992 239.399 11.8587 239.751 11.592C240.103 11.3147 240.401 10.9467 240.647 10.488C240.903 10.0293 241.095 9.512 241.223 8.936C241.361 8.36 241.431 7.77333 241.431 7.176C241.431 6.024 240.977 5.448 240.071 5.448C239.719 5.448 239.356 5.58133 238.983 5.848C238.62 6.104 238.284 6.456 237.975 6.904C237.665 7.352 237.415 7.864 237.223 8.44C237.041 9.016 236.951 9.624 236.951 10.264C236.951 10.776 237.084 11.192 237.351 11.512C237.617 11.832 238.028 11.992 238.583 11.992ZM244.12 13L245.928 4.44H247.752L248.648 11.24H248.68L252.44 4.44H254.408L252.616 13H251.336L252.376 8.088C252.472 7.68267 252.568 7.27733 252.664 6.872C252.771 6.46667 252.867 6.09333 252.952 5.752H252.92L248.888 13H247.784L246.808 5.768H246.76C246.718 6.06667 246.659 6.43467 246.584 6.872C246.51 7.29867 246.43 7.71467 246.344 8.12L245.352 13H244.12ZM258.812 13.128C257.82 13.128 257.036 12.8347 256.46 12.248C255.894 11.6507 255.612 10.8453 255.612 9.832C255.612 9.17067 255.702 8.51467 255.884 7.864C256.065 7.21333 256.332 6.62133 256.684 6.088C257.046 5.55467 257.494 5.128 258.028 4.808C258.572 4.47733 259.196 4.312 259.9 4.312C260.902 4.312 261.686 4.61067 262.252 5.208C262.817 5.79467 263.1 6.6 263.1 7.624C263.1 8.27467 263.009 8.92533 262.828 9.576C262.646 10.2267 262.374 10.8187 262.012 11.352C261.66 11.8853 261.217 12.3173 260.684 12.648C260.15 12.968 259.526 13.128 258.812 13.128ZM258.892 11.96C259.404 11.96 259.868 11.784 260.284 11.432C260.7 11.0693 261.03 10.552 261.276 9.88C261.532 9.208 261.66 8.40267 261.66 7.464C261.66 7.144 261.601 6.83467 261.484 6.536C261.377 6.22667 261.196 5.976 260.94 5.784C260.684 5.58133 260.342 5.48 259.916 5.48C259.329 5.48 258.817 5.68267 258.38 6.088C257.953 6.48267 257.622 7.016 257.388 7.688C257.153 8.34933 257.036 9.08 257.036 9.88C257.036 10.5413 257.196 11.0533 257.516 11.416C257.846 11.7787 258.305 11.96 258.892 11.96ZM265.363 8.344L265.491 7.72H269.635L269.523 8.344H265.363ZM1.448 34L3.272 25.424H4.664L3.928 28.992H7.96L8.728 25.424H10.136L8.328 34H6.904L7.704 30.16H3.672L2.856 34H1.448ZM13.6334 34.16C12.9827 34.16 12.46 33.9787 12.0654 33.616C11.6814 33.2533 11.4894 32.7253 11.4894 32.032C11.4894 31.7867 11.5054 31.5573 11.5374 31.344C11.58 31.12 11.6227 30.8907 11.6654 30.656L12.7854 25.424H14.2094L13.0574 30.816C12.9614 31.2747 12.9134 31.632 12.9134 31.888C12.9134 32.2293 12.9987 32.5013 13.1694 32.704C13.3507 32.896 13.6387 32.992 14.0334 32.992C14.396 32.992 14.7854 32.864 15.2014 32.608C15.628 32.352 16.0227 31.9413 16.3854 31.376C16.748 30.8107 17.0307 30.0587 17.2334 29.12L18.0174 25.424H19.4094L17.5854 34H16.4334L16.6094 32.416H16.5294C16.3267 32.672 16.0867 32.9387 15.8094 33.216C15.5427 33.4827 15.228 33.7067 14.8654 33.888C14.5134 34.0693 14.1027 34.16 13.6334 34.16ZM25.603 31.584C25.6777 31.2107 25.763 30.848 25.859 30.496C25.9657 30.144 26.0563 29.8347 26.131 29.568H26.067C25.747 29.9947 25.3523 30.3467 24.883 30.624C24.4243 30.9013 23.8963 31.04 23.299 31.04C22.5843 31.04 22.0403 30.8533 21.667 30.48C21.2937 30.1067 21.107 29.5627 21.107 28.848C21.107 28.6453 21.1283 28.416 21.171 28.16C21.2137 27.904 21.2563 27.648 21.299 27.392L21.715 25.424H23.139L22.707 27.504C22.643 27.7813 22.595 28.016 22.563 28.208C22.5417 28.3893 22.531 28.56 22.531 28.72C22.531 29.1467 22.6323 29.4453 22.835 29.616C23.0483 29.776 23.3363 29.856 23.699 29.856C24.0723 29.856 24.451 29.7547 24.835 29.552C25.2297 29.3493 25.5977 28.992 25.939 28.48C26.2803 27.968 26.5523 27.248 26.755 26.32L26.947 25.424H28.355L26.531 34H25.091L25.603 31.584ZM29.2605 34L31.0845 25.424H32.4765L31.7405 28.992H35.7725L36.5405 25.424H37.9485L36.1405 34H34.7165L35.5165 30.16H31.4845L30.6685 34H29.2605ZM42.3899 34.128C41.3979 34.128 40.6139 33.8347 40.0379 33.248C39.4725 32.6507 39.1899 31.8453 39.1899 30.832C39.1899 30.1707 39.2805 29.5147 39.4619 28.864C39.6432 28.2133 39.9099 27.6213 40.2619 27.088C40.6245 26.5547 41.0725 26.128 41.6059 25.808C42.1499 25.4773 42.7739 25.312 43.4779 25.312C44.4805 25.312 45.2645 25.6107 45.8299 26.208C46.3952 26.7947 46.6779 27.6 46.6779 28.624C46.6779 29.2747 46.5872 29.9253 46.4059 30.576C46.2245 31.2267 45.9525 31.8187 45.5899 32.352C45.2379 32.8853 44.7952 33.3173 44.2619 33.648C43.7285 33.968 43.1045 34.128 42.3899 34.128ZM42.4699 32.96C42.9819 32.96 43.4459 32.784 43.8619 32.432C44.2779 32.0693 44.6085 31.552 44.8539 30.88C45.1099 30.208 45.2379 29.4027 45.2379 28.464C45.2379 28.144 45.1792 27.8347 45.0619 27.536C44.9552 27.2267 44.7739 26.976 44.5179 26.784C44.2619 26.5813 43.9205 26.48 43.4939 26.48C42.9072 26.48 42.3952 26.6827 41.9579 27.088C41.5312 27.4827 41.2005 28.016 40.9659 28.688C40.7312 29.3493 40.6139 30.08 40.6139 30.88C40.6139 31.5413 40.7739 32.0533 41.0939 32.416C41.4245 32.7787 41.8832 32.96 42.4699 32.96ZM51.3095 34.16C50.3175 34.16 49.5495 33.872 49.0055 33.296C48.4722 32.7093 48.2055 31.92 48.2055 30.928C48.2055 30.2453 48.3015 29.5733 48.4935 28.912C48.6962 28.24 48.9842 27.632 49.3575 27.088C49.7308 26.5333 50.1788 26.0907 50.7015 25.76C51.2348 25.4293 51.8322 25.264 52.4935 25.264C53.3042 25.264 53.9122 25.44 54.3175 25.792C54.7335 26.144 54.9415 26.6347 54.9415 27.264C54.9415 27.8187 54.7655 28.3253 54.4135 28.784C54.0722 29.2427 53.5335 29.6107 52.7975 29.888C52.0615 30.1547 51.1068 30.288 49.9335 30.288H49.6615C49.6508 30.384 49.6402 30.4853 49.6295 30.592C49.6295 30.6987 49.6295 30.7947 49.6295 30.88C49.6295 31.5307 49.7895 32.048 50.1095 32.432C50.4295 32.8053 50.9148 32.992 51.5655 32.992C51.9708 32.992 52.3548 32.9333 52.7175 32.816C53.0802 32.6987 53.4748 32.5387 53.9015 32.336V33.536C53.4962 33.7173 53.0962 33.8667 52.7015 33.984C52.3175 34.1013 51.8535 34.16 51.3095 34.16ZM49.9815 29.152C50.6215 29.152 51.2135 29.0987 51.7575 28.992C52.3015 28.8747 52.7388 28.688 53.0695 28.432C53.4002 28.1653 53.5655 27.8133 53.5655 27.376C53.5655 27.0987 53.4695 26.8747 53.2775 26.704C53.0962 26.5227 52.8082 26.432 52.4135 26.432C51.9015 26.432 51.4055 26.672 50.9255 27.152C50.4562 27.6213 50.1042 28.288 49.8695 29.152H49.9815ZM63.7489 34.16C62.7995 34.16 62.0315 33.8933 61.4449 33.36C60.8582 32.8267 60.5649 32.0267 60.5649 30.96C60.5649 30.192 60.6662 29.4667 60.8689 28.784C61.0822 28.0907 61.3809 27.4827 61.7649 26.96C62.1595 26.4373 62.6342 26.0267 63.1889 25.728C63.7435 25.4187 64.3622 25.264 65.0449 25.264C65.4182 25.264 65.7915 25.3013 66.1649 25.376C66.5382 25.4507 66.8742 25.552 67.1729 25.68L66.7729 26.848C66.5595 26.752 66.3035 26.6613 66.0049 26.576C65.7169 26.4907 65.4022 26.448 65.0609 26.448C64.4529 26.448 63.9195 26.656 63.4609 27.072C63.0022 27.4773 62.6449 28.0213 62.3889 28.704C62.1329 29.3867 62.0049 30.1333 62.0049 30.944C62.0049 31.5947 62.1702 32.1013 62.5009 32.464C62.8422 32.816 63.3062 32.992 63.8929 32.992C64.2662 32.992 64.6182 32.9387 64.9489 32.832C65.2902 32.7253 65.6262 32.6027 65.9569 32.464V33.648C65.6582 33.7973 65.3222 33.92 64.9489 34.016C64.5862 34.112 64.1862 34.16 63.7489 34.16ZM71.0149 34.128C70.0229 34.128 69.2389 33.8347 68.6629 33.248C68.0975 32.6507 67.8149 31.8453 67.8149 30.832C67.8149 30.1707 67.9055 29.5147 68.0869 28.864C68.2682 28.2133 68.5349 27.6213 68.8869 27.088C69.2495 26.5547 69.6975 26.128 70.2309 25.808C70.7749 25.4773 71.3989 25.312 72.1029 25.312C73.1055 25.312 73.8895 25.6107 74.4549 26.208C75.0202 26.7947 75.3029 27.6 75.3029 28.624C75.3029 29.2747 75.2122 29.9253 75.0309 30.576C74.8495 31.2267 74.5775 31.8187 74.2149 32.352C73.8629 32.8853 73.4202 33.3173 72.8869 33.648C72.3535 33.968 71.7295 34.128 71.0149 34.128ZM71.0949 32.96C71.6069 32.96 72.0709 32.784 72.4869 32.432C72.9029 32.0693 73.2335 31.552 73.4789 30.88C73.7349 30.208 73.8629 29.4027 73.8629 28.464C73.8629 28.144 73.8042 27.8347 73.6869 27.536C73.5802 27.2267 73.3989 26.976 73.1429 26.784C72.8869 26.5813 72.5455 26.48 72.1189 26.48C71.5322 26.48 71.0202 26.6827 70.5829 27.088C70.1562 27.4827 69.8255 28.016 69.5909 28.688C69.3562 29.3493 69.2389 30.08 69.2389 30.88C69.2389 31.5413 69.3989 32.0533 69.7189 32.416C70.0495 32.7787 70.5082 32.96 71.0949 32.96ZM80.0305 34.128C79.0385 34.128 78.2545 33.8347 77.6785 33.248C77.1132 32.6507 76.8305 31.8453 76.8305 30.832C76.8305 30.1707 76.9212 29.5147 77.1025 28.864C77.2838 28.2133 77.5505 27.6213 77.9025 27.088C78.2652 26.5547 78.7132 26.128 79.2465 25.808C79.7905 25.4773 80.4145 25.312 81.1185 25.312C82.1212 25.312 82.9052 25.6107 83.4705 26.208C84.0358 26.7947 84.3185 27.6 84.3185 28.624C84.3185 29.2747 84.2278 29.9253 84.0465 30.576C83.8652 31.2267 83.5932 31.8187 83.2305 32.352C82.8785 32.8853 82.4358 33.3173 81.9025 33.648C81.3692 33.968 80.7452 34.128 80.0305 34.128ZM80.1105 32.96C80.6225 32.96 81.0865 32.784 81.5025 32.432C81.9185 32.0693 82.2492 31.552 82.4945 30.88C82.7505 30.208 82.8785 29.4027 82.8785 28.464C82.8785 28.144 82.8198 27.8347 82.7025 27.536C82.5958 27.2267 82.4145 26.976 82.1585 26.784C81.9025 26.5813 81.5612 26.48 81.1345 26.48C80.5478 26.48 80.0358 26.6827 79.5985 27.088C79.1718 27.4827 78.8412 28.016 78.6065 28.688C78.3718 29.3493 78.2545 30.08 78.2545 30.88C78.2545 31.5413 78.4145 32.0533 78.7345 32.416C79.0652 32.7787 79.5238 32.96 80.1105 32.96ZM88.9181 34.16C87.9475 34.16 87.1955 33.856 86.6621 33.248C86.1288 32.6293 85.8621 31.728 85.8621 30.544C85.8621 30.064 85.9048 29.5147 85.9901 28.896C86.0861 28.2667 86.2301 27.6267 86.4221 26.976C86.6248 26.3147 86.8808 25.6853 87.1901 25.088C87.5101 24.4907 87.8941 23.9733 88.3421 23.536C88.8008 23.0987 89.3341 22.7893 89.9421 22.608C90.1341 22.544 90.4115 22.4747 90.7741 22.4C91.1475 22.3147 91.5528 22.2293 91.9901 22.144C92.4275 22.048 92.8435 21.968 93.2381 21.904C93.6328 21.84 93.9475 21.792 94.1821 21.76L94.3421 22.912C94.0435 22.9547 93.6595 23.0187 93.1901 23.104C92.7208 23.1893 92.2461 23.2853 91.7661 23.392C91.2968 23.488 90.8968 23.5893 90.5661 23.696C89.8835 23.9093 89.3021 24.336 88.8221 24.976C88.3421 25.616 87.9635 26.4427 87.6861 27.456L87.7341 27.472C88.0221 27.1307 88.4115 26.8053 88.9021 26.496C89.3928 26.1867 89.9528 26.032 90.5821 26.032C91.3928 26.032 91.9955 26.288 92.3901 26.8C92.7955 27.3013 92.9981 28.0053 92.9981 28.912C92.9981 29.5627 92.9181 30.2027 92.7581 30.832C92.6088 31.4507 92.3688 32.0107 92.0381 32.512C91.7181 33.0133 91.2968 33.4133 90.7741 33.712C90.2621 34.0107 89.6435 34.16 88.9181 34.16ZM89.0461 32.992C89.5155 32.992 89.9101 32.864 90.2301 32.608C90.5501 32.3413 90.8061 32.0053 90.9981 31.6C91.2008 31.184 91.3448 30.752 91.4301 30.304C91.5155 29.8453 91.5581 29.4293 91.5581 29.056C91.5581 28.416 91.4461 27.9467 91.2221 27.648C90.9981 27.3493 90.6621 27.2 90.2141 27.2C89.8195 27.2 89.4408 27.296 89.0781 27.488C88.7261 27.68 88.4115 27.9093 88.1341 28.176C87.8568 28.432 87.6328 28.6773 87.4621 28.912C87.4195 29.2 87.3768 29.488 87.3341 29.776C87.3021 30.064 87.2861 30.336 87.2861 30.592C87.2861 31.3067 87.4195 31.888 87.6861 32.336C87.9528 32.7733 88.4061 32.992 89.0461 32.992ZM105.461 34.112C105.141 34.0267 104.901 33.856 104.741 33.6C104.592 33.3333 104.512 32.9493 104.501 32.448H104.453C104.272 32.7147 104.048 32.9813 103.781 33.248C103.514 33.5147 103.21 33.7333 102.869 33.904C102.528 34.0747 102.138 34.16 101.701 34.16C101.114 34.16 100.661 33.9893 100.341 33.648C100.021 33.3067 99.8289 32.8427 99.7649 32.256H99.7009C99.4875 32.5653 99.2369 32.8693 98.9489 33.168C98.6609 33.456 98.3355 33.696 97.9729 33.888C97.6102 34.0693 97.2049 34.16 96.7569 34.16C96.0955 34.16 95.5835 33.9787 95.2209 33.616C94.8582 33.2533 94.6769 32.7307 94.6769 32.048C94.6769 31.792 94.6929 31.5573 94.7249 31.344C94.7675 31.12 94.8102 30.8853 94.8529 30.64L95.9569 25.424H97.3809L96.2449 30.816C96.2022 31.0507 96.1649 31.2533 96.1329 31.424C96.1009 31.5947 96.0849 31.76 96.0849 31.92C96.0849 32.24 96.1702 32.496 96.3409 32.688C96.5222 32.88 96.7995 32.976 97.1729 32.976C97.5142 32.976 97.8769 32.8533 98.2609 32.608C98.6555 32.352 99.0182 31.952 99.3489 31.408C99.6902 30.864 99.9515 30.16 100.133 29.296L100.965 25.424H102.373L101.221 30.816C101.125 31.2747 101.077 31.6213 101.077 31.856C101.077 32.2187 101.157 32.496 101.317 32.688C101.477 32.88 101.744 32.976 102.117 32.976C102.469 32.976 102.842 32.8533 103.237 32.608C103.632 32.352 104 31.9413 104.341 31.376C104.682 30.8107 104.949 30.0587 105.141 29.12L105.925 25.424H107.333L106.053 31.472C106.021 31.6427 105.994 31.8133 105.973 31.984C105.952 32.1547 105.941 32.2987 105.941 32.416C105.941 32.8213 106.138 33.024 106.533 33.024C106.672 33.024 106.789 33.008 106.885 32.976C106.992 32.944 107.082 32.9227 107.157 32.912L106.245 36.976H104.837L105.461 34.112ZM111.95 34.16C110.958 34.16 110.19 33.872 109.646 33.296C109.113 32.7093 108.846 31.92 108.846 30.928C108.846 30.2453 108.942 29.5733 109.134 28.912C109.337 28.24 109.625 27.632 109.998 27.088C110.371 26.5333 110.819 26.0907 111.342 25.76C111.875 25.4293 112.473 25.264 113.134 25.264C113.945 25.264 114.553 25.44 114.958 25.792C115.374 26.144 115.582 26.6347 115.582 27.264C115.582 27.8187 115.406 28.3253 115.054 28.784C114.713 29.2427 114.174 29.6107 113.438 29.888C112.702 30.1547 111.747 30.288 110.574 30.288H110.302C110.291 30.384 110.281 30.4853 110.27 30.592C110.27 30.6987 110.27 30.7947 110.27 30.88C110.27 31.5307 110.43 32.048 110.75 32.432C111.07 32.8053 111.555 32.992 112.206 32.992C112.611 32.992 112.995 32.9333 113.358 32.816C113.721 32.6987 114.115 32.5387 114.542 32.336V33.536C114.137 33.7173 113.737 33.8667 113.342 33.984C112.958 34.1013 112.494 34.16 111.95 34.16ZM110.622 29.152C111.262 29.152 111.854 29.0987 112.398 28.992C112.942 28.8747 113.379 28.688 113.71 28.432C114.041 28.1653 114.206 27.8133 114.206 27.376C114.206 27.0987 114.11 26.8747 113.918 26.704C113.737 26.5227 113.449 26.432 113.054 26.432C112.542 26.432 112.046 26.672 111.566 27.152C111.097 27.6213 110.745 28.288 110.51 29.152H110.622ZM120.015 34.16C119.065 34.16 118.297 33.8933 117.711 33.36C117.124 32.8267 116.831 32.0267 116.831 30.96C116.831 30.192 116.932 29.4667 117.135 28.784C117.348 28.0907 117.647 27.4827 118.031 26.96C118.425 26.4373 118.9 26.0267 119.455 25.728C120.009 25.4187 120.628 25.264 121.311 25.264C121.684 25.264 122.057 25.3013 122.431 25.376C122.804 25.4507 123.14 25.552 123.439 25.68L123.039 26.848C122.825 26.752 122.569 26.6613 122.271 26.576C121.983 26.4907 121.668 26.448 121.327 26.448C120.719 26.448 120.185 26.656 119.727 27.072C119.268 27.4773 118.911 28.0213 118.655 28.704C118.399 29.3867 118.271 30.1333 118.271 30.944C118.271 31.5947 118.436 32.1013 118.767 32.464C119.108 32.816 119.572 32.992 120.159 32.992C120.532 32.992 120.884 32.9387 121.215 32.832C121.556 32.7253 121.892 32.6027 122.223 32.464V33.648C121.924 33.7973 121.588 33.92 121.215 34.016C120.852 34.112 120.452 34.16 120.015 34.16ZM123.761 34L125.585 25.424H126.737L126.561 27.008H126.641C126.833 26.7413 127.057 26.4747 127.312 26.208C127.579 25.9413 127.883 25.7173 128.225 25.536C128.577 25.3547 128.971 25.264 129.409 25.264C129.995 25.264 130.443 25.4347 130.753 25.776C131.073 26.1067 131.265 26.5707 131.329 27.168H131.392C131.606 26.848 131.857 26.544 132.145 26.256C132.443 25.968 132.774 25.7333 133.137 25.552C133.499 25.36 133.899 25.264 134.337 25.264C134.998 25.264 135.51 25.4453 135.873 25.808C136.235 26.1707 136.417 26.6933 136.417 27.376C136.417 27.632 136.401 27.872 136.369 28.096C136.337 28.3093 136.294 28.5387 136.241 28.784L135.137 34H133.713L134.865 28.624C134.918 28.3787 134.955 28.1707 134.977 28C134.998 27.8293 135.009 27.664 135.009 27.504C135.009 27.184 134.918 26.928 134.737 26.736C134.566 26.544 134.294 26.448 133.921 26.448C133.579 26.448 133.211 26.576 132.817 26.832C132.433 27.088 132.07 27.488 131.729 28.032C131.398 28.5653 131.142 29.264 130.961 30.128L130.145 34H128.737L129.873 28.624C129.969 28.144 130.017 27.792 130.017 27.568C130.017 27.216 129.937 26.944 129.777 26.752C129.617 26.5493 129.35 26.448 128.977 26.448C128.635 26.448 128.267 26.576 127.873 26.832C127.478 27.0773 127.11 27.4827 126.769 28.048C126.427 28.6133 126.155 29.3653 125.953 30.304L125.169 34H123.761ZM141.457 34.16C140.283 34.16 139.425 33.84 138.881 33.2C138.347 32.5493 138.081 31.6907 138.081 30.624C138.081 29.6213 138.257 28.72 138.609 27.92C138.971 27.1093 139.489 26.4693 140.161 26C140.843 25.52 141.665 25.28 142.625 25.28C143.542 25.28 144.251 25.4613 144.753 25.824C145.254 26.1867 145.505 26.7307 145.505 27.456C145.505 28.0853 145.302 28.576 144.897 28.928C144.491 29.28 143.974 29.5253 143.345 29.664V29.696C143.814 29.8133 144.198 30.0107 144.497 30.288C144.795 30.5547 144.945 30.9653 144.945 31.52C144.945 31.9147 144.833 32.32 144.609 32.736C144.395 33.1413 144.033 33.4827 143.521 33.76C143.009 34.0267 142.321 34.16 141.457 34.16ZM141.409 29.152C141.878 29.152 142.315 29.104 142.721 29.008C143.137 28.912 143.467 28.752 143.713 28.528C143.969 28.2933 144.097 27.984 144.097 27.6C144.097 27.28 143.985 27.008 143.761 26.784C143.537 26.56 143.163 26.448 142.641 26.448C141.894 26.448 141.259 26.6827 140.737 27.152C140.225 27.6213 139.867 28.288 139.664 29.152H141.409ZM141.553 33.008C142.257 33.008 142.769 32.8587 143.089 32.56C143.419 32.2507 143.585 31.8987 143.585 31.504C143.585 31.0987 143.419 30.7947 143.089 30.592C142.758 30.3893 142.235 30.288 141.521 30.288H139.505V30.672C139.505 31.4933 139.691 32.0907 140.065 32.464C140.438 32.8267 140.934 33.008 141.553 33.008ZM149.937 34.128C148.945 34.128 148.161 33.8347 147.585 33.248C147.019 32.6507 146.737 31.8453 146.737 30.832C146.737 30.1707 146.827 29.5147 147.009 28.864C147.19 28.2133 147.457 27.6213 147.809 27.088C148.171 26.5547 148.619 26.128 149.153 25.808C149.697 25.4773 150.321 25.312 151.025 25.312C152.027 25.312 152.811 25.6107 153.377 26.208C153.942 26.7947 154.225 27.6 154.225 28.624C154.225 29.2747 154.134 29.9253 153.953 30.576C153.771 31.2267 153.499 31.8187 153.137 32.352C152.785 32.8853 152.342 33.3173 151.809 33.648C151.275 33.968 150.651 34.128 149.937 34.128ZM150.017 32.96C150.529 32.96 150.993 32.784 151.409 32.432C151.825 32.0693 152.155 31.552 152.401 30.88C152.657 30.208 152.785 29.4027 152.785 28.464C152.785 28.144 152.726 27.8347 152.609 27.536C152.502 27.2267 152.321 26.976 152.065 26.784C151.809 26.5813 151.467 26.48 151.041 26.48C150.454 26.48 149.942 26.6827 149.505 27.088C149.078 27.4827 148.747 28.016 148.513 28.688C148.278 29.3493 148.161 30.08 148.161 30.88C148.161 31.5413 148.321 32.0533 148.641 32.416C148.971 32.7787 149.43 32.96 150.017 32.96ZM159.311 34.112C159.173 34.112 159.045 34.096 158.927 34.064C158.81 34.0427 158.719 34.0213 158.655 34V32.784C158.805 32.848 158.981 32.88 159.183 32.88C159.525 32.88 159.818 32.768 160.063 32.544C160.309 32.32 160.543 31.9627 160.767 31.472C160.991 30.9813 161.237 30.336 161.503 29.536C161.749 28.8213 161.983 28.2027 162.207 27.68C162.431 27.1573 162.682 26.7253 162.959 26.384C163.247 26.032 163.599 25.7707 164.015 25.6C164.431 25.4293 164.949 25.344 165.567 25.344C165.93 25.344 166.282 25.3707 166.623 25.424C166.965 25.4667 167.274 25.5307 167.551 25.616L165.759 34H164.335L165.951 26.592C165.877 26.5707 165.786 26.5547 165.679 26.544C165.573 26.5333 165.461 26.528 165.343 26.528C164.906 26.528 164.549 26.6347 164.271 26.848C164.005 27.0507 163.759 27.4027 163.535 27.904C163.311 28.4053 163.045 29.1093 162.735 30.016C162.426 30.8907 162.127 31.6373 161.839 32.256C161.562 32.864 161.226 33.328 160.831 33.648C160.447 33.9573 159.941 34.112 159.311 34.112ZM175.743 34.128C174.74 34.128 173.977 33.8187 173.455 33.2C172.943 32.5813 172.687 31.792 172.687 30.832C172.687 30.6933 172.687 30.5653 172.687 30.448C172.697 30.32 172.703 30.224 172.703 30.16H170.735L169.919 34H168.511L170.335 25.424H171.727L170.991 28.992H172.895C173.236 27.7653 173.748 26.848 174.431 26.24C175.124 25.6213 175.913 25.312 176.799 25.312C177.812 25.312 178.575 25.6213 179.087 26.24C179.599 26.8587 179.855 27.6533 179.855 28.624C179.855 29.3173 179.764 29.9947 179.583 30.656C179.412 31.3067 179.151 31.8933 178.799 32.416C178.457 32.9387 178.031 33.3547 177.519 33.664C177.007 33.9733 176.415 34.128 175.743 34.128ZM175.839 32.96C176.319 32.96 176.751 32.7733 177.135 32.4C177.529 32.0267 177.839 31.504 178.062 30.832C178.297 30.16 178.415 29.3707 178.415 28.464C178.415 27.8667 178.271 27.3867 177.983 27.024C177.705 26.6613 177.305 26.48 176.783 26.48C176.335 26.48 175.94 26.6133 175.599 26.88C175.268 27.136 174.991 27.4773 174.767 27.904C174.543 28.3307 174.377 28.8053 174.271 29.328C174.164 29.84 174.111 30.3573 174.111 30.88C174.111 31.4987 174.249 32 174.527 32.384C174.815 32.768 175.252 32.96 175.839 32.96ZM184.241 34.16C183.313 34.16 182.609 33.8773 182.129 33.312C181.649 32.736 181.409 31.9787 181.409 31.04C181.409 30.432 181.494 29.8187 181.665 29.2C181.835 28.5813 182.086 28.016 182.417 27.504C182.758 26.9813 183.174 26.5653 183.665 26.256C184.166 25.9467 184.742 25.792 185.393 25.792C186.022 25.792 186.507 25.9253 186.849 26.192C187.201 26.4587 187.462 26.7787 187.633 27.152H187.681C187.691 27.0667 187.697 26.9867 187.697 26.912C187.697 26.8267 187.697 26.7573 187.697 26.704C187.697 25.392 187.521 24.4213 187.169 23.792C186.817 23.1627 186.278 22.848 185.553 22.848C185.286 22.848 184.998 22.88 184.689 22.944C184.39 23.008 184.118 23.0933 183.873 23.2L183.521 22.16C183.777 22.032 184.113 21.92 184.529 21.824C184.945 21.728 185.345 21.68 185.729 21.68C186.902 21.68 187.761 22.1013 188.305 22.944C188.849 23.7867 189.121 25.008 189.121 26.608C189.121 27.2587 189.062 27.936 188.945 28.64C188.827 29.3333 188.641 30.0107 188.385 30.672C188.139 31.3227 187.825 31.9147 187.441 32.448C187.057 32.9707 186.598 33.3867 186.065 33.696C185.531 34.0053 184.923 34.16 184.241 34.16ZM184.385 32.976C184.918 32.976 185.387 32.7733 185.793 32.368C186.198 31.9627 186.539 31.4347 186.817 30.784C187.094 30.1227 187.302 29.424 187.441 28.688C187.291 28.176 187.057 27.7493 186.737 27.408C186.417 27.056 186.011 26.88 185.521 26.88C185.041 26.88 184.593 27.0667 184.177 27.44C183.771 27.8133 183.446 28.3147 183.201 28.944C182.955 29.5627 182.833 30.256 182.833 31.024C182.833 31.5787 182.95 32.0427 183.185 32.416C183.43 32.7893 183.83 32.976 184.385 32.976ZM193.575 34.16C192.583 34.16 191.815 33.872 191.271 33.296C190.738 32.7093 190.471 31.92 190.471 30.928C190.471 30.2453 190.567 29.5733 190.759 28.912C190.962 28.24 191.25 27.632 191.623 27.088C191.996 26.5333 192.444 26.0907 192.967 25.76C193.5 25.4293 194.098 25.264 194.759 25.264C195.57 25.264 196.178 25.44 196.583 25.792C196.999 26.144 197.207 26.6347 197.207 27.264C197.207 27.8187 197.031 28.3253 196.679 28.784C196.338 29.2427 195.799 29.6107 195.063 29.888C194.327 30.1547 193.372 30.288 192.199 30.288H191.927C191.916 30.384 191.906 30.4853 191.895 30.592C191.895 30.6987 191.895 30.7947 191.895 30.88C191.895 31.5307 192.055 32.048 192.375 32.432C192.695 32.8053 193.18 32.992 193.831 32.992C194.236 32.992 194.62 32.9333 194.983 32.816C195.346 32.6987 195.74 32.5387 196.167 32.336V33.536C195.762 33.7173 195.362 33.8667 194.967 33.984C194.583 34.1013 194.119 34.16 193.575 34.16ZM192.247 29.152C192.887 29.152 193.479 29.0987 194.023 28.992C194.567 28.8747 195.004 28.688 195.335 28.432C195.666 28.1653 195.831 27.8133 195.831 27.376C195.831 27.0987 195.735 26.8747 195.543 26.704C195.362 26.5227 195.074 26.432 194.679 26.432C194.167 26.432 193.671 26.672 193.191 27.152C192.722 27.6213 192.37 28.288 192.135 29.152H192.247ZM203.448 24.304C202.541 24.304 201.89 24.128 201.496 23.776C201.112 23.4133 200.92 22.944 200.92 22.368C200.92 22.1653 200.941 21.9893 200.984 21.84H202.216C202.184 22.0107 202.168 22.16 202.168 22.288C202.168 22.5867 202.269 22.832 202.472 23.024C202.685 23.2053 203.037 23.296 203.528 23.296C204.029 23.296 204.44 23.2 204.76 23.008C205.09 22.8053 205.309 22.416 205.416 21.84H206.76C206.621 22.5867 206.29 23.184 205.767 23.632C205.256 24.08 204.482 24.304 203.448 24.304ZM200.712 34.16C200.061 34.16 199.538 33.9787 199.144 33.616C198.76 33.2533 198.568 32.7253 198.568 32.032C198.568 31.7867 198.584 31.5573 198.616 31.344C198.658 31.12 198.701 30.8907 198.743 30.656L199.864 25.424H201.288L200.136 30.816C200.04 31.2747 199.992 31.632 199.992 31.888C199.992 32.2293 200.077 32.5013 200.248 32.704C200.429 32.896 200.717 32.992 201.112 32.992C201.474 32.992 201.864 32.864 202.28 32.608C202.706 32.352 203.101 31.9413 203.464 31.376C203.826 30.8107 204.109 30.0587 204.312 29.12L205.096 25.424H206.488L204.664 34H203.512L203.688 32.416H203.608C203.405 32.672 203.165 32.9387 202.888 33.216C202.621 33.4827 202.306 33.7067 201.944 33.888C201.592 34.0693 201.181 34.16 200.712 34.16ZM206.905 36.512L209.609 31.936H210.521L207.481 36.512H206.905ZM219.559 34.16C219.068 34.16 218.609 34.0853 218.183 33.936C217.767 33.7867 217.431 33.552 217.175 33.232C216.919 32.912 216.791 32.496 216.791 31.984C216.791 31.4187 216.935 30.96 217.223 30.608C217.511 30.2453 217.873 29.9467 218.311 29.712C218.748 29.4773 219.196 29.28 219.655 29.12C220.295 28.8747 220.817 28.6293 221.223 28.384C221.639 28.128 221.847 27.7813 221.847 27.344C221.847 27.0773 221.761 26.864 221.591 26.704C221.42 26.5333 221.116 26.448 220.679 26.448C220.263 26.448 219.852 26.5067 219.447 26.624C219.041 26.7307 218.668 26.8587 218.327 27.008L217.943 25.888C218.316 25.7493 218.743 25.616 219.223 25.488C219.703 25.3493 220.236 25.28 220.823 25.28C221.537 25.28 222.124 25.4347 222.583 25.744C223.041 26.0427 223.271 26.5493 223.271 27.264C223.271 27.7547 223.137 28.1707 222.871 28.512C222.615 28.8533 222.284 29.136 221.879 29.36C221.473 29.584 221.041 29.7813 220.583 29.952C220.103 30.1333 219.681 30.3093 219.319 30.48C218.967 30.64 218.695 30.8267 218.503 31.04C218.311 31.2533 218.215 31.5307 218.215 31.872C218.215 32.2133 218.337 32.4853 218.583 32.688C218.839 32.8907 219.233 32.992 219.767 32.992C220.204 32.992 220.625 32.928 221.031 32.8C221.436 32.672 221.831 32.5173 222.215 32.336V33.568C221.841 33.7387 221.441 33.8827 221.015 34C220.588 34.1067 220.103 34.16 219.559 34.16ZM227.334 34.16C226.406 34.16 225.702 33.8773 225.222 33.312C224.742 32.736 224.502 31.9787 224.502 31.04C224.502 30.432 224.588 29.8187 224.758 29.2C224.929 28.5813 225.18 28.016 225.51 27.504C225.852 26.9813 226.268 26.5653 226.758 26.256C227.26 25.9467 227.836 25.792 228.486 25.792C229.116 25.792 229.601 25.9253 229.942 26.192C230.294 26.4587 230.556 26.7787 230.726 27.152H230.774C230.785 27.0667 230.79 26.9867 230.79 26.912C230.79 26.8267 230.79 26.7573 230.79 26.704C230.79 25.392 230.614 24.4213 230.262 23.792C229.91 23.1627 229.372 22.848 228.646 22.848C228.38 22.848 228.092 22.88 227.782 22.944C227.484 23.008 227.212 23.0933 226.966 23.2L226.614 22.16C226.87 22.032 227.206 21.92 227.622 21.824C228.038 21.728 228.438 21.68 228.822 21.68C229.996 21.68 230.854 22.1013 231.398 22.944C231.942 23.7867 232.214 25.008 232.214 26.608C232.214 27.2587 232.156 27.936 232.038 28.64C231.921 29.3333 231.734 30.0107 231.478 30.672C231.233 31.3227 230.918 31.9147 230.534 32.448C230.15 32.9707 229.692 33.3867 229.158 33.696C228.625 34.0053 228.017 34.16 227.334 34.16ZM227.478 32.976C228.012 32.976 228.481 32.7733 228.886 32.368C229.292 31.9627 229.633 31.4347 229.91 30.784C230.188 30.1227 230.396 29.424 230.534 28.688C230.385 28.176 230.15 27.7493 229.83 27.408C229.51 27.056 229.105 26.88 228.614 26.88C228.134 26.88 227.686 27.0667 227.27 27.44C226.865 27.8133 226.54 28.3147 226.294 28.944C226.049 29.5627 225.926 30.256 225.926 31.024C225.926 31.5787 226.044 32.0427 226.278 32.416C226.524 32.7893 226.924 32.976 227.478 32.976ZM236.669 34.16C235.677 34.16 234.909 33.872 234.365 33.296C233.832 32.7093 233.565 31.92 233.565 30.928C233.565 30.2453 233.661 29.5733 233.853 28.912C234.056 28.24 234.344 27.632 234.717 27.088C235.09 26.5333 235.538 26.0907 236.061 25.76C236.594 25.4293 237.192 25.264 237.853 25.264C238.664 25.264 239.272 25.44 239.677 25.792C240.093 26.144 240.301 26.6347 240.301 27.264C240.301 27.8187 240.125 28.3253 239.773 28.784C239.432 29.2427 238.893 29.6107 238.157 29.888C237.421 30.1547 236.466 30.288 235.293 30.288H235.021C235.01 30.384 235 30.4853 234.989 30.592C234.989 30.6987 234.989 30.7947 234.989 30.88C234.989 31.5307 235.149 32.048 235.469 32.432C235.789 32.8053 236.274 32.992 236.925 32.992C237.33 32.992 237.714 32.9333 238.077 32.816C238.44 32.6987 238.834 32.5387 239.261 32.336V33.536C238.856 33.7173 238.456 33.8667 238.061 33.984C237.677 34.1013 237.213 34.16 236.669 34.16ZM235.341 29.152C235.981 29.152 236.573 29.0987 237.117 28.992C237.661 28.8747 238.098 28.688 238.429 28.432C238.76 28.1653 238.925 27.8133 238.925 27.376C238.925 27.0987 238.829 26.8747 238.637 26.704C238.456 26.5227 238.168 26.432 237.773 26.432C237.261 26.432 236.765 26.672 236.285 27.152C235.816 27.6213 235.464 28.288 235.229 29.152H235.341ZM1.448 55L3.272 46.424H4.664L3.928 49.992H7.96L8.728 46.424H10.136L8.328 55H6.904L7.704 51.16H3.672L2.856 55H1.448ZM13.6334 55.16C12.9827 55.16 12.46 54.9787 12.0654 54.616C11.6814 54.2533 11.4894 53.7253 11.4894 53.032C11.4894 52.7867 11.5054 52.5573 11.5374 52.344C11.58 52.12 11.6227 51.8907 11.6654 51.656L12.7854 46.424H14.2094L13.0574 51.816C12.9614 52.2747 12.9134 52.632 12.9134 52.888C12.9134 53.2293 12.9987 53.5013 13.1694 53.704C13.3507 53.896 13.6387 53.992 14.0334 53.992C14.396 53.992 14.7854 53.864 15.2014 53.608C15.628 53.352 16.0227 52.9413 16.3854 52.376C16.748 51.8107 17.0307 51.0587 17.2334 50.12L18.0174 46.424H19.4094L17.5854 55H16.4334L16.6094 53.416H16.5294C16.3267 53.672 16.0867 53.9387 15.8094 54.216C15.5427 54.4827 15.228 54.7067 14.8654 54.888C14.5134 55.0693 14.1027 55.16 13.6334 55.16ZM20.323 55L22.131 46.424H23.523L22.643 50.552L26.643 46.424H28.403L24.163 50.664L27.027 55H25.347L22.627 50.728L21.731 55H20.323ZM28.1043 55L29.9283 46.424H31.0803L30.9043 48.008H30.9843C31.1763 47.7413 31.4003 47.4747 31.6562 47.208C31.9229 46.9413 32.2269 46.7173 32.5683 46.536C32.9203 46.3547 33.3149 46.264 33.7523 46.264C34.3389 46.264 34.7869 46.4347 35.0963 46.776C35.4163 47.1067 35.6083 47.5707 35.6723 48.168H35.7362C35.9496 47.848 36.2003 47.544 36.4883 47.256C36.7869 46.968 37.1176 46.7333 37.4803 46.552C37.8429 46.36 38.2429 46.264 38.6803 46.264C39.3416 46.264 39.8536 46.4453 40.2163 46.808C40.5789 47.1707 40.7603 47.6933 40.7603 48.376C40.7603 48.632 40.7443 48.872 40.7123 49.096C40.6803 49.3093 40.6376 49.5387 40.5843 49.784L39.4803 55H38.0563L39.2083 49.624C39.2616 49.3787 39.2989 49.1707 39.3203 49C39.3416 48.8293 39.3523 48.664 39.3523 48.504C39.3523 48.184 39.2616 47.928 39.0803 47.736C38.9096 47.544 38.6376 47.448 38.2643 47.448C37.9229 47.448 37.5549 47.576 37.1603 47.832C36.7763 48.088 36.4136 48.488 36.0723 49.032C35.7416 49.5653 35.4856 50.264 35.3043 51.128L34.4883 55H33.0803L34.2163 49.624C34.3123 49.144 34.3603 48.792 34.3603 48.568C34.3603 48.216 34.2803 47.944 34.1203 47.752C33.9603 47.5493 33.6936 47.448 33.3203 47.448C32.9789 47.448 32.6109 47.576 32.2163 47.832C31.8216 48.0773 31.4536 48.4827 31.1123 49.048C30.7709 49.6133 30.4989 50.3653 30.2963 51.304L29.5123 55H28.1043ZM45.6243 55.128C44.6323 55.128 43.8483 54.8347 43.2723 54.248C42.7069 53.6507 42.4243 52.8453 42.4243 51.832C42.4243 51.1707 42.5149 50.5147 42.6963 49.864C42.8776 49.2133 43.1443 48.6213 43.4963 48.088C43.8589 47.5547 44.3069 47.128 44.8403 46.808C45.3843 46.4773 46.0083 46.312 46.7123 46.312C47.7149 46.312 48.4989 46.6107 49.0643 47.208C49.6296 47.7947 49.9123 48.6 49.9123 49.624C49.9123 50.2747 49.8216 50.9253 49.6403 51.576C49.4589 52.2267 49.1869 52.8187 48.8243 53.352C48.4723 53.8853 48.0296 54.3173 47.4963 54.648C46.9629 54.968 46.3389 55.128 45.6243 55.128ZM45.7043 53.96C46.2163 53.96 46.6803 53.784 47.0963 53.432C47.5123 53.0693 47.8429 52.552 48.0883 51.88C48.3443 51.208 48.4723 50.4027 48.4723 49.464C48.4723 49.144 48.4136 48.8347 48.2963 48.536C48.1896 48.2267 48.0083 47.976 47.7523 47.784C47.4963 47.5813 47.1549 47.48 46.7283 47.48C46.1416 47.48 45.6296 47.6827 45.1923 48.088C44.7656 48.4827 44.4349 49.016 44.2003 49.688C43.9656 50.3493 43.8483 51.08 43.8483 51.88C43.8483 52.5413 44.0083 53.0533 44.3283 53.416C44.6589 53.7787 45.1176 53.96 45.7043 53.96ZM55.4949 55L57.3189 46.424H58.7109L57.9749 49.992H62.0069L62.7749 46.424H64.1829L62.3749 55H60.9509L61.7509 51.16H57.7189L56.9029 55H55.4949ZM68.5283 55.16C67.5363 55.16 66.7683 54.872 66.2243 54.296C65.6909 53.7093 65.4243 52.92 65.4243 51.928C65.4243 51.2453 65.5203 50.5733 65.7122 49.912C65.9149 49.24 66.2029 48.632 66.5763 48.088C66.9496 47.5333 67.3976 47.0907 67.9203 46.76C68.4536 46.4293 69.0509 46.264 69.7123 46.264C70.5229 46.264 71.1309 46.44 71.5363 46.792C71.9523 47.144 72.1603 47.6347 72.1603 48.264C72.1603 48.8187 71.9843 49.3253 71.6323 49.784C71.2909 50.2427 70.7523 50.6107 70.0163 50.888C69.2803 51.1547 68.3256 51.288 67.1523 51.288H66.8803C66.8696 51.384 66.8589 51.4853 66.8483 51.592C66.8483 51.6987 66.8483 51.7947 66.8483 51.88C66.8483 52.5307 67.0083 53.048 67.3283 53.432C67.6483 53.8053 68.1336 53.992 68.7843 53.992C69.1896 53.992 69.5736 53.9333 69.9363 53.816C70.2989 53.6987 70.6936 53.5387 71.1203 53.336V54.536C70.7149 54.7173 70.3149 54.8667 69.9203 54.984C69.5363 55.1013 69.0723 55.16 68.5283 55.16ZM67.2003 50.152C67.8403 50.152 68.4323 50.0987 68.9763 49.992C69.5203 49.8747 69.9576 49.688 70.2883 49.432C70.6189 49.1653 70.7843 48.8133 70.7843 48.376C70.7843 48.0987 70.6883 47.8747 70.4963 47.704C70.3149 47.5227 70.0269 47.432 69.6323 47.432C69.1203 47.432 68.6243 47.672 68.1443 48.152C67.6749 48.6213 67.3229 49.288 67.0883 50.152H67.2003ZM81.1596 55.16C79.9863 55.16 79.1276 54.84 78.5836 54.2C78.0503 53.5493 77.7836 52.6907 77.7836 51.624C77.7836 50.6213 77.9596 49.72 78.3116 48.92C78.6743 48.1093 79.1916 47.4693 79.8636 47C80.5463 46.52 81.3676 46.28 82.3276 46.28C83.245 46.28 83.9543 46.4613 84.4556 46.824C84.957 47.1867 85.2076 47.7307 85.2076 48.456C85.2076 49.0853 85.005 49.576 84.5996 49.928C84.1943 50.28 83.677 50.5253 83.0476 50.664V50.696C83.517 50.8133 83.901 51.0107 84.1996 51.288C84.4983 51.5547 84.6476 51.9653 84.6476 52.52C84.6476 52.9147 84.5356 53.32 84.3116 53.736C84.0983 54.1413 83.7356 54.4827 83.2236 54.76C82.7116 55.0267 82.0236 55.16 81.1596 55.16ZM81.1116 50.152C81.581 50.152 82.0183 50.104 82.4236 50.008C82.8396 49.912 83.1703 49.752 83.4156 49.528C83.6716 49.2933 83.7996 48.984 83.7996 48.6C83.7996 48.28 83.6876 48.008 83.4636 47.784C83.2396 47.56 82.8663 47.448 82.3436 47.448C81.597 47.448 80.9623 47.6827 80.4396 48.152C79.9276 48.6213 79.5703 49.288 79.3676 50.152H81.1116ZM81.2556 54.008C81.9596 54.008 82.4716 53.8587 82.7916 53.56C83.1223 53.2507 83.2876 52.8987 83.2876 52.504C83.2876 52.0987 83.1223 51.7947 82.7916 51.592C82.461 51.3893 81.9383 51.288 81.2236 51.288H79.2076V51.672C79.2076 52.4933 79.3943 53.0907 79.7676 53.464C80.141 53.8267 80.637 54.008 81.2556 54.008ZM89.5439 55.16C88.5519 55.16 87.7839 54.872 87.2399 54.296C86.7065 53.7093 86.4399 52.92 86.4399 51.928C86.4399 51.2453 86.5359 50.5733 86.7279 49.912C86.9305 49.24 87.2185 48.632 87.5919 48.088C87.9652 47.5333 88.4132 47.0907 88.9359 46.76C89.4692 46.4293 90.0665 46.264 90.7279 46.264C91.5385 46.264 92.1465 46.44 92.5519 46.792C92.9679 47.144 93.1759 47.6347 93.1759 48.264C93.1759 48.8187 92.9999 49.3253 92.6479 49.784C92.3065 50.2427 91.7679 50.6107 91.0319 50.888C90.2959 51.1547 89.3412 51.288 88.1679 51.288H87.8959C87.8852 51.384 87.8745 51.4853 87.8639 51.592C87.8639 51.6987 87.8639 51.7947 87.8639 51.88C87.8639 52.5307 88.0239 53.048 88.3439 53.432C88.6639 53.8053 89.1492 53.992 89.7999 53.992C90.2052 53.992 90.5892 53.9333 90.9519 53.816C91.3145 53.6987 91.7092 53.5387 92.1359 53.336V54.536C91.7305 54.7173 91.3305 54.8667 90.9359 54.984C90.5519 55.1013 90.0879 55.16 89.5439 55.16ZM88.2159 50.152C88.8559 50.152 89.4479 50.0987 89.9919 49.992C90.5359 49.8747 90.9732 49.688 91.3039 49.432C91.6345 49.1653 91.7999 48.8133 91.7999 48.376C91.7999 48.0987 91.7039 47.8747 91.5119 47.704C91.3305 47.5227 91.0425 47.432 90.6479 47.432C90.1359 47.432 89.6399 47.672 89.1599 48.152C88.6905 48.6213 88.3385 49.288 88.1039 50.152H88.2159ZM97.2563 55.16C96.3283 55.16 95.6243 54.8773 95.1443 54.312C94.6643 53.736 94.4243 52.9787 94.4243 52.04C94.4243 51.432 94.5096 50.8187 94.6803 50.2C94.8509 49.5813 95.1016 49.016 95.4323 48.504C95.7736 47.9813 96.1896 47.5653 96.6803 47.256C97.1816 46.9467 97.7576 46.792 98.4083 46.792C99.0376 46.792 99.5229 46.9253 99.8643 47.192C100.216 47.4587 100.478 47.7787 100.648 48.152H100.696C100.707 48.0667 100.712 47.9867 100.712 47.912C100.712 47.8267 100.712 47.7573 100.712 47.704C100.712 46.392 100.536 45.4213 100.184 44.792C99.8323 44.1627 99.2936 43.848 98.5683 43.848C98.3016 43.848 98.0136 43.88 97.7043 43.944C97.4056 44.008 97.1336 44.0933 96.8883 44.2L96.5363 43.16C96.7923 43.032 97.1283 42.92 97.5443 42.824C97.9603 42.728 98.3603 42.68 98.7443 42.68C99.9176 42.68 100.776 43.1013 101.32 43.944C101.864 44.7867 102.136 46.008 102.136 47.608C102.136 48.2587 102.078 48.936 101.96 49.64C101.843 50.3333 101.656 51.0107 101.4 51.672C101.155 52.3227 100.84 52.9147 100.456 53.448C100.072 53.9707 99.6136 54.3867 99.0803 54.696C98.5469 55.0053 97.9389 55.16 97.2563 55.16ZM97.4003 53.976C97.9336 53.976 98.4029 53.7733 98.8083 53.368C99.2136 52.9627 99.5549 52.4347 99.8323 51.784C100.11 51.1227 100.318 50.424 100.456 49.688C100.307 49.176 100.072 48.7493 99.7523 48.408C99.4323 48.056 99.0269 47.88 98.5363 47.88C98.0563 47.88 97.6083 48.0667 97.1923 48.44C96.7869 48.8133 96.4616 49.3147 96.2163 49.944C95.9709 50.5627 95.8483 51.256 95.8483 52.024C95.8483 52.5787 95.9656 53.0427 96.2003 53.416C96.4456 53.7893 96.8456 53.976 97.4003 53.976ZM106.591 55.16C105.599 55.16 104.831 54.872 104.287 54.296C103.753 53.7093 103.487 52.92 103.487 51.928C103.487 51.2453 103.583 50.5733 103.775 49.912C103.977 49.24 104.265 48.632 104.639 48.088C105.012 47.5333 105.46 47.0907 105.983 46.76C106.516 46.4293 107.113 46.264 107.775 46.264C108.585 46.264 109.193 46.44 109.599 46.792C110.015 47.144 110.223 47.6347 110.223 48.264C110.223 48.8187 110.047 49.3253 109.695 49.784C109.353 50.2427 108.815 50.6107 108.079 50.888C107.343 51.1547 106.388 51.288 105.215 51.288H104.943C104.932 51.384 104.921 51.4853 104.911 51.592C104.911 51.6987 104.911 51.7947 104.911 51.88C104.911 52.5307 105.071 53.048 105.391 53.432C105.711 53.8053 106.196 53.992 106.847 53.992C107.252 53.992 107.636 53.9333 107.999 53.816C108.361 53.6987 108.756 53.5387 109.183 53.336V54.536C108.777 54.7173 108.377 54.8667 107.983 54.984C107.599 55.1013 107.135 55.16 106.591 55.16ZM105.263 50.152C105.903 50.152 106.495 50.0987 107.039 49.992C107.583 49.8747 108.02 49.688 108.351 49.432C108.681 49.1653 108.847 48.8133 108.847 48.376C108.847 48.0987 108.751 47.8747 108.559 47.704C108.377 47.5227 108.089 47.432 107.695 47.432C107.183 47.432 106.687 47.672 106.207 48.152C105.737 48.6213 105.385 49.288 105.151 50.152H105.263ZM111.151 55L112.975 46.424H114.127L113.951 48.008H114.031C114.223 47.7413 114.447 47.4747 114.703 47.208C114.97 46.9413 115.274 46.7173 115.615 46.536C115.967 46.3547 116.362 46.264 116.799 46.264C117.386 46.264 117.834 46.4347 118.143 46.776C118.463 47.1067 118.655 47.5707 118.719 48.168H118.783C118.996 47.848 119.247 47.544 119.535 47.256C119.834 46.968 120.164 46.7333 120.527 46.552C120.89 46.36 121.29 46.264 121.727 46.264C122.388 46.264 122.9 46.4453 123.263 46.808C123.626 47.1707 123.807 47.6933 123.807 48.376C123.807 48.632 123.791 48.872 123.759 49.096C123.727 49.3093 123.684 49.5387 123.631 49.784L122.527 55H121.103L122.255 49.624C122.308 49.3787 122.346 49.1707 122.367 49C122.388 48.8293 122.399 48.664 122.399 48.504C122.399 48.184 122.308 47.928 122.127 47.736C121.956 47.544 121.684 47.448 121.311 47.448C120.97 47.448 120.602 47.576 120.207 47.832C119.823 48.088 119.46 48.488 119.119 49.032C118.788 49.5653 118.532 50.264 118.351 51.128L117.535 55H116.127L117.263 49.624C117.359 49.144 117.407 48.792 117.407 48.568C117.407 48.216 117.327 47.944 117.167 47.752C117.007 47.5493 116.74 47.448 116.367 47.448C116.026 47.448 115.658 47.576 115.263 47.832C114.868 48.0773 114.5 48.4827 114.159 49.048C113.818 49.6133 113.546 50.3653 113.343 51.304L112.559 55H111.151ZM133.03 55.16C132.081 55.16 131.313 54.8933 130.726 54.36C130.139 53.8267 129.846 53.0267 129.846 51.96C129.846 51.192 129.947 50.4667 130.15 49.784C130.363 49.0907 130.662 48.4827 131.046 47.96C131.441 47.4373 131.915 47.0267 132.47 46.728C133.025 46.4187 133.643 46.264 134.326 46.264C134.699 46.264 135.073 46.3013 135.446 46.376C135.819 46.4507 136.155 46.552 136.454 46.68L136.054 47.848C135.841 47.752 135.585 47.6613 135.286 47.576C134.998 47.4907 134.683 47.448 134.342 47.448C133.734 47.448 133.201 47.656 132.742 48.072C132.283 48.4773 131.926 49.0213 131.67 49.704C131.414 50.3867 131.286 51.1333 131.286 51.944C131.286 52.5947 131.451 53.1013 131.782 53.464C132.123 53.816 132.587 53.992 133.174 53.992C133.547 53.992 133.899 53.9387 134.23 53.832C134.571 53.7253 134.907 53.6027 135.238 53.464V54.648C134.939 54.7973 134.603 54.92 134.23 55.016C133.867 55.112 133.467 55.16 133.03 55.16ZM140.2 55.16C139.208 55.16 138.44 54.872 137.896 54.296C137.363 53.7093 137.096 52.92 137.096 51.928C137.096 51.2453 137.192 50.5733 137.384 49.912C137.587 49.24 137.875 48.632 138.248 48.088C138.621 47.5333 139.069 47.0907 139.592 46.76C140.125 46.4293 140.723 46.264 141.384 46.264C142.195 46.264 142.803 46.44 143.208 46.792C143.624 47.144 143.832 47.6347 143.832 48.264C143.832 48.8187 143.656 49.3253 143.304 49.784C142.963 50.2427 142.424 50.6107 141.688 50.888C140.952 51.1547 139.997 51.288 138.824 51.288H138.552C138.541 51.384 138.531 51.4853 138.52 51.592C138.52 51.6987 138.52 51.7947 138.52 51.88C138.52 52.5307 138.68 53.048 139 53.432C139.32 53.8053 139.805 53.992 140.456 53.992C140.861 53.992 141.245 53.9333 141.608 53.816C141.971 53.6987 142.365 53.5387 142.792 53.336V54.536C142.387 54.7173 141.987 54.8667 141.592 54.984C141.208 55.1013 140.744 55.16 140.2 55.16ZM138.872 50.152C139.512 50.152 140.104 50.0987 140.648 49.992C141.192 49.8747 141.629 49.688 141.96 49.432C142.291 49.1653 142.456 48.8133 142.456 48.376C142.456 48.0987 142.36 47.8747 142.168 47.704C141.987 47.5227 141.699 47.432 141.304 47.432C140.792 47.432 140.296 47.672 139.816 48.152C139.347 48.6213 138.995 49.288 138.76 50.152H138.872ZM148.153 55.16C147.182 55.16 146.43 54.856 145.897 54.248C145.363 53.6293 145.097 52.728 145.097 51.544C145.097 51.064 145.139 50.5147 145.225 49.896C145.321 49.2667 145.465 48.6267 145.657 47.976C145.859 47.3147 146.115 46.6853 146.424 46.088C146.745 45.4907 147.129 44.9733 147.577 44.536C148.035 44.0987 148.569 43.7893 149.177 43.608C149.369 43.544 149.646 43.4747 150.009 43.4C150.382 43.3147 150.787 43.2293 151.225 43.144C151.662 43.048 152.078 42.968 152.473 42.904C152.867 42.84 153.182 42.792 153.417 42.76L153.577 43.912C153.278 43.9547 152.894 44.0187 152.425 44.104C151.955 44.1893 151.481 44.2853 151.001 44.392C150.531 44.488 150.131 44.5893 149.801 44.696C149.118 44.9093 148.537 45.336 148.057 45.976C147.577 46.616 147.198 47.4427 146.921 48.456L146.969 48.472C147.257 48.1307 147.646 47.8053 148.137 47.496C148.627 47.1867 149.187 47.032 149.817 47.032C150.627 47.032 151.23 47.288 151.625 47.8C152.03 48.3013 152.233 49.0053 152.233 49.912C152.233 50.5627 152.153 51.2027 151.993 51.832C151.843 52.4507 151.603 53.0107 151.273 53.512C150.953 54.0133 150.531 54.4133 150.009 54.712C149.497 55.0107 148.878 55.16 148.153 55.16ZM148.281 53.992C148.75 53.992 149.145 53.864 149.465 53.608C149.785 53.3413 150.041 53.0053 150.233 52.6C150.435 52.184 150.579 51.752 150.665 51.304C150.75 50.8453 150.793 50.4293 150.793 50.056C150.793 49.416 150.681 48.9467 150.457 48.648C150.233 48.3493 149.897 48.2 149.449 48.2C149.054 48.2 148.675 48.296 148.312 48.488C147.961 48.68 147.646 48.9093 147.369 49.176C147.091 49.432 146.867 49.6773 146.697 49.912C146.654 50.2 146.611 50.488 146.569 50.776C146.537 51.064 146.521 51.336 146.521 51.592C146.521 52.3067 146.654 52.888 146.921 53.336C147.187 53.7733 147.641 53.992 148.281 53.992ZM153.367 55.096C153.229 55.096 153.106 55.0853 152.999 55.064C152.882 55.0427 152.786 55.0213 152.711 55V53.88C152.829 53.912 152.962 53.928 153.111 53.928C153.389 53.928 153.618 53.8373 153.799 53.656C153.981 53.464 154.189 53.1227 154.423 52.632C154.583 52.2907 154.775 51.9867 154.999 51.72C155.223 51.4533 155.517 51.2507 155.879 51.112C155.367 50.9627 154.989 50.712 154.743 50.36C154.509 50.008 154.391 49.6027 154.391 49.144C154.391 48.3653 154.674 47.72 155.239 47.208C155.805 46.6853 156.653 46.424 157.783 46.424H161.047L159.239 55H157.847L158.567 51.624H157.527C157.026 51.624 156.658 51.7467 156.423 51.992C156.189 52.2373 155.949 52.6053 155.703 53.096C155.501 53.5227 155.298 53.8853 155.095 54.184C154.903 54.4827 154.674 54.712 154.407 54.872C154.141 55.0213 153.794 55.096 153.367 55.096ZM157.415 50.424H158.823L159.415 47.624H157.559C156.994 47.624 156.557 47.7627 156.247 48.04C155.938 48.3067 155.783 48.6747 155.783 49.144C155.783 49.624 155.938 49.96 156.247 50.152C156.567 50.3333 156.957 50.424 157.415 50.424ZM170.066 55.16C168.893 55.16 168.034 54.84 167.49 54.2C166.957 53.5493 166.69 52.6907 166.69 51.624C166.69 50.6213 166.866 49.72 167.218 48.92C167.581 48.1093 168.098 47.4693 168.77 47C169.453 46.52 170.274 46.28 171.234 46.28C172.151 46.28 172.861 46.4613 173.362 46.824C173.863 47.1867 174.114 47.7307 174.114 48.456C174.114 49.0853 173.911 49.576 173.506 49.928C173.101 50.28 172.583 50.5253 171.954 50.664V50.696C172.423 50.8133 172.807 51.0107 173.106 51.288C173.405 51.5547 173.554 51.9653 173.554 52.52C173.554 52.9147 173.442 53.32 173.218 53.736C173.005 54.1413 172.642 54.4827 172.13 54.76C171.618 55.0267 170.93 55.16 170.066 55.16ZM170.018 50.152C170.487 50.152 170.925 50.104 171.33 50.008C171.746 49.912 172.077 49.752 172.322 49.528C172.578 49.2933 172.706 48.984 172.706 48.6C172.706 48.28 172.594 48.008 172.37 47.784C172.146 47.56 171.773 47.448 171.25 47.448C170.503 47.448 169.869 47.6827 169.346 48.152C168.834 48.6213 168.477 49.288 168.274 50.152H170.018ZM170.162 54.008C170.866 54.008 171.378 53.8587 171.698 53.56C172.029 53.2507 172.194 52.8987 172.194 52.504C172.194 52.0987 172.029 51.7947 171.698 51.592C171.367 51.3893 170.845 51.288 170.13 51.288H168.114V51.672C168.114 52.4933 168.301 53.0907 168.674 53.464C169.047 53.8267 169.543 54.008 170.162 54.008ZM178.354 55.16C177.501 55.16 176.823 54.9627 176.322 54.568C175.821 54.1627 175.57 53.5387 175.57 52.696C175.57 52.4827 175.586 52.2373 175.618 51.96C175.661 51.6827 175.703 51.4267 175.746 51.192L176.754 46.424H178.178L177.378 50.152C177.634 50.0987 177.906 50.056 178.194 50.024C178.493 49.9813 178.791 49.96 179.09 49.96C179.954 49.96 180.605 50.1573 181.042 50.552C181.479 50.936 181.698 51.4907 181.698 52.216C181.698 52.7493 181.575 53.24 181.33 53.688C181.095 54.136 180.733 54.4933 180.242 54.76C179.751 55.0267 179.122 55.16 178.354 55.16ZM182.546 55L184.354 46.424H185.762L183.938 55H182.546ZM178.434 54.008C179.095 54.008 179.57 53.8427 179.858 53.512C180.157 53.1707 180.306 52.7813 180.306 52.344C180.306 51.8747 180.167 51.5547 179.89 51.384C179.623 51.2027 179.223 51.112 178.69 51.112C178.423 51.112 178.157 51.128 177.89 51.16C177.634 51.1813 177.383 51.2187 177.138 51.272C177.074 51.5813 177.026 51.8373 176.994 52.04C176.973 52.232 176.962 52.408 176.962 52.568C176.962 53.0267 177.074 53.384 177.298 53.64C177.533 53.8853 177.911 54.008 178.434 54.008ZM188.667 55.16C188.208 55.16 187.755 55.1067 187.307 55C186.869 54.904 186.501 54.776 186.203 54.616V53.32C186.48 53.4693 186.837 53.624 187.275 53.784C187.712 53.9333 188.213 54.008 188.779 54.008C189.451 54.008 189.984 53.864 190.379 53.576C190.784 53.2773 190.987 52.888 190.987 52.408C190.987 52.0347 190.875 51.7307 190.651 51.496C190.437 51.2613 190.011 51.144 189.371 51.144H188.187L188.459 49.96H189.243C189.595 49.96 189.941 49.9227 190.283 49.848C190.635 49.7733 190.923 49.6293 191.147 49.416C191.371 49.2027 191.483 48.8933 191.483 48.488C191.483 48.168 191.371 47.9173 191.147 47.736C190.933 47.544 190.603 47.448 190.155 47.448C189.781 47.448 189.424 47.496 189.083 47.592C188.741 47.6773 188.363 47.8107 187.947 47.992L187.531 46.92C187.968 46.7067 188.405 46.5467 188.843 46.44C189.291 46.3227 189.792 46.264 190.347 46.264C191.147 46.264 191.771 46.44 192.219 46.792C192.667 47.144 192.891 47.64 192.891 48.28C192.891 48.856 192.715 49.336 192.363 49.72C192.021 50.0933 191.525 50.3547 190.875 50.504V50.536C191.333 50.6533 191.691 50.8613 191.947 51.16C192.203 51.4587 192.331 51.8587 192.331 52.36C192.331 53.1493 192.027 53.816 191.419 54.36C190.821 54.8933 189.904 55.16 188.667 55.16ZM197.104 55.16C196.251 55.16 195.573 54.9627 195.072 54.568C194.571 54.1627 194.32 53.5387 194.32 52.696C194.32 52.4827 194.336 52.2373 194.368 51.96C194.411 51.6827 194.453 51.4267 194.496 51.192L195.504 46.424H196.928L196.128 50.152C196.384 50.0987 196.656 50.056 196.944 50.024C197.243 49.9813 197.541 49.96 197.84 49.96C198.704 49.96 199.355 50.1573 199.792 50.552C200.229 50.936 200.448 51.4907 200.448 52.216C200.448 52.7493 200.325 53.24 200.08 53.688C199.845 54.136 199.483 54.4933 198.992 54.76C198.501 55.0267 197.872 55.16 197.104 55.16ZM201.296 55L203.104 46.424H204.512L202.688 55H201.296ZM197.184 54.008C197.845 54.008 198.32 53.8427 198.608 53.512C198.907 53.1707 199.056 52.7813 199.056 52.344C199.056 51.8747 198.917 51.5547 198.64 51.384C198.373 51.2027 197.973 51.112 197.44 51.112C197.173 51.112 196.907 51.128 196.64 51.16C196.384 51.1813 196.133 51.2187 195.888 51.272C195.824 51.5813 195.776 51.8373 195.744 52.04C195.723 52.232 195.712 52.408 195.712 52.568C195.712 53.0267 195.824 53.384 196.048 53.64C196.283 53.8853 196.661 54.008 197.184 54.008ZM209.113 55.16C207.939 55.16 207.081 54.84 206.537 54.2C206.003 53.5493 205.737 52.6907 205.737 51.624C205.737 50.6213 205.913 49.72 206.265 48.92C206.627 48.1093 207.145 47.4693 207.817 47C208.499 46.52 209.321 46.28 210.281 46.28C211.198 46.28 211.907 46.4613 212.409 46.824C212.91 47.1867 213.161 47.7307 213.161 48.456C213.161 49.0853 212.958 49.576 212.553 49.928C212.147 50.28 211.63 50.5253 211.001 50.664V50.696C211.47 50.8133 211.854 51.0107 212.153 51.288C212.451 51.5547 212.601 51.9653 212.601 52.52C212.601 52.9147 212.489 53.32 212.265 53.736C212.051 54.1413 211.689 54.4827 211.177 54.76C210.665 55.0267 209.977 55.16 209.113 55.16ZM209.065 50.152C209.534 50.152 209.971 50.104 210.377 50.008C210.793 49.912 211.123 49.752 211.369 49.528C211.625 49.2933 211.753 48.984 211.753 48.6C211.753 48.28 211.641 48.008 211.417 47.784C211.193 47.56 210.819 47.448 210.297 47.448C209.55 47.448 208.915 47.6827 208.393 48.152C207.881 48.6213 207.523 49.288 207.321 50.152H209.065ZM209.209 54.008C209.913 54.008 210.425 53.8587 210.745 53.56C211.075 53.2507 211.241 52.8987 211.241 52.504C211.241 52.0987 211.075 51.7947 210.745 51.592C210.414 51.3893 209.891 51.288 209.177 51.288H207.161V51.672C207.161 52.4933 207.347 53.0907 207.721 53.464C208.094 53.8267 208.59 54.008 209.209 54.008ZM216.713 55.16C216.03 55.16 215.47 54.9147 215.033 54.424C214.606 53.9227 214.393 53.192 214.393 52.232C214.393 51.432 214.494 50.6747 214.697 49.96C214.91 49.2347 215.204 48.6 215.577 48.056C215.95 47.5013 216.393 47.064 216.905 46.744C217.417 46.424 217.982 46.264 218.601 46.264C219.166 46.264 219.625 46.4133 219.977 46.712C220.329 47.0107 220.59 47.3573 220.761 47.752H220.841L221.353 46.424H222.425L220.601 55H219.481L219.689 53.416H219.625C219.262 53.8853 218.836 54.296 218.345 54.648C217.854 54.9893 217.31 55.16 216.713 55.16ZM217.177 53.992C217.572 53.992 217.956 53.848 218.329 53.56C218.713 53.272 219.06 52.8827 219.369 52.392C219.678 51.9013 219.913 51.352 220.073 50.744C220.158 50.4347 220.212 50.152 220.233 49.896C220.265 49.6293 220.281 49.384 220.281 49.16C220.281 48.6587 220.142 48.248 219.865 47.928C219.588 47.608 219.214 47.448 218.745 47.448C218.329 47.448 217.945 47.5813 217.593 47.848C217.241 48.104 216.932 48.4613 216.665 48.92C216.398 49.368 216.19 49.88 216.041 50.456C215.902 51.032 215.833 51.6347 215.833 52.264C215.833 52.84 215.95 53.272 216.185 53.56C216.42 53.848 216.75 53.992 217.177 53.992ZM230.399 55.128C229.396 55.128 228.633 54.8187 228.111 54.2C227.599 53.5813 227.343 52.792 227.343 51.832C227.343 51.6933 227.343 51.5653 227.343 51.448C227.353 51.32 227.359 51.224 227.359 51.16H225.391L224.575 55H223.167L224.991 46.424H226.383L225.647 49.992H227.551C227.892 48.7653 228.404 47.848 229.087 47.24C229.78 46.6213 230.569 46.312 231.455 46.312C232.468 46.312 233.231 46.6213 233.743 47.24C234.255 47.8587 234.511 48.6533 234.511 49.624C234.511 50.3173 234.42 50.9947 234.239 51.656C234.068 52.3067 233.807 52.8933 233.455 53.416C233.113 53.9387 232.687 54.3547 232.175 54.664C231.663 54.9733 231.071 55.128 230.399 55.128ZM230.495 53.96C230.975 53.96 231.407 53.7733 231.791 53.4C232.185 53.0267 232.495 52.504 232.719 51.832C232.953 51.16 233.071 50.3707 233.071 49.464C233.071 48.8667 232.927 48.3867 232.639 48.024C232.361 47.6613 231.961 47.48 231.439 47.48C230.991 47.48 230.596 47.6133 230.255 47.88C229.924 48.136 229.647 48.4773 229.423 48.904C229.199 49.3307 229.033 49.8053 228.927 50.328C228.82 50.84 228.767 51.3573 228.767 51.88C228.767 52.4987 228.905 53 229.183 53.384C229.471 53.768 229.908 53.96 230.495 53.96ZM246.961 55.112C246.641 55.0267 246.401 54.856 246.241 54.6C246.092 54.3333 246.012 53.9493 246.001 53.448H245.953C245.772 53.7147 245.548 53.9813 245.281 54.248C245.014 54.5147 244.71 54.7333 244.369 54.904C244.028 55.0747 243.638 55.16 243.201 55.16C242.614 55.16 242.161 54.9893 241.841 54.648C241.521 54.3067 241.329 53.8427 241.265 53.256H241.201C240.988 53.5653 240.737 53.8693 240.449 54.168C240.161 54.456 239.836 54.696 239.473 54.888C239.11 55.0693 238.705 55.16 238.257 55.16C237.596 55.16 237.084 54.9787 236.721 54.616C236.358 54.2533 236.177 53.7307 236.177 53.048C236.177 52.792 236.193 52.5573 236.225 52.344C236.268 52.12 236.31 51.8853 236.353 51.64L237.457 46.424H238.881L237.745 51.816C237.702 52.0507 237.665 52.2533 237.633 52.424C237.601 52.5947 237.585 52.76 237.585 52.92C237.585 53.24 237.67 53.496 237.841 53.688C238.022 53.88 238.3 53.976 238.673 53.976C239.014 53.976 239.377 53.8533 239.761 53.608C240.156 53.352 240.518 52.952 240.849 52.408C241.19 51.864 241.452 51.16 241.633 50.296L242.465 46.424H243.873L242.721 51.816C242.625 52.2747 242.577 52.6213 242.577 52.856C242.577 53.2187 242.657 53.496 242.817 53.688C242.977 53.88 243.244 53.976 243.617 53.976C243.969 53.976 244.342 53.8533 244.737 53.608C245.132 53.352 245.5 52.9413 245.841 52.376C246.182 51.8107 246.449 51.0587 246.641 50.12L247.425 46.424H248.833L247.553 52.472C247.521 52.6427 247.494 52.8133 247.473 52.984C247.452 53.1547 247.441 53.2987 247.441 53.416C247.441 53.8213 247.638 54.024 248.033 54.024C248.172 54.024 248.289 54.008 248.385 53.976C248.492 53.944 248.582 53.9227 248.657 53.912L247.745 57.976H246.337L246.961 55.112ZM253.45 55.16C252.458 55.16 251.69 54.872 251.146 54.296C250.613 53.7093 250.346 52.92 250.346 51.928C250.346 51.2453 250.442 50.5733 250.634 49.912C250.837 49.24 251.125 48.632 251.498 48.088C251.871 47.5333 252.319 47.0907 252.842 46.76C253.375 46.4293 253.973 46.264 254.634 46.264C255.445 46.264 256.053 46.44 256.458 46.792C256.874 47.144 257.082 47.6347 257.082 48.264C257.082 48.8187 256.906 49.3253 256.554 49.784C256.213 50.2427 255.674 50.6107 254.938 50.888C254.202 51.1547 253.247 51.288 252.074 51.288H251.802C251.791 51.384 251.781 51.4853 251.77 51.592C251.77 51.6987 251.77 51.7947 251.77 51.88C251.77 52.5307 251.93 53.048 252.25 53.432C252.57 53.8053 253.055 53.992 253.706 53.992C254.111 53.992 254.495 53.9333 254.858 53.816C255.221 53.6987 255.615 53.5387 256.042 53.336V54.536C255.637 54.7173 255.237 54.8667 254.842 54.984C254.458 55.1013 253.994 55.16 253.45 55.16ZM252.122 50.152C252.762 50.152 253.354 50.0987 253.898 49.992C254.442 49.8747 254.879 49.688 255.21 49.432C255.541 49.1653 255.706 48.8133 255.706 48.376C255.706 48.0987 255.61 47.8747 255.418 47.704C255.237 47.5227 254.949 47.432 254.554 47.432C254.042 47.432 253.546 47.672 253.066 48.152C252.597 48.6213 252.245 49.288 252.01 50.152H252.122ZM258.779 55L259.099 53.368H259.899L259.595 55H258.779Z" fill="#FCF7F2"/>
</svg>
