<svg width="1170" height="548" viewBox="0 0 1170 548" fill="none" xmlns="http://www.w3.org/2000/svg">
<g clip-path="url(#clip0_137:10308)">
<path d="M1233.87 198.993V114.005C1233.87 102.776 1231.11 94.5194 1225.61 88.9049C1224.95 88.2444 1224.29 87.6939 1223.63 87.1435C1220.43 84.7215 1216.91 82.9601 1213.06 81.9693C1208.1 80.7583 1202.82 80.7583 1197.75 80.7583H1174.96V19.3291C1174.96 6.3387 1171.88 -2.90871 1165.6 -8.41312C1159.43 -14.0276 1151.61 -16.8899 1142.15 -16.8899H1113.41L1047.56 31.3287L981.713 -16.8899H921.152C920.711 -16.8899 920.161 -16.8899 919.72 -16.8899C901.112 -16.8899 886.467 -13.5873 875.456 -6.87189C869.73 -3.34906 864.775 1.38473 862.022 7.65976C858.719 15.0357 858.939 23.4024 855.636 30.7783C852.663 37.6038 847.157 44.5393 839.559 46.3007C832.733 47.842 825.575 46.1906 819.409 42.9981C816.326 41.4568 813.463 39.4753 810.71 37.2735C808.949 35.8423 806.196 33.8608 805.315 31.659L785.935 -17H742.331C742.331 -17 741.23 -17 739.248 -17C699.278 -17 286.801 -17 286.801 -17H286.691C275.019 -17 266.1 -13.6974 259.934 -6.98197C253.878 -0.266591 250.905 9.31108 250.905 21.8611V44.7595H250.464C237.802 45.0898 222.166 40.4661 216.77 27.8059C215.009 23.5125 214.678 18.7787 213.467 14.2651C207.631 -7.20215 185.168 -16.6697 164.688 -17H-16.7755C-17.3261 -17 -17.8766 -17 -18.4272 -17C-26.4653 -16.6697 -32.1911 -14.2478 -35.6045 -9.62409C-39.2382 -4.67012 -41 2.81588 -41 12.7238V513.735C-40.3393 521.001 -38.3573 527.607 -35.2742 533.441C-31.4203 540.597 -25.5844 546.211 -17.8766 550.395C-10.1689 554.468 -0.699292 556.56 10.5321 556.56C10.8624 556.56 11.1927 556.56 11.5231 556.56C18.1297 556.45 24.4061 555.569 30.242 553.807C30.5723 553.697 30.9026 553.587 31.233 553.477C31.7835 553.257 32.224 553.147 32.7745 552.927C33.3251 552.707 33.8756 552.486 34.3161 552.376H34.4262C34.9767 552.156 35.5273 551.936 35.9677 551.716C36.6284 551.386 37.3992 551.165 38.0599 550.835C39.4913 550.175 40.8126 549.404 42.134 548.633C44.3362 547.312 46.3182 545.881 48.1901 544.34L48.3002 544.23C49.2912 543.349 50.2822 542.468 51.2732 541.478C51.6035 541.147 52.044 540.707 52.3743 540.267C52.4844 540.157 52.7046 539.936 52.8148 539.826C54.4664 537.955 56.008 535.863 57.3293 533.661V556.89H74.9471V479.938C74.9471 474.324 75.6078 469.04 76.9291 464.306C77.5898 461.994 78.3606 459.792 79.3516 457.7C82.3246 451.315 86.6189 446.251 92.1245 442.728C97.7401 439.096 104.347 437.334 112.055 437.334C123.176 437.334 131.324 440.747 136.499 447.462C141.675 454.068 144.317 463.535 144.317 475.755V557H161.935V471.682C161.825 464.196 160.724 457.48 158.632 451.315C158.411 450.985 158.301 450.545 158.081 450.214C157.09 448.123 156.209 446.031 155.438 443.829C152.025 437.224 147.18 431.94 141.014 427.977C134.297 423.573 125.929 421.371 116.019 421.371C107.21 421.371 99.1716 423.463 91.9042 427.646C85.8481 431.169 80.8931 436.123 77.0392 442.398C76.3786 443.499 75.7179 444.6 75.0572 445.811V386.914C76.2684 387.794 77.5898 388.675 78.9111 389.556C89.0413 395.831 100.493 398.913 113.266 398.913C126.149 398.913 137.6 395.721 147.731 389.446C154.117 385.483 159.623 380.639 164.247 374.914C161.935 378.107 159.843 381.519 158.081 385.262C153.456 395.06 151.254 405.739 151.254 417.518C151.254 426.876 152.686 435.683 155.549 443.829C155.879 444.49 156.209 445.15 156.54 445.811C157.42 447.572 158.081 449.444 158.742 451.315C163.366 460.563 169.753 467.939 177.791 473.553C186.27 479.278 196.069 482.14 207.081 482.14C217.211 482.14 226.24 479.498 234.388 474.104C241.766 469.15 247.491 462.434 251.235 454.068V556.89H268.633V532.45C272.707 540.377 278.323 546.432 285.59 550.615C292.857 554.798 300.895 556.89 309.814 556.89C319.724 556.89 328.093 554.688 334.81 550.285C339.765 547.092 343.839 543.129 347.032 538.175C347.472 539.936 348.023 541.588 348.794 543.239C350.776 547.532 353.529 550.835 357.382 553.257C361.126 555.679 365.861 556.89 371.477 556.89C376.432 556.89 380.946 555.789 385.02 553.367C389.094 551.055 392.288 547.643 394.6 543.129V556.78H404.29V487.314C407.593 490.837 411.557 493.809 416.292 496.011C423.119 499.204 431.047 500.745 439.966 500.745C450.096 500.745 459.345 498.323 467.714 493.369C476.192 488.415 482.909 481.369 487.754 472.012C487.974 476.746 488.195 481.369 488.415 486.103C488.855 496.231 488.965 506.69 495.242 515.166C496.233 516.488 497.444 517.809 498.655 519.02C505.372 525.074 514.952 528.047 527.504 528.047H607.445V549.844H622.2V527.717H652.04H660.298L783.513 527.606V527.496C786.486 530.139 789.569 532.56 792.982 534.432C802.562 540.046 813.353 542.358 825.465 541.478C838.018 540.487 848.478 536.524 856.847 529.368C865.215 522.322 871.161 513.405 874.905 502.616C876.997 496.341 878.429 489.846 878.979 483.131V556.229H895.386V467.718L999.441 555.789L1000.54 556.67H1015.85L1082.91 536.964V554.578H1101.29V536.964C1111.64 550.064 1126.07 556.67 1144.79 556.67C1163.4 556.67 1177.82 550.505 1187.95 538.065C1198.08 525.405 1203.15 509.002 1203.15 488.745C1203.15 487.755 1203.15 486.764 1203.15 485.773V384.272H1215.81V384.382H1234.2V214.516H1256V199.103H1233.87V198.993ZM251.015 60.2819V99.6935C250.134 92.6479 248.482 86.0426 245.84 79.9877C241.876 70.8504 236.15 63.5846 228.552 58.3004C227.561 57.6398 226.57 56.9793 225.469 56.3188C233.727 59.2911 242.426 60.2819 251.015 60.2819ZM251.015 121.381V194.59C246.941 184.902 240.885 177.306 232.296 171.801C230.314 170.48 228.332 169.379 226.24 168.389C227.561 167.288 228.883 166.187 230.094 164.976C236.921 158.371 242.206 150.444 246.06 141.087C248.593 134.812 250.244 128.316 251.015 121.381ZM160.504 0.393939C168.762 0.393939 177.351 1.60491 184.508 5.89835C191.445 9.97162 195.078 14.7054 197.391 22.5217C198.932 27.6958 200.254 33.0901 202.896 37.934C206.42 44.4292 212.036 49.6034 218.532 53.2363C213.137 51.3648 207.191 50.374 200.584 50.374C189.353 50.374 180.544 53.1262 173.937 58.5205C167.33 63.9148 162.486 70.5201 159.292 78.2263C156.099 85.8224 153.016 95.7303 149.933 107.95C147.4 117.528 145.198 125.124 143.326 130.518C141.344 135.802 138.481 140.316 134.848 143.949C131.214 147.582 126.479 149.343 120.643 149.343C115.688 149.343 111.284 147.912 107.43 144.94C103.466 141.967 100.383 137.894 98.2907 132.61C96.1986 127.216 95.0975 120.83 95.0975 113.565C95.0975 104.207 97.5199 94.6295 103.025 86.9233C108.421 79.4373 116.239 73.9329 122.405 66.9973C124.497 64.5754 126.589 62.0433 128.131 59.2911C134.407 48.6126 134.517 35.7323 129.893 24.3932C128.681 21.4208 127.14 18.6686 125.268 16.0265C123.726 13.8247 121.965 11.733 119.872 9.75144C115.688 5.67817 110.623 2.5957 104.677 0.504026H160.504V0.393939ZM-23.6024 17.2374C-23.6024 13.2743 -23.2721 9.97161 -22.7215 7.3295C-21.8406 3.91676 -19.6384 1.16456 -16.225 0.173762C-14.1329 -0.486767 -12.0407 -0.156502 -9.94863 -0.156502H66.6888C77.9201 -0.156502 87.2796 1.715 94.5469 5.458C102.034 9.201 107.43 14.0449 110.843 19.7695C115.908 28.3564 118.771 40.6862 113.046 49.7135C109.632 54.9977 104.127 58.1903 99.2817 61.9333C93.9964 66.1166 89.5919 71.7311 86.1785 77.4557C84.0864 80.9785 82.3246 84.6114 80.8931 88.4645C78.2505 95.8404 76.819 103.877 76.819 112.574C76.819 131.179 82.2145 149.123 96.5289 161.783C98.7311 163.765 101.154 165.636 103.025 167.948C106.549 172.242 106.879 178.297 105.338 183.471C104.127 187.764 101.594 191.617 98.621 194.81C95.7581 197.892 92.5649 200.314 89.0413 201.855C85.5178 203.507 81.8841 204.057 78.2505 203.727C73.2955 203.176 68.7809 200.204 65.6978 196.241C63.936 193.819 62.5045 191.287 60.963 188.755C56.999 182.7 51.7137 177.636 45.7676 173.453C44.0059 172.242 42.2441 171.141 40.4823 170.15C34.206 166.737 27.0487 164.646 18.9005 163.765C19.8915 163.875 20.9926 163.875 21.9836 163.875C32.9947 164.095 42.6845 161.563 50.9429 156.389C59.2012 151.105 65.4776 143.949 69.9921 134.702C74.3966 125.454 76.7089 115.216 76.9291 103.877C77.1493 93.0882 75.3876 82.9601 71.5337 73.4925C67.6798 64.0249 61.7338 56.3188 53.9159 50.4841C45.9879 44.5393 36.2981 41.4568 24.8465 41.1266C13.8354 40.9064 4.1456 43.5485 -4.22285 48.9429C-12.7014 54.3372 -19.198 62.2635 -23.8226 72.7219V17.2374H-23.6024ZM-23.6024 73.0522L-8.73741 79.2171C-5.6543 71.7311 -1.24984 65.8964 4.69616 61.7131C10.5321 57.5297 17.1387 55.5481 24.7364 55.6582C32.8846 55.8784 39.8216 58.1903 45.3272 62.7039C50.8328 67.2175 54.7968 73.0522 57.4394 80.318C60.0821 87.5838 61.2933 95.4001 61.0731 103.767C60.8529 112.244 59.3113 120.06 56.4484 127.216C53.4754 134.261 49.1811 139.876 43.5654 143.949C37.8396 148.022 30.7925 150.004 22.5342 149.784C14.8264 149.674 8.21972 147.362 2.60405 143.068C-3.01162 138.665 -6.97563 132.72 -9.17786 125.124L-23.6024 130.298V73.0522V73.0522ZM-23.6024 130.518C-20.189 140.756 -14.4632 148.903 -6.42508 154.848C0.401818 159.802 8.32983 162.774 17.2488 163.765C15.3769 163.655 13.3949 163.545 11.4129 163.545C0.291711 163.545 -9.17786 165.746 -16.9958 170.04C-19.3081 171.361 -21.5103 172.792 -23.6024 174.443V130.518ZM-25.144 219.91C-25.144 205.819 -22.2811 195.47 -16.5553 188.865C-10.9396 182.26 -1.69029 178.957 11.3028 178.957C19.7814 178.957 27.0487 180.718 33.1049 184.351C39.2711 187.984 44.6665 193.269 49.4013 200.424C50.8328 202.626 52.4844 204.828 54.5765 206.809C59.8619 212.094 65.8079 215.396 72.3044 216.387C78.6909 217.488 85.0773 216.717 91.3537 214.295C97.63 211.873 103.246 208.02 108.311 203.066C113.596 197.782 117.45 191.947 119.872 185.672C121.744 180.718 122.405 175.764 122.075 170.811C122.625 170.811 123.176 170.811 123.726 170.811C133.857 170.811 142.005 168.278 147.951 163.325C154.007 158.26 158.411 152.096 161.164 144.83C164.027 137.564 166.78 128.096 169.643 116.317C172.065 106.299 174.488 98.3725 176.58 92.758C178.672 87.0334 181.645 82.1895 185.719 78.3364C189.683 74.3732 194.968 72.3916 201.685 72.3916C207.631 72.3916 213.027 73.9329 217.761 77.0153C222.496 79.9877 226.24 84.3913 228.993 90.2259C231.635 96.0606 232.847 103.216 232.847 111.583C232.847 124.023 229.653 134.591 223.377 143.178C216.991 151.655 208.842 157.6 199.153 161.123L183.627 167.288C180.103 168.719 176.8 170.48 173.607 172.682C164.688 178.737 157.861 186.994 152.906 197.342C148.061 207.58 145.639 218.919 145.639 231.249C145.639 243.799 148.061 255.248 152.906 265.596C154.337 268.569 155.989 271.431 157.751 273.963C154.668 271.101 151.254 268.569 147.621 266.367C137.49 259.982 126.039 256.9 113.156 256.9C100.383 256.9 88.9312 260.092 78.801 266.367C69.1112 272.422 61.4034 280.458 55.7878 290.587L44.9969 294.99C45.4373 294.77 45.8778 294.66 46.3182 294.44C53.1451 291.137 58.5405 286.513 62.3944 280.458C66.1382 274.404 68.0101 267.248 68.0101 258.991C68.0101 234.001 49.6215 221.451 12.8444 221.451H-25.144V219.91ZM141.675 282.33H84.5268C85.5178 281.559 86.5088 280.789 87.6099 280.018C94.8773 275.174 103.356 272.752 112.935 272.752C122.625 272.752 131.214 275.174 138.481 280.018C139.693 280.789 140.684 281.559 141.675 282.33ZM52.2642 357.74L-16.5553 331.209L49.4013 305.779C47.4193 312.604 46.5384 319.87 46.5384 327.576C46.6485 338.365 48.5204 348.383 52.2642 357.74ZM-23.6024 322.952V273.523C-18.9778 281.339 -12.8115 287.394 -5.32397 291.797C3.04449 296.751 12.4039 299.173 22.4241 299.173C30.242 299.173 37.2891 297.962 43.4553 295.54L-23.6024 322.952ZM43.5654 366.878L-23.6024 437.774V339.356L43.5654 366.878ZM57.2192 376.235V472.122L19.1207 415.537L57.2192 376.235ZM-25.144 234.331H11.8534C24.5162 234.331 34.0959 236.533 40.4823 240.937C46.8688 245.23 50.062 251.395 50.062 259.432C50.062 267.028 47.3092 273.082 41.9138 277.596C36.5183 282 28.9206 284.201 19.1207 284.201C7.9995 284.201 -1.47007 280.899 -9.06774 274.293C-16.6654 267.688 -22.0609 258.881 -25.2541 247.762V234.331H-25.144ZM57.2192 506.139C57.1091 509.332 56.6686 512.634 55.7878 515.717C55.7878 515.827 55.6777 516.047 55.6777 516.157C53.9159 522.322 50.7226 527.496 46.098 531.57C41.8036 535.313 36.5183 537.955 30.4622 539.606C30.0217 539.716 29.4712 539.826 29.0307 539.936C24.7364 540.927 20.0016 541.478 14.8264 541.478C2.38382 541.478 -7.08574 538.395 -13.6924 532.12C-16.7755 529.148 -19.0879 525.515 -20.7395 521.552C-22.6114 516.928 -23.162 511.974 -23.4923 507.13C-23.6024 505.369 -23.6024 503.717 -23.6024 501.956V459.021L7.33883 426.545C7.44894 426.656 7.55905 426.876 7.66916 426.986C7.88938 427.426 8.21972 427.867 8.55006 428.307C8.9905 428.967 9.43094 429.628 9.87139 430.288C10.4219 431.169 11.0826 432.16 11.6332 433.041C12.4039 434.142 13.0646 435.242 13.8354 436.343C14.7163 437.664 15.4871 438.875 16.368 440.196C17.2488 441.628 18.2398 443.059 19.1207 444.38C20.1117 445.921 21.1027 447.462 22.0937 449.003C23.1948 450.655 24.1858 452.196 25.287 453.847C26.3881 455.499 27.4892 457.26 28.5903 458.911C29.6914 460.563 30.7925 462.324 31.8936 463.975C32.9947 465.737 34.0959 467.388 35.197 469.15C36.2981 470.801 37.3992 472.562 38.5003 474.214C39.6014 475.865 40.5924 477.516 41.6935 479.168C42.6845 480.709 43.7856 482.25 44.7766 483.901C45.7676 485.333 46.6485 486.764 47.6395 488.305C48.5204 489.626 49.4013 490.947 50.1721 492.268C50.9429 493.479 51.7136 494.58 52.4844 495.791C53.1451 496.782 53.8058 497.773 54.3563 498.763C54.7968 499.534 55.3473 500.305 55.7878 501.075C56.1181 501.626 56.4484 502.066 56.7788 502.616C57.1091 503.057 57.3293 503.387 57.3293 503.937C57.3293 504.488 57.2192 505.259 57.2192 506.139ZM75.7179 363.575C73.9561 361.153 72.5247 358.401 71.2033 355.649C67.4595 347.172 65.5877 337.814 65.5877 327.576C65.5877 317.338 67.4595 308.201 71.2033 299.834C72.3044 297.522 73.5157 295.32 74.837 293.229H135.839L75.7179 363.575ZM138.591 375.575C131.324 380.419 122.845 382.84 113.046 382.84C103.356 382.84 94.9874 380.419 87.72 375.575C86.6189 374.804 85.5178 374.033 84.5268 373.153H141.785C140.684 374.033 139.693 374.914 138.591 375.575ZM155.218 355.539C154.117 357.961 152.796 360.272 151.474 362.364H92.1245L151.144 292.678C152.686 294.88 154.007 297.302 155.218 299.834C159.182 308.091 161.164 317.338 161.164 327.576C161.164 337.704 159.182 347.062 155.218 355.539ZM163.256 231.139C163.256 221.451 165.128 212.754 168.762 204.828C172.506 196.901 177.681 190.737 184.398 186.333C191.225 181.709 199.153 179.507 208.072 179.507C216.991 179.507 224.808 181.709 231.525 186.223C238.242 190.736 243.417 196.901 247.051 204.718C250.685 212.534 252.446 221.341 252.446 231.139C252.446 241.047 250.685 249.964 247.051 257.89C243.417 265.817 238.242 271.982 231.525 276.605C224.919 281.119 217.101 283.321 208.072 283.321C199.153 283.321 191.225 281.009 184.398 276.495C177.681 271.982 172.396 265.707 168.762 257.78C165.128 249.744 163.256 240.937 163.256 231.139ZM171.405 291.797C170.193 289.486 168.872 287.284 167.33 285.192C169.312 286.954 171.294 288.495 173.497 290.036C182.416 296.091 192.656 299.063 204.328 299.063C214.898 299.063 224.478 296.311 233.067 290.587C241.105 285.192 247.051 277.926 251.125 268.679V381.629C247.271 372.822 241.435 365.887 233.617 360.823C225.579 355.539 216.55 352.896 206.75 352.896C195.849 352.896 186.159 355.759 177.681 361.483C173.056 364.676 168.982 368.419 165.569 372.822C167.771 369.85 169.753 366.768 171.515 363.355C177.351 352.566 180.213 340.567 180.213 327.356C180.103 314.476 177.13 302.586 171.405 291.797ZM247.491 442.728C244.078 450.214 239.123 456.159 232.736 460.453C226.35 464.746 218.973 466.838 210.494 466.838C202.015 466.838 194.418 464.636 187.921 460.343C181.535 456.049 176.58 450.104 173.056 442.618C169.533 435.022 167.771 426.656 167.771 417.298C167.771 408.161 169.533 399.794 173.056 392.308C176.58 384.822 181.535 378.877 187.921 374.694C194.418 370.4 201.905 368.199 210.494 368.199C218.973 368.199 226.46 370.29 232.736 374.584C239.123 378.877 244.078 384.712 247.491 392.198C250.905 399.574 252.667 408.051 252.667 417.298C252.667 426.766 250.905 435.242 247.491 442.728ZM1170.66 152.096L1089.73 245.781V152.096H1170.66ZM1135.1 266.367C1145.01 266.367 1152.61 266.367 1152.61 266.367C1158.33 266.147 1164.17 266.147 1169.89 266.587C1173.53 266.807 1176.83 268.129 1179.36 270.771C1183.22 274.844 1184.21 280.899 1184.21 286.293C1184.21 286.293 1184.21 304.678 1184.21 322.622C1183.99 320.531 1183.66 318.439 1183.11 316.347L1169.45 319.32C1171.32 325.705 1171.32 331.76 1169.34 337.484C1167.36 342.989 1163.73 347.502 1158.33 351.025C1149.74 356.639 1141.15 357.74 1132.57 354.328C1123.98 350.915 1116.71 344.53 1110.54 335.172C1104.49 325.815 1101.51 316.457 1101.84 307.1C1102.06 297.632 1106.36 290.256 1114.84 284.752C1120.12 281.339 1125.74 279.908 1131.79 280.348C1137.85 280.679 1143.69 282.88 1149.19 287.174L1157.67 275.394C1150.18 269.78 1142.59 266.918 1135.1 266.367ZM1100.96 384.272H1184.32V436.013C1174.19 425.885 1160.86 420.821 1144.35 420.821C1125.74 420.821 1111.2 427.536 1100.85 440.857V384.272H1100.96ZM1099.31 368.859H1089.62V321.631C1091.16 328.787 1094.25 335.833 1098.65 342.768C1106.58 354.988 1116.71 363.135 1129.04 366.988C1131.79 367.868 1134.66 368.419 1137.41 368.749L1099.31 368.859ZM1145.56 368.859C1152.17 368.199 1158.77 365.667 1165.27 361.483C1173.09 356.419 1178.59 350.034 1181.79 342.218C1183.11 339.025 1183.99 335.723 1184.32 332.31C1184.32 350.364 1184.32 368.859 1184.32 368.859H1145.56ZM1108.23 274.073C1098.32 280.568 1092.04 288.715 1089.62 298.623V266.367C1089.62 266.367 1111.42 266.367 1129.37 266.367C1122.32 266.918 1115.28 269.56 1108.23 274.073ZM1089.62 136.573V86.2628L1113.3 103.547H1156.68V136.573H1089.62V136.573ZM1113.3 5.67817C1119.79 1.82509 1127.5 -0.266592 1134.88 -1.1473C1141.48 -1.91792 1147.43 -1.47756 1152.06 3.80667C1155.03 7.21941 1156.57 11.8431 1156.57 17.898V80.7583H1113.19L1059.89 43.2183L1113.3 5.67817ZM1044.81 363.905C1038.53 363.905 1032.69 365.006 1027.3 367.318C1021.79 369.52 1017.28 373.373 1013.54 378.767C1011.33 381.85 1009.79 385.483 1008.91 389.446C1009.02 388.565 1009.02 387.684 1009.02 386.694C1009.02 376.565 1005.28 368.639 997.899 362.694C992.284 358.181 985.347 355.318 977.199 354.218L1030.93 271.431L1067.38 310.072V372.822L1068.48 373.483C1069.47 374.143 1070.46 375.024 1071.34 375.905C1076.74 381.74 1079.49 388.785 1079.49 396.822C1079.49 404.638 1077.07 410.803 1072.11 415.427C1067.16 419.94 1060.44 422.252 1051.74 422.362V364.456C1049.87 364.125 1047.56 363.905 1044.81 363.905ZM1042.49 374.584V422.472C1035.23 421.922 1029.17 419.5 1024.55 415.206C1019.7 410.913 1017.28 405.298 1017.28 398.363C1017.28 391.317 1019.37 385.703 1023.67 381.629C1027.85 377.446 1033.25 375.134 1039.85 374.694C1040.4 374.694 1040.95 374.694 1041.5 374.584H1042.49V374.584ZM873.694 203.066L868.629 190.406L885.035 176.095C892.523 182.04 901.332 185.672 911.242 186.993V250.735H902.984H878.649V229.818C878.759 219.249 876.997 210.332 873.694 203.066ZM878.759 266.257H903.314H911.352V344.199C911.352 354.328 913.554 361.924 918.069 366.878C921.042 370.18 924.675 372.382 929.08 373.483C928.75 373.923 928.309 374.254 927.979 374.584C921.592 380.639 912.783 382.84 904.085 382.84C896.377 382.84 890.211 381.079 885.586 377.556C880.961 374.033 878.759 368.749 878.759 362.914V266.257V266.257ZM920.161 171.031C910.031 171.031 901.882 167.948 895.716 161.893C889.55 155.728 886.467 147.802 886.467 138.114C886.467 128.537 889.55 120.72 895.716 114.555C901.882 108.611 910.031 105.638 920.381 105.638C930.732 105.638 938.99 108.721 945.376 114.776C951.653 120.941 954.846 128.647 954.846 138.004C954.846 147.802 951.653 155.728 945.046 161.783C938.549 167.948 930.291 171.031 920.161 171.031ZM929.41 266.257H959.25V250.845H929.41V187.104C940.862 185.562 950.662 181.049 958.81 173.673C969.16 164.536 974.336 152.866 974.336 138.665C974.336 135.032 974.005 131.619 973.235 128.316C975.877 134.922 980.282 140.096 986.558 143.839C987.439 144.389 988.43 144.83 989.421 145.38C1000.1 150.334 1017.17 152.866 1040.62 152.866H1067.27V200.755C1065.73 205.598 1063.31 209.672 1060.11 212.974C1053.73 219.47 1044.59 222.772 1032.69 222.772C1021.13 222.772 1009.68 218.919 1000.98 211.433C996.248 207.36 992.174 202.626 987.989 198.112H958.039L1015.74 257.78L950.001 355.649C949.781 355.649 949.561 356.199 949.45 356.309C949.01 356.75 948.459 357.08 948.019 357.3C946.918 357.85 945.817 358.181 944.606 358.291C941.412 358.731 937.779 358.401 934.916 356.639C933.044 355.428 931.612 353.667 930.732 351.575C929.741 349.043 929.41 346.181 929.41 343.429V266.257V266.257ZM971.363 121.381C969.381 115.987 966.297 111.033 962.333 106.409C967.068 103.216 970.702 99.4733 973.235 95.29C971.473 100.244 970.592 105.858 970.592 112.023C970.482 115.436 970.812 118.519 971.363 121.381ZM990.412 110.923C990.412 103.106 993.605 96.7211 999.881 91.8773C1006.27 87.2536 1014.64 84.9417 1025.21 84.9417C1038.86 84.9417 1049.65 89.3452 1057.69 98.1523C1060.88 101.675 1063.09 105.638 1064.74 110.152C1066.06 113.895 1066.94 118.078 1067.49 122.592V136.463H1042.6C1019.15 136.463 1004.4 134.041 998.23 129.307C992.944 125.344 990.412 119.179 990.412 110.923ZM1067.38 231.359V282L1027.74 239.946C1029.5 240.056 1031.26 240.166 1033.14 240.166C1047.01 240.166 1058.35 237.194 1067.38 231.359ZM1047.45 55.5481L1067.38 70.0798V91.9873C1057.69 78.7768 1045.69 71.0706 1028.73 69.1991L1047.45 55.5481ZM972.354 -0.376679L1034.68 43.2183L987.549 77.0153L986.007 78.1162C985.127 78.7768 984.356 79.4373 983.475 80.0978C982.924 80.6483 982.374 81.0886 981.823 81.6391C979.511 83.9509 977.639 86.4829 975.987 89.2351C976.978 86.1527 977.529 82.9601 977.529 79.4373C977.529 66.9973 971.363 57.9701 959.14 52.4657L982.154 32.9801C982.484 30.6682 982.704 28.5765 982.704 26.705C982.704 15.5861 979.18 6.66897 972.354 -0.376679ZM918.729 -0.376679C948.349 -0.376679 963.214 8.43038 963.214 26.0445C963.214 26.8151 963.104 27.6958 962.884 28.5765L943.615 47.2915C938.109 45.9705 931.723 44.7595 924.675 43.8788C923.905 43.6586 922.804 43.4384 921.262 43.3283C913.444 42.2275 907.828 41.2367 904.635 40.4661C901.332 39.6954 897.258 38.4845 892.303 36.7231C887.348 34.9616 883.934 32.7599 881.952 30.1178C879.86 27.4756 878.759 24.173 878.759 20.3199C878.759 6.55888 892.083 -0.376679 918.729 -0.376679ZM843.854 66.0065C853.764 63.3644 861.912 56.2087 868.078 44.5393C868.078 44.4292 868.188 44.4292 868.188 44.3191C870.831 46.7411 873.914 48.8328 877.548 50.7043C884.815 54.3372 899.13 57.7499 920.381 61.0526C928.75 62.3736 935.356 63.6947 939.871 64.7955C944.495 65.8964 948.79 67.9881 952.754 70.8504C956.608 73.7127 958.48 77.4557 958.48 82.0794C958.48 88.2443 955.396 92.9781 949.34 96.3909C940.752 91.6571 930.952 89.2351 920.051 89.2351C904.966 89.2351 892.303 93.6387 882.173 102.446C871.822 111.473 866.647 123.142 866.647 137.454C866.647 147.031 869.179 155.949 874.355 164.095L862.132 174.333L817.868 63.3644C827.447 67.1074 836.036 67.9881 843.854 66.0065ZM795.735 303.357C801.241 298.953 808.728 296.751 818.528 296.751C829.649 296.751 839.009 300.054 846.717 306.659C854.314 313.265 859.71 322.072 862.903 333.191V346.621H825.906C813.133 346.621 803.663 344.42 797.167 340.016C790.78 335.723 787.587 329.558 787.587 321.521C787.587 313.925 790.34 307.87 795.735 303.357ZM775.475 300.605C774.374 302.366 773.383 304.348 772.612 306.329H742.221V229.157C742.221 222.992 743.432 217.488 745.745 212.644C748.167 207.8 751.581 204.057 755.875 201.305C760.279 198.663 765.455 197.232 771.291 197.232C779.879 197.232 786.156 199.874 790.23 205.268C794.414 210.552 796.396 218.148 796.396 227.836V284.752C794.744 285.302 793.093 285.963 791.551 286.623C784.724 289.926 779.439 294.55 775.475 300.605ZM843.083 289.265C834.604 284.311 825.355 281.89 815.335 281.89C813.683 281.89 812.142 282 810.6 282.11V229.157C810.6 222.992 811.811 217.488 814.124 212.644C816.546 207.8 819.96 204.057 824.254 201.305C828.548 198.663 833.724 197.232 839.559 197.232C848.368 197.232 854.755 200.204 858.719 206.039C862.683 211.763 864.665 220.35 864.665 231.799L863.894 292.458L863.123 310.843C858.278 301.265 851.562 294.219 843.083 289.265ZM810.49 91.6571L846.496 184.131C845.065 184.021 843.523 183.911 841.982 183.911C833.944 183.911 826.787 185.893 820.62 189.966C814.564 193.929 809.829 199.764 806.746 207.47C804.434 199.544 800.36 193.709 794.524 189.746C788.798 185.893 781.971 183.911 773.823 183.911C773.162 183.911 772.392 183.911 771.731 184.021L810.49 91.6571ZM742.221 -2.79862H772.061L800.8 70.7403L745.745 197.122C744.423 198.993 743.212 200.975 742.221 203.176V-2.79862ZM770.52 329.888C774.153 349.704 792.322 359.612 825.025 359.612H862.903V361.153C862.903 375.244 860.04 388.125 854.314 394.73C848.699 401.335 839.339 404.638 826.456 404.638C817.978 404.638 810.71 402.877 804.654 399.244C798.488 395.611 793.093 390.326 788.358 383.171L775.034 392.858C780.43 400.344 786.376 406.179 792.762 410.583C789.569 412.234 786.486 414.216 783.733 416.527C782.302 417.738 780.98 418.949 779.769 420.27H705.334C694.983 420.27 685.734 418.289 677.696 414.436C675.824 413.445 674.062 412.454 672.3 411.353C666.795 407.72 662.28 403.097 658.757 397.482C654.242 390.216 651.93 381.74 651.93 371.942V371.281C652.04 356.86 656.885 346.401 666.575 339.796C676.265 333.081 690.579 329.778 709.518 329.778H770.52V329.888ZM625.503 316.347C621.98 307.98 616.254 300.054 608.326 292.348L608.106 292.128L726.145 306.329H706.545C682.651 306.329 663.822 311.393 650.168 321.521C639.047 329.778 632.44 341.447 630.348 356.529C630.678 353.337 630.899 350.144 630.899 346.732C631.119 335.172 629.247 325.044 625.503 316.347ZM268.192 339.466V309.522C270.284 315.797 273.478 321.081 277.662 325.374C282.066 329.888 286.911 333.191 292.307 335.392C297.702 337.594 303.208 338.695 308.603 338.695C310.255 338.695 311.796 338.585 313.338 338.365L294.068 370.29L268.192 339.466ZM286.801 379.208L268.192 409.262V357.52L286.801 379.208ZM304.639 374.584C306.401 371.722 308.163 368.859 310.035 365.997C312.347 362.364 314.659 358.621 316.861 354.988C319.064 351.465 321.266 347.832 323.468 344.31C325.34 341.337 327.212 338.365 328.974 335.392C330.625 332.53 332.277 329.668 334.369 327.026C336.131 324.604 338.223 322.512 340.535 320.531C341.747 319.54 342.958 318.659 344.169 317.778C349.895 313.925 356.612 312.054 364.43 312.054C368.614 312.054 372.468 312.494 375.881 313.485C377.092 313.815 378.304 314.145 379.405 314.586C382.488 315.797 385.13 317.448 387.112 319.54C387.883 320.31 388.544 321.081 389.094 321.852C391.407 324.934 392.618 328.347 392.618 332.31C392.618 336.934 391.187 340.677 388.324 343.539C385.461 346.401 381.937 348.603 377.753 350.254C373.459 351.796 367.513 353.557 359.915 355.428C350.225 357.85 342.517 360.272 336.461 362.804C330.405 365.336 325.23 369.19 320.936 374.364C317.082 378.987 314.99 384.932 314.549 392.418L302.327 378.217C303.098 376.896 303.868 375.685 304.639 374.584ZM329.855 205.268C324.459 202.846 318.513 201.415 312.127 201.085H368.394C363.108 206.479 358.924 212.754 355.731 220.02C353.418 225.304 351.657 230.919 350.556 236.643C350.445 229.267 348.574 222.882 344.94 217.598C341.306 212.204 336.241 208.13 329.855 205.268ZM341.637 236.974C341.637 242.038 340.535 246.221 338.443 249.744C336.351 253.267 333.598 255.909 330.295 257.78C326.882 259.652 323.358 260.753 319.504 261.083C318.183 261.303 316.531 261.303 314.439 261.193V212.204C319.835 212.644 324.569 213.965 328.643 215.947C332.718 218.038 335.911 220.901 338.223 224.424C340.425 228.056 341.637 232.24 341.637 236.974ZM385.901 300.054C379.625 295.21 374.89 288.825 371.697 280.789C368.614 272.752 366.962 263.835 366.962 254.257C366.962 244.68 368.504 235.873 371.697 227.836C374.89 219.8 379.625 213.194 385.901 208.241C391.297 204.057 397.793 201.635 405.281 200.975C406.602 200.865 407.923 200.755 409.355 200.755C410.676 200.755 411.998 200.865 413.209 200.975C420.146 201.635 426.422 203.947 431.818 208.13C438.424 212.974 443.269 219.69 446.462 228.166L463.42 221.561C460.006 213.415 455.712 206.479 450.206 200.975H489.846L522.329 231.909L452.298 275.945C448.444 278.367 445.361 281.779 443.379 285.853C440.627 291.577 436.773 296.311 431.928 300.054C425.541 304.788 417.944 307.21 409.245 307.21C400.106 307.21 392.288 304.898 385.901 300.054ZM604.582 68.6486C610.198 72.7219 617.355 74.8136 626.164 74.8136C634.312 74.8136 641.359 72.832 647.305 68.7587C641.469 73.9329 636.735 80.318 633.101 87.9141C628.586 97.6018 626.274 108.28 626.274 119.84C626.274 129.307 627.705 138.114 630.678 146.261L594.122 56.9793C596.544 61.4929 600.068 65.346 604.582 68.6486ZM600.068 35.5121H653.031C652.48 41.3468 651.159 46.4108 648.957 50.8143C646.645 55.2179 643.672 58.7407 639.708 61.1626C635.854 63.6947 631.339 64.9056 626.164 64.9056C620.768 64.9056 616.144 63.8048 612.4 61.4929C608.546 59.2911 605.683 56.3188 603.701 52.6858C601.719 49.0529 600.508 45.0898 600.178 41.0165C600.068 39.4753 599.957 37.7138 600.068 35.5121ZM726.695 213.965C724.603 207.36 721.3 201.745 716.896 197.342C712.381 192.718 707.426 189.415 701.92 187.104C697.846 185.452 693.882 184.461 689.808 184.021C689.037 183.911 688.267 183.911 687.496 183.801C686.725 183.801 685.954 183.691 685.184 183.691H681.55H646.094L645.984 183.471L633.101 152.096C637.726 161.783 644.222 169.489 652.591 175.104C660.959 180.829 670.649 183.691 681.55 183.691C691.57 183.691 700.599 181.049 708.527 175.764C716.565 170.37 722.401 162.994 726.255 153.747L726.695 201.855V213.965ZM726.806 250.624C726.806 250.955 726.806 251.285 726.806 251.725V284.752L659.968 201.195C663.822 201.195 667.676 201.195 671.53 201.195C678.357 201.195 685.184 200.644 692.01 201.635C705.224 203.397 715.244 211.543 721.08 223.213C724.824 230.368 726.695 239.616 726.806 250.624ZM626.604 183.691H540.938L575.733 93.6387V93.5286L580.358 81.6391V81.529L583.771 72.6118L626.604 183.691ZM528.826 166.407L507.684 93.7488H558.556L528.826 166.407ZM514.841 183.691H449.766L485.552 76.7952L514.841 183.691ZM497.444 58.7407H523.32L503.94 80.9785L497.444 58.7407ZM441.838 159.361L408.034 58.3004L435.231 31.8792L475.312 58.8508L441.838 159.361ZM433.689 183.691H368.614L398.013 77.0153L433.689 183.691ZM510.988 201.085H637.285L710.729 288.935L586.194 271.541L510.988 201.085ZM721.851 144.94C718.437 152.426 713.592 158.26 707.206 162.554C700.929 166.737 693.552 168.829 685.184 168.829C676.705 168.829 669.328 166.737 662.831 162.444C656.445 158.15 651.6 152.316 648.076 144.83C644.663 137.344 642.901 128.977 642.901 119.84C642.901 110.812 644.663 102.446 648.076 95.0698C651.6 87.5838 656.445 81.7491 662.831 77.5658C669.328 73.2723 676.705 71.0706 685.184 71.0706C693.662 71.0706 700.929 73.1623 707.206 77.3456C713.592 81.529 718.437 87.3636 721.851 94.8496C725.264 102.226 726.916 110.482 726.916 119.73C726.916 129.087 725.264 137.454 721.851 144.94ZM725.704 -2.79862V85.382C721.961 76.2447 716.015 69.089 707.977 63.9148C699.938 58.7407 691.13 56.0986 681.33 56.0986C670.539 56.0986 660.959 58.9609 652.591 64.6855C652.15 65.0157 651.71 65.2359 651.269 65.5662C655.233 61.9333 658.316 57.5297 660.629 52.3556C663.712 45.5301 665.253 38.0441 665.253 29.7875C665.253 21.4208 663.712 13.8247 660.629 7.10932C658.867 3.36632 656.665 0.0636729 654.022 -2.79862H725.704V-2.79862ZM630.128 -2.79862C636.184 -2.13809 641.249 -0.156504 644.993 4.13694C649.948 9.64135 652.591 17.2374 653.031 27.0353H589.167C588.946 27.6958 588.836 28.6866 588.726 30.2279C588.616 31.7691 588.506 33.2002 588.506 34.7415C588.506 40.0257 589.387 45.3099 591.149 50.374H576.063L563.29 81.6391V81.7491H520.127L593.02 -2.79862H630.128ZM576.834 -2.79862L530.587 50.374H489.956L533.891 -2.79862H576.834ZM522.659 -2.79862L480.487 47.842L444.15 22.3015L470.577 -2.79862H522.659ZM320.385 -2.79862H453.399L402.638 45.1998H320.385V-2.79862ZM320.385 59.9517H385.791L354.74 166.077C350.225 167.618 345.931 168.389 341.637 168.389C334.589 168.389 329.194 166.297 325.56 162.224C322.037 158.04 320.275 151.325 320.275 142.188V59.9517H320.385ZM303.318 -2.79862H303.538L303.318 -2.57844V-2.79862ZM268.192 24.6133C268.192 15.476 269.954 8.87073 273.478 4.57729C277.111 0.393939 282.397 -1.58765 289.554 -1.58765C293.958 -1.58765 298.583 -0.706943 303.318 0.944381V45.0898H268.192V24.6133V24.6133ZM268.192 182.15V59.9517H303.098V144.94C303.098 157.49 306.181 167.068 312.127 173.783C318.183 180.278 326.882 183.691 338.223 183.801C338.443 183.801 338.664 183.801 338.884 183.801H281.406C276.341 183.801 271.936 184.241 268.082 185.232V182.15H268.192ZM268.082 211.213C268.302 206.699 271.606 202.956 276.01 201.965C278.653 201.305 281.956 201.085 285.92 201.085H305.74C299.244 201.415 293.408 202.846 288.012 205.268C281.846 208.241 276.891 212.424 273.368 218.148C270.174 223.323 268.413 229.377 268.082 236.313V220.35C268.192 217.268 267.972 214.295 268.082 211.213ZM268.192 240.717C268.413 246.221 269.404 251.065 271.275 255.248C273.368 260.092 276.781 264.826 281.406 269.229L287.902 261.854C284.158 258.331 281.516 254.698 279.974 251.065C278.433 247.432 277.772 243.249 277.772 238.405C277.772 230.478 280.305 224.203 285.37 219.69C290.435 215.176 297.482 212.644 306.511 212.204V271.211C307.062 271.431 308.053 271.541 309.484 271.651C310.915 271.761 312.237 271.872 313.668 271.872C319.504 271.872 325.34 270.771 330.956 268.459C336.571 266.147 341.306 262.404 345.05 257.12C346.922 254.588 348.243 251.725 349.234 248.533C349.124 250.404 349.014 252.386 349.014 254.367C349.014 267.248 351.436 278.917 356.171 289.376C357.493 292.348 359.144 295.1 360.796 297.742C351.547 298.183 343.398 300.605 336.131 305.008C333.378 306.769 330.625 308.531 328.203 310.843C326.001 313.045 324.019 315.466 321.486 317.338C321.266 317.448 321.156 317.558 320.936 317.668C316.751 320.641 311.246 321.631 306.181 321.631C299.904 321.631 293.738 319.87 287.902 316.347C282.066 312.934 277.332 307.54 273.588 300.054C270.615 294.33 268.853 287.504 268.192 279.578V265.376V240.717ZM337.893 502.396C337.893 514.506 335.03 523.863 329.414 530.579C323.799 537.294 315.65 540.597 304.969 540.597C293.628 540.597 284.709 537.184 278.102 530.249C271.826 523.643 268.302 514.286 268.082 502.176V432.16L295.17 386.804L322.147 419.39C326.221 424.454 331.396 428.307 337.783 431.059V502.396H337.893ZM487.424 449.444C484.231 460.563 478.835 469.48 471.237 475.975C463.64 482.58 454.17 485.883 443.049 485.883C433.359 485.883 425.762 483.681 420.256 479.278C414.86 474.764 412.108 468.709 412.108 461.113C412.108 453.077 415.301 446.912 421.687 442.508C428.074 438.105 437.654 435.903 450.426 435.903H487.424V449.444ZM487.424 423.133H449.546C435.011 423.133 418.274 424.564 406.382 433.811C393.939 443.499 394.27 458.361 394.38 472.893C394.6 488.195 394.38 503.497 394.38 518.799V525.515C394.38 532.56 392.508 538.065 388.874 542.028C385.13 545.881 380.175 547.753 373.899 547.753C367.843 547.753 363.328 545.881 360.135 542.248C356.942 538.505 355.4 533.221 355.4 526.396V435.242C357.603 435.463 359.805 435.573 362.117 435.573C370.816 435.573 378.854 434.142 386.232 431.169C397.133 426.876 407.813 418.399 413.319 407.83C417.613 399.464 420.586 391.097 429.175 386.143C435.341 382.51 442.609 380.749 450.977 380.749C463.97 380.749 473.219 384.051 478.835 390.657C484.561 397.262 487.424 407.61 487.424 421.702V423.133ZM493.039 313.155C486.213 322.512 482.799 334.402 482.799 349.043C482.799 361.153 485.442 371.722 490.837 380.859C487.534 377.226 483.68 374.143 479.276 371.722C471.458 367.428 461.988 365.226 450.867 365.226C439.525 365.226 429.836 367.428 421.687 371.942C412.989 376.786 406.822 383.831 402.198 392.638C398.234 400.014 394.71 408.051 387.883 413.225C381.056 418.179 372.798 420.711 362.998 420.711C356.391 420.711 350.776 419.72 346.151 417.628C341.526 415.427 338.003 412.564 335.691 408.821C333.268 405.078 332.057 400.895 332.057 396.161C332.057 390.877 333.598 386.694 336.792 383.611C339.875 380.419 343.619 377.997 348.133 376.345C352.648 374.694 358.814 372.822 366.742 370.841C375.991 368.639 383.479 366.437 389.205 364.125C394.93 361.924 399.775 358.401 403.739 353.667C407.703 348.933 409.575 342.548 409.575 334.512C409.575 330.549 409.025 326.806 407.923 323.503C408.474 323.503 409.025 323.503 409.575 323.503C422.018 323.503 432.809 320.31 442.058 313.815C447.674 309.852 452.298 304.898 456.042 299.063C458.465 295.32 461.548 292.238 465.291 289.706L533.34 243.909L598.196 307.32C603.481 312.824 607.225 318.329 609.647 323.943C612.29 330.328 613.721 337.924 613.721 346.732C613.721 361.043 609.207 372.272 600.068 380.419C590.928 388.565 578.266 393.079 562.079 393.849V287.834C560.978 287.504 559.216 287.284 556.794 287.064C554.261 286.844 551.839 286.733 549.306 286.733C538.736 286.733 528.385 288.825 518.365 292.898C508.125 296.972 499.756 303.797 493.039 313.155ZM547.985 305.669V393.629C538.295 392.748 529.817 390.547 522.439 386.914C515.062 383.171 509.336 378.107 505.152 371.611C500.967 365.226 498.985 357.74 498.985 349.153C498.985 340.126 500.967 332.53 504.711 326.255C508.455 319.87 513.3 315.136 519.356 311.834C525.412 308.531 531.909 306.549 538.846 305.889C541.378 305.669 544.351 305.559 547.985 305.669ZM621.87 510.763V473.883H607.115V510.763H529.927C520.787 510.763 514.181 509.002 509.886 505.479C506.363 502.616 504.161 498.323 503.39 493.919C502.949 491.387 503.06 488.745 503.06 486.213V418.509C503.06 407.5 500.967 397.923 496.893 389.996C496.563 389.446 496.233 388.785 495.902 388.235C502.179 395.941 510.217 401.886 519.907 406.289C528.495 410.142 537.855 412.564 547.875 413.445V419.39C547.875 429.628 550.297 437.334 555.252 442.728C560.207 448.123 567.475 450.875 576.944 450.875C579.697 450.875 582.45 450.655 585.203 450.214C587.955 449.774 590.158 449.334 592.029 448.673L591.809 435.793C587.515 437.554 583.331 438.325 579.257 438.325C573.531 438.325 569.126 436.674 566.263 433.261C563.401 429.848 561.969 424.454 561.969 416.968V413.665C574.081 413.225 585.203 410.583 595.113 405.959C606.234 400.675 615.043 392.969 621.429 382.951C626.164 375.354 629.137 366.768 630.348 357.08C629.908 360.382 629.688 363.905 629.688 367.648C629.688 381.079 633.101 392.969 639.818 403.317C646.424 413.555 662.831 425.555 678.577 430.839C668.887 433.701 661.51 438.765 656.665 445.811C651.82 452.857 649.397 461.333 649.397 471.351C649.397 476.415 650.058 481.259 651.379 485.663C652.37 489.076 653.802 492.268 655.674 495.241C659.748 501.956 665.804 507.13 673.842 510.653H621.87V510.763ZM858.609 496.011C856.186 504.268 852.002 510.983 846.276 516.378C840.44 521.662 832.953 524.744 824.034 525.405C815.665 526.065 808.178 524.194 801.571 519.9C794.854 515.607 789.569 509.332 785.715 501.185L769.639 508.891C769.859 509.332 770.189 509.882 770.41 510.323H705.334C697.736 510.323 690.909 508.892 684.963 505.919C679.017 502.947 674.393 498.763 670.979 493.369C667.676 487.975 666.024 481.59 666.024 474.434C666.024 463.865 669.328 456.159 675.934 451.095C680.779 447.352 686.945 445.04 694.653 444.05C697.406 443.829 700.269 443.719 703.242 443.719H766.666C766.556 444.16 766.446 444.49 766.336 444.93L782.632 449.884C784.614 441.407 788.578 434.472 794.524 429.188C800.36 424.013 807.517 421.151 816.106 420.491C825.245 419.83 833.063 421.592 839.559 425.775C846.056 430.068 851.121 436.123 854.755 443.719C858.388 451.425 860.591 460.012 861.361 469.59C861.912 479.058 861.031 487.865 858.609 496.011ZM999.111 493.369V504.928V533.551L892.523 442.618H878.649V467.608C877.658 455.279 874.465 444.16 869.179 434.362C864.775 426.325 859.049 419.83 852.222 414.766C853.103 414.326 853.874 413.995 854.755 413.555C862.573 409.372 868.519 403.207 872.483 395.28C873.364 393.629 874.134 391.868 874.795 390.106C875.015 389.556 875.125 389.115 875.346 388.565C882.943 394.18 892.413 397.042 903.754 397.042C917.078 397.042 930.621 392.858 940.311 383.501C944.385 379.538 947.468 374.914 952.534 372.162C957.709 369.41 963.545 368.309 969.27 368.309C976.538 368.309 982.264 369.74 986.558 372.602C990.852 375.465 992.944 379.428 992.944 384.492C992.944 389.556 990.632 393.519 986.117 396.601C981.383 399.464 975.767 401.666 969.27 403.207C962.664 404.638 955.947 406.399 949.34 408.491C942.734 410.583 937.118 414.106 932.493 419.17C927.759 424.234 925.336 430.839 925.336 439.096C925.336 450.435 929.41 459.242 937.448 465.407C945.376 471.572 955.286 474.654 967.399 474.654C978.96 474.654 989.091 471.902 997.789 466.397C998.23 466.177 998.67 465.847 999.001 465.517V493.369H999.111ZM1001.75 437.554C1001.09 439.536 1000.21 441.297 999.111 443.059C996.798 447.132 993.495 450.765 989.531 453.737C983.695 457.811 976.428 459.902 967.729 459.902C959.801 459.902 953.525 458.031 948.79 454.398C944.055 450.765 941.633 445.811 941.633 439.756C941.633 434.031 943.945 429.628 948.79 426.435C953.414 423.243 959.03 421.041 965.637 419.61C972.133 418.069 978.63 416.417 985.347 414.656C991.843 412.784 997.459 409.482 1002.19 404.968C1005.17 401.996 1007.15 398.363 1008.25 394.18C1008.14 395.611 1008.03 396.932 1008.03 398.473C1008.03 409.482 1011.99 418.069 1019.92 424.344C1027.74 430.509 1037.54 433.701 1049.32 433.701C1061.1 433.701 1070.79 430.509 1078.39 424.234C1080.04 422.913 1081.47 421.371 1082.69 419.83V461.443L1001.75 437.554ZM1070.24 469.7L1015.41 487.865V454.618L1070.24 469.7ZM1015.52 543.569V510.323L1070.24 528.597L1015.52 543.569ZM1016.51 498.984L1082.57 477.296V521.111L1016.51 498.984ZM1173.42 526.396C1165.93 535.863 1155.36 540.487 1141.7 540.487C1128.16 540.487 1117.81 535.753 1110.54 526.396C1103.06 516.818 1099.31 504.268 1099.31 488.855C1099.31 473.223 1103.17 460.673 1110.76 451.315C1118.25 441.848 1128.49 437.224 1141.7 437.224C1154.92 437.224 1165.27 441.958 1172.87 451.315C1180.02 460.012 1183.88 471.682 1184.32 486.213V491.608C1183.99 505.699 1180.35 517.368 1173.42 526.396ZM1215.37 368.859H1202.71V283.871C1202.71 275.394 1201.16 266.147 1195.22 259.652C1192.36 256.459 1188.61 254.147 1184.54 252.826C1177.27 250.404 1169.67 250.955 1162.08 250.955C1153.16 251.065 1144.24 250.955 1135.32 250.955C1127.94 250.955 1120.56 250.955 1113.19 250.955C1111.2 250.955 1109.33 250.955 1107.35 250.955L1138.51 214.626H1215.26V368.859H1215.37ZM1215.37 198.993H1151.83L1193.02 150.995V136.463H1174.96V103.437H1199.07C1209.86 103.437 1215.37 103.877 1215.37 116.317V198.993Z" stroke="#D62A1E" stroke-opacity="0.8" stroke-miterlimit="10"/>
<path d="M931 124H910V152H931V124Z" stroke="#D62A1E" stroke-opacity="0.8" stroke-miterlimit="10"/>
<path d="M623 428H605V455H623V428Z" stroke="#D62A1E" stroke-opacity="0.8" stroke-miterlimit="10"/>
</g>
<defs>
<clipPath id="clip0_137:10308">
<rect width="1170" height="548" fill="white"/>
</clipPath>
</defs>
</svg>
