<svg width="1170" height="548" viewBox="0 0 1170 548" fill="none" xmlns="http://www.w3.org/2000/svg">
<g clip-path="url(#clip0_137:10160)">
<path opacity="0.4" d="M22.6686 481.692V330.901H-13.4368V310.808H23.0343V284.412C23.0343 267.516 27.0561 255.551 35.1913 248.336C43.3265 240.938 53.564 237.284 66.0866 237.284C76.0499 237.284 86.196 239.476 96.6163 243.86L88.2983 262.949C80.4374 259.296 73.8561 257.378 68.5546 257.378C61.8819 257.378 56.489 259.661 52.5585 264.319C48.628 268.703 46.6171 274.822 46.6171 282.677V310.808H95.8851V330.901H46.6171V481.784H22.6686V481.692Z" fill="#FCF7F2"/>
<path opacity="0.4" d="M1084.9 277.563C1074.75 277.563 1066.71 274.183 1060.95 267.516C1055.19 260.575 1052.27 250.619 1052.27 237.65V33.0632H1076.22V236.28C1076.22 249.249 1081.43 255.734 1091.85 255.734C1096.51 255.734 1101.9 254.729 1108.12 252.629L1108.48 273.087C1099.53 276.101 1091.66 277.563 1084.9 277.563Z" fill="#FCF7F2"/>
<path opacity="0.8" d="M821.468 225.045L821.834 246.235C812.145 249.249 803.461 250.71 795.783 250.71C783.717 250.71 774.12 247.239 766.99 240.298C759.86 233.174 756.204 222.305 756.204 207.692V97.0873H727.777V76.994H756.204V32.6059L780.153 14.6133V76.994H821.468V97.0873H780.153V204.587C780.153 220.753 787.191 228.881 801.359 228.881C806.661 228.881 813.425 227.603 821.468 225.045Z" fill="#FCF7F2"/>
<path opacity="0.4" d="M722.841 253.359C742.493 253.359 757.118 259.387 766.533 271.352C776.039 283.134 780.792 299.482 780.792 320.215V426.984H756.844V326.882C756.844 291.993 744.321 274.548 719.367 274.548C690.026 274.548 675.309 298.021 675.309 344.966V427.166H651.361V328.252C651.361 292.45 638.564 274.457 612.879 274.457C584.452 274.457 570.192 297.93 570.192 344.875V427.075H546.244L545.878 256.099H569.095V276.923C579.059 261.214 594.78 253.359 616.261 253.359C641.215 253.359 658.034 264.319 666.626 286.33C677.777 264.319 696.516 253.359 722.841 253.359Z" fill="#FCF7F2"/>
<path opacity="0.4" d="M336.101 194.906L285.827 23.9297H311.513L348.258 158.829L393.413 23.9297H415.259L460.048 158.829L497.159 23.9297H522.478L472.479 194.906H449.993L404.473 56.901L358.313 194.906H336.101Z" fill="#FCF7F2"/>
<path opacity="0.4" d="M219.192 396.478C205.755 380.495 187.291 372.549 163.708 372.549C139.394 372.549 120.565 381.225 107.128 398.579V304.871H83.088V546.539H107.036V523.614C120.473 540.693 139.303 549.279 163.617 549.279C187.931 549.279 206.669 541.15 219.832 524.984C232.994 508.544 239.576 487.172 239.576 460.868C239.667 433.925 232.811 412.37 219.192 396.478ZM201.094 509.823C191.587 522.061 177.968 528.181 160.143 528.181C142.593 528.181 128.883 522.061 119.193 509.823C109.687 497.31 104.934 481.053 104.934 460.959C104.934 440.592 109.779 424.335 119.468 412.096C129.431 399.857 142.959 393.738 160.052 393.738C177.145 393.738 190.673 399.857 200.636 412.096C210.6 424.152 215.536 440.409 215.536 460.959C215.719 481.053 210.874 497.401 201.094 509.823Z" fill="#FCF7F2"/>
<path opacity="0.4" d="M1127.77 292.907V386.523C1114.33 369.17 1095.5 360.493 1071.19 360.493C1047.61 360.493 1028.96 368.439 1015.34 384.423C1001.9 400.406 995.231 421.869 995.231 448.904C995.231 475.299 1001.81 496.671 1014.97 513.02C1028.14 529.186 1046.88 537.315 1071.19 537.315C1095.5 537.315 1114.33 528.729 1127.77 511.65V534.575H1151.72V292.907H1127.77ZM1115.25 497.859C1105.74 510.097 1092.21 516.217 1074.66 516.217C1056.84 516.217 1043.04 510.097 1033.35 497.859C1023.84 485.346 1019.09 469.089 1019.09 448.995C1019.09 428.445 1024.02 412.097 1033.99 400.132C1043.95 387.893 1057.48 381.774 1074.57 381.774C1091.66 381.774 1105.1 387.893 1114.79 400.132C1124.75 412.371 1129.69 428.719 1129.69 448.995C1129.78 469.089 1124.94 485.346 1115.25 497.859Z" fill="#FCF7F2"/>
<path opacity="0.8" d="M318.733 445.981C309.958 441.597 292.683 437.395 266.998 433.468C256.851 431.824 248.991 430.363 243.415 428.993C237.839 427.623 232.629 425.157 227.784 421.686C223.123 418.215 220.837 413.74 220.837 408.169C220.837 400.771 224.585 395.017 231.898 390.815C242.318 396.569 254.109 399.492 267.272 399.492C285.553 399.492 300.818 394.195 313.066 383.509C325.589 372.64 331.805 358.575 331.805 341.221C331.805 329.622 328.697 318.936 322.39 308.981L345.607 289.527L333.358 274L309.776 294.459C297.984 285.234 283.725 280.576 267.089 280.576C248.625 280.576 233.086 286.239 220.563 297.564C208.041 308.615 201.825 322.772 201.825 339.851C201.825 354.647 206.669 367.617 216.359 378.668C204.11 386.979 197.986 397.848 197.986 411.274C197.986 426.344 205.39 437.121 220.198 443.88L192.41 467.444C191.953 470.184 191.679 472.741 191.679 475.116C191.679 492.013 198.351 504.982 211.788 513.933C225.225 523.157 243.963 527.815 268.003 527.815C290.489 527.815 308.222 523.797 321.476 515.668C334.638 507.813 341.219 496.123 341.219 480.687C341.311 464.978 333.816 453.379 318.733 445.981ZM237.199 311.812C245.06 304.414 255.115 300.761 267.363 300.761C279.612 300.761 289.483 304.414 296.887 311.812C304.291 319.21 307.948 328.8 307.948 340.582C307.948 352.181 304.291 361.589 296.887 368.987C289.483 376.111 279.52 379.764 266.998 379.764C254.475 379.764 244.42 376.111 236.834 368.713C229.155 361.315 225.408 351.907 225.408 340.582C225.408 328.8 229.338 319.21 237.199 311.812ZM269.191 507.722C233.36 507.722 215.353 497.127 215.353 475.847C215.353 474.933 215.444 473.837 215.719 472.741L238.936 450.182C245.609 451.826 253.287 453.196 261.879 454.383C262.793 454.657 264.164 454.84 266.084 455.114C275.59 456.484 282.262 457.671 286.193 458.585C290.123 459.498 295.059 461.051 301.092 463.06C307.125 465.161 311.238 467.809 313.615 471.006C316.174 474.203 317.454 478.13 317.454 482.788C317.362 499.411 301.275 507.722 269.191 507.722Z" fill="#FCF7F2"/>
<path opacity="0.4" d="M1074.66 79.7341C1111.96 79.7341 1130.51 102.75 1130.51 148.782V253.541H1106.56V154.627C1106.56 136.178 1103.55 122.569 1097.51 114.075C1091.48 105.307 1081.98 100.923 1069.09 100.923C1052.91 100.923 1040.29 107.408 1031.25 120.377C1022.47 133.073 1018.08 151.248 1018.08 174.812V253.541H994.134V11.7821H1018.08V107.499C1023.66 98.7314 1031.43 91.8814 1041.3 87.0408C1051.26 82.2001 1062.41 79.7341 1074.66 79.7341Z" fill="#FCF7F2"/>
<path opacity="0.4" d="M810.225 548V306.332H834.173V467.535L919.547 377.024H951.813L889.657 441.231L961.503 548H933.075L873.387 456.119L834.173 497.675V548H810.225Z" fill="#FCF7F2"/>
<path opacity="0.8" d="M151.277 30.1403C137.84 14.1569 119.376 6.21094 95.7936 6.21094C71.4796 6.21094 52.6499 14.8876 39.2131 32.2409V9.4076H15.2647V251.076H39.2131V157.459C52.6499 174.538 71.4796 183.124 95.7936 183.124C120.108 183.124 138.846 174.995 152.008 158.829C165.171 142.389 171.752 121.017 171.752 94.7129C171.752 67.5869 164.897 46.1236 151.277 30.1403ZM133.179 143.576C123.673 155.815 110.053 161.934 92.2288 161.934C74.6788 161.934 60.9678 155.815 51.2788 143.576C41.7725 131.064 37.0194 114.806 37.0194 94.7129C37.0194 74.3456 41.8639 58.0883 51.553 45.8496C61.6077 33.5196 75.1358 27.4003 92.2288 27.4003C109.322 27.4003 122.85 33.5196 132.813 45.7583C142.776 57.8143 147.712 74.0716 147.712 94.6216C147.804 114.806 142.959 131.064 133.179 143.576Z" fill="#FCF7F2"/>
<path opacity="0.4" d="M719.55 356.565V379.49C706.113 362.137 687.284 353.46 662.969 353.46C639.387 353.46 620.74 361.406 607.12 377.389C593.683 393.373 587.011 414.836 587.011 441.871C587.011 468.266 593.592 489.638 606.755 505.987C619.917 522.153 638.655 530.281 662.969 530.281C687.284 530.281 706.113 521.696 719.55 504.617V598.233H743.498V356.565H719.55ZM707.119 490.734C697.612 502.973 684.084 509.092 666.534 509.092C648.71 509.092 634.908 502.973 625.219 490.734C615.712 478.221 610.959 461.964 610.959 441.871C610.959 421.321 615.895 404.972 625.859 393.007C635.822 380.769 649.35 374.649 666.443 374.649C683.536 374.649 696.973 380.769 706.662 393.007C716.625 405.246 721.561 421.595 721.561 441.871C721.652 461.964 716.808 478.221 707.119 490.734Z" fill="#FCF7F2"/>
<path opacity="0.4" d="M589.936 313.09L618.363 240.206L545.878 71.3311H572.203L631.252 212.167L682.988 71.3311H709.312L615.621 313.09H589.936Z" fill="#FCF7F2"/>
<path opacity="0.4" d="M961.96 121.656C950.168 109.874 933.532 103.938 911.96 103.938C883.533 103.938 860.224 115.628 842.217 138.918L859.585 153.44C873.478 134.443 890.846 125.036 911.686 125.036C926.037 125.036 937.006 128.963 944.684 136.818C952.362 144.672 956.11 156.089 956.11 171.159V179.105H921.101C890.114 179.105 868.36 182.667 855.837 189.882C842.857 197.737 836.367 210.432 836.367 228.06C836.367 244.5 841.578 257.286 851.998 266.511C862.418 275.736 876.86 280.394 895.416 280.394C922.472 280.394 942.947 270.712 956.841 251.258L958.212 277.654H980.058V171.25C980.058 149.97 974.025 133.438 961.96 121.656ZM956.11 201.025C956.11 219.292 951.265 233.814 941.576 244.682C931.887 255.277 918.816 260.666 902.363 260.666C889.657 260.666 879.42 257.926 871.833 252.354C864.155 246.6 860.407 238.928 860.407 229.43C860.407 219.474 863.515 212.076 869.822 207.236C877.226 201.482 895.05 198.559 923.295 198.559H956.292V201.025H956.11Z" fill="#FCF7F2"/>
<path opacity="0.4" d="M245.517 -49.4113C233.726 -61.1933 217.09 -67.13 195.609 -67.13C167.182 -67.13 143.873 -55.4393 125.866 -32.1494L143.234 -17.6274C157.127 -36.6247 174.494 -46.032 195.335 -46.032C209.686 -46.032 220.655 -42.1047 228.333 -34.25C236.011 -26.3954 239.758 -14.9787 239.758 0.091301V8.0373H204.75C173.763 8.0373 152.009 11.5993 139.486 18.8146C126.506 26.6693 120.016 39.3646 120.016 56.9919C120.016 73.4319 125.226 86.2186 135.647 95.4433C146.067 104.668 160.509 109.326 179.065 109.326C206.121 109.326 226.596 99.6446 240.49 80.1906L241.861 106.586H263.707V0.182632C263.616 -21.098 257.583 -37.6293 245.517 -49.4113ZM239.667 29.9573C239.667 48.224 234.823 62.746 225.134 73.6146C215.444 84.2093 202.373 89.5979 185.92 89.5979C173.215 89.5979 162.977 86.8579 155.391 81.2866C147.712 75.5326 143.965 67.8606 143.965 58.3619C143.965 48.4066 147.073 41.0086 153.38 36.168C160.784 30.414 178.608 27.4913 206.852 27.4913H239.85V29.9573H239.667Z" fill="#FCF7F2"/>
<path opacity="0.4" d="M828.781 383.417C804.924 383.417 786.094 375.014 772.2 358.118C758.306 341.221 751.359 320.488 751.359 295.737C751.359 271.442 758.032 250.618 771.469 233.356C784.906 215.821 803.827 206.961 828.415 206.961C861.23 206.961 884.447 222.671 897.792 254.089L874.849 263.131C870.919 252.08 864.795 243.494 856.477 237.466C848.341 231.256 839.018 228.059 828.324 228.059C811.231 228.059 798.159 234.635 789.11 247.787C780.061 260.756 775.582 276.648 775.582 295.646C775.582 314.643 780.061 330.444 789.11 343.139C798.159 355.834 811.322 362.228 828.689 362.228C839.566 362.228 848.89 359.214 856.842 353.186C864.977 346.975 870.645 338.39 873.844 327.521L896.056 335.832C890.48 351.359 881.796 363.141 870.005 371.178C858.305 379.398 844.502 383.417 828.781 383.417Z" fill="#FCF7F2"/>
<path opacity="0.4" d="M1174.2 192.257C1150.35 192.257 1131.52 183.854 1117.62 166.958C1103.73 150.061 1096.78 129.237 1096.78 104.577C1096.78 80.2824 1103.46 59.4584 1116.89 42.1964C1130.33 24.6604 1149.25 15.801 1173.84 15.801C1206.65 15.801 1229.87 31.5104 1243.22 62.929L1220.27 71.971C1216.34 60.9197 1210.22 52.3344 1201.9 46.3064C1193.77 40.0957 1184.44 36.899 1173.75 36.899C1156.65 36.899 1143.58 43.475 1134.53 56.627C1125.49 69.5964 1121.01 85.4884 1121.01 104.486C1121.01 123.483 1125.49 139.284 1134.53 151.979C1143.58 164.674 1156.75 171.068 1174.11 171.068C1184.99 171.068 1194.31 168.054 1202.27 162.026C1210.4 155.815 1216.07 147.23 1219.27 136.361L1241.48 144.672C1235.9 160.199 1227.22 171.981 1215.43 180.018C1203.64 188.147 1189.93 192.257 1174.2 192.257Z" fill="#FCF7F2"/>
<path opacity="0.4" d="M632.988 78.7294C609.131 78.7294 590.302 70.3268 576.408 53.4301C562.605 36.5334 555.659 15.7094 555.659 -9.04189C555.659 -33.3365 562.331 -54.1605 575.768 -71.4225C589.205 -88.9585 608.126 -97.8179 632.714 -97.8179C665.529 -97.8179 688.746 -82.1085 702.091 -50.6899L679.148 -41.6479C675.218 -52.6992 669.094 -61.2845 660.776 -67.3125C652.641 -73.5232 643.317 -76.7199 632.623 -76.7199C615.53 -76.7199 602.459 -70.1439 593.409 -56.9919C584.36 -44.0225 579.881 -28.1305 579.881 -9.13322C579.881 9.86411 584.36 25.6648 593.409 38.3601C602.459 51.0555 615.713 57.5401 632.988 57.5401C643.866 57.5401 653.189 54.5261 661.141 48.4981C669.277 42.2874 674.944 33.7021 678.143 22.8335L700.355 31.1448C694.779 46.6714 686.095 58.4534 674.304 66.4908C662.513 74.7108 648.71 78.7294 632.988 78.7294Z" fill="#FCF7F2"/>
<path opacity="0.4" d="M246.888 256.282C246.888 242.673 244.42 230.069 239.576 218.47C234.731 206.688 226.505 196.733 214.896 188.604C203.287 180.475 189.211 176.457 172.575 176.457C148.718 176.457 130.162 185.042 116.726 202.121C103.289 219.018 96.6164 240.116 96.6164 265.598C96.6164 290.989 103.472 311.995 117.091 328.344C130.985 344.784 150.363 353.004 175.409 353.004C201.276 353.004 223.397 343.414 241.678 324.234L225.042 309.712C211.605 324.051 195.152 331.175 175.774 331.175C158.864 331.175 145.427 325.878 135.555 315.192C125.866 304.597 120.839 289.893 120.656 271.169H245.883C246.523 267.059 246.888 262.036 246.888 256.282ZM223.945 251.076H120.565C121.753 235.367 126.963 222.397 136.195 212.259C145.427 201.847 157.584 196.641 172.666 196.641C187.931 196.641 199.997 201.299 208.772 210.524C217.821 219.566 222.757 231.257 223.671 245.505C223.671 246.692 223.762 247.788 224.037 248.975V251.076H223.945Z" fill="#FCF7F2"/>
<path opacity="0.4" d="M950.808 50.142C950.808 36.5333 948.34 23.9293 943.495 12.33C938.651 0.547987 930.424 -9.40735 918.815 -17.536C907.207 -25.6647 893.13 -29.6833 876.494 -29.6833C852.637 -29.6833 834.082 -21.098 820.645 -4.01868C807.208 12.878 800.536 33.976 800.536 59.458C800.536 84.8487 807.391 105.855 821.011 122.204C834.905 138.644 854.283 146.864 879.328 146.864C905.196 146.864 927.316 137.274 945.597 118.094L928.962 103.572C915.525 117.911 899.072 125.035 879.694 125.035C862.783 125.035 849.347 119.738 839.475 109.052C829.786 98.4573 824.758 83.7527 824.576 65.0293H949.711C950.442 60.828 950.808 55.896 950.808 50.142ZM927.865 44.936H824.484C825.672 29.2267 830.883 16.2573 840.115 6.11932C849.347 -4.29268 861.504 -9.49868 876.586 -9.49868C891.851 -9.49868 903.916 -4.84068 912.691 4.38399C921.74 13.426 926.676 25.1167 927.59 39.3647C927.59 40.552 927.682 41.648 927.956 42.8353V44.936H927.865Z" fill="#FCF7F2"/>
<path opacity="0.4" d="M608.491 24.934C593.227 8.31133 573.574 0 549.534 0C525.22 0 505.476 8.31133 490.212 24.934C475.129 41.374 467.634 62.3807 467.634 88.0453C467.634 113.71 475.129 134.899 490.212 151.522C505.476 168.145 525.22 176.456 549.534 176.456C573.848 176.456 593.592 168.145 608.857 151.522C624.122 134.625 631.8 113.527 631.8 88.0453C631.709 62.6547 624.03 41.648 608.491 24.934ZM592.221 136.635C581.801 149.147 567.541 155.358 549.534 155.358C531.71 155.358 517.633 149.147 507.213 136.635C496.793 124.122 491.583 107.956 491.583 88.0453C491.583 68.4087 496.701 52.334 506.847 39.8213C517.268 27.3087 531.527 21.098 549.534 21.098C567.359 21.098 581.435 27.3087 591.855 39.8213C602.459 52.06 607.852 68.1347 607.852 88.0453C607.76 107.773 602.641 123.939 592.221 136.635Z" fill="#FCF7F2"/>
<path opacity="0.8" d="M1047.06 416.937C1030.15 416.937 1015.34 412.918 1002.64 404.79C989.93 396.661 981.338 385.792 976.95 372.184L997.059 363.142C1000.53 372.64 1006.47 380.495 1014.79 386.706C1023.38 392.734 1033.99 395.748 1046.69 395.748C1058.3 395.748 1067.53 393.099 1074.48 387.802C1081.43 382.504 1084.9 375.289 1084.9 366.338C1084.9 358.027 1081.43 351.542 1074.48 346.884C1067.81 342.226 1059.58 338.938 1049.8 336.838C1040.29 334.554 1030.7 332.088 1021.01 329.531C1011.5 326.791 1003.27 322.042 996.328 315.283C989.655 308.616 986.273 299.665 986.273 288.614C986.273 273.818 991.666 262.127 1002.54 253.633C1013.42 244.865 1027.5 240.481 1044.86 240.481C1074.21 240.481 1094.68 252.354 1106.29 276.192L1087.19 286.604C1078.14 269.982 1063.79 261.67 1044.13 261.67C1033.53 261.67 1025.03 263.771 1018.81 267.881C1012.6 272.082 1009.4 277.836 1009.4 285.234C1009.4 292.632 1012.78 298.569 1019.45 302.953C1026.4 307.154 1034.63 310.351 1044.13 312.634C1053.82 314.735 1063.6 317.292 1073.29 320.306C1082.98 323.32 1091.21 328.526 1097.97 335.924C1104.92 343.322 1108.39 353.004 1108.39 365.06C1108.39 381.682 1102.45 394.56 1090.66 403.511C1079.23 412.462 1064.7 416.937 1047.06 416.937Z" fill="#FCF7F2"/>
<path opacity="0.4" d="M366.448 374.65C403.741 374.65 422.297 397.666 422.297 443.698V548.457H398.349V449.543C398.349 431.094 395.241 417.485 388.934 408.991C382.901 400.223 373.577 395.839 360.781 395.839C344.602 395.839 331.988 402.506 322.938 415.932C314.163 429.084 309.776 447.716 309.776 471.737V548.366H285.827V377.39H309.867V402.324C315.443 393.556 323.213 386.706 333.084 381.865C342.956 377.024 354.199 374.65 366.448 374.65Z" fill="#FCF7F2"/>
<path opacity="0.4" d="M1003.28 283.224C1014.15 283.224 1024.02 285.69 1032.8 290.531L1021.01 309.985C1012.87 306.514 1005.38 304.779 998.431 304.779C984.811 304.779 973.659 309.711 965.159 319.666C956.841 329.622 952.636 343.596 952.636 361.588V456.94H928.688V285.964H952.636V311.629C963.056 292.723 979.966 283.224 1003.28 283.224Z" fill="#FCF7F2"/>
<path opacity="0.4" d="M419.738 507.722C430.615 507.722 440.487 510.188 449.262 515.029L437.47 534.483C429.335 531.012 421.84 529.277 414.893 529.277C401.273 529.277 390.122 534.209 381.621 544.164C373.303 554.12 369.098 568.094 369.098 586.086V681.438H345.15V510.462H369.098V536.127C379.519 517.221 396.429 507.722 419.738 507.722Z" fill="#FCF7F2"/>
<path opacity="0.4" d="M408.403 162.482H432.352V333.458H408.403V308.798C402.644 317.84 394.601 324.599 384.455 329.257C374.491 333.915 363.614 336.198 351.823 336.198C332.81 336.198 318.734 330.17 309.502 318.205C300.452 306.149 295.973 289.161 295.973 267.241V162.482H319.922V261.305C319.922 277.927 322.481 291.171 327.6 300.852C332.719 310.351 342.682 315.1 357.49 315.1C374.126 315.1 386.74 308.524 395.332 295.372C404.107 282.22 408.494 264.136 408.494 241.303V162.482H408.403Z" fill="#FCF7F2"/>
<path opacity="0.4" d="M995.048 486.715H1019V657.691H995.048V633.031C989.29 642.073 981.246 648.832 971.1 653.49C961.137 658.148 950.259 660.431 938.468 660.431C919.455 660.431 905.379 654.403 896.147 642.439C887.097 630.383 882.619 613.395 882.619 591.475V486.715H906.567V585.538C906.567 602.161 909.126 615.404 914.245 625.085C919.364 634.584 929.327 639.333 944.135 639.333C960.771 639.333 973.385 632.757 981.977 619.605C990.752 606.453 995.14 588.369 995.14 565.536V486.715H995.048Z" fill="#FCF7F2"/>
<path opacity="0.4" d="M547.706 619.24L477.963 448.355H504.014L557.852 588.735L611.965 448.355H638.29L568.181 619.24H547.706Z" fill="#FCF7F2"/>
<path opacity="0.4" d="M188.297 247.97L250.727 162.3L188.297 76.9944H217.455L266.723 145.677L315.625 76.9944H344.784L282.354 162.3L345.15 247.97H315.625L266.723 178.648L217.821 247.97H188.297Z" fill="#FCF7F2"/>
<path opacity="0.4" d="M-30.1642 633.488L32.2663 547.818L-30.1642 462.512H-1.00559L48.2624 531.195L97.1647 462.512H126.323L63.8928 547.818L126.689 633.488H97.1647L48.2624 564.166L-0.639969 633.488H-30.1642Z" fill="#FCF7F2"/>
<path opacity="0.4" d="M520.376 274V293.089L408.951 424.517H519.644V444.976H377.325V427.623L491.217 294.459H383.266V274H520.376Z" fill="#FCF7F2"/>
<path opacity="0.4" d="M366.448 323.685V236.919H345.698V225.319H366.63V210.158C366.63 200.477 368.915 193.535 373.577 189.425C378.239 185.133 384.18 183.032 391.31 183.032C397.069 183.032 402.919 184.311 408.86 186.777L404.107 197.737C399.628 195.636 395.789 194.54 392.773 194.54C388.933 194.54 385.826 195.91 383.632 198.559C381.347 201.116 380.25 204.587 380.25 209.153V225.319H408.586V236.919H380.25V323.685H366.448Z" fill="#FCF7F2"/>
<path opacity="0.4" d="M226.596 269.707C220.746 269.707 216.176 267.79 212.794 263.954C209.503 259.935 207.766 254.272 207.766 246.783V129.146H221.569V245.961C221.569 253.359 224.585 257.104 230.527 257.104C233.177 257.104 236.285 256.464 239.941 255.277L240.124 267.059C234.914 268.794 230.435 269.707 226.596 269.707Z" fill="#FCF7F2"/>
<path opacity="0.4" d="M998.705 515.668L998.888 527.815C993.312 529.551 988.284 530.373 983.897 530.373C976.95 530.373 971.466 528.363 967.352 524.436C963.239 520.326 961.137 514.024 961.137 505.713V442.053H944.775V430.454H961.137V404.972L974.939 394.56V430.454H998.705V442.053H974.939V503.886C974.939 513.202 978.961 517.86 987.096 517.86C990.113 517.86 994.043 517.129 998.705 515.668Z" fill="#FCF7F2"/>
<path opacity="0.8" d="M1006.02 69.9611C1017.35 69.9611 1025.67 73.4317 1031.15 80.3731C1036.64 87.1317 1039.38 96.5391 1039.38 108.504V169.88H1025.58V112.248C1025.58 92.1551 1018.36 82.1084 1004.01 82.1084C987.096 82.1084 978.686 95.6257 978.686 122.569V169.788H964.884V112.979C964.884 92.3377 957.48 82.1084 942.764 82.1084C926.402 82.1084 918.267 95.6257 918.267 122.569V169.788H904.465L904.282 71.5137H917.627V83.4784C923.386 74.4364 932.435 69.9611 944.775 69.9611C959.126 69.9611 968.815 76.2631 973.751 88.8671C980.149 76.2631 990.843 69.9611 1006.02 69.9611Z" fill="#FCF7F2"/>
<path opacity="0.4" d="M704.376 107.682L675.492 9.40759H690.208L711.415 86.9496L737.374 9.40759H749.897L775.674 86.9496L796.971 9.40759H811.596L782.803 107.682H769.824L743.681 28.3136L717.173 107.682H704.376Z" fill="#FCF7F2"/>
<path opacity="0.8" d="M536.006 174.538C528.328 165.405 517.633 160.747 504.105 160.747C490.12 160.747 479.334 165.77 471.565 175.725V121.93H457.762V260.848H471.565V247.696C479.243 257.56 490.12 262.492 504.105 262.492C518.09 262.492 528.876 257.834 536.463 248.518C544.05 239.111 547.797 226.781 547.797 211.619C547.797 196.093 543.867 183.763 536.006 174.538ZM525.677 239.75C520.193 246.783 512.332 250.345 502.094 250.345C491.948 250.345 484.179 246.783 478.512 239.75C473.027 232.535 470.285 223.219 470.285 211.619C470.285 199.929 473.119 190.521 478.694 183.489C484.453 176.456 492.222 172.894 502.003 172.894C511.783 172.894 519.644 176.456 525.312 183.489C531.07 190.43 533.904 199.746 533.904 211.619C534.087 223.219 531.253 232.626 525.677 239.75Z" fill="#FCF7F2"/>
<path opacity="0.4" d="M910.132 254.729V308.524C902.454 298.569 891.576 293.546 877.591 293.546C864.063 293.546 853.277 298.112 845.508 307.337C837.83 316.47 833.899 328.892 833.899 344.418C833.899 359.579 837.647 371.909 845.233 381.317C852.82 390.633 863.606 395.291 877.591 395.291C891.576 395.291 902.362 390.359 910.132 380.495V393.647H923.934V254.729H910.132ZM902.911 372.549C897.426 379.581 889.657 383.143 879.602 383.143C869.365 383.143 861.412 379.581 855.837 372.549C850.352 365.333 847.701 356.017 847.701 344.418C847.701 332.545 850.535 323.229 856.294 316.287C862.052 309.255 869.822 305.693 879.602 305.693C889.474 305.693 897.152 309.255 902.728 316.287C908.487 323.32 911.32 332.728 911.32 344.418C911.32 356.017 908.578 365.333 902.911 372.549Z" fill="#FCF7F2"/>
<path opacity="0.4" d="M784.174 255.551C779.147 252.994 769.184 250.619 754.467 248.336C748.617 247.422 744.047 246.509 740.939 245.778C737.74 244.956 734.723 243.586 731.981 241.577C729.33 239.568 727.959 237.01 727.959 233.814C727.959 229.521 730.062 226.233 734.358 223.858C740.299 227.146 747.155 228.882 754.741 228.882C765.253 228.882 774.028 225.868 781.066 219.748C788.287 213.538 791.852 205.409 791.852 195.454C791.852 188.786 790.024 182.667 786.459 176.913L799.805 165.77L792.584 156.82L779.055 168.602C772.291 163.304 764.065 160.656 754.559 160.656C743.955 160.656 734.998 163.944 727.777 170.428C720.555 176.822 716.991 184.95 716.991 194.723C716.991 203.217 719.824 210.706 725.4 217.008C718.362 221.758 714.797 228.06 714.797 235.732C714.797 244.408 719.093 250.619 727.594 254.455L711.598 267.972C711.323 269.525 711.232 270.986 711.232 272.356C711.232 282.038 715.071 289.527 722.841 294.642C730.519 299.939 741.305 302.588 755.198 302.588C768.087 302.588 778.324 300.304 785.911 295.646C793.498 291.171 797.245 284.412 797.245 275.553C797.154 266.511 792.766 259.844 784.174 255.551ZM737.283 178.466C741.762 174.173 747.612 172.072 754.65 172.072C761.688 172.072 767.355 174.173 771.652 178.466C775.948 182.758 778.05 188.238 778.05 194.997C778.05 201.664 775.948 207.053 771.652 211.346C767.355 215.456 761.688 217.556 754.467 217.556C747.246 217.556 741.488 215.456 737.1 211.163C732.713 206.87 730.519 201.482 730.519 194.997C730.519 188.238 732.712 182.667 737.283 178.466ZM755.655 291.08C734.998 291.08 724.76 284.96 724.76 272.722C724.76 272.174 724.852 271.626 724.943 270.895L738.288 257.926C742.127 258.839 746.515 259.661 751.451 260.3C751.999 260.392 752.822 260.574 753.827 260.666C759.312 261.488 763.151 262.127 765.436 262.675C767.721 263.223 770.555 264.045 774.028 265.232C777.502 266.42 779.878 267.972 781.249 269.799C782.712 271.626 783.443 273.909 783.443 276.558C783.352 286.33 774.12 291.08 755.655 291.08Z" fill="#FCF7F2"/>
<path opacity="0.4" d="M409.683 327.338C431.072 327.338 441.766 340.582 441.766 366.977V427.166H427.964V370.356C427.964 359.762 426.227 351.907 422.754 347.066C419.28 342.043 413.796 339.486 406.392 339.486C397.068 339.486 389.847 343.23 384.637 350.628C379.61 357.935 377.05 368.347 377.05 381.956V427.257H363.248V288.248H377.05V343.23C380.25 338.207 384.729 334.28 390.396 331.448C396.246 328.8 402.644 327.338 409.683 327.338Z" fill="#FCF7F2"/>
<path opacity="0.4" d="M127.329 425.339V286.421H141.131V379.124L190.216 327.064H208.772L173.032 363.963L214.348 425.339H197.986L163.617 372.548L141.131 396.478V425.339H127.329Z" fill="#FCF7F2"/>
<path opacity="0.4" d="M324.035 488.999C316.357 479.866 305.662 475.208 292.134 475.208C278.149 475.208 267.363 480.231 259.594 490.186V477.034H245.791V615.952H259.594V562.157C267.272 572.021 278.149 576.953 292.134 576.953C306.119 576.953 316.905 572.295 324.492 562.979C332.079 553.572 335.827 541.242 335.827 526.08C335.827 510.462 331.896 498.132 324.035 488.999ZM313.706 554.211C308.222 561.244 300.361 564.806 290.123 564.806C279.977 564.806 272.208 561.244 266.541 554.211C261.056 546.996 258.405 537.68 258.405 526.08C258.405 514.39 261.239 504.982 266.815 497.95C272.573 490.917 280.343 487.355 290.123 487.355C299.995 487.355 307.765 490.917 313.432 497.95C319.191 504.891 322.024 514.207 322.024 526.08C322.024 537.588 319.282 546.996 313.706 554.211Z" fill="#FCF7F2"/>
<path opacity="0.4" d="M611.325 121.656V134.808C603.647 124.853 592.77 119.83 578.784 119.83C565.256 119.83 554.47 124.396 546.701 133.621C539.023 142.754 535.092 155.176 535.092 170.702C535.092 185.864 538.84 198.194 546.427 207.601C554.013 216.917 564.799 221.575 578.784 221.575C592.77 221.575 603.556 216.643 611.325 206.779V260.574H625.127V121.656H611.325ZM604.104 198.833C598.62 205.866 590.85 209.428 580.795 209.428C570.558 209.428 562.606 205.866 557.03 198.833C551.545 191.618 548.895 182.302 548.895 170.702C548.895 158.829 551.728 149.513 557.487 142.572C563.245 135.539 571.015 131.977 580.795 131.977C590.667 131.977 598.345 135.539 603.921 142.572C609.68 149.604 612.513 159.012 612.513 170.702C612.513 182.302 609.68 191.618 604.104 198.833Z" fill="#FCF7F2"/>
<path opacity="0.4" d="M21.1148 174.72L37.4766 132.798L-4.20471 35.7111H10.9687L44.8805 116.724L74.5875 35.7111H89.7609L35.9226 174.72H21.1148Z" fill="#FCF7F2"/>
<path opacity="0.4" d="M726.68 501.329C719.916 494.57 710.318 491.191 697.978 491.191C681.616 491.191 668.271 497.858 657.851 511.284L667.814 519.687C675.766 508.818 685.73 503.338 697.704 503.338C705.93 503.338 712.238 505.621 716.625 510.097C721.013 514.572 723.206 521.239 723.206 529.825V534.391H703.097C685.273 534.391 672.75 536.492 665.62 540.602C658.216 545.077 654.469 552.475 654.469 562.522C654.469 571.929 657.485 579.327 663.427 584.625C669.368 589.922 677.686 592.571 688.38 592.571C703.92 592.571 715.711 586.999 723.663 575.857L724.486 591.018H737.1V529.825C737.009 517.586 733.535 508.087 726.68 501.329ZM723.298 546.995C723.298 557.499 720.464 565.901 714.888 572.112C709.312 578.231 701.817 581.245 692.311 581.245C684.998 581.245 679.148 579.693 674.761 576.496C670.373 573.208 668.18 568.824 668.18 563.344C668.18 557.59 670.008 553.389 673.573 550.557C677.869 547.269 688.106 545.534 704.285 545.534H723.206V546.995H723.298Z" fill="#FCF7F2"/>
<path opacity="0.8" d="M42.3209 389.902C35.5569 383.144 25.9592 379.764 13.6194 379.764C-2.74236 379.764 -16.0877 386.431 -26.508 399.858L-16.5447 408.26C-8.59236 397.392 1.37093 391.912 13.3451 391.912C21.5717 391.912 27.8787 394.195 32.2662 398.67C36.6537 403.146 38.8475 409.813 38.8475 418.398V422.965H18.7381C0.913895 422.965 -11.6088 425.066 -18.7385 429.176C-26.1424 433.651 -29.89 441.049 -29.89 451.096C-29.89 460.503 -26.8736 467.901 -20.9322 473.198C-14.9908 478.496 -6.67282 481.144 4.02171 481.144C19.5608 481.144 31.3522 475.573 39.3045 464.43L40.1272 479.592H52.7412V418.398C52.7412 406.251 49.2678 396.752 42.3209 389.902ZM38.9389 435.569C38.9389 446.072 36.1053 454.475 30.5295 460.686C24.9537 466.805 17.4584 469.819 7.95218 469.819C0.639677 469.819 -5.21033 468.266 -9.59783 465.07C-13.9853 461.782 -16.1791 457.398 -16.1791 451.918C-16.1791 446.164 -14.351 441.962 -10.7861 439.131C-6.49001 435.843 3.74749 434.108 19.9264 434.108H38.8475V435.569H38.9389Z" fill="#FCF7F2"/>
<path opacity="0.4" d="M242.775 129.419C229.064 129.419 218.187 124.578 210.234 114.897C202.282 105.216 198.26 93.251 198.26 79.003C198.26 65.029 202.099 53.0643 209.869 43.109C217.547 32.971 228.516 27.9476 242.592 27.9476C261.513 27.9476 274.767 36.9896 282.537 55.0736L269.283 60.2796C266.998 53.8863 263.524 48.9543 258.68 45.4836C254.018 41.9216 248.625 40.095 242.501 40.095C232.629 40.095 225.134 43.8396 219.923 51.4203C214.713 58.8183 212.154 68.043 212.154 78.9116C212.154 89.7803 214.713 98.9137 219.923 106.22C225.134 113.527 232.72 117.18 242.684 117.18C248.899 117.18 254.292 115.445 258.862 111.974C263.524 108.412 266.815 103.48 268.643 97.1783L281.44 101.928C278.241 110.878 273.305 117.637 266.449 122.295C259.777 127.136 251.824 129.419 242.775 129.419Z" fill="#FCF7F2"/>
<path opacity="0.4" d="M430.341 221.483C416.63 221.483 405.752 216.643 397.8 206.961C389.848 197.28 385.826 185.315 385.826 171.067C385.826 157.093 389.665 145.129 397.434 135.173C405.112 125.035 416.081 120.012 430.158 120.012C449.079 120.012 462.333 129.054 470.102 147.138L456.94 152.344C454.655 145.951 451.181 141.019 446.337 137.548C441.675 133.986 436.282 132.159 430.158 132.159C420.286 132.159 412.791 135.904 407.58 143.485C402.37 150.883 399.811 160.107 399.811 170.976C399.811 181.845 402.37 190.978 407.58 198.285C412.791 205.591 420.377 209.245 430.341 209.245C436.556 209.245 441.949 207.509 446.519 204.039C451.181 200.477 454.472 195.545 456.3 189.243L469.097 193.992C465.898 202.943 460.87 209.701 454.106 214.359C447.342 219.109 439.39 221.483 430.341 221.483Z" fill="#FCF7F2"/>
<path opacity="0.4" d="M502.643 590.197C488.932 590.197 478.055 585.356 470.102 575.675C462.15 565.993 458.128 554.029 458.128 539.781C458.128 525.807 461.967 513.842 469.737 503.887C477.415 493.749 488.384 488.725 502.46 488.725C521.381 488.725 534.635 497.767 542.405 515.851L529.242 521.057C526.957 514.664 523.484 509.732 518.639 506.261C513.977 502.699 508.584 500.873 502.46 500.873C492.588 500.873 485.093 504.617 479.883 512.198C474.673 519.596 472.113 528.821 472.113 539.689C472.113 550.558 474.673 559.691 479.883 566.998C485.093 574.305 492.68 577.958 502.643 577.958C508.859 577.958 514.251 576.223 518.822 572.752C523.483 569.19 526.774 564.258 528.602 557.956L541.399 562.705C538.2 571.656 533.173 578.415 526.409 583.073C519.644 587.913 511.692 590.197 502.643 590.197Z" fill="#FCF7F2"/>
<path opacity="0.8" d="M601.362 425.614C601.362 417.759 599.99 410.544 597.157 403.876C594.323 397.118 589.662 391.363 582.989 386.705C576.316 382.047 568.181 379.764 558.675 379.764C544.964 379.764 534.269 384.696 526.591 394.56C518.913 404.242 514.983 416.389 514.983 431.002C514.983 445.616 518.913 457.672 526.774 467.079C534.726 476.486 545.969 481.236 560.32 481.236C575.219 481.236 587.925 475.756 598.437 464.704L588.839 456.302C581.161 464.522 571.655 468.631 560.503 468.631C550.814 468.631 543.044 465.618 537.377 459.498C531.801 453.379 528.968 444.976 528.785 434.199H600.813C601.179 431.824 601.362 428.902 601.362 425.614ZM588.199 422.6H528.694C529.333 413.558 532.35 406.159 537.651 400.314C542.953 394.377 549.991 391.364 558.583 391.364C567.358 391.364 574.305 394.012 579.333 399.31C584.543 404.516 587.376 411.183 587.925 419.403C587.925 420.042 588.016 420.773 588.108 421.412V422.6H588.199Z" fill="#FCF7F2"/>
<path opacity="0.4" d="M1123.66 436.939C1123.66 429.084 1122.29 421.869 1119.45 415.202C1116.62 408.443 1111.96 402.689 1105.28 398.031C1098.61 393.373 1090.48 391.09 1080.97 391.09C1067.26 391.09 1056.56 396.022 1048.89 405.886C1041.21 415.567 1037.28 427.714 1037.28 442.328C1037.28 456.941 1041.21 468.997 1049.07 478.404C1057.02 487.812 1068.26 492.561 1082.62 492.561C1097.51 492.561 1110.22 487.081 1120.73 476.03L1111.13 467.627C1103.46 475.847 1093.95 479.957 1082.8 479.957C1073.11 479.957 1065.34 476.943 1059.67 470.824C1054.1 464.704 1051.26 456.302 1051.08 445.524H1123.11C1123.38 443.15 1123.66 440.318 1123.66 436.939ZM1110.4 434.016H1050.9C1051.54 424.974 1054.55 417.576 1059.86 411.731C1065.16 405.794 1072.2 402.78 1080.79 402.78C1089.56 402.78 1096.51 405.429 1101.54 410.726C1106.75 415.932 1109.58 422.6 1110.13 430.82C1110.13 431.459 1110.22 432.19 1110.31 432.829V434.016H1110.4Z" fill="#FCF7F2"/>
<path opacity="0.4" d="M697.155 323.959C688.38 314.369 677.046 309.62 663.244 309.62C649.259 309.62 637.924 314.369 629.149 323.959C620.466 333.367 616.169 345.514 616.169 360.219C616.169 375.015 620.466 387.162 629.149 396.661C637.924 406.251 649.259 411 663.244 411C677.229 411 688.563 406.251 697.338 396.661C706.113 386.979 710.501 374.832 710.501 360.219C710.501 345.697 706.113 333.549 697.155 323.959ZM687.741 388.167C681.799 395.382 673.573 398.944 663.152 398.944C652.915 398.944 644.78 395.382 638.838 388.167C632.897 380.951 629.88 371.727 629.88 360.219C629.88 348.893 632.805 339.669 638.655 332.545C644.597 325.329 652.823 321.767 663.152 321.767C673.39 321.767 681.525 325.329 687.466 332.545C693.591 339.577 696.607 348.802 696.607 360.219C696.79 371.544 693.773 380.86 687.741 388.167Z" fill="#FCF7F2"/>
<path opacity="0.4" d="M125.592 220.57C115.903 220.57 107.402 218.286 100.09 213.628C92.7771 208.97 87.8412 202.76 85.2818 194.905L96.8904 189.699C98.9013 195.179 102.283 199.654 107.036 203.216C111.972 206.687 118.097 208.422 125.409 208.422C132.082 208.422 137.383 206.87 141.405 203.856C145.427 200.842 147.347 196.64 147.347 191.526C147.347 186.776 145.336 183.032 141.405 180.383C137.566 177.734 132.813 175.816 127.237 174.629C121.753 173.259 116.269 171.889 110.693 170.428C105.208 168.875 100.547 166.135 96.5248 162.299C92.6857 158.463 90.7662 153.348 90.7662 146.955C90.7662 138.461 93.874 131.702 100.181 126.862C106.397 121.838 114.532 119.281 124.495 119.281C141.405 119.281 153.197 126.131 159.778 139.831L148.809 145.768C143.599 136.178 135.372 131.428 124.038 131.428C117.914 131.428 113.069 132.616 109.504 134.99C105.94 137.365 104.111 140.744 104.111 144.946C104.111 149.147 106.031 152.618 109.87 155.084C113.892 157.458 118.554 159.376 124.038 160.655C129.614 161.842 135.19 163.304 140.765 165.039C146.341 166.774 151.094 169.788 154.933 173.99C158.955 178.282 160.875 183.854 160.875 190.704C160.875 200.294 157.493 207.692 150.729 212.806C144.056 217.921 135.738 220.57 125.592 220.57Z" fill="#FCF7F2"/>
<path opacity="0.4" d="M602.458 -26.03C623.848 -26.03 634.542 -12.7867 634.542 13.6086V73.7973H620.74V17.0793C620.74 6.48464 618.912 -1.37003 615.347 -6.2107C611.873 -11.234 606.48 -13.7914 599.168 -13.7914C589.844 -13.7914 582.623 -9.95536 577.413 -2.19203C572.386 5.38864 569.826 16.0746 569.826 29.866V73.8886H556.024V-24.386H569.826V-10.0467C573.026 -15.07 577.505 -18.9974 583.172 -21.8287C589.022 -24.66 595.329 -26.03 602.458 -26.03Z" fill="#FCF7F2"/>
<path opacity="0.4" d="M295.425 263.314C301.64 263.314 307.308 264.684 312.426 267.516L305.662 278.658C301.001 276.649 296.704 275.644 292.683 275.644C284.822 275.644 278.423 278.476 273.487 284.23C268.734 289.984 266.266 298.021 266.266 308.342V363.142H252.464V264.867H266.266V279.663C272.299 268.703 281.988 263.314 295.425 263.314Z" fill="#FCF7F2"/>
<path opacity="0.4" d="M881.705 161.934C887.92 161.934 893.587 163.304 898.706 166.136L891.942 177.278C887.28 175.269 882.984 174.264 878.962 174.264C871.101 174.264 864.703 177.096 859.767 182.85C855.014 188.604 852.546 196.641 852.546 206.962V261.762H838.744V163.487H852.546V178.283C858.579 167.414 868.268 161.934 881.705 161.934Z" fill="#FCF7F2"/>
<path opacity="0.8" d="M402.827 -38.1772H416.63V60.0974H402.827V45.9408C399.537 51.1468 394.875 55.0741 389.025 57.7227C383.266 60.3714 377.051 61.7414 370.287 61.7414C359.409 61.7414 351.274 58.2708 345.973 51.3294C340.762 44.3881 338.203 34.6154 338.203 22.0114V-38.1772H351.914V18.6321C351.914 28.2221 353.376 35.8027 356.301 41.3741C359.226 46.8541 364.985 49.5027 373.486 49.5027C383.083 49.5027 390.305 45.7581 395.24 38.1774C400.268 30.5967 402.827 20.2761 402.827 7.03275V-38.1772Z" fill="#FCF7F2"/>
<path opacity="0.8" d="M841.76 421.321H855.563V519.687H841.76V505.53C838.47 510.736 833.808 514.663 827.958 517.312C822.199 519.961 815.984 521.331 809.22 521.331C798.342 521.331 790.207 517.86 784.905 510.919C779.695 503.977 777.136 494.205 777.136 481.601V421.412H790.938V478.221C790.938 487.811 792.401 495.392 795.326 500.963C798.251 506.443 804.009 509.092 812.51 509.092C822.108 509.092 829.329 505.347 834.265 497.767C839.292 490.186 841.852 479.865 841.852 466.622V421.321H841.76Z" fill="#FCF7F2"/>
<path opacity="0.4" d="M1074.75 63.6595L1034.63 -34.6151H1049.62L1080.51 46.1235L1111.68 -34.6151H1126.76L1086.55 63.6595H1074.75Z" fill="#FCF7F2"/>
<path opacity="0.4" d="M513.612 351.816L549.534 302.496L513.612 253.45H530.339L558.675 292.997L586.828 253.45H603.555L567.724 302.496L603.829 351.816H586.828L558.675 311.903L530.613 351.816H513.612Z" fill="#FCF7F2"/>
<path opacity="0.4" d="M1063.42 300.212L1099.34 250.984L1063.42 201.938H1080.24L1108.48 241.394L1136.64 201.938H1153.46L1117.53 250.984L1153.64 300.212H1136.64L1108.48 260.3L1080.42 300.212H1063.42Z" fill="#FCF7F2"/>
<path opacity="0.4" d="M779.695 351.633V362.593L715.711 438.217H779.33V449.999H697.521V439.953L762.968 363.415H700.903V351.633H779.695Z" fill="#FCF7F2"/>
<path opacity="0.4" d="M513.246 195.362H485.458V230.708H513.246V195.362Z" fill="#FCF7F2"/>
<path opacity="0.4" d="M478.512 510.645C472.296 510.645 464.435 509.183 454.929 506.169L455.294 486.715C460.596 488.542 465.897 489.455 471.29 489.455C482.168 489.455 487.561 482.971 487.561 470.001V266.146H511.144V471.463C511.144 484.615 508.219 494.479 502.46 500.963C496.701 507.357 488.749 510.645 478.512 510.645Z" fill="#FCF7F2"/>
<path opacity="0.4" d="M712.786 55.6219H684.998V90.9679H712.786V55.6219Z" fill="#FCF7F2"/>
<path opacity="0.4" d="M711.049 126.405H687.101V297.382H711.049V126.405Z" fill="#FCF7F2"/>
<path opacity="0.4" d="M173.58 458.768H157.584V479.135H173.58V458.768Z" fill="#FCF7F2"/>
<path opacity="0.4" d="M153.654 639.973C150.089 639.973 145.519 639.151 140.126 637.416L140.308 626.273C143.325 627.369 146.433 627.826 149.449 627.826C155.665 627.826 158.864 624.081 158.864 616.683V499.411H172.392V617.414C172.392 624.995 170.747 630.657 167.365 634.402C164.074 638.147 159.504 639.973 153.654 639.973Z" fill="#FCF7F2"/>
<path opacity="0.4" d="M180.253 200.203H164.257V220.57H180.253V200.203Z" fill="#FCF7F2"/>
<path opacity="0.4" d="M179.247 240.847H165.445V339.121H179.247V240.847Z" fill="#FCF7F2"/>
</g>
<defs>
<clipPath id="clip0_137:10160">
<rect width="1170" height="548" fill="white"/>
</clipPath>
</defs>
</svg>
