<svg width="437" height="94" viewBox="0 0 437 94" fill="none" xmlns="http://www.w3.org/2000/svg">
<path d="M0.94 15V1.06H3.08V6.86H9.56V1.06H11.7V15H9.56V8.84H3.08V15H0.94ZM27.4284 15H24.9484L20.6684 7.76L17.7284 10.76V15H15.5884V1.06H17.7284V8.08L24.4284 1.06H27.2484L22.1284 6.26L27.4284 15ZM41.2681 7.58H46.5681V15H45.0081L44.7281 13.36C44.3281 13.9733 43.7548 14.4467 43.0081 14.78C42.2615 15.1 41.4081 15.26 40.4481 15.26C38.4748 15.26 36.8681 14.5933 35.6281 13.26C34.4015 11.9133 33.7881 10.16 33.7881 8C33.7881 5.88 34.3815 4.14667 35.5681 2.8C36.7681 1.45333 38.4015 0.779999 40.4681 0.779999C41.9081 0.779999 43.1415 1.12667 44.1681 1.82C45.2081 2.51333 45.9748 3.5 46.4681 4.78L44.5081 5.54C43.8415 3.72667 42.4881 2.82 40.4481 2.82C39.0081 2.82 37.8948 3.27333 37.1081 4.18C36.3215 5.08667 35.9281 6.34667 35.9281 7.96C35.9281 9.6 36.3281 10.8867 37.1281 11.82C37.9415 12.7533 39.0948 13.22 40.5881 13.22C41.7748 13.22 42.7148 12.9267 43.4081 12.34C44.1148 11.7533 44.4681 10.8933 44.4681 9.76V9.5H41.2681V7.58ZM54.3439 4.96C54.9972 4.96 55.6039 5.12667 56.1639 5.46L55.1639 7.26C54.7772 7.03333 54.3706 6.92 53.9439 6.92C53.1972 6.92 52.6172 7.16667 52.2039 7.66C51.8039 8.15333 51.6039 8.88667 51.6039 9.86V15H49.5439V5.14H51.6239V6.76C51.8639 6.17333 52.2306 5.72667 52.7239 5.42C53.2306 5.11333 53.7706 4.96 54.3439 4.96ZM64.5444 13.7C63.651 14.6867 62.4777 15.18 61.0244 15.18C59.571 15.18 58.391 14.6933 57.4844 13.72C56.591 12.7333 56.1444 11.5133 56.1444 10.06C56.1444 8.60667 56.591 7.39333 57.4844 6.42C58.391 5.44667 59.571 4.96 61.0244 4.96C62.4777 4.96 63.651 5.44667 64.5444 6.42C65.4377 7.39333 65.8844 8.60667 65.8844 10.06C65.8844 11.5 65.4377 12.7133 64.5444 13.7ZM58.9244 12.44C59.4044 13.0667 60.1044 13.38 61.0244 13.38C61.9444 13.38 62.6377 13.0667 63.1044 12.44C63.5844 11.8133 63.8244 11.02 63.8244 10.06C63.8244 9.1 63.5844 8.31333 63.1044 7.7C62.6244 7.07333 61.931 6.76 61.0244 6.76C60.1044 6.76 59.4044 7.07333 58.9244 7.7C58.4444 8.31333 58.2044 9.1 58.2044 10.06C58.2044 11.02 58.4444 11.8133 58.9244 12.44ZM72.9 13.22L72.92 14.9C72.32 15.0867 71.7533 15.18 71.22 15.18C70.38 15.18 69.7 14.9533 69.18 14.5C68.6733 14.0333 68.42 13.3267 68.42 12.38V6.8H66.8V5.14H68.42V3.02L70.48 1.48V5.14H72.9V6.8H70.48V12.2C70.48 13.0267 70.8933 13.44 71.72 13.44C72.04 13.44 72.4333 13.3667 72.9 13.22ZM83.3108 9.82C83.3108 10.1267 83.2908 10.4267 83.2508 10.72H76.3308C76.3708 11.52 76.6241 12.1533 77.0908 12.62C77.5574 13.0867 78.2041 13.32 79.0308 13.32C80.0574 13.32 80.8974 12.9467 81.5508 12.2L82.9908 13.44C81.9241 14.6 80.5974 15.18 79.0108 15.18C77.4641 15.18 76.2841 14.7 75.4708 13.74C74.6708 12.78 74.2708 11.5733 74.2708 10.12C74.2708 8.68 74.6641 7.46 75.4508 6.46C76.2374 5.46 77.3708 4.96 78.8508 4.96C80.3041 4.96 81.4108 5.42667 82.1708 6.36C82.9308 7.28 83.3108 8.43333 83.3108 9.82ZM76.3308 9.06H81.3308V9.02C81.3041 8.31333 81.0641 7.74667 80.6108 7.32C80.1708 6.89333 79.5841 6.68 78.8508 6.68C78.1041 6.68 77.5174 6.91333 77.0908 7.38C76.6641 7.83333 76.4108 8.39333 76.3308 9.06ZM88.6195 15.18C87.6195 15.18 86.7462 14.9267 85.9995 14.42C85.2529 13.9133 84.7595 13.2667 84.5195 12.48L86.1795 11.74C86.5929 12.8733 87.3795 13.44 88.5395 13.44C89.0995 13.44 89.5395 13.3133 89.8595 13.06C90.1795 12.7933 90.3395 12.4733 90.3395 12.1C90.3395 11.74 90.1595 11.46 89.7995 11.26C89.4395 11.0467 88.9995 10.88 88.4795 10.76C87.9595 10.6267 87.4395 10.48 86.9195 10.32C86.3995 10.1467 85.9595 9.85333 85.5995 9.44C85.2395 9.01333 85.0595 8.46667 85.0595 7.8C85.0595 6.90667 85.3929 6.21333 86.0595 5.72C86.7395 5.21333 87.5862 4.96 88.5995 4.96C90.2929 4.96 91.5129 5.66 92.2595 7.06L90.6595 7.94C90.1795 7.06 89.4662 6.62 88.5195 6.62C88.0662 6.62 87.6995 6.71333 87.4195 6.9C87.1529 7.08667 87.0195 7.33333 87.0195 7.64C87.0195 7.96 87.1995 8.22 87.5595 8.42C87.9329 8.60667 88.3795 8.76667 88.8995 8.9C89.4329 9.03333 89.9595 9.19333 90.4795 9.38C90.9995 9.56667 91.4395 9.88 91.7995 10.32C92.1729 10.7467 92.3595 11.3 92.3595 11.98C92.3595 13.02 91.9929 13.8133 91.2595 14.36C90.5262 14.9067 89.6462 15.18 88.6195 15.18ZM94.6616 15V1.06H96.7216V9.54L100.762 5.14H103.542L99.8816 8.92L104.002 15H101.542L98.4816 10.2L96.7216 12.12V15H94.6616ZM108.492 9.4V8.34H128.692V9.4H108.492ZM143.901 4.28V15H142.141V5.78H136.601V15H134.841V4.28H143.901ZM152.421 4.08C153.741 4.08 154.801 4.54 155.601 5.46C156.414 6.38 156.821 7.76667 156.821 9.62C156.821 11.4467 156.414 12.8333 155.601 13.78C154.801 14.7267 153.734 15.2 152.401 15.2C151.574 15.2 150.888 15.0467 150.341 14.74C149.808 14.42 149.388 14.0533 149.081 13.64H148.961C148.988 13.8667 149.014 14.1533 149.041 14.5C149.068 14.8467 149.081 15.1467 149.081 15.4V19.8H147.321V4.28H148.761L149.001 5.74H149.081C149.401 5.27333 149.821 4.88 150.341 4.56C150.861 4.24 151.554 4.08 152.421 4.08ZM152.101 5.56C151.008 5.56 150.234 5.86667 149.781 6.48C149.341 7.09333 149.108 8.02667 149.081 9.28V9.62C149.081 10.94 149.294 11.96 149.721 12.68C150.161 13.3867 150.968 13.74 152.141 13.74C152.794 13.74 153.328 13.56 153.741 13.2C154.168 12.84 154.481 12.3533 154.681 11.74C154.894 11.1133 155.001 10.4 155.001 9.6C155.001 8.37333 154.761 7.39333 154.281 6.66C153.814 5.92667 153.088 5.56 152.101 5.56ZM168.946 9.62C168.946 11.3933 168.492 12.7667 167.586 13.74C166.692 14.7133 165.479 15.2 163.946 15.2C162.999 15.2 162.152 14.9867 161.406 14.56C160.672 14.12 160.092 13.4867 159.666 12.66C159.239 11.82 159.026 10.8067 159.026 9.62C159.026 7.84667 159.472 6.48 160.366 5.52C161.259 4.56 162.472 4.08 164.006 4.08C164.979 4.08 165.832 4.3 166.566 4.74C167.312 5.16667 167.892 5.79333 168.306 6.62C168.732 7.43333 168.946 8.43333 168.946 9.62ZM160.846 9.62C160.846 10.8867 161.092 11.8933 161.586 12.64C162.092 13.3733 162.892 13.74 163.986 13.74C165.066 13.74 165.859 13.3733 166.366 12.64C166.872 11.8933 167.126 10.8867 167.126 9.62C167.126 8.35333 166.872 7.36 166.366 6.64C165.859 5.92 165.059 5.56 163.966 5.56C162.872 5.56 162.079 5.92 161.586 6.64C161.092 7.36 160.846 8.35333 160.846 9.62ZM179.695 4.28V13.52H181.255V18.72H179.555V15H172.095V18.72H170.415V13.52H171.275C172.195 12.2533 172.882 10.8133 173.335 9.2C173.802 7.57333 174.042 5.93333 174.055 4.28H179.695ZM175.615 5.66C175.562 6.56667 175.422 7.50667 175.195 8.48C174.968 9.44 174.675 10.36 174.315 11.24C173.968 12.12 173.562 12.88 173.095 13.52H177.995V5.66H175.615ZM181.676 4.28H183.556L185.876 10.38C186.076 10.9133 186.256 11.4267 186.416 11.92C186.576 12.4 186.696 12.86 186.776 13.3H186.856C186.936 12.9667 187.063 12.5333 187.236 12C187.41 11.4533 187.59 10.9067 187.776 10.36L189.956 4.28H191.856L187.236 16.48C186.863 17.4933 186.376 18.3 185.776 18.9C185.19 19.5 184.376 19.8 183.336 19.8C183.016 19.8 182.736 19.78 182.496 19.74C182.256 19.7133 182.05 19.68 181.876 19.64V18.24C182.023 18.2667 182.196 18.2933 182.396 18.32C182.61 18.3467 182.83 18.36 183.056 18.36C183.67 18.36 184.163 18.1867 184.536 17.84C184.923 17.4933 185.223 17.0333 185.436 16.46L185.996 15.04L181.676 4.28ZM199.892 4.28H201.812L197.232 9.44L202.192 15H200.152L195.312 9.56V15H193.552V4.28H195.312V9.48L199.892 4.28ZM211.538 5.76H208.038V15H206.298V5.76H202.838V4.28H211.538V5.76ZM227.738 6.98C227.738 7.64667 227.538 8.16667 227.138 8.54C226.738 8.91333 226.225 9.16667 225.598 9.3V9.38C226.265 9.47333 226.845 9.71333 227.338 10.1C227.831 10.4733 228.078 11.06 228.078 11.86C228.078 12.7667 227.738 13.52 227.058 14.12C226.391 14.7067 225.285 15 223.738 15H219.118V4.28H223.718C224.478 4.28 225.158 4.36667 225.758 4.54C226.371 4.7 226.851 4.98 227.198 5.38C227.558 5.76667 227.738 6.3 227.738 6.98ZM225.958 7.2C225.958 6.69333 225.771 6.32667 225.398 6.1C225.038 5.86 224.445 5.74 223.618 5.74H220.878V8.68H223.298C225.071 8.68 225.958 8.18667 225.958 7.2ZM226.258 11.86C226.258 11.2467 226.025 10.8067 225.558 10.54C225.091 10.2733 224.405 10.14 223.498 10.14H220.878V13.58H223.538C224.418 13.58 225.091 13.4533 225.558 13.2C226.025 12.9333 226.258 12.4867 226.258 11.86ZM238.601 4.28V13.52H240.161V18.72H238.461V15H231.001V18.72H229.321V13.52H230.181C231.101 12.2533 231.788 10.8133 232.241 9.2C232.708 7.57333 232.948 5.93333 232.961 4.28H238.601ZM234.521 5.66C234.468 6.56667 234.328 7.50667 234.101 8.48C233.875 9.44 233.581 10.36 233.221 11.24C232.875 12.12 232.468 12.88 232.001 13.52H236.901V5.66H234.521ZM251.582 9.62C251.582 11.3933 251.129 12.7667 250.223 13.74C249.329 14.7133 248.116 15.2 246.583 15.2C245.636 15.2 244.789 14.9867 244.043 14.56C243.309 14.12 242.729 13.4867 242.303 12.66C241.876 11.82 241.663 10.8067 241.663 9.62C241.663 7.84667 242.109 6.48 243.003 5.52C243.896 4.56 245.109 4.08 246.643 4.08C247.616 4.08 248.469 4.3 249.203 4.74C249.949 5.16667 250.529 5.79333 250.943 6.62C251.369 7.43333 251.582 8.43333 251.582 9.62ZM243.483 9.62C243.483 10.8867 243.729 11.8933 244.223 12.64C244.729 13.3733 245.529 13.74 246.623 13.74C247.703 13.74 248.496 13.3733 249.003 12.64C249.509 11.8933 249.763 10.8867 249.763 9.62C249.763 8.35333 249.509 7.36 249.003 6.64C248.496 5.92 247.696 5.56 246.603 5.56C245.509 5.56 244.716 5.92 244.223 6.64C243.729 7.36 243.483 8.35333 243.483 9.62ZM256.521 9.52L252.821 4.28H254.821L257.581 8.32L260.321 4.28H262.301L258.601 9.52L262.501 15H260.501L257.581 10.72L254.621 15H252.641L256.521 9.52ZM266.327 4.28V8.74H272.147V4.28H273.907V15H272.147V10.22H266.327V15H264.567V4.28H266.327ZM286.622 9.62C286.622 11.3933 286.168 12.7667 285.262 13.74C284.368 14.7133 283.155 15.2 281.622 15.2C280.675 15.2 279.828 14.9867 279.082 14.56C278.348 14.12 277.768 13.4867 277.342 12.66C276.915 11.82 276.702 10.8067 276.702 9.62C276.702 7.84667 277.148 6.48 278.042 5.52C278.935 4.56 280.148 4.08 281.682 4.08C282.655 4.08 283.508 4.3 284.242 4.74C284.988 5.16667 285.568 5.79333 285.982 6.62C286.408 7.43333 286.622 8.43333 286.622 9.62ZM278.522 9.62C278.522 10.8867 278.768 11.8933 279.262 12.64C279.768 13.3733 280.568 13.74 281.662 13.74C282.742 13.74 283.535 13.3733 284.042 12.64C284.548 11.8933 284.802 10.8867 284.802 9.62C284.802 8.35333 284.548 7.36 284.042 6.64C283.535 5.92 282.735 5.56 281.642 5.56C280.548 5.56 279.755 5.92 279.262 6.64C278.768 7.36 278.522 8.35333 278.522 9.62ZM298.031 6.98C298.031 7.64667 297.831 8.16667 297.431 8.54C297.031 8.91333 296.518 9.16667 295.891 9.3V9.38C296.558 9.47333 297.138 9.71333 297.631 10.1C298.124 10.4733 298.371 11.06 298.371 11.86C298.371 12.7667 298.031 13.52 297.351 14.12C296.684 14.7067 295.578 15 294.031 15H289.411V4.28H294.011C294.771 4.28 295.451 4.36667 296.051 4.54C296.664 4.7 297.144 4.98 297.491 5.38C297.851 5.76667 298.031 6.3 298.031 6.98ZM296.251 7.2C296.251 6.69333 296.064 6.32667 295.691 6.1C295.331 5.86 294.738 5.74 293.911 5.74H291.171V8.68H293.591C295.364 8.68 296.251 8.18667 296.251 7.2ZM296.551 11.86C296.551 11.2467 296.318 10.8067 295.851 10.54C295.384 10.2733 294.698 10.14 293.791 10.14H291.171V13.58H293.831C294.711 13.58 295.384 13.4533 295.851 13.2C296.318 12.9333 296.551 12.4867 296.551 11.86ZM305.074 4.08C305.994 4.08 306.781 4.28 307.434 4.68C308.101 5.08 308.608 5.64667 308.954 6.38C309.314 7.1 309.494 7.94667 309.494 8.92V9.98H302.154C302.181 11.1933 302.488 12.12 303.074 12.76C303.674 13.3867 304.508 13.7 305.574 13.7C306.254 13.7 306.854 13.64 307.374 13.52C307.908 13.3867 308.454 13.2 309.014 12.96V14.5C308.468 14.74 307.928 14.9133 307.394 15.02C306.861 15.14 306.228 15.2 305.494 15.2C304.481 15.2 303.581 14.9933 302.794 14.58C302.021 14.1667 301.414 13.5533 300.974 12.74C300.548 11.9133 300.334 10.9067 300.334 9.72C300.334 8.54667 300.528 7.54 300.914 6.7C301.314 5.86 301.868 5.21333 302.574 4.76C303.294 4.30667 304.128 4.08 305.074 4.08ZM305.054 5.52C304.214 5.52 303.548 5.79333 303.054 6.34C302.574 6.87333 302.288 7.62 302.194 8.58H307.654C307.641 7.67333 307.428 6.94 307.014 6.38C306.601 5.80667 305.948 5.52 305.054 5.52ZM313.983 4.28V8.74H319.803V4.28H321.563V15H319.803V10.22H313.983V15H312.223V4.28H313.983ZM326.618 10.82C326.618 10.98 326.611 11.22 326.598 11.54C326.584 11.86 326.564 12.18 326.538 12.5C326.524 12.82 326.511 13.0733 326.498 13.26L332.238 4.28H334.398V15H332.758V8.68C332.758 8.46667 332.758 8.18667 332.758 7.84C332.771 7.49333 332.784 7.15333 332.798 6.82C332.811 6.47333 332.824 6.21333 332.838 6.04L327.138 15H324.958V4.28H326.618V10.82ZM338.469 15H336.429L339.489 10.5C339.076 10.3933 338.676 10.2267 338.289 10C337.903 9.76 337.589 9.43333 337.349 9.02C337.109 8.59333 336.989 8.06667 336.989 7.44C336.989 6.41333 337.336 5.63333 338.029 5.1C338.723 4.55333 339.643 4.28 340.789 4.28H345.589V15H343.829V10.74H341.229L338.469 15ZM338.689 7.46C338.689 8.07333 338.916 8.53333 339.369 8.84C339.836 9.13333 340.483 9.28 341.309 9.28H343.829V5.74H340.969C340.156 5.74 339.569 5.9 339.209 6.22C338.863 6.54 338.689 6.95333 338.689 7.46ZM360.79 4.28H362.71L358.13 9.44L363.09 15H361.05L356.21 9.56V15H354.45V4.28H356.21V9.48L360.79 4.28ZM373.196 15H371.416V5.74H368.256C368.083 7.99333 367.843 9.81333 367.536 11.2C367.229 12.5733 366.823 13.5733 366.316 14.2C365.809 14.8267 365.169 15.14 364.396 15.14C364.223 15.14 364.049 15.1267 363.876 15.1C363.716 15.0867 363.583 15.0533 363.476 15V13.68C363.556 13.7067 363.643 13.7267 363.736 13.74C363.829 13.7533 363.923 13.76 364.016 13.76C364.736 13.76 365.309 12.9933 365.736 11.46C366.176 9.92667 366.509 7.53333 366.736 4.28H373.196V15ZM380.658 4.1C381.965 4.1 382.932 4.38667 383.558 4.96C384.185 5.53333 384.498 6.44667 384.498 7.7V15H383.218L382.878 13.48H382.798C382.332 14.0667 381.838 14.5 381.318 14.78C380.812 15.06 380.105 15.2 379.198 15.2C378.225 15.2 377.418 14.9467 376.778 14.44C376.138 13.92 375.818 13.1133 375.818 12.02C375.818 10.9533 376.238 10.1333 377.078 9.56C377.918 8.97333 379.212 8.65333 380.958 8.6L382.778 8.54V7.9C382.778 7.00667 382.585 6.38667 382.198 6.04C381.812 5.69333 381.265 5.52 380.558 5.52C379.998 5.52 379.465 5.60667 378.958 5.78C378.452 5.94 377.978 6.12667 377.538 6.34L376.998 5.02C377.465 4.76667 378.018 4.55333 378.658 4.38C379.298 4.19333 379.965 4.1 380.658 4.1ZM381.178 9.82C379.845 9.87333 378.918 10.0867 378.398 10.46C377.892 10.8333 377.638 11.36 377.638 12.04C377.638 12.64 377.818 13.08 378.178 13.36C378.552 13.64 379.025 13.78 379.598 13.78C380.505 13.78 381.258 13.5333 381.858 13.04C382.458 12.5333 382.758 11.76 382.758 10.72V9.76L381.178 9.82ZM392.109 15.2C391.163 15.2 390.316 15.0067 389.569 14.62C388.836 14.2333 388.256 13.6333 387.829 12.82C387.416 12.0067 387.209 10.9667 387.209 9.7C387.209 8.38 387.429 7.30667 387.869 6.48C388.309 5.65333 388.903 5.04667 389.649 4.66C390.409 4.27333 391.269 4.08 392.229 4.08C392.776 4.08 393.303 4.14 393.809 4.26C394.316 4.36667 394.729 4.5 395.049 4.66L394.509 6.12C394.189 6 393.816 5.88667 393.389 5.78C392.963 5.67333 392.563 5.62 392.189 5.62C390.083 5.62 389.029 6.97333 389.029 9.68C389.029 10.9733 389.283 11.9667 389.789 12.66C390.309 13.34 391.076 13.68 392.089 13.68C392.676 13.68 393.189 13.62 393.629 13.5C394.083 13.38 394.496 13.2333 394.869 13.06V14.62C394.509 14.8067 394.109 14.9467 393.669 15.04C393.243 15.1467 392.723 15.2 392.109 15.2ZM401.719 15.2C400.772 15.2 399.925 15.0067 399.179 14.62C398.445 14.2333 397.865 13.6333 397.439 12.82C397.025 12.0067 396.819 10.9667 396.819 9.7C396.819 8.38 397.039 7.30667 397.479 6.48C397.919 5.65333 398.512 5.04667 399.259 4.66C400.019 4.27333 400.879 4.08 401.839 4.08C402.385 4.08 402.912 4.14 403.419 4.26C403.925 4.36667 404.339 4.5 404.659 4.66L404.119 6.12C403.799 6 403.425 5.88667 402.999 5.78C402.572 5.67333 402.172 5.62 401.799 5.62C399.692 5.62 398.639 6.97333 398.639 9.68C398.639 10.9733 398.892 11.9667 399.399 12.66C399.919 13.34 400.685 13.68 401.699 13.68C402.285 13.68 402.799 13.62 403.239 13.5C403.692 13.38 404.105 13.2333 404.479 13.06V14.62C404.119 14.8067 403.719 14.9467 403.279 15.04C402.852 15.1467 402.332 15.2 401.719 15.2ZM408.688 10.82C408.688 10.98 408.681 11.22 408.668 11.54C408.655 11.86 408.635 12.18 408.608 12.5C408.595 12.82 408.581 13.0733 408.568 13.26L414.308 4.28H416.468V15H414.828V8.68C414.828 8.46667 414.828 8.18667 414.828 7.84C414.841 7.49333 414.855 7.15333 414.868 6.82C414.881 6.47333 414.895 6.21333 414.908 6.04L409.208 15H407.028V4.28H408.688V10.82ZM419.9 9.4V8.34H425.24V9.4H419.9ZM2.24 34.18C2.24 35.4067 2.92667 36.02 4.3 36.02C4.96667 36.02 5.57333 35.92 6.12 35.72C6.66667 35.5067 7.22667 35.2267 7.8 34.88V30.28H9.56V41H7.8V36.22C7.2 36.6067 6.60667 36.9133 6.02 37.14C5.44667 37.3533 4.75333 37.46 3.94 37.46C2.84667 37.46 1.99333 37.1733 1.38 36.6C0.78 36.0267 0.48 35.26 0.48 34.3V30.28H2.24V34.18ZM17.1056 30.08C18.0256 30.08 18.8123 30.28 19.4656 30.68C20.1323 31.08 20.639 31.6467 20.9856 32.38C21.3456 33.1 21.5256 33.9467 21.5256 34.92V35.98H14.1856C14.2123 37.1933 14.519 38.12 15.1056 38.76C15.7056 39.3867 16.539 39.7 17.6056 39.7C18.2856 39.7 18.8856 39.64 19.4056 39.52C19.939 39.3867 20.4856 39.2 21.0456 38.96V40.5C20.499 40.74 19.959 40.9133 19.4256 41.02C18.8923 41.14 18.259 41.2 17.5256 41.2C16.5123 41.2 15.6123 40.9933 14.8256 40.58C14.0523 40.1667 13.4456 39.5533 13.0056 38.74C12.579 37.9133 12.3656 36.9067 12.3656 35.72C12.3656 34.5467 12.559 33.54 12.9456 32.7C13.3456 31.86 13.899 31.2133 14.6056 30.76C15.3256 30.3067 16.159 30.08 17.1056 30.08ZM17.0856 31.52C16.2456 31.52 15.579 31.7933 15.0856 32.34C14.6056 32.8733 14.319 33.62 14.2256 34.58H19.6856C19.6723 33.6733 19.459 32.94 19.0456 32.38C18.6323 31.8067 17.979 31.52 17.0856 31.52ZM28.5547 41.2C27.608 41.2 26.7614 41.0067 26.0147 40.62C25.2814 40.2333 24.7014 39.6333 24.2747 38.82C23.8614 38.0067 23.6547 36.9667 23.6547 35.7C23.6547 34.38 23.8747 33.3067 24.3147 32.48C24.7547 31.6533 25.348 31.0467 26.0947 30.66C26.8547 30.2733 27.7147 30.08 28.6747 30.08C29.2214 30.08 29.748 30.14 30.2547 30.26C30.7614 30.3667 31.1747 30.5 31.4947 30.66L30.9547 32.12C30.6347 32 30.2614 31.8867 29.8347 31.78C29.408 31.6733 29.008 31.62 28.6347 31.62C26.528 31.62 25.4747 32.9733 25.4747 35.68C25.4747 36.9733 25.728 37.9667 26.2347 38.66C26.7547 39.34 27.5214 39.68 28.5347 39.68C29.1214 39.68 29.6347 39.62 30.0747 39.5C30.528 39.38 30.9414 39.2333 31.3147 39.06V40.62C30.9547 40.8067 30.5547 40.9467 30.1147 41.04C29.688 41.1467 29.168 41.2 28.5547 41.2ZM40.2041 30.28H42.1241L37.5441 35.44L42.5041 41H40.4641L35.6241 35.56V41H33.8641V30.28H35.6241V35.48L40.2041 30.28ZM46.11 36.82C46.11 36.98 46.1033 37.22 46.09 37.54C46.0767 37.86 46.0567 38.18 46.03 38.5C46.0167 38.82 46.0033 39.0733 45.99 39.26L51.73 30.28H53.89V41H52.25V34.68C52.25 34.4667 52.25 34.1867 52.25 33.84C52.2633 33.4933 52.2767 33.1533 52.29 32.82C52.3033 32.4733 52.3167 32.2133 52.33 32.04L46.63 41H44.45V30.28H46.11V36.82ZM68.8016 30.28V41H67.2216V34.16C67.2216 33.88 67.2282 33.5867 67.2416 33.28C67.2682 32.9733 67.2949 32.6733 67.3216 32.38H67.2616L63.7616 41H62.2816L58.8816 32.38H58.8216C58.8616 32.98 58.8816 33.5933 58.8816 34.22V41H57.3016V30.28H59.6416L63.0216 38.9L66.4616 30.28H68.8016ZM73.8834 36.82C73.8834 36.98 73.8768 37.22 73.8634 37.54C73.8501 37.86 73.8301 38.18 73.8034 38.5C73.7901 38.82 73.7768 39.0733 73.7634 39.26L79.5034 30.28H81.6634V41H80.0234V34.68C80.0234 34.4667 80.0234 34.1867 80.0234 33.84C80.0368 33.4933 80.0501 33.1533 80.0634 32.82C80.0768 32.4733 80.0901 32.2133 80.1034 32.04L74.4034 41H72.2234V30.28H73.8834V36.82ZM97.0838 30.28V31.76H92.3038V41H90.5438V30.28H97.0838ZM104.296 30.08C105.616 30.08 106.676 30.54 107.476 31.46C108.289 32.38 108.696 33.7667 108.696 35.62C108.696 37.4467 108.289 38.8333 107.476 39.78C106.676 40.7267 105.609 41.2 104.276 41.2C103.449 41.2 102.763 41.0467 102.216 40.74C101.683 40.42 101.263 40.0533 100.956 39.64H100.836C100.863 39.8667 100.889 40.1533 100.916 40.5C100.943 40.8467 100.956 41.1467 100.956 41.4V45.8H99.1961V30.28H100.636L100.876 31.74H100.956C101.276 31.2733 101.696 30.88 102.216 30.56C102.736 30.24 103.429 30.08 104.296 30.08ZM103.976 31.56C102.883 31.56 102.109 31.8667 101.656 32.48C101.216 33.0933 100.983 34.0267 100.956 35.28V35.62C100.956 36.94 101.169 37.96 101.596 38.68C102.036 39.3867 102.843 39.74 104.016 39.74C104.669 39.74 105.203 39.56 105.616 39.2C106.043 38.84 106.356 38.3533 106.556 37.74C106.769 37.1133 106.876 36.4 106.876 35.6C106.876 34.3733 106.636 33.3933 106.156 32.66C105.689 31.9267 104.963 31.56 103.976 31.56ZM120.821 35.62C120.821 37.3933 120.367 38.7667 119.461 39.74C118.567 40.7133 117.354 41.2 115.821 41.2C114.874 41.2 114.027 40.9867 113.281 40.56C112.547 40.12 111.967 39.4867 111.541 38.66C111.114 37.82 110.901 36.8067 110.901 35.62C110.901 33.8467 111.347 32.48 112.241 31.52C113.134 30.56 114.347 30.08 115.881 30.08C116.854 30.08 117.707 30.3 118.441 30.74C119.187 31.1667 119.767 31.7933 120.181 32.62C120.607 33.4333 120.821 34.4333 120.821 35.62ZM112.721 35.62C112.721 36.8867 112.967 37.8933 113.461 38.64C113.967 39.3733 114.767 39.74 115.861 39.74C116.941 39.74 117.734 39.3733 118.241 38.64C118.747 37.8933 119.001 36.8867 119.001 35.62C119.001 34.3533 118.747 33.36 118.241 32.64C117.734 31.92 116.934 31.56 115.841 31.56C114.747 31.56 113.954 31.92 113.461 32.64C112.967 33.36 112.721 34.3533 112.721 35.62ZM130.815 31.76H127.315V41H125.575V31.76H122.115V30.28H130.815V31.76ZM136.871 30.08C137.791 30.08 138.578 30.28 139.231 30.68C139.898 31.08 140.405 31.6467 140.751 32.38C141.111 33.1 141.291 33.9467 141.291 34.92V35.98H133.951C133.978 37.1933 134.285 38.12 134.871 38.76C135.471 39.3867 136.305 39.7 137.371 39.7C138.051 39.7 138.651 39.64 139.171 39.52C139.705 39.3867 140.251 39.2 140.811 38.96V40.5C140.265 40.74 139.725 40.9133 139.191 41.02C138.658 41.14 138.025 41.2 137.291 41.2C136.278 41.2 135.378 40.9933 134.591 40.58C133.818 40.1667 133.211 39.5533 132.771 38.74C132.345 37.9133 132.131 36.9067 132.131 35.72C132.131 34.5467 132.325 33.54 132.711 32.7C133.111 31.86 133.665 31.2133 134.371 30.76C135.091 30.3067 135.925 30.08 136.871 30.08ZM136.851 31.52C136.011 31.52 135.345 31.7933 134.851 32.34C134.371 32.8733 134.085 33.62 133.991 34.58H139.451C139.438 33.6733 139.225 32.94 138.811 32.38C138.398 31.8067 137.745 31.52 136.851 31.52ZM148.32 41.2C147.374 41.2 146.527 41.0067 145.78 40.62C145.047 40.2333 144.467 39.6333 144.04 38.82C143.627 38.0067 143.42 36.9667 143.42 35.7C143.42 34.38 143.64 33.3067 144.08 32.48C144.52 31.6533 145.114 31.0467 145.86 30.66C146.62 30.2733 147.48 30.08 148.44 30.08C148.987 30.08 149.514 30.14 150.02 30.26C150.527 30.3667 150.94 30.5 151.26 30.66L150.72 32.12C150.4 32 150.027 31.8867 149.6 31.78C149.174 31.6733 148.774 31.62 148.4 31.62C146.294 31.62 145.24 32.9733 145.24 35.68C145.24 36.9733 145.494 37.9667 146 38.66C146.52 39.34 147.287 39.68 148.3 39.68C148.887 39.68 149.4 39.62 149.84 39.5C150.294 39.38 150.707 39.2333 151.08 39.06V40.62C150.72 40.8067 150.32 40.9467 149.88 41.04C149.454 41.1467 148.934 41.2 148.32 41.2ZM159.97 30.28H161.89L157.31 35.44L162.27 41H160.23L155.39 35.56V41H153.63V30.28H155.39V35.48L159.97 30.28ZM165.976 30.28V34.74H171.796V30.28H173.556V41H171.796V36.22H165.976V41H164.216V30.28H165.976ZM176.95 41V30.28H178.71V34.68H181.49C182.877 34.68 183.903 34.9333 184.57 35.44C185.237 35.9467 185.57 36.7067 185.57 37.72C185.57 38.72 185.243 39.52 184.59 40.12C183.937 40.7067 182.877 41 181.41 41H176.95ZM187.35 41V30.28H189.11V41H187.35ZM181.25 39.58C182.01 39.58 182.63 39.4533 183.11 39.2C183.59 38.9333 183.83 38.4733 183.83 37.82C183.83 37.1667 183.61 36.7267 183.17 36.5C182.73 36.26 182.097 36.14 181.27 36.14H178.71V39.58H181.25ZM204.016 30.28V41H202.436V34.16C202.436 33.88 202.443 33.5867 202.456 33.28C202.483 32.9733 202.51 32.6733 202.536 32.38H202.476L198.976 41H197.496L194.096 32.38H194.036C194.076 32.98 194.096 33.5933 194.096 34.22V41H192.516V30.28H194.856L198.236 38.9L201.676 30.28H204.016ZM209.098 36.82C209.098 36.98 209.092 37.22 209.078 37.54C209.065 37.86 209.045 38.18 209.018 38.5C209.005 38.82 208.992 39.0733 208.978 39.26L214.718 30.28H216.878V41H215.238V34.68C215.238 34.4667 215.238 34.1867 215.238 33.84C215.252 33.4933 215.265 33.1533 215.278 32.82C215.292 32.4733 215.305 32.2133 215.318 32.04L209.618 41H207.438V30.28H209.098V36.82ZM240.299 30.28V41H225.759V30.28H227.519V39.52H232.139V30.28H233.899V39.52H238.539V30.28H240.299ZM248.827 30.08C250.147 30.08 251.207 30.54 252.007 31.46C252.821 32.38 253.227 33.7667 253.227 35.62C253.227 37.4467 252.821 38.8333 252.007 39.78C251.207 40.7267 250.141 41.2 248.807 41.2C247.981 41.2 247.294 41.0467 246.747 40.74C246.214 40.42 245.794 40.0533 245.487 39.64H245.367C245.394 39.8667 245.421 40.1533 245.447 40.5C245.474 40.8467 245.487 41.1467 245.487 41.4V45.8H243.727V30.28H245.167L245.407 31.74H245.487C245.807 31.2733 246.227 30.88 246.747 30.56C247.267 30.24 247.961 30.08 248.827 30.08ZM248.507 31.56C247.414 31.56 246.641 31.8667 246.187 32.48C245.747 33.0933 245.514 34.0267 245.487 35.28V35.62C245.487 36.94 245.701 37.96 246.127 38.68C246.567 39.3867 247.374 39.74 248.547 39.74C249.201 39.74 249.734 39.56 250.147 39.2C250.574 38.84 250.887 38.3533 251.087 37.74C251.301 37.1133 251.407 36.4 251.407 35.6C251.407 34.3733 251.167 33.3933 250.687 32.66C250.221 31.9267 249.494 31.56 248.507 31.56ZM257.692 36.82C257.692 36.98 257.685 37.22 257.672 37.54C257.659 37.86 257.639 38.18 257.612 38.5C257.599 38.82 257.585 39.0733 257.572 39.26L263.312 30.28H265.472V41H263.832V34.68C263.832 34.4667 263.832 34.1867 263.832 33.84C263.845 33.4933 263.859 33.1533 263.872 32.82C263.885 32.4733 263.899 32.2133 263.912 32.04L258.212 41H256.032V30.28H257.692V36.82ZM275.284 30.12C276.35 30.2133 277.277 30.4933 278.064 30.96C278.864 31.4267 279.484 32.0533 279.924 32.84C280.364 33.6267 280.584 34.56 280.584 35.64C280.584 37.2533 280.11 38.54 279.164 39.5C278.23 40.46 276.937 41.0133 275.284 41.16V45.8H273.564V41.16C272.51 41.0667 271.584 40.7933 270.784 40.34C269.984 39.8733 269.364 39.2467 268.924 38.46C268.484 37.66 268.264 36.72 268.264 35.64C268.264 34.0133 268.73 32.72 269.664 31.76C270.61 30.8 271.93 30.2533 273.624 30.12V25.8H275.284V30.12ZM273.624 31.58C272.397 31.7 271.504 32.1067 270.944 32.8C270.384 33.48 270.104 34.4267 270.104 35.64C270.104 36.8533 270.384 37.8067 270.944 38.5C271.517 39.1933 272.41 39.6 273.624 39.72V31.58ZM275.284 39.72C276.484 39.5867 277.364 39.1733 277.924 38.48C278.484 37.7867 278.764 36.84 278.764 35.64C278.764 34.44 278.477 33.5 277.904 32.82C277.344 32.14 276.47 31.7333 275.284 31.6V39.72ZM290.58 31.76H287.08V41H285.34V31.76H281.88V30.28H290.58V31.76ZM296.752 30.1C298.059 30.1 299.026 30.3867 299.652 30.96C300.279 31.5333 300.592 32.4467 300.592 33.7V41H299.312L298.972 39.48H298.892C298.426 40.0667 297.932 40.5 297.412 40.78C296.906 41.06 296.199 41.2 295.292 41.2C294.319 41.2 293.512 40.9467 292.872 40.44C292.232 39.92 291.912 39.1133 291.912 38.02C291.912 36.9533 292.332 36.1333 293.172 35.56C294.012 34.9733 295.306 34.6533 297.052 34.6L298.872 34.54V33.9C298.872 33.0067 298.679 32.3867 298.292 32.04C297.906 31.6933 297.359 31.52 296.652 31.52C296.092 31.52 295.559 31.6067 295.052 31.78C294.546 31.94 294.072 32.1267 293.632 32.34L293.092 31.02C293.559 30.7667 294.112 30.5533 294.752 30.38C295.392 30.1933 296.059 30.1 296.752 30.1ZM297.272 35.82C295.939 35.8733 295.012 36.0867 294.492 36.46C293.986 36.8333 293.732 37.36 293.732 38.04C293.732 38.64 293.912 39.08 294.272 39.36C294.646 39.64 295.119 39.78 295.692 39.78C296.599 39.78 297.352 39.5333 297.952 39.04C298.552 38.5333 298.852 37.76 298.852 36.72V35.76L297.272 35.82ZM315.403 30.28V41H313.823V34.16C313.823 33.88 313.83 33.5867 313.843 33.28C313.87 32.9733 313.896 32.6733 313.923 32.38H313.863L310.363 41H308.883L305.483 32.38H305.423C305.463 32.98 305.483 33.5933 305.483 34.22V41H303.903V30.28H306.243L309.623 38.9L313.063 30.28H315.403ZM320.485 36.82C320.485 36.98 320.478 37.22 320.465 37.54C320.452 37.86 320.432 38.18 320.405 38.5C320.392 38.82 320.378 39.0733 320.365 39.26L326.105 30.28H328.265V41H326.625V34.68C326.625 34.4667 326.625 34.1867 326.625 33.84C326.638 33.4933 326.652 33.1533 326.665 32.82C326.678 32.4733 326.692 32.2133 326.705 32.04L321.005 41H318.825V30.28H320.485V36.82ZM334.43 35.4V34.34H354.63V35.4H334.43ZM368.178 31.76H364.678V41H362.938V31.76H359.478V30.28H368.178V31.76ZM374.35 30.1C375.657 30.1 376.623 30.3867 377.25 30.96C377.877 31.5333 378.19 32.4467 378.19 33.7V41H376.91L376.57 39.48H376.49C376.023 40.0667 375.53 40.5 375.01 40.78C374.503 41.06 373.797 41.2 372.89 41.2C371.917 41.2 371.11 40.9467 370.47 40.44C369.83 39.92 369.51 39.1133 369.51 38.02C369.51 36.9533 369.93 36.1333 370.77 35.56C371.61 34.9733 372.903 34.6533 374.65 34.6L376.47 34.54V33.9C376.47 33.0067 376.277 32.3867 375.89 32.04C375.503 31.6933 374.957 31.52 374.25 31.52C373.69 31.52 373.157 31.6067 372.65 31.78C372.143 31.94 371.67 32.1267 371.23 32.34L370.69 31.02C371.157 30.7667 371.71 30.5533 372.35 30.38C372.99 30.1933 373.657 30.1 374.35 30.1ZM374.87 35.82C373.537 35.8733 372.61 36.0867 372.09 36.46C371.583 36.8333 371.33 37.36 371.33 38.04C371.33 38.64 371.51 39.08 371.87 39.36C372.243 39.64 372.717 39.78 373.29 39.78C374.197 39.78 374.95 39.5333 375.55 39.04C376.15 38.5333 376.45 37.76 376.45 36.72V35.76L374.87 35.82ZM387.841 30.28H389.761L385.181 35.44L390.141 41H388.101L383.261 35.56V41H381.501V30.28H383.261V35.48L387.841 30.28ZM393.747 36.82C393.747 36.98 393.74 37.22 393.727 37.54C393.713 37.86 393.693 38.18 393.667 38.5C393.653 38.82 393.64 39.0733 393.627 39.26L399.367 30.28H401.527V41H399.887V34.68C399.887 34.4667 399.887 34.1867 399.887 33.84C399.9 33.4933 399.913 33.1533 399.927 32.82C399.94 32.4733 399.953 32.2133 399.967 32.04L394.267 41H392.087V30.28H393.747V36.82ZM416.438 30.28V41H414.858V34.16C414.858 33.88 414.865 33.5867 414.878 33.28C414.905 32.9733 414.932 32.6733 414.958 32.38H414.898L411.398 41H409.918L406.518 32.38H406.458C406.498 32.98 406.518 33.5933 406.518 34.22V41H404.938V30.28H407.278L410.658 38.9L414.098 30.28H416.438ZM421.52 36.82C421.52 36.98 421.513 37.22 421.5 37.54C421.487 37.86 421.467 38.18 421.44 38.5C421.427 38.82 421.413 39.0733 421.4 39.26L427.14 30.28H429.3V41H427.66V34.68C427.66 34.4667 427.66 34.1867 427.66 33.84C427.673 33.4933 427.687 33.1533 427.7 32.82C427.713 32.4733 427.727 32.2133 427.74 32.04L422.04 41H419.86V30.28H421.52V36.82ZM432.652 44.1L434.452 38.42H436.232L433.592 44.1H432.652ZM7.04 56.28H8.96L4.38 61.44L9.34 67H7.3L2.46 61.56V67H0.7V56.28H2.46V61.48L7.04 56.28ZM15.3459 56.1C16.6526 56.1 17.6193 56.3867 18.2459 56.96C18.8726 57.5333 19.1859 58.4467 19.1859 59.7V67H17.9059L17.5659 65.48H17.4859C17.0193 66.0667 16.5259 66.5 16.0059 66.78C15.4993 67.06 14.7926 67.2 13.8859 67.2C12.9126 67.2 12.1059 66.9467 11.4659 66.44C10.8259 65.92 10.5059 65.1133 10.5059 64.02C10.5059 62.9533 10.9259 62.1333 11.7659 61.56C12.6059 60.9733 13.8993 60.6533 15.6459 60.6L17.4659 60.54V59.9C17.4659 59.0067 17.2726 58.3867 16.8859 58.04C16.4993 57.6933 15.9526 57.52 15.2459 57.52C14.6859 57.52 14.1526 57.6067 13.6459 57.78C13.1393 57.94 12.6659 58.1267 12.2259 58.34L11.6859 57.02C12.1526 56.7667 12.7059 56.5533 13.3459 56.38C13.9859 56.1933 14.6526 56.1 15.3459 56.1ZM15.8659 61.82C14.5326 61.8733 13.6059 62.0867 13.0859 62.46C12.5793 62.8333 12.3259 63.36 12.3259 64.04C12.3259 64.64 12.5059 65.08 12.8659 65.36C13.2393 65.64 13.7126 65.78 14.2859 65.78C15.1926 65.78 15.9459 65.5333 16.5459 65.04C17.1459 64.5333 17.4459 63.76 17.4459 62.72V61.76L15.8659 61.82ZM28.8369 56.28H30.7569L26.1769 61.44L31.1369 67H29.0969L24.2569 61.56V67H22.4969V56.28H24.2569V61.48L28.8369 56.28ZM47.3516 67L46.2116 63.84H40.6316L39.4716 67H37.1516L42.5916 53.06H44.2516L49.6916 67H47.3516ZM41.3316 61.9H45.5116L43.4316 56.18L41.3316 61.9ZM51.5561 67V53.06H53.6161V61.54L57.6561 57.14H60.4361L56.7761 60.92L60.8961 67H58.4361L55.3761 62.2L53.6161 64.12V67H51.5561ZM69.6122 57.14V58.66L64.3122 65.26H69.6122V67H61.5922V65.6L67.0922 58.88H61.8522V57.14H69.6122ZM71.7881 55.22V53.06H73.9881V55.22H71.7881ZM71.8681 67V57.14H73.9281V67H71.8681ZM83.4448 53.06H85.5048V67H83.4448V65.9C82.7915 66.7533 81.7982 67.18 80.4648 67.18C79.1315 67.18 78.0915 66.7067 77.3448 65.76C76.6115 64.8133 76.2448 63.58 76.2448 62.06C76.2448 60.4867 76.6315 59.24 77.4048 58.32C78.1782 57.4 79.1982 56.94 80.4648 56.94C81.0782 56.94 81.6515 57.06 82.1848 57.3C82.7182 57.5267 83.1382 57.84 83.4448 58.24V53.06ZM80.9248 65.3C81.8182 65.3 82.4915 65.0067 82.9448 64.42C83.4115 63.82 83.6448 63.04 83.6448 62.08C83.6448 61.1067 83.4115 60.32 82.9448 59.72C82.4782 59.1067 81.8115 58.8 80.9448 58.8C80.0915 58.8 79.4382 59.0933 78.9848 59.68C78.5315 60.2533 78.3048 61.0533 78.3048 62.08C78.3048 63.08 78.5248 63.8667 78.9648 64.44C79.4048 65.0133 80.0582 65.3 80.9248 65.3ZM96.8264 61.82C96.8264 62.1267 96.8064 62.4267 96.7664 62.72H89.8464C89.8864 63.52 90.1397 64.1533 90.6064 64.62C91.0731 65.0867 91.7197 65.32 92.5464 65.32C93.5731 65.32 94.4131 64.9467 95.0664 64.2L96.5064 65.44C95.4397 66.6 94.1131 67.18 92.5264 67.18C90.9797 67.18 89.7997 66.7 88.9864 65.74C88.1864 64.78 87.7864 63.5733 87.7864 62.12C87.7864 60.68 88.1797 59.46 88.9664 58.46C89.7531 57.46 90.8864 56.96 92.3664 56.96C93.8197 56.96 94.9264 57.4267 95.6864 58.36C96.4464 59.28 96.8264 60.4333 96.8264 61.82ZM89.8464 61.06H94.8464V61.02C94.8197 60.3133 94.5797 59.7467 94.1264 59.32C93.6864 58.8933 93.0997 58.68 92.3664 58.68C91.6197 58.68 91.0331 58.9133 90.6064 59.38C90.1797 59.8333 89.9264 60.3933 89.8464 61.06ZM104.215 56.96C105.308 56.96 106.142 57.2867 106.715 57.94C107.302 58.5933 107.595 59.5267 107.595 60.74V67H105.535V61.26C105.535 60.5267 105.402 59.9267 105.135 59.46C104.882 58.9933 104.375 58.76 103.615 58.76C103.108 58.76 102.682 58.8733 102.335 59.1C101.988 59.3267 101.735 59.6467 101.575 60.06C101.415 60.4733 101.302 60.9067 101.235 61.36C101.168 61.8 101.135 62.3133 101.135 62.9V67H99.0752V57.14H101.135V58.36C101.815 57.4267 102.842 56.96 104.215 56.96ZM117.542 57.14V58.66L112.242 65.26H117.542V67H109.522V65.6L115.022 58.88H109.782V57.14H117.542ZM131.756 59.58H137.056V67H135.496L135.216 65.36C134.816 65.9733 134.243 66.4467 133.496 66.78C132.75 67.1 131.896 67.26 130.936 67.26C128.963 67.26 127.356 66.5933 126.116 65.26C124.89 63.9133 124.276 62.16 124.276 60C124.276 57.88 124.87 56.1467 126.056 54.8C127.256 53.4533 128.89 52.78 130.956 52.78C132.396 52.78 133.63 53.1267 134.656 53.82C135.696 54.5133 136.463 55.5 136.956 56.78L134.996 57.54C134.33 55.7267 132.976 54.82 130.936 54.82C129.496 54.82 128.383 55.2733 127.596 56.18C126.81 57.0867 126.416 58.3467 126.416 59.96C126.416 61.6 126.816 62.8867 127.616 63.82C128.43 64.7533 129.583 65.22 131.076 65.22C132.263 65.22 133.203 64.9267 133.896 64.34C134.603 63.7533 134.956 62.8933 134.956 61.76V61.5H131.756V59.58ZM144.832 56.96C145.486 56.96 146.092 57.1267 146.652 57.46L145.652 59.26C145.266 59.0333 144.859 58.92 144.432 58.92C143.686 58.92 143.106 59.1667 142.692 59.66C142.292 60.1533 142.092 60.8867 142.092 61.86V67H140.032V57.14H142.112V58.76C142.352 58.1733 142.719 57.7267 143.212 57.42C143.719 57.1133 144.259 56.96 144.832 56.96ZM155.033 65.7C154.139 66.6867 152.966 67.18 151.513 67.18C150.059 67.18 148.879 66.6933 147.973 65.72C147.079 64.7333 146.633 63.5133 146.633 62.06C146.633 60.6067 147.079 59.3933 147.973 58.42C148.879 57.4467 150.059 56.96 151.513 56.96C152.966 56.96 154.139 57.4467 155.033 58.42C155.926 59.3933 156.373 60.6067 156.373 62.06C156.373 63.5 155.926 64.7133 155.033 65.7ZM149.413 64.44C149.893 65.0667 150.593 65.38 151.513 65.38C152.433 65.38 153.126 65.0667 153.593 64.44C154.073 63.8133 154.313 63.02 154.313 62.06C154.313 61.1 154.073 60.3133 153.593 59.7C153.113 59.0733 152.419 58.76 151.513 58.76C150.593 58.76 149.893 59.0733 149.413 59.7C148.933 60.3133 148.693 61.1 148.693 62.06C148.693 63.02 148.933 63.8133 149.413 64.44ZM163.388 65.22L163.408 66.9C162.808 67.0867 162.242 67.18 161.708 67.18C160.868 67.18 160.188 66.9533 159.668 66.5C159.162 66.0333 158.908 65.3267 158.908 64.38V58.8H157.288V57.14H158.908V55.02L160.968 53.48V57.14H163.388V58.8H160.968V64.2C160.968 65.0267 161.382 65.44 162.208 65.44C162.528 65.44 162.922 65.3667 163.388 65.22ZM173.799 61.82C173.799 62.1267 173.779 62.4267 173.739 62.72H166.819C166.859 63.52 167.112 64.1533 167.579 64.62C168.046 65.0867 168.692 65.32 169.519 65.32C170.546 65.32 171.386 64.9467 172.039 64.2L173.479 65.44C172.412 66.6 171.086 67.18 169.499 67.18C167.952 67.18 166.772 66.7 165.959 65.74C165.159 64.78 164.759 63.5733 164.759 62.12C164.759 60.68 165.152 59.46 165.939 58.46C166.726 57.46 167.859 56.96 169.339 56.96C170.792 56.96 171.899 57.4267 172.659 58.36C173.419 59.28 173.799 60.4333 173.799 61.82ZM166.819 61.06H171.819V61.02C171.792 60.3133 171.552 59.7467 171.099 59.32C170.659 58.8933 170.072 58.68 169.339 58.68C168.592 58.68 168.006 58.9133 167.579 59.38C167.152 59.8333 166.899 60.3933 166.819 61.06ZM179.108 67.18C178.108 67.18 177.234 66.9267 176.488 66.42C175.741 65.9133 175.248 65.2667 175.008 64.48L176.668 63.74C177.081 64.8733 177.868 65.44 179.028 65.44C179.588 65.44 180.028 65.3133 180.348 65.06C180.668 64.7933 180.828 64.4733 180.828 64.1C180.828 63.74 180.648 63.46 180.288 63.26C179.928 63.0467 179.488 62.88 178.968 62.76C178.448 62.6267 177.928 62.48 177.408 62.32C176.888 62.1467 176.448 61.8533 176.088 61.44C175.728 61.0133 175.548 60.4667 175.548 59.8C175.548 58.9067 175.881 58.2133 176.548 57.72C177.228 57.2133 178.074 56.96 179.088 56.96C180.781 56.96 182.001 57.66 182.748 59.06L181.148 59.94C180.668 59.06 179.954 58.62 179.008 58.62C178.554 58.62 178.188 58.7133 177.908 58.9C177.641 59.0867 177.508 59.3333 177.508 59.64C177.508 59.96 177.688 60.22 178.048 60.42C178.421 60.6067 178.868 60.7667 179.388 60.9C179.921 61.0333 180.448 61.1933 180.968 61.38C181.488 61.5667 181.928 61.88 182.288 62.32C182.661 62.7467 182.848 63.3 182.848 63.98C182.848 65.02 182.481 65.8133 181.748 66.36C181.014 66.9067 180.134 67.18 179.108 67.18ZM185.15 67V53.06H187.21V61.54L191.25 57.14H194.03L190.37 60.92L194.49 67H192.03L188.97 62.2L187.21 64.12V67H185.15ZM195.947 70.02L197.427 64.4H199.867L197.307 70.02H195.947ZM216.694 65.9C215.814 66.8067 214.514 67.26 212.794 67.26C211.074 67.26 209.774 66.82 208.894 65.94C208.014 65.0467 207.574 63.72 207.574 61.96V53.06H209.714V61.72C209.714 62.96 209.954 63.8467 210.434 64.38C210.914 64.9133 211.7 65.18 212.794 65.18C213.887 65.18 214.674 64.9133 215.154 64.38C215.647 63.8333 215.894 62.94 215.894 61.7V53.06H218.034V61.86C218.034 63.6467 217.587 64.9933 216.694 65.9ZM226.246 56.96C227.34 56.96 228.173 57.2867 228.746 57.94C229.333 58.5933 229.626 59.5267 229.626 60.74V67H227.566V61.26C227.566 60.5267 227.433 59.9267 227.166 59.46C226.913 58.9933 226.406 58.76 225.646 58.76C225.14 58.76 224.713 58.8733 224.366 59.1C224.02 59.3267 223.766 59.6467 223.606 60.06C223.446 60.4733 223.333 60.9067 223.266 61.36C223.2 61.8 223.166 62.3133 223.166 62.9V67H221.106V57.14H223.166V58.36C223.846 57.4267 224.873 56.96 226.246 56.96ZM232.413 55.22V53.06H234.613V55.22H232.413ZM232.493 67V57.14H234.553V67H232.493ZM240.17 67L236.15 57.14H238.41L241.03 64.34L243.67 57.14H245.91L241.89 67H240.17ZM255.459 61.82C255.459 62.1267 255.439 62.4267 255.399 62.72H248.479C248.519 63.52 248.773 64.1533 249.239 64.62C249.706 65.0867 250.353 65.32 251.179 65.32C252.206 65.32 253.046 64.9467 253.699 64.2L255.139 65.44C254.073 66.6 252.746 67.18 251.159 67.18C249.613 67.18 248.433 66.7 247.619 65.74C246.819 64.78 246.419 63.5733 246.419 62.12C246.419 60.68 246.813 59.46 247.599 58.46C248.386 57.46 249.519 56.96 250.999 56.96C252.453 56.96 253.559 57.4267 254.319 58.36C255.079 59.28 255.459 60.4333 255.459 61.82ZM248.479 61.06H253.479V61.02C253.453 60.3133 253.213 59.7467 252.759 59.32C252.319 58.8933 251.733 58.68 250.999 58.68C250.253 58.68 249.666 58.9133 249.239 59.38C248.813 59.8333 248.559 60.3933 248.479 61.06ZM262.508 56.96C263.161 56.96 263.768 57.1267 264.328 57.46L263.328 59.26C262.941 59.0333 262.535 58.92 262.108 58.92C261.361 58.92 260.781 59.1667 260.368 59.66C259.968 60.1533 259.768 60.8867 259.768 61.86V67H257.708V57.14H259.788V58.76C260.028 58.1733 260.395 57.7267 260.888 57.42C261.395 57.1133 261.935 56.96 262.508 56.96ZM268.483 67.18C267.483 67.18 266.609 66.9267 265.863 66.42C265.116 65.9133 264.623 65.2667 264.383 64.48L266.043 63.74C266.456 64.8733 267.243 65.44 268.403 65.44C268.963 65.44 269.403 65.3133 269.723 65.06C270.043 64.7933 270.203 64.4733 270.203 64.1C270.203 63.74 270.023 63.46 269.663 63.26C269.303 63.0467 268.863 62.88 268.343 62.76C267.823 62.6267 267.303 62.48 266.783 62.32C266.263 62.1467 265.823 61.8533 265.463 61.44C265.103 61.0133 264.923 60.4667 264.923 59.8C264.923 58.9067 265.256 58.2133 265.923 57.72C266.603 57.2133 267.449 56.96 268.463 56.96C270.156 56.96 271.376 57.66 272.123 59.06L270.523 59.94C270.043 59.06 269.329 58.62 268.383 58.62C267.929 58.62 267.563 58.7133 267.283 58.9C267.016 59.0867 266.883 59.3333 266.883 59.64C266.883 59.96 267.063 60.22 267.423 60.42C267.796 60.6067 268.243 60.7667 268.763 60.9C269.296 61.0333 269.823 61.1933 270.343 61.38C270.863 61.5667 271.303 61.88 271.663 62.32C272.036 62.7467 272.223 63.3 272.223 63.98C272.223 65.02 271.856 65.8133 271.123 66.36C270.389 66.9067 269.509 67.18 268.483 67.18ZM274.385 70.02L275.865 64.4H278.305L275.745 70.02H274.385ZM289.211 67V55.04H284.711V53.06H295.891V55.04H291.371V67H289.211ZM301.18 56.96C301.833 56.96 302.44 57.1267 303 57.46L302 59.26C301.613 59.0333 301.207 58.92 300.78 58.92C300.033 58.92 299.453 59.1667 299.04 59.66C298.64 60.1533 298.44 60.8867 298.44 61.86V67H296.38V57.14H298.46V58.76C298.7 58.1733 299.067 57.7267 299.56 57.42C300.067 57.1133 300.607 56.96 301.18 56.96ZM308.224 56.96C309.504 56.96 310.511 57.3 311.244 57.98C311.977 58.66 312.344 59.6 312.344 60.8V67H310.464L310.304 65.6C309.624 66.6533 308.564 67.18 307.124 67.18C306.071 67.18 305.224 66.8933 304.584 66.32C303.944 65.7467 303.624 64.9867 303.624 64.04C303.624 62.8933 304.077 62.0933 304.984 61.64C305.651 61.3067 306.651 61.14 307.984 61.14H310.284V60.8C310.284 60.16 310.097 59.66 309.724 59.3C309.364 58.94 308.857 58.76 308.204 58.76C307.097 58.76 306.171 59.2733 305.424 60.3L303.924 59.04C305.057 57.6533 306.491 56.96 308.224 56.96ZM307.504 65.44C308.304 65.44 308.964 65.1867 309.484 64.68C310.017 64.1733 310.284 63.5333 310.284 62.76V62.72H308.224C307.157 62.72 306.457 62.8533 306.124 63.12C305.831 63.32 305.684 63.64 305.684 64.08C305.684 64.4933 305.844 64.8267 306.164 65.08C306.497 65.32 306.944 65.44 307.504 65.44ZM321.57 53.06H323.63V67H321.57V65.9C320.917 66.7533 319.923 67.18 318.59 67.18C317.257 67.18 316.217 66.7067 315.47 65.76C314.737 64.8133 314.37 63.58 314.37 62.06C314.37 60.4867 314.757 59.24 315.53 58.32C316.303 57.4 317.323 56.94 318.59 56.94C319.203 56.94 319.777 57.06 320.31 57.3C320.843 57.5267 321.263 57.84 321.57 58.24V53.06ZM319.05 65.3C319.943 65.3 320.617 65.0067 321.07 64.42C321.537 63.82 321.77 63.04 321.77 62.08C321.77 61.1067 321.537 60.32 321.07 59.72C320.603 59.1067 319.937 58.8 319.07 58.8C318.217 58.8 317.563 59.0933 317.11 59.68C316.657 60.2533 316.43 61.0533 316.43 62.08C316.43 63.08 316.65 63.8667 317.09 64.44C317.53 65.0133 318.183 65.3 319.05 65.3ZM334.951 61.82C334.951 62.1267 334.931 62.4267 334.891 62.72H327.971C328.011 63.52 328.265 64.1533 328.731 64.62C329.198 65.0867 329.845 65.32 330.671 65.32C331.698 65.32 332.538 64.9467 333.191 64.2L334.631 65.44C333.565 66.6 332.238 67.18 330.651 67.18C329.105 67.18 327.925 66.7 327.111 65.74C326.311 64.78 325.911 63.5733 325.911 62.12C325.911 60.68 326.305 59.46 327.091 58.46C327.878 57.46 329.011 56.96 330.491 56.96C331.945 56.96 333.051 57.4267 333.811 58.36C334.571 59.28 334.951 60.4333 334.951 61.82ZM327.971 61.06H332.971V61.02C332.945 60.3133 332.705 59.7467 332.251 59.32C331.811 58.8933 331.225 58.68 330.491 58.68C329.745 58.68 329.158 58.9133 328.731 59.38C328.305 59.8333 328.051 60.3933 327.971 61.06ZM349.159 59.58H354.459V67H352.899L352.619 65.36C352.219 65.9733 351.645 66.4467 350.899 66.78C350.152 67.1 349.299 67.26 348.339 67.26C346.365 67.26 344.759 66.5933 343.519 65.26C342.292 63.9133 341.679 62.16 341.679 60C341.679 57.88 342.272 56.1467 343.459 54.8C344.659 53.4533 346.292 52.78 348.359 52.78C349.799 52.78 351.032 53.1267 352.059 53.82C353.099 54.5133 353.865 55.5 354.359 56.78L352.399 57.54C351.732 55.7267 350.379 54.82 348.339 54.82C346.899 54.82 345.785 55.2733 344.999 56.18C344.212 57.0867 343.819 58.3467 343.819 59.96C343.819 61.6 344.219 62.8867 345.019 63.82C345.832 64.7533 346.985 65.22 348.479 65.22C349.665 65.22 350.605 64.9267 351.299 64.34C352.005 63.7533 352.359 62.8933 352.359 61.76V61.5H349.159V59.58ZM364.955 65.7C364.061 66.6867 362.888 67.18 361.435 67.18C359.981 67.18 358.801 66.6933 357.895 65.72C357.001 64.7333 356.555 63.5133 356.555 62.06C356.555 60.6067 357.001 59.3933 357.895 58.42C358.801 57.4467 359.981 56.96 361.435 56.96C362.888 56.96 364.061 57.4467 364.955 58.42C365.848 59.3933 366.295 60.6067 366.295 62.06C366.295 63.5 365.848 64.7133 364.955 65.7ZM359.335 64.44C359.815 65.0667 360.515 65.38 361.435 65.38C362.355 65.38 363.048 65.0667 363.515 64.44C363.995 63.8133 364.235 63.02 364.235 62.06C364.235 61.1 363.995 60.3133 363.515 59.7C363.035 59.0733 362.341 58.76 361.435 58.76C360.515 58.76 359.815 59.0733 359.335 59.7C358.855 60.3133 358.615 61.1 358.615 62.06C358.615 63.02 358.855 63.8133 359.335 64.44ZM373.31 65.22L373.33 66.9C372.73 67.0867 372.163 67.18 371.63 67.18C370.79 67.18 370.11 66.9533 369.59 66.5C369.083 66.0333 368.83 65.3267 368.83 64.38V58.8H367.21V57.14H368.83V55.02L370.89 53.48V57.14H373.31V58.8H370.89V64.2C370.89 65.0267 371.303 65.44 372.13 65.44C372.45 65.44 372.843 65.3667 373.31 65.22ZM380.426 56.96C381.519 56.96 382.359 57.2867 382.946 57.94C383.533 58.58 383.826 59.5133 383.826 60.74V67H381.766V61.26C381.766 60.4067 381.606 59.78 381.286 59.38C380.979 58.9667 380.493 58.76 379.826 58.76C378.986 58.76 378.366 59.0933 377.966 59.76C377.566 60.4267 377.366 61.46 377.366 62.86V67H375.306V53.06H377.366V58.36C378.033 57.4267 379.053 56.96 380.426 56.96ZM386.612 55.22V53.06H388.812V55.22H386.612ZM386.692 67V57.14H388.752V67H386.692ZM395.649 67.18C394.169 67.18 393.022 66.6867 392.209 65.7C391.396 64.7133 390.989 63.5133 390.989 62.1C390.989 60.6867 391.389 59.48 392.189 58.48C393.002 57.4667 394.149 56.96 395.629 56.96C397.669 56.96 399.062 57.9067 399.809 59.8L397.849 60.56C397.689 60 397.409 59.56 397.009 59.24C396.622 58.92 396.162 58.76 395.629 58.76C394.789 58.76 394.156 59.08 393.729 59.72C393.302 60.36 393.089 61.1533 393.089 62.1C393.089 63.0467 393.296 63.8333 393.709 64.46C394.136 65.0733 394.782 65.38 395.649 65.38C396.169 65.38 396.622 65.22 397.009 64.9C397.409 64.58 397.682 64.1467 397.829 63.6L399.709 64.32C399.376 65.24 398.856 65.9467 398.149 66.44C397.442 66.9333 396.609 67.18 395.649 67.18ZM2.36 88.82C2.36 88.98 2.35333 89.22 2.34 89.54C2.32667 89.86 2.30667 90.18 2.28 90.5C2.26667 90.82 2.25333 91.0733 2.24 91.26L7.98 82.28H10.14V93H8.5V86.68C8.5 86.4667 8.5 86.1867 8.5 85.84C8.51333 85.4933 8.52667 85.1533 8.54 84.82C8.55333 84.4733 8.56667 84.2133 8.58 84.04L2.88 93H0.7V82.28H2.36V88.82ZM25.7603 85.58H31.0603V93H29.5003L29.2203 91.36C28.8203 91.9733 28.247 92.4467 27.5003 92.78C26.7536 93.1 25.9003 93.26 24.9403 93.26C22.967 93.26 21.3603 92.5933 20.1203 91.26C18.8936 89.9133 18.2803 88.16 18.2803 86C18.2803 83.88 18.8736 82.1467 20.0603 80.8C21.2603 79.4533 22.8936 78.78 24.9603 78.78C26.4003 78.78 27.6336 79.1267 28.6603 79.82C29.7003 80.5133 30.467 81.5 30.9603 82.78L29.0003 83.54C28.3336 81.7267 26.9803 80.82 24.9403 80.82C23.5003 80.82 22.387 81.2733 21.6003 82.18C20.8136 83.0867 20.4203 84.3467 20.4203 85.96C20.4203 87.6 20.8203 88.8867 21.6203 89.82C22.4336 90.7533 23.587 91.22 25.0803 91.22C26.267 91.22 27.207 90.9267 27.9003 90.34C28.607 89.7533 28.9603 88.8933 28.9603 87.76V87.5H25.7603V85.58ZM33.9561 81.22V79.06H36.1561V81.22H33.9561ZM34.0361 93V83.14H36.0961V93H34.0361ZM41.2528 93.18C40.5861 93.18 40.0528 92.9733 39.6528 92.56C39.2661 92.1467 39.0728 91.5333 39.0728 90.72V79.06H41.1328V90.58C41.1328 91.1 41.3928 91.36 41.9128 91.36C42.1795 91.36 42.4528 91.3133 42.7328 91.22V92.9C42.2128 93.0867 41.7195 93.18 41.2528 93.18ZM46.7606 93.18C46.094 93.18 45.5606 92.9733 45.1606 92.56C44.774 92.1467 44.5806 91.5333 44.5806 90.72V79.06H46.6406V90.58C46.6406 91.1 46.9006 91.36 47.4206 91.36C47.6873 91.36 47.9606 91.3133 48.2406 91.22V92.9C47.7206 93.0867 47.2273 93.18 46.7606 93.18ZM59.507 93.24C58.147 93.24 56.987 92.8667 56.027 92.12C55.0804 91.3733 54.507 90.38 54.307 89.14L56.447 88.62C56.5404 89.4733 56.8604 90.14 57.407 90.62C57.967 91.1 58.6804 91.34 59.547 91.34C60.3337 91.34 60.9537 91.1533 61.407 90.78C61.8604 90.4067 62.087 89.9 62.087 89.26C62.087 88.6867 61.867 88.2067 61.427 87.82C61.0004 87.4333 60.2337 87.0267 59.127 86.6C57.687 86.0533 56.6737 85.48 56.087 84.88C55.5137 84.2667 55.227 83.4733 55.227 82.5C55.227 81.3933 55.6137 80.5 56.387 79.82C57.1604 79.14 58.1737 78.8 59.427 78.8C61.3337 78.8 62.7204 79.6133 63.587 81.24L61.807 82.34C61.2737 81.2467 60.4604 80.7 59.367 80.7C58.7937 80.7 58.3137 80.8733 57.927 81.22C57.5537 81.5533 57.367 81.96 57.367 82.44C57.367 82.9467 57.5737 83.38 57.987 83.74C58.4137 84.0867 59.1737 84.4667 60.267 84.88C61.7604 85.4533 62.7937 86.0533 63.367 86.68C63.9404 87.2933 64.227 88.0933 64.227 89.08C64.227 90.3467 63.7937 91.36 62.927 92.12C62.0737 92.8667 60.9337 93.24 59.507 93.24ZM70.138 82.96C71.418 82.96 72.4246 83.3 73.158 83.98C73.8913 84.66 74.258 85.6 74.258 86.8V93H72.378L72.218 91.6C71.538 92.6533 70.478 93.18 69.038 93.18C67.9846 93.18 67.138 92.8933 66.498 92.32C65.858 91.7467 65.538 90.9867 65.538 90.04C65.538 88.8933 65.9913 88.0933 66.898 87.64C67.5646 87.3067 68.5646 87.14 69.898 87.14H72.198V86.8C72.198 86.16 72.0113 85.66 71.638 85.3C71.278 84.94 70.7713 84.76 70.118 84.76C69.0113 84.76 68.0846 85.2733 67.338 86.3L65.838 85.04C66.9713 83.6533 68.4046 82.96 70.138 82.96ZM69.418 91.44C70.218 91.44 70.878 91.1867 71.398 90.68C71.9313 90.1733 72.198 89.5333 72.198 88.76V88.72H70.138C69.0713 88.72 68.3713 88.8533 68.038 89.12C67.7446 89.32 67.598 89.64 67.598 90.08C67.598 90.4933 67.758 90.8267 68.078 91.08C68.4113 91.32 68.858 91.44 69.418 91.44ZM82.2034 82.96C83.2968 82.96 84.1301 83.2867 84.7034 83.94C85.2901 84.5933 85.5834 85.5267 85.5834 86.74V93H83.5234V87.26C83.5234 86.5267 83.3901 85.9267 83.1234 85.46C82.8701 84.9933 82.3634 84.76 81.6034 84.76C81.0968 84.76 80.6701 84.8733 80.3234 85.1C79.9768 85.3267 79.7234 85.6467 79.5634 86.06C79.4034 86.4733 79.2901 86.9067 79.2234 87.36C79.1568 87.8 79.1234 88.3133 79.1234 88.9V93H77.0634V83.14H79.1234V84.36C79.8034 83.4267 80.8301 82.96 82.2034 82.96ZM91.5102 93.18C90.5102 93.18 89.6368 92.9267 88.8902 92.42C88.1435 91.9133 87.6502 91.2667 87.4102 90.48L89.0702 89.74C89.4835 90.8733 90.2702 91.44 91.4302 91.44C91.9902 91.44 92.4302 91.3133 92.7502 91.06C93.0702 90.7933 93.2302 90.4733 93.2302 90.1C93.2302 89.74 93.0502 89.46 92.6902 89.26C92.3302 89.0467 91.8902 88.88 91.3702 88.76C90.8502 88.6267 90.3302 88.48 89.8102 88.32C89.2902 88.1467 88.8502 87.8533 88.4902 87.44C88.1302 87.0133 87.9502 86.4667 87.9502 85.8C87.9502 84.9067 88.2835 84.2133 88.9502 83.72C89.6302 83.2133 90.4768 82.96 91.4902 82.96C93.1835 82.96 94.4035 83.66 95.1502 85.06L93.5502 85.94C93.0702 85.06 92.3568 84.62 91.4102 84.62C90.9568 84.62 90.5902 84.7133 90.3102 84.9C90.0435 85.0867 89.9102 85.3333 89.9102 85.64C89.9102 85.96 90.0902 86.22 90.4502 86.42C90.8235 86.6067 91.2702 86.7667 91.7902 86.9C92.3235 87.0333 92.8502 87.1933 93.3702 87.38C93.8902 87.5667 94.3302 87.88 94.6902 88.32C95.0635 88.7467 95.2502 89.3 95.2502 89.98C95.2502 91.02 94.8835 91.8133 94.1502 92.36C93.4168 92.9067 92.5368 93.18 91.5102 93.18ZM98.4922 93V90.8H100.292V93H98.4922Z" fill="#FCF7F2"/>
</svg>
