<svg width="475" height="125" viewBox="0 0 475 125" fill="none" xmlns="http://www.w3.org/2000/svg">
<path d="M9 1.72V3.32H2.74V16H0.94V1.72H9ZM13.922 5.08C14.842 5.08 15.6287 5.28 16.282 5.68C16.9487 6.08 17.4554 6.64667 17.802 7.38C18.162 8.1 18.342 8.94667 18.342 9.92V10.98H11.002C11.0287 12.1933 11.3354 13.12 11.922 13.76C12.522 14.3867 13.3554 14.7 14.422 14.7C15.102 14.7 15.702 14.64 16.222 14.52C16.7554 14.3867 17.302 14.2 17.862 13.96V15.5C17.3154 15.74 16.7754 15.9133 16.242 16.02C15.7087 16.14 15.0754 16.2 14.342 16.2C13.3287 16.2 12.4287 15.9933 11.642 15.58C10.8687 15.1667 10.262 14.5533 9.82203 13.74C9.39536 12.9133 9.18203 11.9067 9.18203 10.72C9.18203 9.54667 9.37536 8.54 9.76203 7.7C10.162 6.86 10.7154 6.21333 11.422 5.76C12.142 5.30667 12.9754 5.08 13.922 5.08ZM13.902 6.52C13.062 6.52 12.3954 6.79333 11.902 7.34C11.422 7.87333 11.1354 8.62 11.042 9.58H16.502C16.4887 8.67333 16.2754 7.94 15.862 7.38C15.4487 6.80667 14.7954 6.52 13.902 6.52ZM30.3911 10.62C30.3911 12.3933 29.9378 13.7667 29.0311 14.74C28.1378 15.7133 26.9244 16.2 25.3911 16.2C24.4444 16.2 23.5978 15.9867 22.8511 15.56C22.1178 15.12 21.5378 14.4867 21.1111 13.66C20.6844 12.82 20.4711 11.8067 20.4711 10.62C20.4711 8.84667 20.9178 7.48 21.8111 6.52C22.7044 5.56 23.9178 5.08 25.4511 5.08C26.4244 5.08 27.2778 5.3 28.0111 5.74C28.7578 6.16667 29.3378 6.79333 29.7511 7.62C30.1778 8.43333 30.3911 9.43333 30.3911 10.62ZM22.2911 10.62C22.2911 11.8867 22.5378 12.8933 23.0311 13.64C23.5378 14.3733 24.3378 14.74 25.4311 14.74C26.5111 14.74 27.3044 14.3733 27.8111 13.64C28.3178 12.8933 28.5711 11.8867 28.5711 10.62C28.5711 9.35333 28.3178 8.36 27.8111 7.64C27.3044 6.92 26.5044 6.56 25.4111 6.56C24.3178 6.56 23.5244 6.92 23.0311 7.64C22.5378 8.36 22.2911 9.35333 22.2911 10.62ZM44.6805 5.28V16H43.1005V9.16C43.1005 8.88 43.1071 8.58667 43.1205 8.28C43.1471 7.97333 43.1738 7.67333 43.2005 7.38H43.1405L39.6405 16H38.1605L34.7605 7.38H34.7005C34.7405 7.98 34.7605 8.59333 34.7605 9.22V16H33.1805V5.28H35.5205L38.9005 13.9L42.3405 5.28H44.6805ZM52.2423 5.08C53.1623 5.08 53.949 5.28 54.6023 5.68C55.269 6.08 55.7757 6.64667 56.1223 7.38C56.4823 8.1 56.6623 8.94667 56.6623 9.92V10.98H49.3223C49.349 12.1933 49.6557 13.12 50.2423 13.76C50.8423 14.3867 51.6757 14.7 52.7423 14.7C53.4223 14.7 54.0223 14.64 54.5423 14.52C55.0757 14.3867 55.6223 14.2 56.1823 13.96V15.5C55.6357 15.74 55.0957 15.9133 54.5623 16.02C54.029 16.14 53.3957 16.2 52.6623 16.2C51.649 16.2 50.749 15.9933 49.9623 15.58C49.189 15.1667 48.5823 14.5533 48.1423 13.74C47.7157 12.9133 47.5023 11.9067 47.5023 10.72C47.5023 9.54667 47.6957 8.54 48.0823 7.7C48.4823 6.86 49.0357 6.21333 49.7423 5.76C50.4623 5.30667 51.2957 5.08 52.2423 5.08ZM52.2223 6.52C51.3823 6.52 50.7157 6.79333 50.2223 7.34C49.7423 7.87333 49.4557 8.62 49.3623 9.58H54.8223C54.809 8.67333 54.5957 7.94 54.1823 7.38C53.769 6.80667 53.1157 6.52 52.2223 6.52ZM66.7914 6.76H63.2914V16H61.5514V6.76H58.0914V5.28H66.7914V6.76ZM74.0031 5.08C75.3231 5.08 76.3831 5.54 77.1831 6.46C77.9965 7.38 78.4031 8.76667 78.4031 10.62C78.4031 12.4467 77.9965 13.8333 77.1831 14.78C76.3831 15.7267 75.3165 16.2 73.9831 16.2C73.1565 16.2 72.4698 16.0467 71.9231 15.74C71.3898 15.42 70.9698 15.0533 70.6631 14.64H70.5431C70.5698 14.8667 70.5965 15.1533 70.6231 15.5C70.6498 15.8467 70.6631 16.1467 70.6631 16.4V20.8H68.9031V5.28H70.3431L70.5831 6.74H70.6631C70.9831 6.27333 71.4031 5.88 71.9231 5.56C72.4431 5.24 73.1365 5.08 74.0031 5.08ZM73.6831 6.56C72.5898 6.56 71.8165 6.86667 71.3631 7.48C70.9231 8.09333 70.6898 9.02667 70.6631 10.28V10.62C70.6631 11.94 70.8765 12.96 71.3031 13.68C71.7431 14.3867 72.5498 14.74 73.7231 14.74C74.3765 14.74 74.9098 14.56 75.3231 14.2C75.7498 13.84 76.0631 13.3533 76.2631 12.74C76.4765 12.1133 76.5831 11.4 76.5831 10.6C76.5831 9.37333 76.3431 8.39333 75.8631 7.66C75.3965 6.92667 74.6698 6.56 73.6831 6.56ZM82.8678 11.82C82.8678 11.98 82.8611 12.22 82.8478 12.54C82.8345 12.86 82.8145 13.18 82.7878 13.5C82.7745 13.82 82.7611 14.0733 82.7478 14.26L88.4878 5.28H90.6478V16H89.0078V9.68C89.0078 9.46667 89.0078 9.18667 89.0078 8.84C89.0211 8.49333 89.0345 8.15333 89.0478 7.82C89.0611 7.47333 89.0745 7.21333 89.0878 7.04L83.3878 16H81.2078V5.28H82.8678V11.82ZM94.7194 16H92.6794L95.7394 11.5C95.326 11.3933 94.926 11.2267 94.5394 11C94.1527 10.76 93.8394 10.4333 93.5994 10.02C93.3594 9.59333 93.2394 9.06667 93.2394 8.44C93.2394 7.41333 93.586 6.63333 94.2794 6.1C94.9727 5.55333 95.8927 5.28 97.0394 5.28H101.839V16H100.079V11.74H97.4794L94.7194 16ZM94.9394 8.46C94.9394 9.07333 95.166 9.53333 95.6194 9.84C96.086 10.1333 96.7327 10.28 97.5594 10.28H100.079V6.74H97.2194C96.406 6.74 95.8194 6.9 95.4594 7.22C95.1127 7.54 94.9394 7.95333 94.9394 8.46ZM105.171 19.1L106.971 13.42H108.751L106.111 19.1H105.171ZM128.802 5.28V16H127.222V9.16C127.222 8.88 127.228 8.58667 127.242 8.28C127.268 7.97333 127.295 7.67333 127.322 7.38H127.262L123.762 16H122.282L118.882 7.38H118.822C118.862 7.98 118.882 8.59333 118.882 9.22V16H117.302V5.28H119.642L123.022 13.9L126.462 5.28H128.802ZM136.363 5.08C137.283 5.08 138.07 5.28 138.723 5.68C139.39 6.08 139.897 6.64667 140.243 7.38C140.603 8.1 140.783 8.94667 140.783 9.92V10.98H133.443C133.47 12.1933 133.777 13.12 134.363 13.76C134.963 14.3867 135.797 14.7 136.863 14.7C137.543 14.7 138.143 14.64 138.663 14.52C139.197 14.3867 139.743 14.2 140.303 13.96V15.5C139.757 15.74 139.217 15.9133 138.683 16.02C138.15 16.14 137.517 16.2 136.783 16.2C135.77 16.2 134.87 15.9933 134.083 15.58C133.31 15.1667 132.703 14.5533 132.263 13.74C131.837 12.9133 131.623 11.9067 131.623 10.72C131.623 9.54667 131.817 8.54 132.203 7.7C132.603 6.86 133.157 6.21333 133.863 5.76C134.583 5.30667 135.417 5.08 136.363 5.08ZM136.343 6.52C135.503 6.52 134.837 6.79333 134.343 7.34C133.863 7.87333 133.577 8.62 133.483 9.58H138.943C138.93 8.67333 138.717 7.94 138.303 7.38C137.89 6.80667 137.237 6.52 136.343 6.52ZM150.913 6.76H147.413V16H145.673V6.76H142.213V5.28H150.913V6.76ZM158.124 5.08C159.444 5.08 160.504 5.54 161.304 6.46C162.118 7.38 162.524 8.76667 162.524 10.62C162.524 12.4467 162.118 13.8333 161.304 14.78C160.504 15.7267 159.438 16.2 158.104 16.2C157.278 16.2 156.591 16.0467 156.044 15.74C155.511 15.42 155.091 15.0533 154.784 14.64H154.664C154.691 14.8667 154.718 15.1533 154.744 15.5C154.771 15.8467 154.784 16.1467 154.784 16.4V20.8H153.024V5.28H154.464L154.704 6.74H154.784C155.104 6.27333 155.524 5.88 156.044 5.56C156.564 5.24 157.258 5.08 158.124 5.08ZM157.804 6.56C156.711 6.56 155.938 6.86667 155.484 7.48C155.044 8.09333 154.811 9.02667 154.784 10.28V10.62C154.784 11.94 154.998 12.96 155.424 13.68C155.864 14.3867 156.671 14.74 157.844 14.74C158.498 14.74 159.031 14.56 159.444 14.2C159.871 13.84 160.184 13.3533 160.384 12.74C160.598 12.1133 160.704 11.4 160.704 10.6C160.704 9.37333 160.464 8.39333 159.984 7.66C159.518 6.92667 158.791 6.56 157.804 6.56ZM166.989 11.82C166.989 11.98 166.982 12.22 166.969 12.54C166.956 12.86 166.936 13.18 166.909 13.5C166.896 13.82 166.882 14.0733 166.869 14.26L172.609 5.28H174.769V16H173.129V9.68C173.129 9.46667 173.129 9.18667 173.129 8.84C173.142 8.49333 173.156 8.15333 173.169 7.82C173.182 7.47333 173.196 7.21333 173.209 7.04L167.509 16H165.329V5.28H166.989V11.82ZM184.52 5.28H186.44L181.86 10.44L186.82 16H184.78L179.94 10.56V16H178.18V5.28H179.94V10.48L184.52 5.28ZM192.826 5.1C194.133 5.1 195.1 5.38667 195.726 5.96C196.353 6.53333 196.666 7.44667 196.666 8.7V16H195.386L195.046 14.48H194.966C194.5 15.0667 194.006 15.5 193.486 15.78C192.98 16.06 192.273 16.2 191.366 16.2C190.393 16.2 189.586 15.9467 188.946 15.44C188.306 14.92 187.986 14.1133 187.986 13.02C187.986 11.9533 188.406 11.1333 189.246 10.56C190.086 9.97333 191.38 9.65333 193.126 9.6L194.946 9.54V8.9C194.946 8.00667 194.753 7.38667 194.366 7.04C193.98 6.69333 193.433 6.52 192.726 6.52C192.166 6.52 191.633 6.60667 191.126 6.78C190.62 6.94 190.146 7.12667 189.706 7.34L189.166 6.02C189.633 5.76667 190.186 5.55333 190.826 5.38C191.466 5.19333 192.133 5.1 192.826 5.1ZM193.346 10.82C192.013 10.8733 191.086 11.0867 190.566 11.46C190.06 11.8333 189.806 12.36 189.806 13.04C189.806 13.64 189.986 14.08 190.346 14.36C190.72 14.64 191.193 14.78 191.766 14.78C192.673 14.78 193.426 14.5333 194.026 14.04C194.626 13.5333 194.926 12.76 194.926 11.72V10.76L193.346 10.82ZM207.106 11.82C207.106 11.98 207.099 12.22 207.086 12.54C207.073 12.86 207.053 13.18 207.026 13.5C207.013 13.82 206.999 14.0733 206.986 14.26L212.726 5.28H214.886V16H213.246V9.68C213.246 9.46667 213.246 9.18667 213.246 8.84C213.259 8.49333 213.273 8.15333 213.286 7.82C213.299 7.47333 213.313 7.21333 213.326 7.04L207.626 16H205.446V5.28H207.106V11.82ZM232.826 5.28V16H231.066V6.78H225.526V16H223.766V5.28H232.826ZM234.567 5.28H236.447L238.767 11.38C238.967 11.9133 239.147 12.4267 239.307 12.92C239.467 13.4 239.587 13.86 239.667 14.3H239.747C239.827 13.9667 239.954 13.5333 240.127 13C240.3 12.4533 240.48 11.9067 240.667 11.36L242.847 5.28H244.747L240.127 17.48C239.754 18.4933 239.267 19.3 238.667 19.9C238.08 20.5 237.267 20.8 236.227 20.8C235.907 20.8 235.627 20.78 235.387 20.74C235.147 20.7133 234.94 20.68 234.767 20.64V19.24C234.914 19.2667 235.087 19.2933 235.287 19.32C235.5 19.3467 235.72 19.36 235.947 19.36C236.56 19.36 237.054 19.1867 237.427 18.84C237.814 18.4933 238.114 18.0333 238.327 17.46L238.887 16.04L234.567 5.28ZM248.202 5.28V9.74H254.022V5.28H255.782V16H254.022V11.22H248.202V16H246.442V5.28H248.202ZM265.517 5.28H267.437L262.857 10.44L267.817 16H265.777L260.937 10.56V16H259.177V5.28H260.937V10.48L265.517 5.28ZM277.163 6.76H273.663V16H271.923V6.76H268.463V5.28H277.163V6.76ZM277.594 5.28H279.474L281.794 11.38C281.994 11.9133 282.174 12.4267 282.334 12.92C282.494 13.4 282.614 13.86 282.694 14.3H282.774C282.854 13.9667 282.981 13.5333 283.154 13C283.328 12.4533 283.508 11.9067 283.694 11.36L285.874 5.28H287.774L283.154 17.48C282.781 18.4933 282.294 19.3 281.694 19.9C281.108 20.5 280.294 20.8 279.254 20.8C278.934 20.8 278.654 20.78 278.414 20.74C278.174 20.7133 277.968 20.68 277.794 20.64V19.24C277.941 19.2667 278.114 19.2933 278.314 19.32C278.528 19.3467 278.748 19.36 278.974 19.36C279.588 19.36 280.081 19.1867 280.454 18.84C280.841 18.4933 281.141 18.0333 281.354 17.46L281.914 16.04L277.594 5.28ZM293.53 5.1C294.836 5.1 295.803 5.38667 296.43 5.96C297.056 6.53333 297.37 7.44667 297.37 8.7V16H296.09L295.75 14.48H295.67C295.203 15.0667 294.71 15.5 294.19 15.78C293.683 16.06 292.976 16.2 292.07 16.2C291.096 16.2 290.29 15.9467 289.65 15.44C289.01 14.92 288.69 14.1133 288.69 13.02C288.69 11.9533 289.11 11.1333 289.95 10.56C290.79 9.97333 292.083 9.65333 293.83 9.6L295.65 9.54V8.9C295.65 8.00667 295.456 7.38667 295.07 7.04C294.683 6.69333 294.136 6.52 293.43 6.52C292.87 6.52 292.336 6.60667 291.83 6.78C291.323 6.94 290.85 7.12667 290.41 7.34L289.87 6.02C290.336 5.76667 290.89 5.55333 291.53 5.38C292.17 5.19333 292.836 5.1 293.53 5.1ZM294.05 10.82C292.716 10.8733 291.79 11.0867 291.27 11.46C290.763 11.8333 290.51 12.36 290.51 13.04C290.51 13.64 290.69 14.08 291.05 14.36C291.423 14.64 291.896 14.78 292.47 14.78C293.376 14.78 294.13 14.5333 294.73 14.04C295.33 13.5333 295.63 12.76 295.63 11.72V10.76L294.05 10.82ZM311.26 19.72H309.54V16H300.68V5.28H302.44V14.52H307.98V5.28H309.74V14.54H311.26V19.72ZM314.977 11.82C314.977 11.98 314.971 12.22 314.957 12.54C314.944 12.86 314.924 13.18 314.897 13.5C314.884 13.82 314.871 14.0733 314.857 14.26L320.597 5.28H322.757V16H321.117V9.68C321.117 9.46667 321.117 9.18667 321.117 8.84C321.131 8.49333 321.144 8.15333 321.157 7.82C321.171 7.47333 321.184 7.21333 321.197 7.04L315.497 16H313.317V5.28H314.977V11.82ZM326.829 16H324.789L327.849 11.5C327.435 11.3933 327.035 11.2267 326.649 11C326.262 10.76 325.949 10.4333 325.709 10.02C325.469 9.59333 325.349 9.06667 325.349 8.44C325.349 7.41333 325.695 6.63333 326.389 6.1C327.082 5.55333 328.002 5.28 329.149 5.28H333.949V16H332.189V11.74H329.589L326.829 16ZM327.049 8.46C327.049 9.07333 327.275 9.53333 327.729 9.84C328.195 10.1333 328.842 10.28 329.669 10.28H332.189V6.74H329.329C328.515 6.74 327.929 6.9 327.569 7.22C327.222 7.54 327.049 7.95333 327.049 8.46ZM357.349 5.28V16H342.809V5.28H344.569V14.52H349.189V5.28H350.949V14.52H355.589V5.28H357.349ZM365.878 5.08C367.198 5.08 368.258 5.54 369.058 6.46C369.871 7.38 370.278 8.76667 370.278 10.62C370.278 12.4467 369.871 13.8333 369.058 14.78C368.258 15.7267 367.191 16.2 365.858 16.2C365.031 16.2 364.345 16.0467 363.798 15.74C363.265 15.42 362.845 15.0533 362.538 14.64H362.418C362.445 14.8667 362.471 15.1533 362.498 15.5C362.525 15.8467 362.538 16.1467 362.538 16.4V20.8H360.778V5.28H362.218L362.458 6.74H362.538C362.858 6.27333 363.278 5.88 363.798 5.56C364.318 5.24 365.011 5.08 365.878 5.08ZM365.558 6.56C364.465 6.56 363.691 6.86667 363.238 7.48C362.798 8.09333 362.565 9.02667 362.538 10.28V10.62C362.538 11.94 362.751 12.96 363.178 13.68C363.618 14.3867 364.425 14.74 365.598 14.74C366.251 14.74 366.785 14.56 367.198 14.2C367.625 13.84 367.938 13.3533 368.138 12.74C368.351 12.1133 368.458 11.4 368.458 10.6C368.458 9.37333 368.218 8.39333 367.738 7.66C367.271 6.92667 366.545 6.56 365.558 6.56ZM374.743 11.82C374.743 11.98 374.736 12.22 374.723 12.54C374.709 12.86 374.689 13.18 374.663 13.5C374.649 13.82 374.636 14.0733 374.623 14.26L380.363 5.28H382.523V16H380.883V9.68C380.883 9.46667 380.883 9.18667 380.883 8.84C380.896 8.49333 380.909 8.15333 380.923 7.82C380.936 7.47333 380.949 7.21333 380.963 7.04L375.263 16H373.083V5.28H374.743V11.82ZM392.334 5.12C393.401 5.21333 394.328 5.49333 395.114 5.96C395.914 6.42667 396.534 7.05333 396.974 7.84C397.414 8.62667 397.634 9.56 397.634 10.64C397.634 12.2533 397.161 13.54 396.214 14.5C395.281 15.46 393.988 16.0133 392.334 16.16V20.8H390.614V16.16C389.561 16.0667 388.634 15.7933 387.834 15.34C387.034 14.8733 386.414 14.2467 385.974 13.46C385.534 12.66 385.314 11.72 385.314 10.64C385.314 9.01333 385.781 7.72 386.714 6.76C387.661 5.8 388.981 5.25333 390.674 5.12V0.799999H392.334V5.12ZM390.674 6.58C389.448 6.7 388.554 7.10667 387.994 7.8C387.434 8.48 387.154 9.42667 387.154 10.64C387.154 11.8533 387.434 12.8067 387.994 13.5C388.568 14.1933 389.461 14.6 390.674 14.72V6.58ZM392.334 14.72C393.534 14.5867 394.414 14.1733 394.974 13.48C395.534 12.7867 395.814 11.84 395.814 10.64C395.814 9.44 395.528 8.5 394.954 7.82C394.394 7.14 393.521 6.73333 392.334 6.6V14.72ZM407.631 6.76H404.131V16H402.391V6.76H398.931V5.28H407.631V6.76ZM413.803 5.1C415.11 5.1 416.076 5.38667 416.703 5.96C417.33 6.53333 417.643 7.44667 417.643 8.7V16H416.363L416.023 14.48H415.943C415.476 15.0667 414.983 15.5 414.463 15.78C413.956 16.06 413.25 16.2 412.343 16.2C411.37 16.2 410.563 15.9467 409.923 15.44C409.283 14.92 408.963 14.1133 408.963 13.02C408.963 11.9533 409.383 11.1333 410.223 10.56C411.063 9.97333 412.356 9.65333 414.103 9.6L415.923 9.54V8.9C415.923 8.00667 415.73 7.38667 415.343 7.04C414.956 6.69333 414.41 6.52 413.703 6.52C413.143 6.52 412.61 6.60667 412.103 6.78C411.596 6.94 411.123 7.12667 410.683 7.34L410.143 6.02C410.61 5.76667 411.163 5.55333 411.803 5.38C412.443 5.19333 413.11 5.1 413.803 5.1ZM414.323 10.82C412.99 10.8733 412.063 11.0867 411.543 11.46C411.036 11.8333 410.783 12.36 410.783 13.04C410.783 13.64 410.963 14.08 411.323 14.36C411.696 14.64 412.17 14.78 412.743 14.78C413.65 14.78 414.403 14.5333 415.003 14.04C415.603 13.5333 415.903 12.76 415.903 11.72V10.76L414.323 10.82ZM425.863 9.56C425.863 7.21333 426.216 5.38667 426.923 4.08C427.629 2.76 428.769 1.93333 430.343 1.6C431.209 1.41333 432.056 1.24667 432.883 1.1C433.709 0.953332 434.483 0.819999 435.203 0.699999L435.503 2.24C435.036 2.30667 434.509 2.39333 433.923 2.5C433.336 2.59333 432.756 2.69333 432.183 2.8C431.609 2.89333 431.116 2.98667 430.703 3.08C429.836 3.26667 429.149 3.72 428.643 4.44C428.136 5.14667 427.849 6.25333 427.783 7.76H427.903C428.089 7.50667 428.343 7.24667 428.663 6.98C428.996 6.71333 429.389 6.48667 429.843 6.3C430.309 6.11333 430.836 6.02 431.423 6.02C432.809 6.02 433.856 6.46667 434.563 7.36C435.269 8.25333 435.623 9.41333 435.623 10.84C435.623 12.0267 435.416 13.02 435.003 13.82C434.589 14.62 434.016 15.22 433.283 15.62C432.549 16.0067 431.696 16.2 430.723 16.2C429.243 16.2 428.063 15.6333 427.183 14.5C426.303 13.3667 425.863 11.72 425.863 9.56ZM430.863 14.74C431.729 14.74 432.429 14.46 432.963 13.9C433.496 13.34 433.763 12.38 433.763 11.02C433.763 9.92667 433.556 9.06667 433.143 8.44C432.743 7.8 432.076 7.48 431.143 7.48C430.556 7.48 430.023 7.61333 429.543 7.88C429.063 8.13333 428.663 8.42667 428.343 8.76C428.023 9.09333 427.796 9.37333 427.663 9.6C427.663 10.2533 427.709 10.8867 427.803 11.5C427.896 12.1133 428.056 12.6667 428.283 13.16C428.523 13.64 428.849 14.0267 429.263 14.32C429.689 14.6 430.223 14.74 430.863 14.74ZM438.395 16V5.28H440.155V9.68H442.935C444.322 9.68 445.349 9.93333 446.015 10.44C446.682 10.9467 447.015 11.7067 447.015 12.72C447.015 13.72 446.689 14.52 446.035 15.12C445.382 15.7067 444.322 16 442.855 16H438.395ZM448.795 16V5.28H450.555V16H448.795ZM442.695 14.58C443.455 14.58 444.075 14.4533 444.555 14.2C445.035 13.9333 445.275 13.4733 445.275 12.82C445.275 12.1667 445.055 11.7267 444.615 11.5C444.175 11.26 443.542 11.14 442.715 11.14H440.155V14.58H442.695ZM462.122 16H460.342V6.74H457.182C457.008 8.99333 456.768 10.8133 456.462 12.2C456.155 13.5733 455.748 14.5733 455.242 15.2C454.735 15.8267 454.095 16.14 453.322 16.14C453.148 16.14 452.975 16.1267 452.802 16.1C452.642 16.0867 452.508 16.0533 452.402 16V14.68C452.482 14.7067 452.568 14.7267 452.662 14.74C452.755 14.7533 452.848 14.76 452.942 14.76C453.662 14.76 454.235 13.9933 454.662 12.46C455.102 10.9267 455.435 8.53333 455.662 5.28H462.122V16ZM467.184 11.82C467.184 11.98 467.178 12.22 467.164 12.54C467.151 12.86 467.131 13.18 467.104 13.5C467.091 13.82 467.078 14.0733 467.064 14.26L472.804 5.28H474.964V16H473.324V9.68C473.324 9.46667 473.324 9.18667 473.324 8.84C473.338 8.49333 473.351 8.15333 473.364 7.82C473.378 7.47333 473.391 7.21333 473.404 7.04L467.704 16H465.524V5.28H467.184V11.82ZM10.02 36.62C10.02 38.3933 9.56667 39.7667 8.66 40.74C7.76667 41.7133 6.55333 42.2 5.02 42.2C4.07333 42.2 3.22667 41.9867 2.48 41.56C1.74667 41.12 1.16667 40.4867 0.74 39.66C0.313333 38.82 0.1 37.8067 0.1 36.62C0.1 34.8467 0.546667 33.48 1.44 32.52C2.33333 31.56 3.54667 31.08 5.08 31.08C6.05333 31.08 6.90667 31.3 7.64 31.74C8.38667 32.1667 8.96667 32.7933 9.38 33.62C9.80667 34.4333 10.02 35.4333 10.02 36.62ZM1.92 36.62C1.92 37.8867 2.16667 38.8933 2.66 39.64C3.16667 40.3733 3.96667 40.74 5.06 40.74C6.14 40.74 6.93333 40.3733 7.44 39.64C7.94667 38.8933 8.2 37.8867 8.2 36.62C8.2 35.3533 7.94667 34.36 7.44 33.64C6.93333 32.92 6.13333 32.56 5.04 32.56C3.94667 32.56 3.15333 32.92 2.66 33.64C2.16667 34.36 1.92 35.3533 1.92 36.62ZM12.2494 35.56C12.2494 33.2133 12.6027 31.3867 13.3094 30.08C14.016 28.76 15.156 27.9333 16.7294 27.6C17.596 27.4133 18.4427 27.2467 19.2694 27.1C20.096 26.9533 20.8694 26.82 21.5894 26.7L21.8894 28.24C21.4227 28.3067 20.896 28.3933 20.3094 28.5C19.7227 28.5933 19.1427 28.6933 18.5694 28.8C17.996 28.8933 17.5027 28.9867 17.0894 29.08C16.2227 29.2667 15.536 29.72 15.0294 30.44C14.5227 31.1467 14.236 32.2533 14.1694 33.76H14.2894C14.476 33.5067 14.7294 33.2467 15.0494 32.98C15.3827 32.7133 15.776 32.4867 16.2294 32.3C16.696 32.1133 17.2227 32.02 17.8094 32.02C19.196 32.02 20.2427 32.4667 20.9494 33.36C21.656 34.2533 22.0094 35.4133 22.0094 36.84C22.0094 38.0267 21.8027 39.02 21.3894 39.82C20.976 40.62 20.4027 41.22 19.6694 41.62C18.936 42.0067 18.0827 42.2 17.1094 42.2C15.6294 42.2 14.4494 41.6333 13.5694 40.5C12.6894 39.3667 12.2494 37.72 12.2494 35.56ZM17.2494 40.74C18.116 40.74 18.816 40.46 19.3494 39.9C19.8827 39.34 20.1494 38.38 20.1494 37.02C20.1494 35.9267 19.9427 35.0667 19.5294 34.44C19.1294 33.8 18.4627 33.48 17.5294 33.48C16.9427 33.48 16.4094 33.6133 15.9294 33.88C15.4494 34.1333 15.0494 34.4267 14.7294 34.76C14.4094 35.0933 14.1827 35.3733 14.0494 35.6C14.0494 36.2533 14.096 36.8867 14.1894 37.5C14.2827 38.1133 14.4427 38.6667 14.6694 39.16C14.9094 39.64 15.236 40.0267 15.6494 40.32C16.076 40.6 16.6094 40.74 17.2494 40.74ZM26.542 31.28V35.74H32.362V31.28H34.122V42H32.362V37.22H26.542V42H24.782V31.28H26.542ZM46.8364 36.62C46.8364 38.3933 46.3831 39.7667 45.4764 40.74C44.5831 41.7133 43.3697 42.2 41.8364 42.2C40.8897 42.2 40.0431 41.9867 39.2964 41.56C38.5631 41.12 37.9831 40.4867 37.5564 39.66C37.1297 38.82 36.9164 37.8067 36.9164 36.62C36.9164 34.8467 37.3631 33.48 38.2564 32.52C39.1497 31.56 40.3631 31.08 41.8964 31.08C42.8697 31.08 43.7231 31.3 44.4564 31.74C45.2031 32.1667 45.7831 32.7933 46.1964 33.62C46.6231 34.4333 46.8364 35.4333 46.8364 36.62ZM38.7364 36.62C38.7364 37.8867 38.9831 38.8933 39.4764 39.64C39.9831 40.3733 40.7831 40.74 41.8764 40.74C42.9564 40.74 43.7497 40.3733 44.2564 39.64C44.7631 38.8933 45.0164 37.8867 45.0164 36.62C45.0164 35.3533 44.7631 34.36 44.2564 33.64C43.7497 32.92 42.9497 32.56 41.8564 32.56C40.7631 32.56 39.9697 32.92 39.4764 33.64C38.9831 34.36 38.7364 35.3533 38.7364 36.62ZM58.2458 33.98C58.2458 34.6467 58.0458 35.1667 57.6458 35.54C57.2458 35.9133 56.7324 36.1667 56.1058 36.3V36.38C56.7724 36.4733 57.3524 36.7133 57.8458 37.1C58.3391 37.4733 58.5858 38.06 58.5858 38.86C58.5858 39.7667 58.2458 40.52 57.5658 41.12C56.8991 41.7067 55.7924 42 54.2458 42H49.6258V31.28H54.2258C54.9858 31.28 55.6658 31.3667 56.2658 31.54C56.8791 31.7 57.3591 31.98 57.7058 32.38C58.0658 32.7667 58.2458 33.3 58.2458 33.98ZM56.4658 34.2C56.4658 33.6933 56.2791 33.3267 55.9058 33.1C55.5458 32.86 54.9524 32.74 54.1258 32.74H51.3858V35.68H53.8058C55.5791 35.68 56.4658 35.1867 56.4658 34.2ZM56.7658 38.86C56.7658 38.2467 56.5324 37.8067 56.0658 37.54C55.5991 37.2733 54.9124 37.14 54.0058 37.14H51.3858V40.58H54.0458C54.9258 40.58 55.5991 40.4533 56.0658 40.2C56.5324 39.9333 56.7658 39.4867 56.7658 38.86ZM69.3092 42H67.5292V32.74H64.3692C64.1959 34.9933 63.9559 36.8133 63.6492 38.2C63.3426 39.5733 62.9359 40.5733 62.4292 41.2C61.9226 41.8267 61.2826 42.14 60.5092 42.14C60.3359 42.14 60.1626 42.1267 59.9892 42.1C59.8292 42.0867 59.6959 42.0533 59.5892 42V40.68C59.6692 40.7067 59.7559 40.7267 59.8492 40.74C59.9426 40.7533 60.0359 40.76 60.1292 40.76C60.8492 40.76 61.4226 39.9933 61.8492 38.46C62.2892 36.9267 62.6226 34.5333 62.8492 31.28H69.3092V42ZM76.8517 31.08C77.7717 31.08 78.5584 31.28 79.2117 31.68C79.8784 32.08 80.3851 32.6467 80.7317 33.38C81.0917 34.1 81.2717 34.9467 81.2717 35.92V36.98H73.9317C73.9584 38.1933 74.2651 39.12 74.8517 39.76C75.4517 40.3867 76.2851 40.7 77.3517 40.7C78.0317 40.7 78.6317 40.64 79.1517 40.52C79.6851 40.3867 80.2317 40.2 80.7917 39.96V41.5C80.2451 41.74 79.7051 41.9133 79.1717 42.02C78.6384 42.14 78.0051 42.2 77.2717 42.2C76.2584 42.2 75.3584 41.9933 74.5717 41.58C73.7984 41.1667 73.1917 40.5533 72.7517 39.74C72.3251 38.9133 72.1117 37.9067 72.1117 36.72C72.1117 35.5467 72.3051 34.54 72.6917 33.7C73.0917 32.86 73.6451 32.2133 74.3517 31.76C75.0717 31.3067 75.9051 31.08 76.8517 31.08ZM76.8317 32.52C75.9917 32.52 75.3251 32.7933 74.8317 33.34C74.3517 33.8733 74.0651 34.62 73.9717 35.58H79.4317C79.4184 34.6733 79.2051 33.94 78.7917 33.38C78.3784 32.8067 77.7251 32.52 76.8317 32.52ZM85.7608 31.28V35.74H91.5808V31.28H93.3408V42H91.5808V37.22H85.7608V42H84.0008V31.28H85.7608ZM96.7352 42V31.28H98.4952V35.68H101.275C102.662 35.68 103.688 35.9333 104.355 36.44C105.022 36.9467 105.355 37.7067 105.355 38.72C105.355 39.72 105.028 40.52 104.375 41.12C103.722 41.7067 102.662 42 101.195 42H96.7352ZM107.135 42V31.28H108.895V42H107.135ZM101.035 40.58C101.795 40.58 102.415 40.4533 102.895 40.2C103.375 39.9333 103.615 39.4733 103.615 38.82C103.615 38.1667 103.395 37.7267 102.955 37.5C102.515 37.26 101.882 37.14 101.055 37.14H98.4952V40.58H101.035ZM125.73 31.28V40.52H127.29V45.72H125.59V42H118.13V45.72H116.45V40.52H117.31C118.23 39.2533 118.917 37.8133 119.37 36.2C119.837 34.5733 120.077 32.9333 120.09 31.28H125.73ZM121.65 32.66C121.597 33.5667 121.457 34.5067 121.23 35.48C121.004 36.44 120.71 37.36 120.35 38.24C120.004 39.12 119.597 39.88 119.13 40.52H124.03V32.66H121.65ZM137.551 42H135.771V32.74H132.611C132.438 34.9933 132.198 36.8133 131.891 38.2C131.585 39.5733 131.178 40.5733 130.671 41.2C130.165 41.8267 129.525 42.14 128.751 42.14C128.578 42.14 128.405 42.1267 128.231 42.1C128.071 42.0867 127.938 42.0533 127.831 42V40.68C127.911 40.7067 127.998 40.7267 128.091 40.74C128.185 40.7533 128.278 40.76 128.371 40.76C129.091 40.76 129.665 39.9933 130.091 38.46C130.531 36.9267 130.865 34.5333 131.091 31.28H137.551V42ZM141.614 42H139.574L142.634 37.5C142.221 37.3933 141.821 37.2267 141.434 37C141.047 36.76 140.734 36.4333 140.494 36.02C140.254 35.5933 140.134 35.0667 140.134 34.44C140.134 33.4133 140.481 32.6333 141.174 32.1C141.867 31.5533 142.787 31.28 143.934 31.28H148.734V42H146.974V37.74H144.374L141.614 42ZM141.834 34.46C141.834 35.0733 142.061 35.5333 142.514 35.84C142.981 36.1333 143.627 36.28 144.454 36.28H146.974V32.74H144.114C143.301 32.74 142.714 32.9 142.354 33.22C142.007 33.54 141.834 33.9533 141.834 34.46ZM166.655 31.28V42H164.895V32.78H159.355V42H157.595V31.28H166.655ZM179.395 36.62C179.395 38.3933 178.942 39.7667 178.035 40.74C177.142 41.7133 175.928 42.2 174.395 42.2C173.448 42.2 172.602 41.9867 171.855 41.56C171.122 41.12 170.542 40.4867 170.115 39.66C169.688 38.82 169.475 37.8067 169.475 36.62C169.475 34.8467 169.922 33.48 170.815 32.52C171.708 31.56 172.922 31.08 174.455 31.08C175.428 31.08 176.282 31.3 177.015 31.74C177.762 32.1667 178.342 32.7933 178.755 33.62C179.182 34.4333 179.395 35.4333 179.395 36.62ZM171.295 36.62C171.295 37.8867 171.542 38.8933 172.035 39.64C172.542 40.3733 173.342 40.74 174.435 40.74C175.515 40.74 176.308 40.3733 176.815 39.64C177.322 38.8933 177.575 37.8867 177.575 36.62C177.575 35.3533 177.322 34.36 176.815 33.64C176.308 32.92 175.508 32.56 174.415 32.56C173.322 32.56 172.528 32.92 172.035 33.64C171.542 34.36 171.295 35.3533 171.295 36.62ZM190.144 31.28V40.52H191.704V45.72H190.004V42H182.544V45.72H180.864V40.52H181.724C182.644 39.2533 183.331 37.8133 183.784 36.2C184.251 34.5733 184.491 32.9333 184.504 31.28H190.144ZM186.064 32.66C186.011 33.5667 185.871 34.5067 185.644 35.48C185.418 36.44 185.124 37.36 184.764 38.24C184.418 39.12 184.011 39.88 183.544 40.52H188.444V32.66H186.064ZM201.765 31.28V40.52H203.325V45.72H201.625V42H194.165V45.72H192.485V40.52H193.345C194.265 39.2533 194.952 37.8133 195.405 36.2C195.872 34.5733 196.112 32.9333 196.125 31.28H201.765ZM197.685 32.66C197.632 33.5667 197.492 34.5067 197.265 35.48C197.039 36.44 196.745 37.36 196.385 38.24C196.039 39.12 195.632 39.88 195.165 40.52H200.065V32.66H197.685ZM209.567 31.08C210.487 31.08 211.273 31.28 211.927 31.68C212.593 32.08 213.1 32.6467 213.447 33.38C213.807 34.1 213.987 34.9467 213.987 35.92V36.98H206.647C206.673 38.1933 206.98 39.12 207.567 39.76C208.167 40.3867 209 40.7 210.067 40.7C210.747 40.7 211.347 40.64 211.867 40.52C212.4 40.3867 212.947 40.2 213.507 39.96V41.5C212.96 41.74 212.42 41.9133 211.887 42.02C211.353 42.14 210.72 42.2 209.987 42.2C208.973 42.2 208.073 41.9933 207.287 41.58C206.513 41.1667 205.907 40.5533 205.467 39.74C205.04 38.9133 204.827 37.9067 204.827 36.72C204.827 35.5467 205.02 34.54 205.407 33.7C205.807 32.86 206.36 32.2133 207.067 31.76C207.787 31.3067 208.62 31.08 209.567 31.08ZM209.547 32.52C208.707 32.52 208.04 32.7933 207.547 33.34C207.067 33.8733 206.78 34.62 206.687 35.58H212.147C212.133 34.6733 211.92 33.94 211.507 33.38C211.093 32.8067 210.44 32.52 209.547 32.52ZM221.816 31.08C223.136 31.08 224.196 31.54 224.996 32.46C225.809 33.38 226.216 34.7667 226.216 36.62C226.216 38.4467 225.809 39.8333 224.996 40.78C224.196 41.7267 223.129 42.2 221.796 42.2C220.969 42.2 220.282 42.0467 219.736 41.74C219.202 41.42 218.782 41.0533 218.476 40.64H218.356C218.382 40.8667 218.409 41.1533 218.436 41.5C218.462 41.8467 218.476 42.1467 218.476 42.4V46.8H216.716V31.28H218.156L218.396 32.74H218.476C218.796 32.2733 219.216 31.88 219.736 31.56C220.256 31.24 220.949 31.08 221.816 31.08ZM221.496 32.56C220.402 32.56 219.629 32.8667 219.176 33.48C218.736 34.0933 218.502 35.0267 218.476 36.28V36.62C218.476 37.94 218.689 38.96 219.116 39.68C219.556 40.3867 220.362 40.74 221.536 40.74C222.189 40.74 222.722 40.56 223.136 40.2C223.562 39.84 223.876 39.3533 224.076 38.74C224.289 38.1133 224.396 37.4 224.396 36.6C224.396 35.3733 224.156 34.3933 223.676 33.66C223.209 32.9267 222.482 32.56 221.496 32.56ZM241.49 31.28L237.07 36.48L241.87 42H239.87L235.23 36.56V42H233.59V36.56L228.95 42H226.95L231.75 36.48L227.33 31.28H229.25L233.59 36.48V31.28H235.23V36.48L239.59 31.28H241.49ZM249.97 31.28H251.89L247.31 36.44L252.27 42H250.23L245.39 36.56V42H243.63V31.28H245.39V36.48L249.97 31.28ZM255.876 37.82C255.876 37.98 255.869 38.22 255.856 38.54C255.842 38.86 255.822 39.18 255.796 39.5C255.782 39.82 255.769 40.0733 255.756 40.26L261.496 31.28H263.656V42H262.016V35.68C262.016 35.4667 262.016 35.1867 262.016 34.84C262.029 34.4933 262.042 34.1533 262.056 33.82C262.069 33.4733 262.082 33.2133 262.096 33.04L256.396 42H254.216V31.28H255.876V37.82ZM287.076 31.28V42H272.536V31.28H274.296V40.52H278.916V31.28H280.676V40.52H285.316V31.28H287.076ZM292.165 37.82C292.165 37.98 292.158 38.22 292.145 38.54C292.131 38.86 292.111 39.18 292.085 39.5C292.071 39.82 292.058 40.0733 292.045 40.26L297.785 31.28H299.945V42H298.305V35.68C298.305 35.4667 298.305 35.1867 298.305 34.84C298.318 34.4933 298.331 34.1533 298.345 33.82C298.358 33.4733 298.371 33.2133 298.385 33.04L292.685 42H290.505V31.28H292.165V37.82ZM308.456 31.08C309.776 31.08 310.836 31.54 311.636 32.46C312.45 33.38 312.856 34.7667 312.856 36.62C312.856 38.4467 312.45 39.8333 311.636 40.78C310.836 41.7267 309.77 42.2 308.436 42.2C307.61 42.2 306.923 42.0467 306.376 41.74C305.843 41.42 305.423 41.0533 305.116 40.64H304.996C305.023 40.8667 305.05 41.1533 305.076 41.5C305.103 41.8467 305.116 42.1467 305.116 42.4V46.8H303.356V31.28H304.796L305.036 32.74H305.116C305.436 32.2733 305.856 31.88 306.376 31.56C306.896 31.24 307.59 31.08 308.456 31.08ZM308.136 32.56C307.043 32.56 306.27 32.8667 305.816 33.48C305.376 34.0933 305.143 35.0267 305.116 36.28V36.62C305.116 37.94 305.33 38.96 305.756 39.68C306.196 40.3867 307.003 40.74 308.176 40.74C308.83 40.74 309.363 40.56 309.776 40.2C310.203 39.84 310.516 39.3533 310.716 38.74C310.93 38.1133 311.036 37.4 311.036 36.6C311.036 35.3733 310.796 34.3933 310.316 33.66C309.85 32.9267 309.123 32.56 308.136 32.56ZM324.981 36.62C324.981 38.3933 324.528 39.7667 323.621 40.74C322.728 41.7133 321.514 42.2 319.981 42.2C319.034 42.2 318.188 41.9867 317.441 41.56C316.708 41.12 316.128 40.4867 315.701 39.66C315.274 38.82 315.061 37.8067 315.061 36.62C315.061 34.8467 315.508 33.48 316.401 32.52C317.294 31.56 318.508 31.08 320.041 31.08C321.014 31.08 321.868 31.3 322.601 31.74C323.348 32.1667 323.928 32.7933 324.341 33.62C324.768 34.4333 324.981 35.4333 324.981 36.62ZM316.881 36.62C316.881 37.8867 317.128 38.8933 317.621 39.64C318.128 40.3733 318.928 40.74 320.021 40.74C321.101 40.74 321.894 40.3733 322.401 39.64C322.908 38.8933 323.161 37.8867 323.161 36.62C323.161 35.3533 322.908 34.36 322.401 33.64C321.894 32.92 321.094 32.56 320.001 32.56C318.908 32.56 318.114 32.92 317.621 33.64C317.128 34.36 316.881 35.3533 316.881 36.62ZM334.11 31.28H336.03L331.45 36.44L336.41 42H334.37L329.53 36.56V42H327.77V31.28H329.53V36.48L334.11 31.28ZM347.286 36.62C347.286 38.3933 346.832 39.7667 345.926 40.74C345.032 41.7133 343.819 42.2 342.286 42.2C341.339 42.2 340.492 41.9867 339.746 41.56C339.012 41.12 338.432 40.4867 338.006 39.66C337.579 38.82 337.366 37.8067 337.366 36.62C337.366 34.8467 337.812 33.48 338.706 32.52C339.599 31.56 340.812 31.08 342.346 31.08C343.319 31.08 344.172 31.3 344.906 31.74C345.652 32.1667 346.232 32.7933 346.646 33.62C347.072 34.4333 347.286 35.4333 347.286 36.62ZM339.186 36.62C339.186 37.8867 339.432 38.8933 339.926 39.64C340.432 40.3733 341.232 40.74 342.326 40.74C343.406 40.74 344.199 40.3733 344.706 39.64C345.212 38.8933 345.466 37.8867 345.466 36.62C345.466 35.3533 345.212 34.36 344.706 33.64C344.199 32.92 343.399 32.56 342.306 32.56C341.212 32.56 340.419 32.92 339.926 33.64C339.432 34.36 339.186 35.3533 339.186 36.62ZM356.615 31.28V32.76H351.835V42H350.075V31.28H356.615ZM367.852 36.62C367.852 38.3933 367.399 39.7667 366.492 40.74C365.599 41.7133 364.385 42.2 362.852 42.2C361.905 42.2 361.059 41.9867 360.312 41.56C359.579 41.12 358.999 40.4867 358.572 39.66C358.145 38.82 357.932 37.8067 357.932 36.62C357.932 34.8467 358.379 33.48 359.272 32.52C360.165 31.56 361.379 31.08 362.912 31.08C363.885 31.08 364.739 31.3 365.472 31.74C366.219 32.1667 366.799 32.7933 367.212 33.62C367.639 34.4333 367.852 35.4333 367.852 36.62ZM359.752 36.62C359.752 37.8867 359.999 38.8933 360.492 39.64C360.999 40.3733 361.799 40.74 362.892 40.74C363.972 40.74 364.765 40.3733 365.272 39.64C365.779 38.8933 366.032 37.8867 366.032 36.62C366.032 35.3533 365.779 34.36 365.272 33.64C364.765 32.92 363.965 32.56 362.872 32.56C361.779 32.56 360.985 32.92 360.492 33.64C359.999 34.36 359.752 35.3533 359.752 36.62ZM380.41 42.2C379.463 42.2 378.617 42.0067 377.87 41.62C377.137 41.2333 376.557 40.6333 376.13 39.82C375.717 39.0067 375.51 37.9667 375.51 36.7C375.51 35.38 375.73 34.3067 376.17 33.48C376.61 32.6533 377.203 32.0467 377.95 31.66C378.71 31.2733 379.57 31.08 380.53 31.08C381.077 31.08 381.603 31.14 382.11 31.26C382.617 31.3667 383.03 31.5 383.35 31.66L382.81 33.12C382.49 33 382.117 32.8867 381.69 32.78C381.263 32.6733 380.863 32.62 380.49 32.62C378.383 32.62 377.33 33.9733 377.33 36.68C377.33 37.9733 377.583 38.9667 378.09 39.66C378.61 40.34 379.377 40.68 380.39 40.68C380.977 40.68 381.49 40.62 381.93 40.5C382.383 40.38 382.797 40.2333 383.17 40.06V41.62C382.81 41.8067 382.41 41.9467 381.97 42.04C381.543 42.1467 381.023 42.2 380.41 42.2ZM394.78 31.28V42H393.02V32.78H387.48V42H385.72V31.28H394.78ZM402.34 31.08C403.26 31.08 404.047 31.28 404.7 31.68C405.367 32.08 405.873 32.6467 406.22 33.38C406.58 34.1 406.76 34.9467 406.76 35.92V36.98H399.42C399.447 38.1933 399.753 39.12 400.34 39.76C400.94 40.3867 401.773 40.7 402.84 40.7C403.52 40.7 404.12 40.64 404.64 40.52C405.173 40.3867 405.72 40.2 406.28 39.96V41.5C405.733 41.74 405.193 41.9133 404.66 42.02C404.127 42.14 403.493 42.2 402.76 42.2C401.747 42.2 400.847 41.9933 400.06 41.58C399.287 41.1667 398.68 40.5533 398.24 39.74C397.813 38.9133 397.6 37.9067 397.6 36.72C397.6 35.5467 397.793 34.54 398.18 33.7C398.58 32.86 399.133 32.2133 399.84 31.76C400.56 31.3067 401.393 31.08 402.34 31.08ZM402.32 32.52C401.48 32.52 400.813 32.7933 400.32 33.34C399.84 33.8733 399.553 34.62 399.46 35.58H404.92C404.907 34.6733 404.693 33.94 404.28 33.38C403.867 32.8067 403.213 32.52 402.32 32.52ZM415.829 31.28H417.749L413.169 36.44L418.129 42H416.089L411.249 36.56V42H409.489V31.28H411.249V36.48L415.829 31.28ZM427.475 32.76H423.975V42H422.235V32.76H418.775V31.28H427.475V32.76ZM434.687 31.08C436.007 31.08 437.067 31.54 437.867 32.46C438.68 33.38 439.087 34.7667 439.087 36.62C439.087 38.4467 438.68 39.8333 437.867 40.78C437.067 41.7267 436 42.2 434.667 42.2C433.84 42.2 433.153 42.0467 432.607 41.74C432.073 41.42 431.653 41.0533 431.347 40.64H431.227C431.253 40.8667 431.28 41.1533 431.307 41.5C431.333 41.8467 431.347 42.1467 431.347 42.4V46.8H429.587V31.28H431.027L431.267 32.74H431.347C431.667 32.2733 432.087 31.88 432.607 31.56C433.127 31.24 433.82 31.08 434.687 31.08ZM434.367 32.56C433.273 32.56 432.5 32.8667 432.047 33.48C431.607 34.0933 431.373 35.0267 431.347 36.28V36.62C431.347 37.94 431.56 38.96 431.987 39.68C432.427 40.3867 433.233 40.74 434.407 40.74C435.06 40.74 435.593 40.56 436.007 40.2C436.433 39.84 436.747 39.3533 436.947 38.74C437.16 38.1133 437.267 37.4 437.267 36.6C437.267 35.3733 437.027 34.3933 436.547 33.66C436.08 32.9267 435.353 32.56 434.367 32.56ZM445.951 31.1C447.258 31.1 448.225 31.3867 448.851 31.96C449.478 32.5333 449.791 33.4467 449.791 34.7V42H448.511L448.171 40.48H448.091C447.625 41.0667 447.131 41.5 446.611 41.78C446.105 42.06 445.398 42.2 444.491 42.2C443.518 42.2 442.711 41.9467 442.071 41.44C441.431 40.92 441.111 40.1133 441.111 39.02C441.111 37.9533 441.531 37.1333 442.371 36.56C443.211 35.9733 444.505 35.6533 446.251 35.6L448.071 35.54V34.9C448.071 34.0067 447.878 33.3867 447.491 33.04C447.105 32.6933 446.558 32.52 445.851 32.52C445.291 32.52 444.758 32.6067 444.251 32.78C443.745 32.94 443.271 33.1267 442.831 33.34L442.291 32.02C442.758 31.7667 443.311 31.5533 443.951 31.38C444.591 31.1933 445.258 31.1 445.951 31.1ZM446.471 36.82C445.138 36.8733 444.211 37.0867 443.691 37.46C443.185 37.8333 442.931 38.36 442.931 39.04C442.931 39.64 443.111 40.08 443.471 40.36C443.845 40.64 444.318 40.78 444.891 40.78C445.798 40.78 446.551 40.5333 447.151 40.04C447.751 39.5333 448.051 38.76 448.051 37.72V36.76L446.471 36.82ZM9.76 57.28V68H8V58.78H2.46V68H0.7V57.28H9.76ZM18.2805 57.08C19.6005 57.08 20.6605 57.54 21.4605 58.46C22.2738 59.38 22.6805 60.7667 22.6805 62.62C22.6805 64.4467 22.2738 65.8333 21.4605 66.78C20.6605 67.7267 19.5938 68.2 18.2605 68.2C17.4338 68.2 16.7471 68.0467 16.2005 67.74C15.6671 67.42 15.2471 67.0533 14.9405 66.64H14.8205C14.8471 66.8667 14.8738 67.1533 14.9005 67.5C14.9271 67.8467 14.9405 68.1467 14.9405 68.4V72.8H13.1805V57.28H14.6205L14.8605 58.74H14.9405C15.2605 58.2733 15.6805 57.88 16.2005 57.56C16.7205 57.24 17.4138 57.08 18.2805 57.08ZM17.9605 58.56C16.8671 58.56 16.0938 58.8667 15.6405 59.48C15.2005 60.0933 14.9671 61.0267 14.9405 62.28V62.62C14.9405 63.94 15.1538 64.96 15.5805 65.68C16.0205 66.3867 16.8271 66.74 18.0005 66.74C18.6538 66.74 19.1871 66.56 19.6005 66.2C20.0271 65.84 20.3405 65.3533 20.5405 64.74C20.7538 64.1133 20.8605 63.4 20.8605 62.6C20.8605 61.3733 20.6205 60.3933 20.1405 59.66C19.6738 58.9267 18.9471 58.56 17.9605 58.56ZM34.8052 62.62C34.8052 64.3933 34.3518 65.7667 33.4452 66.74C32.5518 67.7133 31.3385 68.2 29.8052 68.2C28.8585 68.2 28.0118 67.9867 27.2652 67.56C26.5318 67.12 25.9518 66.4867 25.5252 65.66C25.0985 64.82 24.8852 63.8067 24.8852 62.62C24.8852 60.8467 25.3318 59.48 26.2252 58.52C27.1185 57.56 28.3318 57.08 29.8652 57.08C30.8385 57.08 31.6918 57.3 32.4252 57.74C33.1718 58.1667 33.7518 58.7933 34.1652 59.62C34.5918 60.4333 34.8052 61.4333 34.8052 62.62ZM26.7052 62.62C26.7052 63.8867 26.9518 64.8933 27.4452 65.64C27.9518 66.3733 28.7518 66.74 29.8452 66.74C30.9252 66.74 31.7185 66.3733 32.2252 65.64C32.7318 64.8933 32.9852 63.8867 32.9852 62.62C32.9852 61.3533 32.7318 60.36 32.2252 59.64C31.7185 58.92 30.9185 58.56 29.8252 58.56C28.7318 58.56 27.9385 58.92 27.4452 59.64C26.9518 60.36 26.7052 61.3533 26.7052 62.62ZM41.7345 57.08C42.6545 57.08 43.4412 57.28 44.0945 57.68C44.7612 58.08 45.2679 58.6467 45.6145 59.38C45.9745 60.1 46.1545 60.9467 46.1545 61.92V62.98H38.8145C38.8412 64.1933 39.1479 65.12 39.7345 65.76C40.3345 66.3867 41.1679 66.7 42.2345 66.7C42.9145 66.7 43.5145 66.64 44.0345 66.52C44.5679 66.3867 45.1145 66.2 45.6745 65.96V67.5C45.1279 67.74 44.5879 67.9133 44.0545 68.02C43.5212 68.14 42.8879 68.2 42.1545 68.2C41.1412 68.2 40.2412 67.9933 39.4545 67.58C38.6812 67.1667 38.0745 66.5533 37.6345 65.74C37.2079 64.9133 36.9945 63.9067 36.9945 62.72C36.9945 61.5467 37.1879 60.54 37.5745 59.7C37.9745 58.86 38.5279 58.2133 39.2345 57.76C39.9545 57.3067 40.7879 57.08 41.7345 57.08ZM41.7145 58.52C40.8745 58.52 40.2079 58.7933 39.7145 59.34C39.2345 59.8733 38.9479 60.62 38.8545 61.58H44.3145C44.3012 60.6733 44.0879 59.94 43.6745 59.38C43.2612 58.8067 42.6079 58.52 41.7145 58.52ZM55.2236 57.28H57.1436L52.5636 62.44L57.5236 68H55.4836L50.6436 62.56V68H48.8836V57.28H50.6436V62.48L55.2236 57.28ZM66.8695 58.76H63.3695V68H61.6295V58.76H58.1695V57.28H66.8695V58.76ZM78.1059 62.62C78.1059 64.3933 77.6526 65.7667 76.7459 66.74C75.8526 67.7133 74.6393 68.2 73.1059 68.2C72.1593 68.2 71.3126 67.9867 70.5659 67.56C69.8326 67.12 69.2526 66.4867 68.8259 65.66C68.3993 64.82 68.1859 63.8067 68.1859 62.62C68.1859 60.8467 68.6326 59.48 69.5259 58.52C70.4193 57.56 71.6326 57.08 73.1659 57.08C74.1393 57.08 74.9926 57.3 75.7259 57.74C76.4726 58.1667 77.0526 58.7933 77.4659 59.62C77.8926 60.4333 78.1059 61.4333 78.1059 62.62ZM70.0059 62.62C70.0059 63.8867 70.2526 64.8933 70.7459 65.64C71.2526 66.3733 72.0526 66.74 73.1459 66.74C74.2259 66.74 75.0193 66.3733 75.5259 65.64C76.0326 64.8933 76.2859 63.8867 76.2859 62.62C76.2859 61.3533 76.0326 60.36 75.5259 59.64C75.0193 58.92 74.2193 58.56 73.1259 58.56C72.0326 58.56 71.2393 58.92 70.7459 59.64C70.2526 60.36 70.0059 61.3533 70.0059 62.62ZM89.5153 59.98C89.5153 60.6467 89.3153 61.1667 88.9153 61.54C88.5153 61.9133 88.002 62.1667 87.3753 62.3V62.38C88.042 62.4733 88.622 62.7133 89.1153 63.1C89.6086 63.4733 89.8553 64.06 89.8553 64.86C89.8553 65.7667 89.5153 66.52 88.8353 67.12C88.1686 67.7067 87.062 68 85.5153 68H80.8953V57.28H85.4953C86.2553 57.28 86.9353 57.3667 87.5353 57.54C88.1486 57.7 88.6286 57.98 88.9753 58.38C89.3353 58.7667 89.5153 59.3 89.5153 59.98ZM87.7353 60.2C87.7353 59.6933 87.5486 59.3267 87.1753 59.1C86.8153 58.86 86.222 58.74 85.3953 58.74H82.6553V61.68H85.0753C86.8486 61.68 87.7353 61.1867 87.7353 60.2ZM88.0353 64.86C88.0353 64.2467 87.802 63.8067 87.3353 63.54C86.8686 63.2733 86.182 63.14 85.2753 63.14H82.6553V66.58H85.3153C86.1953 66.58 86.8686 66.4533 87.3353 66.2C87.802 65.9333 88.0353 65.4867 88.0353 64.86ZM92.3588 71.1L94.1588 65.42H95.9388L93.2988 71.1H92.3588ZM111.889 58.76H108.389V68H106.649V58.76H103.189V57.28H111.889V58.76ZM118.061 57.1C119.367 57.1 120.334 57.3867 120.961 57.96C121.587 58.5333 121.901 59.4467 121.901 60.7V68H120.621L120.281 66.48H120.201C119.734 67.0667 119.241 67.5 118.721 67.78C118.214 68.06 117.507 68.2 116.601 68.2C115.627 68.2 114.821 67.9467 114.181 67.44C113.541 66.92 113.221 66.1133 113.221 65.02C113.221 63.9533 113.641 63.1333 114.481 62.56C115.321 61.9733 116.614 61.6533 118.361 61.6L120.181 61.54V60.9C120.181 60.0067 119.987 59.3867 119.601 59.04C119.214 58.6933 118.667 58.52 117.961 58.52C117.401 58.52 116.867 58.6067 116.361 58.78C115.854 58.94 115.381 59.1267 114.941 59.34L114.401 58.02C114.867 57.7667 115.421 57.5533 116.061 57.38C116.701 57.1933 117.367 57.1 118.061 57.1ZM118.581 62.82C117.247 62.8733 116.321 63.0867 115.801 63.46C115.294 63.8333 115.041 64.36 115.041 65.04C115.041 65.64 115.221 66.08 115.581 66.36C115.954 66.64 116.427 66.78 117.001 66.78C117.907 66.78 118.661 66.5333 119.261 66.04C119.861 65.5333 120.161 64.76 120.161 63.72V62.76L118.581 62.82ZM131.552 57.28H133.472L128.892 62.44L133.852 68H131.812L126.972 62.56V68H125.212V57.28H126.972V62.48L131.552 57.28ZM137.458 63.82C137.458 63.98 137.451 64.22 137.438 64.54C137.424 64.86 137.404 65.18 137.378 65.5C137.364 65.82 137.351 66.0733 137.338 66.26L143.078 57.28H145.238V68H143.598V61.68C143.598 61.4667 143.598 61.1867 143.598 60.84C143.611 60.4933 143.624 60.1533 143.638 59.82C143.651 59.4733 143.664 59.2133 143.678 59.04L137.978 68H135.798V57.28H137.458V63.82ZM151.189 62.52L147.489 57.28H149.489L152.249 61.32L154.989 57.28H156.969L153.269 62.52L157.169 68H155.169L152.249 63.72L149.289 68H147.309L151.189 62.52ZM171.044 57.28H172.964L168.384 62.44L173.344 68H171.304L166.464 62.56V68H164.704V57.28H166.464V62.48L171.044 57.28ZM179.35 57.1C180.657 57.1 181.623 57.3867 182.25 57.96C182.877 58.5333 183.19 59.4467 183.19 60.7V68H181.91L181.57 66.48H181.49C181.023 67.0667 180.53 67.5 180.01 67.78C179.503 68.06 178.797 68.2 177.89 68.2C176.917 68.2 176.11 67.9467 175.47 67.44C174.83 66.92 174.51 66.1133 174.51 65.02C174.51 63.9533 174.93 63.1333 175.77 62.56C176.61 61.9733 177.903 61.6533 179.65 61.6L181.47 61.54V60.9C181.47 60.0067 181.277 59.3867 180.89 59.04C180.503 58.6933 179.957 58.52 179.25 58.52C178.69 58.52 178.157 58.6067 177.65 58.78C177.143 58.94 176.67 59.1267 176.23 59.34L175.69 58.02C176.157 57.7667 176.71 57.5533 177.35 57.38C177.99 57.1933 178.657 57.1 179.35 57.1ZM179.87 62.82C178.537 62.8733 177.61 63.0867 177.09 63.46C176.583 63.8333 176.33 64.36 176.33 65.04C176.33 65.64 176.51 66.08 176.87 66.36C177.243 66.64 177.717 66.78 178.29 66.78C179.197 66.78 179.95 66.5333 180.55 66.04C181.15 65.5333 181.45 64.76 181.45 63.72V62.76L179.87 62.82ZM192.841 57.28H194.761L190.181 62.44L195.141 68H193.101L188.261 62.56V68H186.501V57.28H188.261V62.48L192.841 57.28ZM211.175 59.98C211.175 60.6467 210.975 61.1667 210.575 61.54C210.175 61.9133 209.662 62.1667 209.035 62.3V62.38C209.702 62.4733 210.282 62.7133 210.775 63.1C211.269 63.4733 211.515 64.06 211.515 64.86C211.515 65.7667 211.175 66.52 210.495 67.12C209.829 67.7067 208.722 68 207.175 68H202.555V57.28H207.155C207.915 57.28 208.595 57.3667 209.195 57.54C209.809 57.7 210.289 57.98 210.635 58.38C210.995 58.7667 211.175 59.3 211.175 59.98ZM209.395 60.2C209.395 59.6933 209.209 59.3267 208.835 59.1C208.475 58.86 207.882 58.74 207.055 58.74H204.315V61.68H206.735C208.509 61.68 209.395 61.1867 209.395 60.2ZM209.695 64.86C209.695 64.2467 209.462 63.8067 208.995 63.54C208.529 63.2733 207.842 63.14 206.935 63.14H204.315V66.58H206.975C207.855 66.58 208.529 66.4533 208.995 66.2C209.462 65.9333 209.695 65.4867 209.695 64.86ZM214.079 68V57.28H215.839V61.68H218.619C220.006 61.68 221.032 61.9333 221.699 62.44C222.366 62.9467 222.699 63.7067 222.699 64.72C222.699 65.72 222.372 66.52 221.719 67.12C221.066 67.7067 220.006 68 218.539 68H214.079ZM224.479 68V57.28H226.239V68H224.479ZM218.379 66.58C219.139 66.58 219.759 66.4533 220.239 66.2C220.719 65.9333 220.959 65.4733 220.959 64.82C220.959 64.1667 220.739 63.7267 220.299 63.5C219.859 63.26 219.226 63.14 218.399 63.14H215.839V66.58H218.379ZM238.265 59.98C238.265 60.6467 238.065 61.1667 237.665 61.54C237.265 61.9133 236.752 62.1667 236.125 62.3V62.38C236.792 62.4733 237.372 62.7133 237.865 63.1C238.359 63.4733 238.605 64.06 238.605 64.86C238.605 65.7667 238.265 66.52 237.585 67.12C236.919 67.7067 235.812 68 234.265 68H229.645V57.28H234.245C235.005 57.28 235.685 57.3667 236.285 57.54C236.899 57.7 237.379 57.98 237.725 58.38C238.085 58.7667 238.265 59.3 238.265 59.98ZM236.485 60.2C236.485 59.6933 236.299 59.3267 235.925 59.1C235.565 58.86 234.972 58.74 234.145 58.74H231.405V61.68H233.825C235.599 61.68 236.485 61.1867 236.485 60.2ZM236.785 64.86C236.785 64.2467 236.552 63.8067 236.085 63.54C235.619 63.2733 234.932 63.14 234.025 63.14H231.405V66.58H234.065C234.945 66.58 235.619 66.4533 236.085 66.2C236.552 65.9333 236.785 65.4867 236.785 64.86ZM245.309 57.08C246.229 57.08 247.015 57.28 247.669 57.68C248.335 58.08 248.842 58.6467 249.189 59.38C249.549 60.1 249.729 60.9467 249.729 61.92V62.98H242.389C242.415 64.1933 242.722 65.12 243.309 65.76C243.909 66.3867 244.742 66.7 245.809 66.7C246.489 66.7 247.089 66.64 247.609 66.52C248.142 66.3867 248.689 66.2 249.249 65.96V67.5C248.702 67.74 248.162 67.9133 247.629 68.02C247.095 68.14 246.462 68.2 245.729 68.2C244.715 68.2 243.815 67.9933 243.029 67.58C242.255 67.1667 241.649 66.5533 241.209 65.74C240.782 64.9133 240.569 63.9067 240.569 62.72C240.569 61.5467 240.762 60.54 241.149 59.7C241.549 58.86 242.102 58.2133 242.809 57.76C243.529 57.3067 244.362 57.08 245.309 57.08ZM245.289 58.52C244.449 58.52 243.782 58.7933 243.289 59.34C242.809 59.8733 242.522 60.62 242.429 61.58H247.889C247.875 60.6733 247.662 59.94 247.249 59.38C246.835 58.8067 246.182 58.52 245.289 58.52ZM256.758 68.2C255.811 68.2 254.964 68.0067 254.218 67.62C253.484 67.2333 252.904 66.6333 252.478 65.82C252.064 65.0067 251.858 63.9667 251.858 62.7C251.858 61.38 252.078 60.3067 252.518 59.48C252.958 58.6533 253.551 58.0467 254.298 57.66C255.058 57.2733 255.918 57.08 256.878 57.08C257.424 57.08 257.951 57.14 258.458 57.26C258.964 57.3667 259.378 57.5 259.698 57.66L259.158 59.12C258.838 59 258.464 58.8867 258.038 58.78C257.611 58.6733 257.211 58.62 256.838 58.62C254.731 58.62 253.678 59.9733 253.678 62.68C253.678 63.9733 253.931 64.9667 254.438 65.66C254.958 66.34 255.724 66.68 256.738 66.68C257.324 66.68 257.838 66.62 258.278 66.5C258.731 66.38 259.144 66.2333 259.518 66.06V67.62C259.158 67.8067 258.758 67.9467 258.318 68.04C257.891 68.1467 257.371 68.2 256.758 68.2ZM268.407 57.28H270.327L265.747 62.44L270.707 68H268.667L263.827 62.56V68H262.067V57.28H263.827V62.48L268.407 57.28ZM274.313 63.82C274.313 63.98 274.306 64.22 274.293 64.54C274.28 64.86 274.26 65.18 274.233 65.5C274.22 65.82 274.206 66.0733 274.193 66.26L279.933 57.28H282.093V68H280.453V61.68C280.453 61.4667 280.453 61.1867 280.453 60.84C280.466 60.4933 280.48 60.1533 280.493 59.82C280.506 59.4733 280.52 59.2133 280.533 59.04L274.833 68H272.653V57.28H274.313V63.82ZM285.445 71.1L287.245 65.42H289.025L286.385 71.1H285.445ZM299.335 57.28V61.74H305.155V57.28H306.915V68H305.155V63.22H299.335V68H297.575V57.28H299.335ZM314.369 57.1C315.676 57.1 316.643 57.3867 317.269 57.96C317.896 58.5333 318.209 59.4467 318.209 60.7V68H316.929L316.589 66.48H316.509C316.043 67.0667 315.549 67.5 315.029 67.78C314.523 68.06 313.816 68.2 312.909 68.2C311.936 68.2 311.129 67.9467 310.489 67.44C309.849 66.92 309.529 66.1133 309.529 65.02C309.529 63.9533 309.949 63.1333 310.789 62.56C311.629 61.9733 312.923 61.6533 314.669 61.6L316.489 61.54V60.9C316.489 60.0067 316.296 59.3867 315.909 59.04C315.523 58.6933 314.976 58.52 314.269 58.52C313.709 58.52 313.176 58.6067 312.669 58.78C312.163 58.94 311.689 59.1267 311.249 59.34L310.709 58.02C311.176 57.7667 311.729 57.5533 312.369 57.38C313.009 57.1933 313.676 57.1 314.369 57.1ZM314.889 62.82C313.556 62.8733 312.629 63.0867 312.109 63.46C311.603 63.8333 311.349 64.36 311.349 65.04C311.349 65.64 311.529 66.08 311.889 66.36C312.263 66.64 312.736 66.78 313.309 66.78C314.216 66.78 314.969 66.5333 315.569 66.04C316.169 65.5333 316.469 64.76 316.469 63.72V62.76L314.889 62.82ZM320.96 61.56C320.96 59.2133 321.314 57.3867 322.02 56.08C322.727 54.76 323.867 53.9333 325.44 53.6C326.307 53.4133 327.154 53.2467 327.98 53.1C328.807 52.9533 329.58 52.82 330.3 52.7L330.6 54.24C330.134 54.3067 329.607 54.3933 329.02 54.5C328.434 54.5933 327.854 54.6933 327.28 54.8C326.707 54.8933 326.214 54.9867 325.8 55.08C324.934 55.2667 324.247 55.72 323.74 56.44C323.234 57.1467 322.947 58.2533 322.88 59.76H323C323.187 59.5067 323.44 59.2467 323.76 58.98C324.094 58.7133 324.487 58.4867 324.94 58.3C325.407 58.1133 325.934 58.02 326.52 58.02C327.907 58.02 328.954 58.4667 329.66 59.36C330.367 60.2533 330.72 61.4133 330.72 62.84C330.72 64.0267 330.514 65.02 330.1 65.82C329.687 66.62 329.114 67.22 328.38 67.62C327.647 68.0067 326.794 68.2 325.82 68.2C324.34 68.2 323.16 67.6333 322.28 66.5C321.4 65.3667 320.96 63.72 320.96 61.56ZM325.96 66.74C326.827 66.74 327.527 66.46 328.06 65.9C328.594 65.34 328.86 64.38 328.86 63.02C328.86 61.9267 328.654 61.0667 328.24 60.44C327.84 59.8 327.174 59.48 326.24 59.48C325.654 59.48 325.12 59.6133 324.64 59.88C324.16 60.1333 323.76 60.4267 323.44 60.76C323.12 61.0933 322.894 61.3733 322.76 61.6C322.76 62.2533 322.807 62.8867 322.9 63.5C322.994 64.1133 323.154 64.6667 323.38 65.16C323.62 65.64 323.947 66.0267 324.36 66.32C324.787 66.6 325.32 66.74 325.96 66.74ZM342.813 62.62C342.813 64.3933 342.36 65.7667 341.453 66.74C340.56 67.7133 339.346 68.2 337.813 68.2C336.866 68.2 336.02 67.9867 335.273 67.56C334.54 67.12 333.96 66.4867 333.533 65.66C333.106 64.82 332.893 63.8067 332.893 62.62C332.893 60.8467 333.34 59.48 334.233 58.52C335.126 57.56 336.34 57.08 337.873 57.08C338.846 57.08 339.7 57.3 340.433 57.74C341.18 58.1667 341.76 58.7933 342.173 59.62C342.6 60.4333 342.813 61.4333 342.813 62.62ZM334.713 62.62C334.713 63.8867 334.96 64.8933 335.453 65.64C335.96 66.3733 336.76 66.74 337.853 66.74C338.933 66.74 339.726 66.3733 340.233 65.64C340.74 64.8933 340.993 63.8867 340.993 62.62C340.993 61.3533 340.74 60.36 340.233 59.64C339.726 58.92 338.926 58.56 337.833 58.56C336.74 58.56 335.946 58.92 335.453 59.64C334.96 60.36 334.713 61.3533 334.713 62.62ZM350.702 57.08C352.022 57.08 353.082 57.54 353.882 58.46C354.696 59.38 355.102 60.7667 355.102 62.62C355.102 64.4467 354.696 65.8333 353.882 66.78C353.082 67.7267 352.016 68.2 350.682 68.2C349.856 68.2 349.169 68.0467 348.622 67.74C348.089 67.42 347.669 67.0533 347.362 66.64H347.242C347.269 66.8667 347.296 67.1533 347.322 67.5C347.349 67.8467 347.362 68.1467 347.362 68.4V72.8H345.602V57.28H347.042L347.282 58.74H347.362C347.682 58.2733 348.102 57.88 348.622 57.56C349.142 57.24 349.836 57.08 350.702 57.08ZM350.382 58.56C349.289 58.56 348.516 58.8667 348.062 59.48C347.622 60.0933 347.389 61.0267 347.362 62.28V62.62C347.362 63.94 347.576 64.96 348.002 65.68C348.442 66.3867 349.249 66.74 350.422 66.74C351.076 66.74 351.609 66.56 352.022 66.2C352.449 65.84 352.762 65.3533 352.962 64.74C353.176 64.1133 353.282 63.4 353.282 62.6C353.282 61.3733 353.042 60.3933 352.562 59.66C352.096 58.9267 351.369 58.56 350.382 58.56ZM359.667 57.28V61.74H365.487V57.28H367.247V68H365.487V63.22H359.667V68H357.907V57.28H359.667ZM370.641 68V57.28H372.401V61.68H375.181C376.568 61.68 377.595 61.9333 378.261 62.44C378.928 62.9467 379.261 63.7067 379.261 64.72C379.261 65.72 378.935 66.52 378.281 67.12C377.628 67.7067 376.568 68 375.101 68H370.641ZM381.041 68V57.28H382.801V68H381.041ZM374.941 66.58C375.701 66.58 376.321 66.4533 376.801 66.2C377.281 65.9333 377.521 65.4733 377.521 64.82C377.521 64.1667 377.301 63.7267 376.861 63.5C376.421 63.26 375.788 63.14 374.961 63.14H372.401V66.58H374.941ZM394.888 52.84C394.794 53.84 394.454 54.6 393.868 55.12C393.294 55.6267 392.374 55.88 391.108 55.88C389.801 55.88 388.874 55.6267 388.328 55.12C387.794 54.6133 387.494 53.8533 387.428 52.84H389.068C389.134 53.56 389.321 54.0467 389.628 54.3C389.948 54.54 390.454 54.66 391.148 54.66C391.761 54.66 392.241 54.5333 392.588 54.28C392.948 54.0133 393.161 53.5333 393.228 52.84H394.888ZM387.868 63.82C387.868 63.98 387.861 64.22 387.848 64.54C387.834 64.86 387.814 65.18 387.788 65.5C387.774 65.82 387.761 66.0733 387.748 66.26L393.488 57.28H395.648V68H394.008V61.68C394.008 61.4667 394.008 61.1867 394.008 60.84C394.021 60.4933 394.034 60.1533 394.048 59.82C394.061 59.4733 394.074 59.2133 394.088 59.04L388.388 68H386.208V57.28H387.868V63.82ZM411.928 58.76H408.428V68H406.688V58.76H403.228V57.28H411.928V58.76ZM417.985 57.08C418.905 57.08 419.691 57.28 420.345 57.68C421.011 58.08 421.518 58.6467 421.865 59.38C422.225 60.1 422.405 60.9467 422.405 61.92V62.98H415.065C415.091 64.1933 415.398 65.12 415.985 65.76C416.585 66.3867 417.418 66.7 418.485 66.7C419.165 66.7 419.765 66.64 420.285 66.52C420.818 66.3867 421.365 66.2 421.925 65.96V67.5C421.378 67.74 420.838 67.9133 420.305 68.02C419.771 68.14 419.138 68.2 418.405 68.2C417.391 68.2 416.491 67.9933 415.705 67.58C414.931 67.1667 414.325 66.5533 413.885 65.74C413.458 64.9133 413.245 63.9067 413.245 62.72C413.245 61.5467 413.438 60.54 413.825 59.7C414.225 58.86 414.778 58.2133 415.485 57.76C416.205 57.3067 417.038 57.08 417.985 57.08ZM417.965 58.52C417.125 58.52 416.458 58.7933 415.965 59.34C415.485 59.8733 415.198 60.62 415.105 61.58H420.565C420.551 60.6733 420.338 59.94 419.925 59.38C419.511 58.8067 418.858 58.52 417.965 58.52ZM431.474 57.28H433.394L428.814 62.44L433.774 68H431.734L426.894 62.56V68H425.134V57.28H426.894V62.48L431.474 57.28ZM439.629 68.2C438.682 68.2 437.836 68.0067 437.089 67.62C436.356 67.2333 435.776 66.6333 435.349 65.82C434.936 65.0067 434.729 63.9667 434.729 62.7C434.729 61.38 434.949 60.3067 435.389 59.48C435.829 58.6533 436.422 58.0467 437.169 57.66C437.929 57.2733 438.789 57.08 439.749 57.08C440.296 57.08 440.822 57.14 441.329 57.26C441.836 57.3667 442.249 57.5 442.569 57.66L442.029 59.12C441.709 59 441.336 58.8867 440.909 58.78C440.482 58.6733 440.082 58.62 439.709 58.62C437.602 58.62 436.549 59.9733 436.549 62.68C436.549 63.9733 436.802 64.9667 437.309 65.66C437.829 66.34 438.596 66.68 439.609 66.68C440.196 66.68 440.709 66.62 441.149 66.5C441.602 66.38 442.016 66.2333 442.389 66.06V67.62C442.029 67.8067 441.629 67.9467 441.189 68.04C440.762 68.1467 440.242 68.2 439.629 68.2ZM452.338 58.76H448.838V68H447.098V58.76H443.638V57.28H452.338V58.76ZM9.32 85.98C9.32 86.6467 9.12 87.1667 8.72 87.54C8.32 87.9133 7.80667 88.1667 7.18 88.3V88.38C7.84667 88.4733 8.42667 88.7133 8.92 89.1C9.41333 89.4733 9.66 90.06 9.66 90.86C9.66 91.7667 9.32 92.52 8.64 93.12C7.97333 93.7067 6.86667 94 5.32 94H0.7V83.28H5.3C6.06 83.28 6.74 83.3667 7.34 83.54C7.95333 83.7 8.43333 83.98 8.78 84.38C9.14 84.7667 9.32 85.3 9.32 85.98ZM7.54 86.2C7.54 85.6933 7.35333 85.3267 6.98 85.1C6.62 84.86 6.02667 84.74 5.2 84.74H2.46V87.68H4.88C6.65333 87.68 7.54 87.1867 7.54 86.2ZM7.84 90.86C7.84 90.2467 7.60667 89.8067 7.14 89.54C6.67333 89.2733 5.98667 89.14 5.08 89.14H2.46V92.58H5.12C6 92.58 6.67333 92.4533 7.14 92.2C7.60667 91.9333 7.84 91.4867 7.84 90.86ZM24.0322 83.28H25.9522L21.3722 88.44L26.3322 94H24.2922L19.4522 88.56V94H17.6922V83.28H19.4522V88.48L24.0322 83.28ZM30.0381 83.28V87.74H35.8581V83.28H37.6181V94H35.8581V89.22H30.0381V94H28.2781V83.28H30.0381ZM42.6725 89.82C42.6725 89.98 42.6658 90.22 42.6525 90.54C42.6392 90.86 42.6192 91.18 42.5925 91.5C42.5792 91.82 42.5658 92.0733 42.5525 92.26L48.2925 83.28H50.4525V94H48.8125V87.68C48.8125 87.4667 48.8125 87.1867 48.8125 86.84C48.8258 86.4933 48.8392 86.1533 48.8525 85.82C48.8658 85.4733 48.8792 85.2133 48.8925 85.04L43.1925 94H41.0125V83.28H42.6725V89.82ZM60.4041 83.28V84.76H55.6241V94H53.8641V83.28H60.4041ZM66.5764 83.1C67.8831 83.1 68.8497 83.3867 69.4764 83.96C70.1031 84.5333 70.4164 85.4467 70.4164 86.7V94H69.1364L68.7964 92.48H68.7164C68.2497 93.0667 67.7564 93.5 67.2364 93.78C66.7297 94.06 66.0231 94.2 65.1164 94.2C64.1431 94.2 63.3364 93.9467 62.6964 93.44C62.0564 92.92 61.7364 92.1133 61.7364 91.02C61.7364 89.9533 62.1564 89.1333 62.9964 88.56C63.8364 87.9733 65.1297 87.6533 66.8764 87.6L68.6964 87.54V86.9C68.6964 86.0067 68.5031 85.3867 68.1164 85.04C67.7297 84.6933 67.1831 84.52 66.4764 84.52C65.9164 84.52 65.3831 84.6067 64.8764 84.78C64.3697 84.94 63.8964 85.1267 63.4564 85.34L62.9164 84.02C63.3831 83.7667 63.9364 83.5533 64.5764 83.38C65.2164 83.1933 65.8831 83.1 66.5764 83.1ZM67.0964 88.82C65.7631 88.8733 64.8364 89.0867 64.3164 89.46C63.8097 89.8333 63.5564 90.36 63.5564 91.04C63.5564 91.64 63.7364 92.08 64.0964 92.36C64.4697 92.64 64.9431 92.78 65.5164 92.78C66.4231 92.78 67.1764 92.5333 67.7764 92.04C68.3764 91.5333 68.6764 90.76 68.6764 89.72V88.76L67.0964 88.82ZM76.2673 88.52L72.5673 83.28H74.5673L77.3273 87.32L80.0673 83.28H82.0473L78.3473 88.52L82.2473 94H80.2473L77.3273 89.72L74.3673 94H72.3873L76.2673 88.52ZM91.442 89.82C91.442 89.98 91.4354 90.22 91.422 90.54C91.4087 90.86 91.3887 91.18 91.362 91.5C91.3487 91.82 91.3354 92.0733 91.322 92.26L97.062 83.28H99.222V94H97.582V87.68C97.582 87.4667 97.582 87.1867 97.582 86.84C97.5954 86.4933 97.6087 86.1533 97.622 85.82C97.6354 85.4733 97.6487 85.2133 97.662 85.04L91.962 94H89.782V83.28H91.442V89.82ZM120.962 83.28L116.542 88.48L121.342 94H119.342L114.702 88.56V94H113.062V88.56L108.422 94H106.422L111.222 88.48L106.802 83.28H108.722L113.062 88.48V83.28H114.702V88.48L119.062 83.28H120.962ZM121.422 83.28H123.302L125.622 89.38C125.822 89.9133 126.002 90.4267 126.162 90.92C126.322 91.4 126.442 91.86 126.522 92.3H126.602C126.682 91.9667 126.809 91.5333 126.982 91C127.156 90.4533 127.336 89.9067 127.522 89.36L129.702 83.28H131.602L126.982 95.48C126.609 96.4933 126.122 97.3 125.522 97.9C124.936 98.5 124.122 98.8 123.082 98.8C122.762 98.8 122.482 98.78 122.242 98.74C122.002 98.7133 121.796 98.68 121.622 98.64V97.24C121.769 97.2667 121.942 97.2933 122.142 97.32C122.356 97.3467 122.576 97.36 122.802 97.36C123.416 97.36 123.909 97.1867 124.282 96.84C124.669 96.4933 124.969 96.0333 125.182 95.46L125.742 94.04L121.422 83.28ZM138.398 83.08C139.718 83.08 140.778 83.54 141.578 84.46C142.391 85.38 142.798 86.7667 142.798 88.62C142.798 90.4467 142.391 91.8333 141.578 92.78C140.778 93.7267 139.711 94.2 138.378 94.2C137.551 94.2 136.864 94.0467 136.318 93.74C135.784 93.42 135.364 93.0533 135.058 92.64H134.938C134.964 92.8667 134.991 93.1533 135.018 93.5C135.044 93.8467 135.058 94.1467 135.058 94.4V98.8H133.298V83.28H134.738L134.978 84.74H135.058C135.378 84.2733 135.798 83.88 136.318 83.56C136.838 83.24 137.531 83.08 138.398 83.08ZM138.078 84.56C136.984 84.56 136.211 84.8667 135.758 85.48C135.318 86.0933 135.084 87.0267 135.058 88.28V88.62C135.058 89.94 135.271 90.96 135.698 91.68C136.138 92.3867 136.944 92.74 138.118 92.74C138.771 92.74 139.304 92.56 139.718 92.2C140.144 91.84 140.458 91.3533 140.658 90.74C140.871 90.1133 140.978 89.4 140.978 88.6C140.978 87.3733 140.738 86.3933 140.258 85.66C139.791 84.9267 139.064 84.56 138.078 84.56ZM147.362 83.28V87.74H153.182V83.28H154.942V94H153.182V89.22H147.362V94H145.602V83.28H147.362ZM162.397 83.1C163.703 83.1 164.67 83.3867 165.297 83.96C165.923 84.5333 166.237 85.4467 166.237 86.7V94H164.957L164.617 92.48H164.537C164.07 93.0667 163.577 93.5 163.057 93.78C162.55 94.06 161.843 94.2 160.937 94.2C159.963 94.2 159.157 93.9467 158.517 93.44C157.877 92.92 157.557 92.1133 157.557 91.02C157.557 89.9533 157.977 89.1333 158.817 88.56C159.657 87.9733 160.95 87.6533 162.697 87.6L164.517 87.54V86.9C164.517 86.0067 164.323 85.3867 163.937 85.04C163.55 84.6933 163.003 84.52 162.297 84.52C161.737 84.52 161.203 84.6067 160.697 84.78C160.19 84.94 159.717 85.1267 159.277 85.34L158.737 84.02C159.203 83.7667 159.757 83.5533 160.397 83.38C161.037 83.1933 161.703 83.1 162.397 83.1ZM162.917 88.82C161.583 88.8733 160.657 89.0867 160.137 89.46C159.63 89.8333 159.377 90.36 159.377 91.04C159.377 91.64 159.557 92.08 159.917 92.36C160.29 92.64 160.763 92.78 161.337 92.78C162.243 92.78 162.997 92.5333 163.597 92.04C164.197 91.5333 164.497 90.76 164.497 89.72V88.76L162.917 88.82ZM177.708 94H175.928V84.74H172.768C172.594 86.9933 172.354 88.8133 172.048 90.2C171.741 91.5733 171.334 92.5733 170.828 93.2C170.321 93.8267 169.681 94.14 168.908 94.14C168.734 94.14 168.561 94.1267 168.388 94.1C168.228 94.0867 168.094 94.0533 167.988 94V92.68C168.068 92.7067 168.154 92.7267 168.248 92.74C168.341 92.7533 168.434 92.76 168.528 92.76C169.248 92.76 169.821 91.9933 170.248 90.46C170.688 88.9267 171.021 86.5333 171.248 83.28H177.708V94ZM185.17 83.1C186.477 83.1 187.443 83.3867 188.07 83.96C188.697 84.5333 189.01 85.4467 189.01 86.7V94H187.73L187.39 92.48H187.31C186.843 93.0667 186.35 93.5 185.83 93.78C185.323 94.06 184.617 94.2 183.71 94.2C182.737 94.2 181.93 93.9467 181.29 93.44C180.65 92.92 180.33 92.1133 180.33 91.02C180.33 89.9533 180.75 89.1333 181.59 88.56C182.43 87.9733 183.723 87.6533 185.47 87.6L187.29 87.54V86.9C187.29 86.0067 187.097 85.3867 186.71 85.04C186.323 84.6933 185.777 84.52 185.07 84.52C184.51 84.52 183.977 84.6067 183.47 84.78C182.963 84.94 182.49 85.1267 182.05 85.34L181.51 84.02C181.977 83.7667 182.53 83.5533 183.17 83.38C183.81 83.1933 184.477 83.1 185.17 83.1ZM185.69 88.82C184.357 88.8733 183.43 89.0867 182.91 89.46C182.403 89.8333 182.15 90.36 182.15 91.04C182.15 91.64 182.33 92.08 182.69 92.36C183.063 92.64 183.537 92.78 184.11 92.78C185.017 92.78 185.77 92.5333 186.37 92.04C186.97 91.5333 187.27 90.76 187.27 89.72V88.76L185.69 88.82ZM194.861 88.52L191.161 83.28H193.161L195.921 87.32L198.661 83.28H200.641L196.941 88.52L200.841 94H198.841L195.921 89.72L192.961 94H190.981L194.861 88.52ZM202.847 97.1L204.647 91.42H206.427L203.787 97.1H202.847ZM216.637 89.82C216.637 89.98 216.631 90.22 216.617 90.54C216.604 90.86 216.584 91.18 216.557 91.5C216.544 91.82 216.531 92.0733 216.517 92.26L222.257 83.28H224.417V94H222.777V87.68C222.777 87.4667 222.777 87.1867 222.777 86.84C222.791 86.4933 222.804 86.1533 222.817 85.82C222.831 85.4733 222.844 85.2133 222.857 85.04L217.157 94H214.977V83.28H216.637V89.82ZM229.589 83.28V87.74H235.409V83.28H237.169V94H235.409V89.22H229.589V94H227.829V83.28H229.589ZM247.963 84.76H244.463V94H242.723V84.76H239.263V83.28H247.963V84.76ZM254.02 83.08C254.94 83.08 255.726 83.28 256.38 83.68C257.046 84.08 257.553 84.6467 257.9 85.38C258.26 86.1 258.44 86.9467 258.44 87.92V88.98H251.1C251.126 90.1933 251.433 91.12 252.02 91.76C252.62 92.3867 253.453 92.7 254.52 92.7C255.2 92.7 255.8 92.64 256.32 92.52C256.853 92.3867 257.4 92.2 257.96 91.96V93.5C257.413 93.74 256.873 93.9133 256.34 94.02C255.806 94.14 255.173 94.2 254.44 94.2C253.426 94.2 252.526 93.9933 251.74 93.58C250.966 93.1667 250.36 92.5533 249.92 91.74C249.493 90.9133 249.28 89.9067 249.28 88.72C249.28 87.5467 249.473 86.54 249.86 85.7C250.26 84.86 250.813 84.2133 251.52 83.76C252.24 83.3067 253.073 83.08 254.02 83.08ZM254 84.52C253.16 84.52 252.493 84.7933 252 85.34C251.52 85.8733 251.233 86.62 251.14 87.58H256.6C256.586 86.6733 256.373 85.94 255.96 85.38C255.546 84.8067 254.893 84.52 254 84.52ZM266.269 83.08C267.589 83.08 268.649 83.54 269.449 84.46C270.262 85.38 270.669 86.7667 270.669 88.62C270.669 90.4467 270.262 91.8333 269.449 92.78C268.649 93.7267 267.582 94.2 266.249 94.2C265.422 94.2 264.735 94.0467 264.189 93.74C263.655 93.42 263.235 93.0533 262.929 92.64H262.809C262.835 92.8667 262.862 93.1533 262.889 93.5C262.915 93.8467 262.929 94.1467 262.929 94.4V98.8H261.169V83.28H262.609L262.849 84.74H262.929C263.249 84.2733 263.669 83.88 264.189 83.56C264.709 83.24 265.402 83.08 266.269 83.08ZM265.949 84.56C264.855 84.56 264.082 84.8667 263.629 85.48C263.189 86.0933 262.955 87.0267 262.929 88.28V88.62C262.929 89.94 263.142 90.96 263.569 91.68C264.009 92.3867 264.815 92.74 265.989 92.74C266.642 92.74 267.175 92.56 267.589 92.2C268.015 91.84 268.329 91.3533 268.529 90.74C268.742 90.1133 268.849 89.4 268.849 88.6C268.849 87.3733 268.609 86.3933 268.129 85.66C267.662 84.9267 266.935 84.56 265.949 84.56ZM279.873 83.12C280.94 83.2133 281.867 83.4933 282.653 83.96C283.453 84.4267 284.073 85.0533 284.513 85.84C284.953 86.6267 285.173 87.56 285.173 88.64C285.173 90.2533 284.7 91.54 283.753 92.5C282.82 93.46 281.527 94.0133 279.873 94.16V98.8H278.153V94.16C277.1 94.0667 276.173 93.7933 275.373 93.34C274.573 92.8733 273.953 92.2467 273.513 91.46C273.073 90.66 272.853 89.72 272.853 88.64C272.853 87.0133 273.32 85.72 274.253 84.76C275.2 83.8 276.52 83.2533 278.213 83.12V78.8H279.873V83.12ZM278.213 84.58C276.987 84.7 276.093 85.1067 275.533 85.8C274.973 86.48 274.693 87.4267 274.693 88.64C274.693 89.8533 274.973 90.8067 275.533 91.5C276.107 92.1933 277 92.6 278.213 92.72V84.58ZM279.873 92.72C281.073 92.5867 281.953 92.1733 282.513 91.48C283.073 90.7867 283.353 89.84 283.353 88.64C283.353 87.44 283.067 86.5 282.493 85.82C281.933 85.14 281.06 84.7333 279.873 84.6V92.72ZM292.106 83.08C293.026 83.08 293.812 83.28 294.466 83.68C295.132 84.08 295.639 84.6467 295.986 85.38C296.346 86.1 296.526 86.9467 296.526 87.92V88.98H289.186C289.212 90.1933 289.519 91.12 290.106 91.76C290.706 92.3867 291.539 92.7 292.606 92.7C293.286 92.7 293.886 92.64 294.406 92.52C294.939 92.3867 295.486 92.2 296.046 91.96V93.5C295.499 93.74 294.959 93.9133 294.426 94.02C293.892 94.14 293.259 94.2 292.526 94.2C291.512 94.2 290.612 93.9933 289.826 93.58C289.052 93.1667 288.446 92.5533 288.006 91.74C287.579 90.9133 287.366 89.9067 287.366 88.72C287.366 87.5467 287.559 86.54 287.946 85.7C288.346 84.86 288.899 84.2133 289.606 83.76C290.326 83.3067 291.159 83.08 292.106 83.08ZM292.086 84.52C291.246 84.52 290.579 84.7933 290.086 85.34C289.606 85.8733 289.319 86.62 289.226 87.58H294.686C294.672 86.6733 294.459 85.94 294.046 85.38C293.632 84.8067 292.979 84.52 292.086 84.52ZM307.935 78.84C307.841 79.84 307.501 80.6 306.915 81.12C306.341 81.6267 305.421 81.88 304.155 81.88C302.848 81.88 301.921 81.6267 301.375 81.12C300.841 80.6133 300.541 79.8533 300.475 78.84H302.115C302.181 79.56 302.368 80.0467 302.675 80.3C302.995 80.54 303.501 80.66 304.195 80.66C304.808 80.66 305.288 80.5333 305.635 80.28C305.995 80.0133 306.208 79.5333 306.275 78.84H307.935ZM300.915 89.82C300.915 89.98 300.908 90.22 300.895 90.54C300.881 90.86 300.861 91.18 300.835 91.5C300.821 91.82 300.808 92.0733 300.795 92.26L306.535 83.28H308.695V94H307.055V87.68C307.055 87.4667 307.055 87.1867 307.055 86.84C307.068 86.4933 307.081 86.1533 307.095 85.82C307.108 85.4733 307.121 85.2133 307.135 85.04L301.435 94H299.255V83.28H300.915V89.82ZM316.406 94.2C315.46 94.2 314.613 94.0067 313.866 93.62C313.133 93.2333 312.553 92.6333 312.126 91.82C311.713 91.0067 311.506 89.9667 311.506 88.7C311.506 87.38 311.726 86.3067 312.166 85.48C312.606 84.6533 313.2 84.0467 313.946 83.66C314.706 83.2733 315.566 83.08 316.526 83.08C317.073 83.08 317.6 83.14 318.106 83.26C318.613 83.3667 319.026 83.5 319.346 83.66L318.806 85.12C318.486 85 318.113 84.8867 317.686 84.78C317.26 84.6733 316.86 84.62 316.486 84.62C314.38 84.62 313.326 85.9733 313.326 88.68C313.326 89.9733 313.58 90.9667 314.086 91.66C314.606 92.34 315.373 92.68 316.386 92.68C316.973 92.68 317.486 92.62 317.926 92.5C318.38 92.38 318.793 92.2333 319.166 92.06V93.62C318.806 93.8067 318.406 93.9467 317.966 94.04C317.54 94.1467 317.02 94.2 316.406 94.2ZM321.716 94V83.28H323.476V87.68H326.256C327.642 87.68 328.669 87.9333 329.336 88.44C330.002 88.9467 330.336 89.7067 330.336 90.72C330.336 91.72 330.009 92.52 329.356 93.12C328.702 93.7067 327.642 94 326.176 94H321.716ZM332.116 94V83.28H333.876V94H332.116ZM326.016 92.58C326.776 92.58 327.396 92.4533 327.876 92.2C328.356 91.9333 328.596 91.4733 328.596 90.82C328.596 90.1667 328.376 89.7267 327.936 89.5C327.496 89.26 326.862 89.14 326.036 89.14H323.476V92.58H326.016ZM337.222 97.1L339.022 91.42H340.802L338.162 97.1H337.222ZM357.972 85.98C357.972 86.6467 357.772 87.1667 357.372 87.54C356.972 87.9133 356.459 88.1667 355.832 88.3V88.38C356.499 88.4733 357.079 88.7133 357.572 89.1C358.066 89.4733 358.312 90.06 358.312 90.86C358.312 91.7667 357.972 92.52 357.292 93.12C356.626 93.7067 355.519 94 353.972 94H349.352V83.28H353.952C354.712 83.28 355.392 83.3667 355.992 83.54C356.606 83.7 357.086 83.98 357.432 84.38C357.792 84.7667 357.972 85.3 357.972 85.98ZM356.192 86.2C356.192 85.6933 356.006 85.3267 355.632 85.1C355.272 84.86 354.679 84.74 353.852 84.74H351.112V87.68H353.532C355.306 87.68 356.192 87.1867 356.192 86.2ZM356.492 90.86C356.492 90.2467 356.259 89.8067 355.792 89.54C355.326 89.2733 354.639 89.14 353.732 89.14H351.112V92.58H353.772C354.652 92.58 355.326 92.4533 355.792 92.2C356.259 91.9333 356.492 91.4867 356.492 90.86ZM365.016 83.08C365.936 83.08 366.722 83.28 367.376 83.68C368.042 84.08 368.549 84.6467 368.896 85.38C369.256 86.1 369.436 86.9467 369.436 87.92V88.98H362.096C362.122 90.1933 362.429 91.12 363.016 91.76C363.616 92.3867 364.449 92.7 365.516 92.7C366.196 92.7 366.796 92.64 367.316 92.52C367.849 92.3867 368.396 92.2 368.956 91.96V93.5C368.409 93.74 367.869 93.9133 367.336 94.02C366.802 94.14 366.169 94.2 365.436 94.2C364.422 94.2 363.522 93.9933 362.736 93.58C361.962 93.1667 361.356 92.5533 360.916 91.74C360.489 90.9133 360.276 89.9067 360.276 88.72C360.276 87.5467 360.469 86.54 360.856 85.7C361.256 84.86 361.809 84.2133 362.516 83.76C363.236 83.3067 364.069 83.08 365.016 83.08ZM364.996 84.52C364.156 84.52 363.489 84.7933 362.996 85.34C362.516 85.8733 362.229 86.62 362.136 87.58H367.596C367.582 86.6733 367.369 85.94 366.956 85.38C366.542 84.8067 365.889 84.52 364.996 84.52ZM371.605 87.56C371.605 85.2133 371.958 83.3867 372.665 82.08C373.372 80.76 374.512 79.9333 376.085 79.6C376.952 79.4133 377.798 79.2467 378.625 79.1C379.452 78.9533 380.225 78.82 380.945 78.7L381.245 80.24C380.778 80.3067 380.252 80.3933 379.665 80.5C379.078 80.5933 378.498 80.6933 377.925 80.8C377.352 80.8933 376.858 80.9867 376.445 81.08C375.578 81.2667 374.892 81.72 374.385 82.44C373.878 83.1467 373.592 84.2533 373.525 85.76H373.645C373.832 85.5067 374.085 85.2467 374.405 84.98C374.738 84.7133 375.132 84.4867 375.585 84.3C376.052 84.1133 376.578 84.02 377.165 84.02C378.552 84.02 379.598 84.4667 380.305 85.36C381.012 86.2533 381.365 87.4133 381.365 88.84C381.365 90.0267 381.158 91.02 380.745 91.82C380.332 92.62 379.758 93.22 379.025 93.62C378.292 94.0067 377.438 94.2 376.465 94.2C374.985 94.2 373.805 93.6333 372.925 92.5C372.045 91.3667 371.605 89.72 371.605 87.56ZM376.605 92.74C377.472 92.74 378.172 92.46 378.705 91.9C379.238 91.34 379.505 90.38 379.505 89.02C379.505 87.9267 379.298 87.0667 378.885 86.44C378.485 85.8 377.818 85.48 376.885 85.48C376.298 85.48 375.765 85.6133 375.285 85.88C374.805 86.1333 374.405 86.4267 374.085 86.76C373.765 87.0933 373.538 87.3733 373.405 87.6C373.405 88.2533 373.452 88.8867 373.545 89.5C373.638 90.1133 373.798 90.6667 374.025 91.16C374.265 91.64 374.592 92.0267 375.005 92.32C375.432 92.6 375.965 92.74 376.605 92.74ZM384.158 88.4V87.34H389.498V88.4H384.158ZM397.227 94.2C396.28 94.2 395.433 94.0067 394.687 93.62C393.953 93.2333 393.373 92.6333 392.947 91.82C392.533 91.0067 392.327 89.9667 392.327 88.7C392.327 87.38 392.547 86.3067 392.987 85.48C393.427 84.6533 394.02 84.0467 394.767 83.66C395.527 83.2733 396.387 83.08 397.347 83.08C397.893 83.08 398.42 83.14 398.927 83.26C399.433 83.3667 399.847 83.5 400.167 83.66L399.627 85.12C399.307 85 398.933 84.8867 398.507 84.78C398.08 84.6733 397.68 84.62 397.307 84.62C395.2 84.62 394.147 85.9733 394.147 88.68C394.147 89.9733 394.4 90.9667 394.907 91.66C395.427 92.34 396.193 92.68 397.207 92.68C397.793 92.68 398.307 92.62 398.747 92.5C399.2 92.38 399.613 92.2333 399.987 92.06V93.62C399.627 93.8067 399.227 93.9467 398.787 94.04C398.36 94.1467 397.84 94.2 397.227 94.2ZM406.596 83.1C407.903 83.1 408.869 83.3867 409.496 83.96C410.123 84.5333 410.436 85.4467 410.436 86.7V94H409.156L408.816 92.48H408.736C408.269 93.0667 407.776 93.5 407.256 93.78C406.749 94.06 406.043 94.2 405.136 94.2C404.163 94.2 403.356 93.9467 402.716 93.44C402.076 92.92 401.756 92.1133 401.756 91.02C401.756 89.9533 402.176 89.1333 403.016 88.56C403.856 87.9733 405.149 87.6533 406.896 87.6L408.716 87.54V86.9C408.716 86.0067 408.523 85.3867 408.136 85.04C407.749 84.6933 407.203 84.52 406.496 84.52C405.936 84.52 405.403 84.6067 404.896 84.78C404.389 84.94 403.916 85.1267 403.476 85.34L402.936 84.02C403.403 83.7667 403.956 83.5533 404.596 83.38C405.236 83.1933 405.903 83.1 406.596 83.1ZM407.116 88.82C405.783 88.8733 404.856 89.0867 404.336 89.46C403.829 89.8333 403.576 90.36 403.576 91.04C403.576 91.64 403.756 92.08 404.116 92.36C404.489 92.64 404.963 92.78 405.536 92.78C406.443 92.78 407.196 92.5333 407.796 92.04C408.396 91.5333 408.696 90.76 408.696 89.72V88.76L407.116 88.82ZM422.427 78.84C422.334 79.84 421.994 80.6 421.407 81.12C420.834 81.6267 419.914 81.88 418.647 81.88C417.34 81.88 416.414 81.6267 415.867 81.12C415.334 80.6133 415.034 79.8533 414.967 78.84H416.607C416.674 79.56 416.86 80.0467 417.167 80.3C417.487 80.54 417.994 80.66 418.687 80.66C419.3 80.66 419.78 80.5333 420.127 80.28C420.487 80.0133 420.7 79.5333 420.767 78.84H422.427ZM415.407 89.82C415.407 89.98 415.4 90.22 415.387 90.54C415.374 90.86 415.354 91.18 415.327 91.5C415.314 91.82 415.3 92.0733 415.287 92.26L421.027 83.28H423.187V94H421.547V87.68C421.547 87.4667 421.547 87.1867 421.547 86.84C421.56 86.4933 421.574 86.1533 421.587 85.82C421.6 85.4733 421.614 85.2133 421.627 85.04L415.927 94H413.747V83.28H415.407V89.82ZM433.998 84.76H430.498V94H428.758V84.76H425.298V83.28H433.998V84.76ZM436.11 94V83.28H437.87V87.68H440.65C442.037 87.68 443.063 87.9333 443.73 88.44C444.397 88.9467 444.73 89.7067 444.73 90.72C444.73 91.72 444.403 92.52 443.75 93.12C443.097 93.7067 442.037 94 440.57 94H436.11ZM446.51 94V83.28H448.27V94H446.51ZM440.41 92.58C441.17 92.58 441.79 92.4533 442.27 92.2C442.75 91.9333 442.99 91.4733 442.99 90.82C442.99 90.1667 442.77 89.7267 442.33 89.5C441.89 89.26 441.257 89.14 440.43 89.14H437.87V92.58H440.41ZM2.36 115.82C2.36 115.98 2.35333 116.22 2.34 116.54C2.32667 116.86 2.30667 117.18 2.28 117.5C2.26667 117.82 2.25333 118.073 2.24 118.26L7.98 109.28H10.14V120H8.5V113.68C8.5 113.467 8.5 113.187 8.5 112.84C8.51333 112.493 8.52667 112.153 8.54 111.82C8.55333 111.473 8.56667 111.213 8.58 111.04L2.88 120H0.7V109.28H2.36V115.82ZM30.5203 109.28V120H28.9403V113.16C28.9403 112.88 28.947 112.587 28.9603 112.28C28.987 111.973 29.0136 111.673 29.0403 111.38H28.9803L25.4803 120H24.0003L20.6003 111.38H20.5403C20.5803 111.98 20.6003 112.593 20.6003 113.22V120H19.0203V109.28H21.3603L24.7403 117.9L28.1803 109.28H30.5203ZM43.2622 114.62C43.2622 116.393 42.8089 117.767 41.9022 118.74C41.0089 119.713 39.7955 120.2 38.2622 120.2C37.3155 120.2 36.4689 119.987 35.7222 119.56C34.9889 119.12 34.4089 118.487 33.9822 117.66C33.5555 116.82 33.3422 115.807 33.3422 114.62C33.3422 112.847 33.7889 111.48 34.6822 110.52C35.5755 109.56 36.7889 109.08 38.3222 109.08C39.2955 109.08 40.1489 109.3 40.8822 109.74C41.6289 110.167 42.2089 110.793 42.6222 111.62C43.0489 112.433 43.2622 113.433 43.2622 114.62ZM35.1622 114.62C35.1622 115.887 35.4089 116.893 35.9022 117.64C36.4089 118.373 37.2089 118.74 38.3022 118.74C39.3822 118.74 40.1755 118.373 40.6822 117.64C41.1889 116.893 41.4422 115.887 41.4422 114.62C41.4422 113.353 41.1889 112.36 40.6822 111.64C40.1755 110.92 39.3755 110.56 38.2822 110.56C37.1889 110.56 36.3955 110.92 35.9022 111.64C35.4089 112.36 35.1622 113.353 35.1622 114.62ZM45.4916 113.56C45.4916 111.213 45.8449 109.387 46.5516 108.08C47.2582 106.76 48.3982 105.933 49.9716 105.6C50.8382 105.413 51.6849 105.247 52.5116 105.1C53.3382 104.953 54.1116 104.82 54.8316 104.7L55.1316 106.24C54.6649 106.307 54.1382 106.393 53.5516 106.5C52.9649 106.593 52.3849 106.693 51.8116 106.8C51.2382 106.893 50.7449 106.987 50.3316 107.08C49.4649 107.267 48.7782 107.72 48.2716 108.44C47.7649 109.147 47.4782 110.253 47.4116 111.76H47.5316C47.7182 111.507 47.9716 111.247 48.2916 110.98C48.6249 110.713 49.0182 110.487 49.4716 110.3C49.9382 110.113 50.4649 110.02 51.0516 110.02C52.4382 110.02 53.4849 110.467 54.1916 111.36C54.8982 112.253 55.2516 113.413 55.2516 114.84C55.2516 116.027 55.0449 117.02 54.6316 117.82C54.2182 118.62 53.6449 119.22 52.9116 119.62C52.1782 120.007 51.3249 120.2 50.3516 120.2C48.8716 120.2 47.6916 119.633 46.8116 118.5C45.9316 117.367 45.4916 115.72 45.4916 113.56ZM50.4916 118.74C51.3582 118.74 52.0582 118.46 52.5916 117.9C53.1249 117.34 53.3916 116.38 53.3916 115.02C53.3916 113.927 53.1849 113.067 52.7716 112.44C52.3716 111.8 51.7049 111.48 50.7716 111.48C50.1849 111.48 49.6516 111.613 49.1716 111.88C48.6916 112.133 48.2916 112.427 47.9716 112.76C47.6516 113.093 47.4249 113.373 47.2916 113.6C47.2916 114.253 47.3382 114.887 47.4316 115.5C47.5249 116.113 47.6849 116.667 47.9116 117.16C48.1516 117.64 48.4782 118.027 48.8916 118.32C49.3182 118.6 49.8516 118.74 50.4916 118.74ZM59.6842 115.82C59.6842 115.98 59.6776 116.22 59.6642 116.54C59.6509 116.86 59.6309 117.18 59.6042 117.5C59.5909 117.82 59.5776 118.073 59.5642 118.26L65.3042 109.28H67.4642V120H65.8242V113.68C65.8242 113.467 65.8242 113.187 65.8242 112.84C65.8376 112.493 65.8509 112.153 65.8642 111.82C65.8776 111.473 65.8909 111.213 65.9042 111.04L60.2042 120H58.0242V109.28H59.6842V115.82ZM79.0358 120H77.2558V110.74H74.0958C73.9224 112.993 73.6824 114.813 73.3758 116.2C73.0691 117.573 72.6624 118.573 72.1558 119.2C71.6491 119.827 71.0091 120.14 70.2358 120.14C70.0624 120.14 69.8891 120.127 69.7158 120.1C69.5558 120.087 69.4224 120.053 69.3158 120V118.68C69.3958 118.707 69.4824 118.727 69.5758 118.74C69.6691 118.753 69.7624 118.76 69.8558 118.76C70.5758 118.76 71.1491 117.993 71.5758 116.46C72.0158 114.927 72.3491 112.533 72.5758 109.28H79.0358V120ZM87.3783 113.68C90.1649 113.68 91.5583 114.693 91.5583 116.72C91.5583 117.72 91.2183 118.52 90.5383 119.12C89.8583 119.707 88.7783 120 87.2983 120H82.4383V109.28H84.1983V113.68H87.3783ZM89.7983 116.82C89.7983 116.167 89.5649 115.727 89.0983 115.5C88.6449 115.26 88.0049 115.14 87.1783 115.14H84.1983V118.58H87.2183C87.9649 118.58 88.5783 118.447 89.0583 118.18C89.5516 117.913 89.7983 117.46 89.7983 116.82ZM96.0733 109.28V113.74H101.893V109.28H103.653V120H101.893V115.22H96.0733V120H94.3133V109.28H96.0733ZM107.048 120V109.28H108.808V113.68H111.588C112.974 113.68 114.001 113.933 114.668 114.44C115.334 114.947 115.668 115.707 115.668 116.72C115.668 117.72 115.341 118.52 114.688 119.12C114.034 119.707 112.974 120 111.508 120H107.048ZM117.448 120V109.28H119.208V120H117.448ZM111.348 118.58C112.108 118.58 112.728 118.453 113.208 118.2C113.688 117.933 113.928 117.473 113.928 116.82C113.928 116.167 113.708 115.727 113.268 115.5C112.828 115.26 112.194 115.14 111.368 115.14H108.808V118.58H111.348ZM126.754 109.08C127.674 109.08 128.461 109.28 129.114 109.68C129.781 110.08 130.287 110.647 130.634 111.38C130.994 112.1 131.174 112.947 131.174 113.92V114.98H123.834C123.861 116.193 124.167 117.12 124.754 117.76C125.354 118.387 126.187 118.7 127.254 118.7C127.934 118.7 128.534 118.64 129.054 118.52C129.587 118.387 130.134 118.2 130.694 117.96V119.5C130.147 119.74 129.607 119.913 129.074 120.02C128.541 120.14 127.907 120.2 127.174 120.2C126.161 120.2 125.261 119.993 124.474 119.58C123.701 119.167 123.094 118.553 122.654 117.74C122.227 116.913 122.014 115.907 122.014 114.72C122.014 113.547 122.207 112.54 122.594 111.7C122.994 110.86 123.547 110.213 124.254 109.76C124.974 109.307 125.807 109.08 126.754 109.08ZM126.734 110.52C125.894 110.52 125.227 110.793 124.734 111.34C124.254 111.873 123.967 112.62 123.874 113.58H129.334C129.321 112.673 129.107 111.94 128.694 111.38C128.281 110.807 127.627 110.52 126.734 110.52ZM148.432 109.28V120H146.672V110.78H141.132V120H139.372V109.28H148.432ZM156.952 109.08C158.272 109.08 159.332 109.54 160.132 110.46C160.946 111.38 161.352 112.767 161.352 114.62C161.352 116.447 160.946 117.833 160.132 118.78C159.332 119.727 158.266 120.2 156.932 120.2C156.106 120.2 155.419 120.047 154.872 119.74C154.339 119.42 153.919 119.053 153.612 118.64H153.492C153.519 118.867 153.546 119.153 153.572 119.5C153.599 119.847 153.612 120.147 153.612 120.4V124.8H151.852V109.28H153.292L153.532 110.74H153.612C153.932 110.273 154.352 109.88 154.872 109.56C155.392 109.24 156.086 109.08 156.952 109.08ZM156.632 110.56C155.539 110.56 154.766 110.867 154.312 111.48C153.872 112.093 153.639 113.027 153.612 114.28V114.62C153.612 115.94 153.826 116.96 154.252 117.68C154.692 118.387 155.499 118.74 156.672 118.74C157.326 118.74 157.859 118.56 158.272 118.2C158.699 117.84 159.012 117.353 159.212 116.74C159.426 116.113 159.532 115.4 159.532 114.6C159.532 113.373 159.292 112.393 158.812 111.66C158.346 110.927 157.619 110.56 156.632 110.56ZM165.817 115.82C165.817 115.98 165.81 116.22 165.797 116.54C165.784 116.86 165.764 117.18 165.737 117.5C165.724 117.82 165.71 118.073 165.697 118.26L171.437 109.28H173.597V120H171.957V113.68C171.957 113.467 171.957 113.187 171.957 112.84C171.97 112.493 171.984 112.153 171.997 111.82C172.01 111.473 172.024 111.213 172.037 111.04L166.337 120H164.157V109.28H165.817V115.82ZM185.169 120H183.389V110.74H180.229C180.055 112.993 179.815 114.813 179.509 116.2C179.202 117.573 178.795 118.573 178.289 119.2C177.782 119.827 177.142 120.14 176.369 120.14C176.195 120.14 176.022 120.127 175.849 120.1C175.689 120.087 175.555 120.053 175.449 120V118.68C175.529 118.707 175.615 118.727 175.709 118.74C175.802 118.753 175.895 118.76 175.989 118.76C176.709 118.76 177.282 117.993 177.709 116.46C178.149 114.927 178.482 112.533 178.709 109.28H185.169V120ZM197.891 114.62C197.891 116.393 197.438 117.767 196.531 118.74C195.638 119.713 194.424 120.2 192.891 120.2C191.944 120.2 191.098 119.987 190.351 119.56C189.618 119.12 189.038 118.487 188.611 117.66C188.184 116.82 187.971 115.807 187.971 114.62C187.971 112.847 188.418 111.48 189.311 110.52C190.204 109.56 191.418 109.08 192.951 109.08C193.924 109.08 194.778 109.3 195.511 109.74C196.258 110.167 196.838 110.793 197.251 111.62C197.678 112.433 197.891 113.433 197.891 114.62ZM189.791 114.62C189.791 115.887 190.038 116.893 190.531 117.64C191.038 118.373 191.838 118.74 192.931 118.74C194.011 118.74 194.804 118.373 195.311 117.64C195.818 116.893 196.071 115.887 196.071 114.62C196.071 113.353 195.818 112.36 195.311 111.64C194.804 110.92 194.004 110.56 192.911 110.56C191.818 110.56 191.024 110.92 190.531 111.64C190.038 112.36 189.791 113.353 189.791 114.62ZM213.15 109.28L208.73 114.48L213.53 120H211.53L206.89 114.56V120H205.25V114.56L200.61 120H198.61L203.41 114.48L198.99 109.28H200.91L205.25 114.48V109.28H206.89V114.48L211.25 109.28H213.15ZM219.039 109.08C219.959 109.08 220.746 109.28 221.399 109.68C222.066 110.08 222.573 110.647 222.919 111.38C223.279 112.1 223.459 112.947 223.459 113.92V114.98H216.119C216.146 116.193 216.453 117.12 217.039 117.76C217.639 118.387 218.473 118.7 219.539 118.7C220.219 118.7 220.819 118.64 221.339 118.52C221.873 118.387 222.419 118.2 222.979 117.96V119.5C222.433 119.74 221.893 119.913 221.359 120.02C220.826 120.14 220.193 120.2 219.459 120.2C218.446 120.2 217.546 119.993 216.759 119.58C215.986 119.167 215.379 118.553 214.939 117.74C214.513 116.913 214.299 115.907 214.299 114.72C214.299 113.547 214.493 112.54 214.879 111.7C215.279 110.86 215.833 110.213 216.539 109.76C217.259 109.307 218.093 109.08 219.039 109.08ZM219.019 110.52C218.179 110.52 217.513 110.793 217.019 111.34C216.539 111.873 216.253 112.62 216.159 113.58H221.619C221.606 112.673 221.393 111.94 220.979 111.38C220.566 110.807 219.913 110.52 219.019 110.52ZM227.948 109.28V113.74H233.768V109.28H235.528V120H233.768V115.22H227.948V120H226.188V109.28H227.948ZM240.583 115.82C240.583 115.98 240.576 116.22 240.563 116.54C240.549 116.86 240.529 117.18 240.503 117.5C240.489 117.82 240.476 118.073 240.463 118.26L246.203 109.28H248.363V120H246.723V113.68C246.723 113.467 246.723 113.187 246.723 112.84C246.736 112.493 246.749 112.153 246.763 111.82C246.776 111.473 246.789 111.213 246.803 111.04L241.103 120H238.923V109.28H240.583V115.82ZM252.434 120H250.394L253.454 115.5C253.041 115.393 252.641 115.227 252.254 115C251.868 114.76 251.554 114.433 251.314 114.02C251.074 113.593 250.954 113.067 250.954 112.44C250.954 111.413 251.301 110.633 251.994 110.1C252.688 109.553 253.608 109.28 254.754 109.28H259.554V120H257.794V115.74H255.194L252.434 120ZM252.654 112.46C252.654 113.073 252.881 113.533 253.334 113.84C253.801 114.133 254.448 114.28 255.274 114.28H257.794V110.74H254.934C254.121 110.74 253.534 110.9 253.174 111.22C252.828 111.54 252.654 111.953 252.654 112.46ZM263.746 120V117.8H265.546V120H263.746Z" fill="#FCF7F2"/>
</svg>
