<svg width="696" height="87" viewBox="0 0 696 87" fill="none" xmlns="http://www.w3.org/2000/svg">
<path d="M489.157 75.43C487.396 75.43 486.062 74.9041 485.153 73.8523C484.263 72.781 483.818 71.2032 483.818 69.1191V47.9366H477V46.2712H483.818V37.3015L485.878 35.9868V46.2712H492.986V47.9366H485.878V68.6808C485.878 72.0116 487.116 73.677 489.592 73.677C490.636 73.677 491.768 73.4724 492.986 73.0634V74.7872C491.555 75.2157 490.278 75.43 489.157 75.43Z" fill="white"/>
<path d="M509.124 74.6996L497.577 46.2712H499.84L510.197 72.5667L520.584 46.2712H522.876L506.339 86.9416H504.134L509.124 74.6996Z" fill="white"/>
<path d="M543.346 45.9206C545.822 45.9206 548.056 46.5731 550.048 47.8782C552.04 49.1637 553.597 50.9362 554.719 53.1957C555.86 55.4357 556.431 57.9386 556.431 60.7045C556.431 63.5094 555.851 66.0318 554.69 68.2718C553.549 70.5118 551.972 72.2648 549.961 73.5309C547.969 74.797 545.764 75.43 543.346 75.43C540.735 75.43 538.433 74.7288 536.441 73.3264C534.448 71.9044 532.988 70.0053 532.06 67.629V87H530.029V46.2712H532.06V53.6924C533.008 51.2771 534.478 49.378 536.47 47.995C538.462 46.6121 540.754 45.9206 543.346 45.9206ZM531.915 60.7045C531.915 63.1393 532.398 65.3306 533.365 67.2784C534.332 69.2262 535.657 70.7552 537.34 71.8655C539.042 72.9757 540.957 73.5309 543.085 73.5309C545.212 73.5309 547.137 72.9757 548.858 71.8655C550.599 70.7552 551.953 69.2262 552.92 67.2784C553.907 65.3111 554.4 63.1198 554.4 60.7045C554.4 58.2892 553.907 56.0979 552.92 54.1307C551.953 52.1634 550.599 50.6246 548.858 49.5143C547.137 48.3846 545.212 47.8197 543.085 47.8197C540.976 47.8197 539.071 48.3846 537.369 49.5143C535.667 50.6246 534.332 52.1634 533.365 54.1307C532.398 56.0785 531.915 58.2698 531.915 60.7045Z" fill="white"/>
<path d="M576.307 75.43C573.715 75.43 571.472 74.8164 569.576 73.5893C567.681 72.3622 566.23 70.6481 565.224 68.4471C564.218 66.2461 563.715 63.7236 563.715 60.8798C563.715 58.0165 564.209 55.4552 565.195 53.1957C566.181 50.9168 567.584 49.1345 569.402 47.849C571.239 46.5634 573.386 45.9206 575.843 45.9206C578.57 45.9206 580.823 46.5537 582.603 47.8197C584.402 49.0858 585.707 50.683 586.52 52.6114C587.351 54.5397 587.767 56.5265 587.767 58.5717C587.767 59.4092 587.729 60.2176 587.651 60.9967H565.717C565.737 63.6068 566.181 65.8565 567.052 67.7459C567.922 69.6352 569.151 71.0766 570.737 72.07C572.323 73.0439 574.189 73.5309 576.336 73.5309C578.309 73.5309 579.972 73.2387 581.326 72.6544C582.7 72.0505 584.092 71.0182 585.504 69.5573L587.013 70.8721C585.35 72.5277 583.705 73.7062 582.081 74.4074C580.475 75.0891 578.551 75.43 576.307 75.43ZM585.765 59.419C585.804 58.7567 585.823 58.2795 585.823 57.9873C585.823 56.3512 585.475 54.7442 584.779 53.1665C584.102 51.5888 583.019 50.2837 581.529 49.2514C580.04 48.219 578.154 47.7029 575.872 47.7029C573.938 47.7029 572.226 48.2093 570.737 49.2222C569.247 50.2155 568.067 51.5985 567.197 53.371C566.346 55.1435 565.853 57.1595 565.717 59.419H585.765Z" fill="white"/>
<path d="M598.88 47.9366H592.033V46.2712H598.909V41.6257C598.909 39.0351 599.508 37.1165 600.708 35.8699C601.926 34.6233 603.619 34 605.785 34C607.448 34 608.918 34.3506 610.195 35.0518L609.499 36.6003C608.415 36.0549 607.236 35.7822 605.959 35.7822C604.315 35.7822 603.058 36.2692 602.187 37.2431C601.336 38.217 600.911 39.6779 600.911 41.6257V46.2712H608.28V47.9366H600.911V75.0794H598.88V47.9366Z" fill="white"/>
<path d="M633.189 68.1549C632.28 70.3949 630.858 72.1674 628.924 73.4724C626.99 74.7775 624.794 75.43 622.338 75.43C620.288 75.43 618.518 75.0891 617.028 74.4074C615.539 73.7062 614.398 72.7225 613.605 71.4565C612.831 70.1904 612.444 68.7003 612.444 66.9862C612.444 64.1619 613.46 62.0583 615.491 60.6753C617.348 59.3897 620.094 58.747 623.73 58.747H633.189V57.2569C633.189 54.1014 632.434 51.7251 630.926 50.1279C629.436 48.5307 627.212 47.7321 624.253 47.7321C622.28 47.7321 620.549 48.1216 619.059 48.9008C617.57 49.6799 616.187 50.9362 614.91 52.6698L613.402 51.4427C614.833 49.5338 616.438 48.1411 618.218 47.2646C619.997 46.3686 622.048 45.9206 624.369 45.9206C627.889 45.9206 630.578 46.8848 632.434 48.8131C634.291 50.7415 635.22 53.556 635.22 57.2569V75.0794H633.305L633.189 68.1549ZM614.475 66.9862C614.475 68.3497 614.794 69.5379 615.433 70.5507C616.071 71.5636 616.999 72.3427 618.218 72.8881C619.437 73.4335 620.878 73.7062 622.541 73.7062C624.475 73.7062 626.255 73.2192 627.879 72.2453C629.504 71.2714 630.79 69.9372 631.738 68.2426C632.705 66.5285 633.189 64.6294 633.189 62.5452V60.3831H623.963C620.732 60.3831 618.344 60.9285 616.796 62.0193C615.249 63.188 614.475 64.8436 614.475 66.9862Z" fill="white"/>
<path d="M655.322 75.43C652.846 75.43 650.67 74.797 648.794 73.5309C646.937 72.2648 645.496 70.5118 644.471 68.2718C643.465 66.0318 642.963 63.4899 642.963 60.6461C642.963 57.8218 643.465 55.2993 644.471 53.0788C645.496 50.8388 646.937 49.0858 648.794 47.8197C650.67 46.5537 652.846 45.9206 655.322 45.9206C657.875 45.9206 660.08 46.5731 661.937 47.8782C663.813 49.1637 665.187 51.0336 666.057 53.4879L664.2 54.1891C663.504 52.1439 662.382 50.5564 660.835 49.4267C659.307 48.297 657.469 47.7321 655.322 47.7321C653.098 47.7321 651.202 48.3164 649.636 49.4851C648.088 50.6538 646.928 52.2218 646.154 54.1891C645.38 56.1369 644.993 58.2892 644.993 60.6461C644.993 63.0224 645.38 65.1942 646.154 67.1615C646.928 69.1093 648.088 70.6676 649.636 71.8363C651.202 73.005 653.098 73.5893 655.322 73.5893C657.469 73.5893 659.307 73.0244 660.835 71.8947C662.382 70.765 663.504 69.1775 664.2 67.1323L666.057 67.8627C665.187 70.2975 663.813 72.1674 661.937 73.4724C660.061 74.7775 657.856 75.43 655.322 75.43Z" fill="white"/>
<path d="M684.54 75.43C681.948 75.43 679.704 74.8164 677.809 73.5893C675.913 72.3622 674.463 70.6481 673.457 68.4471C672.451 66.2461 671.948 63.7236 671.948 60.8798C671.948 58.0165 672.441 55.4552 673.428 53.1957C674.414 50.9168 675.817 49.1345 677.635 47.849C679.472 46.5634 681.619 45.9206 684.076 45.9206C686.803 45.9206 689.056 46.5537 690.836 47.8197C692.634 49.0858 693.94 50.683 694.752 52.6114C695.584 54.5397 696 56.5265 696 58.5717C696 59.4092 695.961 60.2176 695.884 60.9967H673.95C673.969 63.6068 674.414 65.8565 675.285 67.7459C676.155 69.6352 677.383 71.0766 678.969 72.07C680.555 73.0439 682.422 73.5309 684.569 73.5309C686.542 73.5309 688.205 73.2387 689.559 72.6544C690.932 72.0505 692.325 71.0182 693.737 69.5573L695.246 70.8721C693.582 72.5277 691.938 73.7062 690.313 74.4074C688.708 75.0891 686.783 75.43 684.54 75.43ZM693.998 59.419C694.037 58.7567 694.056 58.2795 694.056 57.9873C694.056 56.3512 693.708 54.7442 693.012 53.1665C692.335 51.5888 691.252 50.2837 689.762 49.2514C688.273 48.219 686.387 47.7029 684.105 47.7029C682.17 47.7029 680.459 48.2093 678.969 49.2222C677.48 50.2155 676.3 51.5985 675.43 53.371C674.579 55.1435 674.085 57.1595 673.95 59.419H693.998Z" fill="white"/>
<path d="M25.0562 75.3406C20.507 75.3406 16.4731 74.5464 12.9546 72.958C9.43606 71.3697 6.55726 69.1107 4.3182 66.1811C2.11467 63.2162 0.675274 59.7218 0 55.698L3.73178 54.798C4.62029 60.1983 6.94821 64.3986 10.7155 67.3988C14.5184 70.3637 19.3342 71.8462 25.1628 71.8462C28.6103 71.8462 31.7201 71.1403 34.4923 69.7284C37.3 68.2812 39.5035 66.3046 41.1028 63.7986C42.7022 61.2925 43.5018 58.4511 43.5018 55.2745C43.5018 51.9213 42.6311 49.1505 40.8896 46.9621C39.1481 44.7737 36.9979 43.0265 34.439 41.7206C31.88 40.4146 28.326 38.9145 23.7767 37.2203C19.5119 35.5966 16.0111 34.0259 13.2745 32.5082C10.5378 30.9551 8.31653 29.0138 6.61057 26.6842C4.90462 24.3193 4.05164 21.4074 4.05164 17.9483C4.05164 14.5598 4.90462 11.5067 6.61057 8.78885C8.31653 6.03571 10.7155 3.88262 13.8076 2.32958C16.9352 0.776525 20.507 0 24.5231 0C28.8591 0 32.6797 0.970655 35.985 2.91197C39.2903 4.85328 42.0091 7.69466 44.1416 11.4361L41.0495 13.3421C37.2111 6.77694 31.6668 3.49436 24.4165 3.49436C21.1823 3.49436 18.3035 4.11205 15.7801 5.34743C13.2922 6.58281 11.3553 8.2947 9.96917 10.4831C8.58308 12.6715 7.89004 15.1422 7.89004 17.8954C7.89004 20.7897 8.65416 23.2075 10.1824 25.1488C11.7462 27.0901 13.7365 28.6785 16.1533 29.9139C18.57 31.1492 21.8931 32.5611 26.1224 34.1494C30.7072 35.879 34.4567 37.5556 37.3711 39.1792C40.2854 40.8029 42.6666 42.903 44.5147 45.4797C46.3629 48.021 47.2869 51.1977 47.2869 55.0097C47.2869 58.8924 46.3273 62.3867 44.4081 65.4928C42.4889 68.5636 39.8411 70.9814 36.4648 72.7463C33.0884 74.4758 29.2856 75.3406 25.0562 75.3406Z" fill="#FCF7F2"/>
<path d="M97.2311 62.0514C95.5607 66.1105 92.9484 69.3225 89.3943 71.6874C85.8403 74.0522 81.8064 75.2347 77.2927 75.2347C73.5254 75.2347 70.2734 74.617 67.5368 73.3816C64.8002 72.1109 62.7033 70.3285 61.2461 68.0342C59.8245 65.7399 59.1137 63.0397 59.1137 59.9336C59.1137 54.8156 60.9795 51.0036 64.7113 48.4975C68.1232 46.1679 73.17 45.0031 79.8517 45.0031H97.2311V42.303C97.2311 36.5849 95.845 32.2787 93.0728 29.3844C90.3362 26.4901 86.249 25.0429 80.8113 25.0429C77.1861 25.0429 74.0052 25.7489 71.2686 27.1607C68.5319 28.5726 65.9908 30.8492 63.6451 33.9906L60.8729 31.7669C63.5029 28.3079 66.4528 25.7842 69.7226 24.1958C72.9923 22.5722 76.7596 21.7603 81.0245 21.7603C87.4929 21.7603 92.4331 23.5075 95.845 27.0019C99.2569 30.4963 100.963 35.5966 100.963 42.303V74.5993H97.4443L97.2311 62.0514ZM62.8454 59.9336C62.8454 62.4044 63.4318 64.5575 64.6047 66.3929C65.7775 68.2283 67.4835 69.6402 69.7226 70.6285C71.9616 71.6168 74.6094 72.1109 77.6659 72.1109C81.22 72.1109 84.4897 71.2285 87.4751 69.4637C90.4606 67.6989 92.824 65.281 94.5655 62.2102C96.3426 59.1041 97.2311 55.6627 97.2311 51.886V47.9681H80.2782C74.3428 47.9681 69.9536 48.9564 67.1103 50.933C64.2671 53.0508 62.8454 56.051 62.8454 59.9336Z" fill="#FCF7F2"/>
<path d="M118.471 22.3957H122.202V33.3023C123.659 29.4903 125.845 26.6136 128.76 24.6723C131.709 22.731 135.21 21.7603 139.262 21.7603C144.913 21.7603 149.267 23.4899 152.323 26.9489C155.38 30.408 156.908 35.6672 156.908 42.7265V74.5993H153.176V43.9443C153.176 37.5203 151.95 32.7729 149.498 29.7021C147.081 26.596 143.456 25.0429 138.622 25.0429C133.362 25.0429 129.31 26.8784 126.467 30.5492C123.624 34.1847 122.202 39.7793 122.202 47.3327V74.5993H118.471V22.3957Z" fill="#FCF7F2"/>
<path d="M188.814 75.2347C183.838 75.2347 179.502 74.1052 175.806 71.8462C172.145 69.5872 169.551 66.6047 168.022 62.8985L170.741 60.8337C172.056 64.2221 174.313 66.94 177.512 68.9872C180.746 70.9991 184.531 72.005 188.867 72.005C193.203 72.005 196.65 71.0167 199.209 69.0401C201.804 67.0282 203.101 64.2751 203.101 60.7807C203.101 58.0982 202.372 55.9627 200.915 54.3744C199.458 52.786 197.663 51.6036 195.531 50.8271C193.434 50.0153 190.555 49.1681 186.894 48.2857C183.483 47.4739 180.657 46.5915 178.418 45.6385C176.179 44.6855 174.366 43.3442 172.98 41.6147C171.594 39.8851 170.901 37.6438 170.901 34.8907C170.901 32.3493 171.594 30.0903 172.98 28.1137C174.366 26.1018 176.303 24.5488 178.791 23.4546C181.279 22.3251 184.122 21.7603 187.321 21.7603C191.266 21.7603 194.767 22.6428 197.823 24.4076C200.88 26.1371 203.243 28.6785 204.914 32.0317L202.035 33.6729C198.943 27.8137 194.003 24.8841 187.214 24.8841C184.762 24.8841 182.559 25.29 180.604 26.1018C178.649 26.9136 177.121 28.0608 176.019 29.5432C174.953 31.0257 174.42 32.7199 174.42 34.626C174.42 36.7085 174.971 38.4027 176.072 39.7087C177.174 41.0146 178.667 42.0559 180.55 42.8324C182.47 43.6089 184.94 44.3325 187.961 45.0031C192.048 45.9562 195.318 46.9092 197.77 47.8622C200.258 48.7799 202.372 50.2447 204.114 52.2566C205.891 54.2685 206.779 57.004 206.779 60.4631C206.779 63.428 206.033 66.0223 204.54 68.246C203.083 70.4696 201.004 72.1992 198.303 73.4345C195.602 74.6346 192.439 75.2347 188.814 75.2347Z" fill="#FCF7F2"/>
<path d="M213.706 42.0912H240.788V45.0031H213.706V42.0912Z" fill="#FCF7F2"/>
<path d="M272.141 75.3406C267.591 75.3406 263.557 74.5464 260.039 72.958C256.52 71.3697 253.642 69.1107 251.403 66.1811C249.199 63.2162 247.76 59.7218 247.084 55.698L250.816 54.798C251.705 60.1983 254.033 64.3986 257.8 67.3988C261.603 70.3637 266.418 71.8462 272.247 71.8462C275.695 71.8462 278.804 71.1403 281.577 69.7284C284.384 68.2812 286.588 66.3046 288.187 63.7986C289.786 61.2925 290.586 58.4511 290.586 55.2745C290.586 51.9213 289.715 49.1505 287.974 46.9621C286.232 44.7737 284.082 43.0265 281.523 41.7206C278.964 40.4146 275.41 38.9145 270.861 37.2203C266.596 35.5966 263.095 34.0259 260.359 32.5082C257.622 30.9551 255.401 29.0138 253.695 26.6842C251.989 24.3193 251.136 21.4074 251.136 17.9483C251.136 14.5598 251.989 11.5067 253.695 8.78885C255.401 6.03571 257.8 3.88262 260.892 2.32958C264.019 0.776525 267.591 0 271.607 0C275.943 0 279.764 0.970655 283.069 2.91197C286.375 4.85328 289.093 7.69466 291.226 11.4361L288.134 13.3421C284.295 6.77694 278.751 3.49436 271.501 3.49436C268.267 3.49436 265.388 4.11205 262.864 5.34743C260.377 6.58281 258.44 8.2947 257.053 10.4831C255.667 12.6715 254.974 15.1422 254.974 17.8954C254.974 20.7897 255.738 23.2075 257.267 25.1488C258.831 27.0901 260.821 28.6785 263.238 29.9139C265.654 31.1492 268.977 32.5611 273.207 34.1494C277.792 35.879 281.541 37.5556 284.455 39.1792C287.37 40.8029 289.751 42.903 291.599 45.4797C293.447 48.021 294.371 51.1977 294.371 55.0097C294.371 58.8924 293.412 62.3867 291.492 65.4928C289.573 68.5636 286.925 70.9814 283.549 72.7463C280.173 74.4758 276.37 75.3406 272.141 75.3406Z" fill="#FCF7F2"/>
<path d="M329.759 75.2347C324.997 75.2347 320.874 74.1228 317.391 71.8991C313.908 69.6755 311.242 66.5694 309.394 62.5809C307.546 58.5923 306.622 54.0214 306.622 48.8681C306.622 43.6795 307.528 39.038 309.341 34.9436C311.153 30.8139 313.73 27.5843 317.071 25.2547C320.447 22.9251 324.392 21.7603 328.906 21.7603C333.917 21.7603 338.058 22.9075 341.327 25.2018C344.633 27.496 347.032 30.3904 348.524 33.8847C350.053 37.3791 350.817 40.9793 350.817 44.6855C350.817 46.2032 350.746 47.668 350.604 49.0799H310.3C310.336 53.8097 311.153 57.8864 312.753 61.3102C314.352 64.7339 316.609 67.3459 319.523 69.146C322.438 70.9109 325.867 71.7933 329.812 71.7933C333.437 71.7933 336.494 71.2638 338.982 70.2049C341.505 69.1107 344.064 67.24 346.659 64.5928L349.431 66.9753C346.374 69.9755 343.353 72.1109 340.368 73.3816C337.418 74.617 333.882 75.2347 329.759 75.2347ZM347.138 46.2209C347.209 45.0208 347.245 44.156 347.245 43.6266C347.245 40.6617 346.605 37.7497 345.326 34.8907C344.082 32.0317 342.092 29.6668 339.355 27.7961C336.618 25.9253 333.153 24.99 328.959 24.99C325.405 24.99 322.26 25.9077 319.523 27.7431C316.787 29.5432 314.619 32.0493 313.019 35.2613C311.456 38.4733 310.549 42.1265 310.3 46.2209H347.138Z" fill="#FCF7F2"/>
<path d="M366.388 22.3957H370.12V33.1964C371.186 30.6904 372.661 28.5902 374.544 26.896C376.464 25.1665 378.561 23.8781 380.835 23.031C383.11 22.1839 385.349 21.7603 387.552 21.7603C390.253 21.7603 392.759 22.3074 395.069 23.4016L393.15 26.6842C391.018 25.8371 388.921 25.4135 386.859 25.4135C384.727 25.4135 382.594 25.8371 380.462 26.6842C378.365 27.496 376.464 28.7844 374.758 30.5492C373.087 32.314 371.861 34.5554 371.079 37.2732C370.759 38.438 370.511 39.7969 370.333 41.35C370.191 42.8677 370.12 45.0032 370.12 47.7563V74.5993H366.388V22.3957Z" fill="#FCF7F2"/>
<path d="M407.415 22.3957H411.147V74.5993H407.415V22.3957ZM406.935 0.794172H411.626V11.2773H406.935V0.794172Z" fill="#FCF7F2"/>
<path d="M436.209 25.4135H423.627V22.3957H436.262V13.9774C436.262 9.283 437.364 5.80629 439.567 3.54731C441.806 1.28833 444.916 0.158836 448.897 0.158836C451.953 0.158836 454.654 0.794172 457 2.06485L455.721 4.87093C453.73 3.88263 451.562 3.38847 449.217 3.38847C446.196 3.38847 443.885 4.27089 442.286 6.03571C440.722 7.80055 439.94 10.4478 439.94 13.9774V22.3957H453.481V25.4135H439.94V74.5993H436.209V25.4135Z" fill="#FCF7F2"/>
</svg>
