<svg width="219" height="53" viewBox="0 0 219 53" fill="none" xmlns="http://www.w3.org/2000/svg">
<path d="M12.1565 41.43C10.3964 41.43 9.06178 40.9041 8.1527 39.8523C7.26296 38.781 6.81809 37.2032 6.81809 35.1191V13.9366H0V12.2712H6.81809V3.30154L8.87803 1.98677V12.2712H15.9863V13.9366H8.87803V34.6808C8.87803 38.0116 10.1159 39.677 12.5917 39.677C13.6362 39.677 14.7677 39.4724 15.9863 39.0634V40.7872C14.5549 41.2157 13.2784 41.43 12.1565 41.43Z" fill="white"/>
<path d="M32.1239 40.6996L20.5767 12.2712H22.8397L33.1974 38.5667L43.5841 12.2712H45.8762L29.3387 52.9416H27.1337L32.1239 40.6996Z" fill="white"/>
<path d="M66.3459 11.9206C68.8216 11.9206 71.0557 12.5731 73.0479 13.8782C75.0401 15.1637 76.5972 16.9362 77.719 19.1957C78.8602 21.4357 79.4308 23.9386 79.4308 26.7045C79.4308 29.5094 78.8505 32.0318 77.69 34.2718C76.5488 36.5118 74.9724 38.2648 72.9609 39.5309C70.9686 40.797 68.7636 41.43 66.3459 41.43C63.7347 41.43 61.433 40.7288 59.4407 39.3264C57.4485 37.9044 55.9882 36.0053 55.0597 33.629V53H53.0288V12.2712H55.0597V19.6924C56.0075 17.2771 57.4775 15.378 59.4697 13.995C61.462 12.6121 63.754 11.9206 66.3459 11.9206ZM54.9147 26.7045C54.9147 29.1393 55.3982 31.3306 56.3653 33.2784C57.3324 35.2262 58.6574 36.7552 60.3401 37.8655C62.0422 38.9757 63.9571 39.5309 66.0847 39.5309C68.2124 39.5309 70.1369 38.9757 71.8584 37.8655C73.5992 36.7552 74.9531 35.2262 75.9202 33.2784C76.9067 31.3111 77.3999 29.1198 77.3999 26.7045C77.3999 24.2892 76.9067 22.0979 75.9202 20.1307C74.9531 18.1634 73.5992 16.6246 71.8584 15.5143C70.1369 14.3846 68.2124 13.8197 66.0847 13.8197C63.9765 13.8197 62.0713 14.3846 60.3691 15.5143C58.667 16.6246 57.3324 18.1634 56.3653 20.1307C55.3982 22.0785 54.9147 24.2698 54.9147 26.7045Z" fill="white"/>
<path d="M99.3071 41.43C96.7152 41.43 94.4716 40.8164 92.576 39.5893C90.6805 38.3622 89.2298 36.6481 88.2241 34.4471C87.2183 32.2461 86.7154 29.7236 86.7154 26.8798C86.7154 24.0165 87.2086 21.4552 88.195 19.1957C89.1815 16.9168 90.5838 15.1345 92.4019 13.849C94.2394 12.5634 96.3864 11.9206 98.8429 11.9206C101.57 11.9206 103.823 12.5537 105.603 13.8197C107.402 15.0858 108.707 16.683 109.52 18.6114C110.351 20.5397 110.767 22.5265 110.767 24.5717C110.767 25.4092 110.729 26.2176 110.651 26.9967H88.7173C88.7366 29.6068 89.1815 31.8565 90.0519 33.7459C90.9223 35.6352 92.1505 37.0766 93.7366 38.07C95.3226 39.0439 97.1891 39.5309 99.3361 39.5309C101.309 39.5309 102.972 39.2387 104.326 38.6544C105.7 38.0505 107.092 37.0182 108.504 35.5573L110.013 36.8721C108.35 38.5277 106.705 39.7062 105.081 40.4074C103.475 41.0891 101.551 41.43 99.3071 41.43ZM108.765 25.419C108.804 24.7567 108.823 24.2795 108.823 23.9873C108.823 22.3512 108.475 20.7442 107.779 19.1665C107.102 17.5888 106.019 16.2837 104.529 15.2514C103.04 14.219 101.154 13.7029 98.8719 13.7029C96.9377 13.7029 95.2259 14.2093 93.7366 15.2222C92.2472 16.2155 91.0673 17.5985 90.197 19.371C89.3459 21.1435 88.8527 23.1595 88.7173 25.419H108.765Z" fill="white"/>
<path d="M121.88 13.9366H115.033V12.2712H121.909V7.62569C121.909 5.03509 122.508 3.1165 123.708 1.8699C124.926 0.6233 126.619 0 128.785 0C130.448 0 131.918 0.350605 133.195 1.05182L132.499 2.60033C131.415 2.05494 130.236 1.78225 128.959 1.78225C127.315 1.78225 126.058 2.2692 125.187 3.24311C124.336 4.21702 123.911 5.67788 123.911 7.62569V12.2712H131.28V13.9366H123.911V41.0794H121.88V13.9366Z" fill="white"/>
<path d="M156.189 34.1549C155.28 36.3949 153.858 38.1674 151.924 39.4724C149.99 40.7775 147.794 41.43 145.338 41.43C143.288 41.43 141.518 41.0891 140.028 40.4074C138.539 39.7062 137.398 38.7225 136.605 37.4565C135.831 36.1904 135.444 34.7003 135.444 32.9862C135.444 30.1619 136.46 28.0583 138.491 26.6753C140.348 25.3897 143.094 24.747 146.73 24.747H156.189V23.2569C156.189 20.1014 155.434 17.7251 153.926 16.1279C152.436 14.5307 150.212 13.7321 147.253 13.7321C145.28 13.7321 143.549 14.1216 142.059 14.9008C140.57 15.6799 139.187 16.9362 137.91 18.6698L136.402 17.4427C137.833 15.5338 139.438 14.1411 141.218 13.2646C142.997 12.3686 145.048 11.9206 147.369 11.9206C150.889 11.9206 153.578 12.8848 155.434 14.8131C157.291 16.7415 158.22 19.556 158.22 23.2569V41.0794H156.305L156.189 34.1549ZM137.475 32.9862C137.475 34.3497 137.794 35.5379 138.433 36.5507C139.071 37.5636 139.999 38.3427 141.218 38.8881C142.437 39.4335 143.878 39.7062 145.541 39.7062C147.475 39.7062 149.255 39.2192 150.879 38.2453C152.504 37.2714 153.79 35.9372 154.738 34.2426C155.705 32.5285 156.189 30.6294 156.189 28.5452V26.3831H146.963C143.732 26.3831 141.344 26.9285 139.796 28.0193C138.249 29.188 137.475 30.8436 137.475 32.9862Z" fill="white"/>
<path d="M178.322 41.43C175.846 41.43 173.67 40.797 171.794 39.5309C169.937 38.2648 168.496 36.5118 167.471 34.2718C166.465 32.0318 165.963 29.4899 165.963 26.6461C165.963 23.8218 166.465 21.2993 167.471 19.0788C168.496 16.8388 169.937 15.0858 171.794 13.8197C173.67 12.5537 175.846 11.9206 178.322 11.9206C180.875 11.9206 183.08 12.5731 184.937 13.8782C186.813 15.1637 188.187 17.0336 189.057 19.4879L187.2 20.1891C186.504 18.1439 185.382 16.5564 183.835 15.4267C182.307 14.297 180.469 13.7321 178.322 13.7321C176.098 13.7321 174.202 14.3164 172.636 15.4851C171.088 16.6538 169.928 18.2218 169.154 20.1891C168.38 22.1369 167.993 24.2892 167.993 26.6461C167.993 29.0224 168.38 31.1942 169.154 33.1615C169.928 35.1093 171.088 36.6676 172.636 37.8363C174.202 39.005 176.098 39.5893 178.322 39.5893C180.469 39.5893 182.307 39.0244 183.835 37.8947C185.382 36.765 186.504 35.1775 187.2 33.1323L189.057 33.8627C188.187 36.2975 186.813 38.1674 184.937 39.4724C183.061 40.7775 180.856 41.43 178.322 41.43Z" fill="white"/>
<path d="M207.54 41.43C204.948 41.43 202.704 40.8164 200.809 39.5893C198.913 38.3622 197.463 36.6481 196.457 34.4471C195.451 32.2461 194.948 29.7236 194.948 26.8798C194.948 24.0165 195.441 21.4552 196.428 19.1957C197.414 16.9168 198.817 15.1345 200.635 13.849C202.472 12.5634 204.619 11.9206 207.076 11.9206C209.803 11.9206 212.056 12.5537 213.836 13.8197C215.634 15.0858 216.94 16.683 217.752 18.6114C218.584 20.5397 219 22.5265 219 24.5717C219 25.4092 218.961 26.2176 218.884 26.9967H196.95C196.969 29.6068 197.414 31.8565 198.285 33.7459C199.155 35.6352 200.383 37.0766 201.969 38.07C203.555 39.0439 205.422 39.5309 207.569 39.5309C209.542 39.5309 211.205 39.2387 212.559 38.6544C213.932 38.0505 215.325 37.0182 216.737 35.5573L218.246 36.8721C216.582 38.5277 214.938 39.7062 213.313 40.4074C211.708 41.0891 209.783 41.43 207.54 41.43ZM216.998 25.419C217.037 24.7567 217.056 24.2795 217.056 23.9873C217.056 22.3512 216.708 20.7442 216.012 19.1665C215.335 17.5888 214.252 16.2837 212.762 15.2514C211.273 14.219 209.387 13.7029 207.105 13.7029C205.17 13.7029 203.459 14.2093 201.969 15.2222C200.48 16.2155 199.3 17.5985 198.43 19.371C197.579 21.1435 197.085 23.1595 196.95 25.419H216.998Z" fill="white"/>
</svg>
